<svg width="30" height="29" viewBox="0 0 30 29" fill="none" xmlns="http://www.w3.org/2000/svg">
<path fill-rule="evenodd" clip-rule="evenodd" d="M7.07431 1.54142C6.99917 1.611 6.95317 1.70646 6.94559 1.80859L6.97559 8.01859H5.85059V1.80859C5.85059 1.41077 6.00862 1.02924 6.28993 0.747934C6.57123 0.466629 6.95276 0.308594 7.35059 0.308594H22.6806C23.0784 0.308594 23.4599 0.466629 23.7412 0.747934C24.0226 1.02924 24.1806 1.41077 24.1806 1.80859V8.01859H15.2856V1.43359H7.35059C7.24817 1.43331 7.14946 1.47184 7.07431 1.54142ZM13.1702 21.3086V21.4436V21.5486C13.1724 21.7344 13.1266 21.9176 13.0372 22.0805C12.9479 22.2434 12.818 22.3805 12.6602 22.4786L11.7902 23.1236C10.9052 23.7536 11.3552 24.5336 12.0602 25.0586L13.7102 26.2586C13.8452 26.3636 13.8902 26.2586 13.8152 26.1536C13.7372 25.9908 13.6305 25.8435 13.5002 25.7186L12.2552 24.8186C12.1773 24.7739 12.1125 24.7095 12.0675 24.6318C12.0225 24.5541 11.9988 24.4659 11.9988 24.3761C11.9988 24.2863 12.0225 24.1981 12.0675 24.1204C12.1125 24.0427 12.1773 23.9782 12.2552 23.9336L13.6502 22.9286C13.7425 22.8226 13.8116 22.6984 13.8529 22.5641C13.8943 22.4297 13.907 22.2882 13.8902 22.1486V21.7136V21.3086H13.1702ZM9.80965 22.224C10.3621 22.7312 10.7046 23.4269 10.7697 24.174V24.159C10.7969 24.8353 10.9764 25.4967 11.2947 26.094C11.4147 26.334 11.2647 26.259 11.0997 26.094C10.5472 25.5869 10.2047 24.8912 10.1397 24.144C10.1187 23.4716 9.93881 22.8136 9.61465 22.224C9.49465 21.999 9.64465 22.074 9.80965 22.224ZM8.73916 23.5196C8.91403 23.4779 9.09815 23.5032 9.25533 23.5905C9.34522 23.6096 9.42968 23.6486 9.50251 23.7047C9.57533 23.7607 9.63467 23.8324 9.67616 23.9144C9.71764 23.9964 9.74022 24.0867 9.74223 24.1785C9.74424 24.2704 9.72563 24.3616 9.68777 24.4453C9.64992 24.5291 9.59377 24.6033 9.52347 24.6625C9.45317 24.7217 9.37049 24.7643 9.28152 24.7874C9.19255 24.8104 9.09955 24.8132 9.00936 24.7956C8.91916 24.7779 8.83407 24.7403 8.76033 24.6855C8.5872 24.627 8.44352 24.5037 8.35957 24.3414C8.27562 24.1791 8.25797 23.9905 8.31033 23.8155C8.41133 23.6668 8.5643 23.5612 8.73916 23.5196ZM15.2848 27.5973H7.34982C7.24241 27.5973 7.1394 27.5547 7.06345 27.4787C6.98749 27.4028 6.94482 27.2998 6.94482 27.1923V21.0273H5.81982V27.1923C5.81982 27.5902 5.97786 27.9717 6.25916 28.253C6.54047 28.5343 6.922 28.6923 7.31982 28.6923H22.6498C22.8468 28.6923 23.0419 28.6535 23.2238 28.5782C23.4058 28.5028 23.5712 28.3923 23.7105 28.253C23.8498 28.1137 23.9603 27.9484 24.0356 27.7664C24.111 27.5844 24.1498 27.3893 24.1498 27.1923V21.0273H15.2848V27.5973ZM4.5 9.30859H25.5C26.6935 9.30859 27.8381 9.7827 28.682 10.6266C29.5259 11.4705 30 12.6151 30 13.8086V15.1586C30 16.3521 29.5259 17.4967 28.682 18.3406C27.8381 19.1845 26.6935 19.6586 25.5 19.6586H4.5C3.30653 19.6586 2.16193 19.1845 1.31802 18.3406C0.474106 17.4967 0 16.3521 0 15.1586V13.8086C0 12.6151 0.474106 11.4705 1.31802 10.6266C2.16193 9.7827 3.30653 9.30859 4.5 9.30859ZM28.83 15.1586V13.8086H28.875C28.8711 13.3693 28.7807 12.9351 28.6089 12.5308C28.4372 12.1264 28.1875 11.7599 27.8741 11.4521C27.5607 11.1442 27.1897 10.9012 26.7824 10.7367C26.375 10.5722 25.9393 10.4896 25.5 10.4936H4.5C4.06072 10.4896 3.62497 10.5722 3.21762 10.7367C2.81027 10.9012 2.4393 11.1442 2.1259 11.4521C1.8125 11.7599 1.5628 12.1264 1.39107 12.5308C1.21933 12.9351 1.12892 13.3693 1.125 13.8086V15.1886C1.12498 15.6304 1.21249 16.0678 1.38246 16.4756C1.55244 16.8834 1.80151 17.2535 2.11531 17.5645C2.42911 17.8755 2.80141 18.1213 3.21071 18.2876C3.62001 18.454 4.05821 18.5376 4.5 18.5336H25.5C25.9405 18.5316 26.3764 18.4427 26.7824 18.2718C27.1885 18.101 27.5568 17.8516 27.8662 17.538C28.1756 17.2244 28.4201 16.8527 28.5855 16.4444C28.7509 16.0361 28.834 15.5991 28.83 15.1586ZM3.075 13.4512H2.25V16.6312H3.075V13.4512ZM2.25 12.2969H3.075V13.0919H2.25V12.2969ZM7.03447 13.3605C6.85459 13.3545 6.67594 13.3923 6.51393 13.4707C6.35191 13.5491 6.21139 13.6657 6.10447 13.8105C6.00916 13.6693 5.87899 13.555 5.72658 13.4788C5.57417 13.4026 5.40466 13.367 5.23447 13.3755C5.06699 13.371 4.90105 13.4085 4.75172 13.4844C4.6024 13.5604 4.47443 13.6725 4.37947 13.8105V13.4505H3.58447V16.6155H4.40947V14.7555C4.39676 14.67 4.40222 14.5828 4.42548 14.4995C4.44875 14.4163 4.48931 14.3389 4.54451 14.2724C4.59971 14.2058 4.66831 14.1517 4.74584 14.1135C4.82337 14.0753 4.90809 14.0538 4.99447 14.0505C5.32447 14.0505 5.44447 14.2005 5.44447 14.6055V16.6155H6.26947V14.7705C6.26947 14.2905 6.44947 14.0505 6.82447 14.0505C7.19947 14.0505 7.28947 14.2755 7.28947 14.7855V16.6155H8.11447V14.4555C8.13686 14.3079 8.12451 14.1571 8.07839 14.0151C8.03228 13.873 7.95367 13.7437 7.84882 13.6374C7.74396 13.5311 7.61576 13.4507 7.47439 13.4027C7.33303 13.3546 7.1824 13.3402 7.03447 13.3605ZM11.3706 15.8643V15.9993H11.5056V16.6143C11.3607 16.6657 11.2091 16.696 11.0556 16.7043C10.9413 16.7201 10.825 16.6977 10.7247 16.6408C10.6244 16.5839 10.5456 16.4955 10.5006 16.3893C10.2264 16.5621 9.90967 16.6555 9.58559 16.6593C9.44836 16.6761 9.30914 16.664 9.17688 16.6237C9.04463 16.5834 8.92228 16.5159 8.81772 16.4254C8.71315 16.335 8.62868 16.2237 8.56976 16.0986C8.51083 15.9735 8.47875 15.8375 8.47559 15.6993C8.47559 14.8143 9.24059 14.6793 9.70559 14.6793H9.99059C10.3956 14.6343 10.5306 14.6043 10.5306 14.3793C10.5306 14.1543 10.2456 14.0493 9.99059 14.0493C9.73559 14.0493 9.40559 14.1243 9.40559 14.4543V14.5743H8.58059V14.4843C8.67059 13.7943 9.18059 13.4043 10.0806 13.4043C10.6806 13.4043 11.3706 13.6593 11.3706 14.3643V15.8643ZM10.5006 15.5193V15.1593C10.3409 15.2393 10.1682 15.2901 9.99059 15.3093H9.75059C9.40559 15.3093 9.30059 15.4143 9.30059 15.7143C9.30059 16.0143 9.63059 16.0143 9.82559 16.0143C10.0206 16.0143 10.5006 15.9243 10.5006 15.5193ZM13.9205 13.7031C13.8168 13.5884 13.6891 13.498 13.5465 13.4384C13.4039 13.3788 13.2499 13.3514 13.0955 13.3581C12.8907 13.3578 12.688 13.3993 12.4999 13.4803C12.3118 13.5612 12.1422 13.6798 12.0017 13.8288C11.8612 13.9778 11.7526 14.1539 11.6828 14.3464C11.6129 14.5389 11.5832 14.7437 11.5955 14.9481C11.5955 15.9981 12.1205 16.6131 13.0955 16.6131C13.2543 16.6153 13.4117 16.5829 13.5568 16.5181C13.7018 16.4534 13.831 16.3578 13.9355 16.2381V16.4631C13.9355 16.9431 13.7105 17.1531 13.2305 17.1531C12.7505 17.1531 12.6605 17.1531 12.5855 16.7781H11.7455V16.8081C11.7455 17.5581 12.5105 17.8281 13.1705 17.8281C14.1755 17.8281 14.6705 17.3181 14.6705 16.3281V13.3281H13.9205V13.7031ZM13.9205 14.9631C13.9205 15.4281 13.7255 15.9381 13.1855 15.9381C12.6455 15.9381 12.4805 15.4431 12.4805 15.0081C12.4805 14.5731 12.6605 14.0481 13.1855 14.0481C13.7105 14.0481 13.9205 14.7531 13.9205 14.9631ZM15.2095 13.4512H16.0345V16.6312H15.2095V13.4512ZM16.0345 12.2969H15.2095V13.0919H16.0345V12.2969ZM17.7329 13.4627C17.8829 13.3954 18.0456 13.3609 18.21 13.3616C18.3598 13.3481 18.5108 13.3674 18.6524 13.4182C18.794 13.469 18.9229 13.55 19.03 13.6557C19.1371 13.7613 19.2198 13.8891 19.2725 14.03C19.3252 14.1709 19.3465 14.3216 19.335 14.4716V16.6166H18.51V14.6516C18.51 14.2166 18.36 14.0516 18 14.0516C17.9075 14.0469 17.8151 14.0621 17.729 14.0963C17.643 14.1305 17.5653 14.1828 17.5012 14.2497C17.4372 14.3166 17.3883 14.3965 17.3579 14.484C17.3275 14.5714 17.3163 14.6644 17.325 14.7566V16.6166H16.5V13.4516H17.34V13.7516C17.4489 13.6284 17.5828 13.5299 17.7329 13.4627ZM21.2247 13.3579C21.0116 13.3564 20.8007 13.4003 20.6059 13.4866C20.411 13.573 20.2369 13.6999 20.095 13.8588C19.953 14.0178 19.8466 14.2052 19.7828 14.4085C19.7189 14.6118 19.6991 14.8264 19.7247 15.0379C19.7014 15.2483 19.7229 15.4612 19.7878 15.6627C19.8527 15.8642 19.9595 16.0497 20.1012 16.2069C20.2428 16.3642 20.4162 16.4897 20.6099 16.5752C20.8035 16.6607 21.013 16.7042 21.2247 16.7029C21.565 16.733 21.9046 16.6386 22.1805 16.4372C22.4563 16.2359 22.6497 15.9412 22.7247 15.6079V15.5179H21.9447C21.9037 15.6576 21.8155 15.7788 21.6952 15.8609C21.5748 15.9429 21.4298 15.9807 21.2847 15.9679C21.1871 15.9722 21.0896 15.9561 20.9985 15.9206C20.9074 15.8852 20.8247 15.8312 20.7555 15.7621C20.6864 15.693 20.6324 15.6102 20.597 15.5191C20.5616 15.428 20.5455 15.3306 20.5497 15.2329H22.7547C22.7932 14.9791 22.7755 14.72 22.7029 14.4738C22.6304 14.2276 22.5047 14.0003 22.3347 13.8079C22.1905 13.6607 22.0176 13.5447 21.8266 13.4673C21.6356 13.3899 21.4307 13.3526 21.2247 13.3579ZM21.2247 14.0479C21.3952 14.051 21.5585 14.117 21.6831 14.2334C21.8078 14.3497 21.8849 14.5081 21.8997 14.6779H20.5197C20.5383 14.5042 20.6207 14.3436 20.7509 14.2272C20.8812 14.1108 21.05 14.0469 21.2247 14.0479ZM27.5994 15.4469C27.5605 15.8053 27.6339 16.167 27.8094 16.4819L27.8994 16.5869H26.8944C26.7969 16.3813 26.7555 16.1536 26.7744 15.9269C26.7744 15.1469 26.5944 14.9069 26.0244 14.9069H25.0344V16.6169H24.1494V12.2969H26.1594C27.1344 12.2969 27.6594 12.7319 27.6594 13.4969C27.6738 13.7045 27.6311 13.9121 27.5359 14.0972C27.4408 14.2823 27.2967 14.4378 27.1194 14.5469C27.284 14.6273 27.419 14.7576 27.5051 14.9192C27.5913 15.0808 27.6243 15.2654 27.5994 15.4469ZM26.1294 13.0469H25.0344V14.1869H26.1444C26.5644 14.1869 26.7744 13.9919 26.7744 13.6019C26.7744 13.2119 26.5944 13.0469 26.1294 13.0469Z" fill="#1972D2"/>
</svg>
