<svg width="40" height="40" viewBox="0 0 40 40" fill="none" xmlns="http://www.w3.org/2000/svg">
<path fill-rule="evenodd" clip-rule="evenodd" d="M9.43242 2.72189C9.33222 2.81466 9.2709 2.94195 9.26078 3.07812L9.30078 11.3581H7.80078V3.07812C7.80078 2.54769 8.01149 2.03898 8.38657 1.66391C8.76164 1.28884 9.27035 1.07812 9.80078 1.07812H30.2408C30.7712 1.07812 31.2799 1.28884 31.655 1.66391C32.0301 2.03898 32.2408 2.54769 32.2408 3.07812V11.3581H20.3808V2.57812H9.80078C9.66423 2.57775 9.53261 2.62912 9.43242 2.72189ZM17.5603 29.0781V29.2581V29.3981C17.5632 29.6458 17.5021 29.8901 17.383 30.1074C17.2639 30.3246 17.0907 30.5074 16.8803 30.6381L15.7203 31.4981C14.5403 32.3381 15.1403 33.3781 16.0803 34.0781L18.2803 35.6781C18.4603 35.8181 18.5203 35.6781 18.4203 35.5381C18.3163 35.3211 18.174 35.1246 18.0003 34.9581L16.3403 33.7581C16.2364 33.6986 16.1501 33.6127 16.09 33.5091C16.03 33.4055 15.9984 33.2879 15.9984 33.1681C15.9984 33.0484 16.03 32.9308 16.09 32.8272C16.1501 32.7236 16.2364 32.6377 16.3403 32.5781L18.2003 31.2381C18.3234 31.0968 18.4155 30.9312 18.4706 30.7521C18.5257 30.5729 18.5426 30.3842 18.5203 30.1981V29.6181V29.0781H17.5603ZM13.0795 30.2987C13.8162 30.9749 14.2729 31.9025 14.3595 32.8987V32.8787C14.3959 33.7804 14.6351 34.6623 15.0595 35.4587C15.2195 35.7787 15.0195 35.6787 14.7995 35.4587C14.0629 34.7825 13.6062 33.8549 13.5195 32.8587C13.4916 31.9621 13.2518 31.0848 12.8195 30.2987C12.6595 29.9987 12.8595 30.0987 13.0795 30.2987ZM11.6522 32.0261C11.8854 31.9706 12.1309 32.0043 12.3404 32.1206C12.4603 32.1461 12.5729 32.1981 12.67 32.2729C12.7671 32.3476 12.8462 32.4432 12.9015 32.5525C12.9569 32.6619 12.987 32.7822 12.9896 32.9047C12.9923 33.0272 12.9675 33.1488 12.917 33.2604C12.8666 33.3721 12.7917 33.471 12.698 33.5499C12.6042 33.6289 12.494 33.6858 12.3754 33.7165C12.2567 33.7472 12.1327 33.7509 12.0125 33.7274C11.8922 33.7039 11.7788 33.6537 11.6804 33.5806C11.4496 33.5027 11.258 33.3382 11.1461 33.1218C11.0342 32.9054 11.0106 32.654 11.0804 32.4206C11.2151 32.2223 11.4191 32.0816 11.6522 32.0261ZM20.3798 37.4631H9.79976C9.65655 37.4631 9.5192 37.4062 9.41793 37.305C9.31666 37.2037 9.25977 37.0663 9.25977 36.9231V28.7031H7.75977V36.9231C7.75977 37.4536 7.97048 37.9623 8.34555 38.3373C8.72062 38.7124 9.22933 38.9231 9.75977 38.9231H30.1998C30.4624 38.9231 30.7225 38.8714 30.9651 38.7709C31.2078 38.6704 31.4283 38.5231 31.614 38.3373C31.7997 38.1516 31.947 37.9311 32.0475 37.6885C32.148 37.4458 32.1998 37.1858 32.1998 36.9231V28.7031H20.3798V37.4631ZM6 13.0781H34C35.5913 13.0781 37.1174 13.7103 38.2426 14.8355C39.3679 15.9607 40 17.4868 40 19.0781V20.8781C40 22.4694 39.3679 23.9955 38.2426 25.1208C37.1174 26.246 35.5913 26.8781 34 26.8781H6C4.4087 26.8781 2.88258 26.246 1.75736 25.1208C0.632141 23.9955 0 22.4694 0 20.8781V19.0781C0 17.4868 0.632141 15.9607 1.75736 14.8355C2.88258 13.7103 4.4087 13.0781 6 13.0781ZM38.44 20.8781V19.0781H38.5C38.4948 18.4924 38.3742 17.9135 38.1452 17.3744C37.9163 16.8353 37.5833 16.3465 37.1655 15.9361C36.7476 15.5257 36.253 15.2015 35.7098 14.9823C35.1667 14.763 34.5857 14.6528 34 14.6581H6C5.4143 14.6528 4.83329 14.763 4.29016 14.9823C3.74703 15.2015 3.2524 15.5257 2.83454 15.9361C2.41667 16.3465 2.08374 16.8353 1.85476 17.3744C1.62578 17.9135 1.50523 18.4924 1.5 19.0781V20.9181C1.49998 21.5072 1.61665 22.0904 1.84328 22.6342C2.06992 23.1779 2.40202 23.6714 2.82041 24.086C3.23881 24.5007 3.73521 24.8284 4.28095 25.0502C4.82668 25.2719 5.41095 25.3834 6 25.3781H34C34.5874 25.3755 35.1685 25.2569 35.7099 25.0291C36.2513 24.8013 36.7424 24.4688 37.155 24.0506C37.5675 23.6325 37.8934 23.137 38.1139 22.5926C38.3345 22.0481 38.4453 21.4655 38.44 20.8781Z" fill="#1972D2"/>
<path d="M21.0779 18.3657L15.3817 17.5371C15.2661 17.4945 15.14 17.4945 15.0244 17.5371L14.3893 18.0343L18.3588 20.3957L16.374 22.0943C16.2527 22.1839 16.1057 22.2277 15.9573 22.2186L13.8336 21.9286C13.7597 21.9191 13.6847 21.9252 13.6131 21.9465C13.5415 21.9679 13.4747 22.004 13.4168 22.0529L13 22.3843L15.1435 24C16.7897 23.6384 18.3491 22.9339 19.7282 21.9286C20.7405 21.2243 24.1145 18.5728 24.829 17.91C25.1073 17.6518 25.4557 17.3239 25.6615 17C25.8672 16.6761 25.9786 16.4543 26 16.0664C25.5719 15.9753 25.1303 15.978 24.7033 16.0742C24.2762 16.1705 23.873 16.3583 23.5191 16.6257L21.0779 18.3657Z" fill="#1972D2"/>
</svg>
