<svg width="540" height="337" viewBox="0 0 540 337" fill="none" xmlns="http://www.w3.org/2000/svg">
<g clip-path="url(#clip0_125_13406)">
<path d="M20.0889 337C14.7683 336.991 9.66682 334.893 5.90332 331.169C2.13778 327.444 0.0166845 322.394 0 317.123L0 110L540 110V317.123C539.986 322.39 537.867 327.439 534.108 331.163C530.349 334.888 525.258 336.985 519.94 337H20.0889Z" fill="white"/>
<path d="M0 152H540V248H0V152Z" fill="#616161"/>
<path d="M0 269H540V313H0V269Z" fill="#C6C6C6"/>
<path d="M270 110H335V337H302.5H270V110Z" fill="#4BC0AD"/>
<path d="M205 110H270V337H237.5H205V110Z" fill="url(#paint0_linear_125_13406)"/>
<rect x="201" y="313" width="138" height="24" fill="#616161"/>
<g filter="url(#filter0_i_125_13406)">
<path d="M329 123H211C202.716 123 196 129.716 196 138V313H344V138C344 129.716 337.284 123 329 123Z" fill="black" fill-opacity="0.15"/>
</g>
<g filter="url(#filter1_i_125_13406)">
<path d="M344 313V138C344 129.716 337.284 123 329 123H211C202.716 123 196 129.716 196 138V313" stroke="#2A2A2A" stroke-opacity="0.5" stroke-width="2"/>
</g>
<g filter="url(#filter2_d_125_13406)">
<rect x="197" y="312" width="146" height="4" rx="2" fill="#797979"/>
</g>
<path d="M374.994 164L371.586 167.823H372.169L372.954 166.941H375.276L375.752 167.823H377.06L374.994 164ZM374.387 165.331L375.092 166.61H373.249L374.387 165.331Z" fill="#4BC0AD"/>
<path d="M368.906 165.993H367.81L369.428 167.823H370.912L369.41 166.224C371.484 166.224 371.375 165.029 371.375 165.029C371.375 164.063 369.763 164.103 369.763 164.103H366.949L366.28 167.823H367.477L368.091 164.416H369.259C369.259 164.416 370.041 164.401 370.041 165.07C370.041 165.07 370.057 165.995 368.906 165.993Z" fill="#4BC0AD"/>
<path d="M380.355 164.472H382.368L382.42 164.103H377.147L377.096 164.473H379.108L378.502 167.823H379.75L380.355 164.472Z" fill="#4BC0AD"/>
<path d="M386.196 164.103C386.184 164.103 386.178 164.103 386.178 164.103H383.363L382.694 167.823H383.892L384.169 166.302H385.811C387.886 166.302 387.79 165.029 387.79 165.029C387.79 164.123 386.373 164.102 386.196 164.103ZM384.505 164.416H385.674C385.674 164.416 386.456 164.401 386.456 165.07C386.456 165.07 386.472 165.966 385.322 165.964H384.231L384.505 164.416Z" fill="#4BC0AD"/>
<path d="M369.859 176.177C371.515 174.422 373.88 173.213 376.485 173.213C381.497 173.213 385.561 177.223 385.561 182.229C385.561 185.566 383.72 188.91 381.03 190.482C380.651 191.758 380.391 192.723 380.267 194.341C385.54 192.747 389.322 188.015 389.322 182.229C389.322 175.148 383.623 169.649 376.533 169.649C372.485 169.649 368.949 171.471 366.596 174.393C366.596 174.393 368.462 174.918 369.862 176.168" fill="#4BC0AD"/>
<path d="M367.782 179.763C367.508 180.628 367.433 181.274 367.433 182.229C367.433 187.414 371.559 191.365 376.572 191.365C376.291 192.511 376.138 193.416 376.022 194.73C375.055 194.719 374.112 194.651 373.207 194.434C367.678 193.112 363.538 188.179 363.645 182.229C363.673 180.729 363.835 179.443 364.378 178.097C364.378 178.097 366.31 178.235 367.782 179.763Z" fill="#4BC0AD"/>
<path d="M376.355 179.379C376.355 179.379 376.454 180.308 376.532 180.908C376.532 180.908 376.539 181.092 376.797 181.165L377.5 181.391C377.5 181.391 378.016 181.552 377.952 182.083L377.879 182.921C377.879 182.921 378.151 182.499 378.595 182.523C378.595 182.523 379.189 182.594 379.177 183.194C379.177 183.194 379.129 183.822 379.331 184C379.331 184 379.484 184.313 380.411 184.403C380.83 184.434 381.161 184.652 381.161 184.652C381.855 185.191 381.371 186.069 381.371 186.069C381.371 186.069 380.019 188.984 379.426 191.759C379.426 191.759 378.182 196.152 379.335 199.356H377.71C375.952 193.978 379.503 186.568 379.503 186.568C379.503 186.568 379.903 185.835 379.37 185.739C379.178 185.703 379.144 185.698 378.911 185.655C378.911 185.655 378.027 185.603 378.226 184.511C378.371 183.713 377.71 184.104 377.71 184.104C377.001 184.483 376.952 183.92 376.952 183.92C376.92 183.629 376.871 183.163 376.871 183.163C376.839 182.857 376.662 182.833 376.662 182.833L375.875 182.666C375.289 182.523 375.275 181.987 375.275 181.987L375.162 180.603C375.146 179.984 374.541 180.168 374.541 180.168C374.186 180.264 373.034 180.433 373.034 180.433C373.034 180.433 372.363 180.61 371.342 180.373C370.575 180.162 369.602 179.652 368.47 178.685C367.374 177.712 365.939 177.18 365.939 177.18C363.005 176.198 360 177.479 360 177.479V175.788C360 175.788 362.52 174.435 366.068 175.513C366.068 175.513 367.842 175.924 369.776 177.599C369.776 177.599 370.41 178.154 371.173 178.54C371.173 178.54 371.923 178.998 373.081 178.836C374.492 178.62 375.325 178.586 375.325 178.586C375.325 178.586 376.298 178.478 376.355 179.379Z" fill="#004FA3"/>
<path d="M150.001 195.21C149.984 195.183 150.348 193.83 150.81 192.203L151.649 189.244L151.435 188.928C150.741 187.905 150.336 186.523 150.336 185.182C150.336 182.229 152.132 179.278 155.637 176.476C155.981 176.2 156.816 175.6 157.491 175.142C164.755 170.213 169.896 166.09 171.189 164.156C171.302 163.988 171.333 163.967 171.361 164.04C171.38 164.09 171.368 164.736 171.335 165.475C170.885 175.412 168.03 183.07 163.392 186.778C162.116 187.798 160.776 188.52 159.266 188.999C157.679 189.502 155.759 189.721 153.944 189.606C153.355 189.568 153.017 189.566 152.984 189.599C152.956 189.627 152.632 190.698 152.263 191.98C151.895 193.262 151.547 194.399 151.492 194.508C151.327 194.83 150.955 195.096 150.571 195.167C150.145 195.246 150.028 195.255 150.001 195.21ZM159.414 185.814C159.894 185.749 160.437 185.333 160.57 184.928C160.599 184.839 160.976 183.541 161.406 182.045C161.911 180.291 162.253 179.194 162.37 178.958C162.773 178.141 163.503 177.501 164.347 177.226C164.74 177.098 164.872 177.083 165.899 177.054C166.994 177.023 167.029 177.019 167.321 176.875C167.663 176.707 167.898 176.449 168.01 176.121C168.151 175.707 168.521 175.741 163.769 175.741C159.561 175.741 159.505 175.742 159.284 175.849C158.88 176.045 158.385 176.735 158.469 176.983C158.486 177.034 158.872 177.049 160.158 177.049C161.075 177.049 161.825 177.06 161.825 177.074C161.825 177.089 161.707 177.248 161.562 177.428C161.237 177.831 160.852 178.616 160.606 179.377C160.382 180.07 158.796 185.664 158.796 185.762C158.796 185.839 158.926 185.883 159.083 185.86C159.141 185.852 159.29 185.831 159.414 185.814Z" fill="#49AC42" stroke="#49AC42"/>
<path d="M158.723 200.222L158.724 190.856C158.724 190.856 162.082 190.735 164.28 190.936C169.222 191.389 173.329 192.553 176.247 194.328C176.466 194.461 176.673 194.604 176.707 194.645C176.756 194.705 176.597 195.26 175.923 197.378C175.458 198.841 175.03 200.221 175.03 200.221C169.594 200.219 164.159 200.221 158.723 200.222Z" fill="url(#paint1_linear_125_13406)"/>
<g filter="url(#filter3_f_125_13406)">
<path d="M159.543 198.813L159.768 198.275C160.205 198.517 163.068 198.698 162.659 197.543C162.437 196.916 160 197.04 160.261 195.811C160.759 194.736 162.471 194.733 163.446 194.789C163.906 194.843 164.107 194.882 164.343 194.961C165.75 195.426 166.272 196.704 166.659 197.667L167.275 194.823L168.056 194.792L167.758 196.226C167.825 196.149 167.953 196.006 168.005 195.918C168.698 195.029 169.939 194.868 170.997 194.779C171.282 194.765 171.294 194.767 171.294 194.818C171.233 194.949 171.154 195.259 171.017 195.282C170.297 195.406 169.847 195.496 169.269 195.822C168.483 196.324 168.307 197.407 169.13 197.963C169.722 198.353 170.355 198.511 171 198.353L171.803 194.83C171.835 194.798 172.171 194.792 173.694 194.792H175.492L175.474 194.873C175.449 194.988 175.293 195.32 175.228 195.375L172.517 195.379L172.264 196.562L174.485 196.559C174.397 196.753 174.363 197.063 174.187 197.201L172.09 197.203L171.768 198.585C171.768 198.637 171.635 198.808 171.582 198.808C170.64 199.32 167.852 198.978 167.493 197.432L167.186 198.957L166.356 198.964C165.925 197.775 165.312 196.461 164.408 195.558L164.106 197.192C163.912 197.139 163.516 196.719 163.487 196.532L163.802 194.977C163.788 194.977 163.776 195.001 163.776 195.03C163.734 195.127 163.67 195.249 163.554 195.283C163.513 195.285 163.321 195.296 163.103 195.286C162.593 195.268 162.062 195.217 161.614 195.479C161.379 195.618 161.194 196.017 161.484 196.158C162.131 196.615 163.205 196.547 163.714 197.205C163.858 197.364 163.857 197.515 163.829 197.712C163.562 199.174 160.58 199.123 159.543 198.813Z" fill="black"/>
</g>
<path d="M159.647 198.709L159.872 198.17C160.309 198.413 163.172 198.593 162.763 197.438C162.542 196.811 160.104 196.935 160.365 195.706C160.864 194.632 162.576 194.629 163.551 194.684C164.01 194.739 164.212 194.778 164.447 194.857C165.854 195.322 166.376 196.6 166.763 197.562L167.38 194.719L168.16 194.687L167.862 196.121C167.929 196.044 168.058 195.901 168.109 195.814C168.802 194.924 170.044 194.763 171.101 194.674C171.386 194.66 171.398 194.662 171.398 194.713C171.338 194.844 171.258 195.154 171.122 195.178C170.401 195.302 169.951 195.391 169.374 195.718C168.587 196.219 168.411 197.302 169.234 197.858C169.826 198.249 170.459 198.407 171.105 198.248L171.907 194.725C171.939 194.693 172.276 194.687 173.799 194.687H175.596L175.578 194.769C175.553 194.883 175.397 195.215 175.332 195.271L172.621 195.274L172.369 196.458L174.59 196.455C174.501 196.649 174.468 196.959 174.292 197.097L172.195 197.099L171.873 198.48C171.873 198.533 171.739 198.704 171.687 198.704C170.745 199.216 167.957 198.874 167.598 197.328L167.29 198.853L166.461 198.859C166.03 197.67 165.416 196.356 164.512 195.454L164.211 197.087C164.016 197.034 163.621 196.614 163.591 196.427L163.907 194.872C163.892 194.872 163.88 194.896 163.88 194.925C163.838 195.022 163.775 195.144 163.658 195.179C163.618 195.18 163.425 195.192 163.208 195.181C162.697 195.164 162.167 195.112 161.718 195.374C161.484 195.513 161.298 195.913 161.588 196.054C162.236 196.511 163.31 196.443 163.818 197.1C163.963 197.259 163.962 197.411 163.933 197.607C163.667 199.069 160.685 199.018 159.647 198.709Z" fill="white"/>
<g opacity="0.5" filter="url(#filter4_f_125_13406)">
<path fill-rule="evenodd" clip-rule="evenodd" d="M163.709 197.717C163.709 197.312 163.35 196.988 162.609 196.754C162.042 196.575 161.37 196.415 161.258 195.996C161.595 196.341 161.999 196.496 162.704 196.688C163.154 196.81 163.726 197.035 163.708 197.717" fill="#A8A8A8"/>
<path d="M163.709 197.717C163.709 197.312 163.35 196.988 162.609 196.754C162.042 196.575 161.37 196.415 161.258 195.996C161.595 196.341 161.999 196.496 162.704 196.688C163.154 196.81 163.726 197.035 163.708 197.717" stroke="#A4A4A4" stroke-width="0.6"/>
</g>
<g opacity="0.5" filter="url(#filter5_f_125_13406)">
<path fill-rule="evenodd" clip-rule="evenodd" d="M164.653 195.036C164.653 195.036 165.981 195.702 166.68 198.043L166.672 197.641C166.672 197.641 165.987 195.496 164.653 195.036Z" fill="#A8A8A8"/>
<path fill-rule="evenodd" clip-rule="evenodd" d="M164.653 195.036C164.653 195.036 165.981 195.702 166.68 198.043L166.672 197.641C166.672 197.641 165.987 195.496 164.653 195.036Z" stroke="#A8A8A8"/>
</g>
<g opacity="0.5" filter="url(#filter6_f_125_13406)">
<path fill-rule="evenodd" clip-rule="evenodd" d="M168.524 196.865C168.524 196.865 168.453 198.555 170.983 198.494L170.98 198.653C170.98 198.653 168.42 198.74 168.524 196.865Z" fill="#A8A8A8"/>
<path fill-rule="evenodd" clip-rule="evenodd" d="M168.524 196.865C168.524 196.865 168.453 198.555 170.983 198.494L170.98 198.653C170.98 198.653 168.42 198.74 168.524 196.865Z" stroke="#A8A8A8"/>
</g>
<g opacity="0.5" filter="url(#filter7_f_125_13406)">
<path fill-rule="evenodd" clip-rule="evenodd" d="M172.199 194.825L175.305 194.783L175.235 194.933L172.199 194.825Z" fill="#A8A8A8"/>
<path fill-rule="evenodd" clip-rule="evenodd" d="M172.199 194.825L175.305 194.783L175.235 194.933L172.199 194.825Z" stroke="#A8A8A8"/>
</g>
<rect x="209" y="157" width="57" height="86" rx="10" fill="#3D3D3D"/>
<g filter="url(#filter8_i_125_13406)">
<rect x="209" y="157" width="57" height="86" rx="10" fill="black" fill-opacity="0.25"/>
</g>
<rect x="210.5" y="158.5" width="54" height="83" rx="8.5" stroke="black" stroke-width="3"/>
<rect x="274" y="157" width="57" height="86" rx="10" fill="#3D3D3D"/>
<g filter="url(#filter9_i_125_13406)">
<rect x="274" y="157" width="57" height="86" rx="10" fill="black" fill-opacity="0.25"/>
</g>
<rect x="275.5" y="158.5" width="54" height="83" rx="8.5" stroke="black" stroke-width="3"/>
<g filter="url(#filter10_d_125_13406)">
<path d="M205 106H335" stroke="white"/>
</g>
<path d="M0 19.7548L0 110L540 110V19.7548C539.984 14.5202 537.867 9.50363 534.108 5.80208C530.349 2.10061 525.255 0.0157101 519.939 0L20.0635 0C14.7479 0.0157337 9.65371 2.10052 5.89482 5.80208C2.13594 9.50365 0.0159488 14.5205 0 19.7548Z" fill="#2D333D"/>
<path d="M420.826 86.0254C420.743 86.0257 420.659 86.0246 420.576 86.0214C419.636 86.044 418.703 85.8656 417.836 85.4988C417.086 85.1716 416.419 84.6753 415.886 84.048C415.343 83.396 414.94 82.6358 414.703 81.8164C414.425 80.8969 414.273 79.9445 414.247 78.9834C414.236 78.0335 414.39 77.0895 414.703 76.1949C414.989 75.3816 415.426 74.6318 415.991 73.9855C416.538 73.3672 417.207 72.8712 417.954 72.5327C418.736 72.1787 419.583 72.0015 420.439 72.0121C421.461 71.9723 422.473 72.2302 423.358 72.7526C424.112 73.226 424.749 73.87 425.22 74.6352C425.688 75.3992 426.016 76.2457 426.187 77.1291C426.363 77.9729 426.435 78.834 426.403 79.6957H416.54C416.522 80.2616 416.592 80.8266 416.744 81.3704C416.892 81.8836 417.145 82.3584 417.485 82.7647C417.84 83.1835 418.284 83.5156 418.783 83.7373C419.371 83.9903 420.006 84.1146 420.645 84.1005C421.446 84.1346 422.236 83.9061 422.9 83.4487C423.519 82.9654 423.933 82.2606 424.059 81.4774H426.203C426.011 82.8139 425.33 84.0271 424.297 84.8753C423.284 85.6196 422.07 86.0205 420.826 86.0254ZM367.425 86.0193C366.489 86.0194 365.553 85.8423 364.667 85.4887C363.896 85.1523 363.209 84.6459 362.654 84.0056C362.099 83.3608 361.681 82.6057 361.429 81.7881C361.15 80.8986 361.013 79.9682 361.023 79.0339C361.015 78.0975 361.151 77.165 361.429 76.2716C361.682 75.4502 362.099 74.6897 362.654 74.04C363.21 73.3982 363.897 72.8885 364.667 72.5468C366.437 71.8219 368.414 71.8226 370.183 72.5468C370.948 72.8917 371.63 73.4003 372.183 74.04C372.738 74.69 373.154 75.4489 373.407 76.2716C373.684 77.1647 373.822 78.0976 373.813 79.0339C373.824 79.9681 373.686 80.8969 373.407 81.7861C373.154 82.6038 372.737 83.3605 372.183 84.0056C371.63 84.6435 370.949 85.1504 370.183 85.4887C369.297 85.8425 368.361 86.0193 367.425 86.0193ZM382.655 86.0193C382.292 86.0139 381.932 85.9799 381.575 85.9164C381.168 85.8467 380.769 85.7323 380.386 85.5775C379.989 85.418 379.616 85.2041 379.276 84.9398C378.924 84.667 378.627 84.3293 378.4 83.9411H378.349V85.7348L376.179 85.7369V67.2038H378.349V74.1328H378.4C378.745 73.3998 379.344 72.8219 380.081 72.5105C380.88 72.1655 381.738 71.9927 382.605 72.004C383.524 71.9825 384.436 72.1775 385.268 72.5751C386.004 72.9385 386.649 73.4657 387.155 74.1187C387.668 74.7869 388.052 75.5494 388.286 76.3644C388.547 77.2394 388.676 78.1484 388.67 79.0621C388.676 79.9757 388.55 80.8864 388.3 81.7639C388.073 82.5707 387.694 83.3251 387.182 83.9834C386.673 84.6207 386.028 85.1296 385.296 85.4745C384.466 85.8529 383.564 86.0397 382.655 86.0193ZM342.415 85.7369L340.251 85.7348V72.3148H342.288V74.2861H342.342C343.034 73.2509 344.069 72.5048 345.256 72.1816C346.445 71.8581 347.706 71.9797 348.813 72.5246C349.151 72.7077 349.45 72.9565 349.691 73.2591C349.931 73.5626 350.111 73.9129 350.216 74.2881C350.642 73.5783 351.243 72.9961 351.96 72.5993C352.693 72.2012 353.513 71.9963 354.343 72.004C354.949 71.9976 355.556 72.0703 356.145 72.222C356.642 72.3532 357.108 72.5881 357.514 72.91C357.904 73.2315 358.21 73.6472 358.403 74.1187C358.631 74.682 358.741 75.2882 358.724 75.8963L358.722 85.6945H356.559V76.891C356.559 76.5 356.525 76.1094 356.458 75.7248C356.398 75.3902 356.267 75.072 356.075 74.7946C355.876 74.5154 355.608 74.2949 355.299 74.157C354.89 73.9862 354.451 73.9049 354.011 73.9229C353.549 73.8961 353.088 73.9652 352.653 74.1247C352.22 74.2838 351.822 74.5337 351.484 74.8551C351.173 75.1842 350.934 75.5734 350.777 76.0012C350.62 76.429 350.55 76.8851 350.573 77.341V85.7126H348.407V76.9092C348.412 76.5087 348.373 76.11 348.294 75.7187C348.223 75.3849 348.087 75.0683 347.896 74.7885C347.704 74.5172 347.446 74.3034 347.147 74.1671C346.761 74.0084 346.347 73.9337 345.932 73.9471C345.369 73.9299 344.812 74.0636 344.315 74.3345C343.894 74.5675 343.521 74.8831 343.22 75.2627C342.954 75.6015 342.746 75.9827 342.607 76.3927C342.494 76.7041 342.43 77.0329 342.415 77.3652V85.7369ZM391.096 85.7348V72.3148H393.259V85.7348H391.096ZM396.497 85.7348V67.2038H398.663V85.7348H396.497ZM401.901 85.7348L401.899 72.3148H404.064V85.7348H401.901ZM411.152 85.7348C410.668 85.7413 410.184 85.7008 409.708 85.6138C409.354 85.5589 409.022 85.413 408.741 85.188C408.478 84.9549 408.287 84.6492 408.192 84.3083C408.059 83.8174 407.999 83.3093 408.013 82.801V74.2639L405.772 74.2619V72.3148H408.013V68.2914L410.183 68.2934V72.3148H412.809V74.2639H410.183V82.5771C410.176 82.7877 410.197 82.9971 410.247 83.2005C410.281 83.3475 410.367 83.4772 410.488 83.5637C410.637 83.6617 410.807 83.7198 410.984 83.7352C411.26 83.7628 411.537 83.7752 411.814 83.7736H412.809V85.7348H411.152ZM367.425 84.1146C367.975 84.1149 368.52 83.9976 369.024 83.7716C369.526 83.5477 369.973 83.2175 370.338 82.801C370.733 82.3415 371.033 81.8013 371.216 81.2191C371.642 79.8072 371.643 78.2968 371.216 76.885C371.031 76.2979 370.732 75.7558 370.338 75.2869C369.975 74.8649 369.526 74.5273 369.022 74.3002C368.518 74.0764 367.975 73.9611 367.425 73.9613C366.875 73.961 366.331 74.077 365.826 74.3002C365.322 74.5277 364.874 74.8628 364.51 75.2849C364.117 75.7538 363.82 76.2974 363.635 76.885C363.209 78.2975 363.209 79.8069 363.635 81.2191C363.817 81.8014 364.116 82.3413 364.512 82.801C364.876 83.2176 365.324 83.5499 365.826 83.7736C366.33 83.9992 366.874 84.1152 367.425 84.1146ZM382.183 84.0823C382.266 84.0844 382.35 84.0833 382.433 84.0803C383.085 84.1021 383.73 83.9504 384.305 83.6384C384.796 83.3555 385.21 82.9546 385.514 82.4701C385.829 81.9613 386.056 81.3987 386.178 80.8095C386.316 80.1797 386.383 79.5368 386.382 78.8906C386.381 78.2713 386.299 77.6556 386.14 77.0585C385.989 76.4864 385.739 75.9441 385.401 75.4625C385.068 74.9936 384.632 74.6127 384.127 74.3467C383.561 74.0579 382.933 73.9153 382.3 73.933C381.653 73.9115 381.011 74.0639 380.437 74.3709C379.942 74.6581 379.517 75.0517 379.191 75.527C378.858 76.0186 378.621 76.57 378.492 77.1513C378.344 77.7602 378.27 78.3844 378.272 79.0117C378.271 79.6541 378.347 80.2945 378.499 80.9185C378.64 81.501 378.887 82.0511 379.227 82.5407C379.566 83.0132 380.007 83.3994 380.515 83.6707C381.037 83.9278 381.605 84.0677 382.183 84.0823ZM416.54 77.7567H424.111C424.076 77.2459 423.961 76.7439 423.768 76.2716C423.582 75.8224 423.314 75.4159 422.977 75.069C422.639 74.728 422.241 74.4549 421.804 74.2639C421.332 74.0601 420.823 73.9598 420.31 73.9673C419.79 73.9587 419.274 74.059 418.795 74.2639C418.357 74.4543 417.964 74.7334 417.635 75.0831C417.311 75.434 417.054 75.842 416.873 76.2877C416.685 76.7558 416.572 77.2518 416.54 77.7567ZM420.253 69.954L418.622 69.952L421.071 65.749H423.847L420.253 69.954ZM391.096 69.9016V67.2038H393.259V69.9016H391.096ZM401.899 69.9016V67.2038H404.064V69.9016H401.899ZM438.236 83.8374C438.587 83.2252 438.76 82.5239 438.734 81.8146C438.753 81.2544 438.625 80.6994 438.364 80.2058C438.122 79.7773 437.792 79.4081 437.396 79.1229C436.975 78.8264 436.513 78.594 436.026 78.4342C435.502 78.2596 434.971 78.1119 434.433 77.9924C433.925 77.8707 433.413 77.7547 432.902 77.6439C432.436 77.5427 431.978 77.4046 431.532 77.2297C431.162 77.0872 430.822 76.8752 430.528 76.6069C430.401 76.4885 430.3 76.3453 430.232 76.1847C430.163 76.0241 430.129 75.8512 430.13 75.6763C430.117 75.3742 430.207 75.0766 430.386 74.8343C430.563 74.6105 430.79 74.4313 431.049 74.3138C431.338 74.1774 431.646 74.0851 431.961 74.0391C432.287 73.9896 432.615 73.9643 432.944 73.9654C433.299 73.9645 433.656 74.0034 434.003 74.0811C434.339 74.1535 434.661 74.281 434.957 74.4574C435.244 74.6281 435.488 74.8638 435.67 75.1462C435.869 75.4694 435.983 75.8397 436.003 76.2209L438.168 76.2208C438.145 75.5117 437.972 74.8175 437.661 74.1834C437.387 73.6589 436.988 73.2129 436.501 72.886C435.991 72.5554 435.424 72.3267 434.829 72.2122C434.15 72.0762 433.458 72.0108 432.766 72.0166C432.178 72.0191 431.591 72.092 431.021 72.2349C430.461 72.3724 429.927 72.6013 429.441 72.9141C428.974 73.2123 428.58 73.614 428.29 74.091C427.979 74.6145 427.821 75.2181 427.833 75.8303C427.788 76.5625 428.015 77.2864 428.468 77.857C428.909 78.3514 429.454 78.7383 430.062 78.9875C430.735 79.2554 431.433 79.4568 432.145 79.5878C432.894 79.7312 433.583 79.8988 434.222 80.0804C434.787 80.2288 435.325 80.47 435.816 80.792C436.023 80.9329 436.19 81.1278 436.302 81.3545C436.413 81.582 436.464 81.8351 436.451 82.0898C436.467 82.4568 436.359 82.8196 436.145 83.1171C435.941 83.3837 435.674 83.5942 435.369 83.726C435.039 83.8687 434.692 83.9651 434.336 84.01C433.982 84.0605 433.625 84.0868 433.267 84.0891C432.835 84.0904 432.404 84.0465 431.98 83.9586C431.585 83.8803 431.206 83.7358 430.857 83.5307C430.529 83.332 430.253 83.0564 430.052 82.7262C429.84 82.3517 429.726 81.9273 429.724 81.4939L427.554 81.4937C427.567 82.229 427.742 82.952 428.066 83.6101C428.357 84.1689 428.777 84.6482 429.29 85.0049C429.825 85.3695 430.42 85.629 431.048 85.7724C431.734 85.9291 432.437 86.0068 433.139 86.0048C433.811 86.0038 434.481 85.9383 435.14 85.8091C435.785 85.6944 436.404 85.462 436.966 85.121C437.482 84.7989 437.917 84.3603 438.236 83.8374Z" fill="white"/>
<path d="M459.864 86.0401L491.485 86.0404C494.983 86.0305 498.335 84.6382 500.809 82.1693C503.282 79.6989 504.676 76.3529 504.686 72.8595L504.686 41.2969C504.679 37.8032 503.286 34.4539 500.812 31.9823C498.338 29.5106 494.985 28.1175 491.485 28.1077L459.864 28.1083C456.365 28.1189 453.013 29.5119 450.539 31.9834C448.065 34.4548 446.672 37.8036 446.664 41.2975L446.664 72.8688C446.676 76.3603 448.071 79.7049 450.544 82.1727C453.017 84.6396 456.368 86.0308 459.864 86.0401ZM470.741 38.9993C472.121 36.031 475.132 34.5046 477.474 35.585C479.818 36.6646 480.595 39.9552 479.219 42.9377C477.843 45.9203 474.828 47.4325 472.485 46.3529C470.142 45.2725 469.369 41.9775 470.741 38.9993ZM459.4 57.2945C464.31 52.0606 468.734 50.7134 474.639 49.8311C480.545 48.9489 482.717 49.2888 489.727 45.7601C491.651 44.7945 491.108 45.948 489.879 47.253C484.968 52.4877 480.54 53.8338 474.639 54.7163C468.739 55.5988 466.561 55.2586 459.551 58.7883C457.628 59.7529 458.175 58.5997 459.4 57.2945ZM458.479 77.6579C461.857 73.0072 464.591 69.2065 467.855 64.8315C471.965 59.28 478.059 55.7458 483.044 62.6673C487.684 69.1003 492.82 76.1551 494.293 78.1773C494.491 78.4531 494.366 78.7607 493.943 78.7925C491.596 78.9579 486.206 79.3309 484.429 76.8993C481.856 73.379 478.961 69.3169 476.604 66.077C474.575 63.2825 471.634 63.0065 469.664 65.7138C467.468 68.738 463.966 73.5259 462.562 75.4196C461.71 76.6348 460.624 77.6674 459.367 78.4576C458.286 79.1144 457.687 78.7329 458.465 77.6581L458.479 77.6579Z" fill="#64B5F6"/>
<path d="M494.399 78.4814C494.373 78.6417 494.226 78.7706 493.961 78.7905C491.614 78.9558 486.224 79.3278 484.447 76.8962C481.865 73.3764 478.97 69.3142 476.623 66.0748C474.593 63.2803 471.651 63.0045 469.681 65.7119C467.485 68.736 463.983 73.5004 462.579 75.4166C461.728 76.6318 460.643 77.6654 459.386 78.4555C458.286 79.1123 457.687 78.7308 458.483 77.6559C461.889 73.0189 464.651 69.2038 467.873 64.8285C471.975 59.2767 478.067 55.744 483.061 62.665C487.701 69.0943 492.838 76.1522 494.311 78.1743C494.385 78.2778 494.414 78.3853 494.399 78.4814ZM490.988 45.5945C490.988 45.9073 490.53 46.5585 489.879 47.2515C484.968 52.4861 480.522 53.8305 474.64 54.713C468.757 55.5954 466.562 55.2571 459.551 58.7867C457.628 59.7514 458.175 58.5966 459.4 57.2912C464.31 52.0575 468.757 50.7121 474.64 49.8297C480.522 48.9472 482.718 49.2868 489.728 45.758C490.63 45.3054 490.987 45.3184 490.988 45.5945ZM479.9 39.8717C479.913 40.865 479.694 41.9206 479.219 42.9365C477.838 45.8915 474.827 47.4306 472.485 46.3502C470.146 45.2568 469.36 41.9535 470.741 38.9983C472.122 36.0432 475.136 34.481 477.473 35.5846C479.008 36.3083 479.876 37.9754 479.9 39.8717Z" fill="white"/>
<path d="M249.062 60.8285C241.52 60.8281 236.402 56.2941 236.402 48.5702C236.402 41.5095 242.058 36.4433 248.868 36.443C257.151 36.4434 261.289 42.6643 260.941 50.4827H243.971C244.107 53.6364 245.928 55.7191 249.138 55.7192C250.955 55.7198 252.743 54.877 253.458 53.1803H260.539C259.16 58.5081 254.207 60.8197 249.062 60.8285ZM347.878 60.8109C343.474 60.8107 340.002 58.594 340.001 53.8302C340.001 46.3317 348.194 46.9087 353.448 45.8394C354.741 45.5742 355.451 45.1327 355.451 43.7115C355.451 41.9791 353.361 41.3159 351.802 41.3154C349.703 41.3159 348.375 42.248 348.017 44.197L340.919 44.1989C341.073 41.1767 342.488 39.1579 344.535 38.0169C346.584 36.8756 349.251 36.4239 351.882 36.4234C357.357 36.424 362.658 37.6301 362.658 44.1578L362.657 54.2452C362.657 56.199 362.658 58.3525 363.563 60.1571L355.939 60.1551C355.702 59.448 355.553 58.7158 355.496 57.9724C353.537 60.0163 350.645 60.81 347.878 60.8109ZM270.469 60.574C264.88 60.5738 262.114 56.1672 262.114 51.0504C262.114 45.9341 264.848 41.6268 270.401 41.6267C272.255 41.6268 274.923 42.3529 276.257 44.4593H276.329V35.1334H279.313V60.1551H276.329V57.7101H276.257C275.281 59.6997 272.961 60.5742 270.469 60.574ZM289.872 60.5701C284.076 60.5709 281.336 56.5832 281.156 51.0465C281.155 45.6105 284.722 41.6211 289.696 41.6208C296.098 41.6207 298.084 47.6173 297.908 51.9979H284.342C284.238 55.1565 286.029 57.9453 289.99 57.945C292.431 57.9453 294.163 56.751 294.692 54.4135L297.641 54.4116C296.827 58.4055 293.951 60.575 289.872 60.5701ZM226.832 60.161V34.6107H222.037L219.369 31.0499L216.697 34.6107H211L215.983 28.002L222.748 28L226.832 33.4127V28.4385H234.401V60.161H226.832ZM215.579 60.1551V37.1008H223.148V60.1551H215.579ZM299.846 60.1551V28.4385H323.267L323.269 35.0571H308.125V41.5464L321.218 41.5444V47.9379H308.125V60.1551H299.846ZM324.769 60.1336V37.0773H332.126V41.1392H332.213C333.329 38.211 335.906 36.6536 339.165 36.6544C339.763 36.6516 340.359 36.7128 340.943 36.8384V43.7232C340.003 43.4375 339.028 43.286 338.045 43.273C334.311 43.2729 332.342 45.8496 332.342 48.7464L332.344 60.1336H324.769ZM270.885 57.9215C274.882 57.9211 276.43 54.4964 276.43 51.0994C276.422 47.5265 274.755 44.2375 270.695 44.2381C266.626 44.2373 265.271 47.6979 265.271 51.2403C265.27 54.6323 267.029 57.9209 270.885 57.9215ZM350.734 56.1538C354.333 56.1543 355.54 54.1142 355.364 49.3591C354.301 50.0175 352.372 50.2036 350.685 50.6002C348.999 50.9976 347.571 51.7275 347.57 53.5326C347.57 55.4006 349.029 56.1541 350.734 56.1538ZM284.334 49.3689H294.73C294.589 46.5171 292.454 44.2624 289.501 44.2616C286.4 44.2617 284.528 46.5992 284.334 49.3689ZM243.971 46.2602H253.39C253.232 43.6706 251.404 41.5442 248.868 41.5444C246.2 41.5445 244.422 43.4498 243.971 46.2602ZM380.877 49.0077L380.877 60.1559L388.446 60.1557L388.446 45.3626C388.446 42.033 387.822 36.4342 380.117 36.4339C377.359 36.434 374.239 37.9005 372.882 40.2598L372.784 40.2597L372.784 37.1012L365.436 37.1016L365.436 60.1557L372.996 60.1558L372.996 47.5769C372.996 45.0506 374.244 42.6552 377.065 42.6553C381.234 42.6558 380.877 45.8491 380.877 49.0077ZM413.844 51.0966L406.501 51.0964C406.157 53.5325 404.8 55.0444 402.182 55.0444C398.981 55.0439 397.688 51.9853 397.688 49.0078C397.688 45.8088 398.357 42.213 402.585 42.2134C404.493 42.2132 406.233 43.5666 406.284 45.5423L413.649 45.5424C413.12 39.4521 407.992 36.4335 402.25 36.4334C394.812 36.434 390.133 41.6809 390.133 49.0079C390.132 56.0686 395.31 60.8196 402.251 60.8195C408.395 60.8188 413.201 57.2688 413.844 51.0966ZM438.453 53.1802L431.364 53.1805C430.654 54.8768 428.873 55.7201 427.055 55.7204C423.845 55.7203 422.018 53.6356 421.882 50.4824L438.847 50.4825C439.204 42.6636 435.067 36.4419 426.779 36.4423C419.974 36.4423 414.313 41.5089 414.313 48.5697C414.313 56.2981 419.436 60.8272 426.974 60.8283C432.119 60.8181 437.061 58.5088 438.453 53.1802ZM421.882 46.2593C422.334 43.4487 424.103 41.5451 426.779 41.5447C429.32 41.5447 431.147 43.6697 431.278 46.2594L421.882 46.2593Z" fill="#64B5F6"/>
<path d="M82.6554 86H48.8343C41.1932 86 35 79.8561 35 72.2759V38.7241C35 31.1439 41.1932 25 48.8343 25H82.6554C90.2966 25 96.4897 31.1439 96.4897 38.7241V72.2759C96.4897 79.8561 90.2966 86 82.6554 86Z" fill="white"/>
<path d="M92.4929 72.2759V38.7242C92.4929 33.3335 88.0894 28.965 82.6554 28.965H48.8343C43.4004 28.965 38.9968 33.3335 38.9968 38.7242V72.2759C38.9968 77.6666 43.4004 82.0351 48.8343 82.0351H82.6554C88.0894 82.0351 92.4929 77.6666 92.4929 72.2759Z" fill="#2D333D"/>
<path d="M75.9703 44.7502C74.8938 44.7502 74.2786 45.5887 74.2786 46.5033V64.4254C74.2786 65.4933 75.3533 66.0253 76.3512 66.0253C77.5063 66.0253 78.4271 65.4933 78.4271 64.4254V57.488H80.1977L83.6531 65.1845C83.9595 65.7951 84.4993 66.0253 85.1148 66.0253C86.3432 66.0253 88.1149 64.8816 87.4207 63.5097L84.1129 56.6472C86.114 55.6519 87.805 53.9003 87.805 50.7719C87.805 46.6563 84.7312 44.7502 81.735 44.7502H75.9703ZM78.4271 48.2563H79.8855C81.8079 48.2563 83.4987 49.0956 83.4987 51.2314C83.4987 53.8245 81.1171 54.4346 79.6556 54.4346H78.4271V48.2563Z" fill="white"/>
<path d="M72.2024 64.0421C72.2024 63.1248 71.5869 62.1375 70.5104 62.1375H64.667V56.876H69.5099C70.5863 56.876 71.2019 55.9587 71.2019 55.1194C71.2019 54.2075 70.5863 53.3656 69.5099 53.3656H64.667V48.564H70.0495C71.1259 48.564 71.7415 47.4962 71.7415 46.6569C71.7415 45.7423 71.1259 44.7497 70.0495 44.7497H62.2077C61.1312 44.7497 60.5184 45.589 60.5184 46.5036V64.3487C60.5184 65.4139 61.5948 65.9465 62.5927 65.9465H70.5104C71.5869 65.9465 72.2024 64.8813 72.2024 64.0421Z" fill="white"/>
<path d="M46.2205 44.7502C45.1467 44.7502 44.5289 45.5887 44.5289 46.5033V64.4254C44.5289 65.4933 45.6043 66.0253 46.6048 66.0253C47.7572 66.0253 48.6808 65.4933 48.6808 64.4254V57.488H50.4479L53.9067 65.1845C54.2158 65.7951 54.753 66.0253 55.3685 66.0253C56.5968 66.0253 58.3658 64.8816 57.6743 63.5097L54.37 56.6472C56.3684 55.6519 58.0552 53.9003 58.0552 50.7719C58.0552 46.6563 54.9841 44.7502 51.9852 44.7502H46.2205ZM48.6808 48.2563H50.1425C52.0623 48.2563 53.7523 49.0956 53.7523 51.2314C53.7523 53.8245 51.3707 54.4346 49.9092 54.4346H48.6808V48.2563Z" fill="white"/>
<path d="M152.166 85.9999H118.345C110.703 85.9999 104.51 79.8537 104.51 72.2737V38.7262C104.51 31.1463 110.703 25 118.345 25H152.166C159.807 25 166 31.1463 166 38.7262V72.2737C166 79.8537 159.807 85.9999 152.166 85.9999Z" fill="#5091CB"/>
<path d="M133.709 57.2577H129.835V66.274H134.078C138.644 66.274 140.445 64.8538 140.445 61.4216C140.445 57.8522 136.985 57.2577 133.709 57.2577ZM133.387 44.7204H129.835V52.1336H133.479C137.261 52.1336 139.753 51.5392 139.753 48.4728C139.753 45.4978 137.538 44.7204 133.387 44.7204ZM134.493 71.6268H122.638V39.3192H135.003C141.09 39.3192 146.811 40.9681 146.811 47.5098C146.811 50.8533 144.133 53.3682 141.597 53.8255V53.917C145.011 54.3742 147.872 57.0291 147.872 61.6072C147.872 69.752 140.675 71.6268 134.493 71.6268Z" fill="white"/>
</g>
<defs>
<filter id="filter0_i_125_13406" x="196" y="123" width="148" height="194" filterUnits="userSpaceOnUse" color-interpolation-filters="sRGB">
<feFlood flood-opacity="0" result="BackgroundImageFix"/>
<feBlend mode="normal" in="SourceGraphic" in2="BackgroundImageFix" result="shape"/>
<feColorMatrix in="SourceAlpha" type="matrix" values="0 0 0 0 0 0 0 0 0 0 0 0 0 0 0 0 0 0 127 0" result="hardAlpha"/>
<feOffset dy="4"/>
<feGaussianBlur stdDeviation="5"/>
<feComposite in2="hardAlpha" operator="arithmetic" k2="-1" k3="1"/>
<feColorMatrix type="matrix" values="0 0 0 0 0 0 0 0 0 0 0 0 0 0 0 0 0 0 0.15 0"/>
<feBlend mode="normal" in2="shape" result="effect1_innerShadow_125_13406"/>
</filter>
<filter id="filter1_i_125_13406" x="195" y="122" width="150" height="195" filterUnits="userSpaceOnUse" color-interpolation-filters="sRGB">
<feFlood flood-opacity="0" result="BackgroundImageFix"/>
<feBlend mode="normal" in="SourceGraphic" in2="BackgroundImageFix" result="shape"/>
<feColorMatrix in="SourceAlpha" type="matrix" values="0 0 0 0 0 0 0 0 0 0 0 0 0 0 0 0 0 0 127 0" result="hardAlpha"/>
<feOffset dy="4"/>
<feGaussianBlur stdDeviation="5"/>
<feComposite in2="hardAlpha" operator="arithmetic" k2="-1" k3="1"/>
<feColorMatrix type="matrix" values="0 0 0 0 0 0 0 0 0 0 0 0 0 0 0 0 0 0 0.15 0"/>
<feBlend mode="normal" in2="shape" result="effect1_innerShadow_125_13406"/>
</filter>
<filter id="filter2_d_125_13406" x="193" y="312" width="154" height="12" filterUnits="userSpaceOnUse" color-interpolation-filters="sRGB">
<feFlood flood-opacity="0" result="BackgroundImageFix"/>
<feColorMatrix in="SourceAlpha" type="matrix" values="0 0 0 0 0 0 0 0 0 0 0 0 0 0 0 0 0 0 127 0" result="hardAlpha"/>
<feOffset dy="4"/>
<feGaussianBlur stdDeviation="2"/>
<feComposite in2="hardAlpha" operator="out"/>
<feColorMatrix type="matrix" values="0 0 0 0 0 0 0 0 0 0 0 0 0 0 0 0 0 0 0.25 0"/>
<feBlend mode="normal" in2="BackgroundImageFix" result="effect1_dropShadow_125_13406"/>
<feBlend mode="normal" in="SourceGraphic" in2="effect1_dropShadow_125_13406" result="shape"/>
</filter>
<filter id="filter3_f_125_13406" x="154.907" y="190.134" width="25.2214" height="13.5318" filterUnits="userSpaceOnUse" color-interpolation-filters="sRGB">
<feFlood flood-opacity="0" result="BackgroundImageFix"/>
<feBlend mode="normal" in="SourceGraphic" in2="BackgroundImageFix" result="shape"/>
<feGaussianBlur stdDeviation="2.31813" result="effect1_foregroundBlur_125_13406"/>
</filter>
<filter id="filter4_f_125_13406" x="158.432" y="192.73" width="7.8182" height="7.23598" filterUnits="userSpaceOnUse" color-interpolation-filters="sRGB">
<feFlood flood-opacity="0" result="BackgroundImageFix"/>
<feBlend mode="normal" in="SourceGraphic" in2="BackgroundImageFix" result="shape"/>
<feGaussianBlur stdDeviation="1.12043" result="effect1_foregroundBlur_125_13406"/>
</filter>
<filter id="filter5_f_125_13406" x="162.184" y="192.323" width="7.23705" height="8.10396" filterUnits="userSpaceOnUse" color-interpolation-filters="sRGB">
<feFlood flood-opacity="0" result="BackgroundImageFix"/>
<feBlend mode="normal" in="SourceGraphic" in2="BackgroundImageFix" result="shape"/>
<feGaussianBlur stdDeviation="1.12043" result="effect1_foregroundBlur_125_13406"/>
</filter>
<filter id="filter6_f_125_13406" x="165.78" y="194.596" width="7.95183" height="6.79799" filterUnits="userSpaceOnUse" color-interpolation-filters="sRGB">
<feFlood flood-opacity="0" result="BackgroundImageFix"/>
<feBlend mode="normal" in="SourceGraphic" in2="BackgroundImageFix" result="shape"/>
<feGaussianBlur stdDeviation="1.12043" result="effect1_foregroundBlur_125_13406"/>
</filter>
<filter id="filter7_f_125_13406" x="169.941" y="192.032" width="8.39595" height="5.65334" filterUnits="userSpaceOnUse" color-interpolation-filters="sRGB">
<feFlood flood-opacity="0" result="BackgroundImageFix"/>
<feBlend mode="normal" in="SourceGraphic" in2="BackgroundImageFix" result="shape"/>
<feGaussianBlur stdDeviation="1.12043" result="effect1_foregroundBlur_125_13406"/>
</filter>
<filter id="filter8_i_125_13406" x="209" y="157" width="57" height="90" filterUnits="userSpaceOnUse" color-interpolation-filters="sRGB">
<feFlood flood-opacity="0" result="BackgroundImageFix"/>
<feBlend mode="normal" in="SourceGraphic" in2="BackgroundImageFix" result="shape"/>
<feColorMatrix in="SourceAlpha" type="matrix" values="0 0 0 0 0 0 0 0 0 0 0 0 0 0 0 0 0 0 127 0" result="hardAlpha"/>
<feMorphology radius="10" operator="erode" in="SourceAlpha" result="effect1_innerShadow_125_13406"/>
<feOffset dy="4"/>
<feGaussianBlur stdDeviation="2.5"/>
<feComposite in2="hardAlpha" operator="arithmetic" k2="-1" k3="1"/>
<feColorMatrix type="matrix" values="0 0 0 0 0 0 0 0 0 0 0 0 0 0 0 0 0 0 0.25 0"/>
<feBlend mode="normal" in2="shape" result="effect1_innerShadow_125_13406"/>
</filter>
<filter id="filter9_i_125_13406" x="274" y="157" width="57" height="90" filterUnits="userSpaceOnUse" color-interpolation-filters="sRGB">
<feFlood flood-opacity="0" result="BackgroundImageFix"/>
<feBlend mode="normal" in="SourceGraphic" in2="BackgroundImageFix" result="shape"/>
<feColorMatrix in="SourceAlpha" type="matrix" values="0 0 0 0 0 0 0 0 0 0 0 0 0 0 0 0 0 0 127 0" result="hardAlpha"/>
<feMorphology radius="10" operator="erode" in="SourceAlpha" result="effect1_innerShadow_125_13406"/>
<feOffset dy="4"/>
<feGaussianBlur stdDeviation="2.5"/>
<feComposite in2="hardAlpha" operator="arithmetic" k2="-1" k3="1"/>
<feColorMatrix type="matrix" values="0 0 0 0 0 0 0 0 0 0 0 0 0 0 0 0 0 0 0.25 0"/>
<feBlend mode="normal" in2="shape" result="effect1_innerShadow_125_13406"/>
</filter>
<filter id="filter10_d_125_13406" x="201" y="105.5" width="138" height="9" filterUnits="userSpaceOnUse" color-interpolation-filters="sRGB">
<feFlood flood-opacity="0" result="BackgroundImageFix"/>
<feColorMatrix in="SourceAlpha" type="matrix" values="0 0 0 0 0 0 0 0 0 0 0 0 0 0 0 0 0 0 127 0" result="hardAlpha"/>
<feOffset dy="4"/>
<feGaussianBlur stdDeviation="2"/>
<feComposite in2="hardAlpha" operator="out"/>
<feColorMatrix type="matrix" values="0 0 0 0 1 0 0 0 0 1 0 0 0 0 1 0 0 0 0.75 0"/>
<feBlend mode="normal" in2="BackgroundImageFix" result="effect1_dropShadow_125_13406"/>
<feBlend mode="normal" in="SourceGraphic" in2="effect1_dropShadow_125_13406" result="shape"/>
</filter>
<linearGradient id="paint0_linear_125_13406" x1="237.5" y1="110" x2="237.5" y2="337" gradientUnits="userSpaceOnUse">
<stop stop-color="#7D2C6C"/>
<stop offset="0.485577" stop-color="#DF242F"/>
<stop offset="1" stop-color="#7D2C6C"/>
</linearGradient>
<linearGradient id="paint1_linear_125_13406" x1="160.237" y1="195.996" x2="176.979" y2="195.996" gradientUnits="userSpaceOnUse">
<stop stop-color="#881868"/>
<stop offset="0.200282" stop-color="#AD0B6A"/>
<stop offset="0.551" stop-color="#C60535"/>
<stop offset="1" stop-color="#E00000"/>
</linearGradient>
<clipPath id="clip0_125_13406">
<rect width="539.2" height="337" rx="20" fill="white"/>
</clipPath>
</defs>
</svg>
