<svg width="30" height="31" viewBox="0 0 30 31" fill="none" xmlns="http://www.w3.org/2000/svg">
<path fill-rule="evenodd" clip-rule="evenodd" d="M6.0594 7.16061H5.89441C5.59026 7.21134 5.28967 7.28148 4.99448 7.37059H4.76949V2.15097C4.76739 1.93118 4.80964 1.71322 4.8937 1.51012C4.97776 1.30703 5.10191 1.12297 5.25873 0.968948C5.41555 0.81493 5.60181 0.694115 5.80639 0.613728C6.01097 0.533341 6.22965 0.495032 6.44937 0.501091H22.5582C22.7799 0.493025 23.0009 0.529738 23.208 0.609033C23.4152 0.688328 23.6042 0.808579 23.7638 0.962595C23.9234 1.11661 24.0504 1.30123 24.137 1.50542C24.2236 1.7096 24.2682 1.92916 24.2681 2.15097V7.08561H23.9981C23.6835 7.06324 23.3677 7.06324 23.0532 7.08561H14.8188V1.761H6.44937C6.34595 1.761 6.24675 1.80209 6.17362 1.87522C6.10049 1.94835 6.0594 2.04754 6.0594 2.15097V7.16061ZM23.0529 8.49747H6.94405C5.17385 8.49747 3.47617 9.20067 2.22445 10.4524C0.972737 11.7041 0.269531 13.4018 0.269531 15.172C0.269531 16.9422 0.972737 18.6399 2.22445 19.8916C3.47617 21.1433 5.17385 21.8465 6.94405 21.8465H23.0529C23.9294 21.8465 24.7973 21.6739 25.6071 21.3384C26.4169 21.003 27.1527 20.5114 27.7725 19.8916C28.3923 19.2718 28.8839 18.536 29.2193 17.7262C29.5547 16.9164 29.7274 16.0485 29.7274 15.172C29.7274 14.2955 29.5547 13.4275 29.2193 12.6178C28.8839 11.808 28.3923 11.0722 27.7725 10.4524C27.1527 9.8326 26.4169 9.34096 25.6071 9.00553C24.7973 8.67011 23.9294 8.49747 23.0529 8.49747ZM28.4825 15.172C28.4785 16.6094 27.9047 17.9866 26.8869 19.0016C25.8691 20.0166 24.4903 20.5866 23.0529 20.5866H6.94405C5.55533 20.5135 4.24759 19.9104 3.29044 18.9016C2.3333 17.8927 1.79972 16.5551 1.79972 15.1645C1.79972 13.7738 2.3333 12.4362 3.29044 11.4274C4.24759 10.4186 5.55533 9.81544 6.94405 9.74237H23.0529C24.4917 9.74633 25.8704 10.3197 26.8878 11.337C27.9052 12.3544 28.4785 13.7332 28.4825 15.172ZM10.289 17.8848V16.7299L9.05912 16.7599V12.5002H7.76922C7.36579 12.9315 6.84402 13.2341 6.26933 13.3701V14.555C6.8302 14.4913 7.35588 14.2495 7.76922 13.8651V16.7299H6.43431V17.8848H10.289ZM10.124 25.8792C10.0659 25.099 9.70531 24.3724 9.11911 23.8543C8.95412 23.6893 8.80413 23.6143 8.92412 23.8543C9.24669 24.4776 9.43087 25.1632 9.46408 25.8642C9.52221 26.6443 9.88282 27.3709 10.469 27.889C10.634 28.054 10.784 28.129 10.664 27.889C10.3359 27.2679 10.1514 26.5811 10.124 25.8792ZM8.54919 25.2643C8.38744 25.1695 8.19506 25.1415 8.01299 25.1863C7.83092 25.2311 7.67352 25.3452 7.57426 25.5043C7.5174 25.6813 7.53278 25.8736 7.61705 26.0394C7.70133 26.2051 7.84768 26.3309 8.02423 26.3892C8.10292 26.4388 8.19064 26.4723 8.28234 26.4878C8.37404 26.5034 8.46791 26.5006 8.55853 26.4797C8.64915 26.4588 8.73474 26.4201 8.81037 26.366C8.88599 26.3118 8.95015 26.2433 8.99916 26.1642C9.05652 25.9852 9.04156 25.7908 8.95748 25.6226C8.87339 25.4544 8.72686 25.3258 8.54919 25.2643ZM13.004 16.4028C13.004 15.4579 13.8889 14.7979 15.1188 14.7979C15.535 14.7878 15.9487 14.8644 16.3337 15.0229V14.7379C16.3337 14.078 15.9587 13.718 15.2238 13.718C14.6781 13.7415 14.1535 13.9356 13.7239 14.273L13.3339 13.463C13.9408 13.053 14.6564 12.8336 15.3888 12.8331C16.8137 12.8331 17.6536 13.553 17.6536 14.8729V16.3728C17.6536 16.6428 17.7436 16.7478 17.9986 16.7628V17.8427C17.794 17.8608 17.5882 17.8608 17.3836 17.8427C17.204 17.8608 17.0241 17.8107 16.8796 17.7024C16.7351 17.594 16.6366 17.4353 16.6037 17.2578V16.9878C16.3879 17.2668 16.1104 17.4919 15.7928 17.6455C15.4753 17.799 15.1265 17.8768 14.7738 17.8727C14.5606 17.8954 14.3449 17.8752 14.1396 17.8131C13.9343 17.7511 13.7435 17.6485 13.5785 17.5115C13.4135 17.3745 13.2777 17.2057 13.179 17.0153C13.0803 16.8249 13.0208 16.6166 13.004 16.4028ZM16.1237 16.6278C16.1835 16.5875 16.2335 16.5341 16.2698 16.4718C16.3062 16.4095 16.328 16.3398 16.3337 16.2678V15.6979C15.9923 15.5733 15.6322 15.5074 15.2688 15.5029C14.6238 15.5029 14.1589 15.8329 14.1589 16.2828C14.1625 16.3893 14.1879 16.494 14.2335 16.5903C14.2791 16.6866 14.3439 16.7726 14.424 16.8428C14.5042 16.9131 14.5978 16.9662 14.6993 16.9989C14.8007 17.0316 14.9077 17.0431 15.0138 17.0328C15.2083 17.039 15.402 17.0049 15.5827 16.9327C15.7634 16.8604 15.9272 16.7515 16.0637 16.6128L16.1237 16.6278ZM22.1682 17.8848H23.4431V14.78C23.4431 13.82 23.1881 12.8301 21.9432 12.8301C21.5542 12.8106 21.1669 12.8931 20.8196 13.0693C20.4723 13.2456 20.1772 13.5096 19.9633 13.835V12.9201H18.8234V17.8848H20.0833V14.975C20.1732 14.695 20.3434 14.4477 20.5727 14.2637C20.8021 14.0797 21.0804 13.9671 21.3732 13.94C21.8682 13.94 22.1682 14.3 22.1682 15.095V17.8848ZM23.0532 23.2544H14.8188V29.2539H6.44937C6.34595 29.2539 6.24675 29.2129 6.17362 29.1397C6.10049 29.0666 6.0594 28.9674 6.0594 28.864V23.2094H5.89441C5.60669 23.1766 5.32119 23.1265 5.03947 23.0594L4.76949 22.9994V28.849C4.76739 29.0688 4.80964 29.2867 4.8937 29.4898C4.97776 29.6929 5.10191 29.877 5.25873 30.031C5.41555 30.185 5.60181 30.3058 5.80639 30.3862C6.01097 30.4666 6.22965 30.5049 6.44937 30.4988H22.5582C22.7799 30.5069 23.0009 30.4702 23.208 30.3909C23.4152 30.3116 23.6042 30.1914 23.7638 30.0373C23.9234 29.8833 24.0504 29.6987 24.137 29.4945C24.2236 29.2903 24.2682 29.0708 24.2681 28.849V23.1644H24.0581C23.7259 23.2198 23.3899 23.2498 23.0532 23.2544ZM12.0886 24.0919C12.3288 23.9431 12.5011 23.7062 12.5686 23.4319L13.3335 23.4469V23.7769C13.3527 23.9223 13.3398 24.0702 13.2958 24.2101C13.2517 24.35 13.1776 24.4786 13.0785 24.5868L11.5786 25.6218C11.2637 25.8917 11.2187 26.2817 11.5786 26.5517L12.8835 27.4966C13.0433 27.6044 13.1808 27.7418 13.2885 27.9016C13.3635 28.0216 13.3185 28.1266 13.1685 28.0216L11.4587 26.7767C10.7237 26.2517 10.2587 25.4118 11.1737 24.7518L12.0886 24.0919Z" fill="#1972D2"/>
</svg>
