<svg width="533" height="333" viewBox="0 0 533 333" fill="none" xmlns="http://www.w3.org/2000/svg">
<path d="M513 0C524.046 0 533 8.95431 533 20V312.955C533 324.001 524.046 332.955 513 332.955H20C8.9543 332.955 0 324.001 0 312.955V20C0 8.95434 8.95431 0 20 0L513 0Z" fill="url(#paint0_linear_117_3122)"/>
<path d="M24 260H509.5" stroke="white" stroke-width="5" stroke-linecap="round"/>
<path d="M205.105 107V73.0699H215.005C223.015 73.0699 227.65 76.9849 227.65 84.4099C227.65 91.6999 222.475 96.4699 214.51 96.4699H212.035V107H205.105ZM213.7 79.0549H212.035V90.4849H213.745C218.065 90.4849 220.54 88.4599 220.54 84.4999C220.54 80.8099 218.29 79.0549 213.7 79.0549ZM242.823 107L242.598 104.345C241.203 106.55 239.313 107.54 236.433 107.54C231.888 107.54 229.143 104.93 229.143 100.565C229.143 95.7949 232.608 92.7799 238.413 92.7799C239.808 92.7799 241.113 92.9149 242.373 93.2299V92.5099C242.373 89.2249 241.248 88.0549 237.873 88.0549C235.443 88.0549 233.103 88.5949 230.583 89.7649V83.8249C232.923 82.6549 236.118 81.9799 239.088 81.9799C245.613 81.9799 248.763 84.9499 248.763 91.4749V101.645L249.213 107H242.823ZM235.713 99.7999C235.713 101.375 236.793 102.41 238.818 102.41C240.033 102.41 241.293 102.05 242.373 101.375V97.4599C241.383 97.2349 240.438 97.0999 239.538 97.0999C237.063 97.0999 235.713 98.0449 235.713 99.7999ZM260.446 107.495C257.746 107.495 254.956 106.955 252.796 105.875V100.34C255.676 101.69 258.331 102.32 260.851 102.32C263.281 102.32 264.541 101.645 264.541 100.34C264.541 98.8549 263.011 98.3149 259.816 97.5949C254.911 96.4699 252.661 94.2649 252.661 90.2599C252.661 85.3099 256.441 81.9799 262.381 81.9799C264.991 81.9799 268.051 82.6099 269.671 83.5549V89.2699C267.331 87.9649 265.036 87.2899 262.786 87.2899C260.266 87.2899 259.006 88.0999 259.006 89.3599C259.006 90.7549 260.491 91.3399 263.461 92.0599C267.871 93.0499 270.706 94.9399 270.706 99.2149C270.706 104.21 266.746 107.495 260.446 107.495ZM281.32 107.495C278.62 107.495 275.83 106.955 273.67 105.875V100.34C276.55 101.69 279.205 102.32 281.725 102.32C284.155 102.32 285.415 101.645 285.415 100.34C285.415 98.8549 283.885 98.3149 280.69 97.5949C275.785 96.4699 273.535 94.2649 273.535 90.2599C273.535 85.3099 277.315 81.9799 283.255 81.9799C285.865 81.9799 288.925 82.6099 290.545 83.5549V89.2699C288.205 87.9649 285.91 87.2899 283.66 87.2899C281.14 87.2899 279.88 88.0999 279.88 89.3599C279.88 90.7549 281.365 91.3399 284.335 92.0599C288.745 93.0499 291.58 94.9399 291.58 99.2149C291.58 104.21 287.62 107.495 281.32 107.495ZM307.673 107V73.0699H327.653V79.0549H314.603V86.8849H325.313V92.7799H314.603V101.015H328.013V107H307.673ZM338.269 107H331.924V89.2249L331.024 82.5199H337.279L337.774 85.0849C339.664 83.2849 342.049 81.9799 345.154 81.9799C349.114 81.9799 352.264 84.3649 352.264 90.3949V107H345.874V92.6899C345.874 89.1349 344.704 87.8749 342.319 87.8749C340.789 87.8749 339.484 88.3699 338.269 89.2699V107ZM358.049 98.5849V87.5149H354.764V82.5199H358.094L359.219 75.0949H364.304V82.5199H370.334V87.5149H364.304V98.1799C364.304 100.97 365.069 102.23 367.589 102.23C368.489 102.23 369.794 102.05 371.099 101.645V106.505C370.019 107.09 367.859 107.495 365.834 107.495C360.164 107.495 358.049 104.885 358.049 98.5849ZM380.808 107H374.463V89.2249L373.563 82.5199H379.773L380.403 85.7149C381.933 83.4649 383.823 81.8899 386.928 81.8899C387.288 81.8899 387.648 81.8899 388.008 81.9349V88.0099C387.198 87.8299 386.433 87.7399 385.713 87.7399C383.733 87.7399 382.158 88.4599 380.808 89.9899V107ZM400.536 107.45C392.751 107.45 389.061 103.175 389.061 95.2999C389.061 87.1099 392.976 81.9799 399.951 81.9799C406.746 81.9799 410.076 86.4349 410.076 96.4699H395.676C396.036 100.205 397.656 101.87 401.661 101.87C404.091 101.87 406.926 101.375 409.131 100.25V105.38C407.151 106.73 403.731 107.45 400.536 107.45ZM399.771 87.1999C397.341 87.1999 396.036 88.7749 395.676 92.1949H403.416C403.236 88.7299 402.291 87.1999 399.771 87.1999ZM420.666 116.99H414.321V89.2249L413.421 82.5199H419.631L420.081 84.7249C421.836 82.8799 424.086 81.9799 426.606 81.9799C432.591 81.9799 436.056 86.4799 436.056 94.3999C436.056 102.635 432.366 107.495 426.291 107.495C424.041 107.495 422.241 106.865 420.666 105.515V116.99ZM424.581 87.2449C423.096 87.2449 421.791 87.8299 420.666 88.9099V100.925C421.791 101.915 423.096 102.365 424.446 102.365C427.866 102.365 429.261 99.7099 429.261 94.7149C429.261 89.6299 427.776 87.2449 424.581 87.2449ZM446.462 107H440.117V89.2249L439.217 82.5199H445.427L446.057 85.7149C447.587 83.4649 449.477 81.8899 452.582 81.8899C452.942 81.8899 453.302 81.8899 453.662 81.9349V88.0099C452.852 87.8299 452.087 87.7399 451.367 87.7399C449.387 87.7399 447.812 88.4599 446.462 89.9899V107ZM463.114 78.8749H456.499V72.0799H463.114V78.8749ZM462.979 107H456.634V82.5199H462.979V107ZM474.811 107.495C472.111 107.495 469.321 106.955 467.161 105.875V100.34C470.041 101.69 472.696 102.32 475.216 102.32C477.646 102.32 478.906 101.645 478.906 100.34C478.906 98.8549 477.376 98.3149 474.181 97.5949C469.276 96.4699 467.026 94.2649 467.026 90.2599C467.026 85.3099 470.806 81.9799 476.746 81.9799C479.356 81.9799 482.416 82.6099 484.036 83.5549V89.2699C481.696 87.9649 479.401 87.2899 477.151 87.2899C474.631 87.2899 473.371 88.0999 473.371 89.3599C473.371 90.7549 474.856 91.3399 477.826 92.0599C482.236 93.0499 485.071 94.9399 485.071 99.2149C485.071 104.21 481.111 107.495 474.811 107.495ZM499.105 107.45C491.32 107.45 487.63 103.175 487.63 95.2999C487.63 87.1099 491.545 81.9799 498.52 81.9799C505.315 81.9799 508.645 86.4349 508.645 96.4699H494.245C494.605 100.205 496.225 101.87 500.23 101.87C502.66 101.87 505.495 101.375 507.7 100.25V105.38C505.72 106.73 502.3 107.45 499.105 107.45ZM498.34 87.1999C495.91 87.1999 494.605 88.7749 494.245 92.1949H501.985C501.805 88.7299 500.86 87.1999 498.34 87.1999Z" fill="white"/>
<path d="M147 61.9999H24V114.044H147V61.9999ZM101.979 105.252C100.137 105.252 98.7396 104.739 97.7871 103.841C96.8346 102.878 96.3272 101.466 96.3271 99.5409V84.5887H94.168V81.6366H96.3271V74.3846H102.169V81.6366H105.725V84.5887H102.169V99.2841C102.169 100.375 102.423 101.145 102.804 101.466C103.248 101.851 104.074 102.044 105.28 102.044V105.252H101.979ZM107.566 74.3846H113.345V79.7753H107.566V74.3846ZM120.901 105.252C119.441 105.252 118.362 104.803 117.663 104.033C116.901 103.263 116.52 102.044 116.52 100.439V74.3846H122.299V100.247C122.299 100.888 122.489 101.337 122.743 101.658C123.061 101.915 123.632 102.044 124.521 102.044V105.252H120.901ZM60.7031 109.798H77.9756V81.6366H82.7373L83.0557 82.7274C83.754 82.1501 84.4521 81.8291 85.2139 81.6366C85.9758 81.3799 86.865 81.3153 87.8174 81.3153C89.3414 81.3153 90.5485 81.7648 91.4375 82.7274C92.3265 83.69 92.8974 85.0378 93.0879 86.7704C93.2149 87.4121 93.2783 88.3104 93.3418 89.4012C93.4053 90.4922 93.4062 91.6478 93.4062 92.8671C93.4063 94.0862 93.4053 95.177 93.3418 96.1395C93.3418 97.1021 93.2149 98.1931 93.1514 99.2841C92.9609 101.081 92.3265 102.557 91.2471 103.584C90.2311 104.675 88.8336 105.252 87.1191 105.252C86.2302 105.252 85.5314 105.188 84.96 105.059C84.3887 104.995 84.0079 104.867 83.7539 104.675V109.798H108.011V107.241H136.522V113.798H60.7031V109.798ZM68.2598 105.445C65.7198 105.445 63.8149 104.418 62.5449 102.429C61.275 100.375 60.6397 97.3592 60.6396 93.3807C60.6396 89.2095 61.2114 86.1926 62.4814 84.2675C63.7515 82.2783 65.6564 81.3163 68.2598 81.3163C71.0536 81.3163 73.022 82.2783 74.2285 84.2675C75.435 86.2568 76.0068 89.2737 76.0068 93.3807C76.0068 97.5517 75.3715 100.632 74.1016 102.557C72.8316 104.482 70.8631 105.445 68.2598 105.445ZM132.776 105.445C130.363 105.445 128.521 104.418 127.251 102.429C126.045 100.375 125.41 97.3591 125.41 93.3807C125.41 89.402 126.045 86.3854 127.379 84.3319C128.649 82.3427 130.617 81.3163 133.221 81.3163C135.507 81.3164 137.158 82.1505 138.237 83.7548C139.253 85.3591 139.824 87.7977 139.824 91.0702V93.701H131.379C131.379 97.1661 131.506 99.4121 131.76 100.375C132.014 101.337 132.586 101.787 133.411 101.787C133.983 101.787 134.427 101.594 134.681 101.273C134.998 100.888 135.125 100.247 135.125 99.3485H139.253C139.253 101.466 138.681 103.006 137.665 103.969C136.586 104.931 134.999 105.445 132.776 105.445ZM107.566 81.6366H113.345V105.252H107.566V81.6366ZM68.3232 101.787C68.9581 101.787 69.4657 101.274 69.6562 100.311C69.9102 99.2847 69.9746 96.9742 69.9746 93.3807C69.9746 89.5945 69.9102 87.2838 69.7197 86.3212C69.5292 85.4229 69.0851 84.9735 68.3232 84.9735C67.5612 84.9735 67.0528 85.423 66.8623 86.3856C66.6718 87.3483 66.6084 89.7226 66.6084 93.4442C66.6084 97.1658 66.6719 99.4762 66.9258 100.375C67.1163 101.337 67.5612 101.787 68.3232 101.787ZM134.995 89.5604C134.979 87.9047 134.903 86.7465 134.681 86.1288C134.49 85.3589 133.983 84.9736 133.221 84.9735C132.459 84.9735 131.95 85.295 131.76 86.0009C131.506 86.6428 131.379 88.1185 131.379 90.2997L134.995 89.5604ZM85.4678 101.915C85.9757 101.915 86.3573 101.787 86.7383 101.402C87.0558 101.017 87.2461 100.503 87.2461 99.8612C87.2461 99.3477 87.3096 98.3852 87.373 96.8456C87.373 95.2413 87.4365 93.9573 87.4365 92.9305C87.4365 91.6473 87.373 90.5564 87.373 89.6581C87.3096 88.7598 87.2461 87.9898 87.1826 87.2841C87.0556 86.5782 86.8653 86.0646 86.5479 85.6796C86.2939 85.3587 85.8489 85.1659 85.2139 85.1659C85.3409 85.1017 84.8333 85.2302 83.7539 85.4227V101.53C83.9444 101.723 84.1982 101.787 84.4521 101.851C84.7061 101.916 85.0235 101.915 85.4678 101.915Z" fill="white"/>
<defs>
<linearGradient id="paint0_linear_117_3122" x1="215" y1="283.5" x2="274.5" y2="-40.0001" gradientUnits="userSpaceOnUse">
<stop stop-color="#0072B6"/>
<stop offset="0.274038" stop-color="#088CDA"/>
<stop offset="0.644231" stop-color="#1699E6"/>
<stop offset="1" stop-color="#0072B6"/>
</linearGradient>
</defs>
</svg>
