<svg width="540" height="337" viewBox="0 0 540 337" fill="none" xmlns="http://www.w3.org/2000/svg">
<g clip-path="url(#clip0_57_154)">
<rect x="540" width="337" height="540" rx="20" transform="rotate(90 540 0)" fill="#034DA2"/>
<g filter="url(#filter0_f_57_154)">
<path d="M125.999 176.061C125.999 182.102 120.662 187 114.08 187H64.9189C58.3367 187 53 182.102 53 176.061V130.939C53 124.898 58.3367 120 64.9189 120H114.081C120.663 120 126 124.898 126 130.939L125.999 176.061Z" fill="white"/>
</g>
<g filter="url(#filter1_f_57_154)">
<path d="M125.999 176.061C125.999 182.102 120.662 187 114.08 187H64.9189C58.3367 187 53 182.102 53 176.061V130.939C53 124.898 58.3367 120 64.9189 120H114.081C120.663 120 126 124.898 126 130.939L125.999 176.061Z" fill="white"/>
</g>
<g filter="url(#filter2_f_57_154)">
<path d="M125.999 176.061C125.999 182.102 120.662 187 114.08 187H64.9189C58.3367 187 53 182.102 53 176.061V130.939C53 124.898 58.3367 120 64.9189 120H114.081C120.663 120 126 124.898 126 130.939L125.999 176.061Z" fill="white"/>
</g>
<path d="M125.999 176.061C125.999 182.102 120.662 187 114.08 187H64.9189C58.3367 187 53 182.102 53 176.061V130.939C53 124.898 58.3367 120 64.9189 120H114.081C120.663 120 126 124.898 126 130.939L125.999 176.061Z" fill="#F0C47A"/>
<path d="M540 151.995C424.202 156.454 336.007 204.763 336.007 204.763C209.68 266.857 157.423 323.387 146 336.995H222.85C258.963 276.998 350.351 224.097 350.351 224.097C432.7 175.881 502.405 162.301 540 158.62V151.995Z" fill="#F17A1F"/>
<path d="M540 160.995C500.94 166.049 473.127 176.486 473.127 176.486C331.041 225.03 255.817 312.629 237 336.995H309.775C328.663 295.117 384.377 250.881 384.377 250.881C442.438 205.405 501.17 183.351 540 172.868V160.995Z" fill="#F17A1F"/>
<path d="M420.128 120C415.827 117.722 411.829 114.92 408.232 111.654C409.326 111.578 410.355 111.467 411.349 111.349C414.248 111.055 417.098 110.419 419.842 109.451C423.746 107.984 426.253 106.118 427.609 104.024C428.865 102.024 429.614 99.7501 429.797 97.3993L429.064 97.4028C424.593 97.3893 420.14 96.8777 415.782 95.8825C411.529 95.008 407.487 93.3201 403.88 90.9197L403.824 90.9648C400.21 88.6191 397.275 85.3771 395.31 81.5588C393.346 77.7438 392.419 73.4823 392.622 69.2022C392.542 64.2138 394.078 59.3333 397 55.2768C399.986 51.2542 403.93 48.0287 408.484 45.895C411.976 44.22 415.702 43.0703 419.535 42.4873C424.203 41.8059 428.92 41.4913 433.637 41.5453H439.71C440.175 41.6 440.604 41.8241 440.915 42.1721C441.224 42.5189 441.395 42.967 441.396 43.4327V46.8959C441.396 48.5661 441.394 50.7616 441.393 53.5175C441.328 59.6618 441.294 65.4935 441.295 71.0238C441.295 74.7909 441.228 78.6011 441.295 82.5181C441.361 86.4371 441.361 90.0092 441.362 93.2643C441.361 99.3757 440.344 104.36 438.08 108.125C435.786 111.836 432.517 114.862 428.624 116.873C425.912 118.212 423.064 119.262 420.128 120ZM336.452 97.479C335.62 95.5378 332.768 89.1325 328.797 80.3397C323.791 69.4057 318.736 58.3023 313.63 47.0275L312.953 45.4621L323.816 40.6102L341.475 82.0679L357.559 43.2942C357.764 42.9574 358.053 42.6785 358.401 42.4907C358.748 42.2996 359.142 42.1993 359.539 42.2068H375.072H383.826C384.081 42.2079 384.333 42.2562 384.57 42.3557C384.804 42.4539 385.016 42.6014 385.194 42.7816C385.372 42.964 385.512 43.18 385.603 43.4189C385.695 43.6555 385.735 43.9076 385.728 44.16V95.505C385.736 95.7485 385.695 95.9951 385.606 96.2253C385.517 96.4556 385.381 96.6662 385.212 96.8452C385.041 97.023 384.84 97.1666 384.611 97.2643C384.384 97.3653 384.136 97.4178 383.889 97.4236H375.138C374.888 97.4248 374.642 97.3739 374.412 97.2781C374.179 97.1811 373.968 97.0429 373.791 96.866C373.615 96.6902 373.476 96.4823 373.382 96.253C373.287 96.0205 373.244 95.7717 373.246 95.5223V52.2257H365.731C361.89 60.9098 357.896 69.9302 353.695 79.3631C349.492 88.7948 346.55 95.4821 345.632 97.479H336.452ZM473.471 97.4063C470.034 97.4198 466.62 96.8336 463.384 95.6816C460.255 94.5521 457.374 92.838 454.895 90.6323C452.028 87.9768 449.788 84.7284 448.332 81.1155C446.788 77.3742 446.001 73.3667 446.011 69.3269C445.982 65.5623 446.658 61.8266 448.004 58.307C449.38 54.8434 451.501 51.7173 454.217 49.147C456.723 46.6925 459.697 44.7658 462.968 43.4708C466.331 42.1478 469.921 41.4717 473.538 41.483C477.146 41.4364 480.731 42.0658 484.107 43.3288C487.309 44.5447 490.212 46.4203 492.628 48.8318C495.386 51.4668 497.547 54.6526 498.963 58.1789C500.349 61.7823 501.039 65.6099 500.998 69.4654C501.015 73.4399 500.235 77.3782 498.701 81.0497C497.339 84.3652 495.311 87.3709 492.743 89.8842C490.174 92.3996 487.115 94.3735 483.755 95.6816C480.461 96.8715 476.978 97.4574 473.471 97.4063ZM286.662 97.3855L286.271 97.3197H274.344C270.932 97.3812 267.522 97.0688 264.179 96.3846C261.238 95.8638 258.397 94.8821 255.767 93.4756C253.542 92.1147 251.67 90.2591 250.297 88.0522C249.216 86.1772 248.603 84.0753 248.513 81.9189L248.51 81.8185L248.513 76.8073C248.512 75.0053 248.524 72.3336 248.513 68.797C248.502 65.2572 248.447 62.6736 248.447 61.0672C248.358 57.2461 247.463 54.6491 246.51 53.4655C245.559 52.2832 243.621 51.4717 240.338 51.4707C237.812 51.6022 235.336 52.2043 233.033 53.2404C230.08 54.4118 227.226 55.8167 224.502 57.4412C224.501 58.4405 224.499 60.1773 224.498 62.7053C224.499 66.4508 224.498 69.9253 224.498 72.9632C224.497 76.0032 224.498 97.0459 224.498 97.3301H213V42.0474L224.805 42.0509V47.0206C228.03 45.2172 231.407 43.6884 234.893 42.4526C237.698 41.4086 240.65 40.8232 243.644 40.7141C245.869 40.6273 248.09 41.0015 250.161 41.812C252.234 42.6236 254.111 43.8507 255.676 45.424C258.751 48.6029 260.253 52.9255 260.252 58.0819C260.252 62.5005 260.22 66.2994 260.165 69.4896C260.111 72.6831 260.109 75.2334 260.109 77.2298V80.7242C260.062 81.8558 260.404 82.9677 261.072 83.8826C261.941 84.9455 263.07 85.7627 264.354 86.2583C265.748 86.8373 267.225 87.2042 268.731 87.3457C269.158 87.4317 269.507 87.4299 269.89 87.4289C268.997 85.4419 268.539 83.2885 268.546 81.112C268.49 77.5804 269.729 74.1487 272.033 71.4532C274.535 68.6151 277.699 66.4288 281.248 65.0845C284.302 63.9159 287.462 63.0444 290.687 62.4802C294.477 61.7497 298.305 61.218 302.153 60.894C301.941 59.3883 301.408 57.9432 300.589 56.6586C299.517 55.1255 297.986 53.9637 296.212 53.3374C294.693 52.7262 293.102 52.3113 291.476 52.101C289.353 51.832 287.215 51.7076 285.077 51.7305C283.545 51.73 282.308 51.7735 281.182 51.8274C280.056 51.8814 278.533 51.9905 276.661 52.0768L274.616 52.198L275.873 41.9089L277.297 41.7981L280.435 41.6146C282.043 41.4834 284.18 41.4818 286.938 41.483C290.812 41.4328 294.676 41.8828 298.436 42.8197C301.674 43.6219 304.675 45.177 307.187 47.3565C309.315 49.3609 310.944 51.8267 311.944 54.5634C313.073 57.5486 313.565 61.5771 313.567 66.7433C313.566 75.3827 313.642 82.3956 313.564 87.8444C313.489 93.2924 313.49 94.4342 313.491 94.847V95.2349V95.453C313.499 95.6556 313.467 95.8596 313.4 96.0522C313.286 96.4354 313.055 96.7725 312.733 97.0115C312.41 97.2526 312.021 97.3813 311.62 97.3855H286.662ZM473.461 87.9102C475.365 87.9231 477.251 87.601 479.039 86.9544C480.698 86.3121 482.211 85.3502 483.493 84.1215C485.329 82.3305 486.76 80.1693 487.685 77.7839C488.67 75.2325 489.171 72.5228 489.162 69.7944C489.163 66.8689 488.653 63.9656 487.654 61.2161C486.722 58.6024 485.144 56.2631 483.067 54.411C481.837 53.28 480.385 52.4173 478.802 51.8725C477.116 51.2633 475.333 50.959 473.538 50.972C471.609 50.9199 469.688 51.2374 467.88 51.914C466.189 52.63 464.651 53.6726 463.363 54.9755C461.566 56.7472 460.188 58.8896 459.328 61.2507C458.33 63.8284 457.824 66.5658 457.837 69.3269C457.802 72.314 458.319 75.2814 459.359 78.0852C460.366 80.6754 462.019 82.9668 464.162 84.7484C465.412 85.7843 466.841 86.5812 468.382 87.0964C470.018 87.6465 471.734 87.9209 473.461 87.9102ZM429.644 87.4358H429.919C429.919 86.4581 429.919 85.0804 429.919 83.2904C429.984 79.8274 429.983 75.7478 429.982 71.003C429.982 68.5193 429.985 65.3809 429.982 61.604C429.95 58.3697 429.938 55.0132 429.874 51.5296C427.199 51.5259 424.529 51.7332 421.888 52.1495C419.372 52.5853 416.915 53.3156 414.568 54.3209C411.505 55.543 408.896 57.6714 407.098 60.4196C405.362 63.1618 404.465 66.3432 404.515 69.5797C404.414 72.7293 405.298 75.8311 407.052 78.4592C408.774 80.9547 411.151 82.9396 413.922 84.2012C416.198 85.2431 418.582 86.0254 421.032 86.5354C423.86 87.1499 426.749 87.4514 429.644 87.4358ZM298.293 87.3146C298.938 87.3142 299.778 87.3125 300.806 87.3111C301.265 87.3125 301.838 87.3112 302.363 87.3111C302.361 86.8454 302.36 86.3241 302.359 85.6834C302.361 83.8913 302.362 81.4387 302.363 78.39L302.373 74.3415C302.374 73.1586 302.373 71.8671 302.373 70.4108C300.875 70.5215 298.785 70.7704 296.202 71.0758C293.01 71.4053 289.865 72.0746 286.816 73.0705C285.103 73.6071 283.515 74.48 282.145 75.6333C281.586 76.0786 281.135 76.6468 280.833 77.2922C280.531 77.9408 280.385 78.6443 280.403 79.3562C280.358 80.0957 280.467 80.836 280.728 81.5311C280.987 82.2282 281.39 82.862 281.911 83.3943C283.223 84.583 284.803 85.4401 286.519 85.8912C288.272 86.4191 290.071 86.7793 291.891 86.9752C294.018 87.2023 296.155 87.318 298.293 87.3146ZM375.128 35.0276C374.876 35.0255 374.627 34.9757 374.395 34.8787C374.165 34.7808 373.955 34.6375 373.78 34.4596C373.604 34.2806 373.47 34.0696 373.379 33.8363C373.286 33.6049 373.241 33.3559 373.246 33.1055V24.9325C373.237 24.4371 373.421 23.9602 373.763 23.5991C374.105 23.2382 374.576 23.0233 375.075 23H383.826C384.081 23.0011 384.333 23.052 384.566 23.1524C384.801 23.2505 385.012 23.3938 385.187 23.5749C385.365 23.7572 385.506 23.9698 385.596 24.2052C385.686 24.4407 385.728 24.693 385.718 24.9463V33.0951C385.725 33.344 385.685 33.5888 385.596 33.819C385.507 34.0492 385.376 34.2611 385.205 34.4389C385.033 34.6188 384.828 34.7639 384.601 34.8648C384.375 34.9637 384.13 35.0218 383.882 35.0276H375.128Z" fill="white"/>
</g>
<defs>
<filter id="filter0_f_57_154" x="-97" y="-30" width="373" height="367" filterUnits="userSpaceOnUse" color-interpolation-filters="sRGB">
<feFlood flood-opacity="0" result="BackgroundImageFix"/>
<feBlend mode="normal" in="SourceGraphic" in2="BackgroundImageFix" result="shape"/>
<feGaussianBlur stdDeviation="75" result="effect1_foregroundBlur_57_154"/>
</filter>
<filter id="filter1_f_57_154" x="-97" y="-30" width="373" height="367" filterUnits="userSpaceOnUse" color-interpolation-filters="sRGB">
<feFlood flood-opacity="0" result="BackgroundImageFix"/>
<feBlend mode="normal" in="SourceGraphic" in2="BackgroundImageFix" result="shape"/>
<feGaussianBlur stdDeviation="75" result="effect1_foregroundBlur_57_154"/>
</filter>
<filter id="filter2_f_57_154" x="-97" y="-30" width="373" height="367" filterUnits="userSpaceOnUse" color-interpolation-filters="sRGB">
<feFlood flood-opacity="0" result="BackgroundImageFix"/>
<feBlend mode="normal" in="SourceGraphic" in2="BackgroundImageFix" result="shape"/>
<feGaussianBlur stdDeviation="75" result="effect1_foregroundBlur_57_154"/>
</filter>
<clipPath id="clip0_57_154">
<rect width="540" height="337" fill="white"/>
</clipPath>
</defs>
</svg>
