<svg width="540" height="337" viewBox="0 0 540 337" fill="none" xmlns="http://www.w3.org/2000/svg">
<path d="M20.0591 337C14.7464 336.99 9.65248 334.896 5.89457 331.177C2.13461 327.459 0.0166598 322.416 0 317.152L0 136.018L539.199 136.018V317.152C539.185 322.412 537.069 327.453 533.316 331.171C529.563 334.891 524.479 336.985 519.169 337H20.0591Z" fill="#64B5F6"/>
<path d="M0.0270386 19.8446L0.0270386 136.019L539.2 136.019V19.8446C539.184 14.5862 537.07 9.54683 533.317 5.82845C529.564 2.11016 524.477 0.0157815 519.17 0L20.0598 0C14.7524 0.0158053 9.66596 2.11007 5.91283 5.82845C2.1597 9.54685 0.0429629 14.5865 0.0270386 19.8446Z" fill="#2D333D"/>
<path d="M351.823 104.022C351.721 104.022 351.619 104.021 351.517 104.017C350.367 104.045 349.225 103.826 348.163 103.377C347.246 102.977 346.429 102.37 345.777 101.602C345.112 100.804 344.619 99.8732 344.329 98.8702C343.989 97.7448 343.802 96.5791 343.771 95.4028C343.758 94.2401 343.946 93.0846 344.329 91.9897C344.679 90.9942 345.214 90.0765 345.905 89.2854C346.575 88.5287 347.394 87.9215 348.308 87.5072C349.265 87.0739 350.302 86.857 351.35 86.87C352.6 86.8213 353.839 87.1369 354.922 87.7764C355.846 88.3557 356.625 89.144 357.202 90.0806C357.774 91.0158 358.176 92.0519 358.386 93.1332C358.6 94.166 358.689 95.2199 358.65 96.2746H346.577C346.555 96.9673 346.641 97.6587 346.827 98.3244C347.008 98.9525 347.317 99.5337 347.734 100.031C348.169 100.544 348.712 100.95 349.322 101.221C350.043 101.531 350.819 101.683 351.602 101.666C352.582 101.708 353.548 101.428 354.362 100.868C355.119 100.277 355.626 99.414 355.781 98.4553H358.405C358.17 100.091 357.336 101.576 356.072 102.614C354.832 103.525 353.346 104.016 351.823 104.022ZM286.461 104.015C285.316 104.015 284.171 103.798 283.086 103.365C282.142 102.953 281.301 102.334 280.621 101.55C279.942 100.761 279.431 99.8363 279.123 98.8357C278.781 97.7469 278.614 96.6082 278.625 95.4645C278.616 94.3185 278.782 93.1771 279.123 92.0835C279.432 91.0782 279.943 90.1473 280.621 89.3521C281.302 88.5665 282.143 87.9427 283.086 87.5245C285.252 86.6372 287.672 86.6381 289.837 87.5245C290.774 87.9466 291.609 88.5692 292.285 89.3521C292.965 90.1477 293.474 91.0766 293.783 92.0835C294.123 93.1767 294.291 94.3185 294.281 95.4645C294.293 96.608 294.125 97.7449 293.783 98.8332C293.474 99.834 292.963 100.76 292.285 101.55C291.608 102.331 290.775 102.951 289.837 103.365C288.752 103.798 287.607 104.015 286.461 104.015ZM305.102 104.015C304.659 104.008 304.218 103.966 303.78 103.889C303.283 103.803 302.794 103.663 302.325 103.474C301.839 103.279 301.383 103.017 300.967 102.693C300.536 102.359 300.172 101.946 299.895 101.471H299.832V103.666L297.176 103.669V80.9847H299.832V89.4657H299.895C300.316 88.5686 301.05 87.8612 301.952 87.48C302.93 87.0577 303.98 86.8462 305.042 86.8601C306.166 86.8337 307.282 87.0725 308.301 87.5591C309.202 88.0039 309.991 88.6491 310.61 89.4484C311.239 90.2663 311.709 91.1996 311.995 92.1971C312.314 93.2681 312.473 94.3807 312.465 95.4991C312.472 96.6172 312.318 97.732 312.012 98.806C311.734 99.7935 311.27 100.717 310.644 101.523C310.021 102.303 309.231 102.926 308.335 103.348C307.32 103.811 306.215 104.04 305.102 104.015ZM255.85 103.669L253.201 103.666V87.2405H255.694V89.6534H255.76C256.607 88.3863 257.874 87.473 259.327 87.0775C260.782 86.6815 262.325 86.8304 263.681 87.4973C264.094 87.7214 264.461 88.0259 264.755 88.3963C265.049 88.7678 265.27 89.1965 265.398 89.6558C265.919 88.7869 266.655 88.0744 267.532 87.5887C268.429 87.1014 269.433 86.8507 270.45 86.8601C271.191 86.8522 271.934 86.9412 272.654 87.1269C273.263 87.2875 273.834 87.575 274.33 87.969C274.808 88.3625 275.183 88.8714 275.419 89.4484C275.698 90.1379 275.833 90.8799 275.812 91.6242L275.81 103.617H273.161V92.8417C273.162 92.3631 273.121 91.885 273.038 91.4142C272.964 91.0047 272.804 90.6152 272.569 90.2757C272.326 89.934 271.998 89.664 271.619 89.4953C271.119 89.2863 270.581 89.1868 270.042 89.2088C269.477 89.176 268.913 89.2606 268.381 89.4558C267.851 89.6505 267.364 89.9564 266.95 90.3498C266.57 90.7526 266.277 91.229 266.084 91.7526C265.892 92.2762 265.807 92.8345 265.835 93.3925V103.639H263.184V92.864C263.189 92.3737 263.142 91.8858 263.045 91.4068C262.959 90.9982 262.793 90.6107 262.558 90.2683C262.323 89.9362 262.007 89.6744 261.641 89.5076C261.169 89.3134 260.663 89.222 260.155 89.2385C259.465 89.2173 258.784 89.381 258.175 89.7126C257.66 89.9978 257.204 90.3841 256.834 90.8487C256.509 91.2633 256.255 91.73 256.085 92.2317C255.946 92.613 255.868 93.0154 255.85 93.4221V103.669ZM315.434 103.666V87.2405H318.082V103.666H315.434ZM322.045 103.666V80.9847H324.696V103.666H322.045ZM328.659 103.666L328.656 87.2405H331.307V103.666H328.659ZM339.983 103.666C339.39 103.674 338.798 103.625 338.214 103.518C337.782 103.451 337.375 103.273 337.031 102.997C336.71 102.712 336.475 102.338 336.359 101.92C336.197 101.319 336.124 100.698 336.141 100.075V89.6262L333.398 89.6237V87.2405H336.141V82.3159L338.797 82.3184V87.2405H342.01V89.6262H338.797V99.8013C338.788 100.059 338.813 100.315 338.874 100.564C338.917 100.744 339.022 100.903 339.17 101.009C339.352 101.129 339.561 101.2 339.776 101.219C340.114 101.253 340.453 101.268 340.793 101.266H342.01V103.666H339.983ZM286.461 101.683C287.135 101.684 287.802 101.54 288.419 101.263C289.033 100.989 289.58 100.585 290.027 100.075C290.51 99.513 290.878 98.8518 291.101 98.1392C291.623 96.411 291.624 94.5624 291.101 92.8343C290.875 92.1157 290.509 91.4522 290.027 90.8783C289.583 90.3617 289.033 89.9485 288.416 89.6706C287.799 89.3967 287.134 89.2555 286.461 89.2557C285.788 89.2554 285.122 89.3974 284.504 89.6706C283.888 89.9491 283.339 90.3592 282.894 90.8759C282.412 91.4497 282.049 92.1151 281.822 92.8343C281.301 94.5632 281.301 96.4107 281.822 98.1392C282.046 98.852 282.411 99.5127 282.896 100.075C283.341 100.585 283.89 100.992 284.504 101.266C285.121 101.542 285.787 101.684 286.461 101.683ZM304.525 101.644C304.626 101.646 304.729 101.645 304.831 101.641C305.628 101.668 306.418 101.482 307.122 101.1C307.723 100.754 308.23 100.263 308.602 99.6704C308.988 99.0476 309.265 98.359 309.414 97.6379C309.583 96.867 309.666 96.0801 309.664 95.2892C309.664 94.5312 309.563 93.7775 309.368 93.0467C309.183 92.3465 308.878 91.6827 308.464 91.0932C308.056 90.5194 307.523 90.053 306.904 89.7274C306.211 89.3741 305.443 89.1994 304.668 89.2212C303.876 89.1948 303.09 89.3813 302.388 89.7571C301.782 90.1086 301.261 90.5904 300.863 91.1722C300.456 91.7739 300.165 92.4488 300.007 93.1603C299.826 93.9056 299.735 94.6696 299.737 95.4374C299.736 96.2236 299.83 97.0075 300.016 97.7712C300.189 98.4842 300.491 99.1576 300.906 99.7569C301.321 100.335 301.861 100.808 302.483 101.14C303.122 101.455 303.817 101.626 304.525 101.644ZM346.577 93.9012H355.844C355.801 93.276 355.66 92.6616 355.424 92.0835C355.197 91.5337 354.868 91.0362 354.457 90.6116C354.042 90.1943 353.555 89.8599 353.021 89.6262C352.442 89.3767 351.82 89.2539 351.192 89.2631C350.556 89.2526 349.923 89.3754 349.337 89.6262C348.802 89.8592 348.32 90.2008 347.918 90.6289C347.521 91.0584 347.206 91.5577 346.984 92.1033C346.754 92.6761 346.616 93.2833 346.577 93.9012ZM351.122 84.3509L349.126 84.3485L352.123 79.2041H355.521L351.122 84.3509ZM315.434 84.2867V80.9847H318.082V84.2867H315.434ZM328.656 84.2867V80.9847H331.307V84.2867H328.656ZM373.133 101.344C373.562 100.595 373.774 99.7362 373.743 98.8681C373.766 98.1824 373.609 97.5032 373.289 96.899C372.993 96.3744 372.589 95.9226 372.105 95.5735C371.589 95.2105 371.024 94.9261 370.428 94.7305C369.786 94.5168 369.136 94.336 368.477 94.1898C367.856 94.0408 367.23 93.8989 366.604 93.7632C366.034 93.6394 365.473 93.4703 364.928 93.2562C364.474 93.0818 364.058 92.8224 363.698 92.4939C363.543 92.349 363.419 92.1738 363.336 91.9772C363.252 91.7806 363.21 91.569 363.211 91.3549C363.195 90.9851 363.306 90.6208 363.524 90.3243C363.741 90.0503 364.019 89.8311 364.336 89.6873C364.69 89.5203 365.066 89.4073 365.453 89.3511C365.851 89.2904 366.253 89.2595 366.655 89.2608C367.09 89.2597 367.526 89.3073 367.951 89.4024C368.363 89.491 368.757 89.6471 369.12 89.863C369.47 90.0719 369.77 90.3605 369.992 90.706C370.236 91.1016 370.376 91.5549 370.399 92.0214L373.049 92.0214C373.021 91.1534 372.81 90.3038 372.428 89.5276C372.094 88.8857 371.605 88.3397 371.009 87.9396C370.385 87.5349 369.691 87.2551 368.963 87.1149C368.131 86.9485 367.285 86.8684 366.437 86.8756C365.717 86.8786 365 86.9678 364.302 87.1427C363.617 87.311 362.963 87.5911 362.368 87.974C361.797 88.339 361.314 88.8307 360.959 89.4146C360.578 90.0553 360.385 90.7941 360.4 91.5434C360.345 92.4396 360.622 93.3256 361.177 94.024C361.717 94.6292 362.384 95.1028 363.128 95.4078C363.952 95.7357 364.806 95.9822 365.677 96.1425C366.594 96.3181 367.437 96.5231 368.22 96.7455C368.911 96.9271 369.57 97.2223 370.171 97.6165C370.424 97.7889 370.629 98.0275 370.766 98.3049C370.902 98.5834 370.964 98.8932 370.948 99.2049C370.967 99.6542 370.836 100.098 370.573 100.462C370.324 100.789 369.997 101.046 369.623 101.208C369.22 101.382 368.795 101.5 368.359 101.555C367.926 101.617 367.489 101.649 367.051 101.652C366.523 101.654 365.994 101.6 365.476 101.492C364.992 101.396 364.528 101.22 364.101 100.969C363.699 100.725 363.362 100.388 363.116 99.9839C362.856 99.5255 362.717 99.006 362.714 98.4756L360.059 98.4753C360.075 99.3753 360.288 100.26 360.685 101.066C361.041 101.75 361.555 102.336 362.183 102.773C362.838 103.219 363.567 103.537 364.335 103.712C365.175 103.904 366.034 103.999 366.895 103.997C367.717 103.996 368.537 103.915 369.343 103.757C370.133 103.617 370.89 103.332 371.579 102.915C372.209 102.521 372.742 101.984 373.133 101.344Z" fill="white"/>
<path d="M399.605 104.04L438.309 104.04C442.59 104.028 446.693 102.324 449.721 99.3022C452.748 96.2786 454.455 92.1831 454.466 87.9072L454.467 49.2752C454.457 44.9989 452.753 40.8995 449.725 37.8742C446.697 34.8489 442.593 33.1438 438.309 33.1318L399.605 33.1326C395.322 33.1455 391.219 34.8506 388.191 37.8756C385.164 40.9006 383.458 44.9994 383.448 49.2759L383.448 87.9186C383.463 92.1921 385.17 96.2859 388.197 99.3063C391.225 102.326 395.325 104.029 399.605 104.04ZM412.918 46.463C414.608 42.8298 418.293 40.9615 421.16 42.2839C424.028 43.6052 424.98 47.6329 423.295 51.2834C421.611 54.9341 417.921 56.785 415.053 55.4636C412.186 54.1412 411.239 50.1081 412.918 46.463ZM399.037 68.8559C405.047 62.4498 410.462 60.8008 417.69 59.7209C424.918 58.6411 427.577 59.0571 436.157 54.738C438.512 53.5562 437.847 54.968 436.343 56.5653C430.332 62.9725 424.912 64.6201 417.69 65.7003C410.467 66.7804 407.803 66.3641 399.222 70.6843C396.868 71.865 397.538 70.4535 399.037 68.8559ZM397.91 93.7803C402.045 88.088 405.391 83.436 409.386 78.081C414.416 71.2861 421.876 66.9603 427.976 75.4322C433.656 83.306 439.942 91.941 441.745 94.416C441.988 94.7536 441.835 95.1302 441.317 95.1691C438.444 95.3715 431.847 95.828 429.673 92.8518C426.523 88.5431 422.98 83.5712 420.095 79.6055C417.611 76.1851 414.011 75.8474 411.599 79.161C408.912 82.8626 404.625 88.7229 402.907 91.0408C401.865 92.5281 400.536 93.792 398.997 94.7591C397.673 95.5631 396.941 95.0962 397.893 93.7806L397.91 93.7803Z" fill="white"/>
<path d="M441.875 94.7884C441.844 94.9846 441.664 95.1424 441.34 95.1667C438.467 95.369 431.869 95.8243 429.695 92.8481C426.534 88.5399 422.991 83.5679 420.117 79.6029C417.633 76.1825 414.032 75.845 411.621 79.1587C408.933 82.8602 404.647 88.6917 402.928 91.0372C401.886 92.5245 400.558 93.7896 399.02 94.7567C397.673 95.5607 396.941 95.0936 397.915 93.778C402.084 88.1024 405.465 83.4327 409.408 78.0775C414.428 71.2822 421.886 66.9582 427.998 75.4294C433.677 83.2987 439.964 91.9375 441.768 94.4125C441.859 94.5391 441.894 94.6707 441.875 94.7884ZM437.7 54.5354C437.701 54.9183 437.139 55.7153 436.343 56.5635C430.332 62.9706 424.89 64.6162 417.69 65.6963C410.49 66.7764 407.803 66.3623 399.222 70.6825C396.868 71.8632 397.538 70.4497 399.037 68.852C405.047 62.446 410.49 60.7993 417.69 59.7192C424.89 58.6391 427.578 59.0547 436.158 54.7355C437.262 54.1815 437.699 54.1975 437.7 54.5354ZM424.129 47.5308C424.144 48.7465 423.876 50.0387 423.295 51.282C421.605 54.899 417.92 56.7827 415.053 55.4603C412.19 54.1221 411.228 50.0788 412.919 46.4618C414.609 42.8448 418.297 40.9327 421.159 42.2835C423.037 43.1692 424.099 45.2098 424.129 47.5308Z" fill="#64B5F6"/>
<path d="M141.587 73.1815C132.355 73.181 126.091 67.6314 126.092 58.1775C126.092 49.5354 133.014 43.3345 141.349 43.3341C151.488 43.3346 156.553 50.9488 156.127 60.5185H135.356C135.523 64.3785 137.751 66.9277 141.681 66.9278C143.905 66.9286 146.093 65.897 146.968 63.8202H155.634C153.947 70.3414 147.885 73.1707 141.587 73.1815ZM262.536 73.1599C257.146 73.1597 252.896 70.4466 252.895 64.6157C252.895 55.4376 262.923 56.1439 269.353 54.8351C270.937 54.5105 271.805 53.9701 271.805 52.2306C271.805 50.1102 269.248 49.2984 267.339 49.2978C264.77 49.2984 263.144 50.4393 262.707 52.8248L254.019 52.8272C254.207 49.128 255.938 46.657 258.444 45.2605C260.952 43.8635 264.217 43.3108 267.437 43.3101C274.139 43.3108 280.627 44.7871 280.627 52.7769L280.625 65.1236C280.625 67.515 280.627 70.1509 281.734 72.3597L272.403 72.3573C272.113 71.4918 271.93 70.5956 271.86 69.6857C269.463 72.1874 265.923 73.1588 262.536 73.1599ZM167.789 72.87C160.948 72.8697 157.563 67.4762 157.563 61.2133C157.563 54.951 160.91 49.679 167.705 49.6788C169.975 49.679 173.24 50.5677 174.873 53.1459H174.962V41.7311H178.614V72.3573H174.962V69.3646H174.873C173.679 71.7998 170.839 72.8702 167.789 72.87ZM191.538 72.8652C184.443 72.8662 181.091 67.9853 180.869 61.2085C180.869 54.5549 185.234 49.6719 191.322 49.6716C199.158 49.6716 201.59 57.0112 201.374 62.373H184.769C184.641 66.2391 186.834 69.6525 191.682 69.6521C194.67 69.6525 196.79 68.1907 197.438 65.3297L201.047 65.3273C200.051 70.2158 196.53 72.8713 191.538 72.8652ZM114.378 72.3644V41.0914H108.51L105.244 36.733L101.973 41.0914H95L101.099 33.0024L109.379 33L114.378 39.625V33.5367H123.642V72.3644H114.378ZM100.605 72.3573V44.1392H109.869V72.3573H100.605ZM203.746 72.3573V33.5367H232.412L232.415 41.6377H213.879V49.5806L229.905 49.5782V57.4036H213.879V72.3573H203.746ZM234.252 72.3309V44.1104H243.256V49.0822H243.362C244.729 45.4981 247.882 43.5919 251.872 43.5929C252.604 43.5894 253.333 43.6643 254.048 43.8181V52.2449C252.897 51.8952 251.704 51.7098 250.501 51.6939C245.93 51.6938 243.521 54.8476 243.521 58.3932L243.523 72.3309H234.252ZM168.299 69.6234C173.191 69.6229 175.085 65.4311 175.085 61.2732C175.076 56.9001 173.035 52.8744 168.066 52.8751C163.085 52.8741 161.426 57.1098 161.426 61.4457C161.426 65.5975 163.579 69.6226 168.299 69.6234ZM266.032 67.4598C270.437 67.4603 271.915 64.9633 271.699 59.1431C270.398 59.949 268.036 60.1768 265.972 60.6622C263.908 61.1486 262.16 62.0421 262.159 64.2515C262.159 66.5379 263.945 67.4601 266.032 67.4598ZM184.759 59.1551H197.484C197.311 55.6646 194.698 52.9048 191.084 52.9039C187.288 52.904 184.997 55.7651 184.759 59.1551ZM135.356 55.3502H146.884C146.691 52.1805 144.454 49.5778 141.349 49.5782C138.084 49.5783 135.908 51.9103 135.356 55.3502ZM302.927 58.713L302.926 72.3583L312.191 72.358L312.191 54.2515C312.191 50.1761 311.427 43.3234 301.996 43.323C298.62 43.3231 294.802 45.1181 293.141 48.0057L293.021 48.0057L293.02 44.1397L284.026 44.1402L284.027 72.358L293.28 72.3582L293.28 56.9618C293.28 53.8697 294.808 50.9377 298.26 50.9379C303.364 50.9385 302.926 54.847 302.927 58.713ZM343.277 61.2698L334.29 61.2696C333.869 64.2514 332.208 66.1019 329.004 66.1018C325.086 66.1013 323.502 62.3576 323.503 58.7131C323.503 54.7976 324.322 50.3965 329.496 50.3969C331.831 50.3967 333.962 52.0533 334.024 54.4714L343.038 54.4716C342.391 47.0171 336.115 43.3224 329.086 43.3223C319.983 43.323 314.256 49.7452 314.255 58.7133C314.255 67.3554 320.592 73.1707 329.087 73.1705C336.608 73.1697 342.491 68.8245 343.277 61.2698ZM373.399 63.8201L364.721 63.8205C363.852 65.8967 361.672 66.9289 359.447 66.9293C355.518 66.9292 353.282 64.3775 353.116 60.518L373.881 60.5182C374.318 50.948 369.253 43.3327 359.11 43.3332C350.781 43.3332 343.852 49.5347 343.852 58.1769C343.851 67.6363 350.122 73.18 359.348 73.1812C365.646 73.1687 371.695 70.3422 373.399 63.8201ZM353.116 55.349C353.669 51.9089 355.834 49.5789 359.109 49.5784C362.22 49.5785 364.455 52.1794 364.616 55.3492L353.116 55.349Z" fill="white"/>
<path d="M269.539 163.143L269.623 295.467L270.556 295.467L270.472 163.143L269.539 163.143Z" fill="white"/>
<path d="M204.552 309.853H206.968C208.863 309.853 210.14 310.49 210.14 312.342C210.14 314.195 208.868 314.954 207.018 314.954H205.628V318.309H204.552V309.853ZM206.881 314.082C208.36 314.082 209.064 313.545 209.064 312.342C209.064 311.139 208.314 310.725 206.829 310.725H205.626V314.082H206.881Z" fill="white"/>
<path d="M213.831 309.853H215.046L217.907 318.309H216.766L215.293 313.586C214.988 312.64 214.717 311.712 214.447 310.737H214.394C214.133 311.717 213.862 312.642 213.558 313.586L212.067 318.309H210.972L213.833 309.853H213.831ZM212.474 314.873H216.369V315.731H212.474V314.873Z" fill="white"/>
<path d="M219.939 309.853H222.587C224.31 309.853 225.547 310.471 225.547 312.232C225.547 313.994 224.31 314.734 222.587 314.734H221.015V318.309H219.939V309.853ZM222.434 313.862C223.75 313.862 224.473 313.33 224.473 312.232C224.473 311.135 223.75 310.725 222.434 310.725H221.015V313.862H222.434ZM222.376 314.439L223.22 313.883L225.801 318.309H224.581L222.376 314.439Z" fill="white"/>
<path d="M229.743 310.763H227.184V309.853H233.376V310.763H230.817V318.309H229.741V310.763H229.743Z" fill="white"/>
<path d="M235.78 309.853H240.654V310.763H236.856V313.414H240.06V314.324H236.856V317.399H240.783V318.309H235.78V309.853Z" fill="white"/>
<path d="M243.46 309.852H244.572L247.632 315.17L248.545 316.919H248.598C248.543 316.066 248.461 315.112 248.461 314.228V309.852H249.482V318.309H248.37L245.31 312.987L244.397 311.24H244.344C244.399 312.095 244.481 312.996 244.481 313.881V318.307H243.46V309.85V309.852Z" fill="white"/>
<path d="M254.428 309.853H255.643L258.505 318.309H257.364L255.89 313.586C255.586 312.64 255.315 311.712 255.044 310.737H254.991C254.73 311.717 254.459 312.642 254.155 313.586L252.665 318.309H251.569L254.431 309.853H254.428ZM253.07 314.873H256.964V315.731H253.07V314.873Z" fill="white"/>
<path d="M260.537 309.853H261.613V318.309H260.537V309.853Z" fill="white"/>
<path d="M264.814 309.853H267.462C269.185 309.853 270.422 310.471 270.422 312.232C270.422 313.994 269.185 314.734 267.462 314.734H265.89V318.309H264.814V309.853ZM267.309 313.862C268.625 313.862 269.348 313.33 269.348 312.232C269.348 311.135 268.625 310.725 267.309 310.725H265.89V313.862H267.309ZM267.251 314.439L268.095 313.883L270.676 318.309H269.456L267.251 314.439Z" fill="white"/>
<path d="M273.039 309.853H277.913V310.763H274.115V313.414H277.319V314.324H274.115V317.399H278.042V318.309H273.039V309.853Z" fill="white"/>
<path d="M283.696 314.049C283.696 311.341 285.186 309.697 287.309 309.697C289.433 309.697 290.923 311.345 290.923 314.049C290.923 316.752 289.433 318.463 287.309 318.463C285.186 318.463 283.696 316.759 283.696 314.049ZM289.811 314.049C289.811 311.942 288.819 310.641 287.307 310.641C285.795 310.641 284.805 311.94 284.805 314.049C284.805 316.157 285.797 317.516 287.307 317.516C288.817 317.516 289.811 316.155 289.811 314.049Z" fill="white"/>
<path d="M293.634 309.853H298.51V310.763H294.71V313.615H297.933V314.526H294.71V318.309H293.634V309.853Z" fill="white"/>
<path d="M300.887 309.853H305.764V310.763H301.963V313.615H305.187V314.526H301.963V318.309H300.887V309.853Z" fill="white"/>
<path d="M308.144 309.853H309.22V318.309H308.144V309.853Z" fill="white"/>
<path d="M311.932 314.087C311.932 311.36 313.54 309.697 315.685 309.697C316.711 309.697 317.516 310.195 318.012 310.739L317.423 311.439C316.977 310.964 316.418 310.641 315.704 310.641C314.106 310.641 313.044 311.949 313.044 314.056C313.044 316.162 314.058 317.514 315.664 317.514C316.471 317.514 317.085 317.161 317.624 316.565L318.213 317.241C317.545 318.017 316.718 318.46 315.618 318.46C313.512 318.46 311.932 316.831 311.932 314.084V314.087Z" fill="white"/>
<path d="M320.672 309.853H321.748V318.309H320.672V309.853Z" fill="white"/>
<path d="M324.95 309.853H329.824V310.763H326.026V313.414H329.23V314.324H326.026V317.399H329.953V318.309H324.95V309.853Z" fill="white"/>
<path d="M332.63 309.853H333.706V317.399H337.397V318.309H332.63V309.853Z" fill="white"/>
<path d="M130.89 240.055C130.016 239.633 129.071 239.586 128.121 239.586H125V251.334H126.825C126.825 250.669 126.78 249.978 127.067 249.355C127.527 248.355 128.599 247.873 129.535 247.422C130.539 246.937 131.652 246.462 132.316 245.523C132.906 244.688 133.069 243.583 132.895 242.589C132.697 241.449 131.917 240.551 130.89 240.055ZM130.801 244.546C130.367 245.195 129.635 245.559 128.956 245.898C128.215 246.27 127.45 246.636 126.825 247.191V241.284H128.555C129.523 241.284 130.589 241.582 130.973 242.577C131.206 243.185 131.168 243.997 130.801 244.546Z" fill="white"/>
<path d="M144.312 239.911C142.732 239.016 140.465 239.282 139.242 240.658C138.649 241.328 138.348 242.187 138.295 243.073C138.28 243.297 138.286 251.334 138.286 251.334H140.093V247.442C141.155 247.307 142.348 247.41 143.24 248.059C144.04 248.641 144.391 249.556 144.394 250.522C144.394 250.793 144.394 251.334 144.394 251.334H146.201V243.457C146.201 242.013 145.608 240.646 144.312 239.914V239.911ZM144.291 246.923C143.216 245.833 141.569 245.452 140.09 245.689V243.77C140.09 243.415 140.081 243.064 140.172 242.716C140.347 242.054 140.848 241.508 141.501 241.29C142.18 241.062 142.965 241.166 143.541 241.594C144.117 242.022 144.385 242.689 144.394 243.398C144.4 243.95 144.394 244.502 144.394 245.051V247.035C144.362 246.997 144.329 246.958 144.294 246.92L144.291 246.923Z" fill="white"/>
<path d="M158.625 246.97C158.415 246.857 158.194 246.766 157.96 246.692C158.542 246.373 159.115 245.981 159.522 245.449C159.897 244.956 160.113 244.389 160.181 243.772C160.322 242.485 159.9 241.257 158.84 240.471C157.426 239.423 155.64 239.586 153.984 239.586H152.259V251.333H154.084C154.084 250.985 154.072 250.634 154.087 250.285C154.122 249.509 154.465 248.759 155.144 248.346C155.805 247.941 156.712 247.894 157.42 248.21C158.132 248.529 158.595 249.213 158.71 249.975C158.778 250.418 158.746 250.885 158.746 251.333H160.588C160.588 250.69 160.624 250.031 160.482 249.397C160.246 248.351 159.573 247.472 158.628 246.967L158.625 246.97ZM155.867 241.283C157.03 241.283 158.203 241.85 158.33 243.123C158.392 243.734 158.256 244.339 157.848 244.809C157.402 245.322 156.741 245.632 156.139 245.922C155.41 246.273 154.677 246.639 154.075 247.185V241.283H155.864H155.867Z" fill="white"/>
<path d="M166.26 241.23C166.856 241.071 167.47 240.997 168.084 240.959V239.586H166.26V241.23Z" fill="white"/>
<path d="M166.26 242.261V251.333H168.084V241.989C167.47 242.016 166.853 242.104 166.26 242.261Z" fill="white"/>
<path d="M180.269 245.694C179.613 245.181 178.831 244.885 178.054 244.602C177.337 244.339 176.502 244.065 175.985 243.471C175.507 242.925 175.613 242.06 176.106 241.561C176.599 241.062 177.437 240.935 178.111 241.148C178.869 241.387 179.327 242.072 179.327 242.857H181.134C181.134 241.995 180.856 241.168 180.266 240.533C179.693 239.919 178.902 239.553 178.072 239.444C177.213 239.332 176.321 239.444 175.56 239.875C174.845 240.283 174.243 240.926 173.989 241.717C173.744 242.473 173.797 243.418 174.187 244.118C174.621 244.897 175.403 245.367 176.203 245.709C177.071 246.081 178.075 246.305 178.852 246.86C179.165 247.085 179.424 247.371 179.519 247.752C179.61 248.124 179.575 248.546 179.404 248.892C178.982 249.73 177.93 249.987 177.071 249.822C176.106 249.636 175.409 248.833 175.409 247.844H173.62C173.62 248.8 173.93 249.701 174.615 250.383C175.294 251.059 176.233 251.422 177.178 251.499C178.17 251.578 179.191 251.378 180.012 250.796C180.768 250.262 181.276 249.432 181.373 248.511C181.488 247.433 181.14 246.376 180.272 245.694H180.269Z" fill="white"/>
<path d="M197.275 245.948C197.679 245.447 198.072 244.918 198.337 244.33C198.6 243.749 198.695 243.105 198.624 242.47C198.488 241.263 197.652 240.262 196.563 239.763C195.45 239.255 194.048 239.279 192.958 239.837C191.86 240.398 191.072 241.473 191.004 242.721C190.936 244 191.529 245.128 192.536 245.898L193.566 244.578C193.197 244.224 192.905 243.796 192.819 243.285C192.737 242.792 192.819 242.293 193.123 241.886C193.714 241.089 194.898 240.85 195.772 241.29C196.209 241.508 196.578 241.889 196.734 242.358C196.897 242.845 196.82 243.403 196.613 243.867C196.404 244.333 196.067 244.732 195.751 245.128C194.532 246.654 193.312 248.18 192.093 249.704C191.656 250.25 191.222 250.793 190.785 251.339H199.046V249.66H194.307L197.275 245.954V245.948Z" fill="white"/>
<path d="M214.446 241.157C212.627 239.376 209.775 238.898 207.463 239.967C205.134 241.041 203.728 243.516 203.974 246.066C204.21 248.567 206.079 250.708 208.508 251.325C210.971 251.948 213.675 251.029 215.148 248.939C216.63 246.837 216.586 243.888 215.039 241.833C214.859 241.594 214.661 241.369 214.446 241.16V241.157ZM214.038 247.15C213.327 248.824 211.644 249.899 209.819 249.789C208.054 249.683 206.518 248.417 206.008 246.734C205.482 245.006 206.105 243.076 207.54 241.98C208.981 240.882 211.021 240.844 212.506 241.874C214.168 243.025 214.829 245.284 214.038 247.15Z" fill="white"/>
<path d="M227.855 245.948C228.26 245.447 228.653 244.918 228.918 244.33C229.181 243.749 229.276 243.105 229.205 242.47C229.069 241.263 228.233 240.262 227.144 239.763C226.031 239.255 224.628 239.279 223.539 239.837C222.45 240.395 221.652 241.473 221.585 242.721C221.517 244 222.11 245.128 223.117 245.898L224.147 244.578C223.778 244.224 223.486 243.796 223.4 243.285C223.318 242.792 223.4 242.293 223.704 241.886C224.295 241.089 225.479 240.85 226.353 241.29C226.79 241.508 227.159 241.889 227.315 242.358C227.478 242.845 227.401 243.403 227.194 243.867C226.987 244.33 226.648 244.732 226.332 245.128C225.113 246.654 223.893 248.18 222.674 249.704C222.237 250.25 221.803 250.793 221.366 251.339H229.627V249.66H224.888L227.855 245.954V245.948Z" fill="white"/>
<path d="M240.725 242.73V246.713C239.857 246.093 238.77 245.907 237.861 245.361C237.076 244.891 236.828 244.068 236.822 243.2C236.819 242.349 236.822 239.586 236.822 239.586H234.997C234.997 239.586 234.997 242.031 234.997 243.253C234.997 244.505 235.307 245.73 236.332 246.536C236.964 247.032 237.722 247.339 238.475 247.602C239.148 247.838 239.863 248.13 240.323 248.7C240.686 249.146 240.728 249.683 240.728 250.232V251.334H242.482V242.73H240.728H240.725Z" fill="white"/>
<path fill-rule="evenodd" clip-rule="evenodd" d="M182.935 280.394C182.935 285.72 178.615 290.039 173.286 290.039C167.957 290.039 163.641 285.72 163.641 280.394C163.641 275.068 167.957 270.748 173.286 270.748C178.615 270.748 182.935 275.068 182.935 280.394ZM173.289 272.357C168.852 272.357 165.253 275.956 165.253 280.394C165.253 284.831 168.852 288.43 173.289 288.43C177.727 288.43 181.329 284.831 181.329 280.394C181.329 275.956 177.73 272.357 173.289 272.357Z" fill="white"/>
<path fill-rule="evenodd" clip-rule="evenodd" d="M203.835 280.394C203.835 285.72 199.515 290.039 194.189 290.039C188.863 290.039 184.544 285.72 184.544 280.394C184.544 275.068 188.863 270.748 194.189 270.748C199.515 270.748 203.835 275.068 203.835 280.394ZM194.189 272.357C189.749 272.357 186.153 275.956 186.153 280.394C186.153 284.831 189.749 288.43 194.189 288.43C198.63 288.43 202.229 284.831 202.229 280.394C202.229 275.956 198.63 272.357 194.189 272.357Z" fill="white"/>
<path fill-rule="evenodd" clip-rule="evenodd" d="M162.841 261.91C157.512 261.91 153.192 266.226 153.192 271.552C153.192 276.878 157.512 281.198 162.841 281.198C163.121 281.198 163.399 281.183 163.676 281.159C163.659 280.908 163.644 280.651 163.644 280.394C163.644 280.108 163.659 279.828 163.682 279.547C163.405 279.574 163.124 279.588 162.841 279.588C158.4 279.588 154.801 275.992 154.801 271.552C154.801 267.112 158.4 263.513 162.841 263.513C167.281 263.513 170.877 267.112 170.877 271.552C170.877 275.116 168.557 278.139 165.341 279.19C165.282 279.583 165.25 279.987 165.25 280.394C165.25 280.563 165.256 280.725 165.265 280.89C169.416 279.81 172.483 276.04 172.483 271.555C172.483 266.229 168.167 261.912 162.841 261.912" fill="white"/>
<path fill-rule="evenodd" clip-rule="evenodd" d="M204.638 261.906C199.569 261.906 195.417 265.815 195.025 270.784C195.568 270.831 196.099 270.923 196.616 271.058C196.873 266.848 200.366 263.512 204.638 263.512C208.91 263.512 212.677 267.111 212.677 271.548C212.677 275.986 209.081 279.585 204.638 279.585C200.611 279.585 197.269 276.618 196.69 272.753C196.159 272.579 195.603 272.461 195.031 272.399C195.462 277.326 199.598 281.194 204.638 281.194C209.964 281.194 214.283 276.875 214.283 271.545C214.283 266.216 209.964 261.903 204.638 261.903" fill="white"/>
<path fill-rule="evenodd" clip-rule="evenodd" d="M183.738 261.906C178.669 261.906 174.515 265.821 174.125 270.784C174.671 270.831 175.2 270.925 175.716 271.058C175.973 266.848 179.463 263.512 183.738 263.512C188.013 263.512 191.774 267.111 191.774 271.548C191.774 275.115 189.454 278.135 186.239 279.189C186.182 279.585 186.147 279.986 186.147 280.394C186.147 280.562 186.153 280.724 186.162 280.89C190.313 279.809 193.38 276.039 193.38 271.551C193.38 266.225 189.064 261.909 183.735 261.909" fill="white"/>
<path fill-rule="evenodd" clip-rule="evenodd" d="M184.544 280.394C184.544 280.108 184.559 279.827 184.582 279.547C184.305 279.573 184.024 279.588 183.741 279.588C179.711 279.588 176.372 276.621 175.79 272.756C175.259 272.582 174.706 272.464 174.134 272.405C174.565 277.329 178.701 281.2 183.741 281.2C184.021 281.2 184.299 281.185 184.576 281.162C184.556 280.911 184.547 280.654 184.547 280.397" fill="white"/>
<path d="M187.877 219.465C186.867 219.09 185.173 219.055 183.738 220.224C182.303 219.058 180.608 219.09 179.599 219.465C178.754 219.778 178.093 219.988 176.853 219.979C178.084 222.545 180.706 224.313 183.741 224.313C186.776 224.313 189.398 222.542 190.629 219.979C189.386 219.988 188.724 219.778 187.883 219.465H187.877Z" fill="white"/>
<path d="M183.738 155C162.977 155 146.145 171.832 146.145 192.593C146.145 210.39 158.513 225.299 175.126 229.197C161.926 222.134 156.543 205.943 162.909 192.38C163.936 197.736 167.429 202.51 172.649 204.987C165.843 189.071 170.854 170.358 184.898 160.01C182.135 169.47 186.377 178.126 195.479 184.663C205.89 192.138 206.33 207.387 197.142 215.633C200.791 214.783 204.186 212.775 206.722 209.699C205.157 217.762 200.103 225.054 192.353 229.202C208.963 225.308 221.334 210.399 221.334 192.599C221.334 171.837 204.502 155.006 183.741 155.006L183.738 155Z" fill="white"/>
<path d="M303.571 240.882C302.698 240.459 301.753 240.412 300.802 240.412H297.681V252.16H299.506C299.506 251.496 299.462 250.805 299.748 250.182C300.209 249.181 301.28 248.7 302.216 248.248C303.22 247.764 304.333 247.289 304.998 246.35C305.588 245.514 305.75 244.41 305.576 243.415C305.378 242.275 304.599 241.378 303.571 240.882ZM303.48 245.372C303.046 246.022 302.314 246.385 301.635 246.725C300.894 247.097 300.129 247.463 299.503 248.018V242.11H301.233C302.202 242.11 303.267 242.408 303.651 243.403C303.884 244.011 303.846 244.823 303.48 245.372Z" fill="white"/>
<path d="M316.99 240.737C315.411 239.842 313.143 240.108 311.921 241.484C311.328 242.154 311.027 243.013 310.973 243.899C310.959 244.123 310.965 252.16 310.965 252.16H312.771V248.269C313.834 248.133 315.027 248.236 315.919 248.886C316.719 249.467 317.07 250.383 317.073 251.348C317.073 251.62 317.073 252.16 317.073 252.16H318.88V244.283C318.88 242.839 318.287 241.472 316.99 240.74V240.737ZM316.973 247.749C315.898 246.66 314.251 246.279 312.771 246.515V244.596C312.771 244.241 312.763 243.89 312.854 243.542C313.028 242.88 313.53 242.334 314.183 242.116C314.862 241.888 315.647 241.992 316.223 242.42C316.802 242.851 317.067 243.515 317.076 244.224C317.082 244.776 317.076 245.328 317.076 245.877V247.861C317.044 247.823 317.011 247.784 316.976 247.746L316.973 247.749Z" fill="white"/>
<path d="M331.304 247.796C331.094 247.684 330.873 247.592 330.64 247.519C331.221 247.2 331.794 246.807 332.202 246.276C332.577 245.783 332.792 245.216 332.86 244.599C333.002 243.311 332.579 242.083 331.52 241.298C330.105 240.25 328.319 240.412 326.663 240.412H324.939V252.16H326.763C326.763 251.812 326.751 251.46 326.766 251.112C326.802 250.335 327.144 249.585 327.823 249.172C328.484 248.768 329.391 248.72 330.099 249.036C330.811 249.355 331.275 250.04 331.39 250.802C331.458 251.245 331.425 251.711 331.425 252.16H333.267C333.267 251.516 333.303 250.858 333.161 250.223C332.925 249.178 332.252 248.298 331.307 247.793L331.304 247.796ZM328.549 242.11C329.713 242.11 330.885 242.677 331.012 243.949C331.074 244.56 330.938 245.166 330.531 245.635C330.085 246.149 329.423 246.459 328.821 246.748C328.092 247.099 327.36 247.465 326.757 248.012V242.11H328.546H328.549Z" fill="white"/>
<path d="M338.942 242.057C339.538 241.897 340.152 241.824 340.767 241.785V240.412H338.942V242.057Z" fill="white"/>
<path d="M338.942 243.087V252.16H340.767V242.815C340.152 242.842 339.535 242.93 338.942 243.087Z" fill="white"/>
<path d="M352.949 246.521C352.293 246.007 351.511 245.712 350.734 245.428C350.017 245.165 349.181 244.891 348.665 244.297C348.186 243.751 348.292 242.886 348.786 242.387C349.296 241.873 350.117 241.761 350.79 241.974C351.549 242.213 352.007 242.898 352.007 243.683H353.814C353.814 242.821 353.536 241.994 352.946 241.36C352.373 240.746 351.582 240.379 350.752 240.27C349.893 240.158 349.001 240.27 348.239 240.701C347.525 241.109 346.923 241.752 346.669 242.544C346.424 243.299 346.477 244.244 346.866 244.944C347.3 245.723 348.083 246.193 348.883 246.535C349.751 246.907 350.755 247.132 351.531 247.687C351.844 247.911 352.104 248.198 352.199 248.578C352.29 248.95 352.255 249.373 352.084 249.718C351.661 250.557 350.61 250.813 349.751 250.648C348.786 250.462 348.089 249.659 348.089 248.67H346.3C346.3 249.627 346.61 250.527 347.295 251.209C347.974 251.885 348.913 252.248 349.857 252.325C350.849 252.405 351.871 252.204 352.692 251.622C353.448 251.088 353.955 250.258 354.053 249.337C354.168 248.26 353.82 247.203 352.952 246.521H352.949Z" fill="white"/>
<path d="M369.958 246.775C370.362 246.273 370.755 245.744 371.021 245.157C371.283 244.575 371.378 243.931 371.307 243.297C371.171 242.089 370.336 241.088 369.246 240.589C368.133 240.081 366.731 240.105 365.641 240.663C364.543 241.224 363.755 242.299 363.687 243.548C363.619 244.826 364.212 245.954 365.219 246.724L366.249 245.405C365.88 245.05 365.588 244.622 365.502 244.111C365.42 243.618 365.502 243.119 365.807 242.712C366.397 241.915 367.581 241.676 368.455 242.116C368.892 242.334 369.261 242.715 369.417 243.184C369.58 243.672 369.503 244.23 369.296 244.693C369.087 245.16 368.75 245.558 368.434 245.954C367.215 247.48 365.996 249.007 364.776 250.53C364.339 251.076 363.905 251.62 363.468 252.166H371.729V250.486H366.99L369.958 246.781V246.775Z" fill="white"/>
<path d="M387.126 241.983C385.308 240.202 382.455 239.724 380.144 240.793C377.814 241.868 376.409 244.342 376.654 246.893C376.89 249.393 378.759 251.534 381.189 252.151C383.651 252.774 386.356 251.856 387.829 249.765C389.311 247.663 389.267 244.714 387.72 242.659C387.54 242.42 387.342 242.195 387.126 241.986V241.983ZM386.722 247.976C386.01 249.65 384.327 250.725 382.503 250.616C380.737 250.509 379.202 249.243 378.691 247.56C378.165 245.833 378.789 243.902 380.223 242.806C381.664 241.708 383.704 241.67 385.189 242.7C386.852 243.852 387.513 246.11 386.722 247.976Z" fill="white"/>
<path d="M400.539 246.775C400.944 246.273 401.336 245.744 401.602 245.157C401.865 244.575 401.959 243.931 401.889 243.297C401.753 242.089 400.917 241.088 399.828 240.589C398.715 240.081 397.312 240.105 396.223 240.663C395.125 241.224 394.336 242.299 394.268 243.548C394.2 244.826 394.794 245.954 395.801 246.724L396.831 245.405C396.462 245.05 396.17 244.622 396.084 244.111C396.001 243.618 396.084 243.119 396.388 242.712C396.979 241.915 398.163 241.676 399.037 242.116C399.473 242.334 399.843 242.715 399.999 243.184C400.161 243.672 400.085 244.23 399.878 244.693C399.668 245.16 399.332 245.558 399.016 245.954C397.796 247.48 396.577 249.007 395.358 250.53C394.921 251.076 394.487 251.62 394.05 252.166H402.311V250.486H397.572L400.539 246.781V246.775Z" fill="white"/>
<path d="M413.406 243.557V247.539C412.538 246.919 411.452 246.733 410.542 246.187C409.757 245.718 409.509 244.894 409.503 244.026C409.5 243.176 409.503 240.412 409.503 240.412H407.678C407.678 240.412 407.678 242.857 407.678 244.079C407.678 245.331 407.988 246.556 409.013 247.362C409.645 247.858 410.404 248.165 411.156 248.428C411.83 248.664 412.544 248.957 413.005 249.526C413.368 249.972 413.409 250.51 413.409 251.059V252.16H415.163V243.557H413.409H413.406Z" fill="white"/>
<path d="M354.504 262.981C351.765 262.349 348.024 263.045 344.49 265.086C338.96 268.277 336.031 273.556 337.947 276.875C339.172 278.995 342.078 279.801 345.458 279.275C343.911 278.918 342.683 278.141 341.992 276.943C340.076 273.624 343.008 268.348 348.535 265.154C350.53 264.002 352.594 263.279 354.504 262.981Z" fill="white"/>
<path d="M354.552 276.069C355.376 278.759 357.847 281.649 361.381 283.689C366.911 286.881 372.946 286.781 374.862 283.462C376.087 281.342 375.331 278.422 373.185 275.756C373.648 277.274 373.589 278.726 372.898 279.922C370.982 283.241 364.947 283.341 359.417 280.149C357.422 278.998 355.762 277.572 354.552 276.066" fill="white"/>
<path d="M350.802 269.559C348.886 271.617 347.616 275.204 347.616 279.284C347.616 285.67 350.722 290.846 354.555 290.846C357.002 290.846 359.155 288.732 360.389 285.54C359.308 286.701 358.018 287.377 356.636 287.377C352.804 287.377 349.698 282.201 349.698 275.815C349.698 273.509 350.102 271.363 350.799 269.559" fill="white"/>
<path d="M360.56 220.291C359.55 219.916 357.855 219.88 356.421 221.05C354.986 219.883 353.291 219.916 352.281 220.291C351.437 220.604 350.775 220.813 349.535 220.805C350.767 223.37 353.388 225.139 356.424 225.139C359.459 225.139 362.08 223.367 363.312 220.805C362.069 220.813 361.407 220.604 360.566 220.291H360.56Z" fill="white"/>
<path d="M356.421 155.824C335.659 155.824 318.827 172.656 318.827 193.418C318.827 211.215 331.195 226.125 347.808 230.022C334.608 222.96 329.225 206.769 335.591 193.205C336.618 198.561 340.111 203.335 345.331 205.812C338.526 189.895 343.536 171.183 357.581 160.834C354.817 170.294 359.06 178.951 368.163 185.487C378.573 192.963 379.013 208.212 369.825 216.459C373.474 215.608 376.869 213.601 379.406 210.524C377.841 218.587 372.786 225.88 365.036 230.028C381.646 226.134 394.017 211.224 394.017 193.424C394.017 172.662 377.185 155.83 356.424 155.83L356.421 155.824Z" fill="white"/>
</svg>
