<svg width="538" height="336" viewBox="0 0 538 336" fill="none" xmlns="http://www.w3.org/2000/svg">
<g clip-path="url(#clip0_97_2439)">
<path d="M521.188 0C530.473 0 538 7.54047 538 16.8421V319.158C538 328.46 530.473 336 521.188 336H16.8125C7.52722 336 0 328.46 0 319.158V16.8421C0 7.54046 7.52722 0 16.8125 0H521.188Z" fill="white"/>
<path d="M521.188 0C530.473 0 538 7.54047 538 16.8421V319.158C538 328.46 530.473 336 521.188 336H16.8125C7.52722 336 0 328.46 0 319.158V16.8421C0 7.54046 7.52722 0 16.8125 0H521.188Z" fill="white"/>
<path d="M112.361 299.729C112.307 299.729 112.252 299.729 112.198 299.727C111.588 299.74 110.981 299.635 110.417 299.418C109.931 299.224 109.497 298.93 109.15 298.559C108.798 298.173 108.536 297.723 108.382 297.238C108.201 296.694 108.102 296.13 108.086 295.562C108.079 294.999 108.179 294.441 108.382 293.911C108.568 293.43 108.852 292.986 109.219 292.604C109.574 292.238 110.009 291.944 110.495 291.744C111.003 291.534 111.553 291.43 112.109 291.436C112.773 291.412 113.431 291.565 114.006 291.874C114.496 292.154 114.91 292.535 115.217 292.988C115.52 293.44 115.733 293.941 115.845 294.464C115.959 294.964 116.006 295.473 115.985 295.983H109.575C109.564 296.318 109.609 296.652 109.708 296.974C109.804 297.278 109.969 297.559 110.19 297.799C110.42 298.047 110.709 298.244 111.033 298.375C111.416 298.525 111.828 298.598 112.243 298.59C112.764 298.61 113.277 298.475 113.709 298.204C114.111 297.918 114.38 297.501 114.462 297.038H115.855C115.73 297.829 115.288 298.547 114.616 299.049C113.958 299.489 113.169 299.726 112.361 299.729ZM77.6587 299.726C77.0505 299.726 76.4424 299.621 75.8663 299.412C75.3652 299.212 74.919 298.913 74.558 298.534C74.1973 298.152 73.9262 297.705 73.7623 297.222C73.5807 296.695 73.4921 296.144 73.4983 295.592C73.4931 295.037 73.5816 294.485 73.7623 293.957C73.9264 293.471 74.1976 293.021 74.558 292.636C74.9193 292.256 75.3658 291.955 75.8663 291.752C77.0164 291.323 78.3012 291.324 79.4511 291.752C79.9483 291.956 80.3914 292.257 80.7503 292.636C81.1114 293.021 81.3817 293.47 81.5461 293.957C81.7263 294.485 81.8155 295.037 81.81 295.592C81.8168 296.144 81.7275 296.694 81.5461 297.22C81.3818 297.704 81.1105 298.152 80.7503 298.534C80.3912 298.911 79.9487 299.211 79.4511 299.412C78.875 299.621 78.2668 299.726 77.6587 299.726ZM87.5555 299.726C87.32 299.722 87.0861 299.702 86.8537 299.665C86.5894 299.623 86.3301 299.556 86.0811 299.464C85.8232 299.37 85.5809 299.243 85.36 299.087C85.131 298.925 84.9379 298.725 84.7909 298.496H84.7574V299.557L83.3475 299.558V288.59H84.7574V292.691H84.7909C85.0145 292.257 85.4042 291.915 85.8828 291.731C86.402 291.527 86.9596 291.424 87.5233 291.431C88.1204 291.418 88.7129 291.534 89.2539 291.769C89.732 291.984 90.1509 292.296 90.4797 292.683C90.8136 293.078 91.063 293.529 91.2149 294.012C91.3844 294.529 91.4687 295.067 91.4647 295.608C91.4684 296.149 91.3866 296.688 91.224 297.207C91.0767 297.685 90.8301 298.131 90.4977 298.521C90.167 298.898 89.7477 299.199 89.2719 299.403C88.7328 299.627 88.1463 299.738 87.5555 299.726ZM61.4061 299.558L60 299.557V291.615H61.3237V292.782H61.3585C61.8084 292.169 62.4811 291.727 63.2526 291.536C64.0249 291.345 64.8443 291.417 65.5639 291.739C65.7834 291.848 65.9778 291.995 66.1343 292.174C66.2905 292.353 66.4075 292.561 66.4755 292.783C66.7523 292.363 67.1427 292.018 67.6087 291.783C68.085 291.548 68.6178 291.427 69.1577 291.431C69.5514 291.427 69.9456 291.47 70.3282 291.56C70.6513 291.638 70.9544 291.777 71.2179 291.967C71.4717 292.158 71.6706 292.404 71.7961 292.683C71.944 293.016 72.0155 293.375 72.0047 293.735L72.0034 299.533H70.5973V294.323C70.5975 294.092 70.5756 293.861 70.5316 293.633C70.4927 293.435 70.4077 293.247 70.2831 293.083C70.1538 292.917 69.9795 292.787 69.7783 292.705C69.5131 292.604 69.2274 292.556 68.9414 292.567C68.6414 292.551 68.3419 292.592 68.0593 292.686C67.7777 292.78 67.5193 292.928 67.2996 293.118C67.0977 293.313 66.942 293.544 66.8399 293.797C66.7379 294.05 66.6926 294.32 66.7073 294.59V299.544H65.2999V294.334C65.3029 294.097 65.278 293.861 65.2265 293.63C65.1806 293.432 65.0923 293.245 64.9677 293.079C64.8431 292.918 64.6751 292.792 64.481 292.711C64.2304 292.617 63.9615 292.573 63.6917 292.581C63.3258 292.571 62.9638 292.65 62.6409 292.81C62.3671 292.948 62.1251 293.135 61.9289 293.36C61.7561 293.56 61.6211 293.786 61.531 294.028C61.4573 294.213 61.4159 294.407 61.4061 294.604V299.558ZM93.0408 299.557V291.615H94.4469V299.557H93.0408ZM96.5509 299.557V288.59H97.9583V299.557H96.5509ZM100.062 299.557L100.061 291.615H101.468V299.557H100.062ZM106.074 299.557C105.76 299.561 105.445 299.537 105.136 299.486C104.906 299.453 104.69 299.367 104.507 299.234C104.337 299.096 104.212 298.915 104.151 298.713C104.064 298.422 104.026 298.122 104.035 297.821V292.769L102.578 292.767V291.615H104.035V289.234L105.445 289.235V291.615H107.151V292.769H105.445V297.688C105.44 297.813 105.453 297.937 105.486 298.057C105.509 298.144 105.564 298.221 105.643 298.272C105.739 298.33 105.85 298.365 105.965 298.374C106.144 298.39 106.324 298.397 106.504 298.397H107.151V299.557H106.074ZM77.6587 298.598C78.0163 298.599 78.3701 298.529 78.6978 298.395C79.0239 298.263 79.3143 298.067 79.5515 297.821C79.8084 297.549 80.0033 297.229 80.1219 296.885C80.3993 296.049 80.3995 295.155 80.1219 294.32C80.0017 293.972 79.8074 293.651 79.5515 293.374C79.3157 293.124 79.0239 292.924 78.6965 292.79C78.3687 292.658 78.0158 292.589 77.6587 292.589C77.301 292.589 76.9477 292.658 76.6196 292.79C76.2921 292.925 76.0008 293.123 75.7646 293.373C75.5088 293.65 75.316 293.972 75.1954 294.32C74.9186 295.156 74.9187 296.049 75.1954 296.885C75.3143 297.229 75.5082 297.549 75.7658 297.821C76.0021 298.067 76.2932 298.264 76.6196 298.397C76.9467 298.53 77.3007 298.599 77.6587 298.598ZM87.249 298.579C87.3027 298.58 87.3574 298.58 87.4113 298.578C87.8348 298.591 88.2543 298.501 88.6281 298.317C88.947 298.149 89.216 297.912 89.4135 297.625C89.6185 297.324 89.7656 296.991 89.8449 296.642C89.9346 296.27 89.9785 295.889 89.9775 295.507C89.9773 295.14 89.924 294.776 89.8204 294.422C89.7221 294.084 89.56 293.763 89.3401 293.478C89.1239 293.2 88.8405 292.975 88.5122 292.818C88.1443 292.647 87.7365 292.562 87.325 292.573C86.9043 292.56 86.4873 292.65 86.1146 292.832C85.7926 293.002 85.5164 293.235 85.3047 293.516C85.0885 293.807 84.9341 294.133 84.8501 294.477C84.7545 294.838 84.7061 295.207 84.7072 295.578C84.7065 295.959 84.7563 296.338 84.8553 296.707C84.9467 297.052 85.1071 297.377 85.3279 297.667C85.5481 297.947 85.8347 298.175 86.1648 298.336C86.5044 298.488 86.8733 298.571 87.249 298.579ZM109.575 294.836H114.495C114.473 294.533 114.398 294.236 114.273 293.957C114.152 293.691 113.977 293.45 113.759 293.245C113.539 293.043 113.28 292.882 112.997 292.769C112.69 292.648 112.359 292.589 112.026 292.593C111.688 292.588 111.352 292.647 111.041 292.769C110.757 292.881 110.501 293.046 110.287 293.253C110.077 293.461 109.91 293.702 109.792 293.966C109.67 294.243 109.596 294.537 109.575 294.836ZM111.988 290.218L110.929 290.217L112.52 287.729H114.324L111.988 290.218ZM93.0408 290.187V288.59H94.4469V290.187H93.0408ZM100.061 290.187V288.59H101.468V290.187H100.061ZM123.675 298.434C123.903 298.072 124.015 297.657 123.998 297.237C124.011 296.906 123.927 296.577 123.758 296.285C123.6 296.031 123.386 295.813 123.129 295.644C122.855 295.469 122.555 295.331 122.238 295.237C121.898 295.133 121.553 295.046 121.203 294.975C120.873 294.903 120.541 294.834 120.209 294.769C119.906 294.709 119.608 294.627 119.318 294.524C119.078 294.439 118.857 294.314 118.665 294.155C118.583 294.085 118.517 294 118.473 293.905C118.429 293.81 118.406 293.708 118.407 293.604C118.399 293.426 118.457 293.249 118.573 293.106C118.688 292.974 118.836 292.868 119.004 292.798C119.192 292.717 119.392 292.663 119.597 292.636C119.809 292.606 120.022 292.591 120.235 292.592C120.466 292.591 120.698 292.614 120.924 292.66C121.142 292.703 121.352 292.779 121.544 292.883C121.73 292.984 121.889 293.124 122.007 293.291C122.136 293.482 122.211 293.701 122.223 293.927L123.63 293.927C123.615 293.507 123.503 293.096 123.301 292.721C123.123 292.411 122.863 292.147 122.547 291.953C122.216 291.757 121.847 291.622 121.461 291.554C121.019 291.474 120.57 291.435 120.12 291.439C119.738 291.44 119.357 291.483 118.986 291.568C118.622 291.649 118.275 291.785 117.959 291.97C117.656 292.146 117.4 292.384 117.211 292.666C117.009 292.976 116.906 293.333 116.914 293.696C116.885 294.129 117.033 294.557 117.327 294.895C117.614 295.188 117.968 295.417 118.363 295.564C118.8 295.723 119.254 295.842 119.716 295.919C120.203 296.004 120.651 296.103 121.066 296.211C121.433 296.299 121.783 296.441 122.102 296.632C122.237 296.715 122.345 296.831 122.418 296.965C122.49 297.1 122.523 297.249 122.515 297.4C122.525 297.617 122.455 297.832 122.316 298.008C122.183 298.166 122.01 298.29 121.811 298.368C121.597 298.453 121.371 298.51 121.14 298.536C120.91 298.566 120.678 298.582 120.446 298.583C120.165 298.584 119.884 298.558 119.609 298.506C119.353 298.46 119.106 298.374 118.879 298.253C118.666 298.135 118.487 297.972 118.357 297.777C118.218 297.555 118.145 297.304 118.143 297.047L116.733 297.047C116.742 297.482 116.855 297.91 117.066 298.3C117.255 298.631 117.527 298.914 117.861 299.125C118.209 299.341 118.596 299.495 119.003 299.579C119.45 299.672 119.906 299.718 120.363 299.717C120.799 299.716 121.234 299.678 121.663 299.601C122.082 299.533 122.484 299.396 122.849 299.194C123.184 299.003 123.467 298.744 123.675 298.434Z" fill="#323E48"/>
<path d="M0.721021 283.729C-4.17766 283.729 -7.50161 280.829 -7.50148 275.888C-7.50125 271.371 -3.82801 268.13 0.594874 268.13C5.97497 268.13 8.66265 272.11 8.43639 277.111H-2.58556C-2.49687 279.129 -1.31445 280.461 0.770716 280.461C1.95094 280.461 3.11216 279.922 3.57653 278.837H8.17517C7.27955 282.245 4.06308 283.724 0.721021 283.729ZM64.9019 283.718C62.0416 283.718 59.7863 282.3 59.7859 279.253C59.7857 274.456 65.1073 274.825 68.5194 274.141C69.3595 273.971 69.8204 273.689 69.8204 272.78C69.8205 271.672 68.4634 271.247 67.4503 271.247C66.0874 271.247 65.2246 271.844 64.9924 273.09L60.3823 273.092C60.4822 271.158 61.4009 269.867 62.7306 269.137C64.0613 268.407 65.7938 268.118 67.5026 268.118C71.0588 268.118 74.5014 268.89 74.5018 273.065L74.5005 279.518C74.5008 280.768 74.5018 282.145 75.0892 283.3L70.1376 283.298C69.9838 282.846 69.8867 282.378 69.8497 281.902C68.5776 283.21 66.6989 283.717 64.9019 283.718ZM14.6252 283.566C10.9951 283.566 9.19867 280.747 9.19837 277.474C9.19864 274.201 10.9744 271.446 14.5806 271.446C15.7851 271.446 17.5177 271.911 18.3842 273.258H18.4313V267.292H20.3694V283.298H18.4313V281.734H18.3842C17.7502 283.007 16.2433 283.567 14.6252 283.566ZM27.2272 283.564C23.4625 283.564 21.6834 281.014 21.5659 277.472C21.5658 273.994 23.8822 271.442 27.1125 271.442C31.2709 271.442 32.5611 275.278 32.4464 278.08H23.6352C23.5676 280.101 24.731 281.885 27.3037 281.885C28.8893 281.885 30.0144 281.121 30.358 279.626L32.2731 279.624C31.7447 282.179 29.8763 283.567 27.2272 283.564ZM-13.7171 283.302V266.958H-16.8313L-18.5642 264.68L-20.2997 266.958H-24L-20.7635 262.731L-16.37 262.729L-13.7171 266.192V263.01H-8.80118V283.302H-13.7171ZM-21.026 283.298V268.551H-16.1101V283.298H-21.026ZM33.7053 283.298V263.01H48.9169L48.9182 267.244H39.0825V271.395L47.5866 271.393V275.483H39.0825V283.298H33.7053ZM49.8929 283.285V268.536H54.6712V271.134H54.7273C55.4526 269.261 57.1258 268.265 59.2431 268.265C59.6314 268.264 60.0184 268.303 60.3975 268.383V272.787C59.787 272.604 59.154 272.508 58.5155 272.499C56.0899 272.499 54.8115 274.147 54.8114 276L54.8127 283.285H49.8929ZM14.8954 281.87C17.4915 281.869 18.4966 279.679 18.4963 277.506C18.4915 275.22 17.4089 273.116 14.7718 273.117C12.1287 273.116 11.2487 275.33 11.2486 277.596C11.2485 279.766 12.3908 281.869 14.8954 281.87ZM66.7572 280.739C69.0945 280.739 69.8787 279.434 69.7643 276.392C69.0739 276.814 67.8205 276.933 66.7253 277.186C65.6298 277.441 64.7022 277.907 64.7018 279.062C64.7019 280.257 65.6497 280.739 66.7572 280.739ZM23.6301 276.399H30.3822C30.2907 274.574 28.904 273.132 26.9864 273.132C24.9719 273.132 23.7564 274.627 23.6301 276.399ZM-2.58556 274.41H3.53194C3.42939 272.754 2.2425 271.393 0.594874 271.393C-1.1378 271.394 -2.29249 272.612 -2.58556 274.41ZM86.3349 276.168L86.3346 283.299L91.2508 283.299L91.2507 273.836C91.2507 271.706 90.8454 268.125 85.8412 268.124C84.0497 268.124 82.0236 269.062 81.1423 270.572L81.0782 270.572L81.078 268.551L76.3056 268.551L76.3057 283.299L81.2158 283.299L81.2159 275.252C81.2161 273.636 82.0267 272.104 83.8587 272.104C86.5667 272.104 86.3347 274.147 86.3349 276.168ZM107.747 277.504L102.977 277.504C102.754 279.062 101.873 280.029 100.172 280.029C98.0933 280.029 97.2533 278.072 97.2535 276.168C97.2534 274.121 97.688 271.821 100.434 271.821C101.673 271.821 102.804 272.687 102.836 273.951L107.62 273.951C107.277 270.055 103.946 268.124 100.216 268.124C95.3858 268.124 92.3465 271.481 92.3463 276.168C92.3461 280.684 95.7089 283.724 100.217 283.723C104.207 283.723 107.329 281.452 107.747 277.504ZM123.73 278.837L119.126 278.837C118.665 279.922 117.508 280.461 116.327 280.462C114.242 280.462 113.056 279.128 112.967 277.111L123.986 277.111C124.218 272.109 121.531 268.129 116.148 268.13C111.728 268.13 108.052 271.371 108.051 275.887C108.051 280.831 111.379 283.728 116.274 283.729C119.616 283.723 122.826 282.245 123.73 278.837ZM112.967 274.409C113.261 272.612 114.41 271.394 116.148 271.394C117.798 271.394 118.985 272.753 119.07 274.41L112.967 274.409Z" fill="#64B5F6"/>
<path d="M138.821 299.303L158.753 299.303C160.958 299.297 163.071 298.418 164.63 296.86C166.189 295.3 167.068 293.188 167.074 290.982L167.074 271.056C167.069 268.85 166.191 266.736 164.632 265.175C163.073 263.615 160.959 262.735 158.753 262.729L138.821 262.73C136.615 262.736 134.502 263.616 132.943 265.176C131.384 266.736 130.505 268.85 130.5 271.056L130.5 290.988C130.508 293.192 131.387 295.304 132.946 296.862C134.505 298.419 136.617 299.297 138.821 299.303ZM145.677 269.605C146.547 267.731 148.445 266.768 149.921 267.45C151.398 268.131 151.889 270.209 151.021 272.092C150.154 273.975 148.253 274.929 146.776 274.248C145.3 273.566 144.812 271.486 145.677 269.605ZM138.528 281.156C141.623 277.851 144.412 277.001 148.134 276.444C151.857 275.887 153.226 276.101 157.645 273.874C158.857 273.264 158.515 273.992 157.74 274.816C154.645 278.121 151.854 278.971 148.134 279.528C144.415 280.085 143.042 279.87 138.624 282.099C137.411 282.708 137.756 281.98 138.528 281.156ZM137.948 294.011C140.077 291.075 141.801 288.676 143.858 285.914C146.448 282.409 150.29 280.178 153.432 284.548C156.357 288.609 159.594 293.063 160.523 294.339C160.648 294.513 160.569 294.708 160.302 294.728C158.823 294.832 155.425 295.068 154.305 293.532C152.684 291.31 150.858 288.746 149.373 286.7C148.094 284.936 146.24 284.762 144.998 286.471C143.614 288.38 141.406 291.403 140.521 292.598C139.985 293.366 139.3 294.017 138.508 294.516C137.826 294.931 137.449 294.69 137.939 294.012L137.948 294.011Z" fill="#64B5F6"/>
<path d="M160.59 294.531C160.574 294.633 160.481 294.714 160.314 294.726C158.834 294.831 155.436 295.066 154.317 293.531C152.689 291.308 150.864 288.744 149.384 286.699C148.105 284.935 146.251 284.76 145.009 286.47C143.625 288.379 141.417 291.387 140.532 292.597C139.996 293.364 139.312 294.016 138.519 294.515C137.826 294.93 137.449 294.689 137.95 294.01C140.097 291.083 141.838 288.674 143.869 285.912C146.455 282.407 150.295 280.177 153.443 284.546C156.368 288.605 159.606 293.061 160.534 294.338C160.581 294.403 160.599 294.471 160.59 294.531ZM158.439 273.769C158.44 273.967 158.151 274.378 157.741 274.815C154.645 278.12 151.842 278.969 148.134 279.526C144.426 280.083 143.043 279.869 138.624 282.098C137.411 282.707 137.756 281.978 138.528 281.154C141.624 277.849 144.426 277 148.134 276.443C151.842 275.886 153.227 276.1 157.645 273.872C158.214 273.587 158.439 273.595 158.439 273.769ZM151.45 270.156C151.458 270.783 151.32 271.45 151.021 272.091C150.151 273.957 148.253 274.928 146.776 274.246C145.302 273.556 144.807 271.47 145.677 269.605C146.548 267.739 148.447 266.753 149.921 267.45C150.888 267.906 151.435 268.959 151.45 270.156Z" fill="white"/>
<path d="M480.721 283.729C475.822 283.729 472.498 280.829 472.499 275.888C472.499 271.371 476.172 268.13 480.595 268.13C485.975 268.13 488.663 272.11 488.436 277.111H477.414C477.503 279.129 478.686 280.461 480.771 280.461C481.951 280.461 483.112 279.922 483.577 278.837H488.175C487.28 282.245 484.063 283.724 480.721 283.729ZM544.902 283.718C542.042 283.718 539.786 282.3 539.786 279.253C539.786 274.456 545.107 274.825 548.519 274.141C549.36 273.971 549.82 273.689 549.82 272.78C549.821 271.672 548.463 271.247 547.45 271.247C546.087 271.247 545.225 271.844 544.992 273.09L540.382 273.092C540.482 271.158 541.401 269.867 542.731 269.137C544.061 268.407 545.794 268.118 547.503 268.118C551.059 268.118 554.501 268.89 554.502 273.065L554.501 279.518C554.501 280.768 554.502 282.145 555.089 283.3L550.138 283.298C549.984 282.846 549.887 282.378 549.85 281.902C548.578 283.21 546.699 283.717 544.902 283.718ZM494.625 283.566C490.995 283.566 489.199 280.747 489.198 277.474C489.199 274.201 490.974 271.446 494.581 271.446C495.785 271.446 497.518 271.911 498.384 273.258H498.431V267.292H500.369V283.298H498.431V281.734H498.384C497.75 283.007 496.243 283.567 494.625 283.566ZM507.227 283.564C503.463 283.564 501.683 281.014 501.566 277.472C501.566 273.994 503.882 271.442 507.113 271.442C511.271 271.442 512.561 275.278 512.446 278.08H503.635C503.568 280.101 504.731 281.885 507.304 281.885C508.889 281.885 510.014 281.121 510.358 279.626L512.273 279.624C511.745 282.179 509.876 283.567 507.227 283.564ZM466.283 283.302V266.958H463.169L461.436 264.68L459.7 266.958H456L459.237 262.731L463.63 262.729L466.283 266.192V263.01H471.199V283.302H466.283ZM458.974 283.298V268.551H463.89V283.298H458.974ZM513.705 283.298V263.01H528.917L528.918 267.244H519.083V271.395L527.587 271.393V275.483H519.083V283.298H513.705ZM529.893 283.285V268.536H534.671V271.134H534.727C535.453 269.261 537.126 268.265 539.243 268.265C539.631 268.264 540.018 268.303 540.398 268.383V272.787C539.787 272.604 539.154 272.508 538.516 272.499C536.09 272.499 534.811 274.147 534.811 276L534.813 283.285H529.893ZM494.895 281.87C497.491 281.869 498.497 279.679 498.496 277.506C498.492 275.22 497.409 273.116 494.772 273.117C492.129 273.116 491.249 275.33 491.249 277.596C491.248 279.766 492.391 281.869 494.895 281.87ZM546.757 280.739C549.095 280.739 549.879 279.434 549.764 276.392C549.074 276.814 547.821 276.933 546.725 277.186C545.63 277.441 544.702 277.907 544.702 279.062C544.702 280.257 545.65 280.739 546.757 280.739ZM503.63 276.399H510.382C510.291 274.574 508.904 273.132 506.986 273.132C504.972 273.132 503.756 274.627 503.63 276.399ZM477.414 274.41H483.532C483.429 272.754 482.242 271.393 480.595 271.393C478.862 271.394 477.708 272.612 477.414 274.41ZM566.335 276.168L566.335 283.299L571.251 283.299L571.251 273.836C571.251 271.706 570.845 268.125 565.841 268.124C564.05 268.124 562.024 269.062 561.142 270.572L561.078 270.572L561.078 268.551L556.306 268.551L556.306 283.299L561.216 283.299L561.216 275.252C561.216 273.636 562.027 272.104 563.859 272.104C566.567 272.104 566.335 274.147 566.335 276.168ZM587.747 277.504L582.977 277.504C582.754 279.062 581.873 280.029 580.172 280.029C578.093 280.029 577.253 278.072 577.254 276.168C577.253 274.121 577.688 271.821 580.434 271.821C581.673 271.821 582.804 272.687 582.836 273.951L587.62 273.951C587.277 270.055 583.946 268.124 580.216 268.124C575.386 268.124 572.346 271.481 572.346 276.168C572.346 280.684 575.709 283.724 580.217 283.723C584.207 283.723 587.329 281.452 587.747 277.504ZM603.73 278.837L599.126 278.837C598.665 279.922 597.508 280.461 596.327 280.462C594.242 280.462 593.056 279.128 592.967 277.111L603.986 277.111C604.218 272.109 601.531 268.129 596.148 268.13C591.728 268.13 588.052 271.371 588.051 275.887C588.051 280.831 591.379 283.728 596.274 283.729C599.616 283.723 602.826 282.245 603.73 278.837ZM592.967 274.409C593.261 272.612 594.41 271.394 596.148 271.394C597.798 271.394 598.985 272.753 599.07 274.41L592.967 274.409Z" fill="#64B5F6"/>
<path d="M352.361 299.729C352.307 299.729 352.252 299.729 352.198 299.727C351.588 299.74 350.981 299.635 350.417 299.418C349.931 299.224 349.497 298.93 349.15 298.559C348.798 298.173 348.536 297.723 348.382 297.238C348.201 296.694 348.102 296.13 348.086 295.562C348.079 294.999 348.179 294.441 348.382 293.911C348.568 293.43 348.852 292.986 349.219 292.604C349.574 292.238 350.009 291.944 350.495 291.744C351.003 291.534 351.553 291.43 352.109 291.436C352.773 291.412 353.431 291.565 354.006 291.874C354.496 292.154 354.91 292.535 355.217 292.988C355.52 293.44 355.733 293.941 355.845 294.464C355.959 294.964 356.006 295.473 355.985 295.983H349.575C349.564 296.318 349.609 296.652 349.708 296.974C349.804 297.278 349.969 297.559 350.19 297.799C350.42 298.047 350.709 298.244 351.033 298.375C351.416 298.525 351.828 298.598 352.243 298.59C352.764 298.61 353.277 298.475 353.709 298.204C354.111 297.918 354.38 297.501 354.462 297.038H355.855C355.73 297.829 355.288 298.547 354.616 299.049C353.958 299.489 353.169 299.726 352.361 299.729ZM317.659 299.726C317.051 299.726 316.442 299.621 315.866 299.412C315.365 299.212 314.919 298.913 314.558 298.534C314.197 298.152 313.926 297.705 313.762 297.222C313.581 296.695 313.492 296.144 313.498 295.592C313.493 295.037 313.582 294.485 313.762 293.957C313.926 293.471 314.198 293.021 314.558 292.636C314.919 292.256 315.366 291.955 315.866 291.752C317.016 291.323 318.301 291.324 319.451 291.752C319.948 291.956 320.391 292.257 320.75 292.636C321.111 293.021 321.382 293.47 321.546 293.957C321.726 294.485 321.815 295.037 321.81 295.592C321.817 296.144 321.728 296.694 321.546 297.22C321.382 297.704 321.111 298.152 320.75 298.534C320.391 298.911 319.949 299.211 319.451 299.412C318.875 299.621 318.267 299.726 317.659 299.726ZM327.555 299.726C327.32 299.722 327.086 299.702 326.854 299.665C326.589 299.623 326.33 299.556 326.081 299.464C325.823 299.37 325.581 299.243 325.36 299.087C325.131 298.925 324.938 298.725 324.791 298.496H324.757V299.557L323.347 299.558V288.59H324.757V292.691H324.791C325.015 292.257 325.404 291.915 325.883 291.731C326.402 291.527 326.96 291.424 327.523 291.431C328.12 291.418 328.713 291.534 329.254 291.769C329.732 291.984 330.151 292.296 330.48 292.683C330.814 293.078 331.063 293.529 331.215 294.012C331.384 294.529 331.469 295.067 331.465 295.608C331.468 296.149 331.387 296.688 331.224 297.207C331.077 297.685 330.83 298.131 330.498 298.521C330.167 298.898 329.748 299.199 329.272 299.403C328.733 299.627 328.146 299.738 327.555 299.726ZM301.406 299.558L300 299.557V291.615H301.324V292.782H301.358C301.808 292.169 302.481 291.727 303.253 291.536C304.025 291.345 304.844 291.417 305.564 291.739C305.783 291.848 305.978 291.995 306.134 292.174C306.29 292.353 306.408 292.561 306.476 292.783C306.752 292.363 307.143 292.018 307.609 291.783C308.085 291.548 308.618 291.427 309.158 291.431C309.551 291.427 309.946 291.47 310.328 291.56C310.651 291.638 310.954 291.777 311.218 291.967C311.472 292.158 311.671 292.404 311.796 292.683C311.944 293.016 312.016 293.375 312.005 293.735L312.003 299.533H310.597V294.323C310.597 294.092 310.576 293.861 310.532 293.633C310.493 293.435 310.408 293.247 310.283 293.083C310.154 292.917 309.98 292.787 309.778 292.705C309.513 292.604 309.227 292.556 308.941 292.567C308.641 292.551 308.342 292.592 308.059 292.686C307.778 292.78 307.519 292.928 307.3 293.118C307.098 293.313 306.942 293.544 306.84 293.797C306.738 294.05 306.693 294.32 306.707 294.59V299.544H305.3V294.334C305.303 294.097 305.278 293.861 305.227 293.63C305.181 293.432 305.092 293.245 304.968 293.079C304.843 292.918 304.675 292.792 304.481 292.711C304.23 292.617 303.962 292.573 303.692 292.581C303.326 292.571 302.964 292.65 302.641 292.81C302.367 292.948 302.125 293.135 301.929 293.36C301.756 293.56 301.621 293.786 301.531 294.028C301.457 294.213 301.416 294.407 301.406 294.604V299.558ZM333.041 299.557V291.615H334.447V299.557H333.041ZM336.551 299.557V288.59H337.958V299.557H336.551ZM340.062 299.557L340.061 291.615H341.468V299.557H340.062ZM346.074 299.557C345.76 299.561 345.445 299.537 345.136 299.486C344.906 299.453 344.69 299.367 344.507 299.234C344.337 299.096 344.212 298.915 344.151 298.713C344.064 298.422 344.026 298.122 344.035 297.821V292.769L342.578 292.767V291.615H344.035V289.234L345.445 289.235V291.615H347.151V292.769H345.445V297.688C345.44 297.813 345.453 297.937 345.486 298.057C345.509 298.144 345.564 298.221 345.643 298.272C345.739 298.33 345.85 298.365 345.965 298.374C346.144 298.39 346.324 298.397 346.504 298.397H347.151V299.557H346.074ZM317.659 298.598C318.016 298.599 318.37 298.529 318.698 298.395C319.024 298.263 319.314 298.067 319.552 297.821C319.808 297.549 320.003 297.229 320.122 296.885C320.399 296.049 320.4 295.155 320.122 294.32C320.002 293.972 319.807 293.651 319.552 293.374C319.316 293.124 319.024 292.924 318.697 292.79C318.369 292.658 318.016 292.589 317.659 292.589C317.301 292.589 316.948 292.658 316.62 292.79C316.292 292.925 316.001 293.123 315.765 293.373C315.509 293.65 315.316 293.972 315.195 294.32C314.919 295.156 314.919 296.049 315.195 296.885C315.314 297.229 315.508 297.549 315.766 297.821C316.002 298.067 316.293 298.264 316.62 298.397C316.947 298.53 317.301 298.599 317.659 298.598ZM327.249 298.579C327.303 298.58 327.357 298.58 327.411 298.578C327.835 298.591 328.254 298.501 328.628 298.317C328.947 298.149 329.216 297.912 329.414 297.625C329.619 297.324 329.766 296.991 329.845 296.642C329.935 296.27 329.978 295.889 329.978 295.507C329.977 295.14 329.924 294.776 329.82 294.422C329.722 294.084 329.56 293.763 329.34 293.478C329.124 293.2 328.84 292.975 328.512 292.818C328.144 292.647 327.737 292.562 327.325 292.573C326.904 292.56 326.487 292.65 326.115 292.832C325.793 293.002 325.516 293.235 325.305 293.516C325.089 293.807 324.934 294.133 324.85 294.477C324.754 294.838 324.706 295.207 324.707 295.578C324.707 295.959 324.756 296.338 324.855 296.707C324.947 297.052 325.107 297.377 325.328 297.667C325.548 297.947 325.835 298.175 326.165 298.336C326.504 298.488 326.873 298.571 327.249 298.579ZM349.575 294.836H354.495C354.473 294.533 354.398 294.236 354.273 293.957C354.152 293.691 353.977 293.45 353.759 293.245C353.539 293.043 353.28 292.882 352.997 292.769C352.69 292.648 352.359 292.589 352.026 292.593C351.688 292.588 351.352 292.647 351.041 292.769C350.757 292.881 350.501 293.046 350.287 293.253C350.077 293.461 349.91 293.702 349.792 293.966C349.67 294.243 349.596 294.537 349.575 294.836ZM351.988 290.218L350.929 290.217L352.52 287.729H354.324L351.988 290.218ZM333.041 290.187V288.59H334.447V290.187H333.041ZM340.061 290.187V288.59H341.468V290.187H340.061ZM363.675 298.434C363.903 298.072 364.015 297.657 363.998 297.237C364.011 296.906 363.927 296.577 363.758 296.285C363.6 296.031 363.386 295.813 363.129 295.644C362.855 295.469 362.555 295.331 362.238 295.237C361.898 295.133 361.553 295.046 361.203 294.975C360.873 294.903 360.541 294.834 360.209 294.769C359.906 294.709 359.608 294.627 359.318 294.524C359.078 294.439 358.857 294.314 358.665 294.155C358.583 294.085 358.517 294 358.473 293.905C358.429 293.81 358.406 293.708 358.407 293.604C358.399 293.426 358.457 293.249 358.573 293.106C358.688 292.974 358.836 292.868 359.004 292.798C359.192 292.717 359.392 292.663 359.597 292.636C359.809 292.606 360.022 292.591 360.235 292.592C360.466 292.591 360.698 292.614 360.924 292.66C361.142 292.703 361.352 292.779 361.544 292.883C361.73 292.984 361.889 293.124 362.007 293.291C362.136 293.482 362.211 293.701 362.223 293.927L363.63 293.927C363.615 293.507 363.503 293.096 363.301 292.721C363.123 292.411 362.863 292.147 362.547 291.953C362.216 291.757 361.847 291.622 361.461 291.554C361.019 291.474 360.57 291.435 360.12 291.439C359.738 291.44 359.357 291.483 358.986 291.568C358.622 291.649 358.275 291.785 357.959 291.97C357.656 292.146 357.4 292.384 357.211 292.666C357.009 292.976 356.906 293.333 356.914 293.696C356.885 294.129 357.033 294.557 357.327 294.895C357.614 295.188 357.968 295.417 358.363 295.564C358.8 295.723 359.254 295.842 359.716 295.919C360.203 296.004 360.651 296.103 361.066 296.211C361.433 296.299 361.783 296.441 362.102 296.632C362.237 296.715 362.345 296.831 362.418 296.965C362.49 297.1 362.523 297.249 362.515 297.4C362.525 297.617 362.455 297.832 362.316 298.008C362.183 298.166 362.01 298.29 361.811 298.368C361.597 298.453 361.371 298.51 361.14 298.536C360.91 298.566 360.678 298.582 360.446 298.583C360.165 298.584 359.884 298.558 359.609 298.506C359.353 298.46 359.106 298.374 358.879 298.253C358.666 298.135 358.487 297.972 358.357 297.777C358.218 297.555 358.145 297.304 358.143 297.047L356.733 297.047C356.742 297.482 356.855 297.91 357.066 298.3C357.255 298.631 357.527 298.914 357.861 299.125C358.209 299.341 358.596 299.495 359.003 299.579C359.45 299.672 359.906 299.718 360.363 299.717C360.799 299.716 361.234 299.678 361.663 299.601C362.082 299.533 362.484 299.396 362.849 299.194C363.184 299.003 363.467 298.744 363.675 298.434Z" fill="#323E48"/>
<path d="M240.721 283.729C235.822 283.729 232.498 280.829 232.499 275.888C232.499 271.371 236.172 268.13 240.595 268.13C245.975 268.13 248.663 272.11 248.436 277.111H237.414C237.503 279.129 238.686 280.461 240.771 280.461C241.951 280.461 243.112 279.922 243.577 278.837H248.175C247.28 282.245 244.063 283.724 240.721 283.729ZM304.902 283.718C302.042 283.718 299.786 282.3 299.786 279.253C299.786 274.456 305.107 274.825 308.519 274.141C309.36 273.971 309.82 273.689 309.82 272.78C309.821 271.672 308.463 271.247 307.45 271.247C306.087 271.247 305.225 271.844 304.992 273.09L300.382 273.092C300.482 271.158 301.401 269.867 302.731 269.137C304.061 268.407 305.794 268.118 307.503 268.118C311.059 268.118 314.501 268.89 314.502 273.065L314.501 279.518C314.501 280.768 314.502 282.145 315.089 283.3L310.138 283.298C309.984 282.846 309.887 282.378 309.85 281.902C308.578 283.21 306.699 283.717 304.902 283.718ZM254.625 283.566C250.995 283.566 249.199 280.747 249.198 277.474C249.199 274.201 250.974 271.446 254.581 271.446C255.785 271.446 257.518 271.911 258.384 273.258H258.431V267.292H260.369V283.298H258.431V281.734H258.384C257.75 283.007 256.243 283.567 254.625 283.566ZM267.227 283.564C263.463 283.564 261.683 281.014 261.566 277.472C261.566 273.994 263.882 271.442 267.113 271.442C271.271 271.442 272.561 275.278 272.446 278.08H263.635C263.568 280.101 264.731 281.885 267.304 281.885C268.889 281.885 270.014 281.121 270.358 279.626L272.273 279.624C271.745 282.179 269.876 283.567 267.227 283.564ZM226.283 283.302V266.958H223.169L221.436 264.68L219.7 266.958H216L219.237 262.731L223.63 262.729L226.283 266.192V263.01H231.199V283.302H226.283ZM218.974 283.298V268.551H223.89V283.298H218.974ZM273.705 283.298V263.01H288.917L288.918 267.244H279.083V271.395L287.587 271.393V275.483H279.083V283.298H273.705ZM289.893 283.285V268.536H294.671V271.134H294.727C295.453 269.261 297.126 268.265 299.243 268.265C299.631 268.264 300.018 268.303 300.398 268.383V272.787C299.787 272.604 299.154 272.508 298.516 272.499C296.09 272.499 294.811 274.147 294.811 276L294.813 283.285H289.893ZM254.895 281.87C257.491 281.869 258.497 279.679 258.496 277.506C258.492 275.22 257.409 273.116 254.772 273.117C252.129 273.116 251.249 275.33 251.249 277.596C251.248 279.766 252.391 281.869 254.895 281.87ZM306.757 280.739C309.095 280.739 309.879 279.434 309.764 276.392C309.074 276.814 307.821 276.933 306.725 277.186C305.63 277.441 304.702 277.907 304.702 279.062C304.702 280.257 305.65 280.739 306.757 280.739ZM263.63 276.399H270.382C270.291 274.574 268.904 273.132 266.986 273.132C264.972 273.132 263.756 274.627 263.63 276.399ZM237.414 274.41H243.532C243.429 272.754 242.242 271.393 240.595 271.393C238.862 271.394 237.708 272.612 237.414 274.41ZM326.335 276.168L326.335 283.299L331.251 283.299L331.251 273.836C331.251 271.706 330.845 268.125 325.841 268.124C324.05 268.124 322.024 269.062 321.142 270.572L321.078 270.572L321.078 268.551L316.306 268.551L316.306 283.299L321.216 283.299L321.216 275.252C321.216 273.636 322.027 272.104 323.859 272.104C326.567 272.104 326.335 274.147 326.335 276.168ZM347.747 277.504L342.977 277.504C342.754 279.062 341.873 280.029 340.172 280.029C338.093 280.029 337.253 278.072 337.254 276.168C337.253 274.121 337.688 271.821 340.434 271.821C341.673 271.821 342.804 272.687 342.836 273.951L347.62 273.951C347.277 270.055 343.946 268.124 340.216 268.124C335.386 268.124 332.346 271.481 332.346 276.168C332.346 280.684 335.709 283.724 340.217 283.723C344.207 283.723 347.329 281.452 347.747 277.504ZM363.73 278.837L359.126 278.837C358.665 279.922 357.508 280.461 356.327 280.462C354.242 280.462 353.056 279.128 352.967 277.111L363.986 277.111C364.218 272.109 361.531 268.129 356.148 268.13C351.728 268.13 348.052 271.371 348.051 275.887C348.051 280.831 351.379 283.728 356.274 283.729C359.616 283.723 362.826 282.245 363.73 278.837ZM352.967 274.409C353.261 272.612 354.41 271.394 356.148 271.394C357.798 271.394 358.985 272.753 359.07 274.41L352.967 274.409Z" fill="#64B5F6"/>
<path d="M378.821 299.303L398.753 299.303C400.958 299.297 403.071 298.418 404.63 296.86C406.189 295.3 407.068 293.188 407.074 290.982L407.074 271.056C407.069 268.85 406.191 266.736 404.632 265.175C403.073 263.615 400.959 262.735 398.753 262.729L378.821 262.73C376.615 262.736 374.502 263.616 372.943 265.176C371.384 266.736 370.505 268.85 370.5 271.056L370.5 290.988C370.508 293.192 371.387 295.304 372.946 296.862C374.505 298.419 376.617 299.297 378.821 299.303ZM385.677 269.605C386.547 267.731 388.445 266.768 389.921 267.45C391.398 268.131 391.889 270.209 391.021 272.092C390.154 273.975 388.253 274.929 386.776 274.248C385.3 273.566 384.812 271.486 385.677 269.605ZM378.528 281.156C381.623 277.851 384.412 277.001 388.134 276.444C391.857 275.887 393.226 276.101 397.645 273.874C398.857 273.264 398.515 273.992 397.74 274.816C394.645 278.121 391.854 278.971 388.134 279.528C384.415 280.085 383.042 279.87 378.624 282.099C377.411 282.708 377.756 281.98 378.528 281.156ZM377.948 294.011C380.077 291.075 381.801 288.676 383.858 285.914C386.448 282.409 390.29 280.178 393.432 284.548C396.357 288.609 399.594 293.063 400.523 294.339C400.648 294.513 400.569 294.708 400.302 294.728C398.823 294.832 395.425 295.068 394.305 293.532C392.684 291.31 390.858 288.746 389.373 286.7C388.094 284.936 386.24 284.762 384.998 286.471C383.614 288.38 381.406 291.403 380.521 292.598C379.985 293.366 379.3 294.017 378.508 294.516C377.826 294.931 377.449 294.69 377.939 294.012L377.948 294.011Z" fill="#64B5F6"/>
<path d="M400.59 294.531C400.574 294.633 400.481 294.714 400.314 294.726C398.834 294.831 395.436 295.066 394.317 293.531C392.689 291.308 390.864 288.744 389.384 286.699C388.105 284.935 386.251 284.76 385.009 286.47C383.625 288.379 381.417 291.387 380.532 292.597C379.996 293.364 379.312 294.016 378.519 294.515C377.826 294.93 377.449 294.689 377.95 294.01C380.097 291.083 381.838 288.674 383.869 285.912C386.455 282.407 390.295 280.177 393.443 284.546C396.368 288.605 399.606 293.061 400.534 294.338C400.581 294.403 400.599 294.471 400.59 294.531ZM398.439 273.769C398.44 273.967 398.151 274.378 397.741 274.815C394.645 278.12 391.842 278.969 388.134 279.526C384.426 280.083 383.043 279.869 378.624 282.098C377.411 282.707 377.756 281.978 378.528 281.154C381.624 277.849 384.426 277 388.134 276.443C391.842 275.886 393.227 276.1 397.645 273.872C398.214 273.587 398.439 273.595 398.439 273.769ZM391.45 270.156C391.458 270.783 391.32 271.45 391.021 272.091C390.151 273.957 388.253 274.928 386.776 274.246C385.302 273.556 384.807 271.47 385.677 269.605C386.548 267.739 388.447 266.753 389.921 267.45C390.888 267.906 391.435 268.959 391.45 270.156Z" fill="white"/>
<path d="M85.783 132.176L85.9933 101.255L108.54 101.399L108.725 68.1778L86.1784 68.0338L86.39 34.7164L45.6802 38.1966L45.0478 140.6C44.8564 173.096 60.4657 192.9 111.72 191.198L113.864 160.52C91.3076 158.392 85.6765 150.627 85.783 132.176Z" fill="black"/>
<path d="M98.8158 129.789L114.805 129.901L114.918 113.912L125.502 113.961L125.39 129.95L141.379 130.062L141.331 140.644L125.342 140.532L125.23 156.521L114.645 156.473L114.758 140.484L98.7684 140.371L98.8158 129.789Z" fill="black"/>
<path d="M371.013 133H336.929C330.342 133 325 138.362 325 144.973V179.182C325 185.793 330.342 191.155 336.929 191.155H371.013C377.6 191.155 382.942 185.793 382.942 179.182V144.973C382.942 138.362 377.6 133 371.013 133Z" stroke="black" stroke-width="3"/>
<path d="M363.184 175.874C363.313 175.788 363.436 175.695 363.55 175.59C364.662 174.683 365.703 173.297 366.459 171.147C367.515 168.135 368.262 165.441 368.466 162.124C368.753 158.042 367.077 151.693 365.967 148.737L365.58 147.695C365.341 147.036 364.431 145.617 362.815 143.926C361.425 142.472 360.087 142.365 358.055 142.365H349.799C347.766 142.365 346.431 142.472 345.039 143.926C343.421 145.61 342.51 147.029 342.274 147.695L341.884 148.744C340.774 151.693 339.101 158.042 339.381 162.136C339.587 165.441 340.334 168.13 341.395 171.154C342.148 173.308 343.187 174.69 344.304 175.597C344.42 175.697 344.543 175.79 344.672 175.877L338.66 182.585C338.424 182.86 338.292 183.211 338.292 183.574C338.292 183.937 338.424 184.288 338.66 184.56C338.769 184.688 338.904 184.791 339.057 184.86C339.207 184.932 339.374 184.967 339.541 184.967C339.708 184.967 339.872 184.932 340.025 184.86C340.178 184.791 340.313 184.688 340.422 184.56L342.498 182.248H365.355L367.427 184.56C367.536 184.688 367.673 184.791 367.824 184.86C367.977 184.932 368.144 184.967 368.31 184.967C368.477 184.967 368.644 184.932 368.795 184.86C368.948 184.791 369.082 184.688 369.193 184.56C369.428 184.286 369.557 183.937 369.557 183.574C369.557 183.211 369.428 182.86 369.193 182.585L363.184 175.874ZM361.167 173.427C360.757 173.427 360.358 173.304 360.02 173.076C359.682 172.848 359.417 172.524 359.262 172.148C359.105 171.768 359.065 171.352 359.144 170.95C359.223 170.55 359.42 170.18 359.709 169.891C359.997 169.6 360.365 169.403 360.764 169.324C361.165 169.245 361.58 169.284 361.958 169.44C362.333 169.598 362.658 169.863 362.882 170.203C363.11 170.543 363.232 170.943 363.232 171.352C363.232 171.903 363.014 172.429 362.627 172.818C362.238 173.208 361.714 173.427 361.167 173.427ZM342.477 160.14C341.217 160.14 343.198 149.023 344.102 149.023H363.527C364.509 149.023 366.806 160.14 365.277 160.14H342.477ZM344.58 171.352C344.58 170.943 344.702 170.543 344.93 170.201C345.157 169.861 345.479 169.593 345.857 169.438C346.234 169.279 346.649 169.24 347.05 169.319C347.451 169.398 347.817 169.596 348.107 169.887C348.397 170.177 348.594 170.547 348.673 170.95C348.751 171.35 348.712 171.768 348.554 172.148C348.399 172.524 348.135 172.85 347.794 173.078C347.454 173.306 347.055 173.427 346.647 173.427C346.376 173.427 346.107 173.374 345.854 173.269C345.604 173.166 345.377 173.013 345.185 172.82C344.992 172.627 344.842 172.399 344.737 172.148C344.633 171.894 344.58 171.627 344.58 171.352ZM344.999 179.45L347.213 176.981C348.133 177.172 349.071 177.256 350.012 177.23H357.844C358.782 177.256 359.719 177.172 360.639 176.981L362.855 179.45H344.999Z" fill="black"/>
<path d="M259.058 46H204.882C203.844 46 203 46.849 203 47.8912C203 48.9356 203.844 49.7801 204.882 49.7801H259.058C260.096 49.7801 260.94 48.9333 260.94 47.8888C260.94 46.8467 260.096 46 259.058 46Z" fill="black"/>
<path d="M259.058 100.373H204.882C203.844 100.373 203 101.222 203 102.266C203 103.308 203.844 104.155 204.882 104.155H259.058C260.096 104.155 260.94 103.306 260.94 102.264C260.94 101.219 260.096 100.373 259.058 100.373Z" fill="black"/>
<path d="M252.902 79.0742C252.902 76.0943 251.236 74.3566 249.136 73.1866L247.541 72.3166C246.6 71.8048 245.803 71.0069 245.803 69.988C245.803 68.8249 246.746 68.0247 248.123 68.0247C249.064 68.0247 249.931 68.39 250.575 68.6808C251.597 69.1879 252.244 68.5341 252.531 67.4501C252.895 66.2172 252.385 65.7776 251.509 65.3403C250.466 64.8541 249.328 64.6052 248.179 64.6145C244.774 64.6145 241.949 66.871 241.949 70.5021C241.949 73.3378 243.397 74.9359 245.717 76.2455L247.397 77.183C248.417 77.7645 249.064 78.5647 249.064 79.6464C249.064 81.0282 247.761 81.6819 246.456 81.6819C245.434 81.6819 244.208 81.2469 243.557 80.9538C242.472 80.4466 241.893 81.1003 241.529 82.2634C241.17 83.494 241.749 84.0104 242.688 84.4431C243.557 84.8804 245.08 85.2433 246.456 85.2433C250.005 85.2433 252.902 82.845 252.902 79.0649M240.229 78.3368V66.2824C240.229 65.2566 239.209 64.7564 238.273 64.7564C237.253 64.7564 236.317 65.2635 236.317 66.2824V77.8413C236.317 80.1675 235.594 81.6912 233.712 81.6912C231.901 81.6912 231.032 80.2396 231.032 77.8413V66.2824C231.032 65.2566 229.945 64.7564 229.002 64.7564C227.917 64.7564 226.974 65.2635 226.974 66.2824V78.2763C226.974 83.0729 229.366 85.2503 233.721 85.2503C237.631 85.2503 240.238 82.9938 240.238 78.3438M225.099 79.2161C225.099 75.8733 222.784 74.6358 221.551 74.4195V74.3473C222.999 73.6192 224.737 72.2375 224.737 69.7647C224.737 66.4243 221.843 64.8239 219.015 64.8239H213.573C212.551 64.8239 211.981 65.6241 211.981 66.4941V83.5056C211.981 84.5315 213.003 85.0339 213.937 85.0339H219.078C222.193 85.0339 225.09 83.3591 225.09 79.2161M220.672 70.7161C220.672 72.605 219.078 73.2587 217.414 73.2587H215.891V68.1713H217.414C219.15 68.1713 220.672 68.7529 220.672 70.7161ZM221.252 78.7834C221.252 80.7467 220.169 81.6981 217.847 81.6981H216.109V76.0222H217.847C219.296 76.0222 221.252 76.5316 221.252 78.7834Z" fill="black"/>
<path d="M504.058 49H449.882C448.844 49 448 49.8467 448 50.8888V50.8912C448 51.9356 448.844 52.7801 449.882 52.7801H504.058C505.096 52.7801 505.94 51.9356 505.94 50.8912V50.8888C505.94 49.8467 505.096 49 504.058 49Z" fill="black"/>
<path d="M504.058 103.373H449.882C448.844 103.373 448 104.219 448 105.264C448 106.306 448.844 107.155 449.882 107.155H504.058C505.096 107.155 505.94 106.308 505.94 105.266C505.94 104.222 505.096 103.373 504.058 103.373Z" fill="black"/>
<path d="M495.744 60.9755L495.626 60.3219C495.596 60.1498 495.499 59.9986 495.355 59.8985C495.213 59.7985 495.037 59.759 494.866 59.7892L481.249 62.1991L481.189 61.8549C481.152 61.6455 481.073 61.4432 480.96 61.264C480.844 61.0826 480.695 60.9267 480.522 60.8057C480.348 60.6824 480.151 60.5964 479.942 60.5499C479.734 60.5033 479.52 60.4987 479.31 60.5359L473.946 61.485C473.738 61.5222 473.536 61.599 473.355 61.7153C473.177 61.8293 473.022 61.9782 472.899 62.1549C472.776 62.3294 472.69 62.5271 472.644 62.7365C472.598 62.9459 472.593 63.1598 472.63 63.3715L472.693 63.7135L459.069 66.1235C458.9 66.156 458.747 66.2514 458.647 66.3956C458.548 66.5375 458.508 66.7143 458.538 66.8864L458.654 67.5378C458.668 67.6239 458.698 67.7053 458.745 67.7797C458.791 67.8541 458.851 67.917 458.921 67.9681C458.993 68.017 459.072 68.0542 459.157 68.0728C459.241 68.0914 459.329 68.0937 459.415 68.0798L475.984 65.1488V72.2717H468.032C466.917 72.2694 465.825 72.5972 464.896 73.2183C463.969 73.8394 463.246 74.7233 462.819 75.7585C461.658 78.5685 461.06 81.5812 461.06 84.6239C461.06 87.6665 461.658 90.679 462.819 93.489C463.246 94.5219 463.969 95.4058 464.896 96.0269C465.825 96.648 466.917 96.9781 468.032 96.9758H485.903C487.018 96.9781 488.107 96.648 489.037 96.0269C489.964 95.4058 490.687 94.5219 491.113 93.489C493.457 87.8131 493.457 81.437 491.113 75.761C490.687 74.7259 489.964 73.8417 489.037 73.2206C488.11 72.5995 487.018 72.2694 485.903 72.274H477.951V64.7975L495.216 61.7363C495.387 61.706 495.538 61.6083 495.638 61.4641C495.735 61.3222 495.774 61.1454 495.744 60.9755ZM470.915 86.9198H464.17C464.068 86.9198 463.971 86.8824 463.895 86.8149C463.82 86.7475 463.772 86.6523 463.76 86.5523C463.702 85.9149 463.672 85.2703 463.672 84.619C463.665 81.9206 464.196 79.2501 465.23 76.7587C465.457 76.2028 465.846 75.7261 466.344 75.3912C466.845 75.0562 467.431 74.8771 468.032 74.8794H470.91C471.019 74.8794 471.123 74.9213 471.2 74.998C471.276 75.0748 471.32 75.1795 471.32 75.2888V86.5127C471.318 86.6197 471.276 86.7219 471.2 86.7986C471.126 86.8754 471.021 86.9175 470.915 86.9198ZM482.619 86.5079V75.2863C482.619 75.1769 482.663 75.0746 482.74 74.9955C482.816 74.9187 482.92 74.8768 483.029 74.8768H485.91C486.511 74.8745 487.099 75.0536 487.598 75.3886C488.096 75.7236 488.485 76.2004 488.715 76.7587C489.748 79.2478 490.277 81.9208 490.272 84.6169C490.272 85.2659 490.242 85.9103 490.182 86.55C490.172 86.65 490.124 86.7454 490.047 86.8128C489.973 86.8803 489.876 86.9173 489.774 86.9173H483.029C482.92 86.9173 482.816 86.8731 482.74 86.7986C482.663 86.7219 482.621 86.6197 482.619 86.5104V86.5079ZM479.606 94.3588H474.336C474.227 94.3588 474.123 94.3171 474.046 94.2404C473.97 94.1636 473.926 94.0589 473.926 93.9496V75.2818C473.926 75.1725 473.97 75.0678 474.046 74.9911C474.123 74.9143 474.227 74.8701 474.336 74.8701H479.606C479.715 74.8701 479.819 74.9143 479.896 74.9911C479.972 75.0678 480.016 75.1725 480.016 75.2818V93.9496C480.016 94.0589 479.972 94.1636 479.896 94.2404C479.819 94.3171 479.715 94.3588 479.606 94.3588Z" fill="black"/>
<path d="M231.971 191.155C247.972 191.155 260.942 178.138 260.942 162.078C260.942 146.017 247.972 133 231.971 133C215.97 133 203 146.017 203 162.078C203 178.138 215.97 191.155 231.971 191.155Z" stroke="black" stroke-width="3"/>
<path d="M247.388 175.993V148.862C247.388 147.306 246.535 145.673 243.979 145.673C242.043 145.673 241.267 146.529 240.416 148.239L232.05 165.734H231.973L223.527 148.239C222.675 146.529 221.9 145.68 219.963 145.68C217.409 145.68 216.556 147.306 216.556 148.862V175.993C216.556 177.472 217.719 178.328 219.115 178.328C220.35 178.328 221.736 177.472 221.736 175.993V155.773H221.815L229.493 171.485C230.033 172.583 230.733 173.197 231.973 173.197C233.213 173.197 233.908 172.573 234.451 171.485L242.12 155.773H242.199V175.988C242.199 177.465 243.592 178.321 244.832 178.321C246.225 178.321 247.388 177.465 247.388 175.988" fill="black"/>
<path d="M493.265 132.845H459.181C452.594 132.845 447.252 138.207 447.252 144.818V179.027C447.252 185.638 452.594 191 459.181 191H493.265C499.852 191 505.194 185.638 505.194 179.027V144.818C505.194 138.207 499.852 132.845 493.265 132.845Z" stroke="black" stroke-width="3"/>
<path d="M498.459 157.102C498.459 152.906 495.358 150.959 492.336 150.959H486.528C485.434 150.959 484.824 151.813 484.824 152.748V171.022C484.824 172.12 485.918 172.653 486.915 172.653C488.078 172.653 489.008 172.111 489.008 171.022V163.958H490.788L494.274 171.809C494.408 172.081 494.619 172.307 494.881 172.46C495.143 172.611 495.446 172.681 495.748 172.662C496.985 172.662 498.77 171.497 498.072 170.099L494.739 163.102C496.753 162.088 498.457 160.301 498.457 157.112M482.731 170.632C482.731 169.697 482.11 168.689 481.026 168.689H475.139V163.325H480.017C480.247 163.32 480.474 163.272 480.685 163.179C480.896 163.088 481.086 162.955 481.243 162.788C481.401 162.623 481.526 162.425 481.61 162.211C481.691 161.994 481.73 161.767 481.723 161.536C481.723 160.603 481.102 159.745 480.017 159.745H475.139V154.848H480.562C481.656 154.848 482.266 153.75 482.266 152.906C482.266 151.971 481.647 150.961 480.562 150.961H472.659C471.567 150.961 470.955 151.815 470.955 152.75V170.943C470.955 172.041 472.049 172.576 473.048 172.576H481.026C482.12 172.576 482.731 171.478 482.731 170.632ZM468.475 157.102C468.475 152.906 465.379 150.959 462.352 150.959H456.546C455.464 150.959 454.843 151.813 454.843 152.748V171.022C454.843 172.12 455.937 172.653 456.933 172.653C458.094 172.653 459.024 172.111 459.024 171.022V163.958H460.806L464.306 171.809C464.438 172.081 464.651 172.307 464.913 172.458C465.175 172.611 465.474 172.681 465.778 172.662C467.015 172.662 468.795 171.497 468.1 170.099L464.758 163.092C466.774 162.078 468.475 160.292 468.475 157.102ZM494.118 157.57C494.118 160.203 491.712 160.834 490.245 160.834H489.008V154.537H490.477C492.415 154.537 494.118 155.395 494.118 157.57ZM464.139 157.57C464.139 160.203 461.733 160.834 460.264 160.834H459.024V154.537H460.498C462.433 154.537 464.139 155.395 464.139 157.57Z" fill="black"/>
<path d="M381.058 49H326.882C325.844 49 325 49.8467 325 50.8888V50.8912C325 51.9356 325.844 52.7801 326.882 52.7801H381.058C382.096 52.7801 382.94 51.9356 382.94 50.8912V50.8888C382.94 49.8467 382.096 49 381.058 49Z" fill="black"/>
<path d="M381.058 103.373H326.882C325.844 103.373 325 104.219 325 105.264C325 106.306 325.844 107.155 326.882 107.155H381.058C382.096 107.155 382.94 106.308 382.94 105.266C382.94 104.222 382.096 103.373 381.058 103.373Z" fill="black"/>
<path d="M330.794 92.6163H368.753C370.353 92.6209 371.922 92.1743 373.28 91.3252C374.636 90.4738 375.727 89.2572 376.425 87.8127C377.058 86.503 377.283 85.0352 377.074 83.5953C376.439 78.9684 374.413 74.6464 371.266 71.2059C370.737 70.6244 370.091 70.1591 369.372 69.8404C368.654 69.5241 367.877 69.3589 367.092 69.3589H347.06L351.26 65.8836C351.373 65.7882 351.466 65.6673 351.528 65.5323C351.591 65.3951 351.626 65.2485 351.626 65.0973C351.626 64.9484 351.591 64.7996 351.528 64.6646C351.466 64.5297 351.373 64.4088 351.26 64.3135L343.873 58.2327C343.806 58.1769 343.729 58.135 343.646 58.1094C343.565 58.0838 343.477 58.0769 343.391 58.0839C343.305 58.0932 343.222 58.1187 343.148 58.1582C343.071 58.2001 343.004 58.256 342.948 58.3211L342.54 58.8305C342.429 58.9654 342.376 59.1399 342.394 59.3144C342.411 59.4889 342.496 59.6494 342.631 59.7611L349.12 65.0973L343.952 69.352H330.794V71.9759H339.224C339.333 71.9759 339.437 72.0201 339.514 72.0969C339.59 72.1736 339.634 72.2783 339.634 72.3876V83.6301C339.634 83.7395 339.59 83.8418 339.514 83.9209C339.437 83.9977 339.333 84.0396 339.224 84.0396H330.794V92.6163ZM369.321 72.9459C371.558 75.3861 373.166 78.3357 374.01 81.5412C374.372 82.916 373.528 84.0372 372.109 84.0372H360.025C359.916 84.0372 359.812 83.9954 359.735 83.9186C359.659 83.8418 359.615 83.7372 359.615 83.6278V72.3876C359.615 72.2783 359.659 72.1736 359.735 72.0969C359.812 72.0201 359.916 71.9759 360.025 71.9759H367.092C367.509 71.9759 367.924 72.062 368.308 72.2295C368.691 72.3969 369.036 72.6435 369.321 72.9505M356.606 90.0039H351.336C351.227 90.0039 351.123 89.9598 351.046 89.883C350.97 89.8062 350.926 89.7015 350.926 89.5945V72.3876C350.926 72.2783 350.97 72.1736 351.046 72.0969C351.123 72.0201 351.227 71.9759 351.336 71.9759H356.606C356.715 71.9759 356.82 72.0201 356.896 72.0969C356.973 72.1736 357.017 72.2783 357.017 72.3876V89.6015C357.017 89.7108 356.973 89.8155 356.896 89.8923C356.82 89.9691 356.715 90.0109 356.606 90.0109M342.642 71.9759H347.915C348.024 71.9759 348.128 72.0201 348.205 72.0969C348.281 72.1736 348.325 72.2783 348.325 72.3876V89.6015C348.325 89.7108 348.281 89.8155 348.205 89.8923C348.128 89.9691 348.024 90.0109 347.915 90.0109H342.642C342.533 90.0109 342.429 89.9691 342.353 89.8923C342.276 89.8155 342.235 89.7108 342.235 89.6015V72.3876C342.235 72.2783 342.276 72.1736 342.353 72.0969C342.429 72.0201 342.533 71.9759 342.642 71.9759ZM376.337 97.3827H330.794V94.9425H376.337C376.552 94.9425 376.761 95.0285 376.914 95.1821C377.067 95.3356 377.153 95.545 377.153 95.7636V96.5825C377.153 96.8011 377.067 97.0105 376.914 97.164C376.761 97.3175 376.552 97.4036 376.337 97.4036" fill="black"/>
</g>
<defs>
<clipPath id="clip0_97_2439">
<rect width="538" height="336" fill="white"/>
</clipPath>
</defs>
</svg>
