<svg width="30" height="31" viewBox="0 0 30 31" fill="none" xmlns="http://www.w3.org/2000/svg">
<g clip-path="url(#clip0_26082_80481)">
<path d="M22.8813 0.5H6.12478C5.38519 0.5 4.80737 0.972441 4.80737 1.72835V7.8937C4.94605 7.84646 5.10784 7.82283 5.26962 7.79921V1.72835C5.26962 1.30315 5.61631 0.972441 6.03233 0.972441H14.9538V7.84646L23.7827 7.82283H24.1987V1.72835C24.1987 0.972441 23.6209 0.5 22.8813 0.5Z" fill="#1972D2"/>
<path d="M23.2974 22.3268H6.61017C2.9584 22.3268 0 19.3031 0 15.5708C0 11.8386 2.9584 8.81494 6.61017 8.81494H23.3898C27.0416 8.81494 30 11.8386 30 15.5708C29.9076 19.3031 26.9492 22.3031 23.2974 22.3268ZM6.61017 9.49998C3.35131 9.47636 0.693374 12.1457 0.670262 15.5V15.5945C0.647149 18.9252 3.25886 21.6417 6.51772 21.6653H23.3667C26.6949 21.6653 29.376 18.9252 29.3991 15.5472C29.3991 15.5236 29.3991 15.5236 29.3991 15.5C29.3991 12.1929 26.7643 9.49998 23.5285 9.49998C23.4823 9.49998 23.4361 9.49998 23.3667 9.49998H6.61017Z" fill="#1972D2"/>
<path d="M8.96759 27.3346C9.12938 26.9803 8.89826 26.5315 8.45912 26.3189C8.01998 26.1063 7.55773 26.2244 7.39595 26.5787C7.23416 26.9331 7.46528 27.3819 7.90442 27.5945C8.34356 27.8071 8.80581 27.689 8.96759 27.3346Z" fill="#1972D2"/>
<path d="M10.8396 29.3897C10.4698 28.7519 10.2618 28.0196 10.2387 27.2637C10.2156 26.5315 9.91513 25.8937 9.59155 25.2559C9.45288 25.0196 9.29109 24.8307 9.08308 24.6653C9.03685 24.6417 8.73639 24.4055 8.82884 24.6181C9.19864 25.2795 9.40665 25.9881 9.42976 26.7441C9.45288 27.4763 9.75334 28.1141 10.0769 28.7519C10.1925 28.9882 10.3774 29.1771 10.5854 29.3425C10.6316 29.3661 10.9321 29.6023 10.8396 29.3897Z" fill="#1972D2"/>
<path d="M13.2204 23.4133H13.7289C13.7289 24.122 13.7289 24.7125 13.7289 24.8307C13.7289 25.0196 13.6827 25.2322 13.5671 25.374C13.2435 25.8936 11.1403 26.7204 11.7412 27.5944C11.9261 27.8307 12.1341 28.0669 12.3884 28.2322L13.1048 28.7283C13.3129 28.8937 13.4978 29.0826 13.6595 29.2952C13.7751 29.4606 13.7058 29.5314 13.544 29.4133C12.8737 28.9409 12.111 28.4921 11.5332 27.8779C11.1634 27.4999 10.5394 26.8385 10.886 26.248C11.1865 25.7519 11.6719 25.5157 12.111 25.185C12.1341 25.2086 13.2204 24.5944 13.2204 23.4133Z" fill="#1972D2"/>
<path d="M10.8629 19.2323V13.6575L8.52857 17.9331H8.02009L5.66262 13.6575V19.2087H4.76123V12.0276H5.70884L8.25122 16.7048L10.8167 12.0276H11.7412V19.2323H10.8629Z" fill="#1972D2"/>
<path d="M15.4623 19.3267C14.7458 19.3267 14.0524 19.0433 13.5671 18.5C13.3359 18.2401 13.151 17.9567 13.0355 17.626C12.9199 17.2952 12.8506 16.9409 12.8506 16.5866C12.8506 16.2323 12.9199 15.8779 13.0355 15.5236C13.151 15.1929 13.3359 14.9094 13.5671 14.6496C14.5609 13.5866 16.2019 13.5393 17.242 14.5551C17.2651 14.5787 17.3113 14.626 17.3344 14.6496C17.5655 14.9094 17.7504 15.1929 17.866 15.5236C18.0047 15.8543 18.0509 16.2086 18.0509 16.5866C18.0509 16.9409 17.9816 17.2952 17.866 17.626C17.6118 18.2874 17.1264 18.8071 16.5024 19.0905C16.2019 19.2559 15.8321 19.3267 15.4623 19.3267ZM13.752 16.6102C13.752 16.87 13.7982 17.1299 13.8906 17.3897C13.9831 17.6023 14.0987 17.8149 14.2604 18.0039C14.3991 18.1693 14.584 18.3346 14.792 18.4291C15.2081 18.6417 15.7165 18.6417 16.1326 18.4291C16.3406 18.3346 16.5255 18.1929 16.6873 18.0039C16.849 17.8149 16.9646 17.6023 17.0571 17.3661C17.1495 17.1299 17.1957 16.8464 17.1957 16.5866C17.1957 16.3267 17.1495 16.0669 17.0571 15.8307C16.9646 15.5945 16.849 15.3819 16.6873 15.1929C16.5255 15.0275 16.3406 14.8858 16.1326 14.7677C15.9245 14.6732 15.6934 14.626 15.4623 14.626C15.2312 14.626 15 14.6732 14.792 14.7913C14.584 14.8858 14.3991 15.0512 14.2373 15.2165C14.0755 15.4055 13.96 15.6181 13.8675 15.8543C13.7982 16.0669 13.752 16.3267 13.752 16.6102Z" fill="#1972D2"/>
<path d="M19.1602 12.9489V11.8386H20.0384V12.9489H19.1602ZM19.1602 19.2323V13.941H20.0384V19.2323H19.1602Z" fill="#1972D2"/>
<path d="M23.2511 19.3267C22.8351 19.3267 22.4191 19.2559 22.0261 19.1378C21.6563 19.0197 21.2865 18.8307 20.9861 18.5708L21.3559 17.9803C21.6332 18.1929 21.9337 18.3819 22.2573 18.5C22.5577 18.6181 22.8813 18.689 23.228 18.689C23.5516 18.7126 23.852 18.6181 24.1294 18.4527C24.3374 18.311 24.4761 18.0748 24.4529 17.8149C24.4529 17.6968 24.4298 17.5787 24.3605 17.4842C24.2912 17.3897 24.1987 17.2953 24.0831 17.248C23.9445 17.1771 23.7827 17.1063 23.6209 17.059C23.436 17.0118 23.228 16.9409 22.9738 16.8937C22.6733 16.8228 22.3959 16.7283 22.1648 16.6575C21.9568 16.5866 21.7719 16.5157 21.6101 16.3976C21.4714 16.3031 21.3559 16.185 21.2865 16.0433C21.2172 15.8779 21.171 15.689 21.1941 15.5236C21.1941 15.2874 21.2403 15.0275 21.3559 14.8149C21.4483 14.6023 21.6101 14.437 21.7719 14.2953C21.9568 14.1535 22.1648 14.059 22.3959 14.0118C22.6502 13.9409 22.9044 13.8937 23.1818 13.8937C23.5516 13.8937 23.9214 13.9645 24.268 14.0827C24.5916 14.2008 24.869 14.3661 25.1232 14.6023L24.7303 15.1456C24.5223 14.9567 24.268 14.7913 23.9907 14.6968C23.7134 14.6023 23.436 14.5551 23.1587 14.5551C22.8813 14.5551 22.604 14.626 22.3497 14.7677C22.1186 14.9094 22.003 15.1693 22.0261 15.4291C22.0261 15.5236 22.0493 15.6417 22.0955 15.7362C22.1417 15.8307 22.211 15.9016 22.3035 15.9488C22.4191 16.0197 22.5577 16.0669 22.6964 16.1141C22.8582 16.1614 23.0431 16.2086 23.2511 16.2559C23.5978 16.3267 23.8983 16.4212 24.1525 16.5157C24.3836 16.5866 24.5916 16.6811 24.7765 16.8228C24.9383 16.9173 25.0539 17.059 25.1463 17.2244C25.2388 17.3897 25.285 17.6023 25.2619 17.7913C25.285 18.2638 25.077 18.6889 24.7072 18.9724C24.2912 19.2086 23.7827 19.374 23.2511 19.3267Z" fill="#1972D2"/>
<path d="M22.8813 30.5H6.12478C5.38519 30.5 4.80737 30.0984 4.80737 29.3425V23.1771C4.94605 23.2244 5.10784 23.248 5.26962 23.2716V29.3425C5.29274 29.7441 5.63942 30.0511 6.03233 30.0275H6.05545H14.9769V23.2244L23.8058 23.1771H24.2219V29.3425C24.1987 30.0984 23.6209 30.5 22.8813 30.5Z" fill="#1972D2"/>
</g>
<defs>
<clipPath id="clip0_26082_80481">
<rect width="30" height="30" fill="white" transform="translate(0 0.5)"/>
</clipPath>
</defs>
</svg>
