<svg width="535" height="337" viewBox="0 0 535 337" fill="none" xmlns="http://www.w3.org/2000/svg">
<path d="M528 130V315.966C527.986 320.057 526.443 323.913 523.809 326.706V326.707C521.182 329.492 517.702 330.989 514.146 331H19.877C16.3182 330.993 12.8298 329.495 10.2002 326.71L10.1992 326.708L9.9541 326.443C7.54268 323.761 6.10674 320.163 6.00586 316.332L6 315.948V130H528Z" fill="#64B5F6" stroke="white" stroke-width="12"/>
<path d="M0.0269775 136.06V19.8505C0.0427593 14.5908 2.14055 9.54971 5.86007 5.8302C9.5796 2.1107 14.6205 0.01581 19.8804 0H514.522C519.782 0.0157862 524.823 2.11079 528.543 5.8302C532.262 9.54969 534.357 14.5906 534.373 19.8505V136.06H0.0269775ZM366.132 110.809C367.952 110.803 369.729 110.228 371.211 109.159C372.727 107.943 373.728 106.197 374.012 104.274H370.811C370.625 105.401 370.017 106.412 369.112 107.106C368.141 107.762 366.985 108.09 365.813 108.043C364.878 108.063 363.949 107.887 363.088 107.524C362.359 107.204 361.71 106.727 361.189 106.126C360.691 105.543 360.325 104.857 360.108 104.12C359.883 103.339 359.781 102.53 359.806 101.717H374.238C374.285 100.479 374.181 99.2386 373.925 98.0262C373.675 96.7556 373.191 95.5435 372.507 94.4457C371.817 93.3462 370.886 92.4208 369.782 91.7408C368.489 90.9888 367.007 90.6196 365.512 90.6768C364.259 90.6615 363.02 90.9162 361.876 91.4248C360.783 91.9111 359.804 92.621 359.003 93.5093C358.178 94.4367 357.539 95.514 357.119 96.6839C356.661 97.9691 356.437 99.3272 356.452 100.693C356.49 102.073 356.712 103.443 357.119 104.764C357.466 105.941 358.056 107.032 358.849 107.97C359.631 108.87 360.609 109.585 361.705 110.055H361.737C363.013 110.584 364.385 110.838 365.767 110.803C365.888 110.807 366.011 110.809 366.132 110.809ZM287.991 110.803C289.36 110.803 290.73 110.548 292.027 110.04C293.148 109.553 294.148 108.827 294.955 107.909C295.766 106.982 296.374 105.898 296.744 104.723C297.153 103.444 297.352 102.107 297.338 100.766C297.349 99.4199 297.149 98.0801 296.744 96.7969C296.374 95.6149 295.766 94.5249 294.955 93.5905C294.145 92.672 293.146 91.9414 292.027 91.448C289.437 90.4054 286.545 90.4035 283.956 91.4451C282.829 91.9361 281.823 92.6684 281.01 93.5905C280.198 94.5253 279.589 95.6154 279.218 96.7969C278.813 98.08 278.61 99.4192 278.621 100.766C278.608 102.107 278.81 103.445 279.218 104.723C279.587 105.898 280.198 106.983 281.01 107.909C281.822 108.831 282.827 109.557 283.956 110.04C285.253 110.548 286.622 110.803 287.991 110.803ZM310.26 110.803C311.59 110.832 312.908 110.564 314.121 110.02C315.192 109.524 316.137 108.793 316.881 107.877C317.63 106.932 318.188 105.848 318.519 104.688C318.886 103.428 319.068 102.118 319.061 100.806C319.069 99.4928 318.879 98.1896 318.499 96.9332C318.156 95.7614 317.595 94.6637 316.844 93.7035C316.103 92.7653 315.159 92.0071 314.084 91.4857C312.866 90.9145 311.532 90.6342 310.187 90.6652C308.918 90.6489 307.661 90.8964 306.494 91.3929C305.415 91.8395 304.536 92.6707 304.032 93.7238H303.96V83.7681H300.785V110.397L303.96 110.394V107.817H304.032C304.363 108.374 304.799 108.86 305.316 109.252C305.812 109.631 306.359 109.939 306.94 110.168C307.501 110.39 308.082 110.556 308.677 110.658L308.711 110.655C309.222 110.744 309.74 110.794 310.26 110.803ZM384.133 110.803C385.103 110.794 386.069 110.691 387.02 110.501C387.964 110.336 388.871 110.003 389.693 109.513C390.467 109.051 391.119 108.41 391.598 107.648C392.11 106.768 392.363 105.763 392.326 104.743C392.355 103.939 392.169 103.139 391.787 102.43C391.43 101.818 390.947 101.288 390.369 100.879C389.753 100.453 389.078 100.12 388.366 99.8903C387.599 99.6395 386.82 99.4307 386.032 99.2583C385.291 99.0841 384.541 98.9173 383.794 98.7567C383.109 98.6119 382.44 98.4113 381.79 98.1595C381.249 97.9548 380.75 97.6535 380.32 97.2666C380.134 97.0971 379.986 96.8901 379.886 96.6607C379.786 96.4299 379.735 96.179 379.738 95.9272C379.719 95.4931 379.852 95.0679 380.112 94.7211C380.372 94.3982 380.703 94.1398 381.08 93.9702C381.505 93.775 381.955 93.6429 382.417 93.5789C382.893 93.5077 383.374 93.4691 383.855 93.4687C384.376 93.4681 384.893 93.5245 385.403 93.6368C385.895 93.7396 386.368 93.9243 386.8 94.179C387.22 94.423 387.575 94.7619 387.841 95.1676C388.133 95.6327 388.303 96.1623 388.331 96.7099H391.497C391.462 95.6924 391.209 94.6951 390.755 93.7847C390.355 93.0312 389.772 92.389 389.059 91.9205C388.313 91.4455 387.484 91.1181 386.615 90.9522C385.619 90.7582 384.608 90.6634 383.594 90.671C382.734 90.6733 381.875 90.7776 381.039 90.9841C380.222 91.1804 379.441 91.5118 378.729 91.9611C378.046 92.3876 377.469 92.9672 377.044 93.6513C376.589 94.4047 376.358 95.2701 376.378 96.1504C376.311 97.2038 376.641 98.2434 377.305 99.0641C377.95 99.7737 378.747 100.328 379.636 100.688C380.619 101.084 381.637 101.384 382.677 101.583C383.773 101.791 384.783 102.03 385.719 102.291C386.546 102.506 387.331 102.849 388.05 103.311C388.352 103.515 388.597 103.796 388.76 104.123C388.923 104.45 389.001 104.813 388.98 105.178C389.002 105.707 388.844 106.228 388.531 106.654C388.232 107.038 387.842 107.339 387.394 107.53C386.913 107.735 386.405 107.871 385.884 107.935C385.366 108.008 384.844 108.045 384.321 108.049C383.689 108.052 383.056 107.989 382.437 107.863C381.859 107.75 381.303 107.543 380.793 107.248C380.314 106.962 379.909 106.566 379.616 106.092C379.305 105.554 379.139 104.943 379.135 104.32H375.963C375.98 105.377 376.238 106.418 376.711 107.361C377.136 108.166 377.751 108.852 378.503 109.365C379.285 109.889 380.156 110.263 381.074 110.469C382.079 110.695 383.104 110.807 384.133 110.803ZM248.235 110.429H251.401V98.403C251.421 97.9261 251.518 97.454 251.682 97.0057C251.885 96.4167 252.188 95.8668 252.578 95.3821C253.019 94.8347 253.564 94.3816 254.181 94.0456C254.907 93.6576 255.724 93.4678 256.547 93.4919C257.155 93.4712 257.759 93.5782 258.324 93.805C258.762 94.0028 259.14 94.3109 259.42 94.7008C259.7 95.1027 259.896 95.5547 260 96.0344C260.117 96.5974 260.174 97.1736 260.168 97.7478V110.42H263.334L263.337 98.3943C263.304 97.7393 263.406 97.084 263.635 96.4693C263.865 95.8547 264.217 95.2932 264.67 94.8197C265.165 94.3579 265.746 94.003 266.381 93.7731C267.016 93.5432 267.693 93.4454 268.367 93.4832C269.012 93.4581 269.655 93.5729 270.251 93.8195C270.705 94.0163 271.098 94.3323 271.388 94.7327C271.67 95.132 271.858 95.5877 271.947 96.0692C272.046 96.6218 272.096 97.1846 272.095 97.7478V110.394H275.264L275.261 96.2548C275.285 95.3811 275.126 94.5122 274.794 93.7035C274.51 93.0254 274.064 92.4288 273.492 91.9669C272.899 91.5044 272.214 91.167 271.486 90.9783C270.625 90.7604 269.741 90.6566 268.854 90.6652C267.638 90.6541 266.439 90.9484 265.366 91.5205C264.317 92.0906 263.438 92.9242 262.815 93.9442C262.662 93.4049 262.398 92.9045 262.047 92.4685C261.694 92.0337 261.257 91.6763 260.762 91.4132C259.142 90.6303 257.297 90.4555 255.558 90.9203C253.821 91.3847 252.307 92.4568 251.294 93.9442H251.213L251.215 91.1117H248.235V110.429ZM338.436 110.394H341.605V91.1117H338.439L338.436 110.394ZM322.622 110.388H325.796V91.1117H322.622V110.388ZM330.528 110.388H333.699V83.7623H330.528V110.388ZM351.961 110.388H354.414V107.588L352.958 107.59C352.552 107.593 352.145 107.575 351.741 107.535C351.483 107.513 351.236 107.43 351.019 107.289C350.842 107.165 350.716 106.978 350.665 106.767C350.592 106.475 350.561 106.173 350.572 105.871L350.546 93.9123H354.388V91.1117H350.546V85.3337L347.372 85.3308V91.1117H344.09V93.9123H347.372V106.173C347.351 106.903 347.439 107.631 347.633 108.336C347.771 108.827 348.051 109.266 348.436 109.6C348.846 109.922 349.334 110.135 349.85 110.214C350.547 110.338 351.254 110.396 351.961 110.388ZM424.994 110.321H470.896C475.977 110.311 480.847 108.288 484.441 104.697C488.034 101.106 490.06 96.2383 490.074 91.1581V45.2558C490.058 40.1763 488.031 35.3075 484.438 31.7167C480.844 28.1259 475.976 26.1048 470.896 26.0924H424.994C419.916 26.1064 415.048 28.1286 411.457 31.7196C407.866 35.31 405.845 40.178 405.83 45.2558V91.1581C405.845 96.2363 407.868 101.103 411.457 104.694C415.049 108.285 419.914 110.308 424.994 110.321ZM309.955 108.072C308.987 108.099 308.024 107.884 307.155 107.454C306.41 107.064 305.768 106.509 305.273 105.831C304.776 105.127 304.415 104.337 304.209 103.5C303.986 102.603 303.874 101.683 303.876 100.76C303.873 99.8588 303.98 98.9606 304.195 98.087C304.386 97.2513 304.733 96.4619 305.218 95.7561C305.695 95.0719 306.317 94.5034 307.042 94.092C307.881 93.6496 308.819 93.4333 309.767 93.4629C310.693 93.4374 311.611 93.6424 312.44 94.0572C313.178 94.4387 313.817 94.9897 314.304 95.6633C314.798 96.3567 315.165 97.1304 315.385 97.9537C315.62 98.8111 315.741 99.6976 315.742 100.586C315.744 101.515 315.642 102.439 315.44 103.346C315.261 104.192 314.934 105 314.472 105.732C314.027 106.437 313.417 107.021 312.695 107.434C311.853 107.883 310.908 108.104 309.955 108.072ZM287.982 108.049C287.178 108.049 286.382 107.88 285.646 107.556C284.911 107.234 284.254 106.758 283.721 106.158C283.142 105.498 282.706 104.726 282.439 103.888C281.816 101.859 281.815 99.6896 282.439 97.6609C282.711 96.8166 283.145 96.0355 283.721 95.3618C284.251 94.7546 284.91 94.2717 285.646 93.9442C286.384 93.6247 287.178 93.4603 287.982 93.46C288.788 93.4605 289.585 93.6233 290.322 93.9442C291.059 94.2704 291.716 94.7554 292.247 95.3618C292.823 96.0355 293.258 96.8173 293.529 97.6609C294.152 99.6887 294.155 101.859 293.531 103.888C293.264 104.725 292.826 105.497 292.247 106.158C291.715 106.756 291.056 107.235 290.322 107.556C289.584 107.88 288.789 108.048 287.982 108.049ZM370.93 98.9104L359.852 98.9075C359.899 98.1821 360.064 97.4706 360.34 96.7969C360.604 96.1577 360.981 95.5732 361.456 95.069C361.936 94.5665 362.512 94.1655 363.152 93.892C363.853 93.5976 364.611 93.4518 365.372 93.4629C366.122 93.4534 366.864 93.5991 367.556 93.892C368.195 94.1651 368.777 94.5588 369.272 95.0487C369.765 95.5458 370.157 96.1312 370.429 96.7766C370.71 97.4552 370.879 98.1765 370.93 98.9104ZM362.914 87.6849H365.3L370.556 81.672L366.494 81.6691L362.914 87.6849ZM322.622 87.6385L325.796 87.6356V83.7623H322.622V87.6385ZM338.439 87.6385L341.605 87.6356V83.7623H338.436L338.439 87.6385ZM112.447 74.1545C120.071 74.1546 127.389 70.7007 129.428 62.7957H118.962C117.926 65.3084 115.253 66.556 112.581 66.5559C107.837 66.5557 105.146 63.4749 104.944 58.7977L130.022 58.8006C130.536 47.2209 124.422 38.0043 112.181 38.005C102.118 38.0042 93.76 45.5085 93.7595 55.9652C93.7592 67.4042 101.322 74.1212 112.447 74.1545ZM375.348 74.1487C382.986 74.1483 390.283 70.6915 392.34 62.787H381.863C380.841 65.2995 378.168 66.5497 375.493 66.5501C370.75 66.5506 368.051 63.4696 367.851 58.7919H392.92C393.449 47.213 387.335 37.9995 375.088 37.9992C365.032 37.9992 356.665 45.5024 356.666 55.9594L356.637 55.9652C356.638 67.4116 364.237 74.1216 375.348 74.1487ZM258.498 74.1197C262.587 74.1205 266.862 72.9446 269.755 69.9189C269.846 71.0149 270.07 72.0937 270.422 73.1369H281.691C280.355 70.4372 280.354 67.2772 280.355 64.3844V49.4566C280.354 39.7892 272.521 38.0059 264.43 38.005C260.528 38.0062 256.627 38.5616 253.587 40.3649C250.547 42.1695 248.44 45.0546 248.241 49.5175H258.698C259.225 46.6304 261.19 45.2478 264.291 45.2471C266.595 45.2478 269.683 46.23 269.683 48.7956C269.683 50.9004 268.634 51.5552 266.723 51.9499C258.958 53.5328 246.852 52.6762 246.852 63.7814C246.852 70.8239 251.983 74.1204 258.498 74.1197ZM338.805 74.1197C347.885 74.1195 354.988 68.8605 355.971 59.7197H345.154C344.646 63.3275 342.642 65.5681 338.773 65.5672C334.042 65.5679 332.13 61.0389 332.131 56.6292C332.131 51.9109 333.119 46.564 339.367 46.5633C342.161 46.5634 344.759 48.6022 344.832 51.4948H355.684C354.875 42.4746 347.325 38.0051 338.839 38.005C327.848 38.0052 320.932 45.7752 320.931 56.6263C320.932 67.0837 328.574 74.1195 338.805 74.1197ZM172.799 73.7458C178.812 73.7462 183.062 70.5317 184.251 64.6192H179.908C179.127 68.0796 176.587 69.8525 172.959 69.8522C167.106 69.8513 164.458 65.7203 164.612 61.0446H184.657C184.917 54.5497 182.004 45.6753 172.524 45.6762C165.207 45.6752 159.902 51.6153 159.901 59.6327V59.653C160.195 67.851 164.206 73.76 172.799 73.7458ZM144.1 73.7313C147.782 73.7314 151.209 72.4356 152.653 69.4898H152.76V73.1166H157.17V36.08H152.76L152.792 49.8654H152.688C150.682 46.7126 146.739 45.6677 143.999 45.6675C135.794 45.6678 131.751 52.0637 131.75 59.6269C131.75 67.1908 135.841 73.7309 144.1 73.7313ZM90.8053 73.1659L90.8082 26.1852H79.6145V33.5345L73.6017 25.5183L63.5793 25.5154L56.2271 35.3059H64.6462L68.5833 30.0671L72.558 35.3059H79.6464V73.1253L90.8053 73.1659ZM224.34 73.163H235.531V56.2668V56.2407C235.531 51.9506 238.44 48.1085 243.959 48.1085C245.411 48.1279 246.852 48.3521 248.241 48.7753V38.6399C247.378 38.4538 246.498 38.3632 245.614 38.3674C240.798 38.3669 236.99 40.6698 235.34 45.0065L235.212 45.0093V38.9936H224.34V73.163ZM74.1699 73.1456L74.167 38.9936H63.0169V73.1253L74.1699 73.1456ZM199.744 73.1398V55.0433H219.122V45.5747H199.747L199.744 35.9669H222.122V26.1649H187.518V73.1369L199.744 73.1398ZM284.417 73.1369H295.607V54.5099C295.607 50.7818 297.452 47.2188 301.635 47.2185C307.762 47.2185 307.232 51.9514 307.233 56.6292V73.1369H318.418L318.421 51.228C318.421 46.2969 317.469 38.0051 306.111 38.005C302.056 38.005 297.427 40.1759 295.422 43.6699L295.274 43.6728V38.9936H284.417V73.1369ZM144.718 69.8638C139.019 69.8642 136.417 64.9925 136.418 59.969C136.417 54.724 138.41 49.5992 144.463 49.5987C150.516 49.599 152.908 54.4554 152.908 59.7602C152.908 64.7924 150.625 69.8632 144.718 69.8638ZM262.713 67.2111C260.194 67.2114 258.037 66.0218 258.037 63.3291C258.037 60.6365 260.195 59.634 262.641 58.9862C265.086 58.3376 267.979 58.1248 269.555 57.1481C269.817 64.1911 268.032 67.2104 262.713 67.2111ZM164.554 57.1626C164.875 53.0594 167.606 49.5989 172.222 49.5987C176.619 49.5986 179.773 52.9579 179.919 57.1597L164.554 57.1626ZM104.944 52.5587C105.607 48.3956 108.238 45.5748 112.181 45.5747C115.929 45.5756 118.628 48.7235 118.828 52.5587H104.944ZM367.854 52.5587C368.521 48.3956 371.133 45.5752 375.088 45.5747C378.843 45.5748 381.542 48.7234 381.735 52.5587H367.854Z" fill="white"/>
<path d="M366.141 110.811C366.019 110.812 365.897 110.81 365.775 110.806C364.401 110.838 363.035 110.582 361.766 110.055C360.669 109.585 359.694 108.872 358.913 107.97C358.119 107.033 357.529 105.941 357.182 104.764C356.776 103.443 356.553 102.074 356.515 100.693C356.5 99.3284 356.725 97.9719 357.182 96.6867C357.602 95.5181 358.241 94.4407 359.067 93.5121C359.868 92.6238 360.847 91.911 361.94 91.4247C363.084 90.9161 364.323 90.6614 365.575 90.6767C367.07 90.6195 368.551 90.99 369.846 91.7407C370.949 92.4208 371.881 93.3461 372.571 94.4456C373.255 95.5434 373.735 96.7597 373.986 98.029C374.242 99.2414 374.348 100.479 374.302 101.717H359.87C359.844 102.53 359.946 103.342 360.168 104.123C360.386 104.86 360.755 105.542 361.253 106.126C361.773 106.728 362.422 107.205 363.152 107.524C364.013 107.887 364.941 108.066 365.877 108.046C367.048 108.095 368.204 107.766 369.176 107.109C370.081 106.415 370.687 105.402 370.872 104.277H374.009C373.728 106.197 372.731 107.94 371.22 109.159C369.738 110.228 367.962 110.804 366.141 110.811ZM288.008 110.803C286.639 110.803 285.27 110.548 283.973 110.04C282.845 109.557 281.84 108.829 281.027 107.909C280.215 106.983 279.605 105.898 279.236 104.723C278.827 103.445 278.627 102.108 278.641 100.766C278.63 99.4204 278.829 98.0805 279.236 96.7968C279.605 95.6166 280.216 94.5239 281.027 93.5904C281.841 92.6682 282.846 91.936 283.973 91.445C286.562 90.4034 289.455 90.4045 292.044 91.445C293.164 91.9405 294.161 92.6713 294.969 93.5904C295.782 94.5243 296.391 95.6148 296.761 96.7968C297.167 98.0801 297.368 99.4205 297.355 100.766C297.371 102.108 297.17 103.443 296.761 104.72C296.391 105.895 295.78 106.982 294.969 107.909C294.161 108.826 293.165 109.554 292.044 110.04C290.747 110.549 289.378 110.803 288.008 110.803ZM310.291 110.803C309.761 110.795 309.235 110.746 308.711 110.655C308.116 110.555 307.532 110.39 306.972 110.168C306.391 109.939 305.846 109.631 305.348 109.252C304.833 108.86 304.398 108.374 304.067 107.816H303.992V110.394L300.817 110.397V83.768H303.992V93.7237H304.067C304.57 92.6706 305.448 91.8402 306.525 91.3928C307.694 90.897 308.95 90.6488 310.219 90.6651C311.563 90.6341 312.897 90.9144 314.115 91.4856C315.192 92.0077 316.135 92.7652 316.875 93.7034C317.627 94.6636 318.189 95.7592 318.531 96.9302C318.912 98.1874 319.102 99.4935 319.093 100.806C319.102 102.119 318.917 103.427 318.551 104.688C318.219 105.848 317.664 106.931 316.916 107.877C316.171 108.793 315.227 109.524 314.156 110.02C312.942 110.563 311.622 110.832 310.291 110.803ZM251.415 110.397L248.25 110.394V91.1116H251.23V93.9441H251.308C252.321 92.4567 253.836 91.3846 255.573 90.9202C257.312 90.4554 259.157 90.6302 260.777 91.4131C261.271 91.6762 261.709 92.0336 262.061 92.4684C262.413 92.9045 262.676 93.4078 262.829 93.947C263.453 92.927 264.332 92.0905 265.381 91.5204C266.453 90.9483 267.653 90.654 268.868 90.6651C269.755 90.6558 270.642 90.7602 271.504 90.9782C272.231 91.1668 272.914 91.5043 273.507 91.9668C274.078 92.4287 274.526 93.0261 274.809 93.7034C275.142 94.5128 275.303 95.3839 275.278 96.2576L275.275 110.336H272.11V97.6869C272.11 97.1249 272.061 96.5638 271.962 96.0111C271.874 95.5304 271.683 95.0732 271.402 94.6746C271.111 94.2734 270.719 93.9566 270.266 93.7585C269.669 93.5132 269.025 93.3963 268.381 93.4222C267.706 93.3837 267.032 93.483 266.395 93.7121C265.761 93.9407 265.179 94.2998 264.685 94.7616C264.23 95.2344 263.88 95.7937 263.65 96.4083C263.42 97.023 263.318 97.6783 263.351 98.3334V110.362H260.182V97.7129C260.189 97.1374 260.133 96.5647 260.017 96.0024C259.914 95.5227 259.715 95.0678 259.434 94.6659C259.154 94.2761 258.776 93.9688 258.339 93.773C257.774 93.5449 257.169 93.4376 256.561 93.457C255.738 93.4322 254.923 93.6244 254.196 94.0136C253.579 94.3484 253.034 94.8019 252.592 95.3472C252.203 95.834 251.9 96.3818 251.697 96.9708C251.531 97.4183 251.437 97.8907 251.415 98.3682V110.397ZM322.642 110.394V91.1116H325.808V110.394H322.642ZM330.545 110.394V83.768H333.714V110.394H330.545ZM338.451 110.394L338.448 91.1116H341.617V110.394H338.451ZM351.987 110.394C351.279 110.403 350.571 110.345 349.874 110.22C349.357 110.141 348.87 109.931 348.459 109.608C348.075 109.273 347.795 108.834 347.656 108.344C347.461 107.639 347.374 106.909 347.395 106.178V93.9122L344.116 93.9093V91.1116H347.395V85.3307L350.569 85.3336V91.1116H354.411V93.9122H350.569V105.857C350.559 106.159 350.589 106.46 350.662 106.753C350.713 106.964 350.839 107.15 351.016 107.274C351.233 107.415 351.483 107.499 351.741 107.521C352.145 107.56 352.55 107.578 352.955 107.576H354.411V110.394H351.987ZM288.008 108.066C288.814 108.066 289.61 107.898 290.348 107.573C291.082 107.251 291.736 106.777 292.27 106.178C292.849 105.518 293.288 104.742 293.555 103.906C294.179 101.877 294.18 99.7067 293.555 97.6782C293.284 96.8346 292.846 96.0557 292.27 95.382C291.739 94.7756 291.082 94.2906 290.345 93.9643C289.607 93.6427 288.813 93.477 288.008 93.4773C287.203 93.4768 286.408 93.6436 285.669 93.9643C284.932 94.2912 284.276 94.7726 283.744 95.3791C283.168 96.0528 282.734 96.8339 282.462 97.6782C281.839 99.7077 281.839 101.876 282.462 103.906C282.73 104.742 283.167 105.518 283.747 106.178C284.279 106.777 284.934 107.254 285.669 107.576C286.406 107.9 287.202 108.067 288.008 108.066ZM309.601 108.019C309.722 108.022 309.845 108.021 309.967 108.017C310.92 108.048 311.865 107.83 312.706 107.382C313.424 106.975 314.03 106.399 314.475 105.703C314.936 104.972 315.268 104.164 315.446 103.317C315.648 102.412 315.747 101.488 315.745 100.56C315.744 99.6701 315.624 98.7854 315.391 97.9275C315.17 97.1055 314.805 96.3263 314.31 95.6343C313.823 94.9606 313.185 94.4132 312.445 94.031C311.617 93.6162 310.699 93.4112 309.772 93.4367C308.825 93.4058 307.886 93.6247 307.047 94.0658C306.322 94.4785 305.7 95.0441 305.224 95.727C304.737 96.4333 304.389 97.2256 304.2 98.0608C303.985 98.9357 303.876 99.8326 303.878 100.734C303.877 101.657 303.989 102.577 304.212 103.474C304.418 104.311 304.779 105.101 305.276 105.804C305.772 106.483 306.417 107.038 307.16 107.428C307.925 107.797 308.755 107.998 309.601 108.019ZM359.87 98.9306H370.947C370.896 98.1967 370.728 97.4754 370.446 96.7968C370.174 96.1514 369.781 95.5673 369.289 95.0689C368.794 94.579 368.211 94.1866 367.573 93.9122C366.882 93.6193 366.137 93.4752 365.387 93.486C364.626 93.4736 363.87 93.6178 363.169 93.9122C362.529 94.1857 361.953 94.5867 361.473 95.0892C360.999 95.5934 360.622 96.1795 360.357 96.82C360.082 97.4925 359.917 98.2052 359.87 98.9306ZM365.303 87.7196L362.917 87.7167L366.5 81.6777H370.562L365.303 87.7196ZM322.642 87.6442V83.768H325.808V87.6442H322.642ZM338.448 87.6442V83.768H341.617V87.6442H338.448ZM391.615 107.668C392.128 106.788 392.381 105.78 392.344 104.761C392.371 103.956 392.184 103.159 391.801 102.45C391.447 101.834 390.965 101.303 390.386 100.894C389.77 100.468 389.093 100.134 388.381 99.9041C387.614 99.6532 386.837 99.441 386.05 99.2694C385.307 99.0945 384.558 98.9278 383.811 98.7686C383.128 98.6232 382.458 98.4247 381.806 98.1734C381.264 97.9687 380.767 97.6641 380.336 97.2785C380.152 97.1085 380.003 96.9027 379.903 96.672C379.803 96.4412 379.753 96.1928 379.754 95.9415C379.736 95.5074 379.868 95.0798 380.129 94.7317C380.388 94.4101 380.72 94.1527 381.099 93.9839C381.522 93.7878 381.972 93.6552 382.434 93.5892C382.91 93.518 383.39 93.4817 383.871 93.4833C384.391 93.4819 384.913 93.5378 385.421 93.6494C385.912 93.7534 386.384 93.9367 386.817 94.1901C387.236 94.4354 387.594 94.7741 387.861 95.1798C388.151 95.6442 388.319 96.1762 388.347 96.7239L391.515 96.7238C391.481 95.705 391.229 94.7076 390.773 93.7964C390.373 93.0429 389.788 92.402 389.076 91.9323C388.33 91.4573 387.5 91.1288 386.63 90.9642C385.635 90.7688 384.624 90.6748 383.611 90.6832C382.75 90.6867 381.893 90.7915 381.058 90.9968C380.239 91.1944 379.458 91.5232 378.746 91.9726C378.063 92.4011 377.487 92.9783 377.062 93.6638C376.607 94.4159 376.375 95.2831 376.394 96.1627C376.328 97.2148 376.66 98.2549 377.323 99.0748C377.969 99.7852 378.765 100.341 379.655 100.699C380.64 101.084 381.66 101.373 382.702 101.562C383.798 101.768 384.806 102.008 385.742 102.269C386.568 102.483 387.355 102.829 388.074 103.292C388.377 103.494 388.622 103.774 388.785 104.1C388.947 104.427 389.022 104.791 389.003 105.157C389.026 105.684 388.869 106.205 388.555 106.633C388.257 107.016 387.866 107.318 387.419 107.507C386.937 107.713 386.429 107.851 385.908 107.916C385.39 107.988 384.868 108.026 384.345 108.029C383.713 108.031 383.081 107.968 382.461 107.842C381.884 107.729 381.328 107.522 380.818 107.227C380.338 106.941 379.934 106.545 379.641 106.071C379.329 105.533 379.164 104.923 379.16 104.3L375.986 104.3C376.005 105.357 376.26 106.395 376.734 107.341C377.16 108.144 377.774 108.832 378.525 109.345C379.308 109.869 380.179 110.242 381.097 110.448C382.102 110.673 383.129 110.785 384.158 110.782C385.141 110.78 386.12 110.686 387.085 110.501C388.028 110.336 388.934 110.002 389.757 109.512C390.511 109.049 391.147 108.419 391.615 107.668Z" fill="#323E48"/>
<path d="M112.462 74.1342C101.316 74.1335 93.7534 67.4187 93.7537 55.9797C93.7542 45.5229 102.112 38.0199 112.175 38.0194C124.416 38.02 130.531 47.2331 130.016 58.8122H104.939C105.14 63.4828 107.831 66.5673 112.575 66.5674C115.26 66.5683 117.902 65.32 118.959 62.8072H129.422C127.384 70.6977 120.066 74.1211 112.462 74.1342ZM258.489 74.1081C251.981 74.1078 246.85 70.825 246.849 63.7697C246.849 52.6644 258.957 53.519 266.72 51.9354C268.632 51.5427 269.68 50.8888 269.68 48.784C269.68 46.2183 266.593 45.2361 264.288 45.2354C261.187 45.2361 259.224 46.6166 258.695 49.503L248.206 49.5059C248.434 45.03 250.524 42.0401 253.549 40.3503C256.577 38.66 260.519 37.9912 264.407 37.9904C272.498 37.9913 280.331 39.7775 280.332 49.445L280.329 64.3843C280.329 67.2779 280.332 70.4673 281.668 73.1398L270.402 73.1369C270.052 72.0897 269.831 71.0053 269.747 69.9043C266.852 72.9313 262.578 74.1068 258.489 74.1081ZM144.097 73.7573C135.838 73.757 131.751 67.2309 131.75 59.6529C131.751 52.0757 135.791 45.6967 143.996 45.6964C146.737 45.6966 150.679 46.7719 152.65 49.8915H152.757V36.0799H157.167V73.1369H152.757V69.5158H152.65C151.208 72.4624 147.779 73.7575 144.097 73.7573ZM172.77 73.7515C164.205 73.7527 160.156 67.8469 159.889 59.6471C159.889 51.5964 165.159 45.6881 172.509 45.6877C181.97 45.6876 184.906 54.5685 184.645 61.0561H164.597C164.444 65.734 167.09 69.8642 172.944 69.8637C176.552 69.8642 179.112 68.0954 179.893 64.6337L184.251 64.6308C183.048 70.5458 178.797 73.7588 172.77 73.7515ZM79.6116 73.1456V35.3058H72.5261L68.5832 30.0323L64.6346 35.3058H56.2155L63.5793 25.5183L73.5756 25.5154L79.6116 33.5315V26.1648H90.7966V73.1456H79.6116ZM62.9821 73.1369V38.9935H74.167V73.1369H62.9821ZM187.509 73.1369V26.1648H222.119L222.122 35.9668H199.744V45.5775L219.093 45.5746V55.0433H199.744V73.1369H187.509ZM224.34 73.105V38.9588H235.212V44.9745H235.34C236.99 40.6378 240.797 38.3314 245.614 38.3325C246.498 38.3284 247.378 38.4189 248.241 38.6051V48.8014C246.852 48.3782 245.411 48.1539 243.959 48.1346C238.44 48.1345 235.531 51.9505 235.531 56.2406L235.534 73.105H224.34ZM144.712 69.8289C150.619 69.8283 152.906 64.7563 152.905 59.7254C152.894 54.434 150.431 49.563 144.431 49.5639C138.417 49.5627 136.415 54.6878 136.415 59.9341C136.414 64.9577 139.014 69.828 144.712 69.8289ZM262.711 67.211C268.029 67.2117 269.813 64.1903 269.553 57.148C267.982 58.1231 265.13 58.3988 262.638 58.9861C260.145 59.5747 258.035 60.6557 258.034 63.329C258.034 66.0956 260.191 67.2114 262.711 67.211ZM164.586 57.1625H179.948C179.74 52.9391 176.585 49.5998 172.222 49.5986C167.639 49.5988 164.873 53.0606 164.586 57.1625ZM104.939 52.5587H118.857C118.624 48.7234 115.924 45.5742 112.175 45.5746C108.233 45.5748 105.605 48.3964 104.939 52.5587ZM307.255 56.6276L307.254 73.1381L318.44 73.1378L318.439 51.2293C318.439 46.2981 317.517 38.0064 306.131 38.006C302.055 38.0061 297.446 40.178 295.44 43.672L295.295 43.6719L295.294 38.9941L284.436 38.9947L284.436 73.1377L295.607 73.138L295.608 54.5087C295.608 50.7673 297.452 47.2197 301.621 47.2198C307.782 47.2206 307.254 51.9498 307.255 56.6276ZM355.972 59.7213L345.12 59.721C344.613 63.3289 342.607 65.568 338.738 65.5679C334.008 65.5673 332.097 61.0375 332.097 56.6278C332.097 51.8901 333.086 46.5648 339.333 46.5653C342.153 46.565 344.725 48.5694 344.8 51.4954L355.683 51.4956C354.902 42.4758 347.324 38.0053 338.838 38.0052C327.848 38.006 320.933 45.7767 320.932 56.6279C320.932 67.0847 328.583 74.1211 338.84 74.1209C347.919 74.1199 355.022 68.8623 355.972 59.7213ZM392.339 62.8071L381.862 62.8076C380.813 65.3197 378.181 66.5687 375.495 66.5691C370.75 66.569 368.051 63.4815 367.85 58.8117L392.921 58.8119C393.448 47.2321 387.334 38.0178 375.087 38.0183C365.031 38.0183 356.666 45.522 356.665 55.9789C356.664 67.4246 364.236 74.1323 375.374 74.1339C382.978 74.1187 390.281 70.6987 392.339 62.8071ZM367.85 52.5572C368.519 48.3948 371.132 45.5755 375.086 45.575C378.842 45.5751 381.541 48.7221 381.735 52.5575L367.85 52.5572Z" fill="#64B5F6"/>
<path d="M425.182 110.089L471.085 110.09C476.163 110.075 481.029 108.051 484.62 104.461C488.211 100.87 490.234 96.0046 490.248 90.9254L490.249 45.0352C490.238 39.9555 488.216 35.0859 484.625 31.4922C481.034 27.8986 476.166 25.8731 471.085 25.8589L425.181 25.8598C420.102 25.8751 415.235 27.9005 411.644 31.4938C408.053 35.0872 406.031 39.9561 406.018 45.0361L406.019 90.9389C406.036 96.0154 408.061 100.878 411.651 104.466C415.242 108.053 420.105 110.076 425.182 110.089ZM440.971 41.6946C442.975 37.3789 447.345 35.1595 450.746 36.7305C454.147 38.3 455.276 43.0844 453.279 47.4208C451.281 51.7573 446.904 53.9559 443.503 52.3863C440.102 50.8154 438.98 46.0247 440.971 41.6946ZM424.507 68.2947C431.636 60.685 438.058 58.7262 446.63 57.4435C455.203 56.1607 458.357 56.655 468.532 51.5244C471.326 50.1205 470.537 51.7976 468.753 53.695C461.624 61.306 455.196 63.2632 446.63 64.5462C438.064 65.8293 434.904 65.3347 424.727 70.4666C421.935 71.8692 422.729 70.1925 424.507 68.2947ZM423.17 97.9019C428.075 91.1401 432.044 85.6141 436.781 79.2531C442.748 71.1816 451.595 66.043 458.831 76.1066C465.566 85.4597 473.022 95.717 475.161 98.6571C475.448 99.0581 475.267 99.5054 474.653 99.5517C471.245 99.792 463.421 100.334 460.842 96.799C457.107 91.6808 452.904 85.7747 449.483 81.064C446.537 77.001 442.267 76.5998 439.407 80.536C436.22 84.933 431.135 91.8943 429.097 94.6477C427.861 96.4145 426.285 97.9158 424.46 99.0646C422.89 100.02 422.021 99.465 423.15 97.9022L423.17 97.9019Z" fill="#64B5F6"/>
<path d="M475.315 99.0993C475.278 99.3323 475.064 99.5198 474.68 99.5487C471.272 99.789 463.447 100.33 460.868 96.7945C457.119 91.6769 452.917 85.7708 449.509 81.0608C446.563 76.9978 442.292 76.5968 439.432 80.5331C436.244 84.93 431.16 91.8571 429.122 94.6433C427.887 96.41 426.312 97.9129 424.487 99.0616C422.89 100.017 422.021 99.4619 423.176 97.8991C428.121 91.1571 432.131 85.6102 436.808 79.2488C442.762 71.1768 451.607 66.0404 458.856 76.1032C465.591 85.4509 473.049 95.7128 475.187 98.6528C475.295 98.8032 475.337 98.9595 475.315 99.0993ZM470.363 51.2836C470.364 51.7385 469.698 52.6852 468.754 53.6928C461.624 61.3036 455.17 63.2583 446.63 64.5414C438.091 65.8244 434.904 65.3325 424.727 70.4644C421.935 71.867 422.73 70.1879 424.507 68.29C431.636 60.6804 438.091 58.7244 446.63 57.4414C455.17 56.1583 458.358 56.652 468.534 51.5213C469.843 50.8632 470.362 50.8822 470.363 51.2836ZM454.267 42.963C454.285 44.4072 453.967 45.942 453.278 47.419C451.274 51.7155 446.903 53.9532 443.502 52.3824C440.108 50.7927 438.967 45.9898 440.971 41.6932C442.976 37.3966 447.351 35.1253 450.744 36.7298C452.972 37.782 454.232 40.206 454.267 42.963Z" fill="white"/>
<path d="M405.453 261.876C405.52 263.428 405.931 264.949 406.657 266.325C407.411 267.692 408.54 268.817 409.916 269.569C410.88 270.119 411.925 270.514 413.012 270.738C414.383 271.001 415.781 271.097 417.176 271.026C418.021 270.997 418.866 270.97 419.626 270.894C420.08 270.876 420.532 270.828 420.982 270.756L420.659 273.843C420.247 273.912 419.834 273.956 419.418 273.976C418.727 273.999 417.917 274.068 416.994 274.1C414.788 274.223 412.574 273.968 410.454 273.347C408.764 272.851 407.199 272.012 405.86 270.879C404.746 269.886 403.823 268.702 403.14 267.384C402.353 265.888 401.929 264.233 401.898 262.546C401.825 260.913 402.054 259.283 402.577 257.731C403.093 256.272 403.855 254.912 404.831 253.709C405.721 252.63 406.85 251.77 408.129 251.193C409.447 250.587 410.874 250.253 412.325 250.214C413.571 250.116 414.824 250.277 416.003 250.686C417.182 251.096 418.264 251.745 419.176 252.591C420.14 253.632 420.887 254.851 421.374 256.178C421.957 257.835 422.266 259.574 422.288 261.328L405.453 261.876ZM416.481 254.441C415.912 253.913 415.235 253.507 414.497 253.252C413.762 252.997 412.979 252.897 412.201 252.959C410.591 252.971 409.051 253.618 407.923 254.754C406.733 256.012 405.949 257.593 405.669 259.296L418.632 258.86C418.419 257.203 417.664 255.659 416.484 254.466L416.481 254.441ZM443.823 265.207C443.877 266.783 443.924 268.137 443.964 269.293C444.004 270.448 444.036 271.361 444.061 272.055C444.086 272.75 444.096 273.094 444.099 273.184C443.948 273.19 443.256 273.264 441.943 273.425C440.627 273.587 438.999 273.682 436.963 273.752C435.675 273.786 434.387 273.706 433.113 273.512C431.939 273.352 430.793 273.047 429.697 272.605C428.508 272.131 427.45 271.384 426.616 270.419C425.795 269.425 425.346 268.179 425.344 266.892C425.273 265.513 425.709 264.155 426.575 263.072C427.567 261.878 428.839 260.943 430.277 260.342C431.568 259.815 432.9 259.401 434.263 259.102C436.167 258.677 438.092 258.353 440.033 258.128C439.754 255.775 438.634 254.254 436.676 253.565C434.995 253.007 433.219 252.782 431.45 252.902C430.758 252.927 430.156 252.947 429.666 252.962L427.695 253.172L427.918 250.096C428.171 250.089 428.642 250.004 429.324 249.949C430.01 249.892 430.948 249.853 432.154 249.811C433.8 249.734 435.449 249.871 437.059 250.216C438.404 250.488 439.662 251.078 440.724 251.937C441.155 252.308 441.545 252.721 441.89 253.173C442.261 253.683 442.564 254.234 442.794 254.819C443.077 255.518 443.278 256.248 443.394 256.993C443.547 257.969 443.639 258.955 443.665 259.942C443.709 261.901 443.767 263.634 443.823 265.207ZM440.104 260.934C439.406 260.99 438.205 261.173 436.494 261.482C435.042 261.729 433.617 262.106 432.236 262.614C431.388 262.962 430.618 263.478 429.978 264.132C429.654 264.452 429.402 264.837 429.239 265.26C429.074 265.686 429.006 266.141 429.031 266.593C429.012 267.508 429.346 268.396 429.963 269.074C430.639 269.742 431.477 270.22 432.398 270.461C433.231 270.706 434.087 270.87 434.953 270.945C435.93 271.041 436.911 271.072 437.892 271.038L439.032 271.001L440.457 270.877L440.114 260.932L440.104 260.934ZM462.354 268.823C461.841 269.732 461.107 270.498 460.213 271.047C459.21 271.72 458.097 272.214 456.923 272.506C455.527 272.86 454.094 273.056 452.653 273.096C452.265 273.109 451.866 273.104 451.46 273.083C451.044 273.099 450.654 273.061 450.282 273.056C449.91 273.052 449.607 273.078 449.35 273.013C449.193 272.994 449.034 272.985 448.877 272.986L448.627 269.971C448.819 269.966 449.011 269.974 449.203 269.991L450.28 270.057L451.642 270.079C452.115 270.062 452.589 270.046 453.071 270.031C453.772 269.994 454.468 269.923 455.162 269.816C455.884 269.734 456.584 269.535 457.24 269.228C457.899 269.023 458.47 268.608 458.866 268.046C459.26 267.487 459.458 266.813 459.425 266.13C459.431 265.58 459.244 265.045 458.899 264.613C458.506 264.185 458.04 263.827 457.526 263.554C457.145 263.314 456.748 263.104 456.336 262.923L454.901 262.294C454.42 262.065 453.938 261.855 453.448 261.655C452.959 261.452 452.529 261.241 452.141 261.036C451.178 260.504 450.345 259.764 449.707 258.871C449.105 257.994 448.777 256.964 448.758 255.905C448.706 254.811 448.995 253.728 449.579 252.802C450.188 251.851 451.037 251.075 452.04 250.548C452.964 250.007 453.975 249.635 455.032 249.449C456.093 249.264 457.164 249.15 458.242 249.109C459.194 249.076 459.974 249.067 460.577 249.079L461.635 249.094L461.977 252.15C461.875 252.154 461.412 252.169 460.564 252.106C459.715 252.042 458.795 252.073 457.771 252.107C457.084 252.124 456.403 252.21 455.732 252.359C455.175 252.483 454.635 252.673 454.127 252.933C453.556 253.222 453.074 253.666 452.742 254.212C452.489 254.626 452.357 255.104 452.358 255.59C452.365 256.181 452.596 256.749 453.006 257.178C453.428 257.614 453.918 257.979 454.457 258.259C454.777 258.442 455.154 258.631 455.594 258.841C456.032 259.053 456.523 259.264 457.072 259.497L458.523 260.135C458.945 260.329 459.289 260.495 459.549 260.645C460.543 261.181 461.413 261.917 462.102 262.806C462.713 263.662 463.045 264.683 463.05 265.731C463.118 266.807 462.877 267.878 462.354 268.823ZM484.763 259.65L480.245 270.621C478.683 274.392 477.502 277.277 476.696 279.271C475.919 281.266 475.433 282.389 475.316 282.67L472.03 281.59L476.556 271.565C476.483 271.408 476.189 270.782 475.643 269.676C475.097 268.572 474.356 266.989 473.364 264.91C472.369 262.831 471.274 260.58 470.098 258.149C468.923 255.715 467.604 253.053 466.175 250.168L469.647 248.543C470.568 250.682 471.487 252.787 472.405 254.853C473.322 256.917 474.299 258.979 475.261 261.067L477.453 265.744C477.946 266.818 478.23 267.394 478.303 267.535L478.344 267.534C478.343 267.473 478.594 266.921 479.005 265.885C479.42 264.849 480.002 263.337 480.76 261.309C481.519 259.28 482.309 257.202 483.164 255.019C484.018 252.836 484.886 250.52 485.792 248.1L489.031 249.267C487.632 252.649 486.207 256.11 484.763 259.65Z" fill="#25303B"/>
<path d="M421.057 234.852C417.484 232.945 414.164 230.599 411.176 227.865C412.084 227.802 412.939 227.708 413.765 227.61C416.173 227.364 418.54 226.831 420.819 226.021C424.061 224.793 426.143 223.231 427.269 221.478C428.313 219.803 428.935 217.9 429.087 215.932L428.478 215.935C424.765 215.924 421.066 215.495 417.447 214.662C413.914 213.93 410.557 212.517 407.561 210.508L407.515 210.545C404.513 208.582 402.076 205.868 400.444 202.671C398.812 199.478 398.042 195.91 398.211 192.327C398.144 188.151 399.42 184.065 401.847 180.67C404.327 177.302 407.603 174.602 411.385 172.816C414.285 171.413 417.38 170.451 420.564 169.963C424.441 169.393 428.358 169.129 432.276 169.174H437.321C437.707 169.22 438.063 169.408 438.321 169.699C438.578 169.989 438.72 170.365 438.721 170.754V173.654C438.72 175.052 438.719 176.89 438.718 179.197C438.664 184.34 438.636 189.222 438.637 193.852C438.637 197.006 438.581 200.195 438.637 203.474C438.691 206.755 438.692 209.745 438.692 212.47C438.692 217.586 437.847 221.759 435.967 224.911C434.061 228.018 431.346 230.55 428.113 232.234C425.86 233.355 423.495 234.234 421.057 234.852ZM351.558 215.999C350.867 214.374 348.498 209.011 345.2 201.651C341.042 192.497 336.844 183.202 332.603 173.764L332.041 172.453L341.063 168.392L355.73 203.097L369.089 170.638C369.259 170.357 369.499 170.123 369.788 169.966C370.076 169.806 370.403 169.722 370.733 169.728H383.634H390.905C391.117 169.729 391.326 169.77 391.523 169.853C391.718 169.935 391.893 170.059 392.042 170.209C392.189 170.362 392.305 170.543 392.381 170.743C392.458 170.941 392.491 171.152 392.485 171.363V214.346C392.491 214.55 392.458 214.756 392.384 214.949C392.31 215.142 392.196 215.318 392.056 215.468C391.914 215.617 391.747 215.737 391.558 215.819C391.369 215.903 391.163 215.947 390.958 215.952H383.689C383.481 215.953 383.278 215.911 383.086 215.83C382.893 215.749 382.718 215.634 382.57 215.485C382.424 215.338 382.309 215.164 382.231 214.972C382.152 214.778 382.116 214.569 382.118 214.361V178.115H375.876C372.686 185.385 369.369 192.936 365.88 200.833C362.389 208.729 359.945 214.327 359.183 215.999H351.558ZM465.361 215.938C462.506 215.949 459.671 215.458 456.983 214.494C454.384 213.548 451.992 212.113 449.932 210.267C447.551 208.044 445.691 205.325 444.482 202.3C443.199 199.168 442.545 195.813 442.554 192.431C442.529 189.28 443.091 186.153 444.209 183.206C445.352 180.307 447.113 177.69 449.37 175.538C451.451 173.483 453.921 171.87 456.638 170.786C459.431 169.679 462.413 169.113 465.416 169.122C468.413 169.083 471.391 169.61 474.195 170.667C476.854 171.685 479.265 173.255 481.272 175.274C483.562 177.48 485.357 180.147 486.534 183.099C487.685 186.116 488.258 189.32 488.224 192.547C488.238 195.875 487.59 199.171 486.316 202.245C485.185 205.021 483.501 207.537 481.368 209.641C479.234 211.746 476.693 213.399 473.902 214.494C471.166 215.49 468.274 215.98 465.361 215.938ZM310.205 215.92L309.88 215.865H299.973C297.14 215.917 294.308 215.655 291.531 215.082C289.088 214.646 286.729 213.825 284.544 212.647C282.696 211.508 281.142 209.955 280.001 208.107C279.103 206.537 278.594 204.778 278.52 202.973L278.517 202.889L278.52 198.694C278.519 197.185 278.528 194.948 278.52 191.988C278.51 189.024 278.464 186.862 278.465 185.517C278.391 182.318 277.647 180.144 276.856 179.153C276.066 178.163 274.457 177.484 271.73 177.483C269.631 177.593 267.575 178.097 265.662 178.965C263.21 179.945 260.839 181.121 258.576 182.481C258.576 183.318 258.574 184.772 258.573 186.888C258.574 190.024 258.573 192.932 258.573 195.475C258.573 198.02 258.573 215.636 258.573 215.874H249.024V169.595L258.829 169.598V173.758C261.507 172.248 264.312 170.968 267.207 169.934C269.537 169.06 271.989 168.57 274.475 168.479C276.324 168.406 278.168 168.719 279.888 169.398C281.61 170.077 283.169 171.104 284.469 172.421C287.023 175.083 288.27 178.701 288.27 183.018C288.269 186.717 288.242 189.897 288.197 192.568C288.152 195.241 288.151 197.376 288.151 199.047V201.972C288.112 202.92 288.395 203.851 288.951 204.617C289.672 205.506 290.61 206.19 291.676 206.605C292.834 207.09 294.061 207.397 295.312 207.516C295.666 207.588 295.957 207.586 296.274 207.585C295.533 205.922 295.153 204.119 295.158 202.297C295.112 199.341 296.141 196.468 298.054 194.211C300.132 191.836 302.76 190.005 305.708 188.88C308.245 187.902 310.869 187.172 313.547 186.7C316.695 186.088 319.875 185.643 323.071 185.372C322.894 184.111 322.452 182.902 321.772 181.826C320.881 180.543 319.61 179.57 318.137 179.046C316.875 178.534 315.553 178.187 314.202 178.011C312.44 177.786 310.664 177.682 308.888 177.701C307.616 177.7 306.588 177.737 305.653 177.782C304.718 177.827 303.453 177.918 301.898 177.991L300.2 178.092L301.243 169.479L302.426 169.386L305.032 169.232C306.368 169.123 308.143 169.121 310.434 169.122C313.651 169.08 316.861 169.457 319.983 170.241C322.673 170.913 325.165 172.215 327.252 174.039C329.019 175.717 330.372 177.781 331.203 180.072C332.14 182.571 332.549 185.944 332.551 190.269C332.55 197.501 332.613 203.372 332.548 207.933C332.486 212.494 332.486 213.45 332.487 213.795V214.12V214.303C332.494 214.472 332.468 214.643 332.412 214.804C332.318 215.125 332.125 215.407 331.858 215.607C331.59 215.809 331.266 215.917 330.933 215.92H310.205ZM465.353 207.988C466.934 207.999 468.501 207.729 469.986 207.188C471.364 206.65 472.62 205.845 473.685 204.817C475.21 203.317 476.398 201.508 477.167 199.511C477.985 197.375 478.401 195.107 478.393 192.823C478.394 190.374 477.97 187.943 477.141 185.642C476.367 183.454 475.056 181.495 473.331 179.945C472.309 178.998 471.103 178.276 469.788 177.82C468.388 177.31 466.908 177.055 465.416 177.066C463.815 177.022 462.219 177.288 460.717 177.854C459.313 178.454 458.036 179.327 456.965 180.417C455.473 181.9 454.329 183.694 453.614 185.671C452.785 187.828 452.366 190.12 452.376 192.431C452.347 194.932 452.776 197.416 453.64 199.763C454.477 201.932 455.849 203.85 457.629 205.341C458.667 206.209 459.854 206.876 461.134 207.307C462.493 207.767 463.919 207.997 465.353 207.988ZM428.96 207.591H429.189C429.188 206.773 429.188 205.619 429.189 204.121C429.242 201.222 429.241 197.807 429.241 193.835C429.241 191.755 429.243 189.128 429.241 185.966C429.214 183.259 429.204 180.449 429.151 177.533C426.929 177.53 424.712 177.703 422.518 178.052C420.428 178.416 418.388 179.028 416.438 179.869C413.894 180.892 411.728 182.674 410.234 184.975C408.792 187.27 408.047 189.934 408.089 192.643C408.005 195.28 408.739 197.876 410.196 200.076C411.626 202.166 413.6 203.827 415.902 204.883C417.792 205.756 419.772 206.41 421.807 206.837C424.156 207.352 426.556 207.604 428.96 207.591ZM319.864 207.49C320.401 207.489 321.098 207.488 321.952 207.487C322.333 207.488 322.809 207.487 323.245 207.487C323.244 207.097 323.242 206.66 323.242 206.124C323.243 204.624 323.245 202.571 323.245 200.018L323.254 196.629C323.254 195.639 323.254 194.558 323.254 193.339C322.009 193.431 320.273 193.64 318.128 193.895C315.477 194.171 312.865 194.732 310.332 195.565C308.91 196.015 307.591 196.745 306.453 197.711C305.988 198.083 305.614 198.559 305.363 199.099C305.112 199.642 304.991 200.231 305.006 200.827C304.968 201.446 305.059 202.066 305.276 202.648C305.491 203.232 305.826 203.762 306.259 204.208C307.349 205.203 308.66 205.92 310.086 206.298C311.541 206.74 313.036 207.041 314.547 207.205C316.314 207.396 318.089 207.492 319.864 207.49ZM383.681 163.718C383.472 163.716 383.265 163.675 383.072 163.594C382.881 163.512 382.706 163.392 382.562 163.243C382.415 163.093 382.304 162.916 382.228 162.721C382.151 162.527 382.114 162.319 382.118 162.109V155.267C382.11 154.852 382.263 154.453 382.547 154.151C382.831 153.849 383.223 153.669 383.637 153.649H390.905C391.117 153.65 391.326 153.693 391.52 153.777C391.715 153.859 391.89 153.979 392.036 154.131C392.183 154.283 392.3 154.461 392.375 154.658C392.45 154.855 392.485 155.067 392.477 155.279V162.1C392.482 162.309 392.449 162.514 392.375 162.706C392.301 162.899 392.192 163.076 392.051 163.225C391.908 163.376 391.738 163.497 391.549 163.582C391.361 163.665 391.157 163.713 390.952 163.718H383.681Z" fill="white"/>
</svg>
