<svg width="41" height="40" viewBox="0 0 41 40" fill="none" xmlns="http://www.w3.org/2000/svg">
<g clip-path="url(#clip0_38600_169696)">
<path fill-rule="evenodd" clip-rule="evenodd" d="M9.93242 2.72189C9.83222 2.81466 9.7709 2.94195 9.76078 3.07812L9.80078 11.3581H8.30078V3.07812C8.30078 2.54769 8.51149 2.03898 8.88657 1.66391C9.26164 1.28884 9.77035 1.07812 10.3008 1.07812H30.7408C31.2712 1.07812 31.7799 1.28884 32.155 1.66391C32.5301 2.03898 32.7408 2.54769 32.7408 3.07812V11.3581H20.8808V2.57812H10.3008C10.1642 2.57775 10.0326 2.62912 9.93242 2.72189ZM18.0603 29.0781V29.2581V29.3981C18.0632 29.6458 18.0021 29.8901 17.883 30.1074C17.7639 30.3246 17.5907 30.5074 17.3803 30.6381L16.2203 31.4981C15.0403 32.3381 15.6403 33.3781 16.5803 34.0781L18.7803 35.6781C18.9603 35.8181 19.0203 35.6781 18.9203 35.5381C18.8163 35.3211 18.674 35.1246 18.5003 34.9581L16.8403 33.7581C16.7364 33.6986 16.6501 33.6127 16.59 33.5091C16.53 33.4055 16.4984 33.2879 16.4984 33.1681C16.4984 33.0484 16.53 32.9308 16.59 32.8272C16.6501 32.7236 16.7364 32.6377 16.8403 32.5781L18.7003 31.2381C18.8234 31.0968 18.9155 30.9312 18.9706 30.7521C19.0257 30.5729 19.0426 30.3842 19.0203 30.1981V29.6181V29.0781H18.0603ZM13.5795 30.2987C14.3162 30.9749 14.7729 31.9025 14.8595 32.8987V32.8787C14.8959 33.7804 15.1351 34.6623 15.5595 35.4587C15.7195 35.7787 15.5195 35.6787 15.2995 35.4587C14.5629 34.7825 14.1062 33.8549 14.0195 32.8587C13.9916 31.9621 13.7518 31.0848 13.3195 30.2987C13.1595 29.9987 13.3595 30.0987 13.5795 30.2987ZM12.1522 32.0261C12.3854 31.9706 12.6309 32.0043 12.8404 32.1206C12.9603 32.1461 13.0729 32.1981 13.17 32.2729C13.2671 32.3476 13.3462 32.4432 13.4015 32.5525C13.4569 32.6619 13.487 32.7822 13.4896 32.9047C13.4923 33.0272 13.4675 33.1488 13.417 33.2604C13.3666 33.3721 13.2917 33.471 13.198 33.5499C13.1042 33.6289 12.994 33.6858 12.8754 33.7165C12.7567 33.7472 12.6327 33.7509 12.5125 33.7274C12.3922 33.7039 12.2788 33.6537 12.1804 33.5806C11.9496 33.5027 11.758 33.3382 11.6461 33.1218C11.5342 32.9054 11.5106 32.654 11.5804 32.4206C11.7151 32.2223 11.9191 32.0816 12.1522 32.0261ZM20.8798 37.4631H10.2998C10.1565 37.4631 10.0192 37.4062 9.91793 37.305C9.81666 37.2037 9.75977 37.0663 9.75977 36.9231V28.7031H8.25977V36.9231C8.25977 37.4536 8.47048 37.9623 8.84555 38.3373C9.22062 38.7124 9.72933 38.9231 10.2598 38.9231H30.6998C30.9624 38.9231 31.2225 38.8714 31.4651 38.7709C31.7078 38.6704 31.9283 38.5231 32.114 38.3373C32.2997 38.1516 32.447 37.9311 32.5475 37.6885C32.648 37.4458 32.6998 37.1858 32.6998 36.9231V28.7031H20.8798V37.4631ZM6.5 13.0781H34.5C36.0913 13.0781 37.6174 13.7103 38.7426 14.8355C39.8679 15.9607 40.5 17.4868 40.5 19.0781V20.8781C40.5 22.4694 39.8679 23.9955 38.7426 25.1208C37.6174 26.246 36.0913 26.8781 34.5 26.8781H6.5C4.9087 26.8781 3.38258 26.246 2.25736 25.1208C1.13214 23.9955 0.5 22.4694 0.5 20.8781V19.0781C0.5 17.4868 1.13214 15.9607 2.25736 14.8355C3.38258 13.7103 4.9087 13.0781 6.5 13.0781ZM38.94 20.8781V19.0781H39C38.9948 18.4924 38.8742 17.9135 38.6452 17.3744C38.4163 16.8353 38.0833 16.3465 37.6655 15.9361C37.2476 15.5257 36.753 15.2015 36.2098 14.9823C35.6667 14.763 35.0857 14.6528 34.5 14.6581H6.5C5.9143 14.6528 5.33329 14.763 4.79016 14.9823C4.24703 15.2015 3.7524 15.5257 3.33454 15.9361C2.91667 16.3465 2.58374 16.8353 2.35476 17.3744C2.12578 17.9135 2.00523 18.4924 2 19.0781V20.9181C1.99998 21.5072 2.11665 22.0904 2.34328 22.6342C2.56992 23.1779 2.90202 23.6714 3.32041 24.086C3.73881 24.5007 4.23521 24.8284 4.78095 25.0502C5.32668 25.2719 5.91095 25.3834 6.5 25.3781H34.5C35.0874 25.3755 35.6685 25.2569 36.2099 25.0291C36.7513 24.8013 37.2424 24.4688 37.655 24.0506C38.0675 23.6325 38.3934 23.137 38.6139 22.5926C38.8345 22.0481 38.9453 21.4655 38.94 20.8781Z" fill="#1972D2"/>
</g>
<path fill-rule="evenodd" clip-rule="evenodd" d="M24.351 16.0998C24.4454 16.1798 24.4999 16.2973 24.4999 16.4211V21.4737C24.4999 21.4985 24.4978 21.5228 24.4936 21.5464C24.4979 21.5918 24.5 21.6377 24.5 21.6842C24.5 22.4981 23.8402 23.1579 23.0263 23.1579C22.2124 23.1579 21.5526 22.4981 21.5526 21.6842C21.5526 20.8703 22.2124 20.2105 23.0263 20.2105C23.2523 20.2105 23.4664 20.2614 23.6578 20.3523V16.9181L19.4473 17.6199V22.3158C19.4473 22.3406 19.4451 22.3648 19.441 22.3884C19.4452 22.4338 19.4474 22.4798 19.4474 22.5263C19.4474 23.3402 18.7876 24 17.9737 24C17.1598 24 16.5 23.3402 16.5 22.5263C16.5 21.7124 17.1598 21.0526 17.9737 21.0526C18.1997 21.0526 18.4138 21.1035 18.6051 21.1944V17.2632C18.6051 17.0573 18.7539 16.8817 18.957 16.8478L24.0096 16.0057C24.1317 15.9854 24.2566 16.0198 24.351 16.0998Z" fill="#1972D2"/>
<defs>
<clipPath id="clip0_38600_169696">
<rect width="40" height="40" fill="white" transform="translate(0.5)"/>
</clipPath>
</defs>
</svg>
