<svg width="40" height="38" viewBox="0 0 40 38" fill="none" xmlns="http://www.w3.org/2000/svg">
<path fill-rule="evenodd" clip-rule="evenodd" d="M9.43242 1.64377C9.33222 1.73654 9.2709 1.86383 9.26078 2L9.30078 10.28H7.80078V2C7.80078 1.46957 8.01149 0.960859 8.38657 0.585786C8.76164 0.210714 9.27035 0 9.80078 0H30.2408C30.7712 0 31.2799 0.210714 31.655 0.585786C32.0301 0.960859 32.2408 1.46957 32.2408 2V10.28H20.3808V1.5H9.80078C9.66423 1.49962 9.53261 1.55099 9.43242 1.64377ZM17.5603 28V28.18V28.32C17.5632 28.5677 17.5021 28.812 17.383 29.0292C17.2639 29.2464 17.0907 29.4293 16.8803 29.56L15.7203 30.42C14.5403 31.26 15.1403 32.3 16.0803 33L18.2803 34.6C18.4603 34.74 18.5203 34.6 18.4203 34.46C18.3163 34.243 18.174 34.0465 18.0003 33.88L16.3403 32.68C16.2364 32.6205 16.1501 32.5346 16.09 32.431C16.03 32.3274 15.9984 32.2097 15.9984 32.09C15.9984 31.9703 16.03 31.8526 16.09 31.749C16.1501 31.6454 16.2364 31.5595 16.3403 31.5L18.2003 30.16C18.3234 30.0187 18.4155 29.8531 18.4706 29.6739C18.5257 29.4948 18.5426 29.3061 18.5203 29.12V28.54V28H17.5603ZM13.0795 29.2206C13.8162 29.8968 14.2729 30.8244 14.3595 31.8206V31.8006C14.3959 32.7023 14.6351 33.5842 15.0595 34.3806C15.2195 34.7006 15.0195 34.6006 14.7995 34.3806C14.0629 33.7044 13.6062 32.7768 13.5195 31.7806C13.4916 30.884 13.2518 30.0067 12.8195 29.2206C12.6595 28.9206 12.8595 29.0206 13.0795 29.2206ZM11.6522 30.948C11.8854 30.8925 12.1309 30.9262 12.3404 31.0425C12.4603 31.068 12.5729 31.12 12.67 31.1948C12.7671 31.2695 12.8462 31.3651 12.9015 31.4744C12.9569 31.5837 12.987 31.7041 12.9896 31.8266C12.9923 31.9491 12.9675 32.0707 12.917 32.1823C12.8666 32.294 12.7917 32.3929 12.698 32.4718C12.6042 32.5507 12.494 32.6077 12.3754 32.6384C12.2567 32.6691 12.1327 32.6728 12.0125 32.6493C11.8922 32.6258 11.7788 32.5756 11.6804 32.5025C11.4496 32.4246 11.258 32.2601 11.1461 32.0437C11.0342 31.8273 11.0106 31.5759 11.0804 31.3425C11.2151 31.1442 11.4191 31.0035 11.6522 30.948ZM20.3798 36.385H9.79976C9.65655 36.385 9.5192 36.3281 9.41793 36.2268C9.31666 36.1256 9.25977 35.9882 9.25977 35.845V27.625H7.75977V35.845C7.75977 36.3754 7.97048 36.8841 8.34555 37.2592C8.72062 37.6343 9.22933 37.845 9.75977 37.845H30.1998C30.4624 37.845 30.7225 37.7933 30.9651 37.6928C31.2078 37.5923 31.4283 37.4449 31.614 37.2592C31.7997 37.0735 31.947 36.853 32.0475 36.6104C32.148 36.3677 32.1998 36.1076 32.1998 35.845V27.625H20.3798V36.385ZM6 12H34C35.5913 12 37.1174 12.6321 38.2426 13.7574C39.3679 14.8826 40 16.4087 40 18V19.8C40 21.3913 39.3679 22.9174 38.2426 24.0426C37.1174 25.1679 35.5913 25.8 34 25.8H6C4.4087 25.8 2.88258 25.1679 1.75736 24.0426C0.632141 22.9174 0 21.3913 0 19.8V18C0 16.4087 0.632141 14.8826 1.75736 13.7574C2.88258 12.6321 4.4087 12 6 12ZM38.44 19.8V18H38.5C38.4948 17.4143 38.3742 16.8354 38.1452 16.2962C37.9163 15.7571 37.5833 15.2684 37.1655 14.858C36.7476 14.4475 36.253 14.1234 35.7098 13.9041C35.1667 13.6849 34.5857 13.5747 34 13.58H6C5.4143 13.5747 4.83329 13.6849 4.29016 13.9041C3.74703 14.1234 3.2524 14.4475 2.83454 14.858C2.41667 15.2684 2.08374 15.7571 1.85476 16.2962C1.62578 16.8354 1.50523 17.4143 1.5 18V19.84C1.49998 20.4291 1.61665 21.0123 1.84328 21.5561C2.06992 22.0998 2.40202 22.5932 2.82041 23.0079C3.23881 23.4226 3.73521 23.7503 4.28095 23.9721C4.82668 24.1938 5.41095 24.3053 6 24.3H34C34.5874 24.2974 35.1685 24.1788 35.7099 23.951C36.2513 23.7232 36.7424 23.3906 37.155 22.9725C37.5675 22.5544 37.8934 22.0589 38.1139 21.5144C38.3345 20.97 38.4453 20.3874 38.44 19.8Z" fill="#1972D2"/>
<path d="M10.4201 20.6169C10.4981 20.6709 10.6361 20.7369 10.8341 20.8149C11.0321 20.8869 11.2661 20.9229 11.5361 20.9229C11.7701 20.9229 11.9621 20.8839 12.1121 20.8059C12.2621 20.7219 12.3761 20.5989 12.4541 20.4369C12.5381 20.2749 12.5921 20.0649 12.6161 19.8069C12.6461 19.5489 12.6611 19.2399 12.6611 18.8799V15.5319H13.9031V18.7809C13.9031 19.2609 13.8761 19.6989 13.8221 20.0949C13.7681 20.4909 13.6631 20.8329 13.5071 21.1209C13.3511 21.4089 13.1141 21.6309 12.7961 21.7869C12.4841 21.9429 12.0671 22.0209 11.5451 22.0209C11.2571 22.0209 10.9991 21.9879 10.7711 21.9219C10.5431 21.8559 10.3331 21.7569 10.1411 21.6249L10.4201 20.6169ZM17.1469 22.0119C16.7629 22.0119 16.4179 21.9489 16.1119 21.8229C15.8059 21.6909 15.5449 21.5109 15.3289 21.2829C15.1189 21.0549 14.9569 20.7939 14.8429 20.4999C14.7289 20.2059 14.6719 19.8969 14.6719 19.5729C14.6719 19.2429 14.7289 18.9309 14.8429 18.6369C14.9569 18.3429 15.1189 18.0819 15.3289 17.8539C15.5449 17.6259 15.8059 17.4489 16.1119 17.3229C16.4179 17.1909 16.7629 17.1249 17.1469 17.1249C17.5309 17.1249 17.8729 17.1909 18.1729 17.3229C18.4789 17.4489 18.7399 17.6259 18.9559 17.8539C19.1719 18.0819 19.3339 18.3429 19.4419 18.6369C19.5559 18.9309 19.6129 19.2429 19.6129 19.5729C19.6129 19.8969 19.5559 20.2059 19.4419 20.4999C19.3339 20.7939 19.1719 21.0549 18.9559 21.2829C18.7459 21.5109 18.4879 21.6909 18.1819 21.8229C17.8759 21.9489 17.5309 22.0119 17.1469 22.0119ZM15.9139 19.5729C15.9139 19.8489 15.9679 20.0949 16.0759 20.3109C16.1839 20.5209 16.3309 20.6859 16.5169 20.8059C16.7029 20.9259 16.9129 20.9859 17.1469 20.9859C17.3749 20.9859 17.5819 20.9259 17.7679 20.8059C17.9539 20.6799 18.1009 20.5119 18.2089 20.3019C18.3229 20.0859 18.3799 19.8399 18.3799 19.5639C18.3799 19.2939 18.3229 19.0509 18.2089 18.8349C18.1009 18.6189 17.9539 18.4509 17.7679 18.3309C17.5819 18.2109 17.3749 18.1509 17.1469 18.1509C16.9129 18.1509 16.7029 18.2139 16.5169 18.3399C16.3309 18.4599 16.1839 18.6279 16.0759 18.8439C15.9679 19.0539 15.9139 19.2969 15.9139 19.5729ZM20.3819 20.1579V17.2059H21.5879V19.8969C21.5879 20.2569 21.6539 20.5299 21.7859 20.7159C21.9179 20.8959 22.1129 20.9859 22.3709 20.9859C22.5269 20.9859 22.6799 20.9559 22.8299 20.8959C22.9859 20.8299 23.1269 20.7339 23.2529 20.6079C23.3849 20.4819 23.4959 20.3229 23.5859 20.1309V17.2059H24.7919V20.5719C24.7919 20.6979 24.8129 20.7879 24.8549 20.8419C24.9029 20.8959 24.9779 20.9289 25.0799 20.9409V21.9219C24.9599 21.9399 24.8579 21.9519 24.7739 21.9579C24.6959 21.9699 24.6239 21.9759 24.5579 21.9759C24.3419 21.9759 24.1649 21.9279 24.0269 21.8319C23.8949 21.7299 23.8169 21.5919 23.7929 21.4179L23.7659 21.0399C23.5559 21.3579 23.2859 21.6009 22.9559 21.7689C22.6259 21.9309 22.2629 22.0119 21.8669 22.0119C21.3809 22.0119 21.0119 21.8559 20.7599 21.5439C20.5079 21.2259 20.3819 20.7639 20.3819 20.1579ZM28.7984 18.2499C28.4324 18.2499 28.1054 18.3219 27.8174 18.4659C27.5294 18.6039 27.3224 18.8049 27.1964 19.0689V21.9219H25.9904V17.2059H27.0974V18.2139C27.2654 17.8899 27.4784 17.6349 27.7364 17.4489C27.9944 17.2629 28.2674 17.1609 28.5554 17.1429C28.6214 17.1429 28.6724 17.1429 28.7084 17.1429C28.7444 17.1429 28.7744 17.1459 28.7984 17.1519V18.2499Z" fill="#1972D2"/>
</svg>
