<?xml version="1.0" encoding="UTF-8"?>
<!-- Generated by Pixelmator Pro 3.4.3 -->
<svg width="361" height="228" viewBox="0 0 361 228" xmlns="http://www.w3.org/2000/svg">
    <g id="Associer">
        <g id="g1">
            <path id="Trac" fill="#64b5f6" stroke="none" d="M 14.128308 227.788292 C 10.581288 227.781931 7.180276 226.370757 4.671277 223.864464 C 2.160916 221.358548 0.746853 217.96003 0.73573 214.413292 L 0.73573 92.348839 L 360.73573 92.348839 L 360.73573 214.413292 C 360.726422 217.957456 359.313637 221.35465 356.807996 223.860558 C 354.301867 226.367324 350.907537 227.778397 347.362683 227.788292 L 14.128308 227.788292 Z"/>
            <path id="path1" fill="#323e48" stroke="none" d="M 0.753906 92.349609 L 0.753906 14.060547 C 0.764538 10.517164 2.177795 7.121028 4.683594 4.615234 C 7.189396 2.109456 10.585363 0.698151 14.128906 0.6875 L 347.363281 0.6875 C 350.906649 0.698135 354.302754 2.109517 356.808594 4.615234 C 359.314342 7.121013 360.725678 10.517011 360.736328 14.060547 L 360.736328 92.349609 L 0.753906 92.349609 Z M 247.394531 75.337891 C 248.620942 75.333921 249.81806 74.947034 250.816406 74.226563 C 251.837776 73.407523 252.511552 72.231359 252.703125 70.935547 L 250.546875 70.935547 C 250.421556 71.694574 250.011927 72.375858 249.402344 72.84375 C 248.747686 73.285626 247.969415 73.506775 247.179688 73.474609 C 246.549413 73.488296 245.924007 73.369947 245.34375 73.125 C 244.852665 72.909609 244.415174 72.588147 244.064453 72.183594 C 243.729205 71.790271 243.482192 71.328701 243.335938 70.832031 C 243.184739 70.305958 243.115616 69.760677 243.132813 69.212891 L 252.855469 69.212891 C 252.886749 68.37876 252.81729 67.543359 252.644531 66.726563 C 252.475938 65.870582 252.150402 65.05401 251.689453 64.314453 C 251.224506 63.573752 250.59704 62.950329 249.853516 62.492188 C 248.982078 61.985584 247.983772 61.736832 246.976563 61.775391 C 246.132682 61.765061 245.297891 61.936664 244.527344 62.279297 C 243.790854 62.606931 243.131282 63.085179 242.591797 63.683594 C 242.035939 64.30836 241.605207 65.034155 241.322266 65.822266 C 241.01401 66.688134 240.862885 67.603065 240.873047 68.523438 C 240.898804 69.452828 241.048632 70.375587 241.322266 71.265625 C 241.556013 72.058755 241.953663 72.793813 242.488281 73.425781 C 243.014598 74.032176 243.673514 74.513354 244.412109 74.830078 L 244.433594 74.830078 C 245.293435 75.186795 246.217811 75.357864 247.148438 75.333984 C 247.230403 75.337141 247.312771 75.338155 247.394531 75.337891 Z M 194.751953 75.333984 C 195.674357 75.334076 196.59716 75.162351 197.470703 74.820313 C 198.226053 74.492007 198.899571 74.00265 199.443359 73.384766 C 199.989787 72.760335 200.39934 72.029764 200.648438 71.238281 C 200.924162 70.376731 201.058197 69.476036 201.048828 68.572266 C 201.056229 67.665489 200.921797 66.762933 200.648438 65.898438 C 200.399202 65.102149 199.989787 64.367808 199.443359 63.738281 C 198.897648 63.119512 198.224466 62.627347 197.470703 62.294922 C 195.72618 61.592565 193.777772 61.591268 192.033203 62.292969 C 191.27413 62.623746 190.596843 63.11707 190.048828 63.738281 C 189.501637 64.368052 189.091185 65.102484 188.841797 65.898438 C 188.569048 66.762856 188.432098 67.665046 188.439453 68.572266 C 188.430466 69.475823 188.566424 70.377235 188.841797 71.238281 C 189.090437 72.029596 189.501637 72.760549 190.048828 73.384766 C 190.59579 74.005381 191.273199 74.494693 192.033203 74.820313 C 192.90712 75.162641 193.82955 75.333893 194.751953 75.333984 Z M 209.753906 75.333984 C 210.650109 75.353729 211.537818 75.172879 212.355469 74.806641 C 213.077112 74.472735 213.713261 73.980113 214.214844 73.363281 C 214.719036 72.726003 215.094957 71.995767 215.318359 71.214844 C 215.565123 70.36544 215.688324 69.483376 215.683594 68.599609 C 215.688751 67.714637 215.560774 66.836663 215.304688 65.990234 C 215.073412 65.200842 214.695858 64.461329 214.189453 63.814453 C 213.690678 63.182378 213.054483 62.671582 212.330078 62.320313 C 211.509559 61.935504 210.610878 61.746674 209.705078 61.767578 C 208.850028 61.756577 208.003427 61.923327 207.216797 62.257813 C 206.489981 62.558698 205.897779 63.118643 205.558594 63.828125 L 205.509766 63.828125 L 205.509766 57.121094 L 203.371094 57.121094 L 203.371094 75.060547 L 205.509766 75.058594 L 205.509766 73.322266 L 205.558594 73.322266 C 205.781553 73.698087 206.074984 74.025301 206.423828 74.289063 C 206.757962 74.544325 207.126315 74.75197 207.517578 74.90625 C 207.895215 75.056166 208.287036 75.167924 208.6875 75.236328 L 208.710938 75.234375 C 209.05499 75.294448 209.403903 75.328217 209.753906 75.333984 Z M 259.521484 75.333984 C 260.175044 75.327957 260.826055 75.258605 261.466797 75.130859 C 262.102473 75.019822 262.713292 74.794904 263.267578 74.464844 C 263.788906 74.153842 264.227877 73.722286 264.550781 73.208984 C 264.895505 72.61588 265.066101 71.938471 265.041016 71.251953 C 265.060547 70.710133 264.935362 70.171169 264.677734 69.693359 C 264.437716 69.281116 264.112027 68.92404 263.722656 68.648438 C 263.307559 68.361437 262.852962 68.137114 262.373047 67.982422 C 261.856297 67.813417 261.331905 67.672759 260.800781 67.556641 C 260.301579 67.439317 259.796352 67.326934 259.292969 67.21875 C 258.832004 67.121186 258.381161 66.986052 257.943359 66.816406 C 257.578433 66.678468 257.242582 66.475508 256.953125 66.214844 C 256.827363 66.100663 256.727935 65.961226 256.660156 65.806641 C 256.592866 65.65117 256.558411 65.482176 256.560547 65.3125 C 256.548096 65.020098 256.637208 64.733641 256.8125 64.5 C 256.987761 64.282472 257.210695 64.108367 257.464844 63.994141 C 257.750974 63.86258 258.053988 63.77362 258.365234 63.730469 C 258.686216 63.682541 259.010501 63.65654 259.333984 63.65625 C 259.685269 63.655838 260.033847 63.693833 260.376953 63.769531 C 260.708829 63.838745 261.027132 63.963167 261.318359 64.134766 C 261.601041 64.299132 261.84012 64.527468 262.019531 64.800781 C 262.216215 65.114103 262.330567 65.470889 262.349609 65.839844 L 264.482422 65.839844 C 264.459046 65.154318 264.288816 64.482493 263.982422 63.869141 C 263.713167 63.3615 263.320461 62.928861 262.839844 62.613281 C 262.337559 62.293261 261.778956 62.072707 261.193359 61.960938 C 260.522924 61.830201 259.841303 61.766357 259.158203 61.771484 C 258.578832 61.77301 258.000484 61.843293 257.4375 61.982422 C 256.886571 62.114684 256.3605 62.337893 255.880859 62.640625 C 255.420521 62.927946 255.031812 63.318424 254.746094 63.779297 C 254.439181 64.286831 254.28363 64.869817 254.296875 65.462891 C 254.252015 66.172541 254.474338 66.872944 254.921875 67.425781 C 255.355984 67.903881 255.892934 68.277468 256.492188 68.519531 C 257.154475 68.786421 257.840338 68.98871 258.541016 69.123047 C 259.279047 69.262786 259.959295 69.423768 260.589844 69.599609 C 261.146968 69.744597 261.676212 69.97536 262.160156 70.287109 C 262.363829 70.424331 262.529115 70.613695 262.638672 70.833984 C 262.748199 71.054258 262.800964 71.298906 262.787109 71.544922 C 262.802002 71.90109 262.695128 72.252001 262.484375 72.539063 C 262.2829 72.798017 262.020353 73.000505 261.71875 73.128906 C 261.394168 73.267119 261.051877 73.358872 260.701172 73.402344 C 260.351901 73.451263 260.000699 73.476364 259.648438 73.478516 C 259.222232 73.480713 258.796292 73.438598 258.378906 73.353516 C 257.989658 73.277726 257.615293 73.137953 257.271484 72.939453 C 256.948855 72.746263 256.676207 72.479825 256.478516 72.160156 C 256.268678 71.797687 256.156891 71.386303 256.154297 70.966797 L 254.017578 70.966797 C 254.029037 71.678934 254.202563 72.38001 254.521484 73.015625 C 254.807951 73.557445 255.222386 74.0199 255.728516 74.365234 C 256.255733 74.718122 256.842504 74.970552 257.460938 75.109375 C 258.137781 75.261107 258.828253 75.336716 259.521484 75.333984 Z M 167.96875 75.082031 L 170.101563 75.082031 L 170.101563 66.980469 C 170.115021 66.659152 170.180161 66.341093 170.291016 66.039063 C 170.427733 65.642261 170.632113 65.271833 170.894531 64.945313 C 171.191755 64.576511 171.558704 64.271299 171.974609 64.044922 C 172.463848 63.783541 173.014241 63.65564 173.568359 63.671875 C 173.978222 63.657944 174.385013 63.730043 174.765625 63.882813 C 175.060468 64.016097 175.314943 64.223665 175.503906 64.486328 C 175.692854 64.757078 175.824784 65.061587 175.894531 65.384766 C 175.973464 65.76405 176.011764 66.15221 176.007813 66.539063 L 176.007813 75.076172 L 178.140625 75.076172 L 178.142578 66.974609 C 178.120239 66.533329 178.188966 66.091824 178.34375 65.677734 C 178.498534 65.26366 178.735583 64.885419 179.041016 64.566406 C 179.374204 64.255313 179.765613 64.016204 180.193359 63.861328 C 180.621106 63.706453 181.077137 63.640549 181.53125 63.666016 C 181.965939 63.649094 182.399036 63.726442 182.800781 63.892578 C 183.106428 64.025176 183.371126 64.238024 183.566406 64.507813 C 183.756346 64.776823 183.88353 65.083834 183.943359 65.408203 C 184.010177 65.780469 184.043793 66.159625 184.042969 66.539063 L 184.042969 75.058594 L 186.177734 75.058594 L 186.175781 65.533203 C 186.192291 64.944615 186.084898 64.359218 185.861328 63.814453 C 185.670122 63.357639 185.369351 62.955701 184.984375 62.644531 C 184.584628 62.332903 184.122906 62.105605 183.632813 61.978516 C 183.05248 61.831681 182.457362 61.76181 181.859375 61.767578 C 181.040397 61.760086 180.232248 61.958362 179.509766 62.34375 C 178.803045 62.727856 178.210843 63.289419 177.791016 63.976563 C 177.687837 63.613299 177.510267 63.276182 177.273438 62.982422 C 177.036089 62.689501 176.741193 62.448729 176.408203 62.271484 C 175.31669 61.744069 174.073889 61.626284 172.902344 61.939453 C 171.732172 62.252286 170.711725 62.974541 170.029297 63.976563 L 169.974609 63.976563 L 169.976563 62.068359 L 167.96875 62.068359 L 167.96875 75.082031 Z M 228.736328 75.058594 L 230.871094 75.058594 L 230.871094 62.068359 L 228.738281 62.068359 L 228.736328 75.058594 Z M 218.082031 75.054688 L 220.220703 75.054688 L 220.220703 62.068359 L 218.082031 62.068359 L 218.082031 75.054688 Z M 223.408203 75.054688 L 225.544922 75.054688 L 225.544922 57.117188 L 223.408203 57.117188 L 223.408203 75.054688 Z M 237.847656 75.054688 L 239.5 75.054688 L 239.5 73.167969 L 238.519531 73.169922 C 238.246157 73.171432 237.971342 73.159454 237.699219 73.132813 C 237.525361 73.11789 237.359053 73.061584 237.212891 72.966797 C 237.093797 72.883027 237.009094 72.757537 236.974609 72.615234 C 236.925507 72.418306 236.904373 72.215102 236.912109 72.011719 L 236.894531 63.955078 L 239.482422 63.955078 L 239.482422 62.068359 L 236.894531 62.068359 L 236.894531 58.175781 L 234.755859 58.173828 L 234.755859 62.068359 L 232.544922 62.068359 L 232.544922 63.955078 L 234.755859 63.955078 L 234.755859 72.214844 C 234.741989 72.706814 234.801515 73.197239 234.931641 73.671875 C 235.024673 74.002729 235.213289 74.298632 235.472656 74.523438 C 235.749021 74.740736 236.077731 74.884354 236.425781 74.9375 C 236.894756 75.021209 237.371098 75.06012 237.847656 75.054688 Z M 287.048828 75.009766 L 317.972656 75.009766 C 321.395694 75.002869 324.676625 73.640011 327.097656 71.220703 C 329.518627 68.801411 330.883026 65.522128 330.892578 62.099609 L 330.892578 31.175781 C 330.882202 27.753766 329.51646 24.473736 327.095703 22.054688 C 324.674946 19.635609 321.394931 18.273987 317.972656 18.265625 L 287.048828 18.265625 C 283.627835 18.275085 280.348339 19.637394 277.929688 22.056641 C 275.510151 24.475414 274.148407 27.754971 274.138672 31.175781 L 274.138672 62.099609 C 274.148376 65.52077 275.511341 68.799473 277.929688 71.21875 C 280.349376 73.637661 283.62698 75.000595 287.048828 75.009766 Z M 209.548828 73.494141 C 208.896302 73.512329 208.247756 73.367767 207.662109 73.078125 C 207.160416 72.815048 206.727783 72.441192 206.394531 71.984375 C 206.059647 71.510422 205.81636 70.977935 205.677734 70.414063 C 205.527603 69.81009 205.452087 69.190139 205.453125 68.568359 C 205.451492 67.961198 205.523331 67.356109 205.667969 66.767578 C 205.796738 66.204545 206.03096 65.672729 206.357422 65.197266 C 206.679001 64.736283 207.098008 64.353332 207.585938 64.076172 C 208.151763 63.778153 208.783311 63.632385 209.421875 63.652344 C 210.046111 63.635162 210.664628 63.773285 211.222656 64.052734 C 211.719757 64.309707 212.150483 64.680954 212.478516 65.134766 C 212.811599 65.601898 213.058426 66.123124 213.207031 66.677734 C 213.365463 67.25534 213.446442 67.85257 213.447266 68.451172 C 213.4487 69.07669 213.379837 69.69954 213.244141 70.310547 C 213.123062 70.880325 212.903213 71.424576 212.591797 71.917969 C 212.292237 72.392807 211.880737 72.786286 211.394531 73.064453 C 210.827088 73.367309 210.190841 73.516098 209.548828 73.494141 Z M 194.746094 73.478516 C 194.204439 73.478699 193.66815 73.364898 193.171875 73.146484 C 192.67682 72.929932 192.234282 72.608809 191.875 72.205078 C 191.485032 71.760545 191.191528 71.240324 191.011719 70.675781 C 190.591981 69.308766 190.590974 67.84721 191.011719 66.480469 C 191.19458 65.911714 191.487092 65.385497 191.875 64.931641 C 192.232421 64.522554 192.676118 64.197234 193.171875 63.976563 C 193.669096 63.761338 194.204439 63.650589 194.746094 63.650391 C 195.288618 63.650711 195.825853 63.760392 196.322266 63.976563 C 196.818922 64.196334 197.261491 64.523088 197.619141 64.931641 C 198.007216 65.385481 198.300141 65.912187 198.482422 66.480469 C 198.902632 67.846599 198.90425 69.308522 198.484375 70.675781 C 198.304505 71.239317 198.009246 71.759416 197.619141 72.205078 C 197.260743 72.607848 196.816374 72.930634 196.322266 73.146484 C 195.825273 73.36531 195.289122 73.477951 194.746094 73.478516 Z M 250.626953 67.322266 L 243.164063 67.320313 C 243.195617 66.831622 243.306352 66.352323 243.492188 65.898438 C 243.670348 65.467837 243.924471 65.074049 244.244141 64.734375 C 244.567762 64.39583 244.955874 64.12567 245.386719 63.941406 C 245.859189 63.743074 246.369846 63.644852 246.882813 63.652344 C 247.387692 63.64592 247.88779 63.744111 248.353516 63.941406 C 248.784208 64.125411 249.176119 64.390657 249.509766 64.720703 C 249.841825 65.055601 250.105928 65.449954 250.289063 65.884766 C 250.478911 66.341947 250.592591 66.827838 250.626953 67.322266 Z M 245.226563 59.759766 L 246.833984 59.759766 L 250.375 55.708984 L 247.638672 55.707031 L 245.226563 59.759766 Z M 218.082031 59.728516 L 220.220703 59.726563 L 220.220703 57.117188 L 218.082031 57.117188 L 218.082031 59.728516 Z M 228.738281 59.728516 L 230.871094 59.726563 L 230.871094 57.117188 L 228.736328 57.117188 L 228.738281 59.728516 Z M 76.490234 50.644531 C 81.626271 50.644577 86.555858 48.317722 87.929688 42.992188 L 80.878906 42.992188 C 80.18099 44.685015 78.380204 45.525467 76.580078 45.525391 C 73.383952 45.525299 71.571219 43.449804 71.435547 40.298828 L 88.330078 40.300781 C 88.676023 32.49965 84.557628 26.290543 76.310547 26.291016 C 69.531663 26.290482 63.900749 31.346065 63.900391 38.390625 C 63.900192 46.096908 68.995391 50.622086 76.490234 50.644531 Z M 253.603516 50.640625 C 258.748967 50.64035 263.66444 48.311542 265.050781 42.986328 L 257.992188 42.986328 C 257.303594 44.678987 255.502686 45.52121 253.701172 45.521484 C 250.505915 45.521881 248.687056 43.446249 248.552734 40.294922 L 265.441406 40.294922 C 265.797452 32.494325 261.679042 26.287308 253.427734 26.287109 C 246.653161 26.287094 241.016907 31.341914 241.017578 38.386719 L 240.998047 38.390625 C 240.998428 46.101882 246.117827 50.622315 253.603516 50.640625 Z M 174.882813 50.621094 C 177.637627 50.621582 180.517426 49.829406 182.466797 47.791016 C 182.527755 48.529413 182.678621 49.256155 182.916016 49.958984 L 190.507813 49.958984 C 189.607612 48.140228 189.606934 46.011337 189.607422 44.0625 L 189.607422 34.005859 C 189.606781 27.493033 184.329867 26.291595 178.878906 26.291016 C 176.250357 26.29184 173.621978 26.66601 171.574219 27.880859 C 169.525941 29.096594 168.106978 31.040231 167.972656 34.046875 L 175.017578 34.046875 C 175.372663 32.101853 176.696016 31.17041 178.785156 31.169922 C 180.337924 31.17038 182.418228 31.832121 182.417969 33.560547 C 182.417984 34.978504 181.711263 35.419649 180.423828 35.685547 C 175.192867 36.751914 167.036819 36.174834 167.037109 43.65625 C 167.036835 48.400719 170.493596 50.621506 174.882813 50.621094 Z M 228.984375 50.621094 C 235.102032 50.620926 239.887075 47.07803 240.548828 40.919922 L 233.261719 40.919922 C 232.919604 43.350475 231.569849 44.85994 228.962891 44.859375 C 225.775676 44.859818 224.487823 41.808662 224.488281 38.837891 C 224.488647 35.659251 225.154163 32.057129 229.363281 32.056641 C 231.245407 32.056717 232.995682 33.430207 233.044922 35.378906 L 240.355469 35.378906 C 239.810948 29.302157 234.724655 26.291077 229.007813 26.291016 C 221.602705 26.291153 216.943542 31.525709 216.943359 38.835938 C 216.943863 45.881017 222.092127 50.620926 228.984375 50.621094 Z M 117.148438 50.369141 C 121.198935 50.369431 124.062392 48.203871 124.863281 44.220703 L 121.9375 44.220703 C 121.411374 46.551938 119.700222 47.746307 117.255859 47.746094 C 113.312921 47.745529 111.528863 44.962514 111.632813 41.8125 L 125.136719 41.8125 C 125.311995 37.43697 123.349818 31.458405 116.962891 31.458984 C 112.033868 31.458374 108.459717 35.460111 108.458984 40.861328 L 108.458984 40.875 C 108.657027 46.39792 111.359078 50.378723 117.148438 50.369141 Z M 97.814453 50.359375 C 100.294658 50.359497 102.603592 49.486526 103.576172 47.501953 L 103.648438 47.501953 L 103.648438 49.945313 L 106.619141 49.945313 L 106.619141 24.994141 L 103.648438 24.994141 L 103.669922 34.28125 L 103.599609 34.28125 C 102.24866 32.157213 99.592354 31.453278 97.746094 31.453125 C 92.218466 31.453323 89.494873 35.762202 89.494141 40.857422 C 89.494278 45.953161 92.250121 50.359161 97.814453 50.359375 Z M 61.910156 49.978516 L 61.912109 18.328125 L 54.371094 18.328125 L 54.371094 23.279297 L 50.320313 17.878906 L 43.568359 17.876953 L 38.615234 24.472656 L 44.287109 24.472656 L 46.939453 20.943359 L 49.617188 24.472656 L 54.392578 24.472656 L 54.392578 49.951172 L 61.910156 49.978516 Z M 151.871094 49.976563 L 159.410156 49.976563 L 159.410156 38.59375 L 159.410156 38.576172 C 159.410248 35.686028 161.369811 33.097595 165.087891 33.097656 C 166.066459 33.110687 167.036842 33.261767 167.972656 33.546875 L 167.972656 26.71875 C 167.391484 26.59337 166.798244 26.532349 166.203125 26.535156 C 162.958614 26.534851 160.392966 28.086281 159.28125 31.007813 L 159.195313 31.009766 L 159.195313 26.957031 L 151.871094 26.957031 L 151.871094 49.976563 Z M 50.703125 49.964844 L 50.701172 26.957031 L 43.189453 26.957031 L 43.189453 49.951172 L 50.703125 49.964844 Z M 135.300781 49.960938 L 135.300781 37.769531 L 148.355469 37.769531 L 148.355469 31.390625 L 135.302734 31.390625 L 135.300781 24.917969 L 150.376953 24.917969 L 150.376953 18.314453 L 127.064453 18.314453 L 127.064453 49.958984 L 135.300781 49.960938 Z M 192.34375 49.958984 L 199.882813 49.958984 L 199.882813 37.410156 C 199.882584 34.89858 201.12577 32.498276 203.943359 32.498047 C 208.071363 32.498062 207.714493 35.686533 207.714844 38.837891 L 207.714844 49.958984 L 215.25 49.958984 L 215.251953 35.199219 C 215.251984 31.877193 214.611069 26.291107 206.958984 26.291016 C 204.226981 26.291031 201.108739 27.753544 199.757813 30.107422 L 199.658203 30.109375 L 199.658203 26.957031 L 192.34375 26.957031 L 192.34375 49.958984 Z M 98.230469 47.753906 C 94.390969 47.754181 92.638489 44.472187 92.638672 41.087891 C 92.638405 37.55438 93.981196 34.101883 98.058594 34.101563 C 102.136877 34.10173 103.747963 37.373442 103.748047 40.947266 C 103.747955 44.33739 102.209761 47.75351 98.230469 47.753906 Z M 177.722656 45.966797 C 176.025109 45.967056 174.57225 45.165595 174.572266 43.351563 C 174.572281 41.537561 176.025811 40.862241 177.673828 40.425781 C 179.32096 39.988817 181.269735 39.845486 182.332031 39.1875 C 182.508254 43.932258 181.305906 45.96637 177.722656 45.966797 Z M 111.59375 39.197266 C 111.809837 36.432974 113.650061 34.101715 116.759766 34.101563 C 119.721605 34.101471 121.846413 36.36463 121.945313 39.195313 L 111.59375 39.197266 Z M 71.435547 36.095703 C 71.881665 33.29102 73.654712 31.390717 76.310547 31.390625 C 78.835531 31.39122 80.653825 33.51195 80.789063 36.095703 L 71.435547 36.095703 Z M 248.554688 36.095703 C 249.004255 33.291042 250.763621 31.391006 253.427734 31.390625 C 255.957616 31.390686 257.775696 33.511851 257.90625 36.095703 L 248.554688 36.095703 Z"/>
            <path id="mobilits" fill="#ffffff" stroke="none" d="M 247.400391 75.339844 C 247.318602 75.340158 247.236294 75.339038 247.154297 75.335938 C 246.228272 75.357849 245.308135 75.18515 244.453125 74.830078 C 243.714524 74.513352 243.057067 74.033035 242.53125 73.425781 C 241.996094 72.794648 241.598984 72.058776 241.365234 71.265625 C 241.091599 70.375565 240.941269 69.453689 240.916016 68.523438 C 240.905365 67.603913 241.056992 66.690108 241.365234 65.824219 C 241.64769 65.036973 242.0784 64.311172 242.634766 63.685547 C 243.174255 63.087113 243.833833 62.606933 244.570313 62.279297 C 245.340865 61.936661 246.175645 61.765076 247.019531 61.775391 C 248.026748 61.736832 249.024522 61.986466 249.896484 62.492188 C 250.640029 62.950347 251.267472 63.573746 251.732422 64.314453 C 252.193405 65.054031 252.516449 65.873399 252.685547 66.728516 C 252.858276 67.545303 252.929672 68.37877 252.898438 69.212891 L 243.175781 69.212891 C 243.158585 69.760681 243.227112 70.307526 243.376953 70.833984 C 243.523208 71.330673 243.772171 71.790284 244.107422 72.183594 C 244.457641 72.589019 244.895142 72.910477 245.386719 73.125 C 245.966979 73.369949 246.592377 73.49025 247.222656 73.476563 C 248.011871 73.509582 248.790162 73.288436 249.445313 72.845703 C 250.054931 72.377823 250.463074 71.695663 250.587891 70.9375 L 252.701172 70.9375 C 252.511963 72.231215 251.840163 73.405518 250.822266 74.226563 C 249.823913 74.947025 248.627216 75.335134 247.400391 75.339844 Z M 194.763672 75.333984 C 193.841205 75.334003 192.918836 75.162635 192.044922 74.820313 C 191.284914 74.494691 190.608015 74.004545 190.060547 73.384766 C 189.513353 72.760546 189.102157 72.02963 188.853516 71.238281 C 188.578156 70.377261 188.443649 69.476697 188.453125 68.572266 C 188.445251 67.665896 188.579408 66.763242 188.853516 65.898438 C 189.102401 65.10335 189.513857 64.367186 190.060547 63.738281 C 190.608565 63.117067 191.28583 62.623733 192.044922 62.292969 C 193.789515 61.59125 195.738271 61.591982 197.482422 62.292969 C 198.23657 62.626769 198.908754 63.119158 199.453125 63.738281 C 200.000914 64.367491 200.41092 65.102129 200.660156 65.898438 C 200.933532 66.762937 201.068802 67.665973 201.060547 68.572266 C 201.070785 69.476529 200.935378 70.375628 200.660156 71.236328 C 200.411042 72.027799 199.999556 72.760332 199.453125 73.384766 C 198.908464 74.002165 198.237272 74.492875 197.482422 74.820313 C 196.608615 75.162787 195.686139 75.333965 194.763672 75.333984 Z M 209.775391 75.333984 C 209.418183 75.328674 209.063414 75.295852 208.710938 75.234375 C 208.309999 75.166855 207.916686 75.056152 207.539063 74.90625 C 207.147783 74.751938 206.780318 74.54483 206.445313 74.289063 C 206.097825 74.024934 205.804977 73.698104 205.582031 73.322266 L 205.53125 73.322266 L 205.53125 75.058594 L 203.392578 75.060547 L 203.392578 57.121094 L 205.53125 57.121094 L 205.53125 63.828125 L 205.582031 63.828125 C 205.921218 63.11867 206.512331 62.559218 207.238281 62.257813 C 208.025785 61.923829 208.871524 61.756577 209.726563 61.767578 C 210.632367 61.746674 211.531039 61.935502 212.351563 62.320313 C 213.076841 62.672072 213.71216 63.182375 214.210938 63.814453 C 214.717345 64.461317 215.09575 65.199389 215.326172 65.988281 C 215.583144 66.835248 215.711121 67.715136 215.705078 68.599609 C 215.710693 69.483869 215.586608 70.365435 215.339844 71.214844 C 215.116456 71.995786 214.742476 72.726 214.238281 73.363281 C 213.73665 73.980101 213.100569 74.472718 212.378906 74.806641 C 211.561251 75.172881 210.671567 75.353729 209.775391 75.333984 Z M 170.111328 75.060547 L 167.978516 75.058594 L 167.978516 62.068359 L 169.986328 62.068359 L 169.986328 63.976563 L 170.039063 63.976563 C 170.721525 62.974536 171.741916 62.252288 172.912109 61.939453 C 174.083645 61.626283 175.32645 61.744051 176.417969 62.271484 C 176.750945 62.44873 177.045869 62.689515 177.283203 62.982422 C 177.520049 63.276198 177.697602 63.615266 177.800781 63.978516 C 178.22061 63.291369 178.812807 62.727858 179.519531 62.34375 C 180.242002 61.958375 181.050173 61.760086 181.869141 61.767578 C 182.466276 61.761307 183.064211 61.831665 183.644531 61.978516 C 184.134642 62.105575 184.594423 62.332902 184.994141 62.644531 C 185.379149 62.955703 185.680756 63.35814 185.871094 63.814453 C 186.095519 64.359724 186.20401 64.94655 186.1875 65.535156 L 186.185547 75.019531 L 184.052734 75.019531 L 184.052734 66.498047 C 184.05304 66.119493 184.019928 65.741423 183.953125 65.369141 C 183.894165 65.045289 183.765258 64.737258 183.576172 64.46875 C 183.380036 64.198472 183.115691 63.985015 182.810547 63.851563 C 182.408296 63.68628 181.974883 63.607575 181.541016 63.625 C 181.086061 63.599045 180.631743 63.665925 180.203125 63.820313 C 179.77588 63.974319 179.383971 64.216248 179.050781 64.527344 C 178.744508 64.845855 178.5083 65.222627 178.353516 65.636719 C 178.198761 66.050811 178.129974 66.492296 178.152344 66.933594 L 178.152344 75.037109 L 176.017578 75.037109 L 176.017578 66.515625 C 176.022034 66.127916 175.984314 65.742049 175.90625 65.363281 C 175.836518 65.040101 175.702636 64.733642 175.513672 64.462891 C 175.324708 64.200227 175.069884 63.99324 174.775391 63.861328 C 174.395295 63.707688 173.987487 63.635391 173.578125 63.648438 C 173.023165 63.631714 172.47412 63.761185 171.984375 64.023438 C 171.568971 64.248962 171.201873 64.55446 170.904297 64.921875 C 170.642213 65.249785 170.4375 65.618821 170.300781 66.015625 C 170.189057 66.317138 170.12616 66.635362 170.111328 66.957031 L 170.111328 75.060547 Z M 218.095703 75.058594 L 218.095703 62.068359 L 220.228516 62.068359 L 220.228516 75.058594 L 218.095703 75.058594 Z M 223.419922 75.058594 L 223.419922 57.121094 L 225.554688 57.121094 L 225.554688 75.058594 L 223.419922 75.058594 Z M 228.746094 75.058594 L 228.744141 62.068359 L 230.878906 62.068359 L 230.878906 75.058594 L 228.746094 75.058594 Z M 237.865234 75.058594 C 237.388154 75.064896 236.911239 75.025619 236.441406 74.941406 C 236.093369 74.888275 235.765518 74.747101 235.488281 74.529297 C 235.229431 74.303635 235.040817 74.007721 234.947266 73.677734 C 234.816315 73.202591 234.757645 72.710739 234.771484 72.21875 L 234.771484 63.955078 L 232.5625 63.953125 L 232.5625 62.068359 L 234.771484 62.068359 L 234.771484 58.173828 L 236.910156 58.175781 L 236.910156 62.068359 L 239.498047 62.068359 L 239.498047 63.955078 L 236.910156 63.955078 L 236.910156 72.001953 C 236.90329 72.205841 236.923523 72.408508 236.972656 72.605469 C 237.007111 72.747757 237.091873 72.873276 237.210938 72.957031 C 237.357132 73.051819 237.525391 73.108139 237.699219 73.123047 C 237.971344 73.149689 238.244202 73.161682 238.517578 73.160156 L 239.498047 73.160156 L 239.498047 75.058594 L 237.865234 75.058594 Z M 194.763672 73.490234 C 195.306196 73.490555 195.842851 73.377029 196.339844 73.158203 C 196.834486 72.941483 197.27501 72.621871 197.634766 72.21875 C 198.024352 71.773958 198.32013 71.251066 198.5 70.6875 C 198.920729 69.320774 198.921096 67.858822 198.5 66.492188 C 198.317704 65.923906 198.022841 65.399138 197.634766 64.945313 C 197.277131 64.53676 196.834532 64.210006 196.337891 63.990234 C 195.840608 63.773575 195.305327 63.661911 194.763672 63.662109 C 194.221132 63.661804 193.68521 63.774155 193.1875 63.990234 C 192.690858 64.210418 192.248916 64.534761 191.890625 64.943359 C 191.502717 65.397215 191.210235 65.923433 191.027344 66.492188 C 190.607469 67.859432 190.607621 69.3205 191.027344 70.6875 C 191.207656 71.251173 191.501741 71.773698 191.892578 72.21875 C 192.250975 72.621962 192.692461 72.943619 193.1875 73.160156 C 193.683791 73.378555 194.220659 73.490799 194.763672 73.490234 Z M 209.310547 73.458984 C 209.391967 73.461001 209.47498 73.45997 209.556641 73.457031 C 210.199156 73.478134 210.835405 73.331283 211.402344 73.029297 C 211.886076 72.755479 212.294114 72.367445 212.59375 71.898438 C 212.904677 71.405916 213.127793 70.861296 213.248047 70.291016 C 213.384094 69.681353 213.450638 69.059111 213.449219 68.433594 C 213.448914 67.834139 213.36798 67.238112 213.210938 66.660156 C 213.061829 66.106416 212.815978 65.581481 212.482422 65.115234 C 212.154374 64.661424 211.724547 64.292632 211.226563 64.035156 C 210.668535 63.755692 210.050001 63.617569 209.425781 63.634766 C 208.787722 63.613922 208.155165 63.761445 207.589844 64.058594 C 207.101396 64.336623 206.682403 64.717622 206.361328 65.177734 C 206.033479 65.653563 205.799301 66.187319 205.671875 66.75 C 205.526749 67.339384 205.453445 67.943621 205.455078 68.550781 C 205.454056 69.172575 205.529557 69.792513 205.679688 70.396484 C 205.818328 70.960356 206.06157 71.49286 206.396484 71.966797 C 206.730575 72.424117 207.165208 72.797959 207.666016 73.060547 C 208.181086 73.309417 208.740607 73.444866 209.310547 73.458984 Z M 243.175781 67.335938 L 250.638672 67.335938 C 250.604309 66.841523 250.490631 66.355621 250.300781 65.898438 C 250.117645 65.463608 249.853012 65.070129 249.521484 64.734375 C 249.187806 64.404328 248.79544 64.139938 248.365234 63.955078 C 247.899506 63.757782 247.397949 63.660675 246.892578 63.667969 C 246.380097 63.659607 245.870895 63.756745 245.398438 63.955078 C 244.967576 64.139328 244.579483 64.4095 244.255859 64.748047 C 243.936203 65.087722 243.682586 65.48259 243.503906 65.914063 C 243.318573 66.367095 243.207352 66.847245 243.175781 67.335938 Z M 246.835938 59.783203 L 245.228516 59.78125 L 247.642578 55.712891 L 250.378906 55.712891 L 246.835938 59.783203 Z M 218.095703 59.732422 L 218.095703 57.121094 L 220.228516 57.121094 L 220.228516 59.732422 L 218.095703 59.732422 Z M 228.744141 59.732422 L 228.744141 57.121094 L 230.878906 57.121094 L 230.878906 59.732422 L 228.744141 59.732422 Z M 264.562256 73.221909 C 264.907867 72.629303 265.078094 71.95047 265.053009 71.263947 C 265.071655 70.721634 264.945282 70.184479 264.687714 69.706665 C 264.449158 69.291824 264.124268 68.934509 263.73407 68.658401 C 263.31897 68.371399 262.863373 68.146484 262.383423 67.991776 C 261.866699 67.822769 261.343048 67.679779 260.812805 67.564178 C 260.312714 67.44635 259.808258 67.334076 259.304413 67.226791 C 258.844818 67.12886 258.393158 66.995117 257.953949 66.825836 C 257.58902 66.687897 257.253693 66.482727 256.963745 66.222961 C 256.839325 66.108414 256.739227 65.969788 256.671967 65.814331 C 256.604675 65.658844 256.570801 65.491501 256.571564 65.322189 C 256.559113 65.029785 256.648071 64.741684 256.823914 64.507172 C 256.998627 64.290512 257.22229 64.117111 257.477325 64.003387 C 257.762573 63.871323 258.065857 63.781998 258.37677 63.737488 C 258.697754 63.689545 259.021332 63.66507 259.345215 63.666138 C 259.695587 63.665207 260.046844 63.702881 260.389069 63.778076 C 260.720428 63.848145 261.0383 63.971603 261.330017 64.142349 C 261.612213 64.307571 261.853424 64.535767 262.032806 64.809067 C 262.228638 65.121902 262.341522 65.480347 262.360596 65.849335 L 264.494507 65.849274 C 264.471619 65.162888 264.301849 64.490967 263.994598 63.877106 C 263.725342 63.369476 263.331482 62.937683 262.85141 62.621246 C 262.349121 62.301239 261.789825 62.079941 261.203735 61.96904 C 260.533783 61.837433 259.852112 61.774109 259.169891 61.77977 C 258.590027 61.78215 258.012329 61.852753 257.449829 61.991028 C 256.898376 62.124146 256.372101 62.345688 255.892487 62.648438 C 255.432495 62.937119 255.044022 63.325974 254.757797 63.787735 C 254.451416 64.294418 254.295395 64.878677 254.307739 65.471252 C 254.263412 66.180054 254.48703 66.880722 254.933701 67.43306 C 255.368668 67.911667 255.905319 68.286179 256.505096 68.527374 C 257.168243 68.786697 257.855896 68.981644 258.557526 69.108444 C 259.296021 69.247284 259.974915 69.409454 260.605469 69.585297 C 261.162231 69.728912 261.692566 69.962372 262.176544 70.274109 C 262.380737 70.410477 262.545471 70.599121 262.655487 70.818527 C 262.765015 71.038803 262.815308 71.283752 262.802277 71.530289 C 262.817719 71.88559 262.711945 72.236755 262.500671 72.524704 C 262.299713 72.782791 262.036591 72.986526 261.735474 73.114059 C 261.410889 73.252274 261.068359 73.34552 260.717651 73.388977 C 260.368408 73.437912 260.01651 73.463379 259.664246 73.46553 C 259.238525 73.466858 258.812805 73.424286 258.395447 73.339203 C 258.006165 73.263428 257.631958 73.123566 257.288147 72.925064 C 256.964996 72.732742 256.692963 72.465973 256.4953 72.146317 C 256.285431 71.783813 256.173889 71.373016 256.171295 70.953506 L 254.032913 70.953293 C 254.045746 71.66507 254.217896 72.364899 254.537186 73.001877 C 254.824127 73.542831 255.23761 74.006729 255.743744 74.352051 C 256.270935 74.704926 256.858002 74.956116 257.47644 75.09494 C 258.153259 75.246658 258.845398 75.321808 259.538147 75.319931 C 260.200378 75.318909 260.860535 75.255493 261.51004 75.130508 C 262.145721 75.01947 262.756012 74.794464 263.310303 74.464386 C 263.818268 74.152588 264.246948 73.728058 264.562256 73.221909 Z"/>
            <path id="le-de-France" fill="#64b5f6" stroke="none" d="M 76.5 50.630859 C 68.991257 50.630432 63.896282 46.106728 63.896484 38.400391 C 63.896839 31.355766 69.527213 26.301102 76.306641 26.300781 C 84.553291 26.301163 88.672989 32.507912 88.326172 40.308594 L 71.431641 40.308594 C 71.567589 43.455121 73.380016 45.533112 76.576172 45.533203 C 78.385229 45.533813 80.165154 44.692885 80.876953 43 L 87.925781 43 C 86.552972 48.31576 81.622729 50.622055 76.5 50.630859 Z M 174.876953 50.613281 C 170.49265 50.613098 167.035706 48.401485 167.035156 43.648438 C 167.034866 36.166954 175.191732 36.742644 180.421875 35.675781 C 181.70967 35.41124 182.416031 34.970717 182.416016 33.552734 C 182.416275 31.824297 180.335997 31.162582 178.783203 31.162109 C 176.694079 31.162598 175.371582 32.092577 175.015625 34.037109 L 167.949219 34.039063 C 168.102432 31.0237 169.510546 29.009475 171.548828 27.871094 C 173.588453 26.732347 176.244128 26.281754 178.863281 26.28125 C 184.31428 26.28183 189.591171 27.485175 189.591797 33.998047 L 189.589844 44.0625 C 189.590225 46.011854 189.591767 48.160509 190.492188 49.960938 L 182.902344 49.958984 C 182.666474 49.253541 182.51767 48.522994 182.460938 47.78125 C 180.511065 49.820524 177.631421 50.612396 174.876953 50.613281 Z M 97.8125 50.376953 C 92.248129 50.37674 89.494614 45.980189 89.494141 40.875 C 89.49456 35.770299 92.216497 31.472839 97.744141 31.472656 C 99.590414 31.472809 102.246087 32.197207 103.574219 34.298828 L 103.646484 34.298828 L 103.646484 24.994141 L 106.617188 24.994141 L 106.617188 49.958984 L 103.646484 49.958984 L 103.646484 47.519531 L 103.574219 47.519531 C 102.602494 49.504591 100.292707 50.37709 97.8125 50.376953 Z M 117.128906 50.373047 C 111.358389 50.373886 108.631233 46.395212 108.451172 40.871094 C 108.451004 35.447393 112.001599 31.467072 116.953125 31.466797 C 123.327073 31.466751 125.304779 37.449696 125.128906 41.820313 L 111.623047 41.820313 C 111.51947 44.971738 113.302624 47.754211 117.246094 47.753906 C 119.67658 47.754196 121.401131 46.562589 121.927734 44.230469 L 124.863281 44.228516 C 124.053315 48.213405 121.189434 50.377975 117.128906 50.373047 Z M 54.369141 49.964844 L 54.369141 24.472656 L 49.595703 24.472656 L 46.939453 20.919922 L 44.279297 24.472656 L 38.607422 24.472656 L 43.568359 17.878906 L 50.302734 17.876953 L 54.369141 23.277344 L 54.369141 18.314453 L 61.904297 18.314453 L 61.904297 49.964844 L 54.369141 49.964844 Z M 43.166016 49.958984 L 43.166016 26.957031 L 50.701172 26.957031 L 50.701172 49.958984 L 43.166016 49.958984 Z M 127.058594 49.958984 L 127.058594 18.314453 L 150.375 18.314453 L 150.376953 24.917969 L 135.300781 24.917969 L 135.300781 31.392578 L 148.335938 31.390625 L 148.335938 37.769531 L 135.300781 37.769531 L 135.300781 49.958984 L 127.058594 49.958984 Z M 151.871094 49.9375 L 151.871094 26.933594 L 159.195313 26.933594 L 159.195313 30.986328 L 159.28125 30.986328 C 160.392958 28.064776 162.957721 26.510925 166.203125 26.511719 C 166.798248 26.508911 167.391495 26.569916 167.972656 26.695313 L 167.972656 33.564453 C 167.03682 33.279358 166.066482 33.128265 165.087891 33.115234 C 161.369816 33.115173 159.410248 35.686008 159.410156 38.576172 L 159.412109 49.9375 L 151.871094 49.9375 Z M 98.226563 47.730469 C 102.205883 47.730072 103.746521 44.313107 103.746094 40.923828 C 103.738752 37.359065 102.079242 34.077546 98.037109 34.078125 C 93.985722 34.077332 92.636955 37.530063 92.636719 41.064453 C 92.636536 44.448773 94.387531 47.729858 98.226563 47.730469 Z M 177.720703 45.966797 C 181.303478 45.967255 182.505432 43.931788 182.330078 39.1875 C 181.271867 39.84439 179.350615 40.030121 177.671875 40.425781 C 175.992662 40.82228 174.570892 41.550569 174.570313 43.351563 C 174.57045 45.21533 176.023134 45.967072 177.720703 45.966797 Z M 111.615234 39.197266 L 121.964844 39.197266 C 121.824692 36.352008 119.699155 34.102356 116.759766 34.101563 C 113.672008 34.101685 111.808868 36.433871 111.615234 39.197266 Z M 71.431641 36.095703 L 80.808594 36.095703 C 80.651413 33.51195 78.832128 31.39035 76.306641 31.390625 C 73.650782 31.390717 71.880859 33.291644 71.431641 36.095703 Z M 207.72966 38.836884 L 207.729126 49.959808 L 215.264816 49.959625 L 215.264542 35.200089 C 215.264572 31.878036 214.643326 26.292038 206.972839 26.291733 C 204.226929 26.291794 201.121246 27.754974 199.770309 30.108871 L 199.672195 30.10881 L 199.671844 26.957428 L 192.356567 26.95784 L 192.356735 49.959564 L 199.882965 49.959717 L 199.883179 37.409378 C 199.883484 34.888855 201.125916 32.498886 203.934097 32.498978 C 208.084946 32.499481 207.729294 35.685501 207.72966 38.836884 Z M 240.549606 40.921082 L 233.239273 40.920898 C 232.897156 43.351471 231.545914 44.85994 228.939774 44.859863 C 225.753052 44.859451 224.465378 41.80777 224.46582 38.83699 C 224.465652 35.645279 225.131699 32.057663 229.340363 32.058044 C 231.239975 32.057816 232.972931 33.408203 233.023087 35.379379 L 240.355331 35.379517 C 239.829102 29.303009 234.724014 26.29126 229.007126 26.291199 C 221.602875 26.291763 216.944214 31.526794 216.944031 38.837097 C 216.94368 45.881729 222.098114 50.622025 229.007889 50.621887 C 235.124725 50.621216 239.909821 47.079224 240.549606 40.921082 Z M 265.04953 42.999954 L 257.991821 43.000259 C 257.284943 44.692642 255.511597 45.534103 253.702042 45.534378 C 250.505875 45.534286 248.687241 43.454285 248.552155 40.308258 L 265.441833 40.308411 C 265.797028 32.507263 261.677979 26.299667 253.427399 26.300049 C 246.652786 26.300034 241.017181 31.355179 241.016785 38.399887 C 241.016312 46.110718 246.117264 50.629608 253.621063 50.630646 C 258.743408 50.620453 263.663635 48.316391 265.04953 42.999954 Z M 248.551895 36.094727 C 249.002304 33.290527 250.762833 31.391235 253.426956 31.390854 C 255.956848 31.390915 257.775421 33.511047 257.906006 36.094894 L 248.551895 36.094727 Z"/>
            <g id="Logo-IDFM">
                <path id="path2" fill="#64b5f6" stroke="none" d="M 287.175385 74.853424 L 318.099884 74.853683 C 321.521057 74.843994 324.799072 73.480286 327.218384 71.061951 C 329.637299 68.642242 331.000671 65.364822 331.009827 61.942963 L 331.010437 31.027344 C 331.003021 27.605164 329.6409 24.324585 327.221588 21.90358 C 324.802277 19.482574 321.522766 18.118027 318.10022 18.108459 L 287.175262 18.109055 C 283.753204 18.119415 280.474518 19.483887 278.05542 21.904663 C 275.636353 24.325455 274.273712 27.605591 274.26535 31.027893 L 274.265594 61.952072 C 274.277161 65.37204 275.641418 68.648071 278.060059 71.065247 C 280.479309 73.481583 283.755676 74.84433 287.175385 74.853424 Z M 297.812378 28.776825 C 299.162506 25.869339 302.106842 24.374191 304.397827 25.43251 C 306.689301 26.489899 307.449951 29.713058 306.104034 32.63446 C 304.758087 35.555893 301.80957 37.037094 299.518097 35.97966 C 297.227081 34.921387 296.470917 31.693909 297.812378 28.776825 Z M 286.720947 46.69696 C 291.523529 41.570419 295.849854 40.250793 301.625092 39.386612 C 307.400299 38.522461 309.525085 38.855438 316.38031 35.398987 C 318.262238 34.453232 317.731079 35.583038 316.529205 36.861328 C 311.726105 41.988754 307.395874 43.307281 301.625061 44.171677 C 295.854218 45.036072 293.725067 44.702866 286.869293 48.160172 C 284.987915 49.105057 285.523438 47.975494 286.720947 46.69696 Z M 285.820496 66.64299 C 289.12442 62.087631 291.79834 58.364838 294.989899 54.079483 C 299.009583 48.641815 304.969574 45.180023 309.844299 51.959717 C 314.382202 58.260849 319.405029 65.171051 320.845703 67.151733 C 321.039581 67.421906 320.917572 67.723267 320.50351 67.75441 C 318.208038 67.916351 312.936829 68.281708 311.199554 65.899963 C 308.683289 62.451874 305.851654 58.473007 303.546936 55.299469 C 301.562012 52.562286 298.685852 52.291977 296.75885 54.943771 C 294.611572 57.905991 291.186432 62.595718 289.813293 64.450653 C 288.980835 65.640915 287.918732 66.652344 286.68924 67.4263 C 285.631561 68.069641 285.046387 67.695999 285.806854 66.643188 L 285.820496 66.64299 Z"/>
                <path id="path3" fill="#ffffff" stroke="none" d="M 320.949493 67.449726 C 320.924695 67.606704 320.780542 67.732987 320.521759 67.75246 C 318.226255 67.914397 312.954358 68.278726 311.217071 65.896992 C 308.691535 62.449335 305.860696 58.47045 303.564728 55.297382 C 301.5798 52.560183 298.702545 52.290068 296.775665 54.941913 C 294.628302 57.904057 291.203287 62.570759 289.830353 64.447773 C 288.997906 65.637999 287.936888 66.650443 286.707306 67.424335 C 285.631703 68.067733 285.046082 67.693974 285.824493 66.641132 C 289.155556 62.099162 291.856937 58.362243 295.008087 54.076679 C 299.019092 48.638633 304.977678 45.178355 309.861603 51.957538 C 314.39908 58.254968 319.422884 65.168253 320.863556 67.148945 C 320.936274 67.250248 320.964372 67.355539 320.949493 67.449726 Z M 317.613556 35.236835 C 317.61417 35.543285 317.165481 36.181128 316.529571 36.859882 C 311.726414 41.987242 307.378107 43.304093 301.625274 44.168476 C 295.872375 45.032824 293.725258 44.701457 286.869415 48.15871 C 284.9881 49.103652 285.523576 47.972456 286.720978 46.693867 C 291.523646 41.567388 295.872362 40.24961 301.625274 39.385273 C 307.378095 38.520878 309.525873 38.853455 316.381134 35.396992 C 317.26323 34.953655 317.613014 34.966438 317.613556 35.236835 Z M 306.769806 29.631367 C 306.782165 30.604278 306.568033 31.638315 306.10379 32.63332 C 304.753297 35.527817 301.808851 37.035327 299.517853 35.97707 C 297.230929 34.906117 296.462281 31.670457 297.812774 28.775898 C 299.163268 25.881339 302.110445 24.351186 304.396759 25.432148 C 305.897483 26.140968 306.746211 27.773989 306.769806 29.631367 Z"/>
            </g>
            <path id="navigo" fill="#ffffff" stroke="none" d="M 284.396484 158.904297 C 281.98956 157.619849 279.752988 156.039302 277.740234 154.197266 C 278.352041 154.154797 278.927776 154.091924 279.484375 154.025391 C 281.106471 153.859552 282.701112 153.500831 284.236328 152.955078 C 286.42089 152.127828 287.823276 151.075472 288.582031 149.894531 C 289.285226 148.766333 289.703913 147.483946 289.806641 146.158203 L 289.396484 146.160156 C 286.894619 146.152564 284.402993 145.863997 281.964844 145.302734 C 279.584745 144.80954 277.323008 143.857619 275.304688 142.503906 L 275.273438 142.529297 C 273.251439 141.206436 271.609424 139.378014 270.509766 137.224609 C 269.410611 135.073075 268.89204 132.669699 269.005859 130.255859 C 268.960856 127.442568 269.820169 124.690121 271.455078 122.402344 C 273.126042 120.133751 275.333124 118.314658 277.880859 117.111328 C 279.834821 116.166665 281.919572 115.518263 284.064453 115.189453 C 286.676356 114.80517 289.31568 114.627746 291.955078 114.658203 L 295.353516 114.658203 C 295.613648 114.689065 295.8533 114.81544 296.027344 115.011719 C 296.200239 115.207292 296.296185 115.460021 296.296875 115.722656 L 296.296875 117.675781 C 296.296398 118.617706 296.295596 119.855942 296.294922 121.410156 C 296.258735 124.875377 296.239796 128.164255 296.240234 131.283203 C 296.240061 133.40774 296.202846 135.556574 296.240234 137.765625 C 296.27694 139.975864 296.277271 141.990414 296.277344 143.826172 C 296.27704 147.272815 295.708206 150.083587 294.441406 152.207031 C 293.157547 154.300214 291.3284 156.006484 289.150391 157.140625 C 287.632444 157.895803 286.039118 158.488034 284.396484 158.904297 Z M 237.576172 146.203125 C 237.110603 145.108342 235.514694 141.495943 233.292969 136.537109 C 230.491825 130.370646 227.663273 124.108656 224.806641 117.75 L 224.427734 116.867188 L 230.505859 114.130859 L 240.386719 137.511719 L 249.386719 115.644531 C 249.501093 115.454613 249.662783 115.297319 249.857422 115.191406 C 250.051558 115.083626 250.272032 115.027038 250.494141 115.03125 L 259.185547 115.03125 L 264.083984 115.03125 C 264.226523 115.031888 264.367505 115.059155 264.5 115.115234 C 264.631333 115.170645 264.749688 115.253836 264.849609 115.355469 C 264.948825 115.458326 265.027114 115.580154 265.078125 115.714844 C 265.129836 115.848304 265.15211 115.99045 265.148438 116.132813 L 265.148438 145.089844 C 265.152375 145.227161 265.129927 145.366252 265.080078 145.496094 C 265.030245 145.625943 264.953792 145.744755 264.859375 145.845703 C 264.763806 145.945987 264.651046 146.026937 264.523438 146.082031 C 264.396333 146.138995 264.257659 146.168604 264.119141 146.171875 L 259.222656 146.171875 C 259.082494 146.172565 258.945363 146.143882 258.816406 146.089844 C 258.686246 146.03511 258.568168 145.957185 258.46875 145.857422 C 258.37052 145.758297 258.292791 145.641021 258.240234 145.511719 C 258.187174 145.380591 258.162926 145.240275 258.164063 145.099609 L 258.164063 120.681641 L 253.958984 120.681641 C 251.809758 125.579205 249.575265 130.666456 247.224609 135.986328 C 244.872817 141.305487 243.226488 145.076935 242.712891 146.203125 L 237.576172 146.203125 Z M 314.244141 146.162109 C 312.3208 146.169746 310.410386 145.839162 308.599609 145.189453 C 306.849024 144.552449 305.237224 143.585739 303.849609 142.341797 C 302.245731 140.844176 300.992517 139.012182 300.177734 136.974609 C 299.313696 134.864606 298.873145 132.604526 298.878906 130.326172 C 298.862557 128.203067 299.240734 126.096239 299.994141 124.111328 C 300.763917 122.157912 301.950661 120.394921 303.470703 118.945313 C 304.872859 117.561101 306.536946 116.474477 308.367188 115.744141 C 310.248933 114.998012 312.257616 114.616723 314.28125 114.623047 C 316.300146 114.596781 318.306057 114.951743 320.195313 115.664063 C 321.986875 116.349785 323.610916 117.407542 324.962891 118.767578 C 326.505957 120.25362 327.715069 122.050349 328.507813 124.039063 C 329.283295 126.071245 329.669172 128.229929 329.646484 130.404297 C 329.655728 132.645787 329.219189 134.866879 328.361328 136.9375 C 327.598987 138.807319 326.464405 140.50248 325.027344 141.919922 C 323.589618 143.338512 321.878079 144.451732 319.998047 145.189453 C 318.154926 145.860502 316.206126 146.190922 314.244141 146.162109 Z M 209.716797 146.150391 L 209.498047 146.113281 L 202.824219 146.113281 C 200.915108 146.147959 199.007192 145.971797 197.136719 145.585938 C 195.491041 145.292194 193.901617 144.738586 192.429688 143.945313 C 191.184701 143.177832 190.137664 142.1313 189.369141 140.886719 C 188.764229 139.829275 188.421166 138.643828 188.371094 137.427734 L 188.369141 137.371094 L 188.371094 134.544922 C 188.370565 133.528619 188.376883 132.021861 188.371094 130.027344 C 188.364785 128.030993 188.333849 126.573951 188.333984 125.667969 C 188.284224 123.513015 187.783248 122.048341 187.25 121.380859 C 186.717914 120.714047 185.633825 120.256425 183.796875 120.255859 C 182.383173 120.330008 180.997952 120.66959 179.708984 121.253906 C 178.057206 121.914514 176.460111 122.706834 174.935547 123.623047 C 174.935225 124.186618 174.933874 125.166075 174.933594 126.591797 C 174.934133 128.704187 174.933459 130.663651 174.933594 132.376953 C 174.933023 134.091428 174.933469 145.958865 174.933594 146.119141 L 168.5 146.119141 L 168.5 114.941406 L 175.105469 114.943359 L 175.105469 117.746094 C 176.909653 116.729047 178.799293 115.866838 180.75 115.169922 C 182.31949 114.581133 183.971538 114.25098 185.646484 114.189453 C 186.891741 114.140496 188.13413 114.351543 189.292969 114.808594 C 190.452959 115.26635 191.503018 115.958407 192.378906 116.845703 C 194.099765 118.63849 194.939733 121.076327 194.939453 123.984375 C 194.939142 126.476309 194.921243 128.61877 194.890625 130.417969 C 194.860515 132.219004 194.859313 133.657281 194.859375 134.783203 L 194.859375 136.753906 C 194.83325 137.392098 195.024256 138.019175 195.398438 138.535156 C 195.884602 139.134624 196.516349 139.595495 197.234375 139.875 C 198.014736 140.201517 198.840865 140.40845 199.683594 140.488281 C 199.922562 140.536735 200.11813 140.535732 200.332031 140.535156 C 199.832669 139.414582 199.576478 138.200124 199.580078 136.972656 C 199.549128 134.980915 200.242147 133.045553 201.53125 131.525391 C 202.931174 129.924769 204.701455 128.691762 206.6875 127.933594 C 208.396489 127.274576 210.164473 126.783039 211.96875 126.464844 C 214.089407 126.0529 216.231581 125.753009 218.384766 125.570313 C 218.265748 124.721136 217.967719 123.906135 217.509766 123.181641 C 216.90973 122.317025 216.053181 121.661822 215.060547 121.308594 C 214.210587 120.963889 213.320004 120.72991 212.410156 120.611328 C 211.22265 120.459623 210.026237 120.389447 208.830078 120.402344 C 207.972834 120.402069 207.28039 120.4266 206.650391 120.457031 C 206.020401 120.487468 205.168334 120.549 204.121094 120.597656 L 202.976563 120.666016 L 203.679688 114.863281 L 204.476563 114.800781 L 206.232422 114.697266 C 207.132517 114.623319 208.327843 114.622398 209.871094 114.623047 C 212.038762 114.594737 214.200891 114.848571 216.304688 115.376953 C 218.116342 115.82934 219.795625 116.706362 221.201172 117.935547 C 222.392071 119.065967 223.303378 120.456635 223.863281 122 C 224.494557 123.683574 224.770281 125.955537 224.771484 128.869141 C 224.770872 133.741485 224.813233 137.696531 224.769531 140.769531 C 224.727687 143.842018 224.727872 144.485958 224.728516 144.71875 L 224.728516 144.9375 L 224.728516 145.060547 C 224.733226 145.174778 224.715304 145.289829 224.677734 145.398438 C 224.614184 145.614588 224.484578 145.804663 224.304688 145.939453 C 224.124081 146.075465 223.90599 146.148033 223.681641 146.150391 L 209.716797 146.150391 Z M 314.238281 140.806641 C 315.303467 140.813922 316.358998 140.632212 317.359375 140.267578 C 318.287726 139.905354 319.134277 139.362852 319.851563 138.669922 C 320.879117 137.659841 321.679659 136.440986 322.197266 135.095703 C 322.748515 133.656751 323.028564 132.128572 323.023438 130.589844 C 323.024366 128.939981 322.738525 127.302608 322.179688 125.751953 C 321.658255 124.277906 320.775254 122.958627 319.613281 121.914063 C 318.92472 121.276239 318.112274 120.789687 317.226563 120.482422 C 316.283306 120.138868 315.285766 119.967274 314.28125 119.974609 C 313.202147 119.9452 312.127025 120.124238 311.115234 120.505859 C 310.169178 120.909669 309.308895 121.49765 308.587891 122.232422 C 307.582315 123.231619 306.811517 124.439872 306.330078 125.771484 C 305.771863 127.225201 305.489023 128.769019 305.496094 130.326172 C 305.476619 132.010853 305.76565 133.684339 306.347656 135.265625 C 306.911274 136.726408 307.836078 138.018695 309.035156 139.023438 C 309.734258 139.607685 310.534109 140.057077 311.396484 140.347656 C 312.311858 140.65791 313.272204 140.812632 314.238281 140.806641 Z M 289.720703 140.539063 L 289.875 140.539063 C 289.874569 139.987659 289.874741 139.210698 289.875 138.201172 C 289.911216 136.248155 289.91039 133.947415 289.910156 131.271484 C 289.910151 129.870758 289.911474 128.100799 289.910156 125.970703 C 289.89231 124.146679 289.885213 122.25369 289.849609 120.289063 C 288.352736 120.286972 286.859052 120.40389 285.380859 120.638672 C 283.973293 120.884431 282.598659 121.296291 281.285156 121.863281 C 279.57131 122.552464 278.111804 123.752821 277.105469 125.302734 C 276.134052 126.849273 275.632028 128.643486 275.660156 130.46875 C 275.603522 132.245023 276.09855 133.994368 277.080078 135.476563 C 278.043578 136.883942 279.373282 138.00337 280.923828 138.714844 C 282.197291 139.302476 283.53105 139.743631 284.902344 140.03125 C 286.484535 140.377857 288.101316 140.547892 289.720703 140.539063 Z M 216.224609 140.470703 C 216.585936 140.47047 217.055632 140.469559 217.630859 140.46875 C 217.887902 140.469554 218.208285 140.468797 218.501953 140.46875 C 218.501299 140.206094 218.500259 139.912118 218.5 139.550781 C 218.500944 138.540068 218.501725 137.156869 218.501953 135.4375 L 218.507813 133.154297 C 218.508248 132.487137 218.507864 131.758821 218.507813 130.9375 C 217.669348 130.999914 216.4999 131.140282 215.054688 131.3125 C 213.268713 131.498356 211.508911 131.875818 209.802734 132.4375 C 208.844454 132.740083 207.955974 133.232396 207.189453 133.882813 C 206.876456 134.133931 206.624375 134.454416 206.455078 134.818359 C 206.28629 135.184173 206.204852 135.580903 206.214844 135.982422 C 206.189216 136.399454 206.250636 136.81698 206.396484 137.208984 C 206.541658 137.60214 206.767105 137.95959 207.058594 138.259766 C 207.792743 138.930186 208.676529 139.413549 209.636719 139.667969 C 210.617441 139.965678 211.624421 140.168816 212.642578 140.279297 C 213.83274 140.40738 215.028481 140.472641 216.224609 140.470703 Z M 259.216797 110.982422 C 259.076126 110.98126 258.93678 110.953137 258.806641 110.898438 C 258.678327 110.84324 258.560441 110.76242 258.462891 110.662109 C 258.364137 110.561135 258.289495 110.44215 258.238281 110.310547 C 258.186404 110.180065 258.161074 110.039627 258.164063 109.898438 L 258.164063 105.289063 C 258.158885 105.009713 258.26178 104.740718 258.453125 104.537109 C 258.64448 104.333584 258.908254 104.212333 259.1875 104.199219 L 264.083984 104.199219 C 264.226523 104.199841 264.367404 104.228548 264.498047 104.285156 C 264.629359 104.34052 264.747655 104.421301 264.845703 104.523438 C 264.944919 104.626279 265.023695 104.746141 265.074219 104.878906 C 265.124742 105.011713 265.148124 105.154025 265.142578 105.296875 L 265.142578 109.892578 C 265.146355 110.032938 265.124037 110.170963 265.074219 110.300781 C 265.02437 110.430641 264.951053 110.550122 264.855469 110.650391 C 264.7592 110.751863 264.644683 110.833684 264.517578 110.890625 C 264.391158 110.946404 264.253747 110.979143 264.115234 110.982422 L 259.216797 110.982422 Z"/>
        </g>
    </g>
</svg>
