<svg width="640" height="399" viewBox="0 0 640 399" fill="none" xmlns="http://www.w3.org/2000/svg">
<g clip-path="url(#clip0_65_483)">
<path d="M620 0C631.046 0 640 8.95431 640 20V379C640 390.046 631.046 399 620 399H20C8.95431 399 0 390.046 0 379V20C0 8.9543 8.95431 0 20 0L620 0Z" fill="#582C83"/>
<mask id="mask0_65_483" style="mask-type:luminance" maskUnits="userSpaceOnUse" x="286" y="128" width="260" height="154">
<path d="M546 128.437H286V281.563H546V128.437Z" fill="white"/>
</mask>
<g mask="url(#mask0_65_483)">
<path d="M378.779 171.581C370.851 172.947 368.424 166.961 368.424 166.961C368.424 166.961 362.689 153.712 360.694 148.912C358.716 144.112 351.705 132.571 341.207 136.724C331.14 140.715 335.742 155.582 335.742 155.582L338.906 164.372C346.708 185.944 328.641 192.973 328.641 192.973C308.723 200.847 299.303 179.832 299.303 179.832L287.115 151.609C295.114 149.919 297.739 157.235 297.739 157.235L304.786 173.594C304.786 173.594 311.959 191.517 325.477 185.675C338.636 179.976 330.241 162.754 330.241 162.754C330.241 162.754 318.951 138.27 337.63 130.306C357.098 122.001 367.04 144.31 367.04 144.31L378.797 171.599L378.779 171.581Z" fill="#E6007E"/>
<path d="M434.094 171.581C426.184 172.947 423.739 166.961 423.739 166.961C423.739 166.961 418.004 153.712 416.009 148.912C414.031 144.112 407.02 132.571 396.522 136.724C386.455 140.715 391.057 155.582 391.057 155.582L394.221 164.372C402.023 185.945 383.956 192.974 383.956 192.974C364.038 200.847 354.618 179.832 354.618 179.832L342.43 151.591C350.429 149.901 353.054 157.217 353.054 157.217L360.101 173.576C360.101 173.576 367.256 191.499 380.792 185.657C393.951 179.958 385.556 162.737 385.556 162.737C385.556 162.737 374.267 138.252 392.944 130.288C412.413 121.983 422.337 144.292 422.337 144.292L434.094 171.581Z" fill="#EC6608"/>
<path d="M490.217 171.581C482.289 172.947 479.862 166.961 479.862 166.961C479.862 166.961 474.128 153.712 472.132 148.912C470.155 144.112 463.144 132.571 452.646 136.724C442.578 140.715 447.181 155.582 447.181 155.582L450.344 164.372C458.146 185.945 440.08 192.974 440.08 192.974C420.161 200.847 410.741 179.832 410.741 179.832L398.571 151.591C406.571 149.901 409.195 157.217 409.195 157.217L416.242 173.576C416.242 173.576 423.415 191.499 436.916 185.657C450.075 179.958 441.697 162.737 441.697 162.737C441.697 162.737 430.408 138.252 449.068 130.288C468.555 121.983 478.478 144.292 478.478 144.292L490.235 171.581H490.217Z" fill="#DEDC00"/>
<path d="M546 171.581C538.071 172.947 535.645 166.961 535.645 166.961C535.645 166.961 529.91 153.712 527.914 148.912C525.938 144.112 518.927 132.571 508.428 136.724C498.343 140.715 502.963 155.582 502.963 155.582L506.127 164.372C513.929 185.945 495.862 192.974 495.862 192.974C475.944 200.847 466.542 179.832 466.542 179.832L454.354 151.591C462.371 149.901 464.978 157.217 464.978 157.217L472.025 173.576C472.025 173.576 479.198 191.499 492.716 185.657C505.875 179.958 497.48 162.737 497.48 162.737C497.48 162.737 486.191 138.252 504.869 130.288C524.338 121.983 534.279 144.292 534.279 144.292L546.036 171.581H546Z" fill="#7AA62C"/>
</g>
<path d="M601.094 171.581C593.184 172.947 590.739 166.961 590.739 166.961C590.739 166.961 585.004 153.712 583.009 148.912C581.031 144.112 574.021 132.571 563.522 136.724C553.455 140.715 558.057 155.582 558.057 155.582L561.221 164.372C569.023 185.945 550.956 192.974 550.956 192.974C531.038 200.847 521.618 179.832 521.618 179.832L509.43 151.591C517.429 149.901 520.054 157.217 520.054 157.217L527.101 173.576C527.101 173.576 534.256 191.499 547.792 185.657C560.951 179.958 552.556 162.737 552.556 162.737C552.556 162.737 541.267 138.252 559.945 130.288C579.413 121.983 589.337 144.292 589.337 144.292L601.094 171.581Z" fill="#9771B4"/>
<path d="M657.217 171.581C649.289 172.947 646.863 166.961 646.863 166.961C646.863 166.961 641.128 153.712 639.133 148.912C637.155 144.112 630.144 132.571 619.646 136.724C609.579 140.715 614.181 155.582 614.181 155.582L617.344 164.372C625.147 185.945 607.08 192.974 607.08 192.974C587.161 200.847 577.742 179.832 577.742 179.832L565.571 151.591C573.571 149.901 576.195 157.217 576.195 157.217L583.242 173.576C583.242 173.576 590.415 191.499 603.916 185.657C617.075 179.958 608.698 162.737 608.698 162.737C608.698 162.737 597.408 138.252 616.068 130.288C635.555 121.983 645.478 144.292 645.478 144.292L657.235 171.581H657.217Z" fill="#9771B4"/>
<path d="M713 171.581C705.071 172.947 702.645 166.961 702.645 166.961C702.645 166.961 696.91 153.712 694.914 148.912C692.938 144.112 685.926 132.571 675.428 136.724C665.343 140.715 669.963 155.582 669.963 155.582L673.127 164.372C680.929 185.945 662.862 192.974 662.862 192.974C642.944 200.847 633.542 179.832 633.542 179.832L621.354 151.591C629.371 149.901 631.978 157.217 631.978 157.217L639.025 173.576C639.025 173.576 646.198 191.499 659.716 185.657C672.875 179.958 664.48 162.737 664.48 162.737C664.48 162.737 653.191 138.252 671.868 130.288C691.338 121.983 701.279 144.292 701.279 144.292L713.036 171.581H713Z" fill="#9771B4"/>
<path d="M267.094 171.581C259.184 172.947 256.739 166.961 256.739 166.961C256.739 166.961 251.004 153.712 249.009 148.912C247.031 144.112 240.021 132.571 229.522 136.724C219.455 140.715 224.057 155.582 224.057 155.582L227.221 164.372C235.023 185.945 216.956 192.974 216.956 192.974C197.038 200.847 187.618 179.832 187.618 179.832L175.43 151.591C183.429 149.901 186.054 157.217 186.054 157.217L193.101 173.576C193.101 173.576 200.256 191.499 213.792 185.657C226.951 179.958 218.556 162.737 218.556 162.737C218.556 162.737 207.267 138.252 225.945 130.288C245.413 121.983 255.337 144.292 255.337 144.292L267.094 171.581Z" fill="#9771B4"/>
<path d="M323.217 171.581C315.289 172.947 312.863 166.961 312.863 166.961C312.863 166.961 307.128 153.712 305.133 148.912C303.155 144.112 296.144 132.571 285.646 136.724C275.579 140.715 280.181 155.582 280.181 155.582L283.344 164.372C291.147 185.945 273.08 192.974 273.08 192.974C253.161 200.847 243.742 179.832 243.742 179.832L231.571 151.591C239.571 149.901 242.195 157.217 242.195 157.217L249.242 173.576C249.242 173.576 256.415 191.499 269.916 185.657C283.075 179.958 274.698 162.737 274.698 162.737C274.698 162.737 263.408 138.252 282.068 130.288C301.555 121.983 311.478 144.292 311.478 144.292L323.235 171.581H323.217Z" fill="#9771B4"/>
<path d="M155.094 171.581C147.184 172.947 144.739 166.961 144.739 166.961C144.739 166.961 139.004 153.712 137.009 148.912C135.031 144.112 128.021 132.571 117.522 136.724C107.455 140.715 112.057 155.582 112.057 155.582L115.221 164.372C123.023 185.945 104.956 192.974 104.956 192.974C85.0378 200.847 75.6179 179.832 75.6179 179.832L63.4297 151.591C71.4294 149.901 74.0538 157.217 74.0538 157.217L81.1008 173.576C81.1008 173.576 88.2556 191.499 101.792 185.657C114.951 179.958 106.556 162.737 106.556 162.737C106.556 162.737 95.2667 138.252 113.945 130.288C133.413 121.983 143.337 144.292 143.337 144.292L155.094 171.581Z" fill="#9771B4"/>
<path d="M211.217 171.581C203.289 172.947 200.863 166.961 200.863 166.961C200.863 166.961 195.128 153.712 193.133 148.912C191.155 144.112 184.144 132.571 173.646 136.724C163.579 140.715 168.181 155.582 168.181 155.582L171.344 164.372C179.147 185.945 161.08 192.974 161.08 192.974C141.161 200.847 131.742 179.832 131.742 179.832L119.571 151.591C127.571 149.901 130.195 157.217 130.195 157.217L137.242 173.576C137.242 173.576 144.415 191.499 157.916 185.657C171.075 179.958 162.698 162.737 162.698 162.737C162.698 162.737 151.408 138.252 170.068 130.288C189.555 121.983 199.478 144.292 199.478 144.292L211.235 171.581H211.217Z" fill="#9771B4"/>
<path d="M43.0936 171.581C35.1839 172.947 32.7389 166.961 32.7389 166.961C32.7389 166.961 27.0043 153.712 25.0089 148.912C23.0314 144.112 16.0206 132.571 5.52203 136.724C-4.54512 140.715 0.0570687 155.582 0.0570687 155.582L3.22105 164.372C11.0229 185.945 -7.04395 192.974 -7.04395 192.974C-26.9622 200.847 -36.3821 179.832 -36.3821 179.832L-48.5703 151.591C-40.5706 149.901 -37.9462 157.217 -37.9462 157.217L-30.8992 173.576C-30.8992 173.576 -23.7444 191.499 -10.2077 185.657C2.95141 179.958 -5.44402 162.737 -5.44402 162.737C-5.44402 162.737 -16.7333 138.252 1.94459 130.288C21.4135 121.983 31.3368 144.292 31.3368 144.292L43.0936 171.581Z" fill="#9771B4"/>
<path d="M99.2173 171.581C91.2894 172.947 88.8626 166.961 88.8626 166.961C88.8626 166.961 83.128 153.712 81.1325 148.912C79.155 144.112 72.1442 132.571 61.6457 136.724C51.5785 140.715 56.1807 155.582 56.1807 155.582L59.3445 164.372C67.1465 185.945 49.0797 192.974 49.0797 192.974C29.1615 200.847 19.7415 179.832 19.7415 179.832L7.57129 151.591C15.571 149.901 18.1954 157.217 18.1954 157.217L25.2424 173.576C25.2424 173.576 32.4152 191.499 45.916 185.657C59.0748 179.958 50.6976 162.737 50.6976 162.737C50.6976 162.737 39.4083 138.252 58.0683 130.288C77.5551 121.983 87.4784 144.292 87.4784 144.292L99.2352 171.581H99.2173Z" fill="#9771B4"/>
<path d="M72.5001 325H136.269C137.467 325 138.369 323.972 138.179 322.79C136.692 313.554 129.57 278.482 107 277.5C95.5002 277 90.0002 277 76.5007 277H76.5C59.5 277 51.5 287 51.5 297C51.5 309.503 61 325 72.5001 325Z" fill="#9771B4"/>
<path d="M164.5 325H228.269C229.467 325 230.369 323.972 230.179 322.79C228.692 313.554 221.57 278.482 199 277.5C187.5 277 182 277 168.501 277H168.5C151.5 277 143.5 287 143.5 297C143.5 309.503 153 325 164.5 325Z" fill="#9771B4"/>
<path d="M256.5 325H320.269C321.467 325 322.369 323.972 322.179 322.79C320.693 313.554 313.57 278.482 291 277.5C279.5 277 274 277 260.501 277H260.5C243.5 277 235.5 287 235.5 297C235.5 309.503 245 325 256.5 325Z" fill="#9771B4"/>
<path d="M33.0001 334H96.7689C97.9669 334 98.8689 335.028 98.6785 336.21C97.1923 345.446 90.0702 380.518 67.5001 381.5C56.0002 382 50.5002 382 37.0007 382H37C20 382 12 372 12 362C12 349.497 21.5 334 33.0001 334Z" fill="#9771B4"/>
<path d="M125 334H188.769C189.967 334 190.869 335.028 190.679 336.21C189.192 345.446 182.07 380.518 159.5 381.5C148 382 142.5 382 129.001 382H129C112 382 104 372 104 362C104 349.497 113.5 334 125 334Z" fill="#9771B4"/>
<path d="M309 334H372.769C373.967 334 374.869 335.028 374.679 336.21C373.193 345.446 366.071 380.518 343.5 381.5C332.001 382 326.501 382 313.001 382H313C296 382 288 372 288 362C288 349.497 297.5 334 309 334Z" fill="#9771B4"/>
<path d="M217 334H280.769C281.967 334 282.869 335.028 282.679 336.21C281.193 345.446 274.07 380.518 251.5 381.5C240 382 234.5 382 221.001 382H221C204 382 196 372 196 362C196 349.497 205.5 334 217 334Z" fill="#9771B4"/>
<path d="M401.001 334H464.769C465.967 334 466.869 335.028 466.679 336.21C465.193 345.446 458.071 380.518 435.501 381.5C424.001 382 418.501 382 405.001 382H405C388 382 380 372 380 362C380 349.497 389.5 334 401.001 334Z" fill="#9771B4"/>
<path d="M108.768 286H79.9997C79.4476 286 79 286.449 79 287.001C79 287.553 79.4476 288 79.9997 288H108.768C109.321 288 109.768 287.552 109.768 287C109.768 286.448 109.321 286 108.768 286Z" fill="#582C83"/>
<path d="M108.769 314.769H79.9998C79.4477 314.769 79.0001 315.217 79.0001 315.77C79.0001 316.322 79.4477 316.769 79.9998 316.769H108.769C109.321 316.769 109.768 316.321 109.768 315.768C109.768 315.216 109.321 314.769 108.769 314.769Z" fill="#582C83"/>
<path d="M105.5 303.5C105.5 301.922 104.614 301.003 103.5 300.384L102.653 299.923C102.154 299.653 101.73 299.231 101.73 298.692C101.73 298.077 102.231 297.653 102.961 297.653C103.462 297.653 103.922 297.845 104.264 298C104.807 298.269 105.15 297.923 105.303 297.348C105.496 296.697 105.226 296.464 104.76 296.232C104.206 295.975 103.602 295.844 102.992 295.848C101.183 295.848 99.6833 297.042 99.6833 298.963C99.6833 300.464 100.452 301.309 101.684 302.003L102.576 302.499C103.119 302.806 103.462 303.229 103.462 303.801C103.462 304.533 102.769 304.878 102.077 304.878C101.534 304.878 100.883 304.648 100.538 304.494C99.9612 304.225 99.654 304.571 99.4608 305.186C99.2697 305.838 99.5769 306.11 100.076 306.34C100.538 306.571 101.346 306.764 102.077 306.764C103.961 306.764 105.5 305.494 105.5 303.494M98.7704 303.109V296.731C98.7704 296.188 98.2277 295.923 97.7317 295.923C97.1889 295.923 96.6929 296.192 96.6929 296.731V302.846C96.6929 304.077 96.3086 304.884 95.3089 304.884C94.3472 304.884 93.8859 304.115 93.8859 302.846V296.731C93.8859 296.188 93.3085 295.923 92.8081 295.923C92.2317 295.923 91.7313 296.192 91.7313 296.731V303.076C91.7313 305.615 93.0013 306.767 95.3133 306.767C97.3897 306.767 98.7748 305.573 98.7748 303.112M90.7359 303.574C90.7359 301.805 89.5061 301.151 88.8516 301.036V300.998C89.6201 300.612 90.5438 299.882 90.5438 298.574C90.5438 296.806 89.0057 295.959 87.5046 295.959H84.6151C84.0724 295.959 83.7695 296.382 83.7695 296.844V305.843C83.7695 306.386 84.3123 306.652 84.8083 306.652H87.5382C89.1924 306.652 90.7305 305.766 90.7305 303.574M88.3849 299.076C88.3849 300.076 87.5382 300.422 86.6536 300.422H85.846V297.73H86.6536C87.5762 297.73 88.3849 298.038 88.3849 299.076ZM88.692 303.345C88.692 304.384 88.1178 304.887 86.8848 304.887H85.9611V301.884H86.8848C87.6533 301.884 88.692 302.154 88.692 303.345Z" fill="#582C83"/>
<path d="M292.768 286H264C263.448 286 263 286.448 263 287V287.001C263 287.553 263.448 288 264 288H292.768C293.321 288 293.768 287.553 293.768 287.001V287C293.768 286.448 293.321 286 292.768 286Z" fill="#582C83"/>
<path d="M292.768 314.769H264C263.448 314.769 263 315.216 263 315.768V315.77C263 316.322 263.448 316.769 264 316.769H292.768C293.321 316.769 293.768 316.322 293.768 315.77V315.768C293.768 315.216 293.321 314.769 292.768 314.769Z" fill="#582C83"/>
<path d="M288.354 292.336L288.291 291.991C288.275 291.9 288.223 291.819 288.147 291.766C288.072 291.713 287.978 291.692 287.887 291.708L280.657 292.984L280.624 292.801C280.605 292.69 280.563 292.584 280.502 292.488C280.442 292.393 280.363 292.311 280.27 292.246C280.177 292.181 280.073 292.135 279.962 292.111C279.852 292.086 279.738 292.084 279.627 292.103L276.778 292.605C276.667 292.625 276.56 292.666 276.465 292.727C276.37 292.788 276.287 292.867 276.222 292.959C276.157 293.052 276.111 293.157 276.087 293.267C276.062 293.378 276.06 293.492 276.079 293.604L276.112 293.785L268.879 295.06C268.788 295.076 268.707 295.128 268.654 295.203C268.601 295.279 268.581 295.372 268.596 295.463L268.657 295.808C268.665 295.853 268.681 295.897 268.706 295.936C268.73 295.975 268.762 296.009 268.8 296.035C268.837 296.062 268.879 296.081 268.924 296.091C268.969 296.101 269.016 296.102 269.061 296.095L277.861 294.544V298.312H273.637C273.045 298.311 272.465 298.485 271.973 298.814C271.48 299.142 271.096 299.61 270.869 300.157C270.253 301.644 269.936 303.238 269.936 304.848C269.936 306.457 270.253 308.051 270.869 309.538C271.096 310.085 271.48 310.553 271.973 310.881C272.466 311.21 273.045 311.385 273.637 311.383H283.127C283.72 311.385 284.299 311.21 284.792 310.881C285.285 310.553 285.669 310.085 285.895 309.538C287.138 306.535 287.138 303.161 285.895 300.159C285.669 299.611 285.285 299.144 284.792 298.815C284.299 298.486 283.72 298.312 283.127 298.313H278.905V294.358L288.074 292.738C288.164 292.722 288.244 292.67 288.297 292.595C288.349 292.519 288.37 292.426 288.354 292.336ZM275.169 306.062H271.587C271.533 306.063 271.481 306.043 271.441 306.007C271.401 305.971 271.375 305.922 271.37 305.868C271.338 305.531 271.322 305.19 271.322 304.846C271.319 303.418 271.6 302.005 272.149 300.687C272.27 300.392 272.477 300.14 272.742 299.963C273.007 299.786 273.318 299.691 273.637 299.692H275.167C275.224 299.692 275.279 299.715 275.32 299.755C275.361 299.796 275.384 299.851 275.384 299.909V305.847C275.383 305.904 275.36 305.959 275.32 305.999C275.28 306.039 275.226 306.062 275.169 306.062ZM281.384 305.845V299.908C281.384 299.85 281.407 299.795 281.448 299.754C281.488 299.714 281.544 299.691 281.601 299.691H283.132C283.451 299.69 283.762 299.785 284.028 299.962C284.293 300.139 284.499 300.391 284.621 300.686C285.17 302.004 285.451 303.417 285.448 304.844C285.448 305.188 285.432 305.529 285.4 305.867C285.395 305.92 285.369 305.97 285.329 306.006C285.289 306.042 285.237 306.062 285.183 306.061H281.601C281.544 306.061 281.489 306.039 281.448 305.998C281.408 305.958 281.385 305.904 281.384 305.846V305.845ZM279.784 309.999H276.985C276.927 309.999 276.872 309.976 276.831 309.936C276.79 309.895 276.768 309.84 276.768 309.782V299.905C276.768 299.847 276.79 299.792 276.831 299.751C276.872 299.71 276.927 299.687 276.985 299.687H279.784C279.842 299.687 279.897 299.71 279.938 299.751C279.978 299.792 280.001 299.847 280.001 299.905V309.782C280.001 309.84 279.978 309.895 279.938 309.936C279.897 309.976 279.842 309.999 279.784 309.999Z" fill="#582C83"/>
<path d="M200.768 286H172C171.448 286 171 286.448 171 287V287.001C171 287.553 171.448 288 172 288H200.768C201.321 288 201.768 287.553 201.768 287.001V287C201.768 286.448 201.321 286 200.768 286Z" fill="#582C83"/>
<path d="M200.768 314.769H172C171.448 314.769 171 315.216 171 315.768V315.77C171 316.322 171.448 316.769 172 316.769H200.768C201.321 316.769 201.768 316.322 201.768 315.77V315.768C201.768 315.216 201.321 314.769 200.768 314.769Z" fill="#582C83"/>
<path d="M174.077 309.077H194.234C195.084 309.08 195.917 308.843 196.638 308.394C197.359 307.944 197.938 307.3 198.309 306.536C198.644 305.843 198.764 305.066 198.653 304.304C198.316 301.856 197.24 299.569 195.569 297.749C195.288 297.441 194.945 297.195 194.563 297.027C194.181 296.859 193.769 296.772 193.352 296.772H182.714L184.945 294.933C185.005 294.882 185.054 294.819 185.088 294.747C185.121 294.675 185.139 294.597 185.139 294.518C185.139 294.438 185.121 294.36 185.088 294.288C185.054 294.216 185.005 294.153 184.945 294.102L181.022 290.885C180.987 290.855 180.946 290.834 180.902 290.82C180.858 290.807 180.812 290.802 180.767 290.807C180.721 290.811 180.677 290.825 180.637 290.846C180.596 290.868 180.56 290.897 180.531 290.932L180.314 291.201C180.255 291.273 180.227 291.365 180.236 291.457C180.245 291.549 180.291 291.634 180.362 291.693L183.808 294.518L181.064 296.769H174.077V298.157H178.554C178.611 298.157 178.666 298.18 178.707 298.221C178.748 298.261 178.771 298.317 178.771 298.374V304.322C178.771 304.38 178.748 304.435 178.707 304.476C178.666 304.517 178.611 304.539 178.554 304.539H174.077V309.077ZM194.536 298.669C195.724 299.96 196.578 301.521 197.026 303.217C197.218 303.945 196.77 304.538 196.016 304.538H189.599C189.542 304.538 189.486 304.516 189.446 304.475C189.405 304.434 189.382 304.379 189.382 304.321V298.374C189.382 298.317 189.405 298.261 189.446 298.221C189.486 298.18 189.542 298.157 189.599 298.157H193.352C193.574 298.156 193.794 298.202 193.998 298.29C194.202 298.379 194.385 298.509 194.536 298.673M187.784 307.695H184.985C184.927 307.695 184.872 307.672 184.831 307.631C184.791 307.591 184.768 307.535 184.768 307.478V298.374C184.768 298.317 184.791 298.261 184.831 298.221C184.872 298.18 184.927 298.157 184.985 298.157H187.784C187.842 298.157 187.897 298.18 187.938 298.221C187.979 298.261 188.001 298.317 188.001 298.374V307.482C188.001 307.54 187.979 307.595 187.938 307.636C187.897 307.676 187.842 307.699 187.784 307.699M180.369 298.157H183.169C183.227 298.157 183.282 298.18 183.322 298.221C183.363 298.261 183.386 298.317 183.386 298.374V307.482C183.386 307.54 183.363 307.595 183.322 307.636C183.282 307.676 183.227 307.699 183.169 307.699H180.369C180.311 307.699 180.256 307.676 180.215 307.636C180.174 307.595 180.151 307.54 180.151 307.482V298.374C180.151 298.317 180.174 298.261 180.215 298.221C180.256 298.18 180.311 298.157 180.369 298.157ZM198.261 311.599H174.077V310.308H198.261C198.376 310.308 198.487 310.353 198.568 310.435C198.65 310.516 198.695 310.627 198.695 310.742V311.176C198.695 311.291 198.65 311.402 198.568 311.483C198.487 311.564 198.376 311.61 198.261 311.61" fill="#582C83"/>
<path d="M156.434 343H138.335C134.836 343 132 345.836 132 349.335V367.434C132 370.933 134.836 373.769 138.335 373.769H156.434C159.933 373.769 162.769 370.933 162.769 367.434V349.335C162.769 345.836 159.933 343 156.434 343Z" stroke="#582C83" stroke-width="1.5"/>
<path d="M152.277 365.684C152.346 365.639 152.411 365.589 152.471 365.534C153.062 365.055 153.615 364.321 154.016 363.183C154.577 361.589 154.973 360.164 155.082 358.409C155.234 356.249 154.345 352.891 153.755 351.327L153.55 350.775C153.423 350.427 152.939 349.676 152.081 348.78C151.343 348.012 150.633 347.955 149.553 347.955H145.169C144.09 347.955 143.381 348.012 142.642 348.78C141.783 349.672 141.298 350.423 141.173 350.775L140.966 351.33C140.377 352.891 139.488 356.249 139.637 358.416C139.746 360.164 140.143 361.587 140.706 363.187C141.107 364.327 141.658 365.058 142.251 365.538C142.313 365.591 142.378 365.64 142.447 365.685L139.254 369.236C139.128 369.381 139.059 369.566 139.059 369.758C139.059 369.95 139.128 370.136 139.254 370.281C139.312 370.348 139.384 370.402 139.464 370.439C139.545 370.476 139.633 370.496 139.722 370.496C139.811 370.496 139.899 370.476 139.979 370.439C140.06 370.402 140.132 370.348 140.19 370.281L141.293 369.057H153.43L154.531 370.281C154.589 370.348 154.661 370.402 154.742 370.439C154.822 370.476 154.91 370.496 154.999 370.496C155.088 370.496 155.176 370.476 155.257 370.439C155.338 370.402 155.41 370.348 155.468 370.281C155.593 370.135 155.662 369.95 155.662 369.758C155.662 369.566 155.593 369.381 155.468 369.236L152.277 365.684ZM151.206 364.389C150.989 364.389 150.777 364.325 150.597 364.204C150.417 364.084 150.277 363.913 150.194 363.712C150.111 363.512 150.09 363.292 150.132 363.079C150.174 362.867 150.279 362.672 150.432 362.518C150.585 362.365 150.78 362.261 150.993 362.219C151.205 362.176 151.425 362.198 151.626 362.281C151.826 362.363 151.997 362.504 152.118 362.684C152.238 362.864 152.303 363.076 152.303 363.292C152.302 363.583 152.187 363.862 151.981 364.068C151.775 364.273 151.497 364.389 151.206 364.389ZM141.281 357.359C140.611 357.359 141.664 351.478 142.144 351.478H152.46C152.981 351.478 154.201 357.359 153.388 357.359H141.281ZM142.398 363.292C142.398 363.075 142.462 362.863 142.583 362.683C142.703 362.502 142.875 362.362 143.075 362.279C143.276 362.196 143.496 362.174 143.709 362.216C143.922 362.258 144.118 362.363 144.271 362.516C144.424 362.67 144.529 362.865 144.571 363.078C144.614 363.291 144.592 363.512 144.509 363.712C144.426 363.913 144.285 364.084 144.105 364.205C143.924 364.325 143.712 364.389 143.495 364.389C143.351 364.39 143.208 364.361 143.075 364.306C142.942 364.251 142.821 364.17 142.719 364.068C142.617 363.967 142.536 363.845 142.481 363.712C142.426 363.579 142.398 363.436 142.398 363.292ZM142.621 367.576L143.796 366.27C144.285 366.371 144.783 366.415 145.282 366.402H149.441C149.939 366.415 150.438 366.371 150.926 366.27L152.102 367.576H142.621Z" fill="#582C83"/>
<path d="M248.434 343H230.335C226.836 343 224 345.836 224 349.335V367.434C224 370.933 226.836 373.769 230.335 373.769H248.434C251.933 373.769 254.769 370.933 254.769 367.434V349.335C254.769 345.836 251.933 343 248.434 343Z" stroke="#582C83" stroke-width="1.5"/>
<mask id="path-36-inside-1_65_483" fill="white">
<path d="M251.192 355.835C251.192 353.614 249.546 352.584 247.941 352.584H244.857C244.276 352.584 243.952 353.036 243.952 353.53V363.199C243.952 363.78 244.533 364.062 245.062 364.062C245.68 364.062 246.173 363.775 246.173 363.199V359.461H247.119L248.97 363.615C249.041 363.759 249.153 363.879 249.293 363.96C249.432 364.04 249.592 364.077 249.753 364.067C250.41 364.067 251.357 363.45 250.987 362.711L249.217 359.008C250.287 358.472 251.191 357.527 251.191 355.84M242.841 362.993C242.841 362.498 242.511 361.965 241.935 361.965H238.809V359.126H241.4C241.522 359.124 241.642 359.098 241.754 359.05C241.865 359.001 241.966 358.93 242.051 358.842C242.135 358.754 242.201 358.651 242.244 358.537C242.288 358.423 242.309 358.302 242.306 358.18C242.306 357.687 241.976 357.233 241.4 357.233H238.809V354.641H241.689C242.27 354.641 242.594 354.061 242.594 353.614C242.594 353.119 242.265 352.585 241.689 352.585H237.492C236.912 352.585 236.588 353.037 236.588 353.531V363.158C236.588 363.738 237.168 364.021 237.699 364.021H241.935C242.516 364.021 242.841 363.441 242.841 362.993ZM235.27 355.835C235.27 353.614 233.626 352.584 232.019 352.584H228.935C228.36 352.584 228.031 353.036 228.031 353.53V363.199C228.031 363.78 228.611 364.062 229.141 364.062C229.757 364.062 230.251 363.775 230.251 363.199V359.461H231.198L233.056 363.615C233.127 363.759 233.239 363.879 233.378 363.959C233.517 364.04 233.677 364.077 233.837 364.067C234.495 364.067 235.441 363.45 235.071 362.711L233.296 359.003C234.367 358.467 235.27 357.522 235.27 355.835ZM248.888 356.082C248.888 357.475 247.61 357.809 246.831 357.809H246.173V354.476H246.953C247.983 354.476 248.888 354.93 248.888 356.082ZM232.967 356.082C232.967 357.475 231.69 357.809 230.91 357.809H230.251V354.476H231.034C232.062 354.476 232.967 354.93 232.967 356.082Z"/>
</mask>
<path d="M251.192 355.835C251.192 353.614 249.546 352.584 247.941 352.584H244.857C244.276 352.584 243.952 353.036 243.952 353.53V363.199C243.952 363.78 244.533 364.062 245.062 364.062C245.68 364.062 246.173 363.775 246.173 363.199V359.461H247.119L248.97 363.615C249.041 363.759 249.153 363.879 249.293 363.96C249.432 364.04 249.592 364.077 249.753 364.067C250.41 364.067 251.357 363.45 250.987 362.711L249.217 359.008C250.287 358.472 251.191 357.527 251.191 355.84M242.841 362.993C242.841 362.498 242.511 361.965 241.935 361.965H238.809V359.126H241.4C241.522 359.124 241.642 359.098 241.754 359.05C241.865 359.001 241.966 358.93 242.051 358.842C242.135 358.754 242.201 358.651 242.244 358.537C242.288 358.423 242.309 358.302 242.306 358.18C242.306 357.687 241.976 357.233 241.4 357.233H238.809V354.641H241.689C242.27 354.641 242.594 354.061 242.594 353.614C242.594 353.119 242.265 352.585 241.689 352.585H237.492C236.912 352.585 236.588 353.037 236.588 353.531V363.158C236.588 363.738 237.168 364.021 237.699 364.021H241.935C242.516 364.021 242.841 363.441 242.841 362.993ZM235.27 355.835C235.27 353.614 233.626 352.584 232.019 352.584H228.935C228.36 352.584 228.031 353.036 228.031 353.53V363.199C228.031 363.78 228.611 364.062 229.141 364.062C229.757 364.062 230.251 363.775 230.251 363.199V359.461H231.198L233.056 363.615C233.127 363.759 233.239 363.879 233.378 363.959C233.517 364.04 233.677 364.077 233.837 364.067C234.495 364.067 235.441 363.45 235.071 362.711L233.296 359.003C234.367 358.467 235.27 357.522 235.27 355.835ZM248.888 356.082C248.888 357.475 247.61 357.809 246.831 357.809H246.173V354.476H246.953C247.983 354.476 248.888 354.93 248.888 356.082ZM232.967 356.082C232.967 357.475 231.69 357.809 230.91 357.809H230.251V354.476H231.034C232.062 354.476 232.967 354.93 232.967 356.082Z" fill="#582C83"/>
<path d="M246.173 359.461V359.31H246.022V359.461H246.173ZM247.119 359.461L247.257 359.399L247.217 359.31H247.119V359.461ZM248.97 363.615L248.832 363.676L248.835 363.682L248.97 363.615ZM249.753 364.067V363.915L249.743 363.916L249.753 364.067ZM250.987 362.711L250.851 362.776L250.852 362.778L250.987 362.711ZM249.217 359.008L249.15 358.873L249.017 358.939L249.081 359.073L249.217 359.008ZM238.809 361.965H238.658V362.116H238.809V361.965ZM238.809 359.126V358.975H238.658V359.126H238.809ZM241.4 359.126V359.277L241.403 359.277L241.4 359.126ZM242.306 358.18H242.155L242.155 358.184L242.306 358.18ZM238.809 357.233H238.658V357.384H238.809V357.233ZM238.809 354.641V354.49H238.658V354.641H238.809ZM230.251 359.461V359.31H230.1V359.461H230.251ZM231.198 359.461L231.336 359.399L231.296 359.31H231.198V359.461ZM233.056 363.615L232.918 363.677L232.92 363.682L233.056 363.615ZM233.837 364.067V363.915L233.827 363.916L233.837 364.067ZM235.071 362.711L234.935 362.776L234.936 362.778L235.071 362.711ZM233.296 359.003L233.228 358.868L233.096 358.935L233.16 359.069L233.296 359.003ZM246.173 357.809H246.022V357.96H246.173V357.809ZM246.173 354.476V354.326H246.022V354.476H246.173ZM230.251 357.809H230.1V357.96H230.251V357.809ZM230.251 354.476V354.326H230.1V354.476H230.251ZM251.192 355.835H251.343C251.343 354.684 250.915 353.828 250.268 353.263C249.624 352.7 248.774 352.433 247.941 352.433V352.584V352.735C248.713 352.735 249.489 352.983 250.069 353.49C250.646 353.995 251.041 354.765 251.041 355.835H251.192ZM247.941 352.584V352.433H244.857V352.584V352.735H247.941V352.584ZM244.857 352.584V352.433C244.524 352.433 244.256 352.564 244.073 352.772C243.892 352.978 243.801 353.251 243.801 353.53H243.952H244.103C244.103 353.315 244.174 353.115 244.3 352.971C244.424 352.83 244.609 352.735 244.857 352.735V352.584ZM243.952 353.53H243.801V363.199H243.952H244.103V353.53H243.952ZM243.952 363.199H243.801C243.801 363.548 243.978 363.807 244.224 363.973C244.465 364.137 244.773 364.213 245.062 364.213V364.062V363.911C244.821 363.911 244.575 363.846 244.393 363.723C244.216 363.603 244.103 363.431 244.103 363.199H243.952ZM245.062 364.062V364.213C245.392 364.213 245.703 364.137 245.937 363.969C246.177 363.798 246.324 363.537 246.324 363.199H246.173H246.022C246.022 363.438 245.923 363.608 245.761 363.724C245.594 363.844 245.35 363.911 245.062 363.911V364.062ZM246.173 363.199H246.324V359.461H246.173H246.022V363.199H246.173ZM246.173 359.461V359.612H247.119V359.461V359.31H246.173V359.461ZM247.119 359.461L246.982 359.522L248.832 363.676L248.97 363.615L249.108 363.554L247.257 359.399L247.119 359.461ZM248.97 363.615L248.835 363.682C248.919 363.853 249.052 363.995 249.217 364.09L249.293 363.96L249.368 363.829C249.255 363.763 249.163 363.666 249.105 363.548L248.97 363.615ZM249.293 363.96L249.217 364.09C249.383 364.186 249.572 364.23 249.763 364.217L249.753 364.067L249.743 363.916C249.612 363.925 249.482 363.894 249.368 363.829L249.293 363.96ZM249.753 364.067V364.218C250.12 364.218 250.557 364.048 250.856 363.778C251.007 363.641 251.131 363.472 251.188 363.277C251.245 363.078 251.231 362.861 251.122 362.643L250.987 362.711L250.852 362.778C250.928 362.93 250.934 363.068 250.898 363.192C250.86 363.32 250.775 363.444 250.654 363.554C250.407 363.777 250.042 363.916 249.753 363.916V364.067ZM250.987 362.711L251.123 362.645L249.354 358.943L249.217 359.008L249.081 359.073L250.851 362.776L250.987 362.711ZM249.217 359.008L249.285 359.143C249.836 358.867 250.351 358.482 250.729 357.942C251.108 357.4 251.342 356.712 251.342 355.84H251.191H251.04C251.04 356.654 250.822 357.282 250.482 357.769C250.14 358.257 249.668 358.613 249.15 358.873L249.217 359.008ZM242.841 362.993H242.992C242.992 362.449 242.626 361.814 241.935 361.814V361.965V362.116C242.397 362.116 242.69 362.547 242.69 362.993H242.841ZM241.935 361.965V361.814H238.809V361.965V362.116H241.935V361.965ZM238.809 361.965H238.96V359.126H238.809H238.658V361.965H238.809ZM238.809 359.126V359.277H241.4V359.126V358.975H238.809V359.126ZM241.4 359.126L241.403 359.277C241.544 359.275 241.684 359.245 241.814 359.188L241.754 359.05L241.693 358.911C241.6 358.952 241.5 358.974 241.398 358.976L241.4 359.126ZM241.754 359.05L241.814 359.188C241.944 359.131 242.062 359.049 242.16 358.947L242.051 358.842L241.941 358.738C241.871 358.812 241.787 358.871 241.693 358.911L241.754 359.05ZM242.051 358.842L242.16 358.947C242.258 358.844 242.334 358.723 242.385 358.591L242.244 358.537L242.104 358.483C242.067 358.578 242.012 358.664 241.941 358.738L242.051 358.842ZM242.244 358.537L242.385 358.591C242.436 358.459 242.461 358.318 242.457 358.176L242.306 358.18L242.155 358.184C242.158 358.286 242.14 358.388 242.104 358.483L242.244 358.537ZM242.306 358.18H242.457C242.457 357.622 242.077 357.082 241.4 357.082V357.233V357.384C241.875 357.384 242.155 357.752 242.155 358.18H242.306ZM241.4 357.233V357.082H238.809V357.233V357.384H241.4V357.233ZM238.809 357.233H238.96V354.641H238.809H238.658V357.233H238.809ZM238.809 354.641V354.792H241.689V354.641V354.49H238.809V354.641ZM241.689 354.641V354.792C242.036 354.792 242.303 354.617 242.479 354.387C242.653 354.159 242.745 353.87 242.745 353.614H242.594H242.443C242.443 353.805 242.372 354.029 242.239 354.204C242.108 354.375 241.923 354.49 241.689 354.49V354.641ZM242.594 353.614H242.745C242.745 353.071 242.38 352.434 241.689 352.434V352.585V352.736C242.15 352.736 242.443 353.167 242.443 353.614H242.594ZM241.689 352.585V352.434H237.492V352.585V352.736H241.689V352.585ZM237.492 352.585V352.434C237.159 352.434 236.892 352.565 236.709 352.773C236.528 352.979 236.437 353.252 236.437 353.531H236.588H236.739C236.739 353.316 236.809 353.116 236.936 352.972C237.06 352.831 237.244 352.736 237.492 352.736V352.585ZM236.588 353.531H236.437V363.158H236.588H236.739V353.531H236.588ZM236.588 363.158H236.437C236.437 363.506 236.614 363.766 236.859 363.932C237.101 364.096 237.41 364.172 237.699 364.172V364.021V363.87C237.457 363.87 237.211 363.805 237.029 363.682C236.851 363.562 236.739 363.389 236.739 363.158H236.588ZM237.699 364.021V364.172H241.935V364.021V363.87H237.699V364.021ZM241.935 364.021V364.172C242.282 364.172 242.549 363.997 242.726 363.767C242.9 363.539 242.992 363.25 242.992 362.993H242.841H242.69C242.69 363.184 242.619 363.409 242.486 363.583C242.355 363.755 242.17 363.87 241.935 363.87V364.021ZM235.27 355.835H235.421C235.421 354.684 234.993 353.829 234.346 353.263C233.703 352.7 232.853 352.433 232.019 352.433V352.584V352.735C232.792 352.735 233.567 352.983 234.148 353.49C234.725 353.995 235.119 354.765 235.119 355.835H235.27ZM232.019 352.584V352.433H228.935V352.584V352.735H232.019V352.584ZM228.935 352.584V352.433C228.26 352.433 227.88 352.97 227.88 353.53H228.031H228.182C228.182 353.101 228.461 352.735 228.935 352.735V352.584ZM228.031 353.53H227.88V363.199H228.031H228.182V353.53H228.031ZM228.031 363.199H227.88C227.88 363.548 228.057 363.807 228.303 363.973C228.544 364.137 228.852 364.213 229.141 364.213V364.062V363.911C228.9 363.911 228.653 363.846 228.472 363.723C228.295 363.603 228.182 363.431 228.182 363.199H228.031ZM229.141 364.062V364.213C229.47 364.213 229.781 364.137 230.015 363.969C230.254 363.798 230.402 363.537 230.402 363.199H230.251H230.1C230.1 363.438 230 363.608 229.839 363.724C229.672 363.844 229.428 363.911 229.141 363.911V364.062ZM230.251 363.199H230.402V359.461H230.251H230.1V363.199H230.251ZM230.251 359.461V359.612H231.198V359.461V359.31H230.251V359.461ZM231.198 359.461L231.06 359.522L232.918 363.677L233.056 363.615L233.194 363.553L231.336 359.399L231.198 359.461ZM233.056 363.615L232.92 363.682C233.005 363.853 233.138 363.995 233.302 364.09L233.378 363.959L233.453 363.829C233.34 363.763 233.249 363.666 233.191 363.548L233.056 363.615ZM233.378 363.959L233.302 364.09C233.467 364.185 233.657 364.23 233.847 364.217L233.837 364.067L233.827 363.916C233.697 363.924 233.567 363.894 233.453 363.829L233.378 363.959ZM233.837 364.067V364.218C234.206 364.218 234.642 364.048 234.941 363.778C235.092 363.641 235.215 363.472 235.272 363.277C235.329 363.078 235.315 362.861 235.206 362.643L235.071 362.711L234.936 362.778C235.012 362.93 235.018 363.068 234.982 363.192C234.945 363.32 234.86 363.444 234.738 363.554C234.492 363.777 234.127 363.916 233.837 363.916V364.067ZM235.071 362.711L235.207 362.645L233.432 358.938L233.296 359.003L233.16 359.069L234.935 362.776L235.071 362.711ZM233.296 359.003L233.364 359.138C233.915 358.862 234.43 358.477 234.808 357.937C235.187 357.396 235.421 356.707 235.421 355.835H235.27H235.119C235.119 356.65 234.901 357.277 234.561 357.764C234.219 358.253 233.748 358.608 233.228 358.868L233.296 359.003ZM248.888 356.082H248.737C248.737 356.723 248.448 357.107 248.072 357.339C247.688 357.577 247.204 357.658 246.831 357.658V357.809V357.96C247.238 357.96 247.782 357.873 248.231 357.596C248.689 357.313 249.039 356.835 249.039 356.082H248.888ZM246.831 357.809V357.658H246.173V357.809V357.96H246.831V357.809ZM246.173 357.809H246.324V354.476H246.173H246.022V357.809H246.173ZM246.173 354.476V354.627H246.953V354.476V354.326H246.173V354.476ZM246.953 354.476V354.627C247.449 354.627 247.898 354.737 248.218 354.97C248.531 355.197 248.737 355.552 248.737 356.082H248.888H249.039C249.039 355.461 248.792 355.013 248.395 354.725C248.006 354.443 247.487 354.326 246.953 354.326V354.476ZM232.967 356.082H232.817C232.817 356.723 232.528 357.107 232.152 357.339C231.767 357.577 231.284 357.658 230.91 357.658V357.809V357.96C231.317 357.96 231.862 357.873 232.311 357.596C232.769 357.313 233.118 356.835 233.118 356.082H232.967ZM230.91 357.809V357.658H230.251V357.809V357.96H230.91V357.809ZM230.251 357.809H230.402V354.476H230.251H230.1V357.809H230.251ZM230.251 354.476V354.627H231.034V354.476V354.326H230.251V354.476ZM231.034 354.476V354.627C231.529 354.627 231.977 354.737 232.298 354.97C232.611 355.197 232.817 355.552 232.817 356.082H232.967H233.118C233.118 355.461 232.871 355.013 232.475 354.725C232.086 354.443 231.567 354.326 231.034 354.326V354.476Z" fill="#582C83" mask="url(#path-36-inside-1_65_483)"/>
<path d="M55.3846 373.769C63.8813 373.769 70.7692 366.881 70.7692 358.385C70.7692 349.888 63.8813 343 55.3846 343C46.8879 343 40 349.888 40 358.385C40 366.881 46.8879 373.769 55.3846 373.769Z" stroke="#582C83" stroke-width="1.5"/>
<mask id="path-39-inside-2_65_483" fill="white">
<path d="M63.5715 365.747V351.392C63.5715 350.569 63.1188 349.705 61.7604 349.705C60.733 349.705 60.3208 350.158 59.8692 351.062L55.4262 360.319H55.3855L50.9007 351.062C50.4479 350.158 50.0369 349.709 49.0083 349.709C47.6511 349.709 47.1984 350.569 47.1984 351.392V365.747C47.1984 366.53 47.816 366.983 48.5567 366.983C49.2138 366.983 49.9499 366.53 49.9499 365.747V355.049H49.9917L54.069 363.362C54.3558 363.942 54.7273 364.267 55.3855 364.267C56.0438 364.267 56.413 363.937 56.7009 363.362L60.7736 355.049H60.8154V365.744C60.8154 366.526 61.5549 366.979 62.2144 366.979C62.9539 366.979 63.5715 366.526 63.5715 365.744"/>
</mask>
<path d="M63.5715 365.747V351.392C63.5715 350.569 63.1188 349.705 61.7604 349.705C60.733 349.705 60.3208 350.158 59.8692 351.062L55.4262 360.319H55.3855L50.9007 351.062C50.4479 350.158 50.0369 349.709 49.0083 349.709C47.6511 349.709 47.1984 350.569 47.1984 351.392V365.747C47.1984 366.53 47.816 366.983 48.5567 366.983C49.2138 366.983 49.9499 366.53 49.9499 365.747V355.049H49.9917L54.069 363.362C54.3558 363.942 54.7273 364.267 55.3855 364.267C56.0438 364.267 56.413 363.937 56.7009 363.362L60.7736 355.049H60.8154V365.744C60.8154 366.526 61.5549 366.979 62.2144 366.979C62.9539 366.979 63.5715 366.526 63.5715 365.744" fill="#582C83"/>
<path d="M59.8692 351.062L59.7848 351.02L59.7842 351.021L59.8692 351.062ZM55.4262 360.319V360.413H55.4855L55.5112 360.36L55.4262 360.319ZM55.3855 360.319L55.3006 360.36L55.3264 360.413H55.3855V360.319ZM50.9007 351.062L50.9856 351.021L50.9851 351.02L50.9007 351.062ZM49.9499 355.049V354.955H49.8555V355.049H49.9499ZM49.9917 355.049L50.0764 355.008L50.0505 354.955H49.9917V355.049ZM54.069 363.362L53.9843 363.403L53.9844 363.403L54.069 363.362ZM56.7009 363.362L56.7853 363.404L56.7856 363.403L56.7009 363.362ZM60.7736 355.049V354.955H60.7148L60.6889 355.008L60.7736 355.049ZM60.8154 355.049H60.9097V354.955H60.8154V355.049ZM63.5715 365.747H63.6659V351.392H63.5715H63.4772V365.747H63.5715ZM63.5715 351.392H63.6659C63.6659 350.965 63.5484 350.518 63.2459 350.177C62.9415 349.834 62.4608 349.611 61.7604 349.611V349.705V349.799C62.4184 349.799 62.8432 350.008 63.1048 350.303C63.3683 350.599 63.4772 350.996 63.4772 351.392H63.5715ZM61.7604 349.705V349.611C61.2318 349.611 60.8494 349.728 60.5406 349.97C60.2354 350.21 60.0118 350.566 59.7848 351.02L59.8692 351.062L59.9536 351.104C60.1782 350.655 60.3866 350.331 60.6572 350.119C60.9242 349.909 61.2616 349.799 61.7604 349.799V349.705ZM59.8692 351.062L59.7842 351.021L55.3411 360.278L55.4262 360.319L55.5112 360.36L59.9542 351.103L59.8692 351.062ZM55.4262 360.319V360.224H55.3855V360.319V360.413H55.4262V360.319ZM55.3855 360.319L55.4704 360.278L50.9856 351.021L50.9007 351.062L50.8158 351.103L55.3006 360.36L55.3855 360.319ZM50.9007 351.062L50.9851 351.02C50.7575 350.566 50.5339 350.211 50.2286 349.972C49.9197 349.73 49.5374 349.614 49.0083 349.614V349.709V349.803C49.5079 349.803 49.8454 349.912 50.1123 350.121C50.3828 350.332 50.5911 350.655 50.8164 351.105L50.9007 351.062ZM49.0083 349.709V349.614C48.3087 349.614 47.8282 349.837 47.5239 350.179C47.2215 350.519 47.104 350.965 47.104 351.392H47.1984H47.2927C47.2927 350.996 47.4016 350.6 47.6649 350.304C47.9263 350.011 48.3508 349.803 49.0083 349.803V349.709ZM47.1984 351.392H47.104V365.747H47.1984H47.2927V351.392H47.1984ZM47.1984 365.747H47.104C47.104 366.166 47.2701 366.501 47.5385 366.73C47.8053 366.958 48.1678 367.077 48.5567 367.077V366.983V366.888C48.2049 366.888 47.8882 366.781 47.661 366.587C47.4355 366.394 47.2927 366.112 47.2927 365.747H47.1984ZM48.5567 366.983V367.077C48.9054 367.077 49.2746 366.957 49.5583 366.732C49.8437 366.506 50.0442 366.171 50.0442 365.747H49.9499H49.8555C49.8555 366.106 49.688 366.389 49.4411 366.585C49.1925 366.782 48.8651 366.888 48.5567 366.888V366.983ZM49.9499 365.747H50.0442V355.049H49.9499H49.8555V365.747H49.9499ZM49.9499 355.049V355.143H49.9917V355.049V354.955H49.9499V355.049ZM49.9917 355.049L49.907 355.091L53.9843 363.403L54.069 363.362L54.1537 363.32L50.0764 355.008L49.9917 355.049ZM54.069 363.362L53.9844 363.403C54.1315 363.701 54.3045 363.942 54.5324 364.108C54.762 364.276 55.0397 364.362 55.3855 364.362V364.267V364.173C55.0731 364.173 54.8359 364.096 54.6435 363.956C54.4494 363.814 54.2933 363.603 54.1536 363.32L54.069 363.362ZM55.3855 364.267V364.362C55.7317 364.362 56.0089 364.274 56.2379 364.106C56.4651 363.94 56.6377 363.699 56.7853 363.404L56.7009 363.362L56.6165 363.319C56.4762 363.6 56.3202 363.812 56.1263 363.954C55.9342 364.095 55.6976 364.173 55.3855 364.173V364.267ZM56.7009 363.362L56.7856 363.403L60.8583 355.091L60.7736 355.049L60.6889 355.008L56.6162 363.32L56.7009 363.362ZM60.7736 355.049V355.143H60.8154V355.049V354.955H60.7736V355.049ZM60.8154 355.049H60.7211V365.744H60.8154H60.9097V355.049H60.8154ZM60.8154 365.744H60.7211C60.7211 366.168 60.9226 366.503 61.2092 366.729C61.494 366.954 61.8646 367.074 62.2144 367.074V366.979V366.885C61.9047 366.885 61.5758 366.778 61.326 366.581C61.078 366.385 60.9097 366.102 60.9097 365.744H60.8154ZM62.2144 366.979V367.074C62.6027 367.074 62.9649 366.955 63.2316 366.727C63.4998 366.497 63.6659 366.162 63.6659 365.744H63.5715H63.4772C63.4772 366.108 63.3344 366.391 63.109 366.583C62.882 366.777 62.5656 366.885 62.2144 366.885V366.979Z" fill="#582C83" mask="url(#path-39-inside-2_65_483)"/>
<path d="M435.997 373.693C435.979 373.807 435.873 373.898 435.684 373.912C434.002 374.03 430.139 374.294 428.866 372.568C427.016 370.07 424.942 367.188 423.26 364.889C421.805 362.906 419.697 362.71 418.285 364.631C416.712 366.777 414.202 370.158 413.197 371.518C412.587 372.38 411.809 373.114 410.908 373.675C410.12 374.141 409.691 373.87 410.261 373.107C412.702 369.817 414.681 367.109 416.99 364.004C419.929 360.065 424.295 357.558 427.873 362.469C431.198 367.031 434.879 372.04 435.934 373.475C435.987 373.548 436.008 373.625 435.997 373.693ZM433.553 350.355C433.553 350.577 433.225 351.039 432.759 351.531C429.24 355.246 426.054 356.2 421.839 356.826C417.623 357.452 416.05 357.212 411.027 359.717C409.649 360.401 410.041 359.582 410.918 358.656C414.437 354.942 417.623 353.987 421.839 353.361C426.054 352.734 427.627 352.975 432.65 350.471C433.296 350.15 433.553 350.159 433.553 350.355ZM425.608 346.294C425.617 346.999 425.46 347.748 425.12 348.469C424.13 350.566 421.973 351.658 420.294 350.891C418.619 350.116 418.056 347.771 419.045 345.674C420.035 343.577 422.194 342.469 423.869 343.252C424.969 343.765 425.591 344.948 425.608 346.294Z" fill="#582C83"/>
<path d="M316.004 343H344.996C345.554 343 346 343.444 346 344C346 344.555 345.554 345 344.996 345H316.004C315.446 345.012 315 344.555 315 344C315 343.444 315.446 343 316.004 343Z" fill="#582C83"/>
<path d="M316.004 372H344.996C345.554 372 346 372.444 346 373C346 373.556 345.554 374 344.996 374H316.004C315.446 374 315 373.556 315 373C315 372.444 315.446 372 316.004 372Z" fill="#582C83"/>
<path d="M329.018 358.638L329.244 357.815L329.783 355.819L329.883 355.969C329.908 355.994 329.92 356.019 329.945 356.056C330.033 356.168 330.146 356.256 330.271 356.318C330.334 356.355 330.396 356.38 330.459 356.405L331.574 356.817C332.201 356.717 332.789 356.43 333.266 356.019L330.948 355.145C330.948 355.145 330.133 353.811 329.745 353.449C329.62 353.324 329.444 353.237 329.269 353.212C329.181 353.187 329.093 353.187 329.006 353.187C328.918 353.187 328.843 353.199 328.755 353.224H328.73C328.718 353.224 328.718 353.224 328.705 353.237C328.016 353.424 327.49 353.96 327.302 354.646L326.425 357.952C326.4 358.102 326.4 358.252 326.425 358.401C326.475 358.613 326.575 358.813 326.738 358.975L327.014 359.287L327.477 359.811L329.707 362.143L329.093 366.509C329.081 366.921 329.407 367.27 329.82 367.295C329.958 367.295 330.083 367.27 330.196 367.208C330.334 367.083 330.422 366.909 330.447 366.734L331.223 362.38C331.248 362.281 331.248 362.181 331.236 362.081C331.223 361.881 331.161 361.694 331.035 361.52L329.018 358.638ZM329.507 352.613C329.858 352.688 330.259 352.713 330.547 352.526C330.835 352.339 330.985 351.965 331.06 351.615C331.136 351.266 331.161 350.867 330.973 350.567C330.785 350.268 330.409 350.131 330.058 350.056C329.707 349.981 329.306 349.956 329.006 350.143C328.705 350.33 328.567 350.705 328.492 351.054C328.417 351.403 328.392 351.802 328.58 352.102C328.768 352.414 329.156 352.538 329.507 352.613ZM341.998 364.788C341.923 362.83 340.457 361.195 338.503 360.896C337.839 360.796 337.149 360.871 336.511 361.096L334.343 357.353C334.944 356.854 335.421 356.218 335.734 355.507C335.809 355.345 335.734 355.158 335.571 355.096C335.571 355.096 335.558 355.096 335.558 355.083L335.12 354.921C334.969 354.871 334.794 354.933 334.731 355.083C334.067 356.555 332.589 357.491 330.973 357.466C330.81 357.466 330.66 357.578 330.647 357.753L330.609 358.214C330.597 358.389 330.722 358.538 330.898 358.551C330.91 358.551 330.91 358.551 330.923 358.551C331.699 358.563 332.476 358.414 333.178 358.089L333.779 359.125L331.938 362.044L331.324 365.474C331.461 365.399 331.587 365.287 331.662 365.15L334.569 360.522L335.32 361.807C333.591 363.254 333.366 365.823 334.807 367.545C336.26 369.266 338.841 369.491 340.57 368.056C341.497 367.245 342.036 366.048 341.998 364.788ZM337.575 367.882C335.934 367.694 334.769 366.222 334.957 364.588C335.032 363.902 335.358 363.266 335.859 362.78L337.337 365.337C337.463 365.561 337.751 365.636 337.976 365.511L338.39 365.274C338.615 365.15 338.691 364.863 338.565 364.638L337.074 362.081C338.653 361.607 340.319 362.505 340.783 364.077C341.246 365.649 340.357 367.308 338.778 367.769C338.39 367.894 337.976 367.919 337.575 367.882ZM328.091 364.164C327.953 363.428 327.603 362.742 327.101 362.181L327.891 361.146L326.901 360.11L325.999 361.308C325.147 360.859 324.145 360.721 323.205 360.933C321 361.42 319.609 363.603 320.098 365.786C320.586 367.981 322.779 369.366 324.971 368.879C326.6 368.518 327.853 367.195 328.116 365.549H328.58L328.78 364.139L328.091 364.164ZM326.412 363.091C326.663 363.403 326.851 363.778 326.951 364.164H325.585L326.412 363.091ZM324.082 367.906C322.428 367.919 321.088 366.597 321.088 364.95C321.075 363.615 321.977 362.43 323.268 362.069C323.944 361.869 324.671 361.931 325.31 362.218L323.518 364.576C323.305 364.85 323.368 365.237 323.643 365.449C323.756 365.536 323.881 365.574 324.019 365.574H327.001C326.688 366.934 325.473 367.894 324.082 367.906Z" fill="#582C83"/>
<path d="M445.235 227.741C445.316 229.626 445.817 231.471 446.701 233.141C447.619 234.801 448.994 236.166 450.669 237.079C451.843 237.746 453.115 238.226 454.439 238.498C456.108 238.816 457.81 238.933 459.509 238.847C460.538 238.812 461.566 238.78 462.492 238.687C463.045 238.665 463.596 238.607 464.144 238.52L463.749 242.266C463.249 242.35 462.745 242.403 462.239 242.428C461.397 242.455 460.411 242.539 459.287 242.579C456.601 242.727 453.906 242.418 451.325 241.664C449.267 241.062 447.361 240.044 445.73 238.669C444.374 237.464 443.251 236.027 442.418 234.426C441.461 232.61 440.945 230.602 440.906 228.555C440.817 226.573 441.096 224.594 441.733 222.71C442.361 220.94 443.289 219.289 444.478 217.829C445.562 216.52 446.936 215.475 448.493 214.776C450.098 214.04 451.836 213.635 453.602 213.587C455.119 213.468 456.645 213.663 458.081 214.16C459.517 214.658 460.834 215.445 461.944 216.472C463.118 217.735 464.027 219.215 464.62 220.826C465.331 222.836 465.707 224.948 465.733 227.076L445.235 227.741ZM458.663 218.718C457.97 218.077 457.146 217.584 456.247 217.274C455.352 216.965 454.398 216.843 453.451 216.918C451.491 216.934 449.616 217.718 448.242 219.097C446.794 220.625 445.838 222.543 445.497 224.61L461.282 224.081C461.022 222.07 460.103 220.196 458.666 218.747L458.663 218.718ZM491.954 231.785C492.021 233.697 492.077 235.341 492.126 236.743C492.175 238.146 492.213 239.253 492.244 240.096C492.274 240.939 492.287 241.357 492.29 241.466C492.107 241.474 491.264 241.563 489.665 241.759C488.063 241.955 486.081 242.071 483.601 242.156C482.033 242.197 480.465 242.1 478.914 241.864C477.485 241.67 476.089 241.3 474.755 240.763C473.306 240.189 472.019 239.281 471.004 238.111C470.004 236.904 469.457 235.392 469.454 233.829C469.368 232.156 469.898 230.508 470.953 229.193C472.161 227.744 473.71 226.609 475.461 225.879C477.032 225.24 478.654 224.737 480.315 224.374C482.633 223.858 484.977 223.466 487.34 223.192C487 220.336 485.637 218.49 483.252 217.655C481.205 216.977 479.042 216.704 476.889 216.849C476.047 216.88 475.314 216.904 474.717 216.922L472.317 217.177L472.589 213.444C472.896 213.435 473.469 213.332 474.301 213.265C475.136 213.196 476.277 213.149 477.746 213.098C479.75 213.005 481.759 213.171 483.718 213.59C485.357 213.92 486.887 214.635 488.181 215.679C488.706 216.129 489.181 216.63 489.601 217.178C490.052 217.797 490.422 218.466 490.702 219.176C491.047 220.025 491.291 220.91 491.432 221.814C491.619 222.999 491.73 224.197 491.762 225.395C491.816 227.772 491.887 229.876 491.954 231.785ZM487.426 226.598C486.577 226.666 485.114 226.888 483.031 227.264C481.262 227.563 479.527 228.021 477.846 228.638C476.813 229.06 475.877 229.685 475.096 230.48C474.703 230.868 474.395 231.335 474.197 231.849C473.997 232.366 473.913 232.918 473.944 233.467C473.92 234.577 474.327 235.655 475.078 236.478C475.901 237.288 476.922 237.869 478.043 238.161C479.058 238.459 480.1 238.657 481.154 238.748C482.343 238.865 483.538 238.903 484.732 238.862L486.121 238.817L487.857 238.667L487.438 226.596L487.426 226.598ZM514.518 236.173C513.894 237.277 512.999 238.207 511.911 238.872C510.69 239.689 509.334 240.289 507.905 240.644C506.205 241.073 504.461 241.311 502.706 241.359C502.233 241.375 501.748 241.369 501.253 241.344C500.747 241.363 500.272 241.317 499.819 241.311C499.366 241.305 498.998 241.338 498.685 241.259C498.493 241.236 498.3 241.225 498.108 241.226L497.804 237.566C498.037 237.561 498.272 237.57 498.505 237.591L499.817 237.671L501.475 237.697C502.051 237.678 502.628 237.658 503.216 237.639C504.068 237.595 504.916 237.509 505.761 237.379C506.64 237.278 507.492 237.037 508.291 236.665C509.094 236.416 509.788 235.912 510.271 235.231C510.751 234.552 510.992 233.734 510.951 232.905C510.959 232.237 510.731 231.588 510.312 231.063C509.832 230.544 509.265 230.11 508.639 229.778C508.175 229.487 507.692 229.232 507.19 229.013L505.444 228.248C504.857 227.971 504.271 227.717 503.675 227.473C503.079 227.227 502.555 226.97 502.083 226.722C500.91 226.076 499.895 225.179 499.118 224.095C498.386 223.03 497.986 221.779 497.963 220.494C497.9 219.166 498.252 217.852 498.963 216.728C499.704 215.574 500.738 214.632 501.959 213.992C503.085 213.336 504.315 212.884 505.602 212.659C506.895 212.434 508.199 212.295 509.512 212.245C510.67 212.206 511.62 212.195 512.354 212.209L513.643 212.228L514.059 215.937C513.935 215.942 513.37 215.96 512.339 215.883C511.304 215.806 510.184 215.843 508.937 215.885C508.102 215.905 507.272 216.01 506.455 216.19C505.777 216.34 505.12 216.572 504.501 216.887C503.805 217.238 503.219 217.777 502.815 218.44C502.506 218.942 502.346 219.522 502.347 220.112C502.355 220.829 502.637 221.518 503.136 222.04C503.65 222.568 504.246 223.011 504.903 223.352C505.292 223.574 505.751 223.803 506.287 224.058C506.82 224.315 507.418 224.571 508.087 224.854L509.853 225.629C510.368 225.864 510.785 226.066 511.102 226.248C512.313 226.898 513.372 227.791 514.211 228.87C514.955 229.909 515.359 231.149 515.366 232.42C515.448 233.727 515.155 235.026 514.518 236.173ZM541.803 225.039L536.303 238.355C534.4 242.933 532.962 246.434 531.98 248.854C531.034 251.276 530.443 252.638 530.301 252.979L526.299 251.669L531.81 239.501C531.721 239.31 531.364 238.551 530.699 237.209C530.034 235.869 529.132 233.947 527.924 231.424C526.713 228.901 525.379 226.169 523.948 223.218C522.516 220.264 520.91 217.033 519.171 213.531L523.398 211.559C524.519 214.155 525.638 216.71 526.757 219.218C527.872 221.722 529.062 224.226 530.233 226.76L532.902 232.436C533.503 233.74 533.849 234.439 533.937 234.609L533.987 234.609C533.986 234.535 534.291 233.865 534.793 232.607C535.297 231.35 536.006 229.515 536.929 227.053C537.853 224.591 538.816 222.069 539.856 219.419C540.896 216.77 541.954 213.958 543.056 211.021L547 212.437C545.296 216.542 543.562 220.743 541.803 225.039Z" fill="#9771B4"/>
<path d="M393.529 253C391.317 251.826 389.261 250.381 387.411 248.698C387.973 248.659 388.503 248.602 389.014 248.541C390.505 248.389 391.971 248.061 393.382 247.562C395.39 246.806 396.679 245.845 397.376 244.765C398.023 243.734 398.408 242.562 398.502 241.35L398.125 241.352C395.825 241.345 393.535 241.081 391.294 240.568C389.106 240.118 387.027 239.247 385.172 238.01L385.144 238.033C383.285 236.824 381.776 235.153 380.765 233.185C379.755 231.218 379.278 229.022 379.383 226.816C379.341 224.244 380.131 221.729 381.634 219.638C383.17 217.564 385.198 215.901 387.54 214.802C389.336 213.938 391.253 213.346 393.224 213.045C395.625 212.694 398.051 212.532 400.477 212.559H403.601C403.84 212.588 404.06 212.703 404.22 212.883C404.379 213.061 404.467 213.292 404.468 213.532V215.317C404.467 216.178 404.467 217.31 404.466 218.731C404.433 221.898 404.415 224.904 404.416 227.755C404.416 229.696 404.381 231.66 404.416 233.679C404.449 235.7 404.45 237.541 404.45 239.219C404.45 242.369 403.927 244.938 402.762 246.879C401.582 248.792 399.901 250.351 397.899 251.388C396.504 252.078 395.039 252.62 393.529 253ZM350.493 241.391C350.065 240.391 348.598 237.089 346.556 232.557C343.981 226.92 341.381 221.197 338.756 215.385L338.407 214.578L343.994 212.077L353.077 233.447L361.349 213.461C361.454 213.287 361.603 213.144 361.782 213.047C361.96 212.948 362.163 212.897 362.367 212.9H374.858C374.99 212.901 375.119 212.926 375.241 212.977C375.362 213.028 375.47 213.104 375.562 213.197C375.653 213.291 375.725 213.402 375.772 213.525C375.82 213.647 375.84 213.777 375.837 213.907V240.374C375.841 240.499 375.82 240.626 375.774 240.745C375.728 240.864 375.658 240.972 375.571 241.065C375.483 241.156 375.38 241.23 375.262 241.281C375.146 241.333 375.018 241.36 374.891 241.363H370.39C370.261 241.363 370.135 241.337 370.017 241.288C369.897 241.238 369.788 241.166 369.697 241.075C369.607 240.985 369.535 240.877 369.487 240.759C369.438 240.639 369.416 240.511 369.417 240.383V218.065H365.552C363.576 222.541 361.522 227.191 359.362 232.053C357.2 236.915 355.687 240.362 355.215 241.391H350.493ZM420.964 241.354C419.197 241.361 417.441 241.059 415.776 240.465C414.167 239.883 412.686 238.999 411.41 237.862C409.936 236.493 408.784 234.819 408.035 232.956C407.241 231.028 406.836 228.962 406.841 226.88C406.826 224.939 407.174 223.014 407.866 221.2C408.574 219.414 409.665 217.803 411.062 216.478C412.351 215.213 413.88 214.219 415.563 213.552C417.292 212.87 419.139 212.522 420.999 212.527C422.854 212.503 424.698 212.828 426.435 213.479C428.081 214.106 429.574 215.072 430.817 216.315C432.235 217.674 433.347 219.316 434.075 221.133C434.788 222.991 435.143 224.964 435.122 226.951C435.13 229 434.729 231.03 433.941 232.923C433.24 234.632 432.197 236.181 430.876 237.476C429.555 238.773 427.981 239.79 426.253 240.465C424.559 241.078 422.768 241.38 420.964 241.354ZM324.885 241.343L324.684 241.309H318.55C316.795 241.341 315.041 241.18 313.322 240.827C311.81 240.559 310.349 240.053 308.996 239.328C307.851 238.626 306.889 237.67 306.182 236.532C305.626 235.566 305.311 234.482 305.265 233.371L305.263 233.319L305.265 230.736C305.265 229.807 305.27 228.43 305.265 226.607C305.259 224.782 305.231 223.45 305.231 222.622C305.185 220.653 304.725 219.314 304.235 218.704C303.745 218.094 302.749 217.676 301.061 217.676C299.761 217.743 298.488 218.054 297.303 218.588C295.785 219.192 294.317 219.916 292.915 220.753C292.915 221.268 292.914 222.164 292.914 223.467C292.914 225.397 292.913 227.188 292.914 228.754C292.913 230.321 292.913 241.168 292.914 241.314H287V212.818L293.072 212.82V215.382C294.73 214.452 296.467 213.664 298.26 213.027C299.703 212.489 301.221 212.187 302.761 212.131C303.905 212.086 305.047 212.279 306.112 212.697C307.179 213.115 308.144 213.748 308.949 214.559C310.531 216.197 311.303 218.426 311.303 221.083C311.302 223.361 311.286 225.319 311.258 226.964C311.23 228.61 311.229 229.924 311.229 230.954V232.755C311.205 233.338 311.38 233.911 311.724 234.383C312.171 234.931 312.752 235.352 313.412 235.607C314.129 235.906 314.889 236.095 315.663 236.168C315.883 236.212 316.063 236.211 316.259 236.211C315.8 235.187 315.565 234.077 315.568 232.955C315.54 231.134 316.177 229.365 317.362 227.976C318.648 226.513 320.276 225.386 322.101 224.693C323.672 224.091 325.297 223.641 326.955 223.351C328.905 222.974 330.874 222.7 332.853 222.533C332.743 221.757 332.47 221.012 332.049 220.35C331.497 219.56 330.71 218.961 329.797 218.638C329.016 218.323 328.197 218.109 327.361 218.001C326.27 217.862 325.17 217.798 324.07 217.81C323.282 217.809 322.646 217.832 322.067 217.86C321.488 217.887 320.705 217.944 319.742 217.988L318.69 218.051L319.336 212.747L320.069 212.69L321.683 212.595C322.51 212.528 323.609 212.527 325.027 212.527C327.02 212.501 329.007 212.733 330.941 213.216C332.606 213.63 334.15 214.431 335.442 215.555C336.536 216.588 337.374 217.859 337.889 219.27C338.469 220.809 338.722 222.885 338.723 225.548C338.723 230.001 338.762 233.616 338.722 236.425C338.683 239.233 338.683 239.822 338.684 240.035V240.347C338.688 240.451 338.672 240.556 338.637 240.656C338.579 240.853 338.46 241.027 338.294 241.15C338.128 241.275 337.928 241.341 337.722 241.343H324.885ZM420.959 236.459C421.938 236.466 422.908 236.299 423.828 235.966C424.681 235.635 425.459 235.139 426.119 234.506C427.063 233.583 427.799 232.469 428.275 231.239C428.781 229.924 429.039 228.527 429.034 227.121C429.035 225.613 428.772 224.116 428.259 222.699C427.779 221.352 426.968 220.146 425.9 219.191C425.267 218.608 424.52 218.164 423.706 217.883C422.839 217.569 421.922 217.412 420.999 217.419C420.007 217.392 419.018 217.555 418.088 217.904C417.219 218.273 416.428 218.811 415.765 219.482C414.841 220.395 414.133 221.5 413.69 222.717C413.177 224.046 412.917 225.457 412.923 226.88C412.906 228.42 413.171 229.949 413.706 231.394C414.224 232.73 415.074 233.911 416.177 234.829C416.819 235.363 417.554 235.774 418.347 236.039C419.188 236.323 420.071 236.464 420.959 236.459ZM398.423 236.214H398.565C398.565 235.71 398.565 235 398.565 234.078C398.598 232.292 398.597 230.19 398.597 227.744C398.597 226.464 398.598 224.846 398.597 222.899C398.581 221.232 398.574 219.502 398.542 217.706C397.166 217.704 395.793 217.811 394.434 218.026C393.14 218.25 391.877 218.627 390.669 219.145C389.094 219.775 387.753 220.872 386.828 222.288C385.935 223.702 385.473 225.342 385.499 227.01C385.447 228.634 385.902 230.233 386.804 231.587C387.69 232.874 388.912 233.897 390.337 234.547C391.508 235.084 392.734 235.487 393.994 235.75C395.449 236.067 396.935 236.222 398.423 236.214ZM330.867 236.152C331.199 236.152 331.631 236.151 332.16 236.15C332.396 236.151 332.691 236.15 332.961 236.15C332.96 235.91 332.959 235.641 332.959 235.311C332.96 234.387 332.96 233.123 332.961 231.552L332.966 229.465C332.966 228.855 332.966 228.189 332.966 227.439C332.195 227.496 331.12 227.624 329.792 227.781C328.15 227.951 326.533 228.296 324.964 228.81C324.084 229.086 323.267 229.536 322.562 230.131C322.275 230.36 322.043 230.653 321.887 230.986C321.732 231.32 321.657 231.683 321.667 232.05C321.643 232.431 321.699 232.812 321.834 233.171C321.967 233.53 322.174 233.857 322.442 234.131C323.117 234.744 323.929 235.186 324.812 235.418C325.713 235.69 326.639 235.876 327.575 235.977C328.669 236.094 329.768 236.154 330.867 236.152ZM370.385 209.2C370.255 209.199 370.127 209.173 370.008 209.123C369.89 209.073 369.781 208.999 369.692 208.907C369.601 208.815 369.532 208.706 369.485 208.586C369.438 208.466 369.414 208.338 369.417 208.209V203.996C369.412 203.741 369.507 203.495 369.683 203.309C369.859 203.123 370.101 203.012 370.358 203H374.858C374.99 203.001 375.119 203.027 375.239 203.079C375.36 203.129 375.469 203.203 375.559 203.296C375.65 203.39 375.722 203.5 375.769 203.621C375.815 203.743 375.837 203.873 375.832 204.003V208.204C375.835 208.332 375.814 208.458 375.769 208.577C375.723 208.695 375.655 208.805 375.568 208.896C375.479 208.989 375.374 209.064 375.257 209.116C375.141 209.167 375.015 209.197 374.887 209.2H370.385Z" fill="#9771B4"/>
</g>
<defs>
<clipPath id="clip0_65_483">
<rect width="640" height="399" fill="white"/>
</clipPath>
</defs>
</svg>
