<svg width="535" height="337" viewBox="0 0 535 337" fill="none" xmlns="http://www.w3.org/2000/svg">
<path d="M19.8848 336.667C14.6183 336.658 9.56863 334.566 5.84336 330.85C2.11607 327.135 0.016515 322.097 0 316.839L0 135.884L534.515 135.884V316.839C534.501 322.093 532.404 327.129 528.683 330.844C524.962 334.56 519.923 336.652 514.659 336.667H19.8848Z" fill="#E40521"/>
<path d="M0.0269775 19.825L0.0269775 135.885L534.516 135.885V19.825C534.5 14.5718 532.405 9.5374 528.684 5.82269C524.964 2.10808 519.921 0.0157659 514.66 0L19.8857 0C14.6244 0.0157896 9.58217 2.10799 5.86164 5.82269C2.14112 9.53742 0.0427636 14.572 0.0269775 19.825Z" fill="#E40521"/>
<g clip-path="url(#clip0_24_78)">
<path d="M132.809 53.7185C132.387 53.5745 131.934 53.5411 131.495 53.6215C131.056 53.7018 130.644 53.8933 130.3 54.1777C129.955 53.8933 129.543 53.7019 129.103 53.6215C128.663 53.5411 128.21 53.5745 127.787 53.7185C127.261 53.9406 126.693 54.0469 126.122 54.0301C126.5 54.8167 127.093 55.4805 127.832 55.9452C128.57 56.4098 129.425 56.6563 130.298 56.6563C131.171 56.6563 132.026 56.4098 132.765 55.9452C133.503 55.4805 134.096 54.8167 134.474 54.0301C133.903 54.0469 133.335 53.9406 132.809 53.7185Z" fill="white"/>
<path d="M130.304 14.6085C124.707 14.6039 119.304 16.6572 115.123 20.3778C110.942 24.0983 108.275 29.2263 107.629 34.7858C106.984 40.3452 108.405 45.9479 111.622 50.5277C114.839 55.1074 119.628 58.3443 125.077 59.6224C121.218 57.5554 118.299 54.0874 116.921 49.9328C115.543 45.7781 115.81 41.2532 117.668 37.2897C117.979 38.9418 118.677 40.4968 119.703 41.8278C120.73 43.1589 122.057 44.2282 123.576 44.9485C121.563 40.2261 121.201 34.9627 122.549 30.0092C123.897 25.0557 126.877 20.7016 131.005 17.6507C129.328 23.3907 131.903 28.6387 137.426 32.6034C143.74 37.138 143.986 46.3917 138.435 51.3896C140.715 50.8607 142.758 49.5956 144.248 47.7898C143.768 50.2868 142.737 52.6449 141.228 54.6921C139.72 56.7392 137.774 58.4237 135.532 59.6224C140.981 58.3443 145.769 55.1074 148.987 50.5277C152.204 45.9479 153.625 40.3452 152.979 34.7858C152.334 29.2263 149.666 24.0983 145.485 20.3778C141.304 16.6572 135.901 14.6039 130.304 14.6085Z" fill="white"/>
<path d="M98.189 68.9376C97.8917 69.3017 97.5064 69.5839 97.0697 69.7576C96.6045 69.9584 96.1698 70.2234 95.7782 70.5448V66.9614H96.8278C97.4141 66.9614 98.0578 67.1418 98.2956 67.7445C98.3679 67.9388 98.3958 68.1467 98.3774 68.3532C98.3589 68.5596 98.2946 68.7593 98.189 68.9376ZM98.2423 66.2111C97.7109 65.9895 97.1361 65.8914 96.5613 65.9241H94.6671V73.0499H95.7741C95.7344 72.6449 95.7848 72.236 95.9217 71.8527C96.2005 71.2459 96.8524 70.9548 97.4182 70.6801C97.984 70.4054 98.7056 70.0979 99.1074 69.5239C99.4519 68.9992 99.577 68.3604 99.4559 67.7445C99.3915 67.4103 99.2477 67.0964 99.0364 66.8295C98.8252 66.5626 98.5528 66.3505 98.2423 66.2111Z" fill="white"/>
<path d="M106.373 70.3686C106.034 70.0537 105.627 69.8223 105.184 69.6927C104.74 69.5632 104.273 69.5391 103.818 69.6224V68.458C103.808 68.2449 103.824 68.0314 103.867 67.8225C103.921 67.6214 104.025 67.437 104.168 67.2859C104.311 67.1349 104.49 67.0219 104.687 66.9574C104.893 66.8892 105.111 66.8704 105.325 66.9024C105.538 66.9345 105.741 67.0165 105.917 67.1419C106.082 67.2715 106.214 67.4374 106.304 67.6266C106.393 67.8158 106.438 68.0231 106.434 68.2325C106.434 68.5687 106.434 68.9008 106.434 69.237V70.4383C106.416 70.413 106.395 70.3896 106.373 70.3686ZM106.373 66.1128C105.881 65.8418 105.314 65.7396 104.758 65.8218C104.203 65.904 103.69 66.1661 103.298 66.5679C102.948 66.978 102.744 67.493 102.719 68.0316C102.719 68.1669 102.719 73.0418 102.719 73.0418H103.847V70.6843C104.507 70.5668 105.188 70.7014 105.753 71.0615C105.982 71.2357 106.164 71.4622 106.286 71.722C106.408 71.9818 106.466 72.2671 106.455 72.5539V73.0459H107.537V68.2776C107.557 67.8476 107.461 67.4202 107.258 67.0405C107.055 66.6608 106.754 66.3431 106.385 66.121L106.373 66.1128Z" fill="white"/>
<path d="M113.396 66.9573C114.101 66.9573 114.81 67.3017 114.892 68.0725C114.916 68.2538 114.902 68.4381 114.851 68.6137C114.8 68.7894 114.714 68.9527 114.597 69.0934C114.299 69.3823 113.948 69.6118 113.564 69.7699C113.109 69.9618 112.686 70.2217 112.309 70.5407V66.9573H113.396ZM115.065 70.4013C114.933 70.3353 114.796 70.2805 114.655 70.2373C115.019 70.0547 115.342 69.7977 115.602 69.4829C115.833 69.1886 115.975 68.8344 116.012 68.462C116.068 68.0855 116.022 67.7007 115.878 67.3484C115.733 66.9961 115.496 66.6895 115.192 66.4612C114.335 65.8257 113.252 65.9241 112.244 65.9241H111.198V73.0499H112.305C112.305 72.8408 112.305 72.6399 112.305 72.4144C112.307 72.1803 112.366 71.9502 112.478 71.7443C112.589 71.5384 112.75 71.3631 112.945 71.2336C113.153 71.1129 113.386 71.0425 113.626 71.0283C113.866 71.0141 114.106 71.0563 114.327 71.1516C114.537 71.2494 114.719 71.3988 114.856 71.5859C114.993 71.773 115.08 71.9917 115.11 72.2217C115.137 72.4941 115.144 72.7682 115.13 73.0417H116.249C116.271 72.6496 116.249 72.2563 116.184 71.8691C116.114 71.5582 115.978 71.2661 115.785 71.0127C115.592 70.7594 115.346 70.5508 115.065 70.4013Z" fill="white"/>
<path d="M119.702 66.9204C120.063 66.8312 120.433 66.7762 120.805 66.7564V65.9364H119.702V66.9204Z" fill="white"/>
<path d="M119.702 67.5477V73.0499H120.805V67.3837C120.432 67.3972 120.062 67.4522 119.702 67.5477Z" fill="white"/>
<path d="M128.197 69.6305C127.786 69.3421 127.334 69.1181 126.856 68.9663C126.388 68.8422 125.956 68.6074 125.597 68.2817C125.466 68.1126 125.401 67.9012 125.415 67.6875C125.428 67.4738 125.519 67.2724 125.671 67.1214C125.835 66.9731 126.035 66.8716 126.252 66.8276C126.468 66.7836 126.693 66.7987 126.901 66.8713C127.118 66.9428 127.306 67.0824 127.436 67.2694C127.567 67.4563 127.634 67.6805 127.627 67.9085H128.722C128.735 67.3876 128.545 66.8819 128.193 66.4981C127.839 66.1302 127.368 65.8969 126.86 65.838C126.337 65.7571 125.801 65.8492 125.335 66.1004C124.891 66.3432 124.552 66.742 124.384 67.2198C124.307 67.4576 124.278 67.7082 124.299 67.9573C124.319 68.2064 124.388 68.449 124.503 68.6711C124.793 69.1219 125.226 69.4625 125.733 69.6387C126.291 69.8108 126.829 70.0446 127.336 70.3357C127.535 70.4606 127.681 70.6548 127.746 70.881C127.805 71.1116 127.781 71.3559 127.676 71.5698C127.531 71.8021 127.316 71.982 127.061 72.083C126.807 72.1841 126.526 72.2011 126.262 72.1315C125.98 72.08 125.725 71.9318 125.541 71.7125C125.357 71.4932 125.255 71.2166 125.253 70.9302H124.158C124.149 71.213 124.198 71.4947 124.301 71.7582C124.404 72.0217 124.559 72.2617 124.757 72.4636C125.178 72.8676 125.729 73.1088 126.311 73.1443C126.914 73.2109 127.521 73.0659 128.029 72.7343C128.256 72.5747 128.447 72.3686 128.588 72.1297C128.729 71.8907 128.818 71.6244 128.849 71.3484C128.899 71.0301 128.866 70.7041 128.751 70.4028C128.637 70.1015 128.446 69.8352 128.197 69.6305Z" fill="white"/>
<path d="M138.512 69.7822C138.769 69.4831 138.987 69.1524 139.16 68.7982C139.317 68.4458 139.376 68.0579 139.332 67.6748C139.284 67.3194 139.146 66.9822 138.93 66.6952C138.715 66.4082 138.43 66.1809 138.102 66.0348C137.757 65.8818 137.382 65.8066 137.005 65.8144C136.627 65.8222 136.256 65.9128 135.917 66.0799C135.583 66.2418 135.298 66.4889 135.09 66.7963C134.882 67.1037 134.758 67.4604 134.732 67.8306C134.716 68.2038 134.792 68.5752 134.954 68.9115C135.117 69.2479 135.36 69.5386 135.663 69.7576L136.286 68.9581C136.053 68.7527 135.894 68.4759 135.835 68.1709C135.807 68.0246 135.808 67.874 135.839 67.7281C135.87 67.5823 135.93 67.4442 136.016 67.3222C136.203 67.0888 136.464 66.926 136.756 66.8604C137.048 66.7949 137.354 66.8305 137.623 66.9614C137.895 67.0903 138.106 67.3216 138.209 67.6051C138.3 67.9083 138.274 68.2348 138.135 68.5194C137.993 68.7958 137.817 69.0534 137.61 69.2861L135.392 72.0618L134.597 73.0499H139.607V72.0331H136.737L138.512 69.7822Z" fill="white"/>
<path d="M148.685 70.512C148.482 71.0082 148.131 71.4292 147.678 71.7166C147.226 72.004 146.696 72.1436 146.16 72.1162C145.625 72.0887 145.112 71.8954 144.691 71.5632C144.271 71.231 143.964 70.7762 143.814 70.2619C143.663 69.7458 143.67 69.1961 143.835 68.6843C144.001 68.1725 144.316 67.7222 144.74 67.3919C145.174 67.0683 145.698 66.888 146.239 66.8763C146.78 66.8645 147.311 67.0218 147.758 67.3263C148.247 67.6763 148.605 68.1808 148.773 68.7586C148.941 69.3365 148.91 69.954 148.685 70.512ZM148.926 66.8794C148.374 66.3502 147.676 65.9987 146.921 65.8701C146.167 65.7414 145.392 65.8417 144.695 66.1578C144.005 66.4737 143.429 66.9963 143.049 67.6533C142.668 68.3103 142.501 69.0694 142.57 69.8256C142.639 70.5817 142.942 71.2977 143.436 71.8746C143.929 72.4515 144.59 72.8607 145.327 73.0458C146.066 73.2364 146.846 73.2003 147.564 72.9422C148.283 72.6841 148.908 72.2159 149.357 71.5985C149.795 70.9626 150.025 70.2058 150.013 69.4335C150.001 68.6611 149.749 67.9117 149.291 67.2894C149.186 67.1449 149.071 67.0079 148.947 66.8794H148.926Z" fill="white"/>
<path d="M157.061 69.7822C157.319 69.4839 157.537 69.1531 157.709 68.7982C157.867 68.4462 157.928 68.0583 157.885 67.6748C157.834 67.3173 157.692 66.9789 157.474 66.6918C157.255 66.4046 156.966 66.1784 156.634 66.0348C156.289 65.8818 155.914 65.8066 155.537 65.8144C155.159 65.8222 154.788 65.9128 154.449 66.0799C154.115 66.2418 153.83 66.4889 153.622 66.7963C153.414 67.1037 153.29 67.4604 153.264 67.8306C153.248 68.2037 153.325 68.5748 153.487 68.9111C153.65 69.2473 153.893 69.5381 154.195 69.7576L154.822 68.9581C154.588 68.7529 154.428 68.4762 154.367 68.1709C154.338 68.0244 154.34 67.8734 154.371 67.7274C154.403 67.5814 154.464 67.4435 154.552 67.3222C154.739 67.0882 155 66.9249 155.292 66.8593C155.584 66.7937 155.89 66.8297 156.159 66.9614C156.293 67.0248 156.414 67.1144 156.513 67.2249C156.612 67.3355 156.688 67.4647 156.737 67.6051C156.828 67.9083 156.802 68.2348 156.663 68.5194C156.521 68.7948 156.346 69.0522 156.142 69.2861L153.92 72.0618C153.658 72.3939 153.391 72.7219 153.125 73.054H158.135V72.0372H155.265L157.061 69.7822Z" fill="white"/>
<path d="M164.867 67.8306V70.2455C164.342 69.8724 163.686 69.7576 163.129 69.4255C162.916 69.2838 162.745 69.087 162.634 68.856C162.524 68.6251 162.478 68.3685 162.502 68.1135C162.502 67.5969 162.502 65.92 162.502 65.92H161.39V68.1463C161.364 68.5193 161.424 68.8934 161.566 69.2392C161.708 69.5849 161.929 69.893 162.21 70.1389C162.604 70.42 163.04 70.636 163.502 70.7785C163.929 70.8925 164.316 71.1224 164.621 71.4427C164.809 71.7148 164.895 72.0444 164.863 72.3734V73.0417H165.925V67.8265H164.867V67.8306Z" fill="white"/>
<path d="M123.962 85.805C122.998 85.8091 122.058 86.0984 121.259 86.6365C120.46 87.1747 119.838 87.9374 119.472 88.8285C119.107 89.7197 119.013 90.6992 119.203 91.6435C119.394 92.5878 119.86 93.4545 120.542 94.1342C121.225 94.8139 122.093 95.2762 123.039 95.4626C123.984 95.649 124.963 95.5513 125.852 95.1817C126.742 94.8122 127.502 94.1874 128.037 93.3861C128.572 92.5849 128.857 91.6432 128.857 90.6799C128.857 90.038 128.73 89.4024 128.484 88.8096C128.238 88.2168 127.877 87.6785 127.422 87.2256C126.967 86.7726 126.427 86.414 125.833 86.1702C125.24 85.9264 124.603 85.8023 123.962 85.805ZM129.816 90.6799C129.817 91.8381 129.474 92.9704 128.832 93.9338C128.189 94.8972 127.275 95.6482 126.205 96.092C125.135 96.5357 123.958 96.6523 122.822 96.4268C121.686 96.2014 120.642 95.6441 119.823 94.8254C119.004 94.0068 118.446 92.9636 118.22 91.8277C117.993 90.6919 118.109 89.5145 118.552 88.4444C118.995 87.3744 119.745 86.4597 120.708 85.8162C121.671 85.1727 122.803 84.8292 123.962 84.8292C125.513 84.8303 127.001 85.4469 128.099 86.5438C129.197 87.6407 129.814 89.1282 129.816 90.6799Z" fill="white"/>
<path d="M136.647 85.805C135.683 85.805 134.74 86.0909 133.939 86.6266C133.137 87.1623 132.512 87.9236 132.143 88.8144C131.774 89.7052 131.678 90.6853 131.866 91.631C132.054 92.5766 132.518 93.4452 133.2 94.127C133.882 94.8088 134.75 95.2731 135.696 95.4612C136.642 95.6493 137.622 95.5527 138.512 95.1837C139.403 94.8148 140.165 94.1899 140.7 93.3883C141.236 92.5866 141.522 91.6441 141.522 90.6799C141.522 90.0396 141.397 89.4054 141.152 88.8137C140.907 88.222 140.548 87.6844 140.095 87.2316C139.642 86.7789 139.105 86.4198 138.513 86.175C137.921 85.9302 137.287 85.8045 136.647 85.805ZM142.502 90.6799C142.503 91.8381 142.16 92.9704 141.517 93.9338C140.874 94.8972 139.96 95.6482 138.89 96.092C137.821 96.5357 136.643 96.6523 135.507 96.4268C134.371 96.2014 133.328 95.6441 132.508 94.8254C131.689 94.0068 131.131 92.9636 130.905 91.8277C130.679 90.6919 130.794 89.5145 131.237 88.4444C131.68 87.3744 132.431 86.4597 133.394 85.8162C134.357 85.1727 135.489 84.8292 136.647 84.8292C138.197 84.8325 139.683 85.4501 140.779 86.5467C141.875 87.6433 142.491 89.1296 142.494 90.6799H142.502Z" fill="white"/>
<path d="M117.627 79.4623C116.859 79.4623 116.098 79.6136 115.388 79.9076C114.678 80.2017 114.033 80.6326 113.49 81.1759C112.947 81.7192 112.516 82.3642 112.222 83.074C111.928 83.7839 111.776 84.5447 111.776 85.313C111.776 86.0813 111.928 86.8421 112.222 87.5519C112.516 88.2618 112.947 88.9068 113.49 89.4501C114.033 89.9933 114.678 90.4243 115.388 90.7183C116.098 91.0123 116.859 91.1637 117.627 91.1637C117.795 91.1637 117.963 91.1637 118.131 91.1432C118.131 90.9874 118.131 90.8357 118.131 90.6799C118.131 90.5241 118.131 90.3355 118.131 90.1633C117.967 90.1633 117.795 90.1879 117.623 90.1879C116.4 90.1852 115.223 89.7216 114.326 88.8895C113.429 88.0575 112.879 86.9181 112.786 85.6986C112.692 84.479 113.061 83.2689 113.819 82.3094C114.578 81.3499 115.67 80.7116 116.879 80.5217C118.087 80.3317 119.323 80.6042 120.339 81.2847C121.355 81.9651 122.078 83.0037 122.363 84.1932C122.648 85.3827 122.474 86.6359 121.875 87.7029C121.277 88.7699 120.299 89.5722 119.136 89.9501C119.1 90.1918 119.081 90.4356 119.078 90.6799C119.078 90.7783 119.078 90.8808 119.078 90.9792C120.452 90.6178 121.648 89.7693 122.442 88.5918C123.237 87.4142 123.576 85.988 123.397 84.5789C123.218 83.1697 122.533 81.8737 121.469 80.9324C120.405 79.991 119.035 79.4685 117.615 79.4623H117.627Z" fill="white"/>
<path d="M142.977 79.4623C141.506 79.4637 140.089 80.0186 139.008 81.0167C137.927 82.0149 137.261 83.3832 137.143 84.8497C137.47 84.8787 137.793 84.9349 138.111 85.0178C138.182 83.767 138.731 82.5914 139.644 81.7333C140.556 80.8752 141.764 80.4001 143.016 80.4058C144.269 80.4116 145.472 80.8978 146.377 81.7642C147.282 82.6306 147.82 83.8112 147.88 85.0626C147.94 86.3139 147.517 87.5406 146.7 88.4897C145.882 89.4388 144.731 90.038 143.485 90.1637C142.238 90.2894 140.991 89.932 140 89.1653C139.01 88.3986 138.351 87.2809 138.16 86.0428C137.831 85.94 137.493 85.8686 137.151 85.8296C137.251 86.9604 137.679 88.0376 138.38 88.9299C139.082 89.8222 140.028 90.491 141.104 90.8549C142.179 91.2188 143.337 91.2621 144.436 90.9793C145.536 90.6966 146.529 90.1001 147.296 89.2625C148.062 88.425 148.568 87.3826 148.752 86.2625C148.936 85.1423 148.791 83.9927 148.333 82.9539C147.875 81.9151 147.125 81.0318 146.174 80.4118C145.223 79.7919 144.113 79.4619 142.977 79.4623Z" fill="white"/>
<path d="M130.304 79.4624C128.833 79.4628 127.415 80.0174 126.334 81.0157C125.253 82.0141 124.587 83.3829 124.47 84.8498C124.796 84.8805 125.12 84.9367 125.438 85.0179C125.49 84.1333 125.783 83.2798 126.284 82.5491C126.785 81.8183 127.476 81.238 128.282 80.8705C129.089 80.5031 129.98 80.3623 130.86 80.4634C131.74 80.5645 132.577 80.9037 133.279 81.4444C133.981 81.9851 134.522 82.7069 134.844 83.5322C135.167 84.3576 135.258 85.2552 135.109 86.1286C134.96 87.002 134.575 87.8182 133.996 88.4894C133.418 89.1605 132.667 89.6613 131.825 89.9379C131.787 90.1793 131.768 90.4233 131.768 90.6677C131.768 90.7661 131.768 90.8686 131.768 90.967C133.142 90.6054 134.338 89.7562 135.133 88.5778C135.927 87.3995 136.266 85.9723 136.086 84.5626C135.906 83.1529 135.219 81.8568 134.154 80.9162C133.088 79.9755 131.717 79.4544 130.296 79.4501L130.304 79.4624Z" fill="white"/>
<path d="M130.788 90.6799C130.788 90.5036 130.788 90.3355 130.809 90.1633C130.64 90.1633 130.468 90.1879 130.3 90.1879C129.133 90.1876 128.005 89.7694 127.12 89.009C126.234 88.2486 125.651 87.1963 125.474 86.0428C125.147 85.9391 124.811 85.8677 124.47 85.8296C124.601 87.2855 125.272 88.6397 126.351 89.626C127.43 90.6123 128.838 91.1593 130.3 91.1596C130.468 91.1596 130.64 91.1596 130.804 91.1391C130.792 90.9874 130.788 90.8357 130.788 90.6799Z" fill="white"/>
<path d="M130.304 79.4624C128.833 79.4628 127.415 80.0174 126.334 81.0157C125.253 82.0141 124.587 83.3829 124.47 84.8498C124.796 84.8805 125.12 84.9367 125.438 85.0179C125.49 84.1333 125.783 83.2798 126.284 82.5491C126.785 81.8183 127.476 81.238 128.282 80.8705C129.089 80.5031 129.98 80.3623 130.86 80.4634C131.74 80.5645 132.577 80.9037 133.279 81.4444C133.981 81.9851 134.522 82.7069 134.844 83.5322C135.167 84.3576 135.258 85.2552 135.109 86.1286C134.96 87.002 134.575 87.8182 133.996 88.4894C133.418 89.1605 132.667 89.6613 131.825 89.9379C131.787 90.1793 131.768 90.4233 131.768 90.6677C131.768 90.7661 131.768 90.8686 131.768 90.967C133.142 90.6054 134.338 89.7562 135.133 88.5778C135.927 87.3995 136.266 85.9723 136.086 84.5626C135.906 83.1529 135.219 81.8568 134.154 80.9162C133.088 79.9755 131.717 79.4544 130.296 79.4501L130.304 79.4624Z" fill="white"/>
</g>
<path d="M29.4969 47.6102H31.2426C32.6124 47.6102 33.5354 48.0709 33.5354 49.4095C33.5354 50.7482 32.6159 51.2971 31.2789 51.2971H30.2745V53.7216H29.4969V47.6102ZM31.1802 50.6668C32.2487 50.6668 32.7578 50.2789 32.7578 49.4095C32.7578 48.5402 32.2158 48.2406 31.1421 48.2406H30.2728V50.6668H31.1802Z" fill="white"/>
<path d="M36.2023 47.6102H37.0803L39.148 53.7216H38.3237L37.2587 50.3083C37.0388 49.6243 36.8431 48.9541 36.6474 48.2492H36.6093C36.4205 48.9575 36.2248 49.626 36.0049 50.3083L34.9278 53.7216H34.1364L36.2041 47.6102H36.2023ZM35.2222 51.2383H38.0363V51.8582H35.2222V51.2383Z" fill="white"/>
<path d="M40.6165 47.6102H42.5301C43.7753 47.6102 44.6689 48.057 44.6689 49.3299C44.6689 50.6027 43.7753 51.1378 42.5301 51.1378H41.3941V53.7216H40.6165V47.6102ZM42.4193 50.5075C43.37 50.5075 43.893 50.123 43.893 49.3299C43.893 48.5367 43.37 48.2406 42.4193 48.2406H41.3941V50.5075H42.4193ZM42.3778 50.9248L42.9873 50.523L44.8524 53.7216H43.971L42.3778 50.9248Z" fill="white"/>
<path d="M47.7012 48.2683H45.8517V47.6102H50.3265V48.2683H48.477V53.7216H47.6995V48.2683H47.7012Z" fill="white"/>
<path d="M52.0635 47.6102H55.5859V48.2683H52.8411V50.1836H55.1564V50.8417H52.8411V53.0635H55.6794V53.7216H52.0635V47.6102Z" fill="white"/>
<path d="M57.6138 47.6103H58.4173L60.6288 51.453L61.2886 52.7172H61.3267C61.2868 52.1007 61.2279 51.4115 61.2279 50.7724V47.6103H61.9657V53.7216H61.1621L58.9507 49.8754L58.2909 48.6129H58.2528C58.2926 49.2312 58.3515 49.8823 58.3515 50.5213V53.7199H57.6138V47.6085V47.6103Z" fill="white"/>
<path d="M65.54 47.6102H66.418L68.4858 53.7216H67.6614L66.5964 50.3083C66.3765 49.6243 66.1808 48.9541 65.9851 48.2492H65.947C65.7582 48.9575 65.5625 49.626 65.3426 50.3083L64.2655 53.7216H63.4741L65.5418 47.6102H65.54ZM64.5581 51.2383H67.3722V51.8582H64.5581V51.2383Z" fill="white"/>
<path d="M69.9543 47.6102H70.7318V53.7216H69.9543V47.6102Z" fill="white"/>
<path d="M73.0454 47.6102H74.959C76.2042 47.6102 77.0978 48.057 77.0978 49.3299C77.0978 50.6027 76.2042 51.1378 74.959 51.1378H73.823V53.7216H73.0454V47.6102ZM74.8482 50.5075C75.7989 50.5075 76.3219 50.123 76.3219 49.3299C76.3219 48.5367 75.7989 48.2406 74.8482 48.2406H73.823V50.5075H74.8482ZM74.8066 50.9248L75.4162 50.523L77.2813 53.7216H76.3999L74.8066 50.9248Z" fill="white"/>
<path d="M78.9889 47.6102H82.5113V48.2683H79.7664V50.1836H82.0818V50.8417H79.7664V53.0635H82.6048V53.7216H78.9889V47.6102Z" fill="white"/>
<path d="M34.4969 61.7534C34.4969 59.7965 35.5741 58.6085 37.1084 58.6085C38.6428 58.6085 39.7199 59.8 39.7199 61.7534C39.7199 63.7068 38.6428 64.9433 37.1084 64.9433C35.5741 64.9433 34.4969 63.712 34.4969 61.7534ZM38.9164 61.7534C38.9164 60.2312 38.1994 59.2908 37.1067 59.2908C36.014 59.2908 35.2988 60.2295 35.2988 61.7534C35.2988 63.2773 36.0157 64.2592 37.1067 64.2592C38.1977 64.2592 38.9164 63.2756 38.9164 61.7534Z" fill="white"/>
<path d="M41.6786 58.7211H45.2027V59.3791H42.4561V61.4399H44.7853V62.098H42.4561V64.8324H41.6786V58.7211Z" fill="white"/>
<path d="M46.9206 58.7211H50.4447V59.3791H47.6982V61.4399H50.0274V62.098H47.6982V64.8324H46.9206V58.7211Z" fill="white"/>
<path d="M52.1644 58.7211H52.9419V64.8324H52.1644V58.7211Z" fill="white"/>
<path d="M54.9023 61.7811C54.9023 59.8104 56.0643 58.6085 57.6142 58.6085C58.3554 58.6085 58.9372 58.9687 59.2957 59.3618L58.8697 59.8675C58.5476 59.5246 58.1441 59.2908 57.628 59.2908C56.473 59.2908 55.7058 60.2364 55.7058 61.7586C55.7058 63.2808 56.4383 64.2575 57.5986 64.2575C58.1822 64.2575 58.6255 64.003 59.0152 63.5717L59.4412 64.0601C58.958 64.6212 58.3606 64.9416 57.5657 64.9416C56.0435 64.9416 54.9023 63.764 54.9023 61.7794V61.7811Z" fill="white"/>
<path d="M61.218 58.7211H61.9955V64.8324H61.218V58.7211Z" fill="white"/>
<path d="M64.3092 58.7211H67.8316V59.3791H65.0867V61.2945H67.4021V61.9525H65.0867V64.1744H67.9251V64.8324H64.3092V58.7211Z" fill="white"/>
<path d="M69.8595 58.7211H70.637V64.1744H73.3039V64.8324H69.8595V58.7211Z" fill="white"/>
<path d="M407.221 101.077C407.135 101.077 407.048 101.076 406.962 101.073C405.989 101.096 405.022 100.911 404.124 100.532C403.348 100.193 402.657 99.6787 402.105 99.029C401.542 98.3537 401.125 97.5664 400.88 96.7177C400.592 95.7654 400.434 94.7791 400.408 93.7837C400.396 92.7999 400.556 91.8221 400.88 90.8957C401.176 90.0534 401.629 89.2768 402.214 88.6074C402.78 87.9671 403.473 87.4533 404.247 87.1028C405.057 86.7362 405.934 86.5526 406.821 86.5636C407.879 86.5224 408.927 86.7895 409.844 87.3306C410.625 87.8208 411.284 88.4878 411.773 89.2803C412.257 90.0716 412.596 90.9483 412.774 91.8632C412.956 92.7372 413.031 93.6289 412.998 94.5214H402.782C402.764 95.1075 402.836 95.6926 402.993 96.2559C403.147 96.7873 403.409 97.2791 403.761 97.6999C404.129 98.1337 404.589 98.4777 405.105 98.7072C405.715 98.9693 406.372 99.098 407.034 99.0833C407.863 99.1187 408.681 98.8821 409.369 98.4084C410.01 97.9077 410.439 97.1779 410.57 96.3667H412.79C412.592 97.7509 411.886 99.0073 410.816 99.8858C409.767 100.657 408.51 101.072 407.221 101.077ZM351.915 101.071C350.946 101.071 349.976 100.887 349.058 100.521C348.26 100.173 347.548 99.6483 346.973 98.9851C346.398 98.3172 345.966 97.5352 345.705 96.6885C345.416 95.7672 345.274 94.8037 345.284 93.836C345.276 92.8662 345.417 91.9004 345.705 90.9751C345.966 90.1244 346.399 89.3367 346.973 88.6638C347.549 87.9992 348.261 87.4713 349.058 87.1174C350.891 86.3666 352.939 86.3674 354.771 87.1174C355.564 87.4746 356.27 88.0014 356.842 88.6638C357.418 89.3371 357.848 90.1231 358.11 90.9751C358.398 91.9001 358.54 92.8663 358.531 93.836C358.542 94.8035 358.399 95.7655 358.11 96.6864C357.849 97.5332 357.416 98.317 356.842 98.9851C356.27 99.6457 355.565 100.171 354.771 100.521C353.853 100.888 352.884 101.071 351.915 101.071ZM367.688 101.071C367.312 101.065 366.94 101.03 366.569 100.964C366.148 100.892 365.735 100.773 365.338 100.613C364.927 100.448 364.541 100.226 364.189 99.9527C363.824 99.6701 363.516 99.3204 363.282 98.9183H363.228V100.776L360.981 100.778V81.5837H363.228V88.76H363.282C363.638 88.0009 364.259 87.4023 365.022 87.0798C365.849 86.7224 366.738 86.5435 367.636 86.5553C368.588 86.5329 369.532 86.7349 370.395 87.1467C371.157 87.523 371.824 88.069 372.348 88.7453C372.88 89.4374 373.278 90.2271 373.52 91.0712C373.79 91.9774 373.925 92.9189 373.918 93.8652C373.924 94.8113 373.794 95.7546 373.534 96.6634C373.3 97.499 372.907 98.2803 372.377 98.9621C371.85 99.6221 371.182 100.149 370.423 100.506C369.564 100.898 368.629 101.092 367.688 101.071ZM326.012 100.778L323.771 100.776V86.8771H325.881V88.9188H325.936C326.653 87.8467 327.725 87.0739 328.955 86.7392C330.186 86.4041 331.492 86.5301 332.639 87.0944C332.989 87.2841 333.298 87.5417 333.548 87.8551C333.797 88.1694 333.983 88.5322 334.092 88.9209C334.533 88.1857 335.155 87.5827 335.898 87.1717C336.657 86.7594 337.506 86.5472 338.366 86.5553C338.994 86.5486 339.622 86.6238 340.232 86.781C340.747 86.9169 341.23 87.1601 341.65 87.4936C342.054 87.8265 342.371 88.2571 342.571 88.7453C342.807 89.3287 342.921 89.9566 342.904 90.5864L342.902 100.734H340.661V91.6167C340.661 91.2116 340.626 90.8071 340.556 90.4088C340.494 90.0623 340.359 89.7327 340.16 89.4454C339.954 89.1562 339.676 88.9278 339.355 88.785C338.933 88.6082 338.477 88.524 338.022 88.5426C337.544 88.5149 337.066 88.5864 336.616 88.7516C336.167 88.9164 335.755 89.1752 335.405 89.5081C335.083 89.8489 334.835 90.252 334.672 90.6951C334.51 91.1381 334.438 91.6105 334.461 92.0827V100.753H332.218V91.6355C332.223 91.2206 332.183 90.8078 332.101 90.4025C332.028 90.0567 331.887 89.7288 331.689 89.4391C331.49 89.1581 331.222 88.9366 330.913 88.7955C330.513 88.6311 330.085 88.5537 329.655 88.5677C329.072 88.5498 328.495 88.6883 327.98 88.9689C327.544 89.2102 327.158 89.5371 326.845 89.9302C326.57 90.2811 326.355 90.6759 326.211 91.1005C326.094 91.4231 326.028 91.7636 326.012 92.1077V100.778ZM376.43 100.776V86.8771H378.671V100.776H376.43ZM382.024 100.776V81.5837H384.267V100.776H382.024ZM387.621 100.776L387.618 86.8771H389.862V100.776H387.621ZM397.202 100.776C396.701 100.783 396.2 100.741 395.706 100.651C395.34 100.594 394.996 100.443 394.705 100.21C394.433 99.9683 394.234 99.6517 394.136 99.2986C393.999 98.7902 393.937 98.2639 393.952 97.7375V88.8958L391.63 88.8937V86.8771H393.952V82.7101L396.199 82.7122V86.8771H398.918V88.8958H396.199V97.5056C396.191 97.7237 396.213 97.9406 396.264 98.1513C396.301 98.3036 396.39 98.4379 396.515 98.5275C396.668 98.6289 396.845 98.6891 397.028 98.7051C397.314 98.7336 397.6 98.7464 397.888 98.7448H398.918V100.776H397.202ZM351.915 99.098C352.485 99.0983 353.049 98.9768 353.571 98.7427C354.091 98.5108 354.553 98.1689 354.931 97.7375C355.341 97.2616 355.652 96.7022 355.841 96.0992C356.283 94.6368 356.283 93.0726 355.841 91.6104C355.649 91.0023 355.339 90.4409 354.931 89.9553C354.556 89.5182 354.091 89.1686 353.569 88.9334C353.046 88.7016 352.484 88.5821 351.915 88.5823C351.345 88.582 350.782 88.7022 350.259 88.9334C349.737 89.169 349.272 89.516 348.896 89.9532C348.488 90.4388 348.181 91.0018 347.989 91.6104C347.548 93.0733 347.548 94.6365 347.989 96.0992C348.178 96.7023 348.487 97.2614 348.898 97.7375C349.275 98.169 349.739 98.5131 350.259 98.7448C350.78 98.9785 351.344 99.0986 351.915 99.098ZM367.199 99.0645C367.285 99.0667 367.372 99.0656 367.458 99.0624C368.133 99.085 368.802 98.9279 369.397 98.6048C369.905 98.3118 370.334 97.8966 370.649 97.3948C370.976 96.8678 371.21 96.2851 371.337 95.675C371.479 95.0226 371.549 94.3569 371.548 93.6876C371.548 93.0462 371.463 92.4085 371.298 91.7901C371.141 91.1976 370.883 90.636 370.532 90.1371C370.187 89.6515 369.736 89.257 369.213 88.9815C368.626 88.6825 367.976 88.5347 367.32 88.5531C366.65 88.5308 365.985 88.6886 365.391 89.0065C364.878 89.304 364.438 89.7117 364.101 90.204C363.756 90.7131 363.51 91.2842 363.376 91.8862C363.224 92.5168 363.147 93.1634 363.148 93.813C363.147 94.4783 363.227 95.1416 363.384 95.7878C363.53 96.3911 363.786 96.9609 364.138 97.468C364.489 97.9573 364.945 98.3573 365.471 98.6382C366.013 98.9045 366.601 99.0494 367.199 99.0645ZM402.782 92.5132H410.623C410.587 91.9842 410.468 91.4643 410.268 90.9751C410.076 90.5098 409.798 90.0888 409.45 89.7296C409.099 89.3765 408.687 89.0936 408.235 88.8958C407.745 88.6847 407.218 88.5808 406.687 88.5886C406.149 88.5797 405.614 88.6836 405.117 88.8958C404.665 89.0929 404.257 89.382 403.917 89.7442C403.581 90.1077 403.315 90.5302 403.127 90.9918C402.932 91.4765 402.815 91.9903 402.782 92.5132ZM406.628 84.4321L404.939 84.43L407.475 80.077H410.35L406.628 84.4321ZM376.43 84.3777V81.5837H378.671V84.3777H376.43ZM387.618 84.3777V81.5837H389.862V84.3777H387.618ZM425.253 98.8109C425.616 98.1768 425.795 97.4505 425.769 96.7159C425.788 96.1357 425.656 95.561 425.385 95.0497C425.134 94.6059 424.793 94.2236 424.383 93.9281C423.947 93.6211 423.468 93.3804 422.964 93.2149C422.421 93.034 421.871 92.8811 421.313 92.7574C420.788 92.6313 420.258 92.5112 419.729 92.3964C419.246 92.2916 418.771 92.1485 418.31 91.9674C417.926 91.8198 417.574 91.6003 417.269 91.3223C417.138 91.1998 417.033 91.0514 416.963 90.8851C416.892 90.7187 416.856 90.5397 416.857 90.3585C416.844 90.0457 416.938 89.7374 417.122 89.4865C417.306 89.2547 417.541 89.0692 417.809 88.9475C418.109 88.8062 418.427 88.7106 418.754 88.663C419.091 88.6117 419.431 88.5855 419.771 88.5866C420.14 88.5856 420.509 88.626 420.868 88.7064C421.216 88.7814 421.55 88.9135 421.857 89.0962C422.153 89.2729 422.407 89.5171 422.595 89.8095C422.801 90.1442 422.92 90.5278 422.94 90.9226L425.182 90.9225C425.158 90.1881 424.979 89.4692 424.657 88.8124C424.374 88.2692 423.96 87.8072 423.455 87.4687C422.928 87.1263 422.34 86.8895 421.724 86.7708C421.02 86.63 420.304 86.5623 419.587 86.5683C418.978 86.5709 418.371 86.6464 417.78 86.7943C417.201 86.9368 416.648 87.1738 416.144 87.4977C415.66 87.8066 415.252 88.2227 414.951 88.7167C414.629 89.2589 414.466 89.884 414.479 90.518C414.432 91.2764 414.667 92.0261 415.136 92.6171C415.593 93.1292 416.157 93.5299 416.787 93.7879C417.484 94.0654 418.207 94.274 418.944 94.4097C419.72 94.5582 420.433 94.7317 421.096 94.9199C421.681 95.0735 422.238 95.3233 422.746 95.6569C422.961 95.8028 423.134 96.0046 423.25 96.2394C423.365 96.4751 423.418 96.7371 423.404 97.0009C423.42 97.3811 423.309 97.7568 423.087 98.0649C422.876 98.341 422.599 98.559 422.283 98.6955C421.942 98.8434 421.582 98.9431 421.213 98.9896C420.847 99.042 420.477 99.0692 420.107 99.0715C419.659 99.073 419.212 99.0274 418.774 98.9364C418.364 98.8553 417.971 98.7057 417.61 98.4933C417.271 98.2875 416.985 98.0021 416.777 97.66C416.556 97.2722 416.439 96.8326 416.437 96.3838L414.19 96.3836C414.203 97.1451 414.384 97.8939 414.72 98.5755C415.021 99.1542 415.456 99.6506 415.987 100.02C416.541 100.398 417.158 100.666 417.808 100.815C418.519 100.977 419.246 101.058 419.974 101.056C420.67 101.055 421.364 100.987 422.046 100.853C422.714 100.734 423.355 100.493 423.938 100.14C424.471 99.8067 424.922 99.3524 425.253 98.8109Z" fill="white"/>
<path d="M229.328 74.9808C221.516 74.9804 216.216 70.2846 216.216 62.2851C216.216 54.9724 222.074 49.7255 229.126 49.7251C237.706 49.7255 241.991 56.1684 241.63 64.2659H224.055C224.196 67.5321 226.082 69.6891 229.407 69.6892C231.289 69.6899 233.14 68.817 233.881 67.0597H241.214C239.786 72.5777 234.657 74.9717 229.328 74.9808ZM331.67 74.9626C327.109 74.9624 323.513 72.6666 323.512 67.7328C323.512 59.9667 331.998 60.5643 337.439 59.4568C338.778 59.1822 339.513 58.7249 339.513 57.253C339.513 55.4588 337.349 54.7719 335.734 54.7714C333.56 54.7719 332.185 55.7373 331.814 57.7558L324.463 57.7578C324.622 54.6277 326.087 52.5369 328.208 51.3552C330.33 50.1731 333.092 49.7054 335.817 49.7049C341.488 49.7055 346.977 50.9546 346.978 57.7152L346.976 68.1626C346.976 70.1861 346.978 72.4165 347.915 74.2854L340.019 74.2834C339.774 73.5511 339.619 72.7928 339.56 72.0228C337.531 74.1397 334.536 74.9617 331.67 74.9626ZM251.499 74.7173C245.711 74.717 242.846 70.1532 242.846 64.8538C242.846 59.5549 245.678 55.094 251.428 55.0938C253.349 55.0939 256.111 55.8459 257.493 58.0275H257.568V48.3688H260.659V74.2834H257.568V71.7511H257.493C256.482 73.8117 254.079 74.7174 251.499 74.7173ZM271.594 74.7132C265.591 74.7141 262.754 70.584 262.567 64.8498C262.567 59.2197 266.26 55.088 271.411 55.0877C278.042 55.0876 280.1 61.2982 279.917 65.8351H265.866C265.759 69.1064 267.614 71.9947 271.716 71.9944C274.245 71.9947 276.039 70.7578 276.586 68.3369L279.64 68.3349C278.798 72.4714 275.818 74.7183 271.594 74.7132ZM206.305 74.2895V47.8275H201.339L198.575 44.1396L195.808 47.8275H189.908L195.069 40.9829L202.074 40.9808L206.305 46.5867V41.435H214.144V74.2895H206.305ZM194.65 74.2834V50.4064H202.489V74.2834H194.65ZM281.924 74.2834V41.435H306.18L306.182 48.2897H290.499V55.0106L304.059 55.0086V61.6302H290.499V74.2834H281.924ZM307.737 74.2611V50.382H315.356V54.5889H315.446C316.602 51.5562 319.27 49.9433 322.647 49.9441C323.266 49.9412 323.883 50.0045 324.487 50.1347V57.2652C323.514 56.9692 322.504 56.8124 321.486 56.7988C317.618 56.7988 315.58 59.4674 315.58 62.4675L315.582 74.2611H307.737ZM251.93 71.9701C256.07 71.9697 257.672 68.4227 257.672 64.9045C257.664 61.2041 255.938 57.7978 251.733 57.7984C247.518 57.7975 246.115 61.3816 246.115 65.0505C246.115 68.5636 247.936 71.9695 251.93 71.9701ZM334.628 70.1393C338.356 70.1398 339.606 68.0269 339.424 63.1021C338.323 63.784 336.324 63.9768 334.578 64.3875C332.831 64.7991 331.352 65.5551 331.351 67.4246C331.351 69.3593 332.862 70.1396 334.628 70.1393ZM265.858 63.1123H276.625C276.479 60.1588 274.268 57.8235 271.21 57.8227C267.998 57.8228 266.06 60.2437 265.858 63.1123ZM224.055 59.8927H233.81C233.646 57.2107 231.754 55.0083 229.126 55.0086C226.364 55.0087 224.522 56.982 224.055 59.8927ZM365.847 62.7382L365.846 74.2843L373.686 74.2841L373.686 58.963C373.686 55.5146 373.039 49.7161 365.06 49.7157C362.203 49.7158 358.972 51.2347 357.567 53.6781L357.465 53.678L357.464 50.4068L349.854 50.4072L349.854 74.284L357.684 74.2842L357.684 61.2564C357.685 58.6399 358.977 56.159 361.898 56.1591C366.217 56.1597 365.847 59.4669 365.847 62.7382ZM399.99 64.9017L392.385 64.9015C392.029 67.4245 390.623 68.9904 387.912 68.9903C384.597 68.9899 383.257 65.8221 383.258 62.7383C383.258 59.4251 383.951 55.701 388.329 55.7014C390.305 55.7012 392.108 57.103 392.16 59.1491L399.788 59.1493C399.24 52.8416 393.93 49.7153 387.982 49.7152C380.279 49.7158 375.433 55.15 375.433 62.7384C375.432 70.051 380.795 74.9717 387.983 74.9715C394.346 74.9708 399.324 71.2941 399.99 64.9017ZM425.477 67.0596L418.135 67.0599C417.4 68.8167 415.555 69.6902 413.673 69.6905C410.348 69.6904 408.456 67.5312 408.315 64.2655L425.886 64.2657C426.255 56.1677 421.97 49.724 413.387 49.7244C406.339 49.7244 400.476 54.9718 400.476 62.2845C400.475 70.2887 405.782 74.9795 413.588 74.9806C418.917 74.97 424.036 72.5783 425.477 67.0596ZM408.315 59.8917C408.783 56.9808 410.615 55.0093 413.386 55.0089C416.018 55.0089 417.91 57.2097 418.046 59.8919L408.315 59.8917Z" fill="white"/>
<path d="M447.169 100.608L479.918 100.609C483.541 100.598 487.012 99.1564 489.574 96.5993C492.136 94.0408 493.58 90.5754 493.59 86.9573L493.59 54.2684C493.582 50.6499 492.14 47.1812 489.578 44.6213C487.016 42.0615 483.543 40.6186 479.918 40.6085L447.169 40.6091C443.545 40.6201 440.072 42.0628 437.511 44.6225C434.949 47.1821 433.506 50.6504 433.497 54.269L433.497 86.9669C433.509 90.583 434.954 94.047 437.516 96.6028C440.078 99.1577 443.547 100.599 447.169 100.608ZM458.433 51.8888C459.863 48.8145 462.981 47.2336 465.407 48.3527C467.834 49.4707 468.64 52.8787 467.214 55.9677C465.789 59.0567 462.666 60.6229 460.24 59.5048C457.814 58.3858 457.013 54.9732 458.433 51.8888ZM446.687 70.8368C451.773 65.4162 456.355 64.0209 462.471 63.1071C468.587 62.1934 470.837 62.5455 478.097 58.8908C480.09 57.8908 479.527 59.0854 478.255 60.437C473.168 65.8585 468.582 67.2527 462.471 68.1667C456.36 69.0806 454.105 68.7283 446.845 72.3839C444.852 73.383 445.419 72.1887 446.687 70.8368ZM445.734 91.9269C449.233 87.1102 452.064 83.1739 455.444 78.6428C459.701 72.8932 466.013 69.2328 471.175 76.4014C475.981 83.064 481.3 90.3705 482.826 92.4648C483.031 92.7505 482.902 93.0691 482.463 93.1021C480.032 93.2733 474.45 93.6596 472.61 91.1412C469.946 87.4954 466.947 83.2883 464.506 79.9327C462.404 77.0385 459.358 76.7527 457.318 79.5566C455.044 82.6888 451.416 87.6475 449.962 89.6088C449.081 90.8673 447.956 91.9368 446.654 92.7551C445.534 93.4354 444.914 93.0403 445.719 91.9271L445.734 91.9269Z" fill="white"/>
<path d="M482.936 92.7799C482.909 92.9459 482.757 93.0794 482.483 93.1C480.052 93.2712 474.469 93.6564 472.629 91.1381C469.954 87.4927 466.957 83.2856 464.525 79.9305C462.423 77.0363 459.376 76.7507 457.335 79.5547C455.061 82.6867 451.434 87.6211 449.98 89.6057C449.099 90.8642 447.975 91.9348 446.673 92.753C445.534 93.4333 444.914 93.0381 445.738 91.9249C449.266 87.1224 452.127 83.1712 455.464 78.6398C459.711 72.8898 466.021 69.2311 471.194 76.3991C475.999 83.0577 481.319 90.3676 482.845 92.4619C482.922 92.569 482.951 92.6803 482.936 92.7799ZM479.403 58.7193C479.404 59.0434 478.928 59.7178 478.255 60.4355C473.168 65.8569 468.564 67.2493 462.471 68.1633C456.379 69.0772 454.105 68.7268 446.845 72.3824C444.852 73.3815 445.419 72.1854 446.688 70.8335C451.774 65.413 456.379 64.0196 462.471 63.1057C468.563 62.1917 470.838 62.5434 478.098 58.8887C479.032 58.4199 479.402 58.4334 479.403 58.7193ZM467.919 52.7923C467.932 53.8211 467.706 54.9144 467.214 55.9665C465.784 59.027 462.666 60.621 460.239 59.502C457.818 58.3696 457.004 54.9484 458.434 51.8878C459.864 48.8272 462.985 47.2093 465.406 48.3523C466.996 49.1017 467.894 50.8284 467.919 52.7923Z" fill="#64B5F6"/>
<path d="M439.908 251.614C441.152 249.254 442.683 247.061 444.468 245.087C444.509 245.687 444.57 246.252 444.634 246.798C444.795 248.388 445.143 249.951 445.671 251.457C446.473 253.599 447.492 254.974 448.637 255.717C449.73 256.407 450.972 256.817 452.256 256.918L452.255 256.516C452.262 254.063 452.541 251.62 453.085 249.23C453.563 246.896 454.485 244.678 455.797 242.699L455.772 242.669C457.054 240.686 458.825 239.076 460.912 237.998C462.996 236.921 465.324 236.412 467.663 236.524C470.389 236.48 473.055 237.322 475.272 238.925C477.47 240.563 479.232 242.727 480.398 245.225C481.313 247.141 481.941 249.185 482.26 251.288C482.632 253.849 482.804 256.437 482.775 259.025V262.357C482.745 262.612 482.622 262.847 482.432 263.017C482.243 263.187 481.998 263.281 481.743 263.282H479.851C478.939 263.281 477.739 263.28 476.233 263.28C472.876 263.244 469.69 263.226 466.668 263.226C464.609 263.226 462.528 263.189 460.387 263.226C458.246 263.262 456.294 263.262 454.516 263.263C451.177 263.262 448.453 262.704 446.396 261.462C444.368 260.204 442.715 258.41 441.616 256.275C440.885 254.786 440.311 253.224 439.908 251.614ZM452.213 205.708C453.274 205.251 456.773 203.687 461.578 201.508C467.552 198.762 473.619 195.989 479.779 193.188L480.634 192.816L483.286 198.776L460.633 208.464L481.819 217.288C482.003 217.4 482.155 217.558 482.258 217.749C482.362 217.94 482.417 218.156 482.413 218.374V226.895V231.698C482.413 231.838 482.386 231.976 482.332 232.106C482.278 232.235 482.198 232.351 482.099 232.449C481.999 232.546 481.881 232.623 481.751 232.673C481.622 232.723 481.484 232.745 481.346 232.742H453.291C453.158 232.745 453.024 232.723 452.898 232.675C452.772 232.626 452.657 232.551 452.559 232.458C452.462 232.364 452.384 232.254 452.33 232.129C452.275 232.004 452.246 231.868 452.243 231.732V226.932C452.242 226.794 452.27 226.66 452.323 226.533C452.376 226.406 452.451 226.29 452.548 226.192C452.644 226.096 452.757 226.02 452.883 225.968C453.01 225.916 453.146 225.893 453.282 225.894H476.939V221.771C472.194 219.663 467.265 217.473 462.111 215.168C456.958 212.862 453.304 211.248 452.213 210.744V205.708ZM452.253 280.878C452.245 278.993 452.566 277.12 453.195 275.344C453.812 273.628 454.749 272.047 455.954 270.687C457.405 269.114 459.18 267.886 461.154 267.087C463.198 266.24 465.388 265.808 467.595 265.813C469.652 265.797 471.693 266.168 473.616 266.907C475.509 267.661 477.217 268.825 478.621 270.315C479.962 271.69 481.015 273.322 481.723 275.116C482.445 276.961 482.815 278.931 482.809 280.915C482.834 282.894 482.49 284.861 481.8 286.713C481.136 288.47 480.111 290.062 478.793 291.388C477.354 292.901 475.613 294.086 473.686 294.863C471.717 295.624 469.626 296.002 467.519 295.98C465.348 295.989 463.196 295.561 461.19 294.72C459.378 293.972 457.736 292.86 456.363 291.451C454.988 290.041 453.91 288.363 453.195 286.52C452.545 284.713 452.225 282.802 452.253 280.878ZM452.264 178.393L452.3 178.178V171.635C452.266 169.763 452.437 167.892 452.811 166.058C453.095 164.445 453.632 162.886 454.4 161.443C455.144 160.222 456.158 159.196 457.364 158.442C458.388 157.849 459.537 157.513 460.715 157.464L460.77 157.462L463.508 157.464C464.492 157.463 465.952 157.469 467.884 157.464C469.819 157.458 471.23 157.427 472.108 157.427C474.196 157.379 475.615 156.887 476.261 156.365C476.908 155.843 477.351 154.78 477.351 152.979C477.28 151.593 476.951 150.235 476.384 148.971C475.744 147.351 474.977 145.785 474.089 144.291C473.543 144.29 472.594 144.289 471.213 144.289C469.166 144.289 467.268 144.289 465.608 144.289C463.947 144.288 452.45 144.289 452.294 144.289V137.981H482.5L482.498 144.457H479.783C480.768 146.226 481.604 148.079 482.279 149.992C482.849 151.53 483.169 153.15 483.229 154.792C483.276 156.013 483.072 157.231 482.629 158.368C482.185 159.505 481.515 160.535 480.655 161.393C478.918 163.081 476.557 163.904 473.739 163.904C471.325 163.904 469.249 163.886 467.506 163.856C465.761 163.826 464.368 163.825 463.277 163.825H461.368C460.749 163.8 460.142 163.987 459.642 164.354C459.061 164.831 458.615 165.45 458.344 166.154C458.027 166.919 457.827 167.729 457.75 168.555C457.703 168.79 457.704 168.981 457.704 169.191C458.79 168.702 459.966 168.45 461.156 168.454C463.085 168.424 464.96 169.103 466.433 170.367C467.984 171.74 469.178 173.475 469.913 175.422C470.551 177.098 471.028 178.832 471.336 180.601C471.735 182.68 472.026 184.78 472.203 186.891C473.025 186.775 473.815 186.482 474.517 186.033C475.354 185.445 475.989 184.605 476.331 183.632C476.665 182.799 476.892 181.925 477.007 181.033C477.154 179.869 477.222 178.696 477.209 177.523C477.21 176.683 477.186 176.004 477.157 175.386C477.127 174.768 477.067 173.933 477.02 172.906L476.954 171.784L482.576 172.473L482.636 173.255L482.737 174.976C482.808 175.859 482.809 177.031 482.809 178.544C482.836 180.669 482.59 182.789 482.078 184.852C481.64 186.628 480.79 188.275 479.599 189.653C478.504 190.82 477.157 191.714 475.662 192.263C474.031 192.882 471.829 193.152 469.007 193.153C464.286 193.153 460.454 193.194 457.477 193.151C454.5 193.11 453.877 193.11 453.651 193.111H453.439H453.32C453.209 193.116 453.098 193.098 452.992 193.061C452.783 192.999 452.599 192.872 452.468 192.696C452.337 192.519 452.266 192.305 452.264 192.085V178.393ZM457.441 280.873C457.434 281.917 457.61 282.952 457.963 283.933C458.314 284.843 458.84 285.673 459.511 286.376C460.49 287.384 461.671 288.169 462.974 288.676C464.368 289.217 465.849 289.491 467.34 289.486C468.938 289.487 470.524 289.207 472.027 288.659C473.455 288.148 474.733 287.282 475.745 286.143C476.363 285.468 476.834 284.671 477.132 283.803C477.465 282.878 477.631 281.9 477.624 280.915C477.652 279.857 477.479 278.803 477.109 277.811C476.718 276.883 476.148 276.04 475.436 275.333C474.468 274.347 473.298 273.591 472.008 273.119C470.599 272.572 469.104 272.294 467.595 272.301C465.963 272.282 464.341 272.566 462.809 273.136C461.394 273.689 460.142 274.595 459.169 275.771C458.603 276.457 458.167 277.241 457.886 278.086C457.585 278.984 457.435 279.925 457.441 280.873ZM457.7 256.834V256.985C458.235 256.985 458.987 256.985 459.965 256.985C461.858 257.021 464.087 257.02 466.679 257.02C468.036 257.02 469.751 257.021 471.815 257.02C473.582 257.002 475.416 256.995 477.319 256.96C477.321 255.493 477.208 254.028 476.981 252.579C476.742 251.199 476.343 249.851 475.794 248.563C475.126 246.883 473.963 245.452 472.462 244.465C470.964 243.513 469.225 243.02 467.457 243.048C465.736 242.992 464.041 243.478 462.605 244.44C461.242 245.385 460.157 246.689 459.468 248.209C458.898 249.457 458.471 250.765 458.192 252.11C457.857 253.661 457.692 255.246 457.7 256.834ZM457.767 184.773C457.767 185.128 457.768 185.588 457.769 186.152C457.768 186.404 457.768 186.718 457.769 187.006C458.023 187.006 458.308 187.005 458.658 187.004C459.637 187.005 460.977 187.006 462.643 187.006L464.855 187.012C465.501 187.012 466.207 187.012 467.003 187.012C466.942 186.19 466.806 185.043 466.639 183.626C466.459 181.875 466.094 180.15 465.549 178.477C465.256 177.537 464.779 176.666 464.149 175.915C463.906 175.608 463.595 175.361 463.243 175.195C462.888 175.029 462.504 174.949 462.115 174.959C461.711 174.934 461.306 174.994 460.927 175.137C460.546 175.279 460.199 175.501 459.909 175.786C459.259 176.506 458.791 177.373 458.544 178.314C458.256 179.276 458.059 180.263 457.952 181.261C457.828 182.428 457.765 183.601 457.767 184.773ZM486.336 226.926C486.337 226.788 486.364 226.651 486.417 226.524C486.471 226.398 486.549 226.282 486.646 226.187C486.744 226.09 486.859 226.017 486.987 225.966C487.113 225.916 487.249 225.891 487.386 225.894H491.852C492.122 225.889 492.383 225.989 492.58 226.177C492.777 226.365 492.895 226.623 492.908 226.897V231.698C492.907 231.838 492.879 231.976 492.824 232.104C492.771 232.233 492.692 232.349 492.593 232.445C492.494 232.542 492.378 232.619 492.249 232.669C492.12 232.718 491.983 232.741 491.844 232.736H487.392C487.256 232.74 487.122 232.718 486.996 232.669C486.87 232.62 486.755 232.548 486.657 232.454C486.559 232.36 486.48 232.248 486.425 232.123C486.371 231.999 486.339 231.864 486.336 231.729V226.926Z" fill="white"/>
<path d="M427.808 140.688C426.684 140.705 425.576 140.974 424.566 141.478C423.561 142.002 422.723 142.807 422.15 143.801C421.732 144.497 421.424 145.256 421.239 146.049C421.019 147.05 420.919 148.074 420.941 149.1C420.943 149.721 420.944 150.341 420.983 150.901C420.986 151.235 421.011 151.568 421.053 151.9L418.829 151.596C418.788 151.293 418.765 150.989 418.76 150.683C418.758 150.175 418.726 149.579 418.722 148.901C418.681 147.278 418.913 145.659 419.408 144.116C419.803 142.886 420.443 141.755 421.291 140.796C422.033 139.999 422.908 139.347 423.876 138.873C424.975 138.328 426.18 138.052 427.4 138.065C428.582 138.046 429.756 138.249 430.867 138.666C431.91 139.075 432.877 139.664 433.725 140.406C434.486 141.082 435.083 141.929 435.472 142.88C435.882 143.86 436.093 144.916 436.089 145.981C436.134 146.898 435.99 147.814 435.669 148.671C435.347 149.528 434.855 150.309 434.223 150.96C433.45 151.645 432.553 152.168 431.583 152.497C430.373 152.89 429.109 153.08 427.841 153.059L427.808 140.688ZM432.944 148.942C433.338 148.536 433.646 148.048 433.847 147.511C434.047 146.977 434.136 146.404 434.108 145.832C434.134 144.65 433.7 143.506 432.903 142.653C432.019 141.753 430.893 141.143 429.668 140.902L429.703 150.427C430.906 150.306 432.038 149.785 432.926 148.944L432.944 148.942ZM424.571 168.784C423.431 168.791 422.451 168.796 421.615 168.801C420.779 168.806 420.118 168.81 419.616 168.813C419.114 168.817 418.864 168.817 418.799 168.817C418.798 168.707 418.76 168.197 418.671 167.23C418.583 166.26 418.549 165.063 418.542 163.567C418.546 162.621 418.631 161.677 418.799 160.746C418.94 159.888 419.185 159.053 419.529 158.258C419.897 157.394 420.46 156.634 421.175 156.043C421.912 155.461 422.822 155.158 423.752 155.183C424.751 155.161 425.723 155.509 426.487 156.169C427.329 156.922 427.978 157.876 428.381 158.944C428.734 159.903 429.004 160.889 429.191 161.897C429.457 163.303 429.65 164.723 429.77 166.153C431.478 165.998 432.601 165.208 433.141 163.786C433.581 162.563 433.782 161.264 433.734 159.963C433.73 159.455 433.729 159.013 433.729 158.653L433.62 157.201L435.838 157.431C435.838 157.616 435.889 157.963 435.914 158.466C435.941 158.97 435.948 159.659 435.953 160.546C435.973 161.755 435.838 162.964 435.554 164.138C435.328 165.12 434.875 166.03 434.231 166.792C433.953 167.1 433.646 167.378 433.312 167.622C432.936 167.883 432.531 168.094 432.103 168.25C431.591 168.443 431.06 168.575 430.519 168.644C429.81 168.736 429.095 168.782 428.38 168.781C426.963 168.771 425.71 168.777 424.571 168.784ZM427.741 166.145C427.715 165.632 427.609 164.746 427.422 163.484C427.275 162.412 427.033 161.358 426.696 160.334C426.463 159.704 426.107 159.128 425.647 158.644C425.423 158.4 425.15 158.206 424.848 158.078C424.544 157.948 424.216 157.888 423.889 157.897C423.228 157.863 422.579 158.089 422.075 158.528C421.578 159.01 421.214 159.615 421.021 160.286C420.825 160.892 420.688 161.517 420.615 162.151C420.525 162.866 420.481 163.586 420.485 164.306L420.487 165.144L420.545 166.193L427.742 166.152L427.741 166.145ZM421.558 182.311C420.911 181.915 420.373 181.359 419.996 180.692C419.531 179.941 419.198 179.114 419.012 178.245C418.786 177.213 418.676 176.157 418.678 175.099C418.677 174.813 418.689 174.521 418.713 174.223C418.711 173.918 418.747 173.632 418.758 173.359C418.769 173.086 418.757 172.863 418.809 172.676C418.826 172.561 418.836 172.444 418.839 172.329L421.024 172.21C421.023 172.351 421.014 172.492 420.997 172.632L420.926 173.421L420.881 174.421C420.883 174.768 420.884 175.116 420.885 175.471C420.896 175.986 420.932 176.499 420.995 177.01C421.039 177.542 421.167 178.06 421.375 178.548C421.509 179.037 421.797 179.464 422.194 179.767C422.59 180.068 423.073 180.228 423.567 180.218C423.965 180.234 424.356 180.108 424.675 179.864C424.993 179.585 425.262 179.25 425.47 178.879C425.652 178.604 425.813 178.317 425.952 178.019L426.438 176.979C426.614 176.63 426.776 176.281 426.931 175.926C427.089 175.571 427.251 175.259 427.407 174.979C427.813 174.283 428.365 173.688 429.024 173.238C429.671 172.816 430.423 172.596 431.189 172.605C431.981 172.59 432.758 172.825 433.415 173.274C434.089 173.741 434.631 174.381 434.991 175.128C435.362 175.818 435.609 176.568 435.72 177.347C435.831 178.131 435.891 178.92 435.897 179.712C435.9 180.411 435.89 180.984 435.868 181.426L435.834 182.203L433.618 182.389C433.617 182.314 433.616 181.973 433.68 181.353C433.745 180.73 433.742 180.054 433.74 179.302C433.743 178.798 433.695 178.296 433.602 177.8C433.524 177.388 433.398 176.988 433.221 176.61C433.025 176.184 432.714 175.821 432.327 175.566C432.033 175.371 431.691 175.264 431.339 175.254C430.912 175.247 430.496 175.405 430.177 175.697C429.853 175.997 429.579 176.349 429.364 176.739C429.225 176.969 429.08 177.242 428.919 177.561C428.756 177.878 428.593 178.234 428.413 178.632L427.92 179.683C427.771 179.989 427.644 180.238 427.529 180.425C427.121 181.144 426.57 181.767 425.913 182.254C425.28 182.684 424.535 182.906 423.777 182.888C422.998 182.915 422.229 182.715 421.558 182.311ZM427.705 198.956L419.871 195.406C417.179 194.179 415.119 193.251 413.695 192.617C412.27 192.004 411.469 191.623 411.268 191.532L412.12 189.142L419.269 192.678C419.384 192.628 419.842 192.425 420.654 192.048C421.463 191.671 422.624 191.16 424.148 190.476C425.672 189.79 427.323 189.034 429.106 188.223C430.891 187.412 432.843 186.5 434.96 185.513L436.06 188.096C434.494 188.726 432.952 189.356 431.439 189.986C429.927 190.615 428.415 191.288 426.885 191.95L423.457 193.46C422.67 193.799 422.248 193.996 422.144 194.046L422.144 194.076C422.188 194.077 422.581 194.272 423.322 194.597C424.062 194.923 425.142 195.382 426.592 195.982C428.042 196.582 429.527 197.207 431.086 197.88C432.646 198.554 434.302 199.241 436.031 199.957L435.118 202.31C432.703 201.211 430.232 200.091 427.705 198.956Z" fill="white"/>
<path d="M318.407 267.981C306.952 272.042 291.854 260.204 284.651 239.891C277.449 219.577 280.897 199.817 292.353 195.755C303.808 191.694 318.933 204.869 326.135 225.183C333.337 245.497 329.863 263.919 318.407 267.981Z" fill="white"/>
<path d="M295.003 245.474C283.649 243.91 279.941 231.128 279.487 226.316C279.267 209.661 286.333 186.108 303.408 195.981C305.774 199.077 321.791 203.082 319.575 219.172C317.358 235.262 306.357 247.038 295.003 245.474Z" fill="#007BC4"/>
<path d="M287.37 229.558C281.875 228.219 279.119 220.16 281.214 211.558C283.31 202.955 280.857 197.058 292.907 197.981C300.907 198.594 305.221 207.981 302.907 217.481C300.812 226.084 294.958 230.981 287.37 229.558Z" fill="black"/>
<ellipse cx="303.168" cy="223.209" rx="7.64403" ry="6.22681" transform="rotate(30.2231 303.168 223.209)" fill="white"/>
<ellipse cx="304.883" cy="229.985" rx="38.2938" ry="21.5691" transform="rotate(70.4786 304.883 229.985)" stroke="black" stroke-width="6"/>
<path d="M287.196 206.927C285.403 205.241 285.611 202.107 287.66 199.927C289.907 197.481 292.907 197.481 294.618 199.034C296.412 200.721 296.204 203.855 294.155 206.034C292.105 208.214 288.99 208.614 287.196 206.927Z" fill="white"/>
<circle cx="202.407" cy="254.981" r="48.5" transform="rotate(90 202.407 254.981)" fill="white"/>
<path d="M189.407 276.981C168.697 276.981 158.907 261.481 156.907 255.481C152.407 234.481 178.407 200.481 211.407 209.981C216.407 213.481 226.907 218.77 226.907 239.481C226.907 260.191 210.118 276.981 189.407 276.981Z" fill="#007BC4"/>
<circle cx="188.407" cy="234.481" r="18.5" transform="rotate(90 188.407 234.481)" fill="black"/>
<circle cx="180.907" cy="219.981" r="7" transform="rotate(90 180.907 219.981)" fill="white"/>
<circle cx="199.407" cy="246.481" r="9.5" transform="rotate(90 199.407 246.481)" fill="white"/>
<circle cx="202.407" cy="254.981" r="48.5" transform="rotate(90 202.407 254.981)" stroke="black" stroke-width="7"/>
<path d="M353.407 145.981C341.407 144.481 337.408 157.981 337.408 157.981C337.408 157.981 337.408 150.981 335.408 146.981C333.408 142.981 331.612 141.586 327.907 140.481C324.203 139.376 318.907 140.481 316.407 144.981C314.558 148.309 310.622 159.481 314.908 169.481C322.699 187.661 340.408 195.981 340.408 195.981C340.408 195.981 366.907 181.981 366.907 164.981C366.908 152.481 356.88 146.415 353.407 145.981Z" fill="white"/>
<path d="M253.908 281.481C253.908 281.481 253.079 285.43 251.908 287.481C250.736 289.531 247.908 291.981 247.908 291.981" stroke="black" stroke-width="6" stroke-linecap="round"/>
<path d="M298.408 274.481C298.408 274.481 294.408 282.568 279.908 286.981C265.408 291.394 252.408 286.981 252.408 286.981" stroke="black" stroke-width="6" stroke-linecap="round"/>
<path d="M294.408 270.481C294.408 270.481 295.845 271.809 297.408 272.981C298.97 274.152 303.908 274.981 303.908 274.981" stroke="black" stroke-width="6" stroke-linecap="round"/>
<path d="M147.907 263.981C148.502 265.468 104.907 260.981 104.907 260.981L103.907 248.981C103.907 248.981 146.407 237.269 146.407 253.981C146.408 257.481 146.908 261.481 147.907 263.981Z" fill="#E62C32"/>
<path d="M149.589 235.988C149.589 233.439 152.408 228.981 152.408 228.981L116.908 203.481L114.908 213.981C114.908 213.981 149.589 238.981 149.589 235.988Z" fill="#E62C32"/>
<path d="M128.408 253.981C111.408 253.662 104.908 251.481 104.908 251.481L105.408 243.481L146.908 247.981L146.408 253.981C146.408 253.981 135.241 254.109 128.408 253.981Z" fill="white"/>
<path d="M146.908 247.981C146.908 247.981 147.408 240.481 149.408 236.481C150.908 233.481 104.908 238.481 104.908 238.481L105.408 245.481C105.408 245.481 119.068 247.591 126.908 247.981C134.708 248.369 146.908 247.981 146.908 247.981Z" fill="#007BC4"/>
<path d="M156.505 223.334L152.408 228.981C152.408 228.981 141.187 222.498 133.908 217.481C126.927 212.67 115.408 202.481 115.408 202.481L117.958 195.255C118.182 194.621 118.954 194.384 119.495 194.783L156.289 221.942C156.731 222.269 156.827 222.89 156.505 223.334Z" fill="white"/>
<path d="M162.951 215.563C162.908 216.481 156.408 223.481 156.408 223.481C156.408 223.481 145.187 217.498 137.908 212.481C130.927 207.67 119.408 197.481 119.408 197.481L121.999 190.138C122.21 189.541 122.91 189.284 123.452 189.612C129.811 193.463 163.039 213.68 162.951 215.563Z" fill="#007BC4"/>
<path d="M160.408 213.981C160.408 213.981 146.052 205.858 138.908 200.481C133.202 196.186 125.827 188.61 123.04 185.683C122.521 185.137 121.608 185.335 121.358 186.046L112.14 212.318C112.001 212.715 112.122 213.155 112.45 213.42C114.117 214.765 119.271 218.894 122.908 221.481C127.301 224.605 134.408 228.981 134.408 228.981L146.066 235.198C146.972 235.682 146.649 237.067 145.623 237.107C143.384 237.194 140.734 237.323 139.408 237.481C129.779 238.628 109.425 236.235 104.498 235.62C103.913 235.547 103.389 235.991 103.368 236.58L102.444 261.968C102.424 262.525 102.863 262.991 103.42 263.005L144.908 263.981" stroke="black" stroke-width="6" stroke-linecap="round"/>
<path d="M202.908 182.481C202.908 182.481 224.908 203.481 247.908 199.981C275.908 195.72 286.408 180.033 286.408 158.481C286.408 133.481 253.908 122.641 239.908 121.981C222.462 121.158 190.979 129.341 172.408 143.481C143.908 161.481 133.908 192.981 133.908 192.981" stroke="black" stroke-width="6" stroke-linecap="round"/>
<defs>
<clipPath id="clip0_24_78">
<rect width="82" height="82" fill="white" transform="translate(89.4969 14.6085)"/>
</clipPath>
</defs>
</svg>
