<svg width="30" height="29" viewBox="0 0 30 29" fill="none" xmlns="http://www.w3.org/2000/svg">
<path fill-rule="evenodd" clip-rule="evenodd" d="M7.07431 1.54288C6.99917 1.61246 6.95317 1.70793 6.94559 1.81006L6.97559 8.02006H5.85059V1.81006C5.85059 1.41223 6.00862 1.0307 6.28993 0.749398C6.57123 0.468094 6.95276 0.310059 7.35059 0.310059H22.6806C23.0784 0.310059 23.4599 0.468094 23.7412 0.749398C24.0226 1.0307 24.1806 1.41223 24.1806 1.81006V8.02006H15.2856V1.43506H7.35059C7.24817 1.43478 7.14946 1.4733 7.07431 1.54288ZM13.1702 21.3101V21.4451V21.5501C13.1724 21.7359 13.1266 21.9191 13.0372 22.082C12.9479 22.2449 12.818 22.382 12.6602 22.4801L11.7902 23.1251C10.9052 23.7551 11.3552 24.5351 12.0602 25.0601L13.7102 26.2601C13.8452 26.3651 13.8902 26.2601 13.8152 26.1551C13.7372 25.9923 13.6305 25.8449 13.5002 25.7201L12.2552 24.8201C12.1773 24.7754 12.1125 24.711 12.0675 24.6333C12.0225 24.5556 11.9988 24.4674 11.9988 24.3776C11.9988 24.2878 12.0225 24.1995 12.0675 24.1218C12.1125 24.0441 12.1773 23.9797 12.2552 23.9351L13.6502 22.9301C13.7425 22.8241 13.8116 22.6999 13.8529 22.5655C13.8943 22.4312 13.907 22.2896 13.8902 22.1501V21.7151V21.3101H13.1702ZM9.80965 22.2255C10.3621 22.7327 10.7046 23.4284 10.7697 24.1755V24.1605C10.7969 24.8368 10.9764 25.4982 11.2947 26.0955C11.4147 26.3355 11.2647 26.2605 11.0997 26.0955C10.5472 25.5883 10.2047 24.8926 10.1397 24.1455C10.1187 23.473 9.93881 22.8151 9.61465 22.2255C9.49465 22.0005 9.64465 22.0755 9.80965 22.2255ZM8.73916 23.521C8.91403 23.4794 9.09815 23.5047 9.25533 23.5919C9.34522 23.611 9.42968 23.6501 9.50251 23.7061C9.57533 23.7622 9.63467 23.8339 9.67616 23.9159C9.71764 23.9979 9.74022 24.0881 9.74223 24.18C9.74424 24.2719 9.72563 24.3631 9.68777 24.4468C9.64992 24.5305 9.59377 24.6047 9.52347 24.6639C9.45317 24.7231 9.37049 24.7658 9.28152 24.7888C9.19255 24.8119 9.09955 24.8147 9.00936 24.797C8.91916 24.7794 8.83407 24.7418 8.76033 24.6869C8.5872 24.6285 8.44352 24.5051 8.35957 24.3428C8.27562 24.1805 8.25797 23.992 8.31033 23.8169C8.41133 23.6682 8.5643 23.5627 8.73916 23.521ZM15.2848 27.5929H7.34982C7.24241 27.5929 7.1394 27.5503 7.06345 27.4743C6.98749 27.3984 6.94482 27.2954 6.94482 27.1879V21.023H5.81982V27.1879C5.81982 27.5858 5.97786 27.9673 6.25916 28.2486C6.54047 28.5299 6.922 28.6879 7.31982 28.6879H22.6498C22.8468 28.6879 23.0419 28.6491 23.2238 28.5738C23.4058 28.4984 23.5712 28.3879 23.7105 28.2486C23.8498 28.1093 23.9603 27.944 24.0356 27.762C24.111 27.58 24.1498 27.3849 24.1498 27.1879V21.023H15.2848V27.5929ZM4.5 9.31006H25.5C26.6935 9.31006 27.8381 9.78416 28.682 10.6281C29.5259 11.472 30 12.6166 30 13.8101V15.1601C30 16.3535 29.5259 17.4981 28.682 18.342C27.8381 19.186 26.6935 19.6601 25.5 19.6601H4.5C3.30653 19.6601 2.16193 19.186 1.31802 18.342C0.474106 17.4981 0 16.3535 0 15.1601V13.8101C0 12.6166 0.474106 11.472 1.31802 10.6281C2.16193 9.78416 3.30653 9.31006 4.5 9.31006ZM28.83 15.1601V13.8101H28.875C28.8711 13.3708 28.7807 12.9366 28.6089 12.5322C28.4372 12.1279 28.1875 11.7614 27.8741 11.4535C27.5607 11.1457 27.1897 10.9026 26.7824 10.7382C26.375 10.5737 25.9393 10.4911 25.5 10.4951H4.5C4.06072 10.4911 3.62497 10.5737 3.21762 10.7382C2.81027 10.9026 2.4393 11.1457 2.1259 11.4535C1.8125 11.7614 1.5628 12.1279 1.39107 12.5322C1.21933 12.9366 1.12892 13.3708 1.125 13.8101V15.1901C1.12498 15.6319 1.21249 16.0693 1.38246 16.4771C1.55244 16.8849 1.80151 17.255 2.11531 17.566C2.42911 17.877 2.80141 18.1228 3.21071 18.2891C3.62001 18.4554 4.05821 18.539 4.5 18.5351H25.5C25.9405 18.5331 26.3764 18.4441 26.7824 18.2733C27.1885 18.1024 27.5568 17.853 27.8662 17.5394C28.1756 17.2258 28.4201 16.8542 28.5855 16.4459C28.7509 16.0376 28.834 15.6006 28.83 15.1601ZM3.62988 12.1167H4.49988V15.7017C4.49321 15.7519 4.49767 15.803 4.51296 15.8513C4.52826 15.8996 4.554 15.9439 4.58837 15.9812C4.62273 16.0184 4.66488 16.0476 4.7118 16.0667C4.75873 16.0858 4.80929 16.0943 4.85988 16.0917C4.97418 16.1097 5.09059 16.1097 5.20488 16.0917L5.30988 16.7817C5.04905 16.8943 4.76891 16.9554 4.48488 16.9617C4.37227 16.9708 4.25904 16.9552 4.15302 16.9162C4.047 16.8772 3.95071 16.8156 3.87083 16.7357C3.79095 16.6559 3.72937 16.5596 3.69036 16.4536C3.65135 16.3475 3.63583 16.2343 3.64488 16.1217L3.62988 12.1167ZM6.60012 12.1167H5.74512V12.9717H6.60012V12.1167ZM6.60012 13.4517H5.74512V16.8117H6.60012V13.4517ZM8.19 16.2417V16.8117H7.5V12.1167H8.355V14.0367C8.47136 13.8349 8.64017 13.6684 8.84353 13.5549C9.04688 13.4413 9.27719 13.3849 9.51 13.3917C9.72504 13.4048 9.93524 13.4611 10.1281 13.5572C10.3209 13.6532 10.4924 13.7872 10.6324 13.9509C10.7724 14.1147 10.8779 14.305 10.9428 14.5104C11.0077 14.7158 11.0305 14.9322 11.01 15.1467C11.039 15.5757 10.8978 15.9989 10.6171 16.3245C10.3363 16.6502 9.93859 16.8522 9.51 16.8867C9.27468 16.8962 9.04124 16.8412 8.835 16.7275C8.62875 16.6138 8.45756 16.4458 8.34 16.2417H8.19ZM10.05 15.1617C10.0602 15.0356 10.0454 14.9086 10.0064 14.7882C9.96745 14.6678 9.90503 14.5563 9.82278 14.4601C9.74053 14.3639 9.64007 14.2849 9.52718 14.2277C9.4143 14.1705 9.29121 14.1362 9.165 14.1267C8.9718 14.1411 8.78689 14.2111 8.63254 14.3282C8.47818 14.4453 8.36097 14.6045 8.295 14.7867V15.5967C8.36438 15.7589 8.47917 15.8976 8.62554 15.996C8.7719 16.0945 8.94362 16.1486 9.12 16.1517C9.24671 16.1498 9.37175 16.1225 9.48768 16.0713C9.60362 16.0202 9.70807 15.9462 9.79484 15.8538C9.8816 15.7615 9.94891 15.6526 9.99274 15.5337C10.0366 15.4148 10.056 15.2883 10.05 15.1617ZM11.2337 14.469C11.1468 14.6886 11.1064 14.9239 11.1149 15.1599C11.1128 15.3895 11.157 15.6173 11.2448 15.8295C11.3327 16.0417 11.4623 16.234 11.6261 16.395C11.7899 16.556 11.9845 16.6823 12.1982 16.7665C12.4118 16.8507 12.6403 16.8909 12.8699 16.8849C13.1894 16.9027 13.5074 16.8289 13.7865 16.6721C14.0655 16.5153 14.2939 16.2821 14.4449 15.9999L13.6949 15.8049C13.6185 15.9474 13.5032 16.0653 13.3625 16.145C13.2218 16.2246 13.0614 16.2627 12.8999 16.2549C12.6702 16.2591 12.4478 16.1738 12.2799 16.017C12.1119 15.8602 12.0115 15.6443 11.9999 15.4149H14.6699C14.6799 15.3151 14.6799 15.2146 14.6699 15.1149C14.6742 14.8833 14.631 14.6533 14.543 14.4391C14.455 14.2249 14.3241 14.031 14.1582 13.8693C13.9923 13.7077 13.7951 13.5817 13.5787 13.4993C13.3623 13.4168 13.1313 13.3796 12.8999 13.3899C12.664 13.3794 12.4284 13.4178 12.2081 13.5029C11.9878 13.5879 11.7874 13.7177 11.6197 13.8839C11.452 14.0502 11.3206 14.2494 11.2337 14.469ZM13.5107 14.2191C13.6766 14.3851 13.7699 14.6102 13.7699 14.8449H11.9999C11.9999 14.6102 12.0931 14.3851 12.2591 14.2191C12.4251 14.0531 12.6502 13.9599 12.8849 13.9599C13.1196 13.9599 13.3447 14.0531 13.5107 14.2191ZM17.01 14.1982C16.7819 14.1769 16.5525 14.2205 16.3481 14.324C16.1437 14.4275 15.9728 14.5867 15.855 14.7832V16.8082H15V13.4482H15.795V14.1682C15.8793 13.9557 16.0204 13.7705 16.203 13.6329C16.3856 13.4953 16.6025 13.4106 16.83 13.3882H17.01V14.1982ZM18.6301 16.8851C18.9631 16.8717 19.2899 16.7901 19.5901 16.6451L19.4101 15.9701C19.2644 16.0402 19.1064 16.081 18.9451 16.0901C18.9006 16.0948 18.8556 16.0895 18.8134 16.0746C18.7712 16.0597 18.7329 16.0355 18.7013 16.0039C18.6696 15.9722 18.6454 15.9339 18.6305 15.8917C18.6156 15.8495 18.6103 15.8046 18.6151 15.7601V14.1101H19.3351V13.4051H18.6151V12.3101H17.7451V13.4501H17.3101V14.1101H17.7451V16.0451C17.7377 16.1612 17.7559 16.2775 17.7984 16.3859C17.841 16.4942 17.9068 16.5919 17.9912 16.672C18.0756 16.7521 18.1765 16.8127 18.2869 16.8495C18.3973 16.8863 18.5145 16.8985 18.6301 16.8851ZM19.6207 15.1617C19.6144 14.9263 19.6564 14.6921 19.7441 14.4735C19.8318 14.2549 19.9633 14.0566 20.1305 13.8907C20.2977 13.7249 20.4972 13.5951 20.7165 13.5093C20.9358 13.4234 21.1704 13.3834 21.4057 13.3917C21.6384 13.3813 21.8707 13.419 22.0882 13.5023C22.3056 13.5857 22.5036 13.713 22.6696 13.8763C22.8357 14.0395 22.9664 14.2353 23.0534 14.4513C23.1405 14.6673 23.1821 14.8989 23.1757 15.1317C23.1848 15.2265 23.1848 15.3219 23.1757 15.4167H20.5357C20.5474 15.6461 20.6478 15.8621 20.8157 16.0188C20.9837 16.1756 21.206 16.2609 21.4357 16.2567C21.5972 16.2645 21.7577 16.2264 21.8984 16.1468C22.0391 16.0671 22.1543 15.9492 22.2307 15.8067L22.9807 16.0017C22.8298 16.2839 22.6013 16.5171 22.3223 16.6739C22.0433 16.8307 21.7253 16.9045 21.4057 16.8867C21.1737 16.8969 20.942 16.8597 20.7248 16.7774C20.5075 16.6951 20.3094 16.5694 20.1423 16.408C19.9753 16.2466 19.8429 16.0528 19.7532 15.8385C19.6636 15.6243 19.6185 15.394 19.6207 15.1617ZM22.2757 14.8467C22.2478 14.6337 22.1434 14.4382 21.982 14.2965C21.8205 14.1548 21.613 14.0767 21.3982 14.0767C21.1834 14.0767 20.976 14.1548 20.8145 14.2965C20.6531 14.4382 20.5486 14.6337 20.5207 14.8467H22.2757ZM21.6157 13.0467L21.0007 12.8817L21.3457 12.1167H22.1557L21.6157 13.0467ZM26.7746 15.4017V14.7567H25.7246V13.6167H25.0196V14.7567H23.9546V15.4017H25.0196V16.5417H25.7246V15.4017H26.7746Z" fill="#1972D2"/>
</svg>
