<svg width="348" height="217" viewBox="0 0 348 217" fill="none" xmlns="http://www.w3.org/2000/svg">
<path d="M12.9164 216.585C9.49548 216.579 6.2154 215.231 3.79561 212.836C1.37451 210.441 0.0107275 207.194 0 203.805L0 99.5852L347.199 99.5852V203.805C347.19 207.192 345.828 210.438 343.411 212.832C340.994 215.227 337.721 216.576 334.302 216.585H12.9164Z" fill="#DCDCDC"/>
<path d="M0 12.7782L0 101.085L347.183 101.085V12.7782C347.172 9.39232 345.811 6.14737 343.394 3.75304C340.978 1.35877 337.702 0.010162 334.285 0L12.8994 0C9.48188 0.0101773 6.20666 1.35871 3.78996 3.75304C1.37326 6.14738 0.010254 9.39247 0 12.7782Z" fill="#BCBBDB"/>
<path d="M70.154 69.7093C70.1318 69.846 72.4557 74.5229 72.2243 74.5399C70.1708 74.6809 56.7878 74.2026 55.2337 72.1284C52.9745 69.1259 50.4421 65.6607 48.3883 62.8973C46.6126 60.5135 44.0388 60.2782 42.3151 62.5877C40.3942 65.1674 37.3303 69.2316 36.1022 70.8663C35.3575 71.9028 34.4084 72.7846 33.3085 73.4585C32.3463 74.0189 31.8224 73.6934 32.5187 72.7764C35.4985 68.8209 37.9151 65.5664 40.7339 61.8342C44.322 57.0982 49.6522 54.0847 54.0211 59.9886C56.5544 63.4115 57.1255 64.973 59.1127 67.639C60.3095 69.2447 64.6333 69.7093 64.6333 69.7093C64.6333 69.7093 70.1673 69.6272 70.154 69.7093ZM60.9556 45.4267C60.9562 45.6936 60.5548 46.2491 59.986 46.8402C55.6893 51.3056 51.7995 52.4524 46.6533 53.2052C41.5071 53.958 39.5864 53.6694 33.4535 56.6803C31.7705 57.5032 32.2495 56.5181 33.3207 55.4046C37.6169 50.94 41.5071 49.7923 46.6533 49.0396C51.7995 48.2868 53.7208 48.5764 59.8532 45.5662C60.6423 45.1801 60.9552 45.1912 60.9556 45.4267ZM51.2554 40.545C51.2664 41.3923 51.0749 42.2928 50.6596 43.1594C49.4515 45.6801 46.8175 46.993 44.7681 46.0714C42.7224 45.1387 42.0348 42.3208 43.2429 39.8C44.4509 37.2791 47.0873 35.9465 49.1326 36.8879C50.475 37.5052 51.2343 38.9274 51.2554 40.545Z" fill="white"/>
<path d="M162.769 84.891C160.831 83.854 159.031 82.578 157.41 81.0908C157.903 81.0566 158.366 81.0058 158.815 80.9521C160.12 80.8182 161.404 80.5286 162.64 80.088C164.399 79.4201 165.528 78.5705 166.139 77.6171C166.705 76.7063 167.042 75.6709 167.125 74.6006L166.794 74.6022C164.78 74.5961 162.774 74.3631 160.811 73.91C158.895 73.5118 157.074 72.7433 155.45 71.6504L155.424 71.6709C153.797 70.6029 152.475 69.1267 151.589 67.3882C150.704 65.6512 150.287 63.7109 150.379 61.7621C150.342 59.4908 151.034 57.2686 152.35 55.4216C153.696 53.5901 155.472 52.1215 157.524 51.15C159.097 50.3873 160.775 49.8639 162.502 49.5984C164.605 49.2882 166.729 49.1449 168.854 49.1695H171.59C171.8 49.1944 171.993 49.2965 172.133 49.4549C172.272 49.6128 172.349 49.8168 172.35 50.0289V51.6057C172.349 52.3662 172.349 53.3658 172.348 54.6206C172.319 57.4182 172.304 60.0734 172.304 62.5915C172.304 64.3067 172.274 66.0415 172.304 67.825C172.334 69.6094 172.334 71.2358 172.334 72.7179C172.334 75.5005 171.876 77.7697 170.856 79.4841C169.822 81.174 168.35 82.5515 166.596 83.4671C165.374 84.0768 164.092 84.5549 162.769 84.891ZM125.075 74.6369C124.701 73.753 123.416 70.8366 121.627 66.8332C119.372 61.8547 117.095 56.7992 114.795 51.6656L114.49 50.9529L119.383 48.7438L127.338 67.62L134.584 49.9658C134.676 49.8125 134.806 49.6855 134.963 49.6C135.119 49.513 135.296 49.4673 135.475 49.4707L142.472 49.4707H146.416C146.531 49.4712 146.644 49.4932 146.751 49.5385C146.857 49.5832 146.952 49.6504 147.032 49.7324C147.112 49.8155 147.175 49.9138 147.216 50.0226C147.258 50.1303 147.276 50.2451 147.273 50.36V73.7381C147.276 73.849 147.258 73.9612 147.218 74.0661C147.178 74.1709 147.116 74.2668 147.04 74.3483C146.963 74.4293 146.873 74.4946 146.77 74.5391C146.668 74.5851 146.556 74.609 146.444 74.6117H142.502C142.39 74.6122 142.279 74.5891 142.175 74.5454C142.07 74.5012 141.975 74.4383 141.895 74.3578C141.816 74.2778 141.754 74.1831 141.711 74.0787C141.669 73.9728 141.649 73.8595 141.65 73.746V54.0325H138.265C136.534 57.9864 134.735 62.0936 132.843 66.3885C130.95 70.6828 129.624 73.7277 129.211 74.6369H125.075ZM186.799 74.6038C185.25 74.6099 183.712 74.343 182.254 73.8185C180.845 73.3042 179.547 72.5238 178.43 71.5195C177.139 70.3104 176.13 68.8314 175.474 67.1864C174.779 65.4829 174.424 63.6582 174.429 61.8188C174.415 60.1048 174.72 58.4039 175.326 56.8014C175.946 55.2243 176.902 53.801 178.125 52.6307C179.254 51.5131 180.594 50.6359 182.067 50.0462C183.582 49.4438 185.199 49.136 186.829 49.1411C188.454 49.1199 190.069 49.4065 191.59 49.9816C193.032 50.5352 194.34 51.3892 195.428 52.4872C196.67 53.6869 197.644 55.1375 198.282 56.743C198.906 58.3837 199.217 60.1265 199.199 61.8819C199.206 63.6915 198.855 65.4847 198.164 67.1564C197.55 68.666 196.637 70.0345 195.48 71.1789C194.322 72.3242 192.945 73.2229 191.431 73.8185C189.947 74.3603 188.378 74.627 186.799 74.6038ZM102.646 74.5943L102.47 74.5644H97.0974C95.5605 74.5923 94.0245 74.4501 92.5186 74.1386C91.1937 73.9015 89.9141 73.4545 88.7291 72.8141C87.7268 72.1945 86.8838 71.3496 86.2651 70.3448C85.7781 69.491 85.5019 68.534 85.4616 67.5522L85.46 67.5065L85.4616 65.2248C85.4612 64.4043 85.4663 63.1878 85.4616 61.5776C85.4565 59.9659 85.4316 58.7895 85.4317 58.0581C85.3917 56.3183 84.9884 55.1358 84.5591 54.597C84.1307 54.0586 83.2579 53.6892 81.779 53.6887C80.6409 53.7486 79.5257 54.0227 78.488 54.4945C77.1582 55.0278 75.8724 55.6675 74.645 56.4072C74.6448 56.8621 74.6437 57.6529 74.6434 58.8039C74.6439 60.5093 74.6433 62.0913 74.6434 63.4745C74.643 64.8587 74.6433 74.4397 74.6434 74.5691H69.4639V49.3981L74.7818 49.3997V51.6625C76.2343 50.8414 77.7556 50.1453 79.3261 49.5826C80.5896 49.1073 81.9197 48.8407 83.2681 48.7911C84.2706 48.7515 85.2708 48.9219 86.2038 49.2909C87.1377 49.6605 87.9831 50.2192 88.6882 50.9356C90.0736 52.3829 90.7499 54.3511 90.7496 56.6989C90.7494 58.7107 90.735 60.4404 90.7103 61.8929C90.6861 63.347 90.6851 64.5082 90.6852 65.4172V67.0082C90.6641 67.5234 90.8179 68.0297 91.1191 68.4463C91.5105 68.9302 92.0191 69.3023 92.5972 69.528C93.2255 69.7916 93.8906 69.9586 94.569 70.0231C94.7614 70.0622 94.9188 70.0614 95.0911 70.0609C94.689 69.1562 94.4828 68.1758 94.4857 67.1848C94.4608 65.5768 95.0187 64.0143 96.0565 62.787C97.1836 61.4948 98.6088 60.4993 100.208 59.8872C101.584 59.3552 103.007 58.9583 104.459 58.7014C106.167 58.3689 107.891 58.1268 109.625 57.9793C109.529 57.2937 109.289 56.6357 108.92 56.0508C108.437 55.3528 107.748 54.8238 106.949 54.5386C106.264 54.2603 105.547 54.0714 104.815 53.9757C103.859 53.8532 102.896 53.7966 101.933 53.807C101.242 53.8067 100.685 53.8265 100.178 53.8511C99.6706 53.8757 98.9846 53.9254 98.1415 53.9646L97.2201 54.0198L97.7862 49.3351L98.4277 49.2846L99.8413 49.201C100.566 49.1413 101.528 49.1406 102.771 49.1411C104.516 49.1183 106.257 49.3232 107.95 49.7498C109.409 50.115 110.761 50.8231 111.892 51.8154C112.851 52.7281 113.585 53.8508 114.035 55.0968C114.544 56.456 114.766 58.2903 114.767 60.6425C114.766 64.5761 114.8 67.7692 114.765 70.2501C114.731 72.7307 114.731 73.2506 114.732 73.4385V73.6151V73.7144C114.736 73.8067 114.721 73.8995 114.691 73.9872C114.64 74.1617 114.536 74.3152 114.391 74.424C114.245 74.5338 114.07 74.5924 113.889 74.5943H102.646ZM186.794 70.2801C187.652 70.286 188.501 70.1393 189.307 69.8449C190.054 69.5525 190.736 69.1145 191.313 68.5551C192.14 67.7396 192.785 66.7556 193.202 65.6695C193.645 64.5077 193.871 63.274 193.867 62.0317C193.867 60.6997 193.637 59.3778 193.187 58.1259C192.768 56.9358 192.057 55.8707 191.121 55.0274C190.567 54.5125 189.913 54.1197 189.2 53.8716C188.44 53.5943 187.637 53.4557 186.829 53.4616C185.96 53.4379 185.094 53.5824 184.28 53.8905C183.518 54.2165 182.825 54.6912 182.245 55.2845C181.435 56.0911 180.815 57.0666 180.427 58.1417C179.978 59.3153 179.75 60.5617 179.756 61.8188C179.74 63.1789 179.973 64.53 180.441 65.8066C180.895 66.986 181.64 68.0293 182.605 68.8405C183.168 69.3121 183.812 69.675 184.506 69.9096C185.243 70.16 186.016 70.2849 186.794 70.2801ZM167.056 70.0641H167.18C167.179 69.6189 167.18 68.9916 167.18 68.1766C167.209 66.5999 167.208 64.7424 167.208 62.582C167.208 61.4512 167.209 60.0222 167.208 58.3025C167.194 56.8299 167.188 55.3016 167.159 53.7155C165.954 53.7138 164.752 53.8082 163.562 53.9978C162.428 54.1962 161.322 54.5287 160.264 54.9864C158.884 55.5428 157.709 56.5119 156.899 57.7632C156.117 59.0118 155.713 60.4603 155.736 61.9339C155.69 63.368 156.089 64.7803 156.879 65.9769C157.655 67.1132 158.725 68.0169 159.973 68.5913C160.999 69.0657 162.072 69.4219 163.176 69.6541C164.45 69.9339 165.752 70.0712 167.056 70.0641ZM107.886 70.0089C108.177 70.0087 108.555 70.008 109.018 70.0073C109.225 70.008 109.483 70.0074 109.719 70.0073C109.719 69.7953 109.718 69.5579 109.718 69.2662C109.718 68.4502 109.719 67.3335 109.719 65.9454L109.724 64.1021C109.724 63.5635 109.724 62.9755 109.724 62.3124C109.049 62.3628 108.107 62.4761 106.944 62.6151C105.506 62.7652 104.089 63.0699 102.716 63.5234C101.944 63.7677 101.229 64.1651 100.612 64.6902C100.36 64.893 100.157 65.1517 100.021 65.4455C99.8847 65.7409 99.8191 66.0612 99.8272 66.3853C99.8065 66.722 99.856 67.0591 99.9734 67.3756C100.09 67.693 100.272 67.9816 100.506 68.2239C101.097 68.7652 101.809 69.1554 102.582 69.3608C103.372 69.6012 104.182 69.7652 105.002 69.8544C105.96 69.9578 106.923 70.0105 107.886 70.0089ZM142.498 46.2019C142.384 46.201 142.272 46.1783 142.167 46.1341C142.064 46.0895 141.969 46.0243 141.891 45.9433C141.811 45.8618 141.751 45.7657 141.71 45.6595C141.668 45.5541 141.648 45.4408 141.65 45.3268V41.6055C141.646 41.3799 141.729 41.1628 141.883 40.9984C142.037 40.8341 142.249 40.7362 142.474 40.7256H146.416C146.531 40.7261 146.644 40.7493 146.749 40.795C146.855 40.8397 146.95 40.9049 147.029 40.9873C147.109 41.0704 147.173 41.1671 147.213 41.2743C147.254 41.3815 147.273 41.4964 147.268 41.6118V45.322C147.271 45.4354 147.253 45.5468 147.213 45.6516C147.173 45.7564 147.114 45.8529 147.037 45.9339C146.96 46.0158 146.867 46.0818 146.765 46.1278C146.663 46.1728 146.553 46.1993 146.441 46.2019H142.498Z" fill="white"/>
<path d="M321.199 106.545C321.199 108.406 319.707 109.914 317.866 109.914H282.242C280.401 109.914 278.899 108.406 278.899 106.545V91.9534C278.899 90.0931 280.401 88.5852 282.242 88.5852H317.866C319.707 88.5852 321.199 90.0931 321.199 91.9534V106.545Z" fill="white"/>
<path d="M269.346 93.4678C268.81 94.6367 267.63 95.2388 266.719 94.8125C265.807 94.3862 265.503 93.0928 266.04 91.9238C266.576 90.7548 267.756 90.1528 268.667 90.58C269.579 91.0063 269.883 92.2997 269.346 93.4678Z" fill="white"/>
<path d="M273.68 94.4435C271.875 95.3827 270.275 96.0289 268.22 96.083C266.316 96.1326 264.689 96.9609 263.036 97.8216C262.455 98.1271 261.937 98.6688 261.534 99.1835C261.454 99.2916 260.891 100.137 261.445 99.8477C263.25 98.9077 264.859 98.2578 266.915 98.2038C268.818 98.1542 270.436 97.3286 272.089 96.4697C272.67 96.1641 273.189 95.6224 273.591 95.1078C273.671 94.9996 274.234 94.1551 273.68 94.4435Z" fill="white"/>
<path d="M303.085 93.5449H304.952C305.185 93.5449 305.355 93.3529 305.355 93.1213V91.3538C305.355 91.1222 305.185 90.9329 304.952 90.9329H303.076C302.852 90.941 302.682 91.1267 302.682 91.352V93.1249C302.682 93.3556 302.861 93.5449 303.085 93.5449ZM278.668 107.47H285.398C286.184 107.47 286.917 107.423 287.569 107.268C288.24 107.112 288.821 106.875 289.312 106.566C289.795 106.265 290.188 105.867 290.483 105.382C290.787 104.887 290.948 104.319 290.948 103.694C290.948 103.063 290.787 102.507 290.474 102.041C290.17 101.59 289.732 101.18 289.169 100.82C288.91 100.658 288.508 100.447 287.963 100.191C287.435 99.9459 287.015 99.7296 286.72 99.5511C286.479 99.4141 286.274 99.2474 286.104 99.0518C285.961 98.8905 285.889 98.703 285.889 98.4768C285.889 98.3137 285.943 98.1361 286.05 97.9468C286.157 97.7639 286.354 97.5989 286.622 97.4583C286.819 97.3583 287.06 97.2781 287.337 97.2231C287.632 97.1654 287.954 97.1357 288.275 97.1357C288.749 97.1357 290.251 97.0951 290.251 97.0951H293.951C293.942 97.635 293.933 100.388 293.933 100.388L293.906 103.129C293.906 104.585 294.353 105.686 295.229 106.404C296.078 107.105 297.338 107.47 298.964 107.47H309.957C309.966 107.471 309.975 107.473 309.984 107.473H311.593C311.825 107.473 312.004 107.291 312.004 107.06L311.986 103.678C311.986 103.678 311.968 98.4434 311.968 97.0807H314.265C314.488 97.0807 314.676 96.8914 314.676 96.6607V95.5043C314.676 95.2736 314.488 95.0816 314.256 95.0816H311.959V94.9113C311.959 94.439 312.022 94.0091 312.147 93.6323C312.263 93.2745 312.424 92.9942 312.629 92.7995C312.924 92.5228 313.255 92.3263 313.613 92.2137C313.988 92.0947 314.524 92.0343 315.194 92.0343H320.789V91.7549C320.789 91.0744 320.584 90.4426 320.244 89.9127H314.935C313.988 89.9127 313.166 90.0469 312.504 90.3119C311.843 90.5787 311.298 90.9293 310.887 91.3565C310.413 91.855 310.082 92.3957 309.895 92.9672C309.707 93.5251 309.618 94.1641 309.618 94.8635L309.6 103.815C309.6 103.815 309.591 104.532 309.591 105.328H305.212L305.194 101.089L305.212 98.5228L305.238 95.4899C305.229 95.2664 305.051 95.0951 304.827 95.0951H303.201C302.977 95.1032 302.807 95.2853 302.807 95.5106L302.843 98.7508L302.852 101.353L302.834 104.787C302.834 104.984 302.834 105.162 302.825 105.328H299.241C298.214 105.328 297.454 105.14 296.98 104.75C296.525 104.375 296.301 103.733 296.301 102.841V99.9838L296.319 98.2154C296.319 98.2154 296.328 97.5205 296.337 97.0951H300.01C300.242 97.0951 300.421 96.9175 300.421 96.6859V95.5061C300.421 95.2745 300.234 95.096 300.01 95.096H296.337V92.7734C296.337 92.5426 296.158 92.3615 295.926 92.3615H294.424C294.201 92.3696 294.031 92.5444 294.031 92.7707C294.031 93.4358 294.031 94.7238 294.031 95.0951C293.575 95.0951 289.464 95.0573 289.464 95.0573L288.553 95.0419C288.034 95.0419 287.489 95.0555 286.926 95.1375C286.345 95.2231 285.809 95.3998 285.335 95.662C284.772 95.9595 284.316 96.3614 283.977 96.8554C283.637 97.3601 283.458 97.9369 283.458 98.5687C283.458 99.1969 283.61 99.7575 283.914 100.237C284.209 100.707 284.638 101.117 285.192 101.456C285.559 101.678 286.023 101.911 286.56 102.149C287.069 102.371 287.471 102.585 287.757 102.78C288.016 102.947 288.213 103.117 288.356 103.287C288.463 103.422 288.517 103.604 288.517 103.841C288.517 104.115 288.445 104.34 288.311 104.528C288.159 104.726 287.918 104.9 287.596 105.045C287.355 105.153 287.033 105.229 286.649 105.271C286.247 105.316 285.916 105.328 285.666 105.328H276.264C275.585 105.328 274.832 106.261 274.215 105.94C273.491 105.56 272.484 104.047 272.046 103.409C271.215 102.199 270.802 101.307 269.515 100.516C268.005 99.5809 266.892 100.616 265.9 101.601C264.345 103.153 262.885 105.168 261.642 106.978C261.348 107.411 261.676 106.587 262.096 106.301C262.668 105.918 262.623 106.145 263.007 105.578C263.445 104.939 264.015 104.409 264.453 103.77C264.865 103.168 265.653 101.669 266.261 101.24C268.504 99.6452 271.464 105.056 272.769 105.94C273.574 106.482 274.379 107.024 275.3 107.024L278.284 107.47C278.284 107.47 278.436 107.143 278.471 106.544C278.516 107.136 278.668 107.47 278.668 107.47Z" fill="#BCBBDB"/>
<path d="M278.91 105.33C278.935 107.465 278.916 105.94 278.935 107.465C277.979 107.531 272.651 107.55 271.927 106.584C270.875 105.186 269.695 103.572 268.739 102.285C267.912 101.175 266.713 101.066 265.91 102.141C265.016 103.343 263.589 105.235 263.017 105.997C262.67 106.479 262.228 106.89 261.716 107.204C261.268 107.465 261.024 107.313 261.348 106.886C262.736 105.044 263.861 103.528 265.174 101.79C266.845 99.5847 269.327 98.1812 271.362 100.931C272.635 102.65 273.638 103.957 274.577 105.217C275.033 105.828 275.103 105.546 276.121 105.339C276.483 105.339 278.91 105.33 278.91 105.33ZM274.592 94.1491C274.592 94.2734 274.405 94.5321 274.14 94.8074C272.139 96.887 270.327 97.4211 267.931 97.7716C265.534 98.1222 264.64 97.9878 261.783 99.39C261 99.7733 261.223 99.3145 261.722 98.7959C263.722 96.7167 265.534 96.1822 267.931 95.8316C270.327 95.4811 271.222 95.6159 274.078 94.2141C274.446 94.0342 274.591 94.0394 274.592 94.1491ZM270.074 91.8756C270.079 92.2702 269.99 92.6896 269.797 93.0932C269.234 94.2671 268.007 94.8785 267.053 94.4493C266.1 94.015 265.78 92.7026 266.343 91.5286C266.905 90.3547 268.133 89.7341 269.085 90.1725C269.711 90.46 270.064 91.1223 270.074 91.8756Z" fill="white"/>
<rect x="125.199" y="136.585" width="42" height="56" rx="5" transform="rotate(90 125.199 136.585)" fill="#A8A8A8"/>
</svg>
