<svg width="40" height="40" viewBox="0 0 40 40" fill="none" xmlns="http://www.w3.org/2000/svg">
<path fill-rule="evenodd" clip-rule="evenodd" d="M9.43242 2.72189C9.33222 2.81466 9.2709 2.94195 9.26078 3.07812L9.30078 11.3581H7.80078V3.07812C7.80078 2.54769 8.01149 2.03898 8.38657 1.66391C8.76164 1.28884 9.27035 1.07812 9.80078 1.07812H30.2408C30.7712 1.07812 31.2799 1.28884 31.655 1.66391C32.0301 2.03898 32.2408 2.54769 32.2408 3.07812V11.3581H20.3808V2.57812H9.80078C9.66423 2.57775 9.53261 2.62912 9.43242 2.72189ZM17.5603 29.0781V29.2581V29.3981C17.5632 29.6458 17.5021 29.8901 17.383 30.1074C17.2639 30.3246 17.0907 30.5074 16.8803 30.6381L15.7203 31.4981C14.5403 32.3381 15.1403 33.3781 16.0803 34.0781L18.2803 35.6781C18.4603 35.8181 18.5203 35.6781 18.4203 35.5381C18.3163 35.3211 18.174 35.1246 18.0003 34.9581L16.3403 33.7581C16.2364 33.6986 16.1501 33.6127 16.09 33.5091C16.03 33.4055 15.9984 33.2879 15.9984 33.1681C15.9984 33.0484 16.03 32.9308 16.09 32.8272C16.1501 32.7236 16.2364 32.6377 16.3403 32.5781L18.2003 31.2381C18.3234 31.0968 18.4155 30.9312 18.4706 30.7521C18.5257 30.5729 18.5426 30.3842 18.5203 30.1981V29.6181V29.0781H17.5603ZM13.0795 30.2987C13.8162 30.9749 14.2729 31.9025 14.3595 32.8987V32.8787C14.3959 33.7804 14.6351 34.6623 15.0595 35.4587C15.2195 35.7787 15.0195 35.6787 14.7995 35.4587C14.0629 34.7825 13.6062 33.8549 13.5195 32.8587C13.4916 31.9621 13.2518 31.0848 12.8195 30.2987C12.6595 29.9987 12.8595 30.0987 13.0795 30.2987ZM11.6522 32.0261C11.8854 31.9706 12.1309 32.0043 12.3404 32.1206C12.4603 32.1461 12.5729 32.1981 12.67 32.2729C12.7671 32.3476 12.8462 32.4432 12.9015 32.5525C12.9569 32.6619 12.987 32.7822 12.9896 32.9047C12.9923 33.0272 12.9675 33.1488 12.917 33.2604C12.8666 33.3721 12.7917 33.471 12.698 33.5499C12.6042 33.6289 12.494 33.6858 12.3754 33.7165C12.2567 33.7472 12.1327 33.7509 12.0125 33.7274C11.8922 33.7039 11.7788 33.6537 11.6804 33.5806C11.4496 33.5027 11.258 33.3382 11.1461 33.1218C11.0342 32.9054 11.0106 32.654 11.0804 32.4206C11.2151 32.2223 11.4191 32.0816 11.6522 32.0261ZM20.3798 37.4631H9.79976C9.65655 37.4631 9.5192 37.4062 9.41793 37.305C9.31666 37.2037 9.25977 37.0663 9.25977 36.9231V28.7031H7.75977V36.9231C7.75977 37.4536 7.97048 37.9623 8.34555 38.3373C8.72062 38.7124 9.22933 38.9231 9.75977 38.9231H30.1998C30.4624 38.9231 30.7225 38.8714 30.9651 38.7709C31.2078 38.6704 31.4283 38.5231 31.614 38.3373C31.7997 38.1516 31.947 37.9311 32.0475 37.6885C32.148 37.4458 32.1998 37.1858 32.1998 36.9231V28.7031H20.3798V37.4631ZM6 13.0781H34C35.5913 13.0781 37.1174 13.7103 38.2426 14.8355C39.3679 15.9607 40 17.4868 40 19.0781V20.8781C40 22.4694 39.3679 23.9955 38.2426 25.1208C37.1174 26.246 35.5913 26.8781 34 26.8781H6C4.4087 26.8781 2.88258 26.246 1.75736 25.1208C0.632141 23.9955 0 22.4694 0 20.8781V19.0781C0 17.4868 0.632141 15.9607 1.75736 14.8355C2.88258 13.7103 4.4087 13.0781 6 13.0781ZM38.44 20.8781V19.0781H38.5C38.4948 18.4924 38.3742 17.9135 38.1452 17.3744C37.9163 16.8353 37.5833 16.3465 37.1655 15.9361C36.7476 15.5257 36.253 15.2015 35.7098 14.9823C35.1667 14.763 34.5857 14.6528 34 14.6581H6C5.4143 14.6528 4.83329 14.763 4.29016 14.9823C3.74703 15.2015 3.2524 15.5257 2.83454 15.9361C2.41667 16.3465 2.08374 16.8353 1.85476 17.3744C1.62578 17.9135 1.50523 18.4924 1.5 19.0781V20.9181C1.49998 21.5072 1.61665 22.0904 1.84328 22.6342C2.06992 23.1779 2.40202 23.6714 2.82041 24.086C3.23881 24.5007 3.73521 24.8284 4.28095 25.0502C4.82668 25.2719 5.41095 25.3834 6 25.3781H34C34.5874 25.3755 35.1685 25.2569 35.7099 25.0291C36.2513 24.8013 36.7424 24.4688 37.155 24.0506C37.5675 23.6325 37.8934 23.137 38.1139 22.5926C38.3345 22.0481 38.4453 21.4655 38.44 20.8781Z" fill="#1972D2"/>
<path d="M9.33325 23.712C9.21236 23.7618 9.06659 23.8187 8.89592 23.8827C8.72525 23.9467 8.54036 23.9964 8.34125 24.032C8.14925 24.0747 7.9537 24.096 7.75459 24.096C7.49147 24.096 7.2497 24.0498 7.02925 23.9573C6.80881 23.8649 6.63103 23.7191 6.49592 23.52C6.36792 23.3138 6.30392 23.0471 6.30392 22.72V19.5093H5.56792V18.4107H6.30392V16.5973H7.73325V18.4107H8.90659V19.5093H7.73325V22.24C7.74036 22.432 7.7937 22.5707 7.89325 22.656C7.99281 22.7413 8.11725 22.784 8.26659 22.784C8.41592 22.784 8.5617 22.7591 8.70392 22.7093C8.84614 22.6596 8.95992 22.6169 9.04525 22.5813L9.33325 23.712ZM10.0777 24V18.4107H11.507V24H10.0777ZM10.0777 17.632V16.2133H11.507V17.632H10.0777ZM15.3991 24.1067C14.944 24.1067 14.5351 24.032 14.1724 23.8827C13.8098 23.7262 13.5004 23.5129 13.2444 23.2427C12.9884 22.9653 12.7893 22.6524 12.6471 22.304C12.512 21.9556 12.4444 21.5893 12.4444 21.2053C12.4444 20.6791 12.5618 20.1991 12.7964 19.7653C13.0382 19.3244 13.3795 18.9724 13.8204 18.7093C14.2613 18.4462 14.784 18.3147 15.3884 18.3147C15.9929 18.3147 16.512 18.4462 16.9458 18.7093C17.3795 18.9724 17.7031 19.3173 17.9164 19.744L16.5191 20.1707C16.3982 19.9644 16.2382 19.808 16.0391 19.7013C15.84 19.5876 15.6195 19.5307 15.3778 19.5307C15.1075 19.5307 14.8586 19.6018 14.6311 19.744C14.4106 19.8791 14.2364 20.0747 14.1084 20.3307C13.9804 20.5796 13.9164 20.8711 13.9164 21.2053C13.9164 21.5324 13.9804 21.824 14.1084 22.08C14.2435 22.3289 14.4213 22.528 14.6418 22.6773C14.8622 22.8196 15.1075 22.8907 15.3778 22.8907C15.5484 22.8907 15.7084 22.8622 15.8578 22.8053C16.0142 22.7484 16.1529 22.6702 16.2738 22.5707C16.3946 22.4711 16.4835 22.3573 16.5404 22.2293L17.9378 22.656C17.8098 22.9333 17.6213 23.1822 17.3724 23.4027C17.1306 23.6231 16.8426 23.7973 16.5084 23.9253C16.1813 24.0462 15.8115 24.1067 15.3991 24.1067ZM22.6359 24L21.0039 21.5893L20.2466 22.336V24H18.8173V16.2133H20.2466V20.928L22.4973 18.4213H24.0119L21.9319 20.7893L24.1613 24H22.6359ZM27.0655 24.1067C26.6175 24.1067 26.2122 24.032 25.8495 23.8827C25.4868 23.7262 25.1775 23.5164 24.9215 23.2533C24.6655 22.9831 24.4664 22.6773 24.3242 22.336C24.1891 21.9876 24.1215 21.6213 24.1215 21.2373C24.1215 20.704 24.2388 20.2169 24.4735 19.776C24.7153 19.3351 25.0566 18.9831 25.4975 18.72C25.9455 18.4498 26.4717 18.3147 27.0762 18.3147C27.6877 18.3147 28.2104 18.4498 28.6442 18.72C29.0779 18.9831 29.4086 19.3351 29.6362 19.776C29.8708 20.2098 29.9882 20.6791 29.9882 21.184C29.9882 21.2693 29.9846 21.3582 29.9775 21.4507C29.9704 21.536 29.9633 21.6071 29.9562 21.664H25.6362C25.6646 21.9484 25.7464 22.1973 25.8815 22.4107C26.0237 22.624 26.2015 22.7876 26.4148 22.9013C26.6353 23.008 26.8699 23.0613 27.1188 23.0613C27.4033 23.0613 27.6699 22.9938 27.9188 22.8587C28.1748 22.7164 28.3491 22.5316 28.4415 22.304L29.6682 22.6453C29.5331 22.9298 29.3375 23.1822 29.0815 23.4027C28.8326 23.6231 28.5375 23.7973 28.1962 23.9253C27.8548 24.0462 27.4779 24.1067 27.0655 24.1067ZM25.6042 20.7573H28.5268C28.4984 20.4729 28.4166 20.2276 28.2815 20.0213C28.1535 19.808 27.9828 19.6444 27.7695 19.5307C27.5562 19.4098 27.3179 19.3493 27.0548 19.3493C26.7988 19.3493 26.5642 19.4098 26.3508 19.5307C26.1446 19.6444 25.9739 19.808 25.8388 20.0213C25.7108 20.2276 25.6326 20.4729 25.6042 20.7573ZM34.1562 23.712C34.0353 23.7618 33.8895 23.8187 33.7188 23.8827C33.5482 23.9467 33.3633 23.9964 33.1642 24.032C32.9722 24.0747 32.7766 24.096 32.5775 24.096C32.3144 24.096 32.0726 24.0498 31.8522 23.9573C31.6317 23.8649 31.4539 23.7191 31.3188 23.52C31.1908 23.3138 31.1268 23.0471 31.1268 22.72V19.5093H30.3908V18.4107H31.1268V16.5973H32.5562V18.4107H33.7295V19.5093H32.5562V22.24C32.5633 22.432 32.6166 22.5707 32.7162 22.656C32.8157 22.7413 32.9402 22.784 33.0895 22.784C33.2388 22.784 33.3846 22.7591 33.5268 22.7093C33.6691 22.6596 33.7828 22.6169 33.8682 22.5813L34.1562 23.712Z" fill="#1972D2"/>
</svg>
