<svg width="540" height="337" viewBox="0 0 540 337" fill="none" xmlns="http://www.w3.org/2000/svg">
<g clip-path="url(#clip0_105_3121)">
<path d="M20.0591 337C14.7464 336.99 9.65248 334.896 5.89457 331.177C2.13461 327.459 0.0166598 322.416 0 317.152L0 136.018L539.199 136.018V317.152C539.185 322.412 537.069 327.453 533.316 331.171C529.563 334.891 524.479 336.985 519.169 337H20.0591Z" fill="#64B5F6"/>
<path d="M0.0270386 19.8446L0.0270386 136.019L539.2 136.019V19.8446C539.184 14.5862 537.07 9.54683 533.317 5.82845C529.564 2.11016 524.477 0.0157815 519.17 0L20.0598 0C14.7524 0.0158053 9.66596 2.11007 5.91283 5.82845C2.1597 9.54685 0.0429629 14.5865 0.0270386 19.8446Z" fill="white"/>
<path d="M419.826 97.0254C419.743 97.0257 419.659 97.0246 419.576 97.0214C418.636 97.044 417.703 96.8656 416.836 96.4988C416.086 96.1716 415.419 95.6753 414.886 95.048C414.343 94.396 413.94 93.6358 413.703 92.8164C413.425 91.8969 413.273 90.9445 413.247 89.9834C413.236 89.0335 413.39 88.0895 413.703 87.1949C413.989 86.3816 414.426 85.6318 414.991 84.9855C415.538 84.3672 416.207 83.8712 416.954 83.5327C417.736 83.1787 418.583 83.0015 419.439 83.0121C420.461 82.9723 421.473 83.2302 422.358 83.7526C423.112 84.226 423.749 84.87 424.22 85.6352C424.688 86.3992 425.016 87.2457 425.187 88.1291C425.363 88.9729 425.435 89.834 425.403 90.6957H415.54C415.522 91.2616 415.592 91.8266 415.744 92.3704C415.892 92.8836 416.145 93.3584 416.485 93.7647C416.84 94.1835 417.284 94.5156 417.783 94.7373C418.371 94.9903 419.006 95.1146 419.645 95.1005C420.446 95.1346 421.236 94.9061 421.9 94.4487C422.519 93.9654 422.933 93.2606 423.059 92.4774H425.203C425.011 93.8139 424.33 95.0271 423.297 95.8753C422.284 96.6196 421.07 97.0205 419.826 97.0254ZM366.425 97.0193C365.489 97.0194 364.553 96.8423 363.667 96.4887C362.896 96.1523 362.209 95.6459 361.654 95.0056C361.099 94.3608 360.681 93.6056 360.429 92.7881C360.15 91.8986 360.013 90.9682 360.023 90.0339C360.015 89.0975 360.151 88.165 360.429 87.2716C360.682 86.4502 361.099 85.6897 361.654 85.04C362.21 84.3982 362.897 83.8885 363.667 83.5468C365.437 82.8219 367.414 82.8226 369.183 83.5468C369.948 83.8917 370.63 84.4003 371.183 85.04C371.738 85.69 372.154 86.4489 372.407 87.2716C372.684 88.1647 372.822 89.0976 372.813 90.0339C372.824 90.9681 372.686 91.8969 372.407 92.7861C372.154 93.6038 371.737 94.3605 371.183 95.0056C370.63 95.6435 369.949 96.1504 369.183 96.4887C368.297 96.8425 367.361 97.0193 366.425 97.0193ZM381.655 97.0193C381.292 97.0139 380.932 96.9799 380.575 96.9164C380.168 96.8467 379.769 96.7323 379.386 96.5775C378.989 96.418 378.616 96.2041 378.276 95.9398C377.924 95.667 377.627 95.3293 377.4 94.9411H377.349V96.7348L375.179 96.7369V78.2038H377.349V85.1328H377.4C377.745 84.3998 378.344 83.8219 379.081 83.5105C379.88 83.1655 380.738 82.9927 381.605 83.004C382.524 82.9825 383.436 83.1775 384.268 83.5751C385.004 83.9385 385.649 84.4657 386.155 85.1187C386.668 85.7869 387.052 86.5494 387.286 87.3644C387.547 88.2394 387.676 89.1484 387.67 90.0621C387.676 90.9757 387.55 91.8864 387.3 92.7639C387.073 93.5707 386.694 94.3251 386.182 94.9834C385.673 95.6207 385.028 96.1296 384.296 96.4745C383.466 96.8529 382.564 97.0397 381.655 97.0193ZM341.415 96.7369L339.251 96.7348V83.3148H341.288V85.2861H341.342C342.034 84.2509 343.069 83.5048 344.256 83.1816C345.445 82.8581 346.706 82.9797 347.813 83.5246C348.151 83.7077 348.45 83.9565 348.691 84.2591C348.931 84.5626 349.111 84.9129 349.216 85.2881C349.642 84.5783 350.243 83.9961 350.96 83.5993C351.693 83.2012 352.513 82.9963 353.343 83.004C353.949 82.9976 354.556 83.0703 355.145 83.222C355.642 83.3532 356.108 83.5881 356.514 83.91C356.904 84.2315 357.21 84.6472 357.403 85.1187C357.631 85.682 357.741 86.2882 357.724 86.8963L357.722 96.6945H355.559V87.891C355.559 87.5 355.525 87.1094 355.458 86.7248C355.398 86.3902 355.267 86.072 355.075 85.7946C354.876 85.5154 354.608 85.2949 354.299 85.157C353.89 84.9862 353.451 84.9049 353.011 84.9229C352.549 84.8961 352.088 84.9652 351.653 85.1247C351.22 85.2838 350.822 85.5337 350.484 85.8551C350.173 86.1842 349.934 86.5734 349.777 87.0012C349.62 87.429 349.55 87.8851 349.573 88.341V96.7126H347.407V87.9092C347.412 87.5087 347.373 87.11 347.294 86.7187C347.223 86.3849 347.087 86.0683 346.896 85.7885C346.704 85.5172 346.446 85.3034 346.147 85.1671C345.761 85.0084 345.347 84.9337 344.932 84.9471C344.369 84.9299 343.812 85.0636 343.315 85.3345C342.894 85.5675 342.521 85.8831 342.22 86.2627C341.954 86.6015 341.746 86.9827 341.607 87.3927C341.494 87.7041 341.43 88.0329 341.415 88.3652V96.7369ZM390.096 96.7348V83.3148H392.259V96.7348H390.096ZM395.497 96.7348V78.2038H397.663V96.7348H395.497ZM400.901 96.7348L400.899 83.3148H403.064V96.7348H400.901ZM410.152 96.7348C409.668 96.7413 409.184 96.7008 408.708 96.6138C408.354 96.5589 408.022 96.413 407.741 96.188C407.478 95.9549 407.287 95.6492 407.192 95.3083C407.059 94.8174 406.999 94.3093 407.013 93.801V85.2639L404.772 85.2619V83.3148H407.013V79.2914L409.183 79.2934V83.3148H411.809V85.2639H409.183V93.5771C409.176 93.7877 409.197 93.9971 409.247 94.2005C409.281 94.3475 409.367 94.4772 409.488 94.5637C409.637 94.6617 409.807 94.7198 409.984 94.7352C410.26 94.7628 410.537 94.7752 410.814 94.7736H411.809V96.7348H410.152ZM366.425 95.1146C366.975 95.1149 367.52 94.9976 368.024 94.7716C368.526 94.5477 368.973 94.2175 369.338 93.801C369.733 93.3415 370.033 92.8013 370.216 92.2191C370.642 90.8072 370.643 89.2968 370.216 87.885C370.031 87.2979 369.732 86.7558 369.338 86.2869C368.975 85.8649 368.526 85.5273 368.022 85.3002C367.518 85.0764 366.975 84.9611 366.425 84.9613C365.875 84.961 365.331 85.077 364.826 85.3002C364.322 85.5277 363.874 85.8628 363.51 86.2849C363.117 86.7538 362.82 87.2974 362.635 87.885C362.209 89.2975 362.209 90.8069 362.635 92.2191C362.817 92.8014 363.116 93.3412 363.512 93.801C363.876 94.2176 364.324 94.5499 364.826 94.7736C365.33 94.9992 365.874 95.1152 366.425 95.1146ZM381.183 95.0823C381.266 95.0844 381.35 95.0833 381.433 95.0803C382.085 95.1021 382.73 94.9504 383.305 94.6384C383.796 94.3555 384.21 93.9546 384.514 93.4701C384.829 92.9613 385.056 92.3987 385.178 91.8095C385.316 91.1797 385.383 90.5368 385.382 89.8906C385.381 89.2713 385.299 88.6556 385.14 88.0585C384.989 87.4864 384.739 86.9441 384.401 86.4625C384.068 85.9936 383.632 85.6127 383.127 85.3467C382.561 85.0579 381.933 84.9153 381.3 84.933C380.653 84.9115 380.011 85.0639 379.437 85.3709C378.942 85.6581 378.517 86.0517 378.191 86.527C377.858 87.0186 377.621 87.57 377.492 88.1513C377.344 88.7602 377.27 89.3844 377.272 90.0117C377.271 90.6541 377.347 91.2945 377.5 91.9185C377.64 92.501 377.887 93.0511 378.227 93.5407C378.566 94.0132 379.007 94.3994 379.515 94.6707C380.037 94.9278 380.605 95.0677 381.183 95.0823ZM415.54 88.7567H423.111C423.076 88.2459 422.961 87.7439 422.768 87.2716C422.582 86.8224 422.314 86.4159 421.977 86.069C421.639 85.728 421.241 85.4549 420.804 85.2639C420.332 85.0601 419.823 84.9598 419.31 84.9673C418.79 84.9587 418.274 85.059 417.795 85.2639C417.357 85.4543 416.964 85.7334 416.635 86.0831C416.311 86.434 416.054 86.842 415.873 87.2877C415.685 87.7558 415.572 88.2518 415.54 88.7567ZM419.253 80.954L417.622 80.952L420.071 76.749H422.847L419.253 80.954ZM390.096 80.9016V78.2038H392.259V80.9016H390.096ZM400.899 80.9016V78.2038H403.064V80.9016H400.899ZM437.236 94.8374C437.587 94.2252 437.76 93.5239 437.734 92.8146C437.753 92.2544 437.625 91.6994 437.364 91.2058C437.122 90.7773 436.792 90.4081 436.396 90.1229C435.975 89.8264 435.513 89.594 435.026 89.4342C434.502 89.2596 433.971 89.1119 433.433 88.9924C432.925 88.8707 432.413 88.7547 431.902 88.6439C431.436 88.5427 430.978 88.4046 430.532 88.2297C430.162 88.0872 429.822 87.8752 429.528 87.6069C429.401 87.4885 429.3 87.3453 429.232 87.1847C429.163 87.0241 429.129 86.8512 429.13 86.6763C429.117 86.3742 429.207 86.0766 429.386 85.8343C429.563 85.6105 429.79 85.4313 430.049 85.3138C430.338 85.1774 430.646 85.0851 430.961 85.0391C431.287 84.9896 431.615 84.9643 431.944 84.9654C432.299 84.9645 432.656 85.0034 433.003 85.0811C433.339 85.1535 433.661 85.281 433.957 85.4574C434.244 85.6281 434.488 85.8638 434.67 86.1462C434.869 86.4694 434.983 86.8397 435.003 87.2209L437.168 87.2208C437.145 86.5117 436.972 85.8175 436.661 85.1834C436.387 84.6589 435.988 84.2129 435.501 83.886C434.991 83.5554 434.424 83.3267 433.829 83.2122C433.15 83.0762 432.458 83.0108 431.766 83.0166C431.178 83.0191 430.591 83.092 430.021 83.2349C429.461 83.3724 428.927 83.6013 428.441 83.9141C427.974 84.2123 427.58 84.614 427.29 85.091C426.979 85.6145 426.821 86.2181 426.833 86.8303C426.788 87.5625 427.015 88.2864 427.468 88.857C427.909 89.3514 428.454 89.7383 429.062 89.9875C429.735 90.2554 430.433 90.4568 431.145 90.5878C431.894 90.7312 432.583 90.8988 433.222 91.0804C433.787 91.2288 434.325 91.47 434.816 91.792C435.023 91.9329 435.19 92.1278 435.302 92.3545C435.413 92.582 435.464 92.8351 435.451 93.0898C435.467 93.4568 435.359 93.8196 435.145 94.1171C434.941 94.3837 434.674 94.5942 434.369 94.726C434.039 94.8687 433.692 94.9651 433.336 95.01C432.982 95.0605 432.625 95.0868 432.267 95.0891C431.835 95.0904 431.404 95.0465 430.98 94.9586C430.585 94.8803 430.206 94.7358 429.857 94.5307C429.529 94.332 429.253 94.0564 429.052 93.7262C428.84 93.3517 428.726 92.9273 428.724 92.4939L426.554 92.4937C426.567 93.229 426.742 93.952 427.066 94.6101C427.357 95.1689 427.777 95.6482 428.29 96.0049C428.825 96.3695 429.42 96.629 430.048 96.7724C430.734 96.9291 431.437 97.0068 432.139 97.0048C432.811 97.0038 433.481 96.9383 434.14 96.8091C434.785 96.6944 435.404 96.462 435.966 96.121C436.482 95.7989 436.917 95.3603 437.236 94.8374Z" fill="black"/>
<path d="M458.864 97.04L490.485 97.0403C493.983 97.0304 497.335 95.6382 499.809 93.1692C502.282 90.6989 503.676 87.3529 503.686 83.8594L503.686 52.2969C503.679 48.8031 502.286 45.4539 499.812 42.9822C497.338 40.5105 493.985 39.1174 490.485 39.1077L458.864 39.1083C455.365 39.1189 452.013 40.5119 449.539 42.9833C447.065 45.4548 445.672 48.8035 445.664 52.2974L445.664 83.8687C445.676 87.3603 447.071 90.7048 449.544 93.1726C452.017 95.6395 455.368 97.0308 458.864 97.04ZM469.741 49.9993C471.121 47.0309 474.132 45.5045 476.474 46.585C478.818 47.6645 479.595 50.9551 478.219 53.9376C476.843 56.9202 473.828 58.4324 471.485 57.3528C469.142 56.2724 468.369 52.9774 469.741 49.9993ZM458.4 68.2944C463.31 63.0606 467.734 61.7133 473.639 60.8311C479.545 59.9488 481.717 60.2888 488.727 56.76C490.651 55.7945 490.108 56.9479 488.879 58.2529C483.968 63.4877 479.54 64.8338 473.639 65.7163C467.739 66.5987 465.561 66.2586 458.551 69.7882C456.628 70.7529 457.175 69.5997 458.4 68.2944ZM457.479 88.6578C460.857 84.0071 463.591 80.2064 466.855 75.8314C470.965 70.2799 477.059 66.7457 482.044 73.6673C486.684 80.1003 491.82 87.1551 493.293 89.1772C493.491 89.453 493.366 89.7607 492.943 89.7925C490.596 89.9578 485.206 90.3308 483.429 87.8992C480.856 84.379 477.961 80.3169 475.604 77.0769C473.575 74.2825 470.634 74.0065 468.664 76.7138C466.468 79.738 462.966 84.5258 461.562 86.4196C460.71 87.6348 459.624 88.6674 458.367 89.4575C457.286 90.1143 456.687 89.7328 457.465 88.658L457.479 88.6578Z" fill="#64B5F6"/>
<path d="M493.399 89.4813C493.373 89.6415 493.226 89.7705 492.961 89.7904C490.614 89.9557 485.224 90.3276 483.447 87.8961C480.865 84.3763 477.97 80.3141 475.623 77.0747C473.593 74.2802 470.651 74.0044 468.681 76.7117C466.485 79.7359 462.983 84.5002 461.579 86.4165C460.728 87.6317 459.643 88.6653 458.386 89.4554C457.286 90.1122 456.687 89.7306 457.483 88.6558C460.889 84.0188 463.651 80.2037 466.873 75.8284C470.975 70.2766 477.067 66.7439 482.061 73.6649C486.701 80.0941 491.838 87.1521 493.311 89.1742C493.385 89.2776 493.414 89.3851 493.399 89.4813ZM489.988 56.5943C489.988 56.9072 489.53 57.5584 488.879 58.2513C483.968 63.486 479.522 64.8304 473.64 65.7129C467.757 66.5953 465.562 66.257 458.551 69.7866C456.628 70.7513 457.175 69.5965 458.4 68.2911C463.31 63.0574 467.757 61.712 473.64 60.8296C479.522 59.9471 481.718 60.2866 488.728 56.7578C489.63 56.3052 489.987 56.3183 489.988 56.5943ZM478.9 50.8716C478.913 51.8648 478.694 52.9205 478.219 53.9363C476.838 56.8914 473.827 58.4305 471.485 57.3501C469.146 56.2567 468.36 52.9533 469.741 49.9982C471.122 47.0431 474.136 45.4809 476.473 46.5845C478.008 47.3081 478.876 48.9753 478.9 50.8716Z" fill="white"/>
<path d="M248.062 71.8285C240.519 71.8281 235.402 67.2941 235.402 59.5702C235.402 52.5095 241.058 47.4433 247.868 47.443C256.151 47.4434 260.289 53.6643 259.941 61.4827H242.971C243.107 64.6364 244.928 66.7191 248.138 66.7192C249.955 66.7198 251.743 65.877 252.458 64.1803H259.539C258.16 69.5081 253.207 71.8197 248.062 71.8285ZM346.878 71.8109C342.474 71.8107 339.002 69.594 339.001 64.8302C339.001 57.3317 347.194 57.9087 352.448 56.8394C353.741 56.5742 354.451 56.1327 354.451 54.7115C354.451 52.9791 352.361 52.3159 350.802 52.3154C348.703 52.3159 347.375 53.248 347.017 55.197L339.919 55.1989C340.073 52.1767 341.488 50.1579 343.535 49.0169C345.584 47.8756 348.251 47.4239 350.882 47.4234C356.357 47.424 361.658 48.6301 361.658 55.1578L361.657 65.2452C361.657 67.199 361.658 69.3525 362.563 71.1571L354.939 71.1551C354.702 70.448 354.553 69.7158 354.496 68.9724C352.537 71.0163 349.645 71.81 346.878 71.8109ZM269.469 71.574C263.88 71.5738 261.114 67.1672 261.114 62.0504C261.114 56.9341 263.848 52.6268 269.401 52.6267C271.255 52.6268 273.923 53.3529 275.257 55.4593H275.329V46.1334H278.313V71.1551H275.329V68.7101H275.257C274.281 70.6997 271.961 71.5742 269.469 71.574ZM288.872 71.5701C283.076 71.5709 280.336 67.5832 280.156 62.0465C280.155 56.6105 283.722 52.6211 288.695 52.6208C295.098 52.6207 297.084 58.6173 296.908 62.9979H283.342C283.238 66.1565 285.029 68.9453 288.99 68.945C291.431 68.9453 293.163 67.751 293.692 65.4135L296.641 65.4116C295.827 69.4055 292.951 71.575 288.872 71.5701ZM225.832 71.161V45.6107H221.037L218.369 42.0499L215.697 45.6107H210L214.983 39.002L221.748 39L225.832 44.4127V39.4385H233.401V71.161H225.832ZM214.579 71.1551V48.1008H222.148V71.1551H214.579ZM298.846 71.1551V39.4385H322.267L322.269 46.0571H307.125V52.5464L320.218 52.5444V58.9379H307.125V71.1551H298.846ZM323.769 71.1336V48.0773H331.126V52.1392H331.213C332.329 49.211 334.905 47.6536 338.165 47.6544C338.763 47.6516 339.359 47.7128 339.943 47.8384V54.7232C339.003 54.4375 338.028 54.286 337.045 54.273C333.31 54.2729 331.342 56.8496 331.342 59.7464L331.344 71.1336H323.769ZM269.885 68.9215C273.882 68.9211 275.43 65.4964 275.429 62.0994C275.422 58.5265 273.755 55.2375 269.695 55.2381C265.626 55.2373 264.271 58.6979 264.271 62.2403C264.27 65.6323 266.029 68.9209 269.885 68.9215ZM349.734 67.1538C353.333 67.1543 354.54 65.1142 354.364 60.3591C353.301 61.0175 351.372 61.2036 349.685 61.6002C347.999 61.9976 346.571 62.7275 346.57 64.5326C346.57 66.4006 348.029 67.1541 349.734 67.1538ZM283.334 60.3689H293.73C293.589 57.5171 291.454 55.2624 288.501 55.2616C285.4 55.2617 283.528 57.5992 283.334 60.3689ZM242.971 57.2602H252.39C252.232 54.6706 250.404 52.5442 247.868 52.5444C245.2 52.5445 243.422 54.4498 242.971 57.2602ZM379.877 60.0077L379.877 71.1559L387.446 71.1557L387.446 56.3626C387.446 53.033 386.822 47.4342 379.117 47.4339C376.359 47.434 373.239 48.9005 371.882 51.2598L371.784 51.2597L371.784 48.1012L364.436 48.1016L364.436 71.1557L371.996 71.1558L371.996 58.5769C371.996 56.0506 373.244 53.6552 376.065 53.6553C380.234 53.6558 379.877 56.8491 379.877 60.0077ZM412.844 62.0966L405.501 62.0964C405.157 64.5325 403.8 66.0444 401.182 66.0444C397.981 66.0439 396.688 62.9853 396.688 60.0078C396.688 56.8088 397.357 53.213 401.585 53.2134C403.493 53.2132 405.233 54.5666 405.284 56.5423L412.649 56.5424C412.12 50.4521 406.992 47.4335 401.25 47.4334C393.812 47.434 389.133 52.6809 389.133 60.0079C389.132 67.0686 394.31 71.8196 401.251 71.8195C407.395 71.8188 412.201 68.2688 412.844 62.0966ZM437.453 64.1802L430.364 64.1805C429.654 65.8768 427.873 66.7201 426.055 66.7204C422.845 66.7203 421.018 64.6356 420.882 61.4824L437.847 61.4825C438.204 53.6636 434.067 47.4419 425.779 47.4423C418.974 47.4423 413.313 52.5089 413.313 59.5697C413.313 67.2981 418.436 71.8272 425.974 71.8283C431.119 71.8181 436.061 69.5088 437.453 64.1802ZM420.882 57.2593C421.334 54.4487 423.103 52.5451 425.779 52.5447C428.32 52.5447 430.147 54.6697 430.278 57.2594L420.882 57.2593Z" fill="#64B5F6"/>
<path opacity="0.61" d="M324.886 311.59H325.135C325.094 311.021 325.073 310.431 325.073 309.84C325.073 295.546 336.465 283.972 350.533 283.972C354.206 283.972 357.692 284.773 360.867 286.207C363.315 279.102 369.955 274 377.778 274C387.676 274 395.685 282.138 395.685 292.194C395.685 293.607 395.54 294.956 395.229 296.284H395.54C409.608 296.284 421 307.859 421 322.132C421 336.405 409.608 348 395.54 348H324.907C315.03 348 307 339.862 307 329.806C307 319.749 315.009 311.611 324.907 311.611" fill="#EBF4FC" fill-opacity="0.73"/>
<path d="M205.196 288.295H205.069C205.092 288.017 205.104 287.728 205.104 287.438C205.104 280.486 199.499 274.855 192.606 274.855C190.799 274.855 189.084 275.249 187.531 275.944C186.334 272.491 183.077 270 179.233 270C174.376 270 170.441 273.963 170.441 278.852C170.441 279.536 170.51 280.196 170.659 280.845H170.51C163.605 280.845 158 286.476 158 293.417C158 300.369 163.593 306 170.51 306H205.208C210.064 306 214 302.037 214 297.148C214 292.258 210.064 288.284 205.208 288.284" fill="#DEEDFA"/>
<path d="M500.531 177.877H500.366C500.388 177.513 500.414 177.134 500.414 176.76C500.414 167.687 493.115 160.335 484.118 160.335C481.757 160.335 479.529 160.843 477.503 161.752C475.943 157.24 471.688 154 466.675 154C460.341 154 455.212 159.17 455.212 165.559C455.212 166.452 455.307 167.318 455.498 168.157H455.302C446.294 168.157 439 175.508 439 184.571C439 193.633 446.294 201 455.302 201H500.531C506.865 201 512 195.83 512 189.446C512 183.063 506.865 177.888 500.531 177.888" fill="white" fill-opacity="0.76"/>
<path opacity="0.61" d="M-33.462 273.832C-32.4529 273.832 -31.5061 274.082 -30.656 274.493C-27.4906 270.936 -22.9016 268.695 -17.7872 268.695C-16.0248 268.695 -14.3247 268.966 -12.7213 269.454C-9.16197 259.849 0.00234985 253 10.7839 253C21.5655 253 31.0408 260.085 34.4688 269.941C34.5586 269.962 34.6278 269.983 34.7176 270.003C36.6528 267.31 39.7905 265.549 43.3498 265.549C49.2312 265.549 54 270.351 54 276.275C54 282.198 49.2312 287 43.3498 287H-33.462C-37.0696 287 -40 284.049 -40 280.416C-40 276.783 -37.0696 273.832 -33.462 273.832Z" fill="#DEEDFA"/>
<path opacity="0.61" d="M232.558 201.282C231.409 201.282 230.331 201.562 229.364 202.021C225.761 198.046 220.537 195.541 214.715 195.541C212.709 195.541 210.774 195.845 208.949 196.389C204.897 185.654 194.465 178 182.193 178C169.92 178 159.134 185.919 155.232 196.934C155.13 196.957 155.051 196.981 154.949 197.004C152.746 193.993 149.175 192.025 145.123 192.025C138.428 192.025 133 197.393 133 204.013C133 210.633 138.428 216 145.123 216H232.558C236.664 216 240 212.702 240 208.641C240 204.581 236.664 201.282 232.558 201.282Z" fill="#EBF4FC"/>
<path d="M-32.0068 183.526L567.395 156.668" stroke="#CCCED1" stroke-width="2" stroke-miterlimit="10"/>
<path d="M95.1866 181.031L95.0557 181.029C94.5264 181.021 94.0908 181.444 94.0829 181.973L94.04 184.827C94.032 185.356 94.4547 185.792 94.984 185.8L95.1149 185.802C95.6442 185.81 96.0798 185.387 96.0877 184.858L96.1306 182.004C96.1386 181.475 95.7159 181.039 95.1866 181.031Z" fill="#CCCED1"/>
<path d="M101.155 217.033L90.493 211.279C84.6594 208.13 82.0125 201.073 84.3364 194.864L89.6253 180.736L94.3732 182.513L89.0844 196.642C87.6434 200.491 89.2842 204.864 92.9018 206.818L103.562 212.572L101.155 217.033Z" fill="#CCCED1"/>
<path d="M127.387 295.909L61.0953 294.913C60.1021 294.898 59.2312 294.249 58.9321 293.301L54.8778 280.455C49.2643 262.669 49.5517 243.544 55.6973 225.936L60.1357 213.218C60.4633 212.281 61.3533 211.657 62.3465 211.672L128.638 212.668C129.631 212.683 130.502 213.332 130.801 214.28L134.856 227.126C140.469 244.912 140.182 264.037 134.036 281.645L129.598 294.363C129.27 295.3 128.38 295.924 127.387 295.909Z" fill="white"/>
<path d="M99.4064 178.561C99.3593 181.693 96.7826 184.195 93.6489 184.148C90.5151 184.101 88.0164 181.521 88.0635 178.39C88.1105 175.26 90.6872 172.758 93.8194 172.805C96.9515 172.852 99.4534 175.432 99.4064 178.561Z" fill="#9C9892"/>
<path d="M98.6521 178.549C98.6112 181.265 96.3795 183.434 93.6619 183.393C90.9443 183.352 88.7805 181.117 88.8213 178.402C88.8621 175.686 91.0971 173.522 93.8097 173.563C96.5223 173.603 98.6928 175.837 98.6521 178.549Z" fill="#CCCED1"/>
<path d="M138.856 254.452C138.995 245.247 137.662 236.019 134.857 227.126L130.803 214.28C130.504 213.333 129.633 212.683 128.64 212.668L62.3482 211.672C61.355 211.657 60.465 212.279 60.1374 213.218L55.699 225.936C52.6262 234.741 51.0188 243.925 50.8804 253.13L53.5217 253.17C55.7154 253.203 57.7083 254.452 58.6921 256.412L63.6116 266.201C68.6244 276.177 78.7698 282.539 89.9336 282.707L98.937 282.842C110.101 283.01 120.431 276.958 125.741 267.137L130.953 257.5C131.997 255.57 134.026 254.382 136.218 254.414L138.86 254.454L138.856 254.452Z" fill="#0E121A"/>
<path d="M92.768 268.241L92.7643 268.485L92.7709 268.485C92.8981 268.3 93.0769 268.208 93.3091 268.211C93.4119 268.213 93.5044 268.236 93.5867 268.28C93.6689 268.325 93.7275 268.397 93.7591 268.5C93.8152 268.411 93.8892 268.343 93.9811 268.296C94.0731 268.248 94.1729 268.226 94.2807 268.228C94.3636 268.229 94.4397 268.238 94.5058 268.258C94.5735 268.277 94.6294 268.306 94.677 268.345C94.7245 268.384 94.7602 268.434 94.7875 268.496C94.8131 268.557 94.8252 268.631 94.824 268.715L94.8057 269.927L94.5338 269.923L94.5501 268.839C94.5509 268.787 94.5466 268.739 94.539 268.694C94.5314 268.649 94.5154 268.611 94.4927 268.578C94.47 268.544 94.4372 268.517 94.396 268.498C94.3549 268.478 94.3003 268.468 94.2356 268.468C94.1013 268.465 93.9946 268.502 93.9172 268.577C93.8398 268.652 93.8001 268.755 93.7982 268.882L93.7827 269.912L93.5108 269.908L93.5271 268.823C93.5279 268.77 93.5236 268.721 93.5144 268.676C93.5051 268.631 93.4891 268.592 93.4664 268.559C93.4437 268.525 93.4125 268.5 93.373 268.481C93.3335 268.462 93.2839 268.453 93.2209 268.452C93.1413 268.451 93.0747 268.467 93.0162 268.497C92.9594 268.528 92.9124 268.565 92.8769 268.61C92.8414 268.654 92.8141 268.7 92.7985 268.748C92.7812 268.796 92.774 268.835 92.7735 268.867L92.758 269.896L92.4861 269.892L92.511 268.238L92.768 268.241Z" fill="white"/>
<path d="M95.1648 268.767C95.2012 268.661 95.2523 268.571 95.3231 268.494C95.3923 268.417 95.4778 268.357 95.5779 268.314C95.6781 268.27 95.7945 268.249 95.9238 268.251C96.0565 268.253 96.1722 268.276 96.2693 268.324C96.3681 268.37 96.4501 268.433 96.5186 268.512C96.5854 268.591 96.6354 268.683 96.6687 268.789C96.7019 268.896 96.7168 269.009 96.715 269.13C96.7131 269.251 96.6948 269.365 96.6584 269.469C96.6221 269.573 96.5693 269.664 96.5001 269.74C96.431 269.817 96.3455 269.877 96.2454 269.919C96.1452 269.961 96.0288 269.982 95.8978 269.98C95.7668 269.978 95.6528 269.955 95.5539 269.909C95.4551 269.864 95.3715 269.801 95.3047 269.723C95.2378 269.644 95.1878 269.552 95.1546 269.447C95.1213 269.342 95.1064 269.229 95.1083 269.106C95.1101 268.983 95.1284 268.871 95.1648 268.767ZM95.4326 269.378C95.4579 269.456 95.4934 269.521 95.5407 269.575C95.5863 269.629 95.6405 269.67 95.7031 269.697C95.7657 269.726 95.8318 269.74 95.9031 269.741C95.9744 269.743 96.0409 269.73 96.1043 269.703C96.1678 269.676 96.2231 269.637 96.2703 269.586C96.3175 269.534 96.3549 269.47 96.3843 269.392C96.412 269.315 96.4266 269.225 96.4281 269.126C96.4296 269.026 96.4177 268.937 96.3923 268.858C96.367 268.78 96.3315 268.713 96.2842 268.659C96.2386 268.605 96.1845 268.563 96.1219 268.536C96.0593 268.507 95.9932 268.492 95.9219 268.491C95.8506 268.49 95.784 268.502 95.7206 268.53C95.6572 268.557 95.6019 268.596 95.5546 268.648C95.5074 268.701 95.4683 268.766 95.4406 268.844C95.4129 268.921 95.3983 269.011 95.3968 269.11C95.3953 269.21 95.4072 269.299 95.4326 269.378Z" fill="white"/>
<path d="M97.3057 267.68L97.2928 268.533L97.2995 268.534C97.3456 268.443 97.4163 268.376 97.513 268.336C97.6098 268.296 97.7163 268.276 97.8307 268.278C97.9584 268.28 98.0691 268.305 98.1646 268.352C98.2584 268.4 98.337 268.466 98.3988 268.547C98.4606 268.627 98.5073 268.721 98.5372 268.826C98.5672 268.931 98.5821 269.042 98.5803 269.16C98.5785 269.278 98.562 269.388 98.5289 269.492C98.4958 269.596 98.448 269.687 98.3838 269.764C98.3197 269.841 98.2392 269.901 98.144 269.944C98.0488 269.988 97.9373 270.009 97.8113 270.007C97.7715 270.007 97.7252 270.001 97.6756 269.992C97.626 269.983 97.5764 269.969 97.527 269.948C97.4775 269.928 97.4315 269.902 97.3889 269.868C97.3462 269.834 97.3087 269.792 97.2796 269.744L97.273 269.744L97.2697 269.964L96.9977 269.96L97.0321 267.675L97.3057 267.68ZM98.2656 268.911C98.2468 268.838 98.2163 268.771 98.1758 268.713C98.1352 268.654 98.0828 268.608 98.017 268.573C97.9528 268.537 97.8768 268.519 97.7889 268.518C97.6978 268.516 97.6195 268.533 97.5543 268.569C97.4891 268.604 97.437 268.652 97.3947 268.709C97.3523 268.767 97.3231 268.834 97.3038 268.908C97.2844 268.983 97.275 269.059 97.2738 269.135C97.2726 269.216 97.2814 269.294 97.2985 269.371C97.3172 269.448 97.3461 269.514 97.3867 269.573C97.4272 269.632 97.4813 269.679 97.5454 269.715C97.6112 269.751 97.6905 269.77 97.785 269.771C97.8795 269.773 97.9577 269.756 98.0213 269.72C98.0849 269.685 98.1353 269.637 98.176 269.578C98.215 269.519 98.2442 269.452 98.262 269.376C98.2797 269.3 98.2892 269.22 98.2904 269.139C98.2916 269.063 98.2828 268.986 98.264 268.913L98.2656 268.911Z" fill="white"/>
<path d="M98.9007 268.037L98.9057 267.703L99.1776 267.708L99.1726 268.041L98.9007 268.037ZM99.1681 268.338L99.1433 269.992L98.8714 269.988L98.8962 268.334L99.1681 268.338Z" fill="white"/>
<path d="M99.8558 267.718L99.8214 270.003L99.5495 269.999L99.5839 267.714L99.8558 267.718Z" fill="white"/>
<path d="M100.257 268.057L100.262 267.724L100.534 267.728L100.529 268.061L100.257 268.057ZM100.524 268.358L100.5 270.013L100.228 270.009L100.253 268.354L100.524 268.358Z" fill="white"/>
<path d="M101.622 268.375L101.619 268.615L101.289 268.61L101.273 269.636C101.273 269.668 101.276 269.694 101.28 269.713C101.285 269.733 101.295 269.748 101.309 269.758C101.324 269.768 101.344 269.777 101.372 269.781C101.399 269.784 101.433 269.786 101.477 269.787L101.601 269.789L101.597 270.029L101.39 270.026C101.32 270.025 101.259 270.019 101.209 270.009C101.16 269.998 101.119 269.981 101.089 269.954C101.058 269.928 101.035 269.892 101.023 269.843C101.009 269.797 101.001 269.733 101.002 269.657L101.018 268.604L100.736 268.6L100.74 268.36L101.022 268.364L101.029 267.868L101.301 267.872L101.294 268.368L101.624 268.373L101.622 268.375Z" fill="white"/>
<path d="M103.038 269.945C102.912 270.038 102.756 270.082 102.568 270.079C102.436 270.077 102.322 270.054 102.226 270.009C102.129 269.964 102.049 269.903 101.983 269.826C101.918 269.749 101.87 269.655 101.838 269.549C101.807 269.442 101.79 269.326 101.787 269.2C101.789 269.074 101.811 268.96 101.85 268.856C101.89 268.752 101.946 268.661 102.015 268.586C102.084 268.511 102.168 268.452 102.265 268.411C102.36 268.369 102.465 268.349 102.578 268.351C102.725 268.353 102.846 268.385 102.943 268.448C103.04 268.51 103.115 268.588 103.173 268.683C103.23 268.779 103.27 268.88 103.29 268.992C103.311 269.103 103.318 269.209 103.311 269.309L102.073 269.29C102.07 269.363 102.077 269.431 102.094 269.496C102.113 269.561 102.142 269.62 102.185 269.67C102.227 269.72 102.281 269.761 102.345 269.792C102.411 269.823 102.489 269.839 102.579 269.84C102.693 269.842 102.788 269.817 102.863 269.765C102.937 269.713 102.988 269.632 103.013 269.523L103.281 269.527C103.242 269.712 103.161 269.851 103.035 269.943L103.038 269.945ZM102.989 268.883C102.965 268.824 102.933 268.774 102.892 268.732C102.851 268.69 102.802 268.656 102.746 268.63C102.69 268.605 102.627 268.592 102.559 268.591C102.49 268.59 102.425 268.601 102.368 268.625C102.311 268.649 102.263 268.681 102.221 268.724C102.18 268.766 102.146 268.815 102.122 268.871C102.098 268.927 102.082 268.987 102.078 269.051L103.028 269.066C103.024 269.001 103.013 268.941 102.989 268.883ZM102.671 267.581L102.356 268.095L102.56 268.098L103.019 267.586L102.671 267.581Z" fill="white"/>
<path d="M103.765 269.692C103.789 269.734 103.823 269.768 103.865 269.793C103.906 269.819 103.952 269.836 104.005 269.848C104.058 269.859 104.111 269.866 104.165 269.867C104.208 269.868 104.253 269.865 104.3 269.859C104.346 269.853 104.39 269.842 104.43 269.826C104.47 269.81 104.502 269.786 104.529 269.753C104.554 269.72 104.568 269.679 104.569 269.628C104.57 269.558 104.544 269.503 104.491 269.467C104.439 269.43 104.373 269.399 104.292 269.377C104.211 269.354 104.125 269.331 104.033 269.311C103.938 269.292 103.853 269.265 103.773 269.231C103.694 269.197 103.629 269.149 103.575 269.089C103.523 269.028 103.498 268.945 103.499 268.839C103.5 268.756 103.52 268.685 103.559 268.626C103.596 268.567 103.645 268.519 103.705 268.482C103.764 268.447 103.83 268.419 103.905 268.402C103.979 268.385 104.052 268.378 104.125 268.379C104.219 268.38 104.305 268.39 104.383 268.406C104.462 268.424 104.532 268.451 104.591 268.492C104.651 268.533 104.699 268.587 104.734 268.653C104.77 268.722 104.79 268.805 104.795 268.905L104.523 268.901C104.519 268.848 104.506 268.803 104.484 268.767C104.461 268.732 104.432 268.704 104.395 268.682C104.359 268.659 104.32 268.644 104.277 268.633C104.234 268.623 104.189 268.617 104.144 268.616C104.104 268.616 104.063 268.619 104.021 268.625C103.98 268.631 103.942 268.642 103.907 268.656C103.871 268.672 103.845 268.693 103.823 268.719C103.801 268.746 103.79 268.78 103.79 268.823C103.789 268.87 103.805 268.91 103.838 268.94C103.87 268.972 103.911 268.998 103.962 269.018C104.014 269.039 104.071 269.058 104.134 269.072C104.199 269.087 104.261 269.102 104.326 269.118C104.394 269.134 104.46 269.154 104.526 269.176C104.59 269.199 104.648 269.228 104.697 269.263C104.746 269.299 104.787 269.344 104.816 269.398C104.847 269.451 104.86 269.518 104.859 269.597C104.858 269.697 104.835 269.781 104.793 269.845C104.75 269.911 104.695 269.963 104.628 270.004C104.559 270.042 104.484 270.069 104.399 270.085C104.314 270.1 104.231 270.105 104.147 270.104C104.056 270.103 103.968 270.091 103.885 270.072C103.803 270.051 103.729 270.018 103.666 269.974C103.602 269.93 103.553 269.871 103.515 269.799C103.477 269.728 103.457 269.639 103.454 269.538L103.726 269.542C103.726 269.602 103.741 269.654 103.765 269.695L103.765 269.692Z" fill="white"/>
<path d="M76.8312 263.214L76.1083 263.203L76.7527 262.372L77.6099 262.385L78.229 263.235L77.5061 263.224L77.1746 262.766L76.8296 263.214L76.8312 263.214ZM76.6855 263.529L77.6456 263.543L77.6015 266.473L76.6415 266.458L76.6855 263.529Z" fill="#6FB2E2"/>
<path d="M79.088 262.463L78.128 262.449L78.0674 266.48L79.0274 266.494L79.088 262.463Z" fill="#6FB2E2"/>
<path d="M80.2597 265.281C80.2719 265.682 80.4984 265.951 80.9046 265.957C81.1351 265.96 81.3622 265.856 81.4566 265.642L82.3553 265.655C82.171 266.331 81.5382 266.615 80.8833 266.605C79.9299 266.591 79.2885 266.006 79.3033 265.024C79.3168 264.127 80.0427 263.494 80.9066 263.507C81.9562 263.523 82.4699 264.322 82.4102 265.314L80.258 265.282M81.4599 264.763C81.4482 264.434 81.2202 264.161 80.8985 264.156C80.5603 264.151 80.3311 264.389 80.2677 264.745L81.4582 264.763L81.4599 264.763Z" fill="#6FB2E2"/>
<path d="M84.7213 266.578L84.3433 266.572L84.348 266.261L84.3397 266.261C84.2115 266.512 83.9163 266.619 83.5997 266.614C82.8917 266.604 82.5486 266.036 82.5583 265.388C82.5681 264.74 82.9229 264.196 83.6275 264.207C83.8613 264.21 84.1999 264.305 84.365 264.578L84.3733 264.578L84.391 263.394L84.7691 263.4L84.7213 266.578ZM83.6577 266.282C84.1651 266.289 84.3673 265.856 84.3738 265.425C84.3806 264.971 84.1813 264.55 83.6623 264.542C83.1466 264.534 82.9659 264.971 82.9592 265.422C82.9527 265.853 83.1702 266.275 83.6577 266.282Z" fill="#6FB2E2"/>
<path d="M87.0553 265.884C86.9449 266.389 86.5759 266.661 86.0603 266.653C85.3257 266.642 84.9852 266.129 84.9742 265.426C84.9846 264.736 85.4465 264.236 86.0749 264.245C86.889 264.257 87.1263 265.022 87.0964 265.579L85.3736 265.553C85.3543 265.954 85.5762 266.312 86.0786 266.32C86.3903 266.325 86.6098 266.175 86.6806 265.88L87.0553 265.884ZM86.7002 265.236C86.6873 264.876 86.4214 264.584 86.0467 264.578C85.6504 264.572 85.4105 264.865 85.3787 265.216L86.7002 265.236Z" fill="#6FB2E2"/>
<path d="M87.3867 262.588L90.3563 262.633L90.3437 263.473L88.4236 263.445L88.4112 264.269L90.071 264.294L90.0588 265.106L88.399 265.081L88.3757 266.633L87.3261 266.617L87.3867 262.588Z" fill="#6FB2E2"/>
<path d="M90.5305 263.735L91.4623 263.749L91.4546 264.263L91.4662 264.263C91.6127 263.894 91.9424 263.7 92.3569 263.706C92.4298 263.707 92.5077 263.715 92.582 263.733L92.5689 264.606C92.4451 264.57 92.3326 264.546 92.2017 264.545C91.7291 264.537 91.4738 264.862 91.4683 265.228L91.4465 266.679L90.4881 266.665L90.5305 263.735Z" fill="#6FB2E2"/>
<path d="M92.5664 264.669C92.5887 264.287 92.7732 264.041 93.0342 263.89C93.2967 263.748 93.6358 263.697 93.969 263.702C94.6638 263.713 95.333 263.875 95.3205 264.706L95.3013 265.988C95.2975 266.236 95.2935 266.507 95.4044 266.74L94.4377 266.726C94.4059 266.634 94.3957 266.544 94.3855 266.448C94.1329 266.705 93.7649 266.799 93.4151 266.793C92.8563 266.785 92.4212 266.497 92.4303 265.891C92.4446 264.938 93.4814 265.026 94.15 264.902C94.3147 264.872 94.405 264.816 94.4078 264.636C94.4111 264.415 94.1487 264.327 93.9497 264.324C93.6844 264.32 93.5135 264.437 93.465 264.683L92.5664 264.669ZM93.7854 266.207C94.2414 266.214 94.3995 265.957 94.3854 265.352C94.2482 265.434 94.0008 265.449 93.7894 265.5C93.5748 265.549 93.3927 265.635 93.3892 265.868C93.3856 266.105 93.5699 266.204 93.7854 266.207Z" fill="#6FB2E2"/>
<path d="M95.6838 263.812L96.6157 263.826L96.6097 264.228L96.6229 264.228C96.8015 263.93 97.1989 263.751 97.5488 263.756C98.5254 263.771 98.5943 264.483 98.588 264.906L98.5597 266.786L97.6013 266.772L97.6226 265.356C97.6286 264.955 97.6795 264.549 97.1539 264.541C96.7924 264.536 96.6304 264.837 96.6255 265.158L96.6015 266.757L95.6415 266.742L95.6838 263.812Z" fill="#6FB2E2"/>
<path d="M100.851 264.963C100.848 264.714 100.63 264.537 100.388 264.533C99.8524 264.525 99.761 264.982 99.7549 265.388C99.7492 265.766 99.9075 266.158 100.314 266.164C100.645 266.169 100.821 265.979 100.868 265.671L101.8 265.686C101.704 266.469 101.089 266.91 100.309 266.899C99.4289 266.885 98.783 266.272 98.7965 265.375C98.8105 264.443 99.4141 263.786 100.356 263.8C101.084 263.811 101.728 264.203 101.784 264.979L100.853 264.965L100.851 264.963Z" fill="#6FB2E2"/>
<path d="M102.816 265.619C102.827 266.021 103.055 266.29 103.461 266.296C103.692 266.299 103.919 266.195 104.013 265.981L104.912 265.994C104.726 266.67 104.095 266.954 103.44 266.944C102.486 266.93 101.845 266.345 101.86 265.363C101.873 264.466 102.601 263.833 103.463 263.846C104.514 263.862 105.026 264.661 104.967 265.653L102.816 265.619ZM104.016 265.102C104.005 264.773 103.777 264.5 103.455 264.495C103.117 264.49 102.888 264.728 102.826 265.084L104.016 265.102Z" fill="#6FB2E2"/>
<path d="M111.701 262.954L107.763 262.894C106.854 262.881 106.107 263.606 106.093 264.514L106.034 268.452C106.02 269.361 106.746 270.108 107.654 270.122L111.592 270.181C112.501 270.195 113.248 269.469 113.262 268.561L113.321 264.623C113.335 263.715 112.609 262.967 111.701 262.954Z" fill="#6FB2E2"/>
<path d="M110.146 264.779C109.97 265.146 109.59 265.331 109.3 265.193C109.011 265.054 108.921 264.643 109.097 264.274C109.273 263.907 109.653 263.722 109.942 263.861C110.232 263.999 110.322 264.412 110.146 264.779Z" fill="white"/>
<path d="M110.586 267.249C109.978 266.376 109.212 266.805 108.689 267.491C108.278 268.03 107.927 268.501 107.496 269.073C107.396 269.206 107.47 269.255 107.609 269.174C107.748 269.093 107.88 268.976 108.012 268.8C108.19 268.564 108.637 267.976 108.916 267.603C109.166 267.269 109.532 267.309 109.779 267.661C110.065 268.07 110.419 268.581 110.732 269.025C110.95 269.332 111.62 269.296 111.914 269.28C111.967 269.278 111.983 269.238 111.958 269.205C111.778 268.95 111.151 268.06 110.586 267.249Z" fill="white"/>
<path d="M111.449 265.152C110.568 265.578 110.299 265.533 109.563 265.631C108.826 265.73 108.272 265.891 107.65 266.535C107.495 266.695 107.425 266.838 107.666 266.721C108.546 266.294 108.816 266.34 109.552 266.241C110.288 266.143 110.843 265.982 111.464 265.34C111.619 265.18 111.689 265.035 111.449 265.152Z" fill="white"/>
<path d="M125.93 215.515L64.9676 214.599L62.2133 219.868C57.7259 228.452 55.2926 237.962 55.1039 247.648L55.0824 248.749C55.0539 250.201 56.2117 251.401 57.6659 251.423L131.727 252.536C133.168 252.558 134.356 251.413 134.39 249.972L134.414 248.916C134.63 239.183 132.571 229.534 128.404 220.737L125.932 215.517L125.93 215.515Z" fill="#3A434D"/>
<path d="M121.235 285.484L67.2197 284.672C66.8626 284.667 66.5687 284.952 66.5633 285.309L66.562 285.399C66.5566 285.756 66.8418 286.05 67.1989 286.055L121.214 286.867C121.571 286.873 121.865 286.587 121.871 286.23L121.872 286.141C121.877 285.784 121.592 285.49 121.235 285.484Z" fill="#CCCED1"/>
<path d="M83.5408 288.074L70.3607 287.876C70.1822 287.873 70.0352 288.016 70.0325 288.194L70.0319 288.239C70.0292 288.418 70.1718 288.564 70.3503 288.567L83.5304 288.765C83.709 288.768 83.8559 288.625 83.8586 288.447L83.8593 288.402C83.862 288.223 83.7194 288.076 83.5408 288.074Z" fill="#0E121A"/>
<path d="M100.922 288.335L87.7424 288.137C87.5638 288.134 87.4169 288.277 87.4142 288.455L87.4135 288.5C87.4108 288.679 87.5534 288.826 87.732 288.828L100.912 289.026C101.091 289.029 101.238 288.887 101.24 288.708L101.241 288.663C101.244 288.485 101.101 288.338 100.922 288.335Z" fill="#0E121A"/>
<path d="M117.997 288.592L104.817 288.394C104.639 288.391 104.492 288.534 104.489 288.712L104.488 288.757C104.486 288.935 104.628 289.082 104.807 289.085L117.987 289.283C118.166 289.286 118.312 289.143 118.315 288.965L118.316 288.92C118.319 288.741 118.176 288.594 117.997 288.592Z" fill="#0E121A"/>
<path d="M83.5174 289.634L70.3373 289.436C70.1587 289.433 70.0118 289.576 70.0091 289.754L70.0084 289.799C70.0057 289.978 70.1483 290.125 70.3269 290.127L83.507 290.326C83.6855 290.328 83.8325 290.186 83.8351 290.007L83.8358 289.962C83.8385 289.784 83.6959 289.637 83.5174 289.634Z" fill="#0E121A"/>
<path d="M100.899 289.895L87.7189 289.697C87.5403 289.695 87.3934 289.837 87.3907 290.016L87.39 290.06C87.3874 290.239 87.5299 290.386 87.7085 290.389L100.889 290.587C101.067 290.589 101.214 290.447 101.217 290.268L101.217 290.224C101.22 290.045 101.078 289.898 100.899 289.895Z" fill="#0E121A"/>
<path d="M117.974 290.152L104.794 289.954C104.615 289.951 104.468 290.094 104.466 290.272L104.465 290.317C104.462 290.496 104.605 290.643 104.783 290.645L117.964 290.843C118.142 290.846 118.289 290.704 118.292 290.525L118.292 290.48C118.295 290.302 118.153 290.155 117.974 290.152Z" fill="#0E121A"/>
<path opacity="0.5" d="M130.394 215.582L60.504 214.532L60.425 219.786L130.315 220.837L130.394 215.582Z" fill="#0E121A"/>
<path d="M66.2817 213.235L124.658 214.113C125.371 214.123 125.942 214.711 125.932 215.426L125.93 215.515L64.9676 214.599L64.9689 214.509C64.9796 213.796 65.567 213.225 66.2817 213.235Z" fill="#6FB2E2"/>
<path d="M268.731 173.659L268.6 173.661C268.07 173.668 267.647 174.103 267.655 174.633L267.695 177.486C267.702 178.016 268.137 178.439 268.666 178.431L268.797 178.429C269.327 178.422 269.75 177.987 269.742 177.458L269.702 174.604C269.695 174.075 269.26 173.652 268.731 173.659Z" fill="#CCCED1"/>
<path d="M275.741 209.473L264.916 204.03C258.994 201.052 256.143 194.075 258.286 187.801L263.163 173.525L267.961 175.164L263.084 189.44C261.755 193.329 263.522 197.653 267.195 199.501L278.017 204.943L275.741 209.473Z" fill="#CCCED1"/>
<path d="M304.249 287.554L237.957 288.481C236.963 288.495 236.074 287.872 235.748 286.933L231.322 274.21C225.195 256.594 224.928 237.469 230.56 219.69L234.628 206.848C234.928 205.902 235.8 205.253 236.793 205.239L303.086 204.313C304.079 204.299 304.968 204.921 305.295 205.861L309.72 218.583C315.847 236.2 316.114 255.324 310.482 273.104L306.414 285.945C306.114 286.892 305.243 287.541 304.249 287.554Z" fill="white"/>
<path d="M272.877 171.067C272.921 174.199 270.418 176.775 267.284 176.819C264.15 176.863 261.578 174.356 261.534 171.226C261.49 168.095 263.993 165.519 267.125 165.476C270.258 165.432 272.833 167.938 272.877 171.067Z" fill="#9C9892"/>
<path d="M272.123 171.078C272.161 173.794 269.993 176.026 267.275 176.064C264.558 176.102 262.33 173.931 262.292 171.215C262.254 168.499 264.425 166.271 267.138 166.233C269.85 166.195 272.085 168.365 272.123 171.078Z" fill="#CCCED1"/>
<path d="M314.512 245.783C314.383 236.577 312.783 227.392 309.722 218.583L305.297 205.861C304.97 204.923 304.081 204.299 303.087 204.313L236.795 205.239C235.801 205.253 234.93 205.901 234.63 206.848L230.562 219.69C227.746 228.58 226.405 237.807 226.534 247.013L229.176 246.976C231.369 246.945 233.398 248.136 234.438 250.066L239.639 259.709C244.939 269.536 255.265 275.6 266.429 275.444L275.432 275.318C286.596 275.162 296.747 268.813 301.77 258.842L306.7 249.058C307.687 247.099 309.682 245.852 311.874 245.821L314.515 245.784L314.512 245.783Z" fill="#0E121A"/>
<path d="M268.842 260.903L268.846 261.146L268.852 261.146C268.974 260.957 269.15 260.86 269.382 260.857C269.485 260.855 269.578 260.876 269.662 260.918C269.745 260.96 269.806 261.03 269.841 261.132C269.894 261.042 269.966 260.971 270.057 260.922C270.147 260.871 270.246 260.846 270.354 260.845C270.437 260.844 270.513 260.851 270.58 260.868C270.648 260.886 270.705 260.913 270.754 260.95C270.802 260.988 270.839 261.037 270.868 261.098C270.896 261.159 270.91 261.232 270.911 261.316L270.928 262.529L270.656 262.532L270.641 261.448C270.64 261.397 270.635 261.349 270.626 261.304C270.617 261.259 270.6 261.221 270.576 261.188C270.552 261.156 270.519 261.13 270.477 261.112C270.435 261.093 270.381 261.085 270.316 261.086C270.182 261.088 270.076 261.127 270.001 261.205C269.926 261.282 269.889 261.385 269.891 261.513L269.905 262.543L269.633 262.547L269.618 261.462C269.617 261.409 269.612 261.36 269.601 261.315C269.591 261.27 269.573 261.232 269.55 261.2C269.526 261.167 269.494 261.142 269.454 261.125C269.414 261.107 269.364 261.099 269.301 261.1C269.222 261.101 269.156 261.119 269.098 261.151C269.042 261.183 268.996 261.222 268.962 261.267C268.928 261.313 268.902 261.359 268.888 261.408C268.872 261.456 268.866 261.496 268.866 261.527L268.88 262.557L268.609 262.561L268.585 260.906L268.842 260.903Z" fill="white"/>
<path d="M271.253 261.358C271.287 261.252 271.335 261.16 271.404 261.081C271.471 261.002 271.554 260.939 271.653 260.893C271.752 260.847 271.868 260.822 271.997 260.82C272.13 260.819 272.246 260.839 272.345 260.884C272.445 260.927 272.529 260.987 272.599 261.064C272.668 261.141 272.721 261.232 272.757 261.337C272.794 261.443 272.812 261.555 272.814 261.676C272.815 261.797 272.8 261.912 272.767 262.017C272.733 262.122 272.683 262.214 272.616 262.293C272.55 262.372 272.466 262.434 272.367 262.479C272.268 262.523 272.152 262.548 272.021 262.55C271.89 262.552 271.776 262.532 271.676 262.488C271.575 262.447 271.49 262.386 271.421 262.309C271.352 262.233 271.299 262.142 271.263 262.038C271.227 261.934 271.209 261.822 271.207 261.699C271.205 261.576 271.22 261.463 271.253 261.358ZM271.539 261.961C271.566 262.039 271.604 262.103 271.653 262.155C271.7 262.208 271.755 262.247 271.818 262.272C271.882 262.3 271.948 262.312 272.02 262.311C272.091 262.31 272.157 262.296 272.22 262.267C272.282 262.238 272.337 262.197 272.382 262.145C272.428 262.091 272.463 262.026 272.491 261.948C272.516 261.87 272.528 261.78 272.527 261.68C272.525 261.581 272.511 261.492 272.483 261.414C272.455 261.336 272.418 261.271 272.369 261.218C272.322 261.166 272.267 261.125 272.203 261.099C272.14 261.072 272.074 261.06 272.002 261.061C271.931 261.062 271.865 261.076 271.802 261.105C271.74 261.134 271.685 261.175 271.64 261.228C271.594 261.282 271.557 261.349 271.531 261.427C271.506 261.506 271.494 261.595 271.495 261.695C271.497 261.794 271.511 261.884 271.539 261.961Z" fill="white"/>
<path d="M273.362 260.209L273.374 261.063L273.38 261.063C273.424 260.971 273.493 260.902 273.588 260.86C273.684 260.817 273.79 260.794 273.904 260.792C274.032 260.79 274.143 260.812 274.24 260.857C274.335 260.902 274.416 260.966 274.48 261.044C274.544 261.123 274.593 261.215 274.626 261.319C274.659 261.423 274.677 261.534 274.679 261.652C274.681 261.77 274.667 261.881 274.637 261.986C274.607 262.091 274.562 262.183 274.5 262.261C274.438 262.34 274.359 262.403 274.266 262.449C274.172 262.495 274.061 262.52 273.935 262.521C273.895 262.522 273.849 262.518 273.799 262.51C273.749 262.502 273.699 262.49 273.649 262.471C273.599 262.452 273.552 262.427 273.509 262.395C273.465 262.362 273.426 262.321 273.396 262.274L273.389 262.274L273.392 262.494L273.12 262.498L273.088 260.213L273.362 260.209ZM274.357 261.413C274.336 261.34 274.304 261.274 274.262 261.217C274.219 261.159 274.166 261.115 274.099 261.081C274.034 261.047 273.957 261.032 273.869 261.033C273.778 261.034 273.7 261.054 273.636 261.091C273.572 261.128 273.521 261.177 273.481 261.236C273.44 261.294 273.413 261.363 273.396 261.438C273.378 261.513 273.371 261.589 273.372 261.665C273.373 261.747 273.384 261.824 273.404 261.9C273.425 261.976 273.455 262.042 273.498 262.1C273.54 262.157 273.595 262.203 273.661 262.237C273.727 262.271 273.807 262.288 273.902 262.286C273.996 262.285 274.074 262.266 274.136 262.228C274.199 262.191 274.248 262.142 274.287 262.082C274.324 262.022 274.351 261.953 274.367 261.877C274.382 261.8 274.39 261.721 274.389 261.639C274.387 261.563 274.376 261.487 274.356 261.414L274.357 261.413Z" fill="white"/>
<path d="M274.967 260.52L274.962 260.187L275.234 260.183L275.239 260.516L274.967 260.52ZM275.243 260.813L275.266 262.468L274.994 262.472L274.971 260.817L275.243 260.813Z" fill="white"/>
<path d="M275.912 260.174L275.944 262.458L275.672 262.462L275.64 260.177L275.912 260.174Z" fill="white"/>
<path d="M276.323 260.501L276.318 260.168L276.59 260.164L276.595 260.497L276.323 260.501ZM276.599 260.794L276.622 262.449L276.35 262.453L276.327 260.798L276.599 260.794Z" fill="white"/>
<path d="M277.697 260.779L277.7 261.019L277.37 261.024L277.384 262.05C277.385 262.082 277.389 262.108 277.394 262.126C277.399 262.146 277.409 262.161 277.424 262.171C277.439 262.18 277.459 262.188 277.488 262.191C277.514 262.194 277.549 262.196 277.592 262.195L277.716 262.193L277.72 262.434L277.513 262.436C277.443 262.437 277.382 262.433 277.332 262.424C277.282 262.415 277.24 262.399 277.21 262.373C277.178 262.348 277.154 262.312 277.14 262.264C277.125 262.218 277.116 262.155 277.115 262.079L277.1 261.026L276.818 261.03L276.815 260.789L277.096 260.786L277.09 260.29L277.361 260.286L277.368 260.782L277.698 260.777L277.697 260.779Z" fill="white"/>
<path d="M279.158 262.307C279.034 262.404 278.879 262.452 278.692 262.455C278.559 262.457 278.445 262.437 278.348 262.395C278.249 262.353 278.167 262.295 278.1 262.219C278.033 262.144 277.981 262.052 277.947 261.946C277.912 261.84 277.892 261.725 277.886 261.599C277.884 261.473 277.902 261.358 277.939 261.253C277.975 261.148 278.029 261.056 278.096 260.979C278.163 260.902 278.245 260.841 278.34 260.796C278.434 260.752 278.538 260.729 278.651 260.727C278.799 260.725 278.92 260.753 279.019 260.813C279.118 260.873 279.195 260.949 279.256 261.042C279.315 261.136 279.358 261.237 279.381 261.347C279.406 261.458 279.416 261.564 279.412 261.664L278.174 261.681C278.173 261.754 278.182 261.822 278.201 261.886C278.222 261.951 278.253 262.008 278.297 262.057C278.34 262.106 278.396 262.146 278.461 262.174C278.528 262.203 278.606 262.217 278.695 262.216C278.81 262.214 278.904 262.187 278.978 262.132C279.05 262.078 279.098 261.996 279.12 261.887L279.389 261.883C279.355 262.069 279.277 262.209 279.154 262.306L279.158 262.307ZM279.078 261.247C279.052 261.189 279.018 261.14 278.976 261.099C278.934 261.058 278.884 261.026 278.828 261.002C278.771 260.978 278.708 260.967 278.64 260.968C278.57 260.969 278.505 260.981 278.449 261.007C278.393 261.033 278.346 261.067 278.305 261.11C278.266 261.154 278.233 261.204 278.211 261.261C278.188 261.318 278.174 261.377 278.172 261.442L279.122 261.429C279.116 261.364 279.104 261.305 279.078 261.247ZM278.722 259.955L278.422 260.478L278.626 260.476L279.07 259.95L278.722 259.955Z" fill="white"/>
<path d="M279.877 262.034C279.902 262.075 279.938 262.107 279.979 262.132C280.021 262.156 280.068 262.172 280.121 262.183C280.174 262.192 280.227 262.198 280.282 262.197C280.325 262.197 280.37 262.193 280.416 262.185C280.463 262.178 280.506 262.166 280.545 262.149C280.585 262.132 280.616 262.106 280.642 262.073C280.666 262.039 280.679 261.998 280.678 261.946C280.677 261.877 280.65 261.822 280.596 261.788C280.543 261.752 280.476 261.723 280.395 261.703C280.313 261.683 280.227 261.662 280.133 261.645C280.039 261.628 279.952 261.605 279.872 261.573C279.792 261.541 279.725 261.495 279.669 261.436C279.616 261.377 279.588 261.295 279.586 261.189C279.585 261.106 279.602 261.034 279.64 260.974C279.675 260.914 279.723 260.865 279.782 260.826C279.839 260.789 279.905 260.76 279.98 260.74C280.052 260.721 280.125 260.712 280.198 260.711C280.293 260.709 280.379 260.716 280.457 260.73C280.537 260.746 280.607 260.771 280.667 260.81C280.729 260.849 280.778 260.902 280.815 260.967C280.853 261.035 280.876 261.118 280.884 261.217L280.612 261.221C280.606 261.168 280.592 261.123 280.568 261.089C280.545 261.054 280.514 261.026 280.478 261.005C280.441 260.984 280.401 260.97 280.358 260.961C280.314 260.951 280.27 260.947 280.225 260.948C280.185 260.948 280.144 260.952 280.102 260.959C280.061 260.966 280.023 260.979 279.988 260.994C279.954 261.011 279.927 261.033 279.906 261.06C279.885 261.087 279.876 261.122 279.876 261.165C279.877 261.211 279.894 261.251 279.928 261.28C279.961 261.311 280.003 261.335 280.055 261.355C280.106 261.374 280.165 261.391 280.228 261.404C280.293 261.416 280.356 261.43 280.421 261.444C280.489 261.458 280.556 261.475 280.622 261.496C280.687 261.517 280.746 261.544 280.796 261.578C280.846 261.612 280.888 261.656 280.919 261.709C280.951 261.762 280.967 261.828 280.968 261.907C280.969 262.007 280.949 262.092 280.908 262.157C280.868 262.224 280.814 262.278 280.748 262.32C280.681 262.361 280.607 262.39 280.522 262.408C280.438 262.426 280.355 262.433 280.27 262.434C280.179 262.436 280.091 262.427 280.008 262.41C279.925 262.391 279.85 262.361 279.786 262.319C279.721 262.276 279.67 262.219 279.63 262.148C279.59 262.077 279.568 261.99 279.561 261.889L279.833 261.885C279.836 261.945 279.851 261.996 279.877 262.037L279.877 262.034Z" fill="white"/>
<path d="M252.767 256.339L252.044 256.35L252.664 255.5L253.521 255.488L254.164 256.32L253.441 256.33L253.097 255.882L252.765 256.339L252.767 256.339ZM252.63 256.658L253.59 256.645L253.631 259.575L252.671 259.588L252.63 256.658Z" fill="#6FB2E2"/>
<path d="M255.001 255.524L254.041 255.537L254.097 259.568L255.057 259.555L255.001 255.524Z" fill="#6FB2E2"/>
<path d="M256.253 258.306C256.277 258.707 256.512 258.969 256.918 258.963C257.148 258.96 257.372 258.849 257.46 258.632L258.359 258.62C258.194 259.3 257.57 259.602 256.915 259.612C255.962 259.625 255.304 259.059 255.29 258.077C255.278 257.18 255.985 256.527 256.849 256.515C257.898 256.5 258.435 257.283 258.404 258.277L256.252 258.307M257.438 257.753C257.417 257.425 257.181 257.158 256.859 257.163C256.521 257.168 256.299 257.413 256.246 257.77L257.437 257.753L257.438 257.753Z" fill="#6FB2E2"/>
<path d="M260.751 259.473L260.373 259.479L260.368 259.167L260.36 259.167C260.239 259.423 259.947 259.538 259.631 259.542C258.923 259.552 258.563 258.995 258.554 258.347C258.545 257.698 258.884 257.145 259.589 257.135C259.823 257.131 260.164 257.216 260.337 257.484L260.345 257.484L260.328 256.3L260.706 256.295L260.751 259.473ZM259.679 259.208C260.187 259.201 260.376 258.762 260.37 258.331C260.364 257.877 260.152 257.462 259.633 257.469C259.118 257.476 258.95 257.918 258.956 258.369C258.962 258.8 259.192 259.215 259.679 259.208Z" fill="#6FB2E2"/>
<path d="M263.064 258.711C262.968 259.22 262.607 259.502 262.091 259.509C261.357 259.52 261.002 259.017 260.97 258.314C260.961 257.625 261.408 257.111 262.036 257.102C262.85 257.091 263.11 257.848 263.096 258.406L261.373 258.43C261.366 258.831 261.598 259.183 262.1 259.176C262.412 259.171 262.627 259.016 262.689 258.718L263.064 258.711ZM262.69 258.075C262.667 257.715 262.392 257.43 262.018 257.436C261.621 257.441 261.39 257.741 261.368 258.093L262.69 258.075Z" fill="#6FB2E2"/>
<path d="M263.299 255.408L266.269 255.366L266.281 256.207L264.361 256.234L264.372 257.058L266.032 257.035L266.043 257.847L264.384 257.87L264.405 259.422L263.356 259.437L263.299 255.408Z" fill="#6FB2E2"/>
<path d="M266.475 256.463L267.407 256.45L267.414 256.964L267.426 256.964C267.562 256.59 267.885 256.387 268.3 256.381C268.373 256.38 268.451 256.386 268.526 256.401L268.538 257.275C268.413 257.242 268.3 257.222 268.169 257.224C267.697 257.23 267.451 257.562 267.456 257.929L267.476 259.379L266.518 259.393L266.475 256.463Z" fill="#6FB2E2"/>
<path d="M268.537 257.338C268.548 256.955 268.726 256.703 268.982 256.546C269.241 256.396 269.578 256.335 269.911 256.33C270.606 256.321 271.28 256.464 271.291 257.294L271.309 258.576C271.313 258.825 271.316 259.095 271.434 259.326L270.467 259.339C270.433 259.248 270.42 259.159 270.407 259.063C270.162 259.327 269.797 259.431 269.447 259.436C268.888 259.444 268.445 259.168 268.437 258.563C268.423 257.61 269.462 257.668 270.127 257.525C270.291 257.489 270.379 257.432 270.377 257.251C270.374 257.03 270.109 256.949 269.91 256.952C269.645 256.956 269.477 257.078 269.436 257.325L268.537 257.338ZM269.8 258.839C270.256 258.833 270.407 258.572 270.375 257.967C270.241 258.054 269.994 258.075 269.784 258.133C269.571 258.187 269.391 258.28 269.395 258.512C269.398 258.749 269.585 258.842 269.8 258.839Z" fill="#6FB2E2"/>
<path d="M271.629 256.391L272.56 256.378L272.566 256.779L272.579 256.779C272.749 256.476 273.141 256.285 273.491 256.28C274.468 256.267 274.557 256.977 274.563 257.4L274.589 259.28L273.631 259.293L273.611 257.877C273.606 257.476 273.645 257.069 273.119 257.077C272.758 257.082 272.604 257.387 272.609 257.709L272.631 259.307L271.671 259.321L271.629 256.391Z" fill="#6FB2E2"/>
<path d="M276.827 257.391C276.817 257.143 276.594 256.972 276.352 256.975C275.816 256.982 275.738 257.441 275.744 257.848C275.749 258.226 275.919 258.613 276.325 258.607C276.656 258.603 276.826 258.408 276.865 258.099L277.797 258.086C277.723 258.871 277.121 259.331 276.342 259.342C275.461 259.354 274.798 258.76 274.785 257.863C274.772 256.931 275.357 256.256 276.298 256.243C277.026 256.233 277.682 256.606 277.76 257.38L276.829 257.393L276.827 257.391Z" fill="#6FB2E2"/>
<path d="M278.81 257.99C278.833 258.391 279.068 258.653 279.475 258.648C279.705 258.645 279.929 258.534 280.017 258.317L280.916 258.304C280.75 258.985 280.127 259.287 279.472 259.296C278.519 259.31 277.861 258.743 277.847 257.762C277.834 256.865 278.543 256.211 279.406 256.199C280.457 256.185 280.992 256.968 280.961 257.962L278.81 257.99ZM279.995 257.438C279.974 257.11 279.738 256.843 279.416 256.848C279.078 256.852 278.856 257.097 278.805 257.455L279.995 257.438Z" fill="#6FB2E2"/>
<path d="M287.614 255.068L283.676 255.123C282.767 255.136 282.041 255.882 282.054 256.791L282.109 260.729C282.122 261.637 282.868 262.363 283.777 262.351L287.715 262.296C288.623 262.283 289.349 261.536 289.337 260.628L289.282 256.69C289.269 255.781 288.522 255.055 287.614 255.068Z" fill="#6FB2E2"/>
<path d="M286.113 256.938C285.947 257.31 285.573 257.506 285.279 257.376C284.986 257.246 284.884 256.837 285.049 256.464C285.215 256.092 285.589 255.896 285.883 256.026C286.176 256.156 286.278 256.566 286.113 256.938Z" fill="white"/>
<path d="M286.624 259.394C285.991 258.538 285.237 258.99 284.735 259.69C284.339 260.241 284.003 260.722 283.588 261.307C283.492 261.442 283.567 261.489 283.704 261.405C283.84 261.32 283.97 261.199 284.097 261.019C284.267 260.778 284.697 260.177 284.965 259.797C285.206 259.455 285.573 259.485 285.83 259.829C286.127 260.23 286.496 260.73 286.822 261.165C287.048 261.466 287.717 261.41 288.011 261.386C288.064 261.382 288.078 261.342 288.053 261.309C287.865 261.06 287.213 260.188 286.624 259.394Z" fill="white"/>
<path d="M287.426 257.273C286.558 257.725 286.287 257.687 285.554 257.807C284.821 257.926 284.271 258.103 283.669 258.765C283.518 258.93 283.452 259.075 283.69 258.95C284.557 258.499 284.828 258.537 285.561 258.417C286.294 258.297 286.844 258.12 287.447 257.46C287.597 257.295 287.663 257.149 287.426 257.273Z" fill="white"/>
<path d="M300.461 207.237L239.498 208.089L236.898 213.435C232.661 222.147 230.505 231.723 230.597 241.41L230.607 242.511C230.621 243.964 231.813 245.129 233.267 245.109L307.33 244.074C308.771 244.054 309.925 242.875 309.917 241.434L309.91 240.377C309.844 230.642 307.506 221.057 303.086 212.384L300.463 207.238L300.461 207.237Z" fill="#3A434D"/>
<path d="M297.798 277.313L243.781 278.068C243.424 278.073 243.139 278.366 243.144 278.723L243.145 278.813C243.15 279.17 243.444 279.455 243.801 279.45L297.817 278.695C298.174 278.69 298.46 278.397 298.455 278.04L298.453 277.95C298.448 277.593 298.155 277.308 297.798 277.313Z" fill="#CCCED1"/>
<path d="M260.194 280.994L247.014 281.178C246.835 281.181 246.693 281.328 246.695 281.506L246.696 281.551C246.698 281.73 246.845 281.872 247.024 281.87L260.204 281.686C260.383 281.683 260.525 281.536 260.523 281.358L260.522 281.313C260.52 281.134 260.373 280.992 260.194 280.994Z" fill="#0E121A"/>
<path d="M277.576 280.751L264.396 280.936C264.217 280.938 264.075 281.085 264.077 281.263L264.078 281.308C264.08 281.487 264.227 281.629 264.406 281.627L277.586 281.443C277.764 281.44 277.907 281.293 277.905 281.115L277.904 281.07C277.902 280.892 277.755 280.749 277.576 280.751Z" fill="#0E121A"/>
<path d="M294.651 280.513L281.471 280.697C281.293 280.699 281.15 280.846 281.152 281.025L281.153 281.069C281.155 281.248 281.302 281.391 281.481 281.388L294.661 281.204C294.84 281.201 294.982 281.055 294.98 280.876L294.979 280.831C294.977 280.653 294.83 280.51 294.651 280.513Z" fill="#0E121A"/>
<path d="M260.216 282.555L247.036 282.739C246.857 282.741 246.715 282.888 246.717 283.067L246.718 283.112C246.72 283.29 246.867 283.433 247.046 283.43L260.226 283.246C260.404 283.244 260.547 283.097 260.545 282.918L260.544 282.873C260.542 282.695 260.395 282.552 260.216 282.555Z" fill="#0E121A"/>
<path d="M277.598 282.312L264.418 282.496C264.239 282.498 264.096 282.645 264.099 282.824L264.1 282.869C264.102 283.047 264.249 283.19 264.427 283.187L277.608 283.003C277.786 283.001 277.929 282.854 277.927 282.675L277.926 282.631C277.923 282.452 277.777 282.309 277.598 282.312Z" fill="#0E121A"/>
<path d="M294.673 282.073L281.493 282.257C281.314 282.26 281.172 282.406 281.174 282.585L281.175 282.63C281.177 282.808 281.324 282.951 281.503 282.949L294.683 282.764C294.862 282.762 295.004 282.615 295.002 282.437L295.001 282.392C294.999 282.213 294.852 282.07 294.673 282.073Z" fill="#0E121A"/>
<path opacity="0.5" d="M304.925 207.174L235.034 208.151L235.108 213.406L304.999 212.429L304.925 207.174Z" fill="#0E121A"/>
<path d="M240.772 206.688L299.149 205.872C299.862 205.862 300.45 206.432 300.46 207.147L300.461 207.237L239.498 208.089L239.497 207.999C239.487 207.286 240.057 206.698 240.772 206.688Z" fill="#6FB2E2"/>
<path d="M445.283 165.239L445.152 165.237C444.623 165.229 444.187 165.652 444.179 166.181L444.136 169.035C444.128 169.564 444.551 169.999 445.08 170.007L445.211 170.009C445.74 170.017 446.176 169.595 446.184 169.065L446.227 166.212C446.235 165.683 445.812 165.247 445.283 165.239Z" fill="#CCCED1"/>
<path d="M451.251 201.241L440.589 195.487C434.756 192.338 432.109 185.281 434.433 179.072L439.721 164.943L444.469 166.721L439.181 180.85C437.74 184.699 439.38 189.072 442.998 191.025L453.658 196.779L451.251 201.241Z" fill="#CCCED1"/>
<path d="M477.483 280.117L411.192 279.12C410.198 279.105 409.327 278.457 409.028 277.509L404.974 264.663C399.36 246.876 399.648 227.752 405.793 210.144L410.232 197.425C410.559 196.488 411.449 195.865 412.443 195.88L478.734 196.876C479.728 196.891 480.598 197.539 480.898 198.487L484.952 211.333C490.565 229.12 490.278 248.244 484.132 265.853L479.694 278.571C479.366 279.508 478.476 280.132 477.483 280.117Z" fill="white"/>
<path d="M449.503 162.768C449.456 165.9 446.879 168.403 443.745 168.355C440.611 168.308 438.113 165.728 438.16 162.598C438.207 159.467 440.783 156.965 443.916 157.012C447.048 157.06 449.55 159.64 449.503 162.768Z" fill="#9C9892"/>
<path d="M448.748 162.757C448.707 165.473 446.476 167.642 443.758 167.601C441.041 167.56 438.877 165.325 438.918 162.609C438.958 159.893 441.193 157.729 443.906 157.77C446.619 157.811 448.789 160.044 448.748 162.757Z" fill="#CCCED1"/>
<path d="M488.953 238.66C489.091 229.454 487.759 220.227 484.954 211.333L480.899 198.487C480.6 197.541 479.729 196.891 478.736 196.876L412.444 195.88C411.451 195.865 410.561 196.487 410.234 197.425L405.795 210.144C402.722 218.949 401.115 228.132 400.977 237.338L403.618 237.378C405.812 237.41 407.805 238.659 408.788 240.62L413.708 250.409C418.721 260.385 428.866 266.747 440.03 266.915L449.033 267.05C460.197 267.218 470.527 261.165 475.838 251.344L481.049 241.707C482.093 239.778 484.123 238.589 486.315 238.622L488.956 238.662L488.953 238.66Z" fill="#0E121A"/>
<path d="M442.864 252.449L442.86 252.693L442.867 252.693C442.994 252.507 443.173 252.416 443.405 252.419C443.508 252.421 443.601 252.444 443.683 252.488C443.765 252.532 443.824 252.604 443.855 252.708C443.911 252.619 443.985 252.551 444.077 252.504C444.169 252.455 444.269 252.434 444.377 252.435C444.46 252.437 444.536 252.446 444.602 252.465C444.67 252.485 444.726 252.514 444.773 252.552C444.821 252.591 444.856 252.642 444.884 252.703C444.909 252.765 444.921 252.838 444.92 252.923L444.902 254.135L444.63 254.131L444.646 253.046C444.647 252.995 444.643 252.947 444.635 252.902C444.628 252.857 444.612 252.819 444.589 252.785C444.566 252.752 444.533 252.725 444.492 252.706C444.451 252.685 444.396 252.676 444.332 252.675C444.198 252.673 444.091 252.71 444.013 252.785C443.936 252.86 443.896 252.962 443.894 253.09L443.879 254.119L443.607 254.115L443.623 253.031C443.624 252.978 443.62 252.928 443.611 252.883C443.601 252.838 443.585 252.8 443.563 252.766C443.54 252.733 443.509 252.708 443.469 252.689C443.43 252.67 443.38 252.661 443.317 252.66C443.237 252.659 443.171 252.674 443.112 252.705C443.056 252.736 443.009 252.773 442.973 252.817C442.938 252.862 442.91 252.908 442.895 252.955C442.877 253.003 442.87 253.043 442.87 253.074L442.854 254.104L442.582 254.1L442.607 252.445L442.864 252.449Z" fill="white"/>
<path d="M445.261 252.974C445.297 252.869 445.348 252.778 445.419 252.702C445.488 252.625 445.574 252.565 445.674 252.521C445.774 252.478 445.891 252.457 446.02 252.458C446.153 252.46 446.268 252.484 446.365 252.532C446.464 252.578 446.546 252.641 446.615 252.719C446.682 252.798 446.732 252.89 446.765 252.997C446.798 253.104 446.813 253.217 446.811 253.338C446.809 253.459 446.791 253.573 446.755 253.677C446.718 253.781 446.665 253.871 446.596 253.948C446.527 254.025 446.442 254.085 446.342 254.127C446.241 254.168 446.125 254.19 445.994 254.188C445.863 254.186 445.749 254.163 445.65 254.116C445.551 254.072 445.468 254.009 445.401 253.93C445.334 253.851 445.284 253.759 445.251 253.654C445.217 253.549 445.203 253.436 445.204 253.314C445.206 253.191 445.225 253.078 445.261 252.974ZM445.529 253.585C445.554 253.664 445.59 253.729 445.637 253.783C445.683 253.837 445.737 253.877 445.799 253.905C445.862 253.934 445.928 253.948 445.999 253.949C446.071 253.95 446.137 253.938 446.2 253.911C446.264 253.883 446.319 253.844 446.366 253.794C446.414 253.741 446.451 253.677 446.48 253.6C446.508 253.522 446.523 253.433 446.524 253.333C446.526 253.234 446.514 253.144 446.488 253.066C446.463 252.988 446.428 252.921 446.38 252.867C446.335 252.813 446.281 252.771 446.218 252.743C446.155 252.714 446.089 252.7 446.018 252.699C445.947 252.698 445.88 252.71 445.817 252.737C445.753 252.765 445.698 252.804 445.651 252.856C445.604 252.908 445.564 252.974 445.537 253.052C445.509 253.129 445.494 253.218 445.493 253.318C445.491 253.417 445.503 253.507 445.529 253.585Z" fill="white"/>
<path d="M447.402 251.887L447.389 252.741L447.396 252.741C447.442 252.651 447.512 252.584 447.609 252.544C447.706 252.504 447.812 252.484 447.927 252.485C448.055 252.487 448.165 252.512 448.261 252.56C448.355 252.608 448.433 252.674 448.495 252.754C448.557 252.835 448.603 252.928 448.633 253.033C448.663 253.138 448.678 253.25 448.676 253.367C448.675 253.485 448.658 253.596 448.625 253.7C448.592 253.804 448.544 253.894 448.48 253.971C448.416 254.048 448.335 254.109 448.24 254.152C448.145 254.195 448.034 254.217 447.907 254.215C447.868 254.214 447.821 254.209 447.772 254.2C447.722 254.191 447.673 254.177 447.623 254.156C447.574 254.135 447.528 254.11 447.485 254.076C447.442 254.042 447.405 254 447.376 253.952L447.369 253.951L447.366 254.172L447.094 254.168L447.128 251.883L447.402 251.887ZM448.362 253.119C448.343 253.046 448.312 252.979 448.272 252.92C448.231 252.862 448.179 252.816 448.113 252.78C448.049 252.744 447.973 252.727 447.885 252.725C447.794 252.724 447.716 252.741 447.65 252.777C447.585 252.812 447.533 252.859 447.491 252.917C447.449 252.974 447.419 253.042 447.4 253.116C447.381 253.19 447.371 253.267 447.37 253.343C447.369 253.424 447.378 253.502 447.395 253.579C447.413 253.655 447.442 253.722 447.483 253.781C447.523 253.839 447.577 253.887 447.642 253.922C447.707 253.958 447.787 253.978 447.881 253.979C447.976 253.98 448.054 253.963 448.117 253.928C448.181 253.892 448.231 253.845 448.272 253.786C448.311 253.727 448.34 253.659 448.358 253.583C448.376 253.507 448.385 253.428 448.387 253.346C448.388 253.27 448.379 253.194 448.36 253.121L448.362 253.119Z" fill="white"/>
<path d="M448.997 252.244L449.002 251.911L449.274 251.915L449.269 252.248L448.997 252.244ZM449.264 252.545L449.239 254.2L448.968 254.196L448.992 252.541L449.264 252.545Z" fill="white"/>
<path d="M449.952 251.925L449.918 254.21L449.646 254.206L449.68 251.921L449.952 251.925Z" fill="white"/>
<path d="M450.353 252.265L450.358 251.932L450.63 251.936L450.625 252.269L450.353 252.265ZM450.621 252.566L450.596 254.22L450.324 254.216L450.349 252.562L450.621 252.566Z" fill="white"/>
<path d="M451.718 252.582L451.715 252.823L451.385 252.818L451.369 253.844C451.369 253.876 451.372 253.902 451.376 253.92C451.381 253.94 451.391 253.955 451.406 253.966C451.42 253.976 451.44 253.984 451.468 253.988C451.495 253.992 451.53 253.994 451.573 253.995L451.697 253.997L451.693 254.237L451.486 254.234C451.417 254.233 451.355 254.227 451.306 254.216C451.256 254.206 451.215 254.188 451.185 254.161C451.154 254.136 451.132 254.099 451.119 254.051C451.105 254.004 451.098 253.941 451.099 253.865L451.114 252.812L450.833 252.808L450.836 252.567L451.118 252.572L451.126 252.076L451.397 252.08L451.39 252.576L451.72 252.581L451.718 252.582Z" fill="white"/>
<path d="M453.134 254.153C453.008 254.245 452.852 254.289 452.664 254.286C452.532 254.284 452.418 254.261 452.322 254.217C452.225 254.172 452.145 254.111 452.08 254.034C452.014 253.957 451.966 253.863 451.934 253.756C451.903 253.65 451.886 253.533 451.883 253.407C451.885 253.281 451.907 253.167 451.947 253.063C451.986 252.959 452.042 252.869 452.111 252.794C452.181 252.719 452.264 252.66 452.361 252.618C452.456 252.577 452.561 252.557 452.674 252.558C452.821 252.561 452.942 252.592 453.039 252.655C453.136 252.718 453.211 252.795 453.269 252.891C453.326 252.986 453.366 253.088 453.386 253.199C453.407 253.311 453.414 253.417 453.407 253.516L452.169 253.498C452.166 253.571 452.173 253.639 452.191 253.704C452.21 253.769 452.239 253.827 452.281 253.878C452.323 253.928 452.377 253.969 452.442 253.999C452.507 254.03 452.585 254.046 452.675 254.048C452.789 254.049 452.884 254.024 452.959 253.972C453.033 253.92 453.084 253.84 453.109 253.731L453.378 253.735C453.338 253.92 453.257 254.058 453.131 254.151L453.134 254.153ZM453.085 253.09C453.061 253.032 453.029 252.982 452.988 252.94C452.947 252.898 452.898 252.864 452.842 252.838C452.786 252.812 452.723 252.8 452.655 252.799C452.586 252.798 452.521 252.808 452.464 252.832C452.407 252.856 452.359 252.889 452.317 252.931C452.276 252.974 452.242 253.023 452.218 253.079C452.194 253.135 452.178 253.194 452.174 253.259L453.124 253.273C453.12 253.209 453.109 253.149 453.085 253.09ZM452.767 251.789L452.452 252.303L452.656 252.306L453.115 251.794L452.767 251.789Z" fill="white"/>
<path d="M453.861 253.9C453.885 253.941 453.92 253.975 453.961 254.001C454.002 254.026 454.048 254.043 454.101 254.056C454.154 254.067 454.207 254.074 454.261 254.075C454.305 254.075 454.349 254.073 454.396 254.067C454.442 254.061 454.486 254.05 454.526 254.034C454.566 254.018 454.598 253.994 454.625 253.961C454.65 253.928 454.664 253.887 454.665 253.835C454.666 253.766 454.64 253.711 454.588 253.675C454.535 253.638 454.469 253.607 454.388 253.584C454.307 253.561 454.221 253.539 454.129 253.519C454.035 253.499 453.949 253.473 453.87 253.439C453.791 253.404 453.725 253.357 453.671 253.296C453.619 253.236 453.594 253.153 453.595 253.047C453.597 252.964 453.616 252.893 453.655 252.834C453.692 252.774 453.741 252.727 453.801 252.69C453.86 252.654 453.927 252.627 454.002 252.61C454.075 252.593 454.148 252.586 454.221 252.587C454.315 252.588 454.401 252.598 454.479 252.614C454.558 252.631 454.628 252.659 454.687 252.7C454.748 252.74 454.795 252.794 454.83 252.861C454.866 252.93 454.886 253.013 454.891 253.112L454.619 253.108C454.615 253.055 454.602 253.01 454.58 252.975C454.557 252.94 454.528 252.911 454.492 252.889C454.455 252.867 454.416 252.852 454.373 252.841C454.33 252.83 454.285 252.825 454.24 252.824C454.201 252.823 454.159 252.826 454.118 252.832C454.076 252.838 454.038 252.849 454.003 252.864C453.968 252.88 453.941 252.901 453.919 252.927C453.897 252.953 453.886 252.988 453.886 253.031C453.885 253.077 453.901 253.117 453.934 253.148C453.966 253.18 454.008 253.205 454.059 253.226C454.11 253.247 454.167 253.266 454.23 253.28C454.295 253.294 454.358 253.31 454.422 253.326C454.49 253.342 454.556 253.361 454.622 253.384C454.686 253.406 454.744 253.435 454.793 253.471C454.842 253.506 454.883 253.552 454.912 253.605C454.943 253.659 454.957 253.725 454.955 253.805C454.954 253.904 454.931 253.989 454.889 254.053C454.846 254.118 454.791 254.171 454.724 254.211C454.655 254.25 454.58 254.277 454.495 254.292C454.411 254.308 454.328 254.313 454.243 254.312C454.152 254.31 454.064 254.299 453.981 254.28C453.899 254.258 453.825 254.226 453.762 254.182C453.698 254.138 453.649 254.079 453.611 254.007C453.574 253.935 453.553 253.847 453.55 253.746L453.822 253.75C453.823 253.81 453.837 253.861 453.861 253.903L453.861 253.9Z" fill="white"/>
<path d="M426.927 247.422L426.204 247.411L426.849 246.58L427.706 246.592L428.325 247.443L427.602 247.432L427.271 246.974L426.926 247.422L426.927 247.422ZM426.782 247.736L427.742 247.751L427.698 250.68L426.738 250.666L426.782 247.736Z" fill="#6FB2E2"/>
<path d="M429.184 246.671L428.224 246.657L428.164 250.687L429.124 250.702L429.184 246.671Z" fill="#6FB2E2"/>
<path d="M430.356 249.488C430.368 249.89 430.595 250.158 431.001 250.165C431.231 250.168 431.458 250.064 431.553 249.849L432.451 249.863C432.267 250.538 431.634 250.823 430.979 250.813C430.026 250.798 429.385 250.213 429.399 249.232C429.413 248.335 430.139 247.702 431.003 247.715C432.052 247.731 432.566 248.53 432.506 249.522L430.354 249.49M431.556 248.971C431.544 248.642 431.316 248.368 430.995 248.363C430.656 248.358 430.427 248.597 430.364 248.953L431.554 248.97L431.556 248.971Z" fill="#6FB2E2"/>
<path d="M434.817 250.786L434.439 250.78L434.444 250.468L434.436 250.468C434.308 250.72 434.013 250.827 433.696 250.822C432.988 250.811 432.645 250.244 432.654 249.596C432.664 248.947 433.019 248.404 433.724 248.414C433.958 248.418 434.296 248.512 434.461 248.785L434.469 248.785L434.487 247.602L434.865 247.607L434.817 250.786ZM433.754 250.49C434.261 250.497 434.463 250.064 434.47 249.633C434.477 249.179 434.277 248.758 433.758 248.75C433.243 248.742 433.062 249.179 433.055 249.63C433.049 250.061 433.266 250.482 433.754 250.49Z" fill="#6FB2E2"/>
<path d="M437.151 250.091C437.041 250.597 436.672 250.868 436.156 250.861C435.422 250.85 435.081 250.337 435.07 249.634C435.081 248.944 435.543 248.443 436.171 248.453C436.985 248.465 437.222 249.23 437.193 249.787L435.47 249.761C435.45 250.162 435.672 250.52 436.175 250.528C436.486 250.532 436.706 250.383 436.777 250.087L437.151 250.091ZM436.796 249.444C436.783 249.084 436.518 248.791 436.143 248.786C435.747 248.78 435.507 249.073 435.475 249.424L436.796 249.444Z" fill="#6FB2E2"/>
<path d="M437.483 246.796L440.452 246.84L440.44 247.681L438.52 247.652L438.507 248.476L440.167 248.501L440.155 249.314L438.495 249.289L438.472 250.841L437.422 250.825L437.483 246.796Z" fill="#6FB2E2"/>
<path d="M440.627 247.943L441.558 247.957L441.551 248.471L441.562 248.471C441.709 248.102 442.039 247.907 442.453 247.914C442.526 247.915 442.604 247.923 442.678 247.94L442.665 248.814C442.541 248.777 442.429 248.754 442.298 248.752C441.825 248.745 441.57 249.07 441.564 249.436L441.543 250.887L440.584 250.872L440.627 247.943Z" fill="#6FB2E2"/>
<path d="M442.663 248.877C442.685 248.494 442.869 248.248 443.13 248.098C443.393 247.956 443.732 247.905 444.065 247.91C444.76 247.92 445.429 248.083 445.417 248.913L445.397 250.195C445.394 250.444 445.39 250.714 445.501 250.948L444.534 250.933C444.502 250.842 444.492 250.752 444.482 250.656C444.229 250.912 443.861 251.006 443.511 251.001C442.952 250.993 442.517 250.704 442.526 250.099C442.541 249.146 443.578 249.234 444.246 249.11C444.411 249.079 444.501 249.024 444.504 248.843C444.507 248.623 444.245 248.534 444.046 248.531C443.781 248.527 443.61 248.644 443.561 248.891L442.663 248.877ZM443.882 250.415C444.338 250.421 444.496 250.165 444.482 249.559C444.344 249.642 444.097 249.657 443.886 249.708C443.671 249.756 443.489 249.843 443.485 250.075C443.482 250.312 443.666 250.411 443.882 250.415Z" fill="#6FB2E2"/>
<path d="M445.78 248.02L446.712 248.034L446.706 248.435L446.719 248.436C446.898 248.138 447.295 247.958 447.645 247.964C448.622 247.978 448.691 248.691 448.684 249.114L448.656 250.994L447.698 250.979L447.719 249.563C447.725 249.162 447.776 248.757 447.25 248.749C446.889 248.743 446.727 249.044 446.722 249.366L446.698 250.964L445.738 250.95L445.78 248.02Z" fill="#6FB2E2"/>
<path d="M450.947 249.171C450.944 248.922 450.726 248.744 450.484 248.741C449.949 248.733 449.857 249.189 449.851 249.595C449.845 249.973 450.004 250.366 450.41 250.372C450.742 250.377 450.917 250.187 450.965 249.879L451.896 249.893C451.8 250.676 451.185 251.118 450.405 251.106C449.525 251.093 448.879 250.48 448.893 249.583C448.907 248.651 449.51 247.993 450.452 248.007C451.18 248.018 451.824 248.411 451.881 249.186L450.949 249.172L450.947 249.171Z" fill="#6FB2E2"/>
<path d="M452.912 249.827C452.923 250.229 453.151 250.497 453.557 250.504C453.788 250.507 454.015 250.403 454.109 250.188L455.008 250.202C454.822 250.877 454.191 251.162 453.536 251.152C452.583 251.137 451.941 250.552 451.956 249.571C451.969 248.674 452.697 248.041 453.559 248.054C454.611 248.07 455.123 248.869 455.063 249.861L452.912 249.827ZM454.113 249.309C454.101 248.981 453.873 248.707 453.551 248.702C453.213 248.697 452.984 248.936 452.922 249.292L454.113 249.309Z" fill="#6FB2E2"/>
<path d="M461.797 247.161L457.859 247.102C456.951 247.088 456.203 247.814 456.189 248.722L456.13 252.66C456.117 253.568 456.842 254.316 457.75 254.33L461.688 254.389C462.597 254.402 463.344 253.677 463.358 252.769L463.417 248.831C463.431 247.922 462.705 247.175 461.797 247.161Z" fill="#6FB2E2"/>
<path d="M460.242 248.987C460.066 249.354 459.686 249.539 459.397 249.4C459.107 249.262 459.017 248.851 459.193 248.482C459.37 248.115 459.749 247.93 460.039 248.068C460.328 248.207 460.418 248.62 460.242 248.987Z" fill="white"/>
<path d="M460.682 251.456C460.074 250.583 459.308 251.013 458.785 251.698C458.374 252.238 458.023 252.708 457.592 253.281C457.492 253.413 457.566 253.463 457.705 253.382C457.844 253.301 457.976 253.184 458.108 253.008C458.286 252.772 458.733 252.183 459.012 251.811C459.263 251.476 459.628 251.517 459.875 251.869C460.161 252.278 460.515 252.789 460.828 253.233C461.046 253.54 461.716 253.504 462.01 253.488C462.063 253.486 462.079 253.446 462.054 253.412C461.874 253.158 461.247 252.268 460.682 251.456Z" fill="white"/>
<path d="M461.545 249.36C460.665 249.786 460.395 249.741 459.659 249.839C458.923 249.937 458.368 250.098 457.746 250.742C457.591 250.902 457.521 251.046 457.762 250.928C458.642 250.502 458.912 250.548 459.648 250.449C460.384 250.351 460.939 250.19 461.56 249.547C461.715 249.387 461.786 249.242 461.545 249.36Z" fill="white"/>
<path d="M476.026 199.723L415.064 198.806L412.31 204.075C407.822 212.66 405.389 222.17 405.2 231.855L405.179 232.956C405.15 234.409 406.308 235.609 407.762 235.63L481.824 236.744C483.264 236.765 484.453 235.62 484.486 234.18L484.51 233.124C484.726 223.39 482.667 213.742 478.5 204.944L476.028 199.724L476.026 199.723Z" fill="#3A434D"/>
<path d="M471.331 269.692L417.316 268.88C416.959 268.875 416.665 269.16 416.66 269.517L416.658 269.607C416.653 269.964 416.938 270.258 417.295 270.263L471.31 271.075C471.668 271.08 471.961 270.795 471.967 270.438L471.968 270.348C471.973 269.991 471.688 269.697 471.331 269.692Z" fill="#CCCED1"/>
<path d="M433.637 272.281L420.457 272.083C420.278 272.081 420.131 272.223 420.129 272.402L420.128 272.447C420.125 272.625 420.268 272.772 420.447 272.775L433.627 272.973C433.805 272.976 433.952 272.833 433.955 272.654L433.955 272.61C433.958 272.431 433.816 272.284 433.637 272.281Z" fill="#0E121A"/>
<path d="M451.019 272.543L437.839 272.345C437.66 272.342 437.513 272.484 437.51 272.663L437.51 272.708C437.507 272.886 437.65 273.033 437.828 273.036L451.008 273.234C451.187 273.237 451.334 273.094 451.336 272.916L451.337 272.871C451.34 272.692 451.197 272.545 451.019 272.543Z" fill="#0E121A"/>
<path d="M468.094 272.799L454.914 272.601C454.735 272.599 454.588 272.741 454.585 272.92L454.585 272.965C454.582 273.143 454.725 273.29 454.903 273.293L468.083 273.491C468.262 273.493 468.409 273.351 468.411 273.172L468.412 273.128C468.415 272.949 468.272 272.802 468.094 272.799Z" fill="#0E121A"/>
<path d="M433.614 273.842L420.433 273.644C420.255 273.641 420.108 273.784 420.105 273.962L420.105 274.007C420.102 274.185 420.245 274.332 420.423 274.335L433.603 274.533C433.782 274.536 433.929 274.393 433.931 274.215L433.932 274.17C433.935 273.991 433.792 273.844 433.614 273.842Z" fill="#0E121A"/>
<path d="M450.995 274.103L437.815 273.905C437.637 273.902 437.49 274.045 437.487 274.223L437.486 274.268C437.484 274.447 437.626 274.594 437.805 274.596L450.985 274.794C451.163 274.797 451.31 274.655 451.313 274.476L451.314 274.431C451.316 274.253 451.174 274.106 450.995 274.103Z" fill="#0E121A"/>
<path d="M468.07 274.36L454.89 274.162C454.712 274.159 454.565 274.301 454.562 274.48L454.561 274.525C454.559 274.703 454.701 274.85 454.88 274.853L468.06 275.051C468.238 275.054 468.385 274.911 468.388 274.733L468.389 274.688C468.391 274.509 468.249 274.362 468.07 274.36Z" fill="#0E121A"/>
<path opacity="0.5" d="M480.49 199.79L410.6 198.739L410.521 203.994L480.411 205.044L480.49 199.79Z" fill="#0E121A"/>
<path d="M416.378 197.443L474.754 198.32C475.467 198.331 476.038 198.919 476.028 199.633L476.026 199.723L415.064 198.806L415.065 198.717C415.076 198.004 415.663 197.432 416.378 197.443Z" fill="#6FB2E2"/>
<g clip-path="url(#clip1_105_3121)">
<path d="M35 32.8013H123V103.199H35V32.8013Z" fill="white"/>
<path d="M118.601 24H39.3991C36.9695 24 35 25.9695 35 28.3991V32.8012C35 35.2308 36.9695 37.2003 39.3991 37.2003H118.601C121.03 37.2003 123 35.2308 123 32.8012V28.3991C123 25.9695 121.03 24 118.601 24Z" fill="#5291CE"/>
<path d="M118.601 98.7997H39.3991C36.9695 98.7997 35 100.769 35 103.199V107.601C35 110.03 36.9695 112 39.3991 112H118.601C121.03 112 123 110.03 123 107.601V103.199C123 100.769 121.03 98.7997 118.601 98.7997Z" fill="#5291CE"/>
<path d="M67.3395 85.9595C58.7432 85.9595 50.5318 80.2938 50.5318 68.5743C50.5318 58.4444 56.4303 50.3292 67.3395 50.3292C71.5151 50.3292 74.5854 51.1954 77.038 52.2975L74.5854 58.5065C72.4881 57.3284 70.1268 56.7004 67.7214 56.681C62.5338 56.681 58.3085 60.096 58.3085 68.2515C58.3085 76.0313 63.3999 79.6294 68.2988 79.6294C70.6765 79.6332 73.0123 79.0043 75.0666 77.8071L77.0845 83.6187C74.0618 85.1445 70.7255 85.9459 67.3395 85.9595ZM95.2707 85.1586V58.4972C93.2062 60.127 89.9402 61.7134 87.6833 62.7193L85.3797 57.5285C88.9313 56.0384 93.2062 53.7845 96.5559 51.2388H102.454V85.1586H95.2707Z" fill="#25303B"/>
</g>
</g>
<rect x="0.5" y="0.5" width="538.2" height="336" rx="19.5" stroke="#64B5F6"/>
<defs>
<clipPath id="clip0_105_3121">
<rect width="539.2" height="337" rx="20" fill="white"/>
</clipPath>
<clipPath id="clip1_105_3121">
<rect width="88" height="88" fill="white" transform="translate(35 24)"/>
</clipPath>
</defs>
</svg>
