<svg width="571" height="357" viewBox="0 0 571 357" fill="none" xmlns="http://www.w3.org/2000/svg">
<g clip-path="url(#clip0_105_1465)">
<path d="M551 0C562.046 0 571 8.95431 571 20V337C571 348.046 562.046 357 551 357H20C8.95428 357 0 348.046 0 337V20C0 8.9543 8.95428 0 20 0L551 0Z" fill="url(#paint0_linear_105_1465)"/>
<path d="M550.683 -1.52588e-05C556.329 0.010025 561.742 2.23694 565.736 6.19202C569.732 10.1465 571.982 15.5095 572 21.1065V244L-1 244V21.1065C-0.985168 15.5136 1.26349 10.1526 5.25165 6.19818C9.2406 2.24236 14.6432 0.0156097 20.2854 -1.52588e-05L550.683 -1.52588e-05Z" fill="#F5B0B4"/>
<path d="M111.418 169.593C119.319 173.212 130.7 174.648 139.329 173.061C150.088 171.088 155.001 164.124 153.357 155.128C151.829 146.824 145.458 144.466 130.573 142.257C114.545 140.122 104.519 132.669 101.713 117.398C98.2881 98.7331 108.866 84.5264 127.502 81.114C136.381 79.4817 146.437 80.0386 152.781 82.9524L155.807 99.4463C148.905 95.6348 138.728 94.4137 130.483 95.9271C120.105 97.8295 115.351 103.63 116.878 111.949C118.378 120.121 124.557 123.507 136.913 125.323C155.265 128.159 165.671 134.834 168.625 150.927C172.245 170.684 161.447 184.36 141.573 188.008C132.446 189.685 122.637 189.084 114.518 186.351L111.448 169.591L111.418 169.593Z" fill="#E72F69"/>
<path d="M178.507 142.912C174.011 118.378 182.437 100.913 202.941 97.1611C208.688 96.1053 214.114 96.096 218.673 97.6492L221.404 112.508C216.256 110.488 211.301 110.275 206.671 111.122C194.791 113.303 190.265 122.441 193.217 138.519C196.275 155.144 204.019 162.174 216.396 159.904C220.775 159.102 224.698 157.26 228.868 153.958L231.286 167.172C227.44 170.84 222.032 173.098 215.288 174.329C195.663 177.935 182.882 166.752 178.505 142.897L178.507 142.912Z" fill="#E72F69"/>
<path d="M233.965 132.457C229.664 109.011 238.44 90.6474 257.578 87.1314C275.082 83.9259 289.481 95.5027 293.933 119.771C298.311 143.626 289.502 161.15 270.629 164.623C252.873 167.887 238.342 156.312 233.964 132.471L233.965 132.457ZM279.412 122.998C276.489 107.052 269.212 99.0948 259.585 100.86C249.957 102.626 245.649 112.294 248.707 128.919C251.554 144.454 258.802 152.983 268.68 151.173C278.559 149.363 282.306 138.815 279.412 122.998Z" fill="#E72F69"/>
<path d="M295.242 48.6817L309.617 46.0409L329.068 152.075L314.692 154.717L295.242 48.6817Z" fill="#E72F69"/>
<path d="M380.578 32.6906L407.33 27.7802C428.218 23.9531 441.817 33.2662 445.794 54.9908C448.406 69.2338 445 80.943 436.308 88.5146L463.969 127.329L446.213 130.593L422.397 95.8895C420.795 96.3332 419.075 96.7917 417.325 97.1173L408.566 98.7208L415.45 136.246L400.076 139.065L380.565 32.7065L380.578 32.6906ZM398.759 45.1006L405.79 83.4627L413.169 82.1128C426.796 79.6062 432.487 72.5972 429.92 58.6334C427.517 45.5224 420.381 41.1392 407.122 43.5721L398.744 45.115L398.759 45.1006Z" fill="#E72F69"/>
<path d="M77.5511 95.1482L95.4151 192.997C96.8981 201.036 104.714 206.45 112.771 204.995L476.219 138.674C484.276 137.192 489.672 129.374 488.219 121.321L470.355 23.4722C468.87 15.4166 461.055 10.0197 453 11.4735L89.5505 77.7969C81.4942 79.2777 76.0971 87.096 77.5511 95.1482ZM113.912 211.3C102.361 213.395 91.2311 205.708 89.1236 194.153L71.2608 96.3086C69.1534 84.7537 76.8545 73.6249 88.4079 71.5203L451.843 5.18285C463.395 3.07497 474.509 10.7763 476.646 22.3297L494.496 120.178C496.587 131.73 488.901 142.844 477.349 144.966L113.913 211.286L113.912 211.3Z" fill="#E72F69"/>
<path d="M347.263 40.3769L355.615 78.2952L367.847 76.0711L362.079 37.6766L347.263 40.3769Z" fill="#E72F69"/>
<path d="M9.8448 26.2449L17.9854 24.6001L33.878 58.7425L35.873 20.9956L43.4448 19.4699L57.0503 68.3948L50.5082 69.713L41.1447 35.2206L38.811 72.0686L33.6516 73.1072L17.5824 38.5967L22.3634 75.3891L15.9703 76.6813L9.8448 26.2449Z" fill="#F9CDCF"/>
<path d="M62.4553 15.6461L70.0271 14.1203L92.0848 61.3379L84.9695 62.7764L79.6285 50.9042L66.7523 53.5003L66.275 66.5418L59.8808 67.8298L62.4411 15.6454L62.4553 15.6461ZM76.6187 44.1779L67.8209 24.4307L66.992 46.1175L76.6187 44.1779Z" fill="#F9CDCF"/>
<path d="M86.8497 10.6633L93.1827 9.38735L103.205 59.0972L96.8695 60.3709L86.8497 10.6633Z" fill="#F9CDCF"/>
<path d="M107.953 47.2397C111.323 49.0272 116.073 49.7838 119.63 49.0588C124.068 48.1707 125.96 44.83 125.084 40.4933C124.27 36.4825 121.577 35.3093 115.343 34.1718C108.633 33.0665 104.307 29.4128 102.809 22.0335C100.985 13.0083 105.091 6.22382 112.763 4.68161C116.423 3.94089 120.614 4.27209 123.323 5.70955L124.924 13.6757C121.965 11.798 117.714 11.1579 114.305 11.8401C110.028 12.7 108.18 15.4674 108.981 19.4947C109.779 23.4477 112.414 25.1046 117.592 26.0526C125.285 27.5104 129.761 30.7971 131.316 38.5569C133.242 48.1111 129.034 54.6465 120.847 56.2906C117.086 57.0475 112.996 56.6996 109.556 55.3385L107.923 47.2412L107.953 47.2397Z" fill="#F9CDCF"/>
<path d="M133.646 27.8753C130.502 12.2652 134.615 0.202792 145.947 -2.07986C156.926 -4.28937 164.63 4.97504 167.507 19.2041C170.502 34.0783 166.802 47.0955 155.207 49.4384C144.49 51.6021 136.594 42.4991 133.646 27.8753ZM160.557 21.4943C158.242 10.0435 153.323 3.9656 146.928 5.25442C140.492 6.55952 138.165 13.9439 140.522 25.5996C142.791 36.8586 147.713 43.4666 154.208 42.1613C160.957 40.7988 162.823 32.7521 160.557 21.4943Z" fill="#F9CDCF"/>
<path d="M169.142 -5.86614L174.917 -7.02341L200.05 23.473L193.158 -10.6994L199.346 -11.9444L209.351 37.7046L203.634 38.8614L178.324 7.71865L185.349 42.5522L179.161 43.7973L169.142 -5.86614Z" fill="#F9CDCF"/>
<path d="M93.0928 226.643L100.547 225.146L115.096 256.408L116.921 221.839L123.858 220.446L136.326 265.256L130.33 266.457L121.748 234.859L119.614 268.607L114.895 269.554L100.169 237.937L104.548 271.629L98.6993 272.814L93.0793 226.628L93.0928 226.643Z" fill="#F9CDCF"/>
<path d="M141.27 216.93L148.21 215.539L168.421 258.776L161.912 260.095L157.013 249.223L145.208 251.595L144.773 263.55L138.925 264.721L141.27 216.93ZM154.254 243.052L146.195 224.966L145.435 244.816L154.254 243.037L154.254 243.052Z" fill="#F9CDCF"/>
<path d="M163.63 212.369L169.439 211.198L178.613 256.73L172.807 257.903L163.63 212.369Z" fill="#F9CDCF"/>
<path d="M182.958 245.875C186.034 247.517 190.404 248.199 193.666 247.546C197.721 246.731 199.467 243.684 198.666 239.702C197.926 236.028 195.454 234.96 189.733 233.908C183.585 232.892 179.624 229.543 178.26 222.797C176.6 214.539 180.355 208.312 187.381 206.903C190.731 206.223 194.567 206.524 197.041 207.843L198.508 215.135C195.801 213.419 191.902 212.821 188.787 213.458C184.864 214.244 183.175 216.792 183.916 220.464C184.644 224.081 187.057 225.607 191.808 226.466C198.853 227.806 202.945 230.815 204.382 237.927C206.147 246.673 202.289 252.65 194.794 254.16C191.355 254.857 187.604 254.541 184.455 253.296L182.958 245.875Z" fill="#F9CDCF"/>
<path d="M206.526 228.132C203.652 213.844 207.41 202.796 217.787 200.693C227.84 198.66 234.896 207.162 237.538 220.184C240.279 233.811 236.889 245.739 226.276 247.874C216.458 249.845 209.226 241.521 206.526 228.132ZM231.189 222.284C229.069 211.788 224.561 206.238 218.708 207.41C212.815 208.596 210.696 215.362 212.845 226.034C214.92 236.351 219.429 242.4 225.381 241.2C231.57 239.954 233.278 232.587 231.187 222.268L231.189 222.284Z" fill="#F9CDCF"/>
<path d="M239.038 197.231L244.331 196.161L267.343 224.088L261.042 192.799L266.7 191.656L275.863 237.131L270.63 238.184L247.441 209.656L253.873 241.55L248.215 242.692L239.054 197.214L239.038 197.231Z" fill="#F9CDCF"/>
<path d="M388.518 214.792L398.571 212.76L418.195 254.912L420.66 208.313L430.008 206.43L446.81 266.818L438.728 268.449L427.16 225.86L424.278 271.353L417.915 272.643L398.068 230.038L403.981 275.46L396.087 277.046L388.501 214.79L388.518 214.792Z" fill="#F9CDCF"/>
<path d="M453.472 201.706L462.819 199.823L490.057 258.105L481.282 259.869L474.686 245.206L458.785 248.409L458.193 264.51L450.3 266.096L453.473 201.677L453.472 201.706ZM470.968 236.919L460.092 212.546L459.063 239.322L470.968 236.919Z" fill="#F9CDCF"/>
<path d="M483.607 195.549L491.426 193.977L503.792 255.341L495.972 256.913L483.607 195.549Z" fill="#F9CDCF"/>
<path d="M509.652 240.704C513.803 242.917 519.686 243.834 524.081 242.959C529.546 241.861 531.909 237.742 530.825 232.376C529.832 227.423 526.492 225.973 518.785 224.574C510.492 223.206 505.146 218.701 503.323 209.589C501.083 198.447 506.143 190.073 515.623 188.16C520.136 187.256 525.311 187.644 528.651 189.418L530.639 199.251C526.987 196.933 521.737 196.133 517.534 196.979C512.257 198.046 509.97 201.462 510.963 206.429C511.943 211.31 515.208 213.361 521.593 214.528C531.093 216.335 536.614 220.384 538.541 229.967C540.912 241.754 535.722 249.821 525.61 251.867C520.964 252.801 515.92 252.382 511.669 250.699L509.652 240.704Z" fill="#F9CDCF"/>
<path d="M541.443 216.789C537.558 197.519 542.634 182.631 556.628 179.8C570.179 177.072 579.697 188.511 583.238 206.074C586.946 224.448 582.371 240.511 568.054 243.401C554.827 246.07 545.074 234.838 541.443 216.789ZM574.672 208.912C571.827 194.773 565.742 187.284 557.849 188.87C549.896 190.471 547.03 199.591 549.935 213.98C552.739 227.886 558.822 236.05 566.834 234.434C575.166 232.758 577.473 222.815 574.672 208.912Z" fill="#F9CDCF"/>
<path d="M4.29632 -17.5283L24.8287 -21.6645L25.7939 -16.856L11.1964 -13.9218L13.0661 -4.63273L25.148 -7.06465L26.0973 -2.34475L14.0011 0.0864938L16.0006 9.99039L30.9934 6.96755L31.9572 11.7721L11.0414 15.9821L4.29632 -17.5283ZM12.5551 -21.3203L15.5119 -28.7646L20.8182 -29.8317L16.8469 -22.1809L12.5551 -21.3203Z" fill="#F9CDCF"/>
<path d="M33.8817 -5.49731C31.7188 -16.21 36.7037 -24.6134 47.491 -26.7932C50.9159 -27.4898 54.3262 -27.437 56.7675 -26.8092L57.8663 -21.3406C55.056 -22.3505 51.6895 -22.4035 48.6457 -21.7962C41.561 -20.3734 38.6307 -15.2509 40.2016 -7.46023C41.8479 0.710311 46.7492 4.12861 53.9349 2.67483C56.8757 2.08242 59.446 0.915354 61.9422 -1.11641L62.9805 4.04346C61.2315 5.54546 57.7795 7.07907 54.0188 7.83598C43.4649 9.95651 36.0027 4.98408 33.8817 -5.49731Z" fill="#F9CDCF"/>
<path d="M63.117 -11.4368C60.9957 -21.9762 65.4085 -30.4371 76.0043 -32.587C86.2637 -34.6624 92.9339 -28.6894 94.8781 -19.0905C96.908 -9.05201 92.8217 0.0561052 81.9732 2.23486C71.9504 4.25165 65.1034 -1.57442 63.1151 -11.4528L63.117 -11.4368ZM88.3373 -17.1687C86.7806 -24.9 82.5254 -28.8038 76.5583 -27.6027C70.5321 -26.3872 68.0106 -21.2082 69.5959 -13.3455C71.1242 -5.7457 75.3512 -1.45911 81.422 -2.68934C87.7258 -3.96524 89.863 -9.57074 88.3373 -17.1687Z" fill="#F9CDCF"/>
<path d="M97.6619 -36.3401L103.585 -37.541L109.366 -8.82116L122.477 -11.4597L123.44 -6.65388L104.406 -2.81442L97.6465 -36.3258L97.6619 -36.3401Z" fill="#F9CDCF"/>
<path d="M121.304 -41.1178L141.839 -45.2524L142.802 -40.4466L128.208 -37.5111L130.074 -28.2228L142.171 -30.654L143.12 -25.9352L131.024 -23.504L133.026 -13.5974L148.016 -16.6223L148.979 -11.8165L128.063 -7.6065L121.304 -41.1178Z" fill="#F9CDCF"/>
<path d="M275.906 200.695L294.617 196.932L295.491 201.312L282.191 203.995L283.895 212.46L294.918 210.237L295.778 214.529L284.756 216.752L286.579 225.793L300.233 223.034L301.107 227.413L282.043 231.253L275.892 200.713L275.906 200.695ZM283.428 197.245L286.121 190.461L290.959 189.484L287.339 196.46L283.428 197.245Z" fill="#F9CDCF"/>
<path d="M302.914 211.646C300.942 201.889 305.487 194.221 315.318 192.246C318.435 191.625 321.552 191.662 323.774 192.234L324.781 197.215C322.222 196.296 319.149 196.239 316.387 196.804C309.933 198.109 307.265 202.774 308.688 209.859C310.186 217.31 314.659 220.42 321.201 219.102C323.878 218.566 326.226 217.504 328.503 215.649L329.451 220.35C327.852 221.721 324.706 223.123 321.282 223.806C311.67 225.746 304.853 221.215 302.928 211.647L302.914 211.646Z" fill="#F9CDCF"/>
<path d="M329.56 206.236C327.63 196.637 331.647 188.911 341.304 186.97C350.666 185.086 356.733 190.517 358.497 199.278C360.336 208.433 356.614 216.732 346.74 218.719C337.61 220.557 331.367 215.246 329.559 206.25L329.56 206.236ZM352.545 201.006C351.122 193.954 347.25 190.4 341.811 191.497C336.329 192.611 334.028 197.331 335.467 204.491C336.86 211.413 340.718 215.319 346.246 214.206C351.991 213.05 353.939 207.928 352.545 201.006Z" fill="#F9CDCF"/>
<path d="M361.042 183.525L366.451 182.444L371.727 208.619L383.679 206.219L384.552 210.598L367.207 214.098L361.058 183.556L361.042 183.525Z" fill="#F9CDCF"/>
<path d="M382.61 179.183L401.322 175.419L402.196 179.798L388.896 182.482L390.599 190.948L401.622 188.724L402.482 193.017L391.46 195.239L393.283 204.28L406.938 201.522L407.811 205.901L388.748 209.741L382.598 179.199L382.61 179.183Z" fill="#F9CDCF"/>
<path d="M208.257 -2.35905L206.61 -10.5026L240.755 -26.393L203.009 -28.3894L201.482 -35.959L250.405 -49.5669L251.724 -43.0264L217.231 -33.6627L254.082 -31.3266L255.12 -26.167L220.61 -10.0983L257.402 -14.8792L258.691 -8.48633L208.271 -2.34474L208.257 -2.35905Z" fill="#F9CDCF"/>
<path d="M310.73 -20.1593L317.402 -21.5085L323.865 10.5915L338.623 7.61202L339.703 12.9761L318.274 17.2904L310.728 -20.1753L310.73 -20.1593Z" fill="#F9CDCF"/>
<path d="M345.03 -3.45499L327.647 -23.5839L335.304 -25.126L347.487 -10.3115L353.044 -28.6995L360.099 -30.1222L351.702 -4.80449L354.682 9.95247L348.01 11.3017L345.03 -3.45499Z" fill="#F9CDCF"/>
<path d="M364.147 -10.8246C361.73 -22.8037 367.346 -32.1932 379.502 -34.6535C383.351 -35.4254 387.205 -35.372 389.941 -34.6854L391.171 -28.5712C388.008 -29.6985 384.215 -29.7506 380.79 -29.0685C372.809 -27.4676 369.509 -21.7286 371.26 -13.0414C373.096 -3.90043 378.617 -0.10037 386.7 -1.73221C390.009 -2.39795 392.902 -3.71218 395.723 -5.98004L396.877 -0.219579C394.911 1.47537 391.017 3.18706 386.785 4.0325C374.906 6.43272 366.504 0.889736 364.133 -10.8389L364.147 -10.8246Z" fill="#F9CDCF"/>
<path d="M396.495 -37.4438L419.617 -42.0977L420.697 -36.7336L404.251 -33.4276L406.339 -23.0516L419.967 -25.7929L421.032 -20.5319L407.408 -17.789L409.648 -6.70577L426.52 -10.1016L427.603 -4.7359L404.056 0.00728613L396.51 -37.4582L396.495 -37.4438ZM405.81 -41.6933L409.165 -50.02L415.132 -51.2208L410.645 -42.6723L405.81 -41.6933Z" fill="#F9CDCF"/>
<path d="M428.286 -43.8482L451.408 -48.5019L452.488 -43.1378L436.056 -39.832L438.148 -29.4544L451.772 -32.1972L452.841 -26.9347L439.213 -24.1934L441.453 -13.1102L458.325 -16.5059L459.409 -11.1402L435.862 -6.39705L428.316 -43.8625L428.286 -43.8482Z" fill="#F9CDCF"/>
<path d="M47.1323 79.8159L48.8816 88.4735L4.31531 97.4555L8.17074 116.608L0.719701 118.107L-4.88483 90.2965L47.1323 79.8159Z" fill="#F9CDCF"/>
<path d="M23.3991 124.816L51.577 101.849L53.5785 111.769L32.8433 127.888L58.2174 134.785L60.0547 143.943L25.1341 133.472L4.64571 137.608L2.89498 128.953L23.3849 124.815L23.3991 124.816Z" fill="#F9CDCF"/>
<path d="M33.259 149.576C49.8845 146.223 62.8188 153.364 65.9896 169.135C66.9986 174.132 66.8603 179.143 65.853 182.72L57.3724 184.426C58.9829 180.291 59.1365 175.35 58.2298 170.912C56.1397 160.565 48.2684 156.357 36.1858 158.803C23.4874 161.368 18.1331 168.595 20.2392 179.09C21.0971 183.38 22.8689 187.129 25.9609 190.756L17.9498 192.371C15.6374 189.831 13.3363 184.808 12.2392 179.31C9.12632 163.892 16.9594 152.866 33.2442 149.589L33.259 149.576Z" fill="#F9CDCF"/>
<path d="M69.5745 191.197L75.6217 221.18L68.1707 222.679L63.8699 201.352L49.4515 204.258L53.0093 221.923L45.6905 223.394L42.1314 205.725L26.7424 208.825L31.1607 230.723L23.7097 232.222L17.558 201.664L69.5751 191.183L69.5745 191.197ZM75.3136 203.23L86.7883 207.444L88.343 215.192L76.5728 209.506L75.3129 203.244L75.3136 203.23Z" fill="#F9CDCF"/>
<path d="M77.8882 232.456L83.9382 262.44L76.4844 263.937L72.188 242.609L57.7668 245.514L61.3258 263.184L54.0058 264.65L50.4495 246.982L35.0605 250.082L39.4788 271.98L32.025 273.477L25.8717 242.922L77.8889 232.441L77.8882 232.456Z" fill="#F9CDCF"/>
<path d="M412.619 165.744L419.368 164.381L425.831 196.481L440.75 193.473L441.831 198.837L420.165 203.21L412.619 165.744Z" fill="#F9CDCF"/>
<path d="M447.257 182.39L429.742 162.291L437.475 160.735L449.762 175.521L455.407 157.118L462.533 155.679L454.003 181.026L456.983 195.783L450.237 197.147L447.257 182.39Z" fill="#F9CDCF"/>
<path d="M466.595 174.977C464.178 162.998 469.868 153.58 482.154 151.103C486.05 150.318 489.931 150.355 492.697 151.042L493.926 157.156C490.736 156.045 486.896 155.991 483.442 156.688C475.375 158.319 472.031 164.059 473.782 172.746C475.618 181.887 481.184 185.672 489.354 184.026C492.705 183.344 495.63 182.031 498.478 179.761L499.635 185.523C497.637 187.217 493.701 188.945 489.424 189.805C477.414 192.22 468.937 186.692 466.565 174.977L466.595 174.977Z" fill="#F9CDCF"/>
<path d="M499.322 148.266L522.693 143.552L523.776 148.918L507.152 152.268L509.241 162.644L523.015 159.873L524.081 165.134L510.309 167.906L512.549 178.989L529.613 175.55L530.694 180.914L506.884 185.717L499.337 148.252L499.322 148.266ZM508.74 144.002L512.137 135.659L518.163 134.444L513.605 143.008L508.726 143.987L508.74 144.002Z" fill="#F9CDCF"/>
<path d="M531.464 141.786L554.835 137.072L555.915 142.437L539.291 145.787L541.383 156.164L555.154 153.392L556.223 158.654L542.448 161.425L544.688 172.508L561.752 169.069L562.836 174.434L539.023 179.236L531.48 141.772L531.464 141.786Z" fill="#F9CDCF"/>
<path d="M207.13 22.0461C205.052 11.7272 206.835 4.24111 212.156 3.17376C213.846 2.83283 215.594 3.19624 216.891 4.00335L217.959 9.26586C216.426 8.06151 214.707 7.698 213.206 7.99352C209.708 8.69047 208.686 13.2644 210.199 20.761C211.786 28.6398 214.6 32.2957 218.142 31.5843C219.597 31.2875 220.8 30.4175 221.886 28.7401L222.893 33.7076C222.131 34.9737 220.515 36.1078 218.666 36.4799C213.462 37.5324 209.188 32.1573 207.158 22.0602L207.13 22.0461Z" fill="#F9CDCF"/>
<path d="M221.557 19.1022C219.512 8.96083 220.997 1.35558 226.215 0.30314C231.271 -0.719725 235.224 5.5239 237.09 14.7678C239.033 24.4398 237.782 32.6752 232.432 33.7427C227.494 34.7365 223.469 28.5966 221.543 19.1021L221.557 19.1022ZM233.933 15.9946C232.435 8.54217 229.899 4.47352 226.958 5.06593C223.991 5.65998 223.175 10.3215 224.701 17.9056C226.185 25.2261 228.72 29.6615 231.72 29.0544C234.835 28.431 235.414 23.3278 233.932 16.0087L233.933 15.9946Z" fill="#F9CDCF"/>
<path d="M236.94 -1.27525L239.866 -1.86751L245.438 25.7786L251.907 24.4749L252.841 29.1048L243.464 31.0023L236.954 -1.27518L236.94 -1.27525Z" fill="#F9CDCF"/>
<path d="M248.595 -3.63365L251.521 -4.22591L257.094 23.4205L263.562 22.1165L264.496 26.7464L255.119 28.6439L248.61 -3.63357L248.595 -3.63365Z" fill="#F9CDCF"/>
<path d="M260.263 -5.97622L270.375 -8.02224L271.309 -3.39239L264.106 -1.94001L265.914 6.99626L271.881 5.79513L272.802 10.3379L266.835 11.5387L268.762 21.0776L276.153 19.5943L277.087 24.2241L266.784 26.2998L260.278 -5.97642L260.263 -5.97622ZM264.359 -8.85104L260.498 -14.6665L263.085 -15.1855L266.477 -9.28024L264.359 -8.85104Z" fill="#F9CDCF"/>
<path d="M275.86 8.15857C273.741 -2.36487 275.625 -9.60243 281.003 -10.6999C282.9 -11.0851 284.767 -10.7064 286.153 -9.82517L287.219 -4.51972C285.497 -5.86899 283.57 -6.32199 281.954 -5.99562C278.632 -5.32814 277.344 -0.798887 278.901 6.91801C280.413 14.4433 283.272 18.6437 286.785 17.9323C287.594 17.769 288.373 17.4299 289.062 16.8548L287.298 8.1246L284.139 8.76253L283.234 4.26405L289.319 3.03393L292.567 19.1291C291.305 20.9838 289.484 22.1922 287.366 22.6211C282.074 23.6884 277.922 18.3299 275.876 8.1442L275.86 8.15857Z" fill="#F9CDCF"/>
<path d="M289.722 -11.92L299.834 -13.9658L300.768 -9.33592L293.565 -7.88381L295.373 1.05246L301.34 -0.148386L302.261 4.39435L296.294 5.59517L298.221 15.1341L305.612 13.6508L306.546 18.2806L296.243 20.356L289.737 -11.9199L289.722 -11.92Z" fill="#F9CDCF"/>
<path d="M266.085 259.225C264.007 248.906 266.259 241.33 272.388 240.101C274.329 239.714 276.328 240.019 277.8 240.798L278.868 246.061C277.144 244.887 275.174 244.58 273.454 244.923C269.428 245.739 268.112 250.355 269.625 257.853C271.209 265.731 274.332 269.328 278.406 268.513C280.082 268.171 281.49 267.273 282.782 265.534L283.773 270.503C282.865 271.797 280.971 272.978 278.839 273.407C272.843 274.608 268.113 269.338 266.068 259.241L266.085 259.225Z" fill="#F9CDCF"/>
<path d="M282.68 255.848C280.636 245.705 282.563 238.012 288.574 236.798C294.394 235.626 298.743 241.779 300.612 251.024C302.553 260.694 300.876 269.007 294.717 270.252C289.028 271.392 284.592 265.343 282.68 255.848ZM296.951 252.338C295.453 244.887 292.669 240.865 289.274 241.546C285.847 242.227 284.783 246.947 286.311 254.516C287.794 261.839 290.58 266.216 294.016 265.518C297.603 264.791 298.418 259.644 296.938 252.324L296.951 252.338Z" fill="#F9CDCF"/>
<path d="M300.92 234.878L304.286 234.196L309.858 261.842L317.296 260.347L318.23 264.978L307.426 267.155L300.92 234.878Z" fill="#F9CDCF"/>
<path d="M314.349 232.178L317.715 231.495L323.29 259.143L330.727 257.644L331.66 262.275L320.859 264.454L314.349 232.178Z" fill="#F9CDCF"/>
<path d="M327.804 229.47L339.461 227.129L340.394 231.741L332.104 233.419L333.913 242.354L340.777 240.975L341.697 245.518L334.83 246.896L336.76 256.437L345.271 254.715L346.204 259.346L334.326 261.731L327.821 229.454L327.804 229.47Z" fill="#F9CDCF"/>
<path d="M345.26 243.231C343.141 232.707 345.509 225.366 351.712 224.12C353.901 223.675 356.021 224.011 357.579 224.845L358.648 230.152C356.706 228.846 354.513 228.437 352.661 228.821C348.825 229.595 347.23 234.197 348.773 241.902C350.285 249.426 353.422 253.566 357.48 252.753C358.406 252.56 359.3 252.204 360.124 251.602L358.359 242.87L354.713 243.596L353.811 239.099L360.808 237.689L364.052 253.785C362.555 255.683 360.427 256.965 357.987 257.455C351.887 258.686 347.293 253.415 345.246 243.23L345.26 243.231Z" fill="#F9CDCF"/>
<path d="M361.718 222.63L373.374 220.288L374.308 224.905L366.02 226.58L367.827 235.518L374.691 234.139L375.61 238.678L368.746 240.057L370.673 249.596L379.183 247.877L380.116 252.508L368.241 254.895L361.733 222.617L361.718 222.63Z" fill="#F9CDCF"/>
<path d="M518.774 -27.628C535.928 -30.773 548.252 -27.7071 549.84 -19.0347C550.346 -16.285 549.689 -13.4464 548.31 -11.3419L539.549 -9.73995C541.603 -12.1988 542.261 -14.9931 541.815 -17.4335C540.777 -23.1215 533.232 -24.9026 520.781 -22.6185C507.685 -20.2148 501.516 -15.7205 502.586 -9.95799C503.015 -7.59229 504.415 -5.60928 507.167 -3.79116L498.907 -2.27756C496.834 -3.53765 495.018 -6.21176 494.47 -9.22483C492.913 -17.7051 501.958 -24.5279 518.759 -27.6136L518.774 -27.628Z" fill="#F9CDCF"/>
<path d="M523.152 -4.13942C540.011 -7.22536 552.555 -4.64495 554.114 3.86585C555.627 12.1117 545.155 18.3928 529.781 21.2121C513.699 24.1637 500.125 21.9221 498.524 13.2212C497.039 5.16589 507.351 -1.24636 523.138 -4.13924L523.152 -4.13942ZM527.89 16.0541C540.267 13.7846 547.112 9.77395 546.236 4.96754C545.345 0.131091 537.654 -1.29643 525.056 1.0026C512.886 3.22812 505.469 7.28482 506.358 12.1641C507.293 17.2353 515.718 18.2939 527.89 16.0541Z" fill="#F9CDCF"/>
<path d="M556.371 21.3556L557.249 26.1192L511.271 34.5458L513.2 45.0847L505.511 46.4935L502.708 31.1926L556.371 21.3556Z" fill="#F9CDCF"/>
<path d="M559.867 40.3649L560.741 45.1269L514.766 53.555L516.695 64.0939L509.007 65.5028L506.203 50.2019L559.867 40.3649Z" fill="#F9CDCF"/>
<path d="M563.349 59.3834L566.375 75.8751L558.69 77.2855L556.538 65.5558L541.662 68.2849L543.442 78.0007L535.904 79.3817L534.124 69.6659L518.249 72.5736L520.458 84.6109L512.772 86.0213L509.686 69.2204L563.349 59.3834ZM567.962 66.0949L577.714 59.9475L578.488 64.1671L568.587 69.5502L567.949 66.1108L567.962 66.0949Z" fill="#F9CDCF"/>
<path d="M539.411 84.4628C556.916 81.2573 568.832 84.473 570.449 93.2628C571.013 96.3645 570.327 99.3794 568.816 101.602L559.996 103.219C562.285 100.436 563.103 97.3174 562.628 94.6864C561.635 89.2634 554.161 87.0693 541.359 89.4284C528.837 91.7289 521.8 96.2531 522.839 101.985C523.078 103.31 523.607 104.572 524.551 105.718L539.073 103.062L538.124 97.9176L545.591 96.5529L547.417 106.475L520.665 111.385C517.631 109.301 515.687 106.292 515.049 102.852C513.463 94.2098 522.479 87.608 539.41 84.4914L539.411 84.4628Z" fill="#F9CDCF"/>
<path d="M572.164 107.448L575.19 123.94L567.504 125.35L565.353 113.621L550.477 116.35L552.257 126.065L544.716 127.445L542.936 117.729L527.063 120.638L529.273 132.676L521.587 134.086L518.5 117.285L572.164 107.448Z" fill="#F9CDCF"/>
<path d="M572 336.601V241L-10 241V336.601C-9.98279 342.271 -7.70099 347.706 -3.64984 351.715C0.401428 355.725 5.89221 357.983 11.6209 358L550.376 358C556.105 357.983 561.595 355.725 565.647 351.715C569.698 347.706 571.983 342.271 572 336.601Z" fill="#F5B0B4"/>
<path d="M472.515 322.942C472.45 322.942 472.386 322.941 472.321 322.939C471.594 322.956 470.871 322.818 470.199 322.534C469.618 322.28 469.102 321.896 468.689 321.41C468.268 320.905 467.956 320.316 467.772 319.682C467.557 318.97 467.439 318.232 467.419 317.488C467.411 316.752 467.53 316.021 467.772 315.328C467.994 314.698 468.333 314.117 468.77 313.617C469.194 313.138 469.712 312.754 470.291 312.491C470.896 312.217 471.552 312.08 472.215 312.088C473.007 312.057 473.791 312.257 474.476 312.662C475.06 313.028 475.553 313.527 475.919 314.12C476.281 314.712 476.535 315.367 476.668 316.051C476.803 316.705 476.859 317.372 476.835 318.039H469.195C469.182 318.478 469.235 318.915 469.353 319.336C469.468 319.734 469.664 320.102 469.927 320.416C470.202 320.741 470.546 320.998 470.932 321.17C471.388 321.366 471.88 321.462 472.375 321.451C472.995 321.477 473.607 321.3 474.121 320.946C474.6 320.572 474.921 320.026 475.019 319.419H476.68C476.531 320.454 476.003 321.394 475.203 322.051C474.419 322.627 473.479 322.938 472.515 322.942ZM431.155 322.937C430.43 322.937 429.705 322.8 429.018 322.526C428.421 322.265 427.889 321.873 427.459 321.377C427.029 320.878 426.706 320.293 426.511 319.66C426.294 318.971 426.189 318.25 426.196 317.527C426.19 316.801 426.295 316.079 426.511 315.387C426.706 314.751 427.03 314.162 427.459 313.659C427.89 313.162 428.422 312.767 429.018 312.502C430.389 311.941 431.921 311.941 433.291 312.502C433.884 312.769 434.412 313.163 434.84 313.659C435.27 314.162 435.592 314.75 435.788 315.387C436.003 316.079 436.109 316.802 436.103 317.527C436.111 318.25 436.004 318.97 435.788 319.658C435.592 320.292 435.269 320.878 434.84 321.377C434.412 321.871 433.884 322.264 433.291 322.526C432.604 322.8 431.88 322.937 431.155 322.937ZM442.95 322.937C442.67 322.933 442.391 322.907 442.114 322.857C441.799 322.803 441.49 322.715 441.193 322.595C440.886 322.471 440.597 322.306 440.334 322.101C440.061 321.89 439.831 321.628 439.655 321.327H439.616V322.717L437.935 322.718V308.364H439.616V313.731H439.655C439.922 313.163 440.386 312.715 440.957 312.474C441.576 312.207 442.24 312.073 442.912 312.082C443.624 312.065 444.33 312.216 444.975 312.524C445.545 312.806 446.044 313.214 446.436 313.72C446.834 314.237 447.131 314.828 447.312 315.459C447.514 316.137 447.614 316.841 447.61 317.549C447.614 318.256 447.517 318.961 447.323 319.641C447.147 320.266 446.853 320.85 446.457 321.36C446.063 321.854 445.563 322.248 444.996 322.515C444.354 322.808 443.655 322.953 442.95 322.937ZM411.784 322.718L410.108 322.717V312.323H411.686V313.849H411.727C412.263 313.048 413.065 312.47 413.985 312.219C414.905 311.969 415.882 312.063 416.739 312.485C417.001 312.627 417.233 312.82 417.419 313.054C417.605 313.289 417.745 313.56 417.826 313.851C418.156 313.301 418.621 312.85 419.177 312.543C419.744 312.235 420.379 312.076 421.023 312.082C421.492 312.077 421.962 312.133 422.418 312.251C422.803 312.352 423.164 312.534 423.478 312.784C423.781 313.033 424.018 313.355 424.167 313.72C424.344 314.156 424.429 314.626 424.416 315.097L424.414 322.685H422.739V315.867C422.739 315.564 422.713 315.262 422.66 314.964C422.614 314.705 422.513 314.458 422.364 314.243C422.21 314.027 422.002 313.856 421.762 313.749C421.446 313.617 421.106 313.554 420.765 313.568C420.407 313.547 420.05 313.601 419.714 313.724C419.378 313.848 419.07 314.041 418.808 314.29C418.568 314.545 418.382 314.846 418.26 315.178C418.139 315.509 418.085 315.862 418.102 316.216V322.7H416.425V315.881C416.428 315.571 416.399 315.262 416.337 314.959C416.283 314.7 416.177 314.455 416.029 314.239C415.88 314.028 415.68 313.863 415.449 313.757C415.15 313.634 414.83 313.576 414.508 313.587C414.072 313.574 413.641 313.677 413.256 313.887C412.929 314.067 412.641 314.312 412.407 314.606C412.201 314.868 412.04 315.164 411.933 315.481C411.845 315.722 411.796 315.977 411.784 316.234V322.718ZM449.488 322.717V312.323H451.164V322.717H449.488ZM453.672 322.717V308.364H455.349V322.717H453.672ZM457.857 322.717L457.855 312.323H459.533V322.717H457.857ZM465.022 322.717C464.647 322.722 464.273 322.69 463.904 322.623C463.63 322.58 463.372 322.467 463.155 322.293C462.951 322.113 462.803 321.876 462.729 321.612C462.627 321.232 462.58 320.838 462.591 320.444V313.832L460.856 313.831V312.323H462.591V309.206L464.272 309.208V312.323H466.305V313.832H464.272V320.271C464.266 320.434 464.282 320.596 464.321 320.754C464.348 320.868 464.415 320.968 464.508 321.035C464.623 321.111 464.755 321.156 464.892 321.168C465.106 321.189 465.32 321.199 465.535 321.198H466.305V322.717H465.022ZM431.155 321.462C431.581 321.462 432.003 321.371 432.393 321.196C432.782 321.023 433.128 320.767 433.411 320.444C433.717 320.089 433.949 319.67 434.091 319.219C434.421 318.126 434.422 316.956 434.091 315.862C433.947 315.408 433.716 314.988 433.411 314.625C433.13 314.298 432.782 314.036 432.392 313.86C432.001 313.687 431.58 313.598 431.155 313.598C430.728 313.598 430.307 313.687 429.916 313.86C429.526 314.037 429.179 314.296 428.897 314.623C428.592 314.986 428.363 315.407 428.219 315.862C427.889 316.956 427.889 318.125 428.219 319.219C428.361 319.67 428.592 320.088 428.899 320.444C429.18 320.767 429.527 321.024 429.916 321.198C430.306 321.372 430.728 321.462 431.155 321.462ZM442.585 321.437C442.649 321.438 442.714 321.438 442.779 321.435C443.283 321.452 443.783 321.335 444.229 321.093C444.609 320.874 444.93 320.563 445.165 320.188C445.409 319.794 445.585 319.358 445.679 318.902C445.786 318.414 445.838 317.916 445.837 317.416C445.837 316.936 445.773 316.459 445.65 315.997C445.533 315.554 445.34 315.134 445.077 314.761C444.82 314.397 444.482 314.102 444.091 313.896C443.652 313.673 443.166 313.562 442.676 313.576C442.174 313.559 441.677 313.677 441.233 313.915C440.849 314.138 440.52 314.442 440.268 314.811C440.01 315.191 439.826 315.618 439.726 316.069C439.612 316.54 439.554 317.024 439.556 317.509C439.555 318.007 439.614 318.503 439.732 318.986C439.841 319.438 440.032 319.864 440.295 320.243C440.558 320.609 440.899 320.908 441.293 321.118C441.698 321.317 442.137 321.425 442.585 321.437ZM469.195 316.537H475.059C475.032 316.142 474.943 315.753 474.794 315.387C474.65 315.039 474.442 314.724 474.181 314.456C473.919 314.192 473.611 313.98 473.273 313.832C472.907 313.674 472.513 313.597 472.116 313.603C471.713 313.596 471.313 313.674 470.942 313.832C470.603 313.98 470.298 314.196 470.044 314.467C469.793 314.739 469.593 315.054 469.453 315.4C469.307 315.762 469.22 316.146 469.195 316.537ZM472.071 310.494L470.808 310.493L472.705 307.237H474.855L472.071 310.494ZM449.488 310.454V308.364H451.164V310.454H449.488ZM457.855 310.454V308.364H459.533V310.454H457.855ZM486 321.247C486.271 320.773 486.405 320.23 486.385 319.68C486.4 319.247 486.301 318.817 486.098 318.434C485.911 318.102 485.656 317.817 485.349 317.596C485.023 317.366 484.665 317.186 484.288 317.062C483.882 316.927 483.47 316.813 483.054 316.72C482.661 316.626 482.264 316.536 481.868 316.45C481.507 316.372 481.152 316.265 480.807 316.129C480.52 316.019 480.257 315.855 480.029 315.647C479.931 315.555 479.853 315.444 479.8 315.32C479.747 315.196 479.72 315.062 479.721 314.926C479.711 314.692 479.781 314.462 479.919 314.274C480.057 314.101 480.232 313.962 480.433 313.871C480.657 313.765 480.895 313.694 481.139 313.658C481.392 313.62 481.646 313.6 481.9 313.601C482.176 313.6 482.452 313.63 482.721 313.691C482.981 313.747 483.231 313.845 483.46 313.982C483.682 314.114 483.871 314.297 484.012 314.516C484.166 314.766 484.255 315.053 484.27 315.348L485.947 315.348C485.929 314.799 485.795 314.261 485.554 313.77C485.342 313.364 485.033 313.018 484.655 312.765C484.261 312.509 483.821 312.332 483.361 312.243C482.834 312.138 482.299 312.087 481.763 312.092C481.307 312.094 480.853 312.15 480.411 312.261C479.978 312.367 479.564 312.545 479.187 312.787C478.826 313.018 478.521 313.329 478.296 313.698C478.055 314.104 477.932 314.571 477.942 315.045C477.907 315.613 478.083 316.173 478.434 316.615C478.776 316.998 479.198 317.298 479.669 317.491C480.19 317.698 480.73 317.854 481.282 317.956C481.862 318.067 482.395 318.197 482.891 318.337C483.328 318.452 483.745 318.639 484.125 318.888C484.286 318.998 484.415 319.148 484.502 319.324C484.588 319.5 484.627 319.696 484.617 319.894C484.629 320.178 484.546 320.459 484.38 320.689C484.222 320.896 484.015 321.059 483.779 321.161C483.524 321.271 483.254 321.346 482.979 321.381C482.704 321.42 482.428 321.44 482.151 321.442C481.817 321.443 481.482 321.409 481.154 321.341C480.848 321.28 480.554 321.168 480.284 321.01C480.03 320.856 479.816 320.642 479.661 320.386C479.496 320.096 479.409 319.768 479.407 319.432L477.726 319.432C477.736 320.001 477.872 320.561 478.122 321.071C478.348 321.504 478.673 321.875 479.071 322.151C479.485 322.434 479.946 322.635 480.432 322.746C480.964 322.867 481.508 322.927 482.052 322.926C482.572 322.925 483.091 322.874 483.601 322.774C484.101 322.685 484.581 322.505 485.016 322.241C485.415 321.992 485.752 321.652 486 321.247Z" fill="white"/>
<path d="M502.751 322.953L527.242 322.953C529.952 322.946 532.548 321.867 534.464 319.955C536.379 318.042 537.459 315.45 537.466 312.745L537.467 288.299C537.461 285.593 536.382 282.999 534.466 281.084C532.55 279.17 529.953 278.091 527.242 278.083L502.751 278.084C500.041 278.092 497.444 279.171 495.528 281.085C493.613 282.999 492.533 285.593 492.527 288.299L492.527 312.752C492.536 315.456 493.617 318.047 495.532 319.958C497.448 321.868 500.043 322.946 502.751 322.953ZM511.175 286.519C512.244 284.22 514.576 283.038 516.391 283.875C518.205 284.711 518.808 287.26 517.742 289.57C516.676 291.88 514.341 293.051 512.526 292.215C510.712 291.378 510.113 288.826 511.175 286.519ZM502.391 300.689C506.195 296.635 509.621 295.592 514.195 294.909C518.768 294.225 520.451 294.489 525.88 291.756C527.371 291.008 526.95 291.901 525.998 292.912C522.194 296.966 518.765 298.009 514.195 298.692C509.624 299.376 507.938 299.112 502.509 301.846C501.019 302.593 501.443 301.7 502.391 300.689ZM501.678 316.461C504.295 312.859 506.412 309.915 508.94 306.527C512.123 302.227 516.843 299.49 520.704 304.851C524.298 309.833 528.276 315.297 529.417 316.863C529.57 317.077 529.474 317.315 529.146 317.34C527.328 317.468 523.153 317.757 521.777 315.874C519.785 313.147 517.542 310.001 515.717 307.491C514.145 305.327 511.867 305.113 510.341 307.21C508.64 309.552 505.928 313.261 504.84 314.728C504.181 315.669 503.34 316.468 502.366 317.08C501.528 317.589 501.065 317.294 501.667 316.461L501.678 316.461Z" fill="white"/>
<path d="M529.499 317.099C529.479 317.223 529.365 317.323 529.16 317.338C527.342 317.466 523.167 317.754 521.791 315.871C519.791 313.145 517.549 309.998 515.731 307.489C514.159 305.325 511.88 305.111 510.354 307.208C508.653 309.551 505.941 313.241 504.854 314.725C504.194 315.666 503.354 316.467 502.38 317.079C501.529 317.587 501.065 317.292 501.681 316.459C504.319 312.868 506.459 309.913 508.954 306.524C512.131 302.224 516.85 299.488 520.718 304.849C524.311 309.828 528.29 315.295 529.431 316.861C529.488 316.941 529.511 317.024 529.499 317.099ZM526.857 291.627C526.857 291.869 526.502 292.374 525.998 292.91C522.195 296.965 518.751 298.006 514.195 298.69C509.639 299.373 507.938 299.111 502.509 301.845C501.019 302.592 501.443 301.697 502.391 300.686C506.195 296.633 509.639 295.591 514.195 294.907C518.751 294.224 520.452 294.487 525.881 291.754C526.579 291.403 526.856 291.413 526.857 291.627ZM518.269 287.195C518.279 287.964 518.109 288.782 517.742 289.568C516.672 291.857 514.34 293.049 512.526 292.212C510.715 291.366 510.106 288.807 511.175 286.518C512.245 284.229 514.579 283.019 516.39 283.874C517.578 284.435 518.25 285.726 518.269 287.195Z" fill="#64B5F6"/>
<path d="M339.48 303.426C333.638 303.426 329.674 299.914 329.674 293.932C329.675 288.463 334.055 284.539 339.329 284.539C345.745 284.539 348.95 289.358 348.68 295.413H335.537C335.642 297.856 337.052 299.469 339.539 299.469C340.946 299.469 342.331 298.817 342.885 297.502H348.369C347.301 301.629 343.465 303.419 339.48 303.426ZM416.015 303.412C412.604 303.412 409.915 301.695 409.914 298.006C409.914 292.198 416.26 292.645 420.329 291.817C421.331 291.611 421.88 291.269 421.88 290.169C421.881 288.827 420.262 288.313 419.054 288.313C417.429 288.313 416.4 289.035 416.123 290.545L410.625 290.546C410.745 288.205 411.84 286.642 413.426 285.758C415.013 284.874 417.079 284.524 419.116 284.524C423.357 284.524 427.462 285.458 427.463 290.514L427.461 298.327C427.462 299.84 427.463 301.508 428.163 302.906L422.259 302.904C422.075 302.357 421.959 301.79 421.915 301.214C420.398 302.797 418.158 303.412 416.015 303.412ZM356.06 303.229C351.731 303.229 349.589 299.816 349.589 295.853C349.589 291.89 351.707 288.554 356.007 288.554C357.444 288.554 359.51 289.116 360.543 290.748H360.599V283.525H362.91V302.904H360.599V301.011H360.543C359.787 302.552 357.99 303.229 356.06 303.229ZM371.088 303.226C366.599 303.227 364.477 300.138 364.337 295.85C364.337 291.639 367.099 288.55 370.951 288.549C375.91 288.549 377.449 293.194 377.312 296.587H366.805C366.724 299.033 368.111 301.193 371.179 301.193C373.07 301.193 374.412 300.268 374.822 298.458L377.105 298.456C376.475 301.549 374.247 303.23 371.088 303.226ZM322.262 302.909V283.12H318.549L316.482 280.362L314.413 283.12H310L313.86 278.001L319.099 278L322.262 282.192V278.339H328.125V302.909H322.262ZM313.546 302.904V285.048H319.409V302.904H313.546ZM378.813 302.904V278.339H396.953L396.955 283.466H385.226V288.492L395.367 288.49V293.442H385.226V302.904H378.813ZM398.117 302.888V285.03H403.815V288.176H403.882C404.747 285.908 406.742 284.702 409.267 284.703C409.73 284.701 410.192 284.748 410.644 284.845V290.178C409.916 289.956 409.161 289.839 408.399 289.829C405.507 289.829 403.982 291.825 403.982 294.068L403.984 302.888H398.117ZM356.383 301.175C359.478 301.174 360.677 298.522 360.677 295.891C360.671 293.123 359.38 290.576 356.235 290.576C353.083 290.576 352.034 293.256 352.034 296C352.034 298.627 353.396 301.174 356.383 301.175ZM418.227 299.805C421.015 299.806 421.95 298.226 421.813 294.543C420.99 295.053 419.496 295.197 418.189 295.504C416.883 295.812 415.777 296.377 415.777 297.775C415.777 299.222 416.907 299.806 418.227 299.805ZM366.799 294.55H374.85C374.741 292.342 373.088 290.595 370.801 290.595C368.399 290.595 366.949 292.405 366.799 294.55ZM335.537 292.143H342.832C342.709 290.137 341.294 288.49 339.329 288.49C337.263 288.49 335.886 289.966 335.537 292.143ZM441.574 294.271L441.573 302.905L447.436 302.905L447.436 291.447C447.436 288.869 446.953 284.532 440.985 284.532C438.849 284.532 436.433 285.668 435.382 287.495L435.305 287.495L435.305 285.049L429.614 285.049L429.614 302.905L435.469 302.905L435.469 293.162C435.47 291.206 436.436 289.351 438.621 289.351C441.85 289.351 441.574 291.824 441.574 294.271ZM467.107 295.889L461.42 295.888C461.154 297.775 460.102 298.946 458.075 298.946C455.596 298.946 454.594 296.577 454.594 294.271C454.594 291.793 455.112 289.008 458.387 289.008C459.864 289.008 461.213 290.056 461.252 291.587L466.956 291.587C466.547 286.87 462.575 284.532 458.127 284.532C452.367 284.532 448.743 288.596 448.742 294.271C448.742 299.739 452.752 303.419 458.128 303.419C462.887 303.419 466.609 300.669 467.107 295.889ZM486.168 297.502L480.677 297.503C480.127 298.816 478.747 299.47 477.34 299.47C474.853 299.47 473.438 297.855 473.333 295.413L486.473 295.413C486.749 289.357 483.545 284.538 477.126 284.538C471.855 284.538 467.471 288.463 467.471 293.931C467.47 299.917 471.439 303.425 477.277 303.426C481.262 303.418 485.089 301.629 486.168 297.502ZM473.333 292.142C473.683 289.965 475.053 288.491 477.126 288.49C479.094 288.49 480.509 290.136 480.61 292.142L473.333 292.142Z" fill="white"/>
<path d="M33.074 323V316.656L44.176 305.066C49.544 299.332 51.557 296.282 51.557 292.256C51.557 287.315 48.751 284.631 43.993 284.631C40.577 284.631 37.71 285.851 33.684 289.084V280.849C37.1 277.921 41.553 276.274 46.189 276.274C54.668 276.274 60.463 281.764 60.463 290.304C60.463 296.709 57.108 301.955 49.544 309.336L43.749 315.009H62.415L61.256 323H33.074ZM81.753 323.671C71.261 323.671 66.442 316.29 66.442 300.674C66.442 284.936 71.383 276.091 82.424 276.091C94.685 276.091 98.101 285.363 98.101 299.393C98.101 315.07 92.733 323.671 81.753 323.671ZM82.363 316.778C87.975 316.778 89.378 309.763 89.378 299.576C89.378 290.304 87.731 282.984 82.119 282.984C76.629 282.984 74.982 290.243 74.982 300.003C74.982 310.617 76.751 316.778 82.363 316.778ZM102.593 323V316.656L113.695 305.066C119.063 299.332 121.076 296.282 121.076 292.256C121.076 287.315 118.27 284.631 113.512 284.631C110.096 284.631 107.229 285.851 103.203 289.084V280.849C106.619 277.921 111.072 276.274 115.708 276.274C124.187 276.274 129.982 281.764 129.982 290.304C129.982 296.709 126.627 301.955 119.063 309.336L113.268 315.009H131.934L130.775 323H102.593ZM145.965 316.656C151.028 316.656 154.261 313.484 154.261 308.543C154.261 303.846 151.333 301.162 146.697 301.162C144.989 301.162 143.22 301.528 141.512 302.26L136.51 300.857L138.828 277.006H163.106L162.069 284.936H145.66L144.562 294.818C145.843 294.635 147.185 294.513 148.527 294.513C157.616 294.513 163.35 299.515 163.35 308.116C163.35 317.937 155.847 323.61 146.148 323.61C142.488 323.61 139.011 322.817 135.961 321.414V313.789C139.377 315.619 143.037 316.656 145.965 316.656ZM168.679 308.848V300.186H186.857V308.848H168.679ZM190.876 323V316.656L201.978 305.066C207.346 299.332 209.359 296.282 209.359 292.256C209.359 287.315 206.553 284.631 201.795 284.631C198.379 284.631 195.512 285.851 191.486 289.084V280.849C194.902 277.921 199.355 276.274 203.991 276.274C212.47 276.274 218.265 281.764 218.265 290.304C218.265 296.709 214.91 301.955 207.346 309.336L201.551 315.009H220.217L219.058 323H190.876ZM253.707 286.217C250.779 284.448 247.058 283.594 244.13 283.594C237.786 283.594 234.187 287.559 233.272 296.526C235.773 294.94 239.006 293.476 243.154 293.476C250.23 293.476 256.147 297.929 256.147 307.018C256.147 316.656 249.559 323.671 240.165 323.671C230.039 323.671 224.061 315.558 224.061 302.138C224.061 287.254 231.381 276.274 243.642 276.274C246.936 276.274 251.267 277.128 253.707 278.47V286.217ZM240.287 300.308C237.664 300.308 235.224 301.284 233.089 302.504C233.272 311.349 235.468 316.656 240.531 316.656C245.045 316.656 247.18 312.508 247.18 307.628C247.18 302.382 244.252 300.308 240.287 300.308Z" fill="#E72F69"/>
<path d="M374.47 141.189C368.934 142.223 364.81 140.488 364.054 136.401C363.814 135.109 363.945 133.794 364.34 132.852L367.163 132.32C366.554 133.417 366.426 134.704 366.638 135.853C367.142 138.535 369.661 139.556 373.677 138.8C377.907 138.019 379.8 136.075 379.281 133.351C379.069 132.244 378.558 131.275 377.605 130.356L380.273 129.852C380.988 130.499 381.651 131.78 381.916 133.199C382.658 137.2 379.888 140.138 374.469 141.16L374.47 141.189Z" fill="#F9CDCF"/>
<path d="M362.585 127.068L362.081 124.386L378.581 116.893L379.046 119.405L374.888 121.221L375.738 125.775L380.28 126.017L380.702 128.272L362.572 127.054L362.585 127.068ZM372.568 122.253L365.666 125.238L373.206 125.659L372.568 122.253Z" fill="#F9CDCF"/>
<path d="M360.879 117.891L360.15 113.989C359.58 110.939 361.12 108.92 364.668 108.257C366.98 107.819 368.872 108.281 370.088 109.528L376.452 105.333L376.945 107.93L371.251 111.539C371.318 111.765 371.386 112.021 371.44 112.277L371.678 113.553L377.78 112.413L378.203 114.654L360.893 117.891L360.879 117.891ZM362.939 115.186L369.181 114.018L368.983 112.94C368.611 110.953 367.488 110.146 365.218 110.571C363.091 110.969 362.355 112.036 362.712 113.964L362.939 115.186Z" fill="#F9CDCF"/>
<path d="M360.642 102.912L361.399 106.956L358.916 107.42L356.967 96.992L359.45 96.5275L360.218 100.642L375.045 97.8696L375.47 100.126L360.643 102.898L360.642 102.912Z" fill="#F9CDCF"/>
<path d="M356.539 94.7043L355.093 86.9288L357.576 86.4646L358.613 91.9992L363.408 91.0968L362.56 86.5143L364.986 86.0631L365.834 90.6459L370.957 89.6913L369.895 84.0157L372.378 83.5514L373.863 91.4677L356.553 94.7043L356.539 94.7043Z" fill="#F9CDCF"/>
</g>
<defs>
<linearGradient id="paint0_linear_105_1465" x1="137.665" y1="357" x2="285.717" y2="0.0900247" gradientUnits="userSpaceOnUse">
<stop stop-color="#DC0D15"/>
<stop offset="0.274038" stop-color="#C5174E"/>
<stop offset="0.567308" stop-color="#991B6B"/>
<stop offset="1" stop-color="#1F1B36"/>
</linearGradient>
<clipPath id="clip0_105_1465">
<path d="M0 20C0 8.9543 8.95431 0 20 0H551C562.046 0 571 8.95431 571 20V337C571 348.046 562.046 357 551 357H20C8.9543 357 0 348.046 0 337V20Z" fill="white"/>
</clipPath>
</defs>
</svg>
