<svg width="540" height="337" viewBox="0 0 540 337" fill="none" xmlns="http://www.w3.org/2000/svg">
<g clip-path="url(#clip0_97_3154)">
<path d="M20.0591 337C14.7464 336.99 9.65248 334.896 5.89457 331.177C2.13461 327.458 0.0166598 322.415 0 317.152L0 136.018L539.199 136.018V317.152C539.185 322.411 537.069 327.453 533.316 331.171C529.563 334.891 524.479 336.985 519.169 337H20.0591Z" fill="white"/>
<path d="M0.0270386 19.8446L0.0270386 136.019L539.2 136.019V19.8446C539.184 14.5862 537.07 9.54683 533.317 5.82845C529.564 2.11016 524.477 0.0157815 519.17 0L20.0598 0C14.7524 0.0158053 9.66596 2.11007 5.91283 5.82845C2.1597 9.54685 0.0429629 14.5865 0.0270386 19.8446Z" fill="#64B5F6"/>
<path d="M351.823 104.022C351.721 104.022 351.619 104.021 351.517 104.017C350.367 104.045 349.225 103.826 348.163 103.377C347.246 102.977 346.429 102.37 345.777 101.602C345.112 100.804 344.619 99.8732 344.329 98.8702C343.989 97.7448 343.802 96.5791 343.771 95.4028C343.758 94.2401 343.946 93.0846 344.329 91.9897C344.679 90.9942 345.214 90.0765 345.905 89.2854C346.575 88.5287 347.394 87.9215 348.308 87.5072C349.265 87.0739 350.302 86.857 351.35 86.87C352.6 86.8213 353.839 87.1369 354.922 87.7764C355.846 88.3557 356.625 89.144 357.202 90.0806C357.774 91.0158 358.176 92.0519 358.386 93.1332C358.6 94.166 358.689 95.2199 358.65 96.2746H346.577C346.555 96.9673 346.641 97.6587 346.827 98.3244C347.008 98.9525 347.317 99.5337 347.734 100.031C348.169 100.544 348.712 100.95 349.322 101.221C350.043 101.531 350.819 101.683 351.602 101.666C352.582 101.708 353.548 101.428 354.362 100.868C355.119 100.277 355.626 99.414 355.781 98.4553H358.405C358.17 100.091 357.336 101.576 356.072 102.614C354.832 103.525 353.346 104.016 351.823 104.022ZM286.461 104.015C285.316 104.015 284.171 103.798 283.086 103.365C282.142 102.953 281.301 102.334 280.621 101.55C279.942 100.761 279.431 99.8363 279.123 98.8357C278.781 97.7469 278.614 96.6082 278.625 95.4645C278.616 94.3185 278.782 93.1771 279.123 92.0835C279.432 91.0782 279.943 90.1473 280.621 89.3521C281.302 88.5665 282.143 87.9427 283.086 87.5245C285.252 86.6372 287.672 86.6381 289.837 87.5245C290.774 87.9466 291.609 88.5692 292.285 89.3521C292.965 90.1477 293.474 91.0766 293.783 92.0835C294.123 93.1767 294.291 94.3185 294.281 95.4645C294.293 96.608 294.125 97.7449 293.783 98.8332C293.474 99.834 292.963 100.76 292.285 101.55C291.608 102.331 290.775 102.951 289.837 103.365C288.752 103.798 287.607 104.015 286.461 104.015ZM305.102 104.015C304.659 104.008 304.218 103.966 303.78 103.889C303.283 103.803 302.794 103.663 302.325 103.474C301.839 103.279 301.383 103.017 300.967 102.693C300.536 102.359 300.172 101.946 299.895 101.471H299.832V103.666L297.176 103.669V80.9847H299.832V89.4657H299.895C300.316 88.5686 301.05 87.8612 301.952 87.48C302.93 87.0577 303.98 86.8462 305.042 86.8601C306.166 86.8337 307.282 87.0725 308.301 87.5591C309.202 88.0039 309.991 88.6491 310.61 89.4484C311.239 90.2663 311.709 91.1996 311.995 92.1971C312.314 93.2681 312.473 94.3807 312.465 95.4991C312.472 96.6172 312.318 97.732 312.012 98.806C311.734 99.7935 311.27 100.717 310.644 101.523C310.021 102.303 309.231 102.926 308.335 103.348C307.32 103.811 306.215 104.04 305.102 104.015ZM255.85 103.669L253.201 103.666V87.2405H255.694V89.6534H255.76C256.607 88.3863 257.874 87.473 259.327 87.0775C260.782 86.6815 262.325 86.8304 263.681 87.4973C264.094 87.7214 264.461 88.0259 264.755 88.3963C265.049 88.7678 265.27 89.1965 265.398 89.6558C265.919 88.7869 266.655 88.0744 267.532 87.5887C268.429 87.1014 269.433 86.8507 270.45 86.8601C271.191 86.8522 271.934 86.9412 272.654 87.1269C273.263 87.2875 273.834 87.575 274.33 87.969C274.808 88.3625 275.183 88.8714 275.419 89.4484C275.698 90.1379 275.833 90.8799 275.812 91.6242L275.81 103.617H273.161V92.8417C273.162 92.3631 273.121 91.885 273.038 91.4142C272.964 91.0047 272.804 90.6152 272.569 90.2757C272.326 89.934 271.998 89.664 271.619 89.4953C271.119 89.2863 270.581 89.1868 270.042 89.2088C269.477 89.176 268.913 89.2606 268.381 89.4558C267.851 89.6505 267.364 89.9564 266.95 90.3498C266.57 90.7526 266.277 91.229 266.084 91.7526C265.892 92.2762 265.807 92.8345 265.835 93.3925V103.639H263.184V92.864C263.189 92.3737 263.142 91.8858 263.045 91.4068C262.959 90.9982 262.793 90.6107 262.558 90.2683C262.323 89.9362 262.007 89.6744 261.641 89.5076C261.169 89.3134 260.663 89.222 260.155 89.2385C259.465 89.2173 258.784 89.381 258.175 89.7126C257.66 89.9978 257.204 90.3841 256.834 90.8487C256.509 91.2633 256.255 91.73 256.085 92.2317C255.946 92.613 255.868 93.0154 255.85 93.4221V103.669ZM315.434 103.666V87.2405H318.082V103.666H315.434ZM322.045 103.666V80.9847H324.696V103.666H322.045ZM328.659 103.666L328.656 87.2405H331.307V103.666H328.659ZM339.983 103.666C339.39 103.674 338.798 103.625 338.214 103.518C337.782 103.451 337.375 103.273 337.031 102.997C336.71 102.712 336.475 102.338 336.359 101.92C336.197 101.319 336.124 100.698 336.141 100.075V89.6262L333.398 89.6237V87.2405H336.141V82.3159L338.797 82.3184V87.2405H342.01V89.6262H338.797V99.8013C338.788 100.059 338.813 100.315 338.874 100.564C338.917 100.744 339.022 100.903 339.17 101.009C339.352 101.129 339.561 101.2 339.776 101.219C340.114 101.253 340.453 101.268 340.793 101.266H342.01V103.666H339.983ZM286.461 101.683C287.135 101.684 287.802 101.54 288.419 101.263C289.033 100.989 289.58 100.585 290.027 100.075C290.51 99.513 290.878 98.8518 291.101 98.1392C291.623 96.411 291.624 94.5624 291.101 92.8343C290.875 92.1157 290.509 91.4522 290.027 90.8783C289.583 90.3617 289.033 89.9485 288.416 89.6706C287.799 89.3967 287.134 89.2555 286.461 89.2557C285.788 89.2554 285.122 89.3974 284.504 89.6706C283.888 89.9491 283.339 90.3592 282.894 90.8759C282.412 91.4497 282.049 92.1151 281.822 92.8343C281.301 94.5632 281.301 96.4107 281.822 98.1392C282.046 98.852 282.411 99.5127 282.896 100.075C283.341 100.585 283.89 100.992 284.504 101.266C285.121 101.542 285.787 101.684 286.461 101.683ZM304.525 101.644C304.626 101.646 304.729 101.645 304.831 101.641C305.628 101.668 306.418 101.482 307.122 101.1C307.723 100.754 308.23 100.263 308.602 99.6704C308.988 99.0476 309.265 98.359 309.414 97.6379C309.583 96.867 309.666 96.0801 309.664 95.2892C309.664 94.5312 309.563 93.7775 309.368 93.0467C309.183 92.3465 308.878 91.6827 308.464 91.0932C308.056 90.5194 307.523 90.053 306.904 89.7274C306.211 89.3741 305.443 89.1994 304.668 89.2212C303.876 89.1948 303.09 89.3813 302.388 89.7571C301.782 90.1086 301.261 90.5904 300.863 91.1722C300.456 91.7739 300.165 92.4488 300.007 93.1603C299.826 93.9056 299.735 94.6696 299.737 95.4374C299.736 96.2236 299.83 97.0075 300.016 97.7712C300.189 98.4842 300.491 99.1576 300.906 99.7569C301.321 100.335 301.861 100.808 302.483 101.14C303.122 101.455 303.817 101.626 304.525 101.644ZM346.577 93.9012H355.844C355.801 93.276 355.66 92.6616 355.424 92.0835C355.197 91.5337 354.868 91.0362 354.457 90.6116C354.042 90.1943 353.555 89.8599 353.021 89.6262C352.442 89.3767 351.82 89.2539 351.192 89.2631C350.556 89.2526 349.923 89.3754 349.337 89.6262C348.802 89.8592 348.32 90.2008 347.918 90.6289C347.521 91.0584 347.206 91.5577 346.984 92.1033C346.754 92.6761 346.616 93.2833 346.577 93.9012ZM351.122 84.3509L349.126 84.3485L352.123 79.2041H355.521L351.122 84.3509ZM315.434 84.2867V80.9847H318.082V84.2867H315.434ZM328.656 84.2867V80.9847H331.307V84.2867H328.656ZM373.133 101.344C373.562 100.595 373.774 99.7362 373.743 98.8681C373.766 98.1824 373.609 97.5032 373.289 96.899C372.993 96.3744 372.589 95.9226 372.105 95.5735C371.589 95.2105 371.024 94.9261 370.428 94.7305C369.786 94.5168 369.136 94.336 368.477 94.1898C367.856 94.0408 367.23 93.8989 366.604 93.7632C366.034 93.6394 365.473 93.4703 364.928 93.2562C364.474 93.0818 364.058 92.8224 363.698 92.4939C363.543 92.349 363.419 92.1738 363.336 91.9772C363.252 91.7806 363.21 91.569 363.211 91.3549C363.195 90.9851 363.306 90.6208 363.524 90.3243C363.741 90.0503 364.019 89.8311 364.336 89.6873C364.69 89.5203 365.066 89.4073 365.453 89.3511C365.851 89.2904 366.253 89.2595 366.655 89.2608C367.09 89.2597 367.526 89.3073 367.951 89.4024C368.363 89.491 368.757 89.6471 369.12 89.863C369.47 90.0719 369.77 90.3605 369.992 90.706C370.236 91.1016 370.376 91.5549 370.399 92.0214L373.049 92.0214C373.021 91.1534 372.81 90.3038 372.428 89.5276C372.094 88.8857 371.605 88.3397 371.009 87.9396C370.385 87.5349 369.691 87.2551 368.963 87.1149C368.131 86.9485 367.285 86.8684 366.437 86.8756C365.717 86.8786 365 86.9678 364.302 87.1427C363.617 87.311 362.963 87.5911 362.368 87.974C361.797 88.339 361.314 88.8307 360.959 89.4146C360.578 90.0553 360.385 90.7941 360.4 91.5434C360.345 92.4396 360.622 93.3256 361.177 94.024C361.717 94.6292 362.384 95.1028 363.128 95.4078C363.952 95.7357 364.806 95.9822 365.677 96.1425C366.594 96.3181 367.437 96.5231 368.22 96.7455C368.911 96.9271 369.57 97.2223 370.171 97.6165C370.424 97.7889 370.629 98.0275 370.766 98.3049C370.902 98.5834 370.964 98.8932 370.948 99.2049C370.967 99.6542 370.836 100.098 370.573 100.462C370.324 100.789 369.997 101.046 369.623 101.208C369.22 101.382 368.795 101.5 368.359 101.555C367.926 101.617 367.489 101.649 367.051 101.652C366.523 101.654 365.994 101.6 365.476 101.492C364.992 101.396 364.528 101.22 364.101 100.969C363.699 100.725 363.362 100.388 363.116 99.9839C362.856 99.5255 362.717 99.006 362.714 98.4756L360.059 98.4753C360.075 99.3753 360.288 100.26 360.685 101.066C361.041 101.75 361.555 102.336 362.183 102.773C362.838 103.219 363.567 103.537 364.335 103.712C365.175 103.904 366.034 103.999 366.895 103.997C367.717 103.996 368.537 103.915 369.343 103.757C370.133 103.617 370.89 103.332 371.579 102.915C372.209 102.521 372.742 101.984 373.133 101.344Z" fill="white"/>
<path d="M399.605 104.04L438.309 104.04C442.59 104.028 446.693 102.324 449.721 99.3022C452.748 96.2786 454.455 92.1831 454.466 87.9072L454.467 49.2752C454.457 44.9989 452.753 40.8995 449.725 37.8742C446.697 34.8489 442.593 33.1438 438.309 33.1318L399.605 33.1326C395.322 33.1455 391.219 34.8506 388.191 37.8756C385.164 40.9006 383.458 44.9994 383.448 49.2759L383.448 87.9186C383.463 92.1921 385.17 96.2859 388.197 99.3063C391.225 102.326 395.326 104.029 399.605 104.04ZM412.918 46.463C414.608 42.8298 418.293 40.9615 421.16 42.2839C424.028 43.6052 424.98 47.6329 423.295 51.2834C421.611 54.9341 417.921 56.785 415.053 55.4636C412.186 54.1412 411.239 50.1081 412.918 46.463ZM399.037 68.8559C405.047 62.4498 410.462 60.8008 417.69 59.7209C424.918 58.6411 427.577 59.0571 436.157 54.738C438.512 53.5562 437.847 54.968 436.343 56.5653C430.332 62.9725 424.912 64.6201 417.69 65.7003C410.467 66.7804 407.803 66.3641 399.222 70.6843C396.868 71.865 397.538 70.4535 399.037 68.8559ZM397.91 93.7803C402.045 88.088 405.391 83.436 409.386 78.081C414.416 71.2861 421.876 66.9603 427.976 75.4322C433.656 83.306 439.942 91.941 441.745 94.416C441.988 94.7536 441.835 95.1302 441.317 95.1691C438.444 95.3715 431.847 95.828 429.673 92.8518C426.523 88.5431 422.98 83.5712 420.095 79.6055C417.611 76.1851 414.011 75.8474 411.6 79.161C408.912 82.8626 404.625 88.7229 402.907 91.0408C401.865 92.5281 400.536 93.792 398.997 94.7591C397.673 95.5631 396.941 95.0962 397.893 93.7806L397.91 93.7803Z" fill="white"/>
<path d="M441.875 94.7884C441.844 94.9846 441.664 95.1424 441.34 95.1667C438.467 95.369 431.869 95.8243 429.695 92.8481C426.534 88.5399 422.991 83.5679 420.117 79.6029C417.633 76.1825 414.032 75.845 411.621 79.1587C408.933 82.8602 404.647 88.6917 402.928 91.0372C401.886 92.5245 400.559 93.7896 399.02 94.7567C397.673 95.5607 396.941 95.0936 397.915 93.778C402.084 88.1024 405.465 83.4327 409.408 78.0775C414.428 71.2822 421.886 66.9582 427.998 75.4294C433.677 83.2987 439.964 91.9375 441.768 94.4125C441.859 94.5391 441.894 94.6707 441.875 94.7884ZM437.7 54.5354C437.701 54.9183 437.139 55.7153 436.343 56.5635C430.332 62.9706 424.89 64.6162 417.69 65.6963C410.49 66.7764 407.803 66.3623 399.223 70.6825C396.868 71.8632 397.538 70.4497 399.037 68.852C405.047 62.446 410.49 60.7993 417.69 59.7192C424.89 58.6391 427.578 59.0547 436.158 54.7355C437.262 54.1815 437.699 54.1975 437.7 54.5354ZM424.129 47.5308C424.144 48.7465 423.876 50.0387 423.295 51.282C421.605 54.899 417.92 56.7827 415.053 55.4603C412.19 54.1221 411.228 50.0788 412.919 46.4618C414.609 42.8448 418.297 40.9327 421.159 42.2835C423.037 43.1692 424.099 45.2098 424.129 47.5308Z" fill="#64B5F6"/>
<path d="M141.587 73.1815C132.355 73.181 126.091 67.6314 126.092 58.1775C126.092 49.5354 133.014 43.3345 141.349 43.3341C151.488 43.3346 156.553 50.9488 156.127 60.5185H135.356C135.523 64.3785 137.751 66.9277 141.681 66.9278C143.905 66.9286 146.093 65.897 146.968 63.8202H155.634C153.947 70.3414 147.885 73.1707 141.587 73.1815ZM262.536 73.1599C257.146 73.1597 252.896 70.4466 252.895 64.6157C252.895 55.4376 262.923 56.1439 269.353 54.8351C270.937 54.5105 271.805 53.9701 271.805 52.2306C271.805 50.1102 269.248 49.2984 267.339 49.2978C264.77 49.2984 263.144 50.4393 262.707 52.8248L254.019 52.8272C254.207 49.128 255.938 46.657 258.444 45.2605C260.952 43.8635 264.217 43.3108 267.437 43.3101C274.139 43.3108 280.627 44.7871 280.627 52.7769L280.625 65.1236C280.625 67.515 280.627 70.1509 281.734 72.3597L272.403 72.3573C272.113 71.4918 271.93 70.5956 271.86 69.6857C269.463 72.1874 265.923 73.1588 262.536 73.1599ZM167.789 72.87C160.948 72.8697 157.563 67.4762 157.563 61.2133C157.563 54.951 160.91 49.679 167.705 49.6788C169.975 49.679 173.24 50.5677 174.873 53.1459H174.962V41.7311H178.614V72.3573H174.962V69.3646H174.873C173.679 71.7998 170.839 72.8702 167.789 72.87ZM191.538 72.8652C184.443 72.8662 181.091 67.9853 180.869 61.2085C180.869 54.5549 185.234 49.6719 191.322 49.6716C199.158 49.6716 201.59 57.0112 201.374 62.373H184.769C184.641 66.2391 186.834 69.6525 191.682 69.6521C194.67 69.6525 196.79 68.1907 197.438 65.3297L201.047 65.3273C200.051 70.2158 196.53 72.8713 191.538 72.8652ZM114.378 72.3644V41.0914H108.51L105.244 36.733L101.973 41.0914H95L101.099 33.0024L109.379 33L114.378 39.625V33.5367H123.642V72.3644H114.378ZM100.605 72.3573V44.1392H109.869V72.3573H100.605ZM203.746 72.3573V33.5367H232.412L232.415 41.6377H213.879V49.5806L229.905 49.5782V57.4036H213.879V72.3573H203.746ZM234.252 72.3309V44.1104H243.256V49.0822H243.362C244.729 45.4981 247.882 43.5919 251.872 43.5929C252.604 43.5894 253.333 43.6643 254.048 43.8181V52.2449C252.897 51.8952 251.704 51.7098 250.501 51.6939C245.93 51.6938 243.521 54.8476 243.521 58.3932L243.523 72.3309H234.252ZM168.299 69.6234C173.191 69.6229 175.085 65.4311 175.085 61.2732C175.076 56.9001 173.035 52.8744 168.066 52.8751C163.085 52.8741 161.426 57.1098 161.426 61.4457C161.426 65.5975 163.579 69.6226 168.299 69.6234ZM266.032 67.4598C270.437 67.4603 271.915 64.9633 271.699 59.1431C270.398 59.949 268.036 60.1768 265.972 60.6622C263.908 61.1486 262.16 62.0421 262.159 64.2515C262.159 66.5379 263.945 67.4601 266.032 67.4598ZM184.759 59.1551H197.484C197.311 55.6646 194.698 52.9048 191.084 52.9039C187.288 52.904 184.997 55.7651 184.759 59.1551ZM135.356 55.3502H146.884C146.691 52.1805 144.454 49.5778 141.349 49.5782C138.084 49.5783 135.908 51.9103 135.356 55.3502ZM302.927 58.713L302.926 72.3583L312.191 72.358L312.191 54.2515C312.191 50.1761 311.427 43.3234 301.996 43.323C298.62 43.3231 294.802 45.1181 293.141 48.0057L293.021 48.0057L293.02 44.1397L284.026 44.1402L284.027 72.358L293.28 72.3582L293.28 56.9618C293.28 53.8697 294.808 50.9377 298.26 50.9379C303.364 50.9385 302.926 54.847 302.927 58.713ZM343.277 61.2698L334.29 61.2696C333.869 64.2514 332.208 66.1019 329.004 66.1018C325.086 66.1013 323.502 62.3576 323.503 58.7131C323.503 54.7976 324.322 50.3965 329.496 50.3969C331.831 50.3967 333.962 52.0533 334.024 54.4714L343.038 54.4716C342.391 47.0171 336.115 43.3224 329.086 43.3223C319.983 43.323 314.256 49.7452 314.255 58.7133C314.255 67.3554 320.592 73.1707 329.087 73.1705C336.608 73.1697 342.491 68.8245 343.277 61.2698ZM373.399 63.8201L364.721 63.8205C363.852 65.8967 361.672 66.9289 359.447 66.9293C355.518 66.9292 353.282 64.3775 353.116 60.518L373.881 60.5182C374.318 50.948 369.253 43.3327 359.11 43.3332C350.781 43.3332 343.852 49.5347 343.852 58.1769C343.851 67.6363 350.122 73.18 359.348 73.1812C365.646 73.1687 371.695 70.3422 373.399 63.8201ZM353.116 55.349C353.669 51.9089 355.834 49.5789 359.109 49.5784C362.22 49.5785 364.455 52.1794 364.616 55.3492L353.116 55.349Z" fill="white"/>
<path opacity="0.61" d="M409.242 267.384C409.375 267.384 409.487 267.384 409.621 267.384C409.576 266.534 409.509 265.683 409.509 264.833C409.509 244.176 426.2 227.435 446.796 227.435C452.197 227.435 457.307 228.599 461.926 230.658C465.496 220.386 475.225 213 486.694 213C501.199 213 512.936 224.772 512.936 239.319C512.936 241.356 512.713 243.325 512.267 245.228C512.4 245.228 512.579 245.228 512.713 245.228C533.309 245.228 550 261.968 550 282.603C550 303.237 533.309 320 512.713 320H409.242C394.76 320 383 308.228 383 293.703C383 279.178 394.76 267.384 409.242 267.384Z" fill="#64B5F6"/>
<path opacity="0.61" d="M415.114 221.925H414.865C414.906 221.356 414.927 220.765 414.927 220.175C414.927 205.881 403.535 194.307 389.467 194.307C385.794 194.307 382.308 195.108 379.133 196.541C376.685 189.436 370.045 184.334 362.222 184.334C352.324 184.334 344.315 192.472 344.315 202.529C344.315 203.941 344.46 205.291 344.771 206.619H344.46C330.392 206.619 319 218.193 319 232.466C319 246.739 330.392 258.334 344.46 258.334H415.093C424.97 258.334 433 250.197 433 240.14C433 230.084 424.991 221.946 415.093 221.946" fill="#64B5F6"/>
<path opacity="0.61" d="M183.52 221.48H183.249C183.29 220.876 183.332 220.231 183.332 219.606C183.332 204.343 170.93 191.996 155.647 191.996C151.638 191.996 147.838 192.849 144.414 194.369C141.762 186.79 134.538 181.334 126.019 181.334C115.267 181.334 106.539 190.038 106.539 200.762C106.539 202.261 106.706 203.719 107.02 205.134H106.685C91.3812 205.134 79 217.482 79 232.724C79 247.966 91.3812 260.334 106.685 260.334H183.52C194.273 260.334 203 251.631 203 240.907C203 230.184 194.273 221.48 183.52 221.48Z" fill="#64B5F6"/>
<path opacity="0.61" d="M248.316 303.829C245.278 303.829 242.428 304.581 239.869 305.813C230.339 295.143 216.523 288.419 201.125 288.419C195.82 288.419 190.701 289.234 185.874 290.695C175.158 261.881 147.567 241.334 115.108 241.334C82.6486 241.334 54.1218 262.591 43.8014 292.157C43.5309 292.22 43.3228 292.282 43.0523 292.345C37.2263 284.264 27.7798 278.982 17.064 278.982C-0.64299 278.982 -15 293.389 -15 311.158C-15 328.927 -0.64299 343.334 17.064 343.334H248.316C259.178 343.334 268 334.481 268 323.582C268 312.682 259.178 303.829 248.316 303.829Z" fill="#64B5F6"/>
<path opacity="0.61" d="M214.462 160.832C213.453 160.832 212.506 161.082 211.656 161.493C208.491 157.936 203.902 155.695 198.787 155.695C197.025 155.695 195.325 155.966 193.721 156.454C190.162 146.849 180.998 140 170.216 140C159.435 140 149.959 147.085 146.531 156.941C146.441 156.962 146.372 156.983 146.282 157.003C144.347 154.31 141.21 152.549 137.65 152.549C131.769 152.549 127 157.351 127 163.275C127 169.198 131.769 174 137.65 174H214.462C218.07 174 221 171.049 221 167.416C221 163.783 218.07 160.832 214.462 160.832Z" fill="#DEEDFA"/>
<path d="M395.909 252.81H395.263C395.346 251.387 395.45 249.901 395.45 248.436C395.45 212.917 366.752 184.137 331.381 184.137C322.1 184.137 313.34 186.126 305.373 189.684C299.241 172.018 282.515 159.334 262.806 159.334C237.904 159.334 217.736 179.574 217.736 204.586C217.736 208.082 218.111 211.472 218.862 214.758H218.091C182.677 214.758 154 243.538 154 279.015C154 314.492 182.677 343.334 218.091 343.334H395.909C420.811 343.334 441 323.095 441 298.104C441 273.113 420.811 252.852 395.909 252.852" fill="#64B5F6"/>
<path d="M142.879 311.86H143.107C143.065 311.365 143.045 310.85 143.045 310.335C143.045 297.976 153.153 287.965 165.586 287.965C168.845 287.965 171.937 288.666 174.739 289.902C176.898 283.763 182.772 279.334 189.705 279.334C198.464 279.334 205.562 286.379 205.562 295.072C205.562 296.287 205.438 297.461 205.168 298.615H205.438C217.892 298.615 228 308.626 228 320.964C228 333.324 217.912 343.334 205.438 343.334H142.858C134.099 343.334 127 336.29 127 327.597C127 318.905 134.099 311.839 142.858 311.839" fill="#DEEDFA"/>
<path opacity="0.61" d="M386.971 153.626H387.067C387.067 153.415 387.048 153.205 387.048 152.994C387.048 147.827 391.239 143.617 396.425 143.617C397.784 143.617 399.066 143.904 400.234 144.421C401.133 141.837 403.583 140 406.454 140C410.09 140 413.037 142.947 413.037 146.583C413.037 147.1 412.979 147.578 412.865 148.057H412.979C418.166 148.057 422.357 152.248 422.357 157.415C422.357 162.582 418.166 166.793 412.979 166.793H386.991C383.354 166.793 380.407 163.845 380.407 160.209C380.407 156.573 383.354 153.607 386.991 153.607" fill="#64B5F6"/>
<path opacity="0.61" d="M62.4975 176.614H62.3635C62.3827 176.308 62.4018 176.001 62.4018 175.695C62.4018 168.155 56.2969 162.05 48.7567 162.05C46.7856 162.05 44.91 162.471 43.2259 163.217C41.9246 159.466 38.365 156.768 34.1738 156.768C28.8727 156.768 24.5859 161.055 24.5859 166.375C24.5859 167.121 24.6625 167.83 24.8347 168.538H24.6624C17.1222 168.538 11.0173 174.643 11.0173 182.164C11.0173 189.685 17.1222 195.809 24.6624 195.809H62.5167C67.8178 195.809 72.1237 191.522 72.1237 186.221C72.1237 180.92 67.8178 176.614 62.5167 176.614" fill="#64B5F6"/>
<path opacity="0.61" d="M525.498 186.846H525.364C525.383 186.539 525.402 186.233 525.402 185.927C525.402 178.387 519.297 172.282 511.757 172.282C509.786 172.282 507.91 172.703 506.226 173.449C504.925 169.698 501.365 167 497.174 167C491.873 167 487.586 171.287 487.586 176.607C487.586 177.353 487.662 178.062 487.835 178.77H487.662C480.122 178.77 474.017 184.875 474.017 192.396C474.017 199.917 480.122 206.041 487.662 206.041H525.517C530.818 206.041 535.124 201.754 535.124 196.453C535.124 191.152 530.818 186.846 525.517 186.846" fill="#DEEDFA"/>
<path opacity="0.61" d="M493.471 319.228H493.639C493.618 318.866 493.597 318.484 493.597 318.101C493.597 309.024 500.893 301.669 509.897 301.669C512.258 301.669 514.494 302.179 516.518 303.093C518.078 298.587 522.338 295.334 527.335 295.334C533.661 295.334 538.806 300.5 538.806 306.898C538.806 307.791 538.7 308.663 538.511 309.492H538.7C547.704 309.492 555 316.847 555 325.903C555 334.979 547.704 342.334 538.7 342.334H493.471C487.145 342.334 482 337.169 482 330.77C482 324.372 487.145 319.206 493.471 319.206" fill="#64B5F6"/>
<path d="M489.421 302.011H489.13C489.172 301.366 489.213 300.679 489.213 300.013C489.213 283.783 476.115 270.654 459.971 270.654C455.743 270.654 451.743 271.569 448.096 273.192C445.298 265.119 437.671 259.334 428.677 259.334C417.299 259.334 408.097 268.573 408.097 279.996C408.097 281.599 408.263 283.138 408.615 284.636H408.263C392.098 284.636 379 297.766 379 313.975C379 330.184 392.077 343.334 408.263 343.334H489.421C500.778 343.334 510 334.096 510 322.673C510 311.249 500.778 302.011 489.421 302.011Z" fill="#DEEDFA"/>
<path d="M29.0179 235.263H29.1332C29.1122 235.015 29.1017 234.758 29.1017 234.5C29.1017 228.321 34.2059 223.315 40.484 223.315C42.1295 223.315 43.6911 223.666 45.106 224.284C46.1961 221.214 49.1621 219 52.6628 219C57.0857 219 60.6702 222.522 60.6702 226.869C60.6702 227.476 60.6073 228.063 60.471 228.64H60.6073C66.8958 228.64 72 233.646 72 239.815C72 245.995 66.9063 251 60.6073 251H29.0074C24.5845 251 21 247.478 21 243.131C21 238.785 24.5845 235.252 29.0074 235.252" fill="#DEEDFA"/>
</g>
<defs>
<clipPath id="clip0_97_3154">
<path d="M0 0H539.2V317C539.2 328.046 530.246 337 519.2 337H20C8.95432 337 0 328.046 0 317V0Z" fill="white"/>
</clipPath>
</defs>
</svg>
