<svg width="30" height="31" viewBox="0 0 30 31" fill="none" xmlns="http://www.w3.org/2000/svg">
<g clip-path="url(#clip0_26082_80482)">
<path d="M22.8884 0.5H6.11517C5.37072 0.5 4.79272 0.972441 4.79272 1.73307V7.89606C4.94184 7.84432 5.0977 7.81565 5.25512 7.81102V1.73307C5.26233 1.52795 5.34749 1.33378 5.49253 1.19177C5.63756 1.04975 5.83106 0.97108 6.03194 0.972441H14.9654V7.83701L23.8017 7.82284H24.2132V1.73307C24.2132 0.972441 23.6352 0.5 22.8884 0.5Z" fill="#1972D2"/>
<path d="M23.3046 22.3363H6.61221C4.86004 22.3313 3.18104 21.6179 1.94206 20.352C0.703089 19.0861 0.00488071 17.3706 0 15.5804H0C0.00488071 13.7901 0.703089 12.0746 1.94206 10.8087C3.18104 9.54283 4.86004 8.82945 6.61221 8.82446H23.3878C25.14 8.82945 26.819 9.54283 28.0579 10.8087C29.2969 12.0746 29.9951 13.7901 30 15.5804C29.9622 17.3747 29.2421 19.0835 27.9923 20.3447C26.7424 21.6058 25.0611 22.3201 23.3046 22.3363ZM6.61221 9.50005C5.83609 9.49414 5.06644 9.64456 4.34724 9.94271C3.62805 10.2409 2.97341 10.6809 2.42075 11.2377C1.86808 11.7945 1.42822 12.4571 1.12631 13.1876C0.824406 13.9182 0.666363 14.7023 0.661221 15.4953V15.5804C0.655432 16.3734 0.802649 17.1597 1.09446 17.8946C1.38627 18.6294 1.81695 19.2982 2.36188 19.8629C2.90682 20.4276 3.55533 20.877 4.27034 21.1855C4.98535 21.494 5.75285 21.6554 6.52898 21.6607H23.3878C24.1807 21.6635 24.9663 21.506 25.6994 21.1973C26.4324 20.8886 27.0985 20.4347 27.6591 19.8619C28.2198 19.289 28.664 18.6085 28.9661 17.8595C29.2683 17.1105 29.4224 16.3078 29.4197 15.4977C29.4194 14.6961 29.2619 13.9028 28.9566 13.1644C28.6513 12.4261 28.2044 11.7577 27.6422 11.1986C27.08 10.6396 26.4139 10.2013 25.6832 9.90958C24.9525 9.61785 24.172 9.4786 23.3878 9.50005H6.61221Z" fill="#1972D2"/>
<path d="M8.97048 27.3299C9.13001 26.9756 8.90575 26.5173 8.47341 26.3094C8.04107 26.1016 7.5625 26.2197 7.40297 26.574C7.24345 26.9283 7.46771 27.3866 7.90236 27.5945C8.33701 27.8024 8.81096 27.6843 8.97048 27.3299Z" fill="#1972D2"/>
<path d="M10.8361 29.3803C10.4706 28.7312 10.2622 28.0024 10.2281 27.2543C10.2096 26.515 9.90443 25.8819 9.58769 25.2417C9.45891 25.0138 9.28581 24.8152 9.07906 24.6583C9.03976 24.6252 8.72533 24.4079 8.83399 24.6228C9.1982 25.2726 9.40731 26.001 9.44435 26.7488C9.46284 27.4882 9.76802 28.1213 10.0871 28.7638C10.213 28.9917 10.3838 29.1903 10.5888 29.3472C10.635 29.3779 10.9448 29.5953 10.8361 29.3803Z" fill="#1972D2"/>
<path d="M13.2222 23.4133H13.7378C13.7378 24.122 13.7378 24.7173 13.7378 24.8307C13.7467 25.0269 13.6914 25.2205 13.5806 25.381C13.2523 25.8889 11.1599 26.7204 11.7518 27.5944C11.9353 27.8412 12.1562 28.0565 12.4061 28.2322L13.1159 28.7377C13.3331 28.8917 13.5204 29.0855 13.6684 29.3094C13.7725 29.4724 13.7239 29.5456 13.5644 29.4228C12.8939 28.9503 12.1356 28.4968 11.5599 27.8897C11.1946 27.5047 10.5588 26.8574 10.9056 26.2692C11.1969 25.7732 11.6917 25.5322 12.1402 25.2086C12.1379 25.2039 13.2222 24.5944 13.2222 23.4133Z" fill="#1972D2"/>
<path d="M22.8884 30.5001H6.11517C5.37072 30.5001 4.79272 30.1009 4.79272 29.3402V23.1772C4.94184 23.229 5.0977 23.2577 5.25512 23.2623V29.3426C5.26062 29.4402 5.28527 29.5357 5.32761 29.6235C5.36994 29.7112 5.4291 29.7893 5.50155 29.8532C5.57401 29.9171 5.6583 29.9655 5.74941 29.9954C5.84052 30.0254 5.9366 30.0363 6.03194 30.0276H14.9654V23.2363L23.8017 23.1772H24.2132V29.3402C24.2132 30.1009 23.6352 30.5001 22.8884 30.5001Z" fill="#1972D2"/>
<path d="M8.78543 13.4C8.69878 13.3014 8.59919 13.2156 8.4895 13.1449C8.35598 13.0576 8.21517 12.9825 8.06872 12.9205C7.90422 12.8515 7.73399 12.7978 7.56009 12.7598C7.37025 12.7173 7.17645 12.6959 6.9821 12.6961C6.58061 12.6623 6.17957 12.7662 5.8423 12.9913C5.72646 13.0873 5.63385 13.2092 5.57169 13.3477C5.50954 13.4862 5.47951 13.6375 5.48395 13.7898C5.47549 13.9537 5.51065 14.117 5.58568 14.2622C5.66306 14.3932 5.77318 14.5009 5.90473 14.574C6.0771 14.671 6.2603 14.7463 6.45035 14.7984L7.23179 14.9969C7.54486 15.0655 7.85366 15.153 8.15658 15.2591C8.4083 15.3428 8.64665 15.4638 8.86404 15.6181C9.05853 15.7548 9.21729 15.9381 9.32643 16.152C9.43897 16.4018 9.49129 16.6756 9.47902 16.9504C9.48582 17.2438 9.42149 17.5343 9.29175 17.7961C9.16928 18.0305 8.99516 18.2327 8.78312 18.3866C8.54679 18.5514 8.2814 18.6677 8.00168 18.7291C7.69583 18.8115 7.38154 18.8567 7.06533 18.8638C6.56876 18.8693 6.07481 18.7895 5.60417 18.6276C5.14863 18.4604 4.72587 18.2116 4.35571 17.8929L4.76262 17.1677C4.88016 17.2914 5.01127 17.4008 5.15334 17.4937C5.32522 17.6103 5.50799 17.7092 5.69896 17.789C5.91151 17.8776 6.13121 17.9471 6.35556 17.9969C6.59615 18.0516 6.84198 18.0785 7.08845 18.0772C7.47457 18.1015 7.8595 18.013 8.19819 17.8221C8.38682 17.6826 8.51786 17.4764 8.56573 17.2436C8.61361 17.0109 8.57489 16.7682 8.45713 16.563C8.36496 16.4166 8.23967 16.2951 8.09184 16.2087C7.89657 16.0992 7.68939 16.0136 7.47455 15.9535L6.69311 15.7291C6.39166 15.6557 6.09449 15.565 5.803 15.4575C5.5635 15.3795 5.33732 15.2639 5.13253 15.115C4.96548 14.9877 4.83137 14.8206 4.74181 14.6283C4.64889 14.4128 4.60389 14.1788 4.61003 13.9433C4.60456 13.6456 4.66626 13.3505 4.79036 13.0811C4.90977 12.8475 5.07787 12.6435 5.28281 12.4835C5.51476 12.3008 5.78062 12.1682 6.06425 12.0937C6.37439 12.006 6.695 11.9631 7.01678 11.9661C7.81568 11.9573 8.59136 12.2405 9.2039 12.7646L8.78543 13.4Z" fill="#1972D2"/>
<path d="M12.6117 18.8661C12.2628 18.8702 11.9171 18.7994 11.5967 18.6582C11.3021 18.5281 11.0363 18.3384 10.8153 18.1007C10.598 17.8697 10.4255 17.5988 10.3067 17.3023C10.1856 16.9846 10.1244 16.6464 10.1263 16.3054C10.1234 15.9644 10.1847 15.626 10.3067 15.3086C10.4929 14.8403 10.8134 14.4404 11.2259 14.1613C11.6385 13.8823 12.1239 13.7371 12.6186 13.7448C13.1138 13.7309 13.6005 13.8777 14.0089 14.1642C14.4172 14.4507 14.7262 14.8621 14.8913 15.3393C15.0062 15.6478 15.0642 15.9754 15.0624 16.3054V16.4968C15.0652 16.5416 15.0652 16.5866 15.0624 16.6314H11.0026C11.0189 16.8661 11.0768 17.0959 11.1736 17.3094C11.2632 17.5067 11.3878 17.6853 11.5412 17.8361C11.6887 17.9814 11.8611 18.0975 12.0499 18.1787C12.24 18.2614 12.4443 18.3048 12.651 18.3062C12.7988 18.3054 12.9458 18.284 13.0879 18.2424C13.2294 18.2027 13.366 18.1465 13.4948 18.0747C13.6187 18.0077 13.7317 17.9216 13.8301 17.8196C13.9244 17.7211 13.999 17.6048 14.0497 17.4771L14.7595 17.6755C14.6766 17.8636 14.5633 18.0361 14.4243 18.1857C14.2827 18.3417 14.12 18.4762 13.9411 18.585C13.7476 18.6999 13.54 18.7881 13.3238 18.8472C13.0884 18.8866 12.8488 18.893 12.6117 18.8661ZM14.2902 15.9393C14.2739 15.7121 14.2159 15.4901 14.1191 15.285C14.0277 15.0936 13.9032 14.9207 13.7515 14.7747C13.5204 14.5568 13.234 14.4095 12.925 14.3498C12.6159 14.2901 12.2967 14.3203 12.0036 14.4369C11.8143 14.5137 11.6415 14.6277 11.495 14.7724C11.3451 14.9178 11.2235 15.091 11.1366 15.2826C11.0436 15.4888 10.988 15.7105 10.9725 15.9369L14.2902 15.9393Z" fill="#1972D2"/>
<path d="M23.3623 18.7693H22.5347V15.9772C22.5681 15.5766 22.4878 15.1748 22.3035 14.8197C22.225 14.6968 22.1166 14.597 21.9889 14.5299C21.8612 14.4628 21.7186 14.4308 21.5752 14.437C21.2383 14.4355 20.9137 14.5666 20.6689 14.8031C20.3962 15.0576 20.1984 15.3849 20.0978 15.748V18.7693H19.2563V15.9772C19.2891 15.5744 19.2089 15.1704 19.0251 14.8126C18.9444 14.6885 18.833 14.5885 18.7023 14.5225C18.5716 14.4566 18.4261 14.4271 18.2806 14.437C17.9483 14.4386 17.6285 14.5666 17.3836 14.7961C17.1194 15.052 16.9324 15.3799 16.8449 15.7409V18.7693H15.9849V13.7756H16.7663V14.8764C16.95 14.5277 17.2193 14.2338 17.5477 14.0236C17.8717 13.8236 18.2444 13.7212 18.6228 13.7283C18.979 13.7101 19.3284 13.8328 19.5985 14.0709C19.8419 14.3015 19.9996 14.6112 20.0447 14.9472C20.2084 14.5826 20.4714 14.2737 20.8022 14.0576C21.133 13.8415 21.5177 13.7272 21.9104 13.7283C22.1564 13.7202 22.4005 13.7755 22.6202 13.889C22.8106 13.9897 22.9704 14.1417 23.0826 14.3283C23.1966 14.5334 23.2748 14.7573 23.3138 14.9898C23.3644 15.2528 23.3907 15.5201 23.3924 15.7882L23.3623 18.7693Z" fill="#1972D2"/>
<path d="M24.5737 18.7693V17.7015H25.2673V18.7716L24.5737 18.7693Z" fill="#1972D2"/>
</g>
<defs>
<clipPath id="clip0_26082_80482">
<rect width="30" height="30" fill="white" transform="translate(0 0.5)"/>
</clipPath>
</defs>
</svg>
