<svg width="540" height="337" viewBox="0 0 540 337" fill="none" xmlns="http://www.w3.org/2000/svg">
<path d="M20.0591 337C14.7464 336.99 9.65248 334.896 5.89457 331.177C2.13461 327.459 0.0166598 322.416 0 317.152L0 136.018L539.199 136.018V317.152C539.185 322.412 537.069 327.453 533.316 331.171C529.563 334.891 524.479 336.985 519.169 337H20.0591Z" fill="#B90845"/>
<path d="M0.0270386 19.8446L0.0270386 136.019L539.2 136.019V19.8446C539.184 14.5862 537.07 9.54683 533.317 5.82845C529.564 2.11016 524.477 0.0157815 519.17 0L20.0598 0C14.7524 0.0158053 9.66596 2.11007 5.91283 5.82845C2.1597 9.54685 0.0429629 14.5865 0.0270386 19.8446Z" fill="#2D333D"/>
<path d="M449.5 107C470.763 107 488 89.763 488 68.5C488 47.237 470.763 30 449.5 30C428.237 30 411 47.237 411 68.5C411 89.763 428.237 107 449.5 107Z" fill="#B90845"/>
<path d="M431.91 89.0138V56.7775C429.425 58.7527 425.494 60.6705 422.776 61.8889L420 55.6056C424.279 53.808 429.425 51.0788 433.471 48H440.583V89.0138H431.91ZM458.498 90C453.754 90 450.114 88.9564 446.993 87.0386L450.285 80.6488C452.542 82.2169 454.855 83.2632 458.034 83.2632C461.212 83.2632 465.203 81.3509 465.203 76.5236C465.203 73.5595 463.237 69.4945 455.723 69.377C453.409 69.377 450.693 69.3196 449.361 69.3196L450.992 48.0109H472.434V54.8543H457.754L457.177 62.6402C457.408 62.6402 457.928 62.6975 458.333 62.6975C469.479 63.2193 474 69.5518 474 75.7095C473.992 83.5528 467.812 90 458.498 90Z" fill="white"/>
<path d="M354.5 106.931C375.763 106.931 393 89.709 393 68.4667C393 47.2219 375.763 30 354.5 30C333.237 30 316 47.2219 316 68.4667C316 89.709 333.237 106.931 354.5 106.931Z" stroke="white" stroke-width="5"/>
<mask id="path-6-inside-1_119_551" fill="white">
<path d="M374.988 86.8734V50.982C374.988 48.9243 373.855 46.764 370.456 46.764C367.885 46.764 366.853 47.8967 365.723 50.157L354.605 73.3019H354.503L343.279 50.157C342.146 47.8967 341.118 46.7741 338.544 46.7741C335.148 46.7741 334.014 48.9243 334.014 50.982V86.8734C334.014 88.8311 335.56 89.9637 337.414 89.9637C339.058 89.9637 340.9 88.8311 340.9 86.8734V60.1255H341.005L351.208 80.9103C351.926 82.3604 352.856 83.173 354.503 83.173C356.15 83.173 357.074 82.3479 357.794 80.9103L367.986 60.1255H368.091V86.8659C368.091 88.8211 369.942 89.9538 371.592 89.9538C373.443 89.9538 374.988 88.8211 374.988 86.8659"/>
</mask>
<path d="M374.988 86.8734V50.982C374.988 48.9243 373.855 46.764 370.456 46.764C367.885 46.764 366.853 47.8967 365.723 50.157L354.605 73.3019H354.503L343.279 50.157C342.146 47.8967 341.118 46.7741 338.544 46.7741C335.148 46.7741 334.014 48.9243 334.014 50.982V86.8734C334.014 88.8311 335.56 89.9637 337.414 89.9637C339.058 89.9637 340.9 88.8311 340.9 86.8734V60.1255H341.005L351.208 80.9103C351.926 82.3604 352.856 83.173 354.503 83.173C356.15 83.173 357.074 82.3479 357.794 80.9103L367.986 60.1255H368.091V86.8659C368.091 88.8211 369.942 89.9538 371.592 89.9538C373.443 89.9538 374.988 88.8211 374.988 86.8659" fill="white"/>
<path d="M365.723 50.157L364.829 49.7098L364.825 49.7168L364.822 49.724L365.723 50.157ZM354.605 73.3019V74.3019H355.234L355.506 73.735L354.605 73.3019ZM354.503 73.3019L353.603 73.7383L353.876 74.3019H354.503V73.3019ZM343.279 50.157L344.179 49.7206L344.173 49.7088L343.279 50.157ZM340.9 60.1255V59.1255H339.9V60.1255H340.9ZM341.005 60.1255L341.902 59.6849L341.628 59.1255H341.005V60.1255ZM351.208 80.9103L350.31 81.3509L350.312 81.3538L351.208 80.9103ZM357.794 80.9103L358.689 81.3583L358.692 81.3505L357.794 80.9103ZM367.986 60.1255V59.1255H367.363L367.089 59.6853L367.986 60.1255ZM368.091 60.1255H369.091V59.1255H368.091V60.1255ZM374.988 86.8734H375.988V50.982H374.988H373.988V86.8734H374.988ZM374.988 50.982H375.988C375.988 49.7841 375.659 48.4673 374.745 47.4373C373.809 46.3843 372.38 45.764 370.456 45.764V46.764V47.764C371.932 47.764 372.768 48.2239 373.249 48.7655C373.751 49.3301 373.988 50.1222 373.988 50.982H374.988ZM370.456 46.764V45.764C369.012 45.764 367.874 46.0866 366.932 46.8264C366.028 47.5362 365.406 48.5549 364.829 49.7098L365.723 50.157L366.618 50.6042C367.17 49.4988 367.63 48.8211 368.167 48.3995C368.666 48.0078 369.329 47.764 370.456 47.764V46.764ZM365.723 50.157L364.822 49.724L353.703 72.8689L354.605 73.3019L355.506 73.735L366.625 50.59L365.723 50.157ZM354.605 73.3019V72.3019H354.503V73.3019V74.3019H354.605V73.3019ZM354.503 73.3019L355.403 72.8656L344.179 49.7206L343.279 50.157L342.38 50.5933L353.603 73.7383L354.503 73.3019ZM343.279 50.157L344.173 49.7088C343.595 48.554 342.973 47.5374 342.068 46.8301C341.125 46.0932 339.987 45.7741 338.544 45.7741V46.7741V47.7741C339.675 47.7741 340.338 48.0163 340.836 48.4058C341.372 48.8249 341.831 49.4997 342.386 50.6051L343.279 50.157ZM338.544 46.7741V45.7741C336.623 45.7741 335.194 46.391 334.259 47.4414C333.344 48.469 333.014 49.784 333.014 50.982H334.014H335.014C335.014 50.1223 335.252 49.3333 335.752 48.7715C336.233 48.2323 337.069 47.7741 338.544 47.7741V46.7741ZM334.014 50.982H333.014V86.8734H334.014H335.014V50.982H334.014ZM334.014 86.8734H333.014C333.014 88.1384 333.524 89.1912 334.37 89.9132C335.198 90.6206 336.29 90.9637 337.414 90.9637V89.9637V88.9637C336.683 88.9637 336.076 88.7406 335.668 88.3923C335.278 88.0586 335.014 87.5662 335.014 86.8734H334.014ZM337.414 89.9637V90.9637C338.449 90.9637 339.542 90.6118 340.395 89.9365C341.265 89.2466 341.9 88.1997 341.9 86.8734H340.9H339.9C339.9 87.5049 339.614 88.0031 339.152 88.369C338.672 88.7494 338.023 88.9637 337.414 88.9637V89.9637ZM340.9 86.8734H341.9V60.1255H340.9H339.9V86.8734H340.9ZM340.9 60.1255V61.1255H341.005V60.1255V59.1255H340.9V60.1255ZM341.005 60.1255L340.107 60.5662L350.31 81.3509L351.208 80.9103L352.106 80.4696L341.902 59.6849L341.005 60.1255ZM351.208 80.9103L350.312 81.3538C350.71 82.158 351.211 82.8791 351.918 83.3939C352.643 83.9216 353.502 84.173 354.503 84.173V83.173V82.173C353.856 82.173 353.427 82.0181 353.095 81.777C352.746 81.5229 352.424 81.1127 352.104 80.4667L351.208 80.9103ZM354.503 83.173V84.173C355.507 84.173 356.365 83.9166 357.087 83.3875C357.791 82.8721 358.29 82.153 358.689 81.3583L357.794 80.9103L356.9 80.4622C356.578 81.1052 356.256 81.5175 355.905 81.774C355.574 82.0168 355.146 82.173 354.503 82.173V83.173ZM357.794 80.9103L358.692 81.3505L368.884 60.5658L367.986 60.1255L367.089 59.6853L356.897 80.47L357.794 80.9103ZM367.986 60.1255V61.1255H368.091V60.1255V59.1255H367.986V60.1255ZM368.091 60.1255H367.091V86.8659H368.091H369.091V60.1255H368.091ZM368.091 86.8659H367.091C367.091 88.1932 367.73 89.2397 368.604 89.9282C369.458 90.6024 370.555 90.9538 371.592 90.9538V89.9538V88.9538C370.979 88.9538 370.325 88.7387 369.842 88.3578C369.377 87.9912 369.091 87.4938 369.091 86.8659H368.091ZM371.592 89.9538V90.9538C372.714 90.9538 373.806 90.6104 374.634 89.9035C375.478 89.182 375.988 88.13 375.988 86.8659H374.988H373.988C373.988 87.557 373.726 88.0489 373.335 88.3826C372.927 88.7307 372.32 88.9538 371.592 88.9538V89.9538Z" fill="white" mask="url(#path-6-inside-1_119_551)"/>
<path d="M34.105 207V173.07H45.625C52.735 173.07 56.335 176.085 56.335 181.755C56.335 185.355 54.895 187.74 51.835 188.91C55.57 189.945 57.73 192.735 57.73 197.235C57.73 203.445 53.59 207 46.12 207H34.105ZM44.05 179.01H41.035V187.335H44.05C47.56 187.335 49.225 185.85 49.225 183.015C49.225 180.18 47.56 179.01 44.05 179.01ZM44.725 192.6H41.035V201.06H44.905C48.775 201.06 50.575 199.71 50.575 196.47C50.575 193.59 49.18 192.6 44.725 192.6ZM62.2739 207V173.025H69.2039V207H62.2739ZM75.4136 207V173.07H95.3936V179.055H82.3436V186.885H93.0536V192.78H82.3436V201.015H95.7536V207H75.4136ZM100.506 207V173.07H106.401L122.016 193.995V173.07H128.631V207H122.691L107.166 185.625V207H100.506ZM161.198 173.07L150.488 207H142.298L131.903 173.07H139.553L146.663 198.675L153.998 173.07H161.198ZM164.359 207V173.07H184.339V179.055H171.289V186.885H181.999V192.78H171.289V201.015H184.699V207H164.359ZM189.452 207V173.07H195.347L210.962 193.995V173.07H217.577V207H211.637L196.112 185.625V207H189.452ZM236.373 207.495C228.453 207.495 223.458 203.13 223.458 194.67V173.07H230.343V193.86C230.343 199.44 232.413 201.555 236.733 201.555C241.188 201.555 242.718 199.125 242.718 193.41V173.07H249.603V193.32C249.603 202.32 244.698 207.495 236.373 207.495ZM255.458 207V173.07H275.438V179.055H262.388V186.885H273.098V192.78H262.388V201.015H275.798V207H255.458ZM291.205 205.515V198.945C293.725 200.475 297.91 201.555 301.015 201.555C304.525 201.555 306.325 200.07 306.325 197.64C306.325 195.39 304.48 194.445 299.755 193.05C294.175 191.385 290.935 188.37 290.935 183.105C290.935 176.715 295.885 172.53 302.86 172.53C306.1 172.53 309.655 173.34 311.86 174.69V180.99C309.88 179.55 306.055 178.515 303.04 178.515C299.665 178.515 297.775 179.82 297.775 182.07C297.775 184.41 299.8 185.625 304.12 186.975C309.88 188.82 313.075 191.655 313.075 197.055C313.075 203.715 308.17 207.495 300.79 207.495C297.505 207.495 294.085 206.775 291.205 205.515ZM330.284 207.495C322.364 207.495 317.369 203.13 317.369 194.67V173.07H324.254V193.86C324.254 199.44 326.324 201.555 330.644 201.555C335.099 201.555 336.629 199.125 336.629 193.41V173.07H343.514V193.32C343.514 202.32 338.609 207.495 330.284 207.495ZM349.369 207V173.07H359.269C367.369 173.07 371.869 176.895 371.869 184.14C371.869 188.64 370.024 192.105 366.784 194.085L373.579 207H365.839L360.394 196.02C359.944 196.065 359.494 196.065 358.999 196.065H356.299V207H349.369ZM358.279 179.055H356.299V190.08H358.324C362.689 190.08 364.804 188.235 364.804 184.32C364.804 180.54 362.824 179.055 358.279 179.055ZM389.359 207V173.07H396.289V201.015H408.619V207H389.359ZM409.063 207L419.728 173.07H428.053L438.313 207H430.708L428.638 199.485H418.063L415.858 207H409.063ZM419.818 193.545H426.973L423.508 181.035L419.818 193.545ZM34.105 261V227.07H41.035V255.015H53.365V261H34.105ZM56.8687 261V227.025H63.7987V261H56.8687ZM84.3183 261.54C74.1933 261.54 68.4333 255.375 68.4333 244.665C68.4333 233.415 74.8233 226.53 85.3533 226.53C89.1333 226.53 92.4183 227.295 94.8933 228.6V235.44C92.1033 233.55 88.5933 232.605 85.4883 232.605C79.7283 232.605 75.7233 236.52 75.7233 243.945C75.7233 250.92 79.0533 255.6 85.2183 255.6C86.3883 255.6 87.6483 255.51 88.9533 255.24V247.41H84.1383V241.65H95.8383V258.975C92.9133 260.55 88.7283 261.54 84.3183 261.54ZM101.122 261V227.07H107.017L122.632 247.995V227.07H129.247V261H123.307L107.782 239.625V261H101.122ZM135.443 261V227.07H155.423V233.055H142.373V240.885H153.083V246.78H142.373V255.015H155.783V261H135.443ZM183.07 261H176.32V234.855L169.84 237.69V232.2L179.245 227.07H183.07V261ZM195.659 256.32C199.394 256.32 201.779 253.98 201.779 250.335C201.779 246.87 199.619 244.89 196.199 244.89C194.939 244.89 193.634 245.16 192.374 245.7L188.684 244.665L190.394 227.07H208.304L207.539 232.92H195.434L194.624 240.21C195.569 240.075 196.559 239.985 197.549 239.985C204.254 239.985 208.484 243.675 208.484 250.02C208.484 257.265 202.949 261.45 195.794 261.45C193.094 261.45 190.529 260.865 188.279 259.83V254.205C190.799 255.555 193.499 256.32 195.659 256.32Z" fill="white"/>
</svg>
