<svg width="540" height="337" viewBox="0 0 540 337" fill="none" xmlns="http://www.w3.org/2000/svg">
<path d="M20.0591 337C14.7464 336.99 9.65248 334.896 5.89457 331.177C2.13461 327.458 0.0166598 322.415 0 317.152L0 136.018L539.199 136.018V317.152C539.185 322.411 537.069 327.453 533.316 331.171C529.563 334.891 524.479 336.985 519.169 337H20.0591Z" fill="#EEB13E"/>
<path d="M0.0270386 19.8446L0.0270386 136.019L539.2 136.019V19.8446C539.184 14.5862 537.07 9.54683 533.317 5.82845C529.564 2.11016 524.477 0.0157815 519.17 0L20.0598 0C14.7524 0.0158053 9.66596 2.11007 5.91283 5.82845C2.1597 9.54685 0.0429629 14.5865 0.0270386 19.8446Z" fill="#2D333D"/>
<path d="M345.823 91.022C345.721 91.0224 345.619 91.021 345.517 91.0171C344.367 91.0448 343.225 90.8264 342.163 90.3774C341.246 89.9769 340.429 89.3696 339.777 88.6017C339.112 87.8037 338.619 86.8732 338.329 85.8702C337.989 84.7448 337.802 83.5791 337.771 82.4028C337.758 81.2401 337.946 80.0846 338.329 78.9897C338.679 77.9942 339.214 77.0765 339.905 76.2854C340.575 75.5287 341.394 74.9215 342.308 74.5072C343.265 74.0739 344.302 73.857 345.35 73.87C346.6 73.8213 347.839 74.1369 348.922 74.7764C349.846 75.3557 350.625 76.144 351.202 77.0806C351.774 78.0158 352.176 79.0519 352.386 80.1332C352.6 81.166 352.689 82.2199 352.65 83.2746H340.577C340.555 83.9673 340.641 84.6587 340.827 85.3244C341.008 85.9525 341.317 86.5337 341.734 87.031C342.169 87.5436 342.712 87.9501 343.322 88.2214C344.043 88.5311 344.819 88.6832 345.602 88.6659C346.582 88.7077 347.548 88.428 348.362 87.8682C349.119 87.2766 349.626 86.414 349.781 85.4553H352.405C352.17 87.0912 351.336 88.5761 350.072 89.6143C348.832 90.5253 347.346 91.0161 345.823 91.022ZM280.461 91.0146C279.316 91.0146 278.171 90.7979 277.086 90.3651C276.142 89.9533 275.301 89.3336 274.621 88.5499C273.942 87.7605 273.431 86.8363 273.123 85.8357C272.781 84.7469 272.614 83.6082 272.625 82.4645C272.616 81.3185 272.782 80.1771 273.123 79.0835C273.432 78.0782 273.943 77.1473 274.621 76.3521C275.302 75.5665 276.143 74.9427 277.086 74.5245C279.252 73.6372 281.672 73.6381 283.837 74.5245C284.774 74.9466 285.609 75.5692 286.285 76.3521C286.965 77.1477 287.474 78.0766 287.783 79.0835C288.123 80.1767 288.291 81.3185 288.281 82.4645C288.293 83.608 288.125 84.7449 287.783 85.8332C287.474 86.834 286.963 87.7603 286.285 88.5499C285.608 89.3305 284.775 89.951 283.837 90.3651C282.752 90.7981 281.607 91.0146 280.461 91.0146ZM299.102 91.0146C298.659 91.0079 298.218 90.9664 297.78 90.8887C297.283 90.8033 296.794 90.6633 296.325 90.4737C295.839 90.2786 295.383 90.0167 294.967 89.6933C294.536 89.3593 294.172 88.9461 293.895 88.4708H293.832V90.6664L291.176 90.6688V67.9847H293.832V76.4657H293.895C294.316 75.5686 295.05 74.8612 295.952 74.48C296.93 74.0577 297.98 73.8462 299.042 73.8601C300.166 73.8337 301.282 74.0725 302.301 74.5591C303.202 75.0039 303.991 75.6491 304.61 76.4484C305.239 77.2663 305.709 78.1996 305.995 79.1971C306.314 80.2681 306.473 81.3807 306.465 82.4991C306.472 83.6172 306.318 84.732 306.012 85.806C305.734 86.7935 305.27 87.7169 304.644 88.5227C304.021 89.3026 303.231 89.9255 302.335 90.3478C301.32 90.8109 300.215 91.0396 299.102 91.0146ZM249.85 90.6688L247.201 90.6664V74.2405H249.694V76.6534H249.76C250.607 75.3863 251.874 74.473 253.327 74.0775C254.782 73.6815 256.325 73.8304 257.681 74.4973C258.094 74.7214 258.461 75.0259 258.755 75.3963C259.049 75.7678 259.27 76.1965 259.398 76.6558C259.919 75.7869 260.655 75.0744 261.532 74.5887C262.429 74.1014 263.433 73.8507 264.45 73.8601C265.191 73.8522 265.934 73.9412 266.654 74.1269C267.263 74.2875 267.834 74.575 268.33 74.969C268.808 75.3625 269.183 75.8714 269.419 76.4484C269.698 77.1379 269.833 77.8799 269.812 78.6242L269.81 90.617H267.161V79.8417C267.162 79.3631 267.121 78.885 267.038 78.4142C266.964 78.0047 266.804 77.6152 266.569 77.2757C266.326 76.934 265.998 76.664 265.619 76.4953C265.119 76.2863 264.581 76.1868 264.042 76.2088C263.477 76.176 262.913 76.2606 262.381 76.4558C261.851 76.6505 261.364 76.9564 260.95 77.3498C260.57 77.7526 260.277 78.229 260.084 78.7526C259.892 79.2762 259.807 79.8345 259.835 80.3925V90.6392H257.184V79.864C257.189 79.3737 257.142 78.8858 257.045 78.4068C256.959 77.9982 256.793 77.6107 256.558 77.2683C256.323 76.9362 256.007 76.6744 255.641 76.5076C255.169 76.3134 254.663 76.222 254.155 76.2385C253.465 76.2173 252.784 76.381 252.175 76.7126C251.66 76.9978 251.204 77.3841 250.834 77.8487C250.509 78.2633 250.255 78.73 250.085 79.2317C249.946 79.613 249.868 80.0154 249.85 80.4221V90.6688ZM309.434 90.6664V74.2405H312.082V90.6664H309.434ZM316.045 90.6664V67.9847H318.696V90.6664H316.045ZM322.659 90.6664L322.656 74.2405H325.307V90.6664H322.659ZM333.983 90.6664C333.39 90.6743 332.798 90.6247 332.214 90.5182C331.782 90.451 331.375 90.2725 331.031 89.9971C330.71 89.7117 330.475 89.3376 330.359 88.9203C330.197 88.3195 330.124 87.6976 330.141 87.0755V76.6262L327.398 76.6237V74.2405H330.141V69.3159L332.797 69.3184V74.2405H336.01V76.6262H332.797V86.8013C332.788 87.0591 332.813 87.3154 332.874 87.5644C332.917 87.7444 333.022 87.9031 333.17 88.009C333.352 88.1289 333.561 88.2001 333.776 88.2189C334.114 88.2526 334.453 88.2678 334.793 88.2658H336.01V90.6664H333.983ZM280.461 88.6832C281.135 88.6836 281.802 88.5401 282.419 88.2634C283.033 87.9893 283.58 87.5852 284.027 87.0755C284.51 86.513 284.878 85.8518 285.101 85.1392C285.623 83.411 285.624 81.5624 285.101 79.8343C284.875 79.1157 284.509 78.4522 284.027 77.8783C283.583 77.3617 283.033 76.9485 282.416 76.6706C281.799 76.3967 281.134 76.2555 280.461 76.2557C279.788 76.2554 279.122 76.3974 278.504 76.6706C277.888 76.9491 277.339 77.3592 276.894 77.8759C276.412 78.4497 276.049 79.1151 275.822 79.8343C275.301 81.5632 275.301 83.4107 275.822 85.1392C276.046 85.852 276.411 86.5127 276.896 87.0755C277.341 87.5853 277.89 87.992 278.504 88.2658C279.121 88.542 279.787 88.6839 280.461 88.6832ZM298.525 88.6437C298.626 88.6463 298.729 88.6449 298.831 88.6412C299.628 88.6679 300.418 88.4822 301.122 88.1004C301.723 87.7541 302.23 87.2635 302.602 86.6704C302.988 86.0476 303.265 85.359 303.414 84.6379C303.583 83.867 303.666 83.0801 303.664 82.2892C303.664 81.5312 303.563 80.7775 303.368 80.0467C303.183 79.3465 302.878 78.6827 302.464 78.0932C302.056 77.5194 301.523 77.053 300.904 76.7274C300.211 76.3741 299.443 76.1994 298.668 76.2212C297.876 76.1948 297.09 76.3813 296.388 76.7571C295.782 77.1086 295.261 77.5904 294.863 78.1722C294.456 78.7739 294.165 79.4488 294.007 80.1603C293.826 80.9056 293.735 81.6696 293.737 82.4374C293.736 83.2236 293.83 84.0075 294.016 84.7712C294.189 85.4842 294.491 86.1576 294.906 86.7569C295.321 87.3351 295.861 87.8078 296.483 88.1399C297.122 88.4546 297.817 88.6259 298.525 88.6437ZM340.577 80.9012H349.844C349.801 80.276 349.66 79.6616 349.424 79.0835C349.197 78.5337 348.868 78.0362 348.457 77.6116C348.042 77.1943 347.555 76.8599 347.021 76.6262C346.442 76.3767 345.82 76.2539 345.192 76.2631C344.556 76.2526 343.923 76.3754 343.337 76.6262C342.802 76.8592 342.32 77.2008 341.918 77.6289C341.521 78.0584 341.206 78.5577 340.984 79.1033C340.754 79.6761 340.616 80.2833 340.577 80.9012ZM345.122 71.3509L343.126 71.3485L346.123 66.2041H349.521L345.122 71.3509ZM309.434 71.2867V67.9847H312.082V71.2867H309.434ZM322.656 71.2867V67.9847H325.307V71.2867H322.656ZM367.133 88.3439C367.562 87.5946 367.774 86.7362 367.743 85.8681C367.766 85.1824 367.609 84.5032 367.289 83.899C366.993 83.3744 366.589 82.9226 366.105 82.5735C365.589 82.2105 365.024 81.9261 364.428 81.7305C363.786 81.5168 363.136 81.336 362.477 81.1898C361.856 81.0408 361.23 80.8989 360.604 80.7632C360.034 80.6394 359.473 80.4703 358.928 80.2562C358.474 80.0818 358.058 79.8224 357.698 79.4939C357.543 79.349 357.419 79.1738 357.336 78.9772C357.252 78.7806 357.21 78.569 357.211 78.3549C357.195 77.9851 357.306 77.6208 357.524 77.3243C357.741 77.0503 358.019 76.8311 358.336 76.6873C358.69 76.5203 359.066 76.4073 359.453 76.3511C359.851 76.2904 360.253 76.2595 360.655 76.2608C361.09 76.2597 361.526 76.3073 361.951 76.4024C362.363 76.491 362.757 76.6471 363.12 76.863C363.47 77.0719 363.77 77.3605 363.992 77.706C364.236 78.1016 364.376 78.5549 364.399 79.0214L367.049 79.0214C367.021 78.1534 366.81 77.3038 366.428 76.5276C366.094 75.8857 365.605 75.3397 365.009 74.9396C364.385 74.5349 363.691 74.2551 362.963 74.1149C362.131 73.9485 361.285 73.8684 360.437 73.8756C359.717 73.8786 359 73.9678 358.302 74.1427C357.617 74.311 356.963 74.5911 356.368 74.974C355.797 75.339 355.314 75.8307 354.959 76.4146C354.578 77.0553 354.385 77.7941 354.4 78.5434C354.345 79.4396 354.622 80.3256 355.177 81.024C355.717 81.6292 356.384 82.1028 357.128 82.4078C357.952 82.7357 358.806 82.9822 359.677 83.1425C360.594 83.3181 361.437 83.5231 362.22 83.7455C362.911 83.9271 363.57 84.2223 364.171 84.6165C364.424 84.7889 364.629 85.0275 364.766 85.3049C364.902 85.5834 364.964 85.8932 364.948 86.2049C364.967 86.6542 364.836 87.0982 364.573 87.4623C364.324 87.7887 363.997 88.0463 363.623 88.2076C363.22 88.3823 362.795 88.5002 362.359 88.5552C361.926 88.6171 361.489 88.6493 361.051 88.652C360.523 88.6537 359.994 88.5998 359.476 88.4922C358.992 88.3964 358.528 88.2196 358.101 87.9686C357.699 87.7254 357.362 87.3881 357.116 86.9839C356.856 86.5255 356.717 86.006 356.714 85.4756L354.059 85.4753C354.075 86.3753 354.288 87.2603 354.685 88.0657C355.041 88.7497 355.555 89.3363 356.183 89.773C356.838 90.2192 357.567 90.5368 358.335 90.7123C359.175 90.9042 360.034 90.9992 360.895 90.9968C361.717 90.9955 362.537 90.9154 363.343 90.7573C364.133 90.6169 364.89 90.3324 365.579 89.915C366.209 89.5208 366.742 88.9839 367.133 88.3439Z" fill="white"/>
<path d="M393.605 91.04L432.309 91.0404C436.59 91.0282 440.693 89.3242 443.721 86.3022C446.748 83.2786 448.455 79.1831 448.466 74.9072L448.467 36.2752C448.457 31.9989 446.753 27.8995 443.725 24.8742C440.697 21.8489 436.593 20.1438 432.309 20.1318L393.605 20.1326C389.322 20.1455 385.219 21.8506 382.191 24.8756C379.164 27.9006 377.458 31.9994 377.448 36.2759L377.448 74.9186C377.463 79.1921 379.17 83.2859 382.197 86.3063C385.225 89.3258 389.326 91.0287 393.605 91.04ZM406.918 33.463C408.608 29.8298 412.293 27.9615 415.16 29.2839C418.028 30.6052 418.98 34.6329 417.295 38.2834C415.611 41.9341 411.921 43.785 409.053 42.4636C406.186 41.1412 405.239 37.1081 406.918 33.463ZM393.037 55.8559C399.047 49.4498 404.462 47.8008 411.69 46.7209C418.918 45.6411 421.577 46.0571 430.157 41.738C432.512 40.5562 431.847 41.968 430.343 43.5653C424.332 49.9725 418.912 51.6201 411.69 52.7003C404.467 53.7804 401.803 53.3641 393.222 57.6843C390.868 58.865 391.538 57.4535 393.037 55.8559ZM391.91 80.7803C396.045 75.088 399.391 70.436 403.386 65.081C408.416 58.2861 415.876 53.9603 421.976 62.4322C427.656 70.306 433.942 78.941 435.745 81.416C435.988 81.7536 435.835 82.1302 435.317 82.1691C432.444 82.3715 425.847 82.828 423.673 79.8518C420.523 75.5431 416.98 70.5712 414.095 66.6055C411.611 63.1851 408.011 62.8474 405.6 66.161C402.912 69.8626 398.625 75.7229 396.907 78.0408C395.865 79.5281 394.536 80.792 392.997 81.7591C391.673 82.5631 390.941 82.0962 391.893 80.7806L391.91 80.7803Z" fill="white"/>
<path d="M435.875 81.7884C435.844 81.9846 435.664 82.1424 435.34 82.1667C432.467 82.369 425.869 82.8243 423.695 79.8481C420.534 75.5399 416.991 70.5679 414.117 66.6029C411.633 63.1825 408.032 62.845 405.621 66.1587C402.933 69.8602 398.647 75.6917 396.928 78.0372C395.886 79.5245 394.559 80.7896 393.02 81.7567C391.673 82.5607 390.941 82.0936 391.915 80.778C396.084 75.1024 399.465 70.4327 403.408 65.0775C408.428 58.2822 415.886 53.9582 421.998 62.4294C427.677 70.2987 433.964 78.9375 435.768 81.4125C435.859 81.5391 435.894 81.6707 435.875 81.7884ZM431.7 41.5354C431.701 41.9183 431.139 42.7153 430.343 43.5635C424.332 49.9706 418.89 51.6162 411.69 52.6963C404.49 53.7764 401.803 53.3623 393.223 57.6825C390.868 58.8632 391.538 57.4497 393.037 55.852C399.047 49.446 404.49 47.7993 411.69 46.7192C418.89 45.6391 421.578 46.0547 430.158 41.7355C431.262 41.1815 431.699 41.1975 431.7 41.5354ZM418.129 34.5308C418.144 35.7465 417.876 37.0387 417.295 38.282C415.605 41.899 411.92 43.7827 409.053 42.4603C406.19 41.1221 405.228 37.0788 406.919 33.4618C408.609 29.8448 412.297 27.9327 415.159 29.2835C417.037 30.1692 418.099 32.2098 418.129 34.5308Z" fill="#EEB13E"/>
<path d="M135.587 60.1815C126.355 60.181 120.091 54.6314 120.092 45.1775C120.092 36.5354 127.014 30.3345 135.349 30.3341C145.488 30.3346 150.553 37.9488 150.127 47.5185H129.356C129.523 51.3785 131.751 53.9277 135.681 53.9278C137.905 53.9286 140.093 52.897 140.968 50.8202H149.634C147.947 57.3414 141.885 60.1707 135.587 60.1815ZM256.536 60.1599C251.146 60.1597 246.896 57.4466 246.895 51.6157C246.895 42.4376 256.923 43.1439 263.353 41.8351C264.937 41.5105 265.805 40.9701 265.805 39.2306C265.805 37.1102 263.248 36.2984 261.339 36.2978C258.77 36.2984 257.144 37.4393 256.707 39.8248L248.019 39.8272C248.207 36.128 249.938 33.657 252.444 32.2605C254.952 30.8635 258.217 30.3108 261.437 30.3101C268.139 30.3108 274.627 31.7871 274.627 39.7769L274.625 52.1236C274.625 54.515 274.627 57.1509 275.734 59.3597L266.403 59.3573C266.113 58.4918 265.93 57.5956 265.86 56.6857C263.463 59.1874 259.923 60.1588 256.536 60.1599ZM161.789 59.87C154.948 59.8697 151.563 54.4762 151.563 48.2133C151.563 41.951 154.91 36.679 161.705 36.6788C163.975 36.679 167.24 37.5677 168.873 40.1459H168.962V28.7311H172.614V59.3573H168.962V56.3646H168.873C167.679 58.7998 164.839 59.8702 161.789 59.87ZM185.538 59.8652C178.443 59.8662 175.091 54.9853 174.869 48.2085C174.869 41.5549 179.234 36.6719 185.322 36.6716C193.158 36.6716 195.59 44.0112 195.374 49.373H178.769C178.641 53.2391 180.834 56.6525 185.682 56.6521C188.67 56.6525 190.79 55.1907 191.438 52.3297L195.047 52.3273C194.051 57.2158 190.53 59.8713 185.538 59.8652ZM108.378 59.3644V28.0914H102.51L99.2438 23.733L95.9733 28.0914H89L95.0992 20.0024L103.379 20L108.378 26.625V20.5367H117.642V59.3644H108.378ZM94.6045 59.3573V31.1392H103.869V59.3573H94.6045ZM197.746 59.3573V20.5367H226.412L226.415 28.6377H207.879V36.5806L223.905 36.5782V44.4036H207.879V59.3573H197.746ZM228.252 59.3309V31.1104H237.256V36.0822H237.362C238.729 32.4981 241.882 30.5919 245.872 30.5929C246.604 30.5894 247.333 30.6643 248.048 30.8181V39.2449C246.897 38.8952 245.704 38.7098 244.501 38.6939C239.93 38.6938 237.521 41.8476 237.521 45.3932L237.523 59.3309H228.252ZM162.299 56.6234C167.191 56.6229 169.085 52.4311 169.085 48.2732C169.076 43.9001 167.035 39.8744 162.066 39.8751C157.085 39.8741 155.426 44.1098 155.426 48.4457C155.426 52.5975 157.579 56.6226 162.299 56.6234ZM260.032 54.4598C264.437 54.4603 265.915 51.9633 265.699 46.1431C264.398 46.949 262.036 47.1768 259.972 47.6622C257.908 48.1486 256.16 49.0421 256.159 51.2515C256.159 53.5379 257.945 54.4601 260.032 54.4598ZM178.759 46.1551H191.484C191.311 42.6646 188.698 39.9048 185.084 39.9039C181.288 39.904 178.997 42.7651 178.759 46.1551ZM129.356 42.3502H140.884C140.691 39.1805 138.454 36.5778 135.349 36.5782C132.084 36.5783 129.908 38.9103 129.356 42.3502ZM296.927 45.713L296.926 59.3583L306.191 59.358L306.191 41.2515C306.191 37.1761 305.427 30.3234 295.996 30.323C292.62 30.3231 288.802 32.1181 287.141 35.0057L287.021 35.0057L287.02 31.1397L278.026 31.1402L278.027 59.358L287.28 59.3582L287.28 43.9618C287.28 40.8697 288.808 37.9377 292.26 37.9379C297.364 37.9385 296.926 41.847 296.927 45.713ZM337.277 48.2698L328.29 48.2696C327.869 51.2514 326.208 53.1019 323.004 53.1018C319.086 53.1013 317.502 49.3576 317.503 45.7131C317.503 41.7976 318.322 37.3965 323.496 37.3969C325.831 37.3967 327.962 39.0533 328.024 41.4714L337.038 41.4716C336.391 34.0171 330.115 30.3224 323.086 30.3223C313.983 30.323 308.256 36.7452 308.255 45.7133C308.255 54.3554 314.592 60.1707 323.087 60.1705C330.608 60.1697 336.491 55.8245 337.277 48.2698ZM367.399 50.8201L358.721 50.8205C357.852 52.8967 355.672 53.9289 353.447 53.9293C349.518 53.9292 347.282 51.3775 347.116 47.518L367.881 47.5182C368.318 37.948 363.253 30.3327 353.11 30.3332C344.781 30.3332 337.852 36.5347 337.852 45.1769C337.851 54.6363 344.122 60.18 353.348 60.1812C359.646 60.1687 365.695 57.3422 367.399 50.8201ZM347.116 42.349C347.669 38.9089 349.834 36.5789 353.109 36.5784C356.22 36.5785 358.455 39.1794 358.616 42.3492L347.116 42.349Z" fill="white"/>
<path d="M198 108.156H200.416C202.311 108.156 203.588 108.793 203.588 110.646C203.588 112.498 202.316 113.258 200.466 113.258H199.076V116.613H198V108.156ZM200.329 112.385C201.808 112.385 202.512 111.849 202.512 110.646C202.512 109.443 201.762 109.028 200.277 109.028H199.074V112.385H200.329Z" fill="white"/>
<path d="M207.279 108.156H208.494L211.355 116.613H210.214L208.741 111.889C208.436 110.943 208.165 110.015 207.895 109.04H207.842C207.581 110.02 207.31 110.945 207.006 111.889L205.515 116.613H204.42L207.281 108.156H207.279ZM205.922 113.176H209.817V114.034H205.922V113.176Z" fill="white"/>
<path d="M213.387 108.156H216.035C217.758 108.156 218.995 108.774 218.995 110.535C218.995 112.297 217.758 113.037 216.035 113.037H214.463V116.613H213.387V108.156ZM215.882 112.165C217.198 112.165 217.921 111.633 217.921 110.535C217.921 109.438 217.198 109.028 215.882 109.028H214.463V112.165H215.882ZM215.824 112.742L216.668 112.187L219.249 116.613H218.029L215.824 112.742Z" fill="white"/>
<path d="M223.191 109.066H220.632V108.156H226.824V109.066H224.265V116.613H223.189V109.066H223.191Z" fill="white"/>
<path d="M229.228 108.156H234.102V109.066H230.304V111.717H233.508V112.627H230.304V115.702H234.231V116.613H229.228V108.156Z" fill="white"/>
<path d="M236.908 108.156H238.02L241.08 113.473L241.993 115.223H242.046C241.991 114.37 241.909 113.416 241.909 112.532V108.156H242.93V116.613H241.818L238.758 111.29L237.845 109.543H237.792C237.847 110.399 237.929 111.3 237.929 112.184V116.61H236.908V108.153V108.156Z" fill="white"/>
<path d="M247.876 108.156H249.091L251.953 116.613H250.812L249.338 111.889C249.034 110.943 248.763 110.015 248.492 109.04H248.439C248.178 110.02 247.907 110.945 247.603 111.889L246.113 116.613H245.017L247.879 108.156H247.876ZM246.518 113.176H250.412V114.034H246.518V113.176Z" fill="white"/>
<path d="M253.985 108.156H255.061V116.613H253.985V108.156Z" fill="white"/>
<path d="M258.262 108.156H260.91C262.633 108.156 263.87 108.774 263.87 110.535C263.87 112.297 262.633 113.037 260.91 113.037H259.338V116.613H258.262V108.156ZM260.757 112.165C262.073 112.165 262.796 111.633 262.796 110.535C262.796 109.438 262.073 109.028 260.757 109.028H259.338V112.165H260.757ZM260.699 112.742L261.543 112.187L264.124 116.613H262.904L260.699 112.742Z" fill="white"/>
<path d="M266.487 108.156H271.361V109.066H267.563V111.717H270.767V112.627H267.563V115.702H271.49V116.613H266.487V108.156Z" fill="white"/>
<path d="M277.144 112.352C277.144 109.644 278.634 108 280.757 108C282.881 108 284.371 109.649 284.371 112.352C284.371 115.055 282.881 116.766 280.757 116.766C278.634 116.766 277.144 115.062 277.144 112.352ZM283.259 112.352C283.259 110.245 282.267 108.944 280.755 108.944C279.243 108.944 278.253 110.243 278.253 112.352C278.253 114.461 279.245 115.819 280.755 115.819C282.265 115.819 283.259 114.458 283.259 112.352Z" fill="white"/>
<path d="M287.082 108.156H291.958V109.066H288.158V111.918H291.381V112.829H288.158V116.613H287.082V108.156Z" fill="white"/>
<path d="M294.335 108.156H299.212V109.066H295.411V111.918H298.635V112.829H295.411V116.613H294.335V108.156Z" fill="white"/>
<path d="M301.592 108.156H302.668V116.613H301.592V108.156Z" fill="white"/>
<path d="M305.38 112.39C305.38 109.663 306.988 108 309.133 108C310.159 108 310.964 108.498 311.46 109.042L310.871 109.742C310.425 109.268 309.866 108.944 309.152 108.944C307.554 108.944 306.492 110.253 306.492 112.359C306.492 114.465 307.506 115.817 309.112 115.817C309.919 115.817 310.533 115.465 311.072 114.868L311.661 115.544C310.993 116.32 310.166 116.764 309.066 116.764C306.96 116.764 305.38 115.134 305.38 112.388V112.39Z" fill="white"/>
<path d="M314.12 108.156H315.196V116.613H314.12V108.156Z" fill="white"/>
<path d="M318.398 108.156H323.272V109.066H319.474V111.717H322.678V112.627H319.474V115.702H323.402V116.613H318.398V108.156Z" fill="white"/>
<path d="M326.078 108.156H327.154V115.702H330.845V116.613H326.078V108.156Z" fill="white"/>
<path d="M269.539 174.143L269.623 306.467L270.556 306.467L270.472 174.143L269.539 174.143Z" fill="white"/>
<path d="M130.89 251.055C130.016 250.633 129.071 250.586 128.121 250.586H125V262.334H126.825C126.825 261.669 126.78 260.978 127.067 260.355C127.527 259.355 128.599 258.873 129.535 258.422C130.539 257.937 131.652 257.462 132.316 256.523C132.907 255.688 133.069 254.583 132.895 253.589C132.697 252.449 131.917 251.551 130.89 251.055ZM130.801 255.546C130.367 256.195 129.635 256.559 128.956 256.898C128.215 257.27 127.45 257.636 126.825 258.191V252.284H128.555C129.523 252.284 130.589 252.582 130.973 253.577C131.206 254.185 131.168 254.997 130.801 255.546Z" fill="white"/>
<path d="M144.312 250.911C142.732 250.016 140.465 250.282 139.242 251.658C138.649 252.328 138.348 253.187 138.295 254.073C138.28 254.297 138.286 262.334 138.286 262.334H140.093V258.442C141.156 258.307 142.348 258.41 143.24 259.059C144.04 259.641 144.391 260.556 144.394 261.522C144.394 261.793 144.394 262.334 144.394 262.334H146.201V254.457C146.201 253.013 145.608 251.646 144.312 250.914V250.911ZM144.291 257.923C143.216 256.833 141.569 256.452 140.09 256.689V254.77C140.09 254.415 140.081 254.064 140.172 253.716C140.347 253.054 140.848 252.508 141.501 252.29C142.18 252.062 142.965 252.166 143.541 252.594C144.117 253.022 144.385 253.689 144.394 254.398C144.4 254.95 144.394 255.502 144.394 256.051V258.035C144.362 257.997 144.329 257.958 144.294 257.92L144.291 257.923Z" fill="white"/>
<path d="M158.625 257.97C158.415 257.857 158.194 257.766 157.96 257.692C158.542 257.373 159.115 256.981 159.522 256.449C159.897 255.956 160.113 255.389 160.181 254.772C160.322 253.485 159.9 252.257 158.84 251.471C157.426 250.423 155.64 250.586 153.984 250.586H152.259V262.333H154.084C154.084 261.985 154.072 261.634 154.087 261.285C154.122 260.509 154.465 259.759 155.144 259.346C155.805 258.941 156.712 258.894 157.42 259.21C158.132 259.529 158.595 260.213 158.71 260.975C158.778 261.418 158.746 261.885 158.746 262.333H160.588C160.588 261.69 160.624 261.031 160.482 260.397C160.246 259.351 159.573 258.472 158.628 257.967L158.625 257.97ZM155.867 252.283C157.03 252.283 158.203 252.85 158.33 254.123C158.392 254.734 158.256 255.339 157.848 255.809C157.402 256.322 156.741 256.632 156.139 256.922C155.41 257.273 154.677 257.639 154.075 258.185V252.283H155.864H155.867Z" fill="white"/>
<path d="M166.26 252.23C166.856 252.071 167.47 251.997 168.084 251.959V250.586H166.26V252.23Z" fill="white"/>
<path d="M166.26 253.261V262.334H168.084V252.989C167.47 253.016 166.853 253.104 166.26 253.261Z" fill="white"/>
<path d="M180.269 256.694C179.613 256.181 178.831 255.885 178.054 255.602C177.337 255.339 176.502 255.065 175.985 254.471C175.507 253.925 175.613 253.06 176.106 252.561C176.599 252.062 177.437 251.935 178.111 252.148C178.869 252.387 179.327 253.072 179.327 253.857H181.134C181.134 252.995 180.856 252.168 180.266 251.533C179.693 250.919 178.902 250.553 178.072 250.444C177.213 250.332 176.321 250.444 175.56 250.875C174.845 251.283 174.243 251.926 173.989 252.717C173.744 253.473 173.797 254.418 174.187 255.118C174.621 255.897 175.403 256.367 176.203 256.709C177.071 257.081 178.075 257.305 178.852 257.86C179.165 258.085 179.424 258.371 179.519 258.752C179.61 259.124 179.575 259.546 179.404 259.892C178.982 260.73 177.93 260.987 177.071 260.822C176.106 260.636 175.409 259.833 175.409 258.844H173.62C173.62 259.8 173.93 260.701 174.615 261.383C175.294 262.059 176.233 262.422 177.178 262.499C178.17 262.578 179.191 262.378 180.012 261.796C180.768 261.262 181.276 260.432 181.373 259.511C181.488 258.433 181.14 257.376 180.272 256.694H180.269Z" fill="white"/>
<path d="M197.275 256.948C197.679 256.446 198.072 255.918 198.337 255.33C198.6 254.749 198.695 254.105 198.624 253.47C198.488 252.263 197.652 251.262 196.563 250.763C195.45 250.255 194.048 250.279 192.958 250.837C191.86 251.398 191.072 252.472 191.004 253.721C190.936 255 191.529 256.128 192.536 256.898L193.566 255.578C193.197 255.224 192.905 254.796 192.819 254.285C192.737 253.792 192.819 253.293 193.123 252.886C193.714 252.089 194.898 251.849 195.772 252.289C196.209 252.508 196.578 252.889 196.734 253.358C196.897 253.845 196.82 254.403 196.613 254.867C196.404 255.333 196.067 255.732 195.751 256.128C194.532 257.654 193.312 259.18 192.093 260.704C191.656 261.25 191.222 261.793 190.785 262.339H199.046V260.659H194.307L197.275 256.954V256.948Z" fill="white"/>
<path d="M214.446 252.157C212.627 250.376 209.775 249.898 207.463 250.967C205.134 252.042 203.728 254.516 203.974 257.067C204.21 259.567 206.079 261.708 208.508 262.325C210.971 262.948 213.675 262.029 215.148 259.939C216.63 257.837 216.586 254.888 215.039 252.833C214.859 252.594 214.661 252.369 214.446 252.16V252.157ZM214.038 258.15C213.327 259.824 211.644 260.899 209.819 260.789C208.054 260.683 206.518 259.417 206.008 257.734C205.482 256.007 206.105 254.076 207.54 252.98C208.981 251.882 211.021 251.844 212.506 252.874C214.168 254.026 214.829 256.284 214.038 258.15Z" fill="white"/>
<path d="M227.855 256.948C228.26 256.446 228.653 255.918 228.918 255.33C229.181 254.749 229.276 254.105 229.205 253.47C229.069 252.263 228.233 251.262 227.144 250.763C226.031 250.255 224.628 250.279 223.539 250.837C222.45 251.395 221.652 252.472 221.585 253.721C221.517 255 222.11 256.128 223.117 256.898L224.147 255.578C223.778 255.224 223.486 254.796 223.4 254.285C223.318 253.792 223.4 253.293 223.704 252.886C224.295 252.089 225.479 251.849 226.353 252.289C226.79 252.508 227.159 252.889 227.315 253.358C227.478 253.845 227.401 254.403 227.194 254.867C226.987 255.33 226.648 255.732 226.332 256.128C225.113 257.654 223.893 259.18 222.674 260.704C222.237 261.25 221.803 261.793 221.366 262.339H229.627V260.659H224.888L227.855 256.954V256.948Z" fill="white"/>
<path d="M240.725 253.73V257.713C239.857 257.093 238.77 256.907 237.861 256.361C237.076 255.891 236.828 255.068 236.822 254.2C236.819 253.349 236.822 250.586 236.822 250.586H234.997C234.997 250.586 234.997 253.031 234.997 254.253C234.997 255.505 235.307 256.73 236.332 257.536C236.964 258.032 237.722 258.339 238.475 258.602C239.148 258.838 239.863 259.13 240.323 259.7C240.687 260.146 240.728 260.683 240.728 261.232V262.334H242.482V253.73H240.728H240.725Z" fill="white"/>
<path fill-rule="evenodd" clip-rule="evenodd" d="M182.935 291.394C182.935 296.72 178.615 301.039 173.286 301.039C167.957 301.039 163.641 296.72 163.641 291.394C163.641 286.068 167.957 281.749 173.286 281.749C178.615 281.749 182.935 286.068 182.935 291.394ZM173.289 283.358C168.852 283.358 165.253 286.957 165.253 291.394C165.253 295.831 168.852 299.43 173.289 299.43C177.727 299.43 181.329 295.831 181.329 291.394C181.329 286.957 177.73 283.358 173.289 283.358Z" fill="white"/>
<path fill-rule="evenodd" clip-rule="evenodd" d="M203.835 291.394C203.835 296.72 199.515 301.039 194.189 301.039C188.863 301.039 184.544 296.72 184.544 291.394C184.544 286.068 188.863 281.749 194.189 281.749C199.515 281.749 203.835 286.068 203.835 291.394ZM194.189 283.358C189.749 283.358 186.153 286.957 186.153 291.394C186.153 295.831 189.749 299.43 194.189 299.43C198.63 299.43 202.229 295.831 202.229 291.394C202.229 286.957 198.63 283.358 194.189 283.358Z" fill="white"/>
<path fill-rule="evenodd" clip-rule="evenodd" d="M162.841 272.909C157.512 272.909 153.192 277.226 153.192 282.552C153.192 287.878 157.512 292.197 162.841 292.197C163.121 292.197 163.399 292.183 163.676 292.159C163.659 291.908 163.644 291.651 163.644 291.394C163.644 291.108 163.659 290.827 163.682 290.547C163.405 290.574 163.124 290.588 162.841 290.588C158.4 290.588 154.801 286.992 154.801 282.552C154.801 278.112 158.4 274.513 162.841 274.513C167.281 274.513 170.877 278.112 170.877 282.552C170.877 286.115 168.557 289.139 165.341 290.19C165.282 290.582 165.25 290.987 165.25 291.394C165.25 291.563 165.256 291.725 165.265 291.89C169.416 290.81 172.483 287.04 172.483 282.555C172.483 277.229 168.167 272.912 162.841 272.912" fill="white"/>
<path fill-rule="evenodd" clip-rule="evenodd" d="M204.638 272.906C199.569 272.906 195.417 276.815 195.025 281.784C195.568 281.831 196.099 281.923 196.616 282.058C196.873 277.848 200.366 274.512 204.638 274.512C208.91 274.512 212.677 278.111 212.677 282.549C212.677 286.986 209.081 290.585 204.638 290.585C200.611 290.585 197.269 287.618 196.69 283.753C196.159 283.579 195.603 283.461 195.031 283.399C195.462 288.326 199.598 292.194 204.638 292.194C209.964 292.194 214.283 287.875 214.283 282.546C214.283 277.217 209.964 272.903 204.638 272.903" fill="white"/>
<path fill-rule="evenodd" clip-rule="evenodd" d="M183.738 272.906C178.669 272.906 174.515 276.821 174.125 281.784C174.671 281.831 175.2 281.926 175.716 282.058C175.973 277.848 179.463 274.512 183.738 274.512C188.013 274.512 191.774 278.111 191.774 282.549C191.774 286.115 189.454 289.135 186.239 290.189C186.182 290.585 186.147 290.986 186.147 291.394C186.147 291.562 186.153 291.725 186.162 291.89C190.313 290.809 193.38 287.039 193.38 282.551C193.38 277.225 189.064 272.909 183.735 272.909" fill="white"/>
<path fill-rule="evenodd" clip-rule="evenodd" d="M184.544 291.394C184.544 291.108 184.559 290.827 184.582 290.547C184.305 290.573 184.024 290.588 183.741 290.588C179.711 290.588 176.372 287.621 175.79 283.756C175.259 283.582 174.706 283.464 174.134 283.405C174.565 288.329 178.701 292.2 183.741 292.2C184.021 292.2 184.299 292.185 184.576 292.162C184.556 291.911 184.547 291.654 184.547 291.397" fill="white"/>
<path d="M187.877 230.465C186.867 230.09 185.173 230.055 183.738 231.224C182.303 230.058 180.608 230.09 179.599 230.465C178.754 230.778 178.093 230.988 176.853 230.979C178.084 233.545 180.706 235.313 183.741 235.313C186.776 235.313 189.398 233.542 190.629 230.979C189.386 230.988 188.724 230.778 187.883 230.465H187.877Z" fill="white"/>
<path d="M183.738 166C162.977 166 146.145 182.832 146.145 203.593C146.145 221.39 158.513 236.299 175.126 240.197C161.926 233.134 156.543 216.943 162.909 203.38C163.936 208.736 167.429 213.51 172.649 215.987C165.843 200.071 170.854 181.358 184.898 171.01C182.135 180.47 186.377 189.126 195.479 195.663C205.89 203.138 206.33 218.387 197.142 226.633C200.791 225.783 204.186 223.775 206.722 220.699C205.157 228.762 200.103 236.054 192.353 240.202C208.963 236.308 221.334 221.399 221.334 203.599C221.334 182.837 204.502 166.006 183.741 166.006L183.738 166Z" fill="white"/>
<path d="M303.572 251.882C302.698 251.459 301.753 251.412 300.802 251.412H297.681V263.16H299.506C299.506 262.496 299.462 261.805 299.748 261.182C300.209 260.181 301.28 259.7 302.216 259.248C303.22 258.764 304.333 258.288 304.998 257.35C305.588 256.514 305.75 255.41 305.576 254.415C305.378 253.275 304.599 252.378 303.572 251.882ZM303.48 256.372C303.046 257.022 302.314 257.385 301.635 257.724C300.894 258.096 300.129 258.463 299.503 259.018V253.11H301.233C302.202 253.11 303.267 253.408 303.651 254.403C303.884 255.011 303.846 255.823 303.48 256.372Z" fill="white"/>
<path d="M316.99 251.737C315.411 250.842 313.143 251.108 311.921 252.484C311.328 253.154 311.027 254.013 310.973 254.899C310.959 255.123 310.965 263.16 310.965 263.16H312.771V259.269C313.834 259.133 315.027 259.236 315.919 259.886C316.719 260.467 317.07 261.382 317.073 262.348C317.073 262.62 317.073 263.16 317.073 263.16H318.88V255.283C318.88 253.839 318.287 252.472 316.99 251.74V251.737ZM316.973 258.749C315.898 257.659 314.251 257.279 312.771 257.515V255.596C312.771 255.241 312.763 254.89 312.854 254.542C313.028 253.88 313.53 253.334 314.183 253.116C314.862 252.888 315.647 252.992 316.223 253.42C316.802 253.851 317.067 254.515 317.076 255.224C317.082 255.776 317.076 256.328 317.076 256.877V258.861C317.044 258.823 317.011 258.784 316.976 258.746L316.973 258.749Z" fill="white"/>
<path d="M331.304 258.796C331.094 258.684 330.873 258.592 330.64 258.519C331.221 258.2 331.794 257.807 332.202 257.276C332.577 256.782 332.792 256.216 332.86 255.599C333.002 254.311 332.58 253.083 331.52 252.298C330.105 251.25 328.319 251.412 326.663 251.412H324.939V263.16H326.763C326.763 262.811 326.751 262.46 326.766 262.112C326.802 261.335 327.144 260.585 327.823 260.172C328.484 259.767 329.391 259.72 330.1 260.036C330.811 260.355 331.275 261.04 331.39 261.802C331.458 262.245 331.425 262.711 331.425 263.16H333.267C333.267 262.516 333.303 261.858 333.161 261.223C332.925 260.178 332.252 259.298 331.307 258.793L331.304 258.796ZM328.549 253.11C329.713 253.11 330.885 253.676 331.012 254.949C331.074 255.56 330.938 256.165 330.531 256.635C330.085 257.149 329.423 257.459 328.821 257.748C328.092 258.099 327.36 258.465 326.757 259.012V253.11H328.547H328.549Z" fill="white"/>
<path d="M338.942 253.057C339.538 252.897 340.153 252.823 340.767 252.785V251.412H338.942V253.057Z" fill="white"/>
<path d="M338.942 254.087V263.16H340.767V253.815C340.153 253.842 339.535 253.93 338.942 254.087Z" fill="white"/>
<path d="M352.949 257.521C352.293 257.007 351.511 256.712 350.734 256.428C350.017 256.165 349.181 255.891 348.665 255.297C348.186 254.751 348.293 253.886 348.786 253.387C349.296 252.873 350.117 252.761 350.79 252.974C351.549 253.213 352.007 253.898 352.007 254.683H353.814C353.814 253.821 353.536 252.994 352.946 252.36C352.373 251.746 351.582 251.379 350.752 251.27C349.893 251.158 349.001 251.27 348.239 251.701C347.525 252.109 346.923 252.752 346.669 253.544C346.424 254.299 346.477 255.244 346.866 255.944C347.3 256.723 348.083 257.193 348.883 257.535C349.751 257.907 350.755 258.132 351.531 258.687C351.844 258.911 352.104 259.198 352.199 259.578C352.29 259.95 352.255 260.373 352.084 260.718C351.661 261.557 350.61 261.813 349.751 261.648C348.786 261.462 348.089 260.659 348.089 259.67H346.3C346.3 260.627 346.61 261.527 347.295 262.209C347.974 262.885 348.913 263.248 349.857 263.325C350.849 263.405 351.871 263.204 352.692 262.622C353.448 262.088 353.955 261.258 354.053 260.337C354.168 259.26 353.82 258.203 352.952 257.521H352.949Z" fill="white"/>
<path d="M369.958 257.774C370.362 257.272 370.755 256.744 371.021 256.156C371.283 255.575 371.378 254.931 371.307 254.296C371.171 253.089 370.336 252.088 369.246 251.589C368.133 251.081 366.731 251.105 365.641 251.663C364.543 252.224 363.755 253.298 363.687 254.547C363.619 255.826 364.212 256.954 365.219 257.724L366.249 256.404C365.88 256.05 365.588 255.622 365.502 255.111C365.42 254.618 365.502 254.119 365.807 253.712C366.397 252.915 367.581 252.675 368.455 253.115C368.892 253.334 369.261 253.715 369.417 254.184C369.58 254.671 369.503 255.229 369.296 255.693C369.087 256.159 368.75 256.558 368.434 256.954C367.215 258.48 365.996 260.006 364.776 261.53C364.339 262.076 363.905 262.619 363.468 263.166H371.729V261.486H366.991L369.958 257.78V257.774Z" fill="white"/>
<path d="M387.126 252.983C385.308 251.202 382.455 250.724 380.144 251.793C377.814 252.868 376.409 255.342 376.654 257.893C376.89 260.393 378.759 262.534 381.189 263.151C383.651 263.774 386.356 262.856 387.829 260.765C389.311 258.663 389.267 255.714 387.72 253.659C387.54 253.42 387.342 253.195 387.126 252.986V252.983ZM386.722 258.976C386.01 260.65 384.327 261.725 382.503 261.616C380.737 261.509 379.202 260.243 378.691 258.56C378.166 256.833 378.789 254.902 380.223 253.806C381.664 252.708 383.704 252.67 385.189 253.7C386.852 254.852 387.513 257.11 386.722 258.976Z" fill="white"/>
<path d="M400.539 257.774C400.944 257.272 401.337 256.744 401.602 256.156C401.865 255.575 401.959 254.931 401.889 254.296C401.753 253.089 400.917 252.088 399.828 251.589C398.715 251.081 397.312 251.105 396.223 251.663C395.125 252.224 394.336 253.298 394.268 254.547C394.2 255.826 394.794 256.954 395.801 257.724L396.831 256.404C396.462 256.05 396.17 255.622 396.084 255.111C396.001 254.618 396.084 254.119 396.388 253.712C396.979 252.915 398.163 252.675 399.037 253.115C399.474 253.334 399.843 253.715 399.999 254.184C400.161 254.671 400.085 255.229 399.878 255.693C399.668 256.159 399.332 256.558 399.016 256.954C397.797 258.48 396.577 260.006 395.358 261.53C394.921 262.076 394.487 262.619 394.05 263.166H402.311V261.486H397.572L400.539 257.78V257.774Z" fill="white"/>
<path d="M413.406 254.556V258.539C412.538 257.919 411.452 257.733 410.542 257.187C409.757 256.718 409.509 255.894 409.503 255.026C409.5 254.176 409.503 251.412 409.503 251.412H407.678C407.678 251.412 407.678 253.857 407.678 255.079C407.678 256.331 407.988 257.556 409.013 258.362C409.645 258.858 410.404 259.165 411.156 259.428C411.83 259.664 412.544 259.957 413.005 260.526C413.368 260.972 413.409 261.51 413.409 262.059V263.16H415.163V254.556H413.409H413.406Z" fill="white"/>
<path d="M354.504 273.98C351.765 273.348 348.024 274.045 344.49 276.085C338.96 279.277 336.031 284.556 337.947 287.875C339.172 289.994 342.078 290.8 345.458 290.275C343.911 289.918 342.683 289.141 341.992 287.943C340.076 284.624 343.008 279.348 348.535 276.153C350.53 275.002 352.594 274.278 354.504 273.98Z" fill="white"/>
<path d="M354.552 287.069C355.376 289.759 357.847 292.649 361.381 294.689C366.911 297.881 372.946 297.78 374.862 294.462C376.087 292.342 375.331 289.422 373.185 286.756C373.648 288.273 373.589 289.726 372.898 290.922C370.982 294.24 364.947 294.341 359.417 291.149C357.422 289.998 355.762 288.572 354.552 287.066" fill="white"/>
<path d="M350.802 280.558C348.886 282.616 347.616 286.203 347.616 290.284C347.616 296.67 350.722 301.846 354.555 301.846C357.002 301.846 359.155 299.732 360.389 296.54C359.308 297.7 358.018 298.376 356.636 298.376C352.804 298.376 349.698 293.201 349.698 286.815C349.698 284.509 350.102 282.362 350.799 280.558" fill="white"/>
<path d="M360.56 231.291C359.55 230.916 357.855 230.88 356.421 232.05C354.986 230.883 353.291 230.916 352.281 231.291C351.437 231.604 350.775 231.813 349.535 231.805C350.767 234.37 353.388 236.139 356.424 236.139C359.459 236.139 362.08 234.367 363.312 231.805C362.069 231.813 361.407 231.604 360.566 231.291H360.56Z" fill="white"/>
<path d="M356.421 166.824C335.659 166.824 318.827 183.656 318.827 204.417C318.827 222.215 331.195 237.125 347.808 241.022C334.608 233.96 329.225 217.769 335.591 204.205C336.618 209.561 340.111 214.335 345.331 216.812C338.526 200.895 343.536 182.182 357.581 171.834C354.817 181.294 359.06 189.95 368.163 196.487C378.573 203.963 379.013 219.212 369.825 227.459C373.474 226.608 376.869 224.601 379.406 221.524C377.841 229.587 372.786 236.88 365.036 241.028C381.646 237.134 394.017 222.224 394.017 204.423C394.017 183.662 377.185 166.83 356.424 166.83L356.421 166.824Z" fill="white"/>
</svg>
