<svg width="535" height="337" viewBox="0 0 535 337" fill="none" xmlns="http://www.w3.org/2000/svg">
<path d="M19.8848 336.667C14.6183 336.658 9.56863 334.566 5.84336 330.85C2.11607 327.135 0.016515 322.097 0 316.839L0 135.884L534.515 135.884V316.839C534.501 322.093 532.404 327.129 528.683 330.844C524.962 334.56 519.923 336.652 514.659 336.667H19.8848Z" fill="#E40521"/>
<path d="M0.0269775 19.825L0.0269775 135.885L534.516 135.885V19.825C534.5 14.5718 532.405 9.5374 528.684 5.82269C524.964 2.10808 519.921 0.0157659 514.66 0L19.8857 0C14.6244 0.0157896 9.58217 2.10799 5.86164 5.82269C2.14112 9.53742 0.0427636 14.572 0.0269775 19.825Z" fill="#E40521"/>
<path d="M407.221 101.077C407.135 101.077 407.048 101.076 406.962 101.073C405.989 101.096 405.022 100.911 404.124 100.532C403.348 100.193 402.657 99.6787 402.105 99.029C401.542 98.3537 401.125 97.5664 400.88 96.7177C400.592 95.7654 400.434 94.7791 400.408 93.7837C400.396 92.7999 400.556 91.8221 400.88 90.8957C401.176 90.0534 401.629 89.2768 402.214 88.6074C402.78 87.9671 403.473 87.4533 404.247 87.1028C405.057 86.7362 405.934 86.5526 406.821 86.5636C407.879 86.5224 408.927 86.7895 409.844 87.3306C410.625 87.8208 411.284 88.4878 411.773 89.2803C412.257 90.0716 412.596 90.9483 412.774 91.8632C412.956 92.7372 413.031 93.6289 412.998 94.5214H402.782C402.764 95.1075 402.836 95.6926 402.993 96.2559C403.147 96.7873 403.409 97.2791 403.761 97.6999C404.129 98.1337 404.589 98.4777 405.105 98.7072C405.715 98.9693 406.372 99.098 407.034 99.0833C407.863 99.1187 408.681 98.8821 409.369 98.4084C410.01 97.9077 410.439 97.1779 410.57 96.3667H412.79C412.592 97.7509 411.886 99.0073 410.816 99.8858C409.767 100.657 408.51 101.072 407.221 101.077ZM351.915 101.071C350.946 101.071 349.976 100.887 349.058 100.521C348.26 100.173 347.548 99.6483 346.973 98.9851C346.398 98.3172 345.966 97.5352 345.705 96.6885C345.416 95.7672 345.274 94.8037 345.284 93.836C345.276 92.8662 345.417 91.9004 345.705 90.9751C345.966 90.1244 346.399 89.3367 346.973 88.6638C347.549 87.9992 348.261 87.4713 349.058 87.1174C350.891 86.3666 352.939 86.3674 354.771 87.1174C355.564 87.4746 356.27 88.0014 356.842 88.6638C357.418 89.3371 357.848 90.1231 358.11 90.9751C358.398 91.9001 358.54 92.8663 358.531 93.836C358.542 94.8035 358.399 95.7655 358.11 96.6864C357.849 97.5332 357.416 98.317 356.842 98.9851C356.27 99.6457 355.565 100.171 354.771 100.521C353.853 100.888 352.884 101.071 351.915 101.071ZM367.688 101.071C367.312 101.065 366.94 101.03 366.569 100.964C366.148 100.892 365.735 100.773 365.338 100.613C364.927 100.448 364.541 100.226 364.189 99.9527C363.824 99.6701 363.516 99.3204 363.282 98.9183H363.228V100.776L360.981 100.778V81.5837H363.228V88.76H363.282C363.638 88.0009 364.259 87.4023 365.022 87.0798C365.849 86.7224 366.738 86.5435 367.636 86.5553C368.588 86.5329 369.532 86.7349 370.395 87.1467C371.157 87.523 371.824 88.069 372.348 88.7453C372.88 89.4374 373.278 90.2271 373.52 91.0712C373.79 91.9774 373.925 92.9189 373.918 93.8652C373.924 94.8113 373.794 95.7546 373.534 96.6634C373.3 97.499 372.907 98.2803 372.377 98.9621C371.85 99.6221 371.182 100.149 370.423 100.506C369.564 100.898 368.629 101.092 367.688 101.071ZM326.012 100.778L323.771 100.776V86.8771H325.881V88.9188H325.936C326.653 87.8467 327.725 87.0739 328.955 86.7392C330.186 86.4041 331.492 86.5301 332.639 87.0944C332.989 87.2841 333.298 87.5417 333.548 87.8551C333.797 88.1694 333.983 88.5322 334.092 88.9209C334.533 88.1857 335.155 87.5827 335.898 87.1717C336.657 86.7594 337.506 86.5472 338.366 86.5553C338.994 86.5486 339.622 86.6238 340.232 86.781C340.747 86.9169 341.23 87.1601 341.65 87.4936C342.054 87.8265 342.371 88.2571 342.571 88.7453C342.807 89.3287 342.921 89.9566 342.904 90.5864L342.902 100.734H340.661V91.6167C340.661 91.2116 340.626 90.8071 340.556 90.4088C340.494 90.0623 340.359 89.7327 340.16 89.4454C339.954 89.1562 339.676 88.9278 339.355 88.785C338.933 88.6082 338.477 88.524 338.022 88.5426C337.544 88.5149 337.066 88.5864 336.616 88.7516C336.167 88.9164 335.755 89.1752 335.405 89.5081C335.083 89.8489 334.835 90.252 334.672 90.6951C334.51 91.1381 334.438 91.6105 334.461 92.0827V100.753H332.218V91.6355C332.223 91.2206 332.183 90.8078 332.101 90.4025C332.028 90.0567 331.887 89.7288 331.689 89.4391C331.49 89.1581 331.222 88.9366 330.913 88.7955C330.513 88.6311 330.085 88.5537 329.655 88.5677C329.072 88.5498 328.495 88.6883 327.98 88.9689C327.544 89.2102 327.158 89.5371 326.845 89.9302C326.57 90.2811 326.355 90.6759 326.211 91.1005C326.094 91.4231 326.028 91.7636 326.012 92.1077V100.778ZM376.43 100.776V86.8771H378.671V100.776H376.43ZM382.024 100.776V81.5837H384.267V100.776H382.024ZM387.621 100.776L387.618 86.8771H389.862V100.776H387.621ZM397.202 100.776C396.701 100.783 396.2 100.741 395.706 100.651C395.34 100.594 394.996 100.443 394.705 100.21C394.433 99.9683 394.234 99.6517 394.136 99.2986C393.999 98.7902 393.937 98.2639 393.952 97.7375V88.8958L391.63 88.8937V86.8771H393.952V82.7101L396.199 82.7122V86.8771H398.918V88.8958H396.199V97.5056C396.191 97.7237 396.213 97.9406 396.264 98.1513C396.301 98.3036 396.39 98.4379 396.515 98.5275C396.668 98.6289 396.845 98.6891 397.028 98.7051C397.314 98.7336 397.6 98.7464 397.888 98.7448H398.918V100.776H397.202ZM351.915 99.098C352.485 99.0983 353.049 98.9768 353.571 98.7427C354.091 98.5108 354.553 98.1689 354.931 97.7375C355.341 97.2616 355.652 96.7022 355.841 96.0992C356.283 94.6368 356.283 93.0726 355.841 91.6104C355.649 91.0023 355.339 90.4409 354.931 89.9553C354.556 89.5182 354.091 89.1686 353.569 88.9334C353.046 88.7016 352.484 88.5821 351.915 88.5823C351.345 88.582 350.782 88.7022 350.259 88.9334C349.737 89.169 349.272 89.516 348.896 89.9532C348.488 90.4388 348.181 91.0018 347.989 91.6104C347.548 93.0733 347.548 94.6365 347.989 96.0992C348.178 96.7023 348.487 97.2614 348.898 97.7375C349.275 98.169 349.739 98.5131 350.259 98.7448C350.78 98.9785 351.344 99.0986 351.915 99.098ZM367.199 99.0645C367.285 99.0667 367.372 99.0656 367.458 99.0624C368.133 99.085 368.802 98.9279 369.397 98.6048C369.905 98.3118 370.334 97.8966 370.649 97.3948C370.976 96.8678 371.21 96.2851 371.337 95.675C371.479 95.0226 371.549 94.3569 371.548 93.6876C371.548 93.0462 371.463 92.4085 371.298 91.7901C371.141 91.1976 370.883 90.636 370.532 90.1371C370.187 89.6515 369.736 89.257 369.213 88.9815C368.626 88.6825 367.976 88.5347 367.32 88.5531C366.65 88.5308 365.985 88.6886 365.391 89.0065C364.878 89.304 364.438 89.7117 364.101 90.204C363.756 90.7131 363.51 91.2842 363.376 91.8862C363.224 92.5168 363.147 93.1634 363.148 93.813C363.147 94.4783 363.227 95.1416 363.384 95.7878C363.53 96.3911 363.786 96.9609 364.138 97.468C364.489 97.9573 364.945 98.3573 365.471 98.6382C366.013 98.9045 366.601 99.0494 367.199 99.0645ZM402.782 92.5132H410.623C410.587 91.9842 410.468 91.4643 410.268 90.9751C410.076 90.5098 409.798 90.0888 409.45 89.7296C409.099 89.3765 408.687 89.0936 408.235 88.8958C407.745 88.6847 407.218 88.5808 406.687 88.5886C406.149 88.5797 405.614 88.6836 405.117 88.8958C404.665 89.0929 404.257 89.382 403.917 89.7442C403.581 90.1077 403.315 90.5302 403.127 90.9918C402.932 91.4765 402.815 91.9903 402.782 92.5132ZM406.628 84.4321L404.939 84.43L407.475 80.077H410.35L406.628 84.4321ZM376.43 84.3777V81.5837H378.671V84.3777H376.43ZM387.618 84.3777V81.5837H389.862V84.3777H387.618ZM425.253 98.8109C425.616 98.1768 425.795 97.4505 425.769 96.7159C425.788 96.1357 425.656 95.561 425.385 95.0497C425.134 94.6059 424.793 94.2236 424.383 93.9281C423.947 93.6211 423.468 93.3804 422.964 93.2149C422.421 93.034 421.871 92.8811 421.313 92.7574C420.788 92.6313 420.258 92.5112 419.729 92.3964C419.246 92.2916 418.771 92.1485 418.31 91.9674C417.926 91.8198 417.574 91.6003 417.269 91.3223C417.138 91.1998 417.033 91.0514 416.963 90.8851C416.892 90.7187 416.856 90.5397 416.857 90.3585C416.844 90.0457 416.938 89.7374 417.122 89.4865C417.306 89.2547 417.541 89.0692 417.809 88.9475C418.109 88.8062 418.427 88.7106 418.754 88.663C419.091 88.6117 419.431 88.5855 419.771 88.5866C420.14 88.5856 420.509 88.626 420.868 88.7064C421.216 88.7814 421.55 88.9135 421.857 89.0962C422.153 89.2729 422.407 89.5171 422.595 89.8095C422.801 90.1442 422.92 90.5278 422.94 90.9226L425.182 90.9225C425.158 90.1881 424.979 89.4692 424.657 88.8124C424.374 88.2692 423.96 87.8072 423.455 87.4687C422.928 87.1263 422.34 86.8895 421.724 86.7708C421.02 86.63 420.304 86.5623 419.587 86.5683C418.978 86.5709 418.371 86.6464 417.78 86.7943C417.201 86.9368 416.648 87.1738 416.144 87.4977C415.66 87.8066 415.252 88.2227 414.951 88.7167C414.629 89.2589 414.466 89.884 414.479 90.518C414.432 91.2764 414.667 92.0261 415.136 92.6171C415.593 93.1292 416.157 93.5299 416.787 93.7879C417.484 94.0654 418.207 94.274 418.944 94.4097C419.72 94.5582 420.433 94.7317 421.096 94.9199C421.681 95.0735 422.238 95.3233 422.746 95.6569C422.961 95.8028 423.134 96.0046 423.25 96.2394C423.365 96.4751 423.418 96.7371 423.404 97.0009C423.42 97.3811 423.309 97.7568 423.087 98.0649C422.876 98.341 422.599 98.559 422.283 98.6955C421.942 98.8434 421.582 98.9431 421.213 98.9896C420.847 99.042 420.477 99.0692 420.107 99.0715C419.659 99.073 419.212 99.0274 418.774 98.9364C418.364 98.8553 417.971 98.7057 417.61 98.4933C417.271 98.2875 416.985 98.0021 416.777 97.66C416.556 97.2722 416.439 96.8326 416.437 96.3838L414.19 96.3836C414.203 97.1451 414.384 97.8939 414.72 98.5755C415.021 99.1542 415.456 99.6506 415.987 100.02C416.541 100.398 417.158 100.666 417.808 100.815C418.519 100.977 419.246 101.058 419.974 101.056C420.67 101.055 421.364 100.987 422.046 100.853C422.714 100.734 423.355 100.493 423.938 100.14C424.471 99.8067 424.922 99.3524 425.253 98.8109Z" fill="white"/>
<path d="M229.328 74.9808C221.516 74.9804 216.216 70.2846 216.216 62.2851C216.216 54.9724 222.074 49.7255 229.126 49.7251C237.706 49.7255 241.991 56.1684 241.63 64.2659H224.055C224.196 67.5321 226.082 69.6891 229.407 69.6892C231.289 69.6899 233.14 68.817 233.881 67.0597H241.214C239.786 72.5777 234.657 74.9717 229.328 74.9808ZM331.67 74.9626C327.109 74.9624 323.513 72.6666 323.512 67.7328C323.512 59.9667 331.998 60.5643 337.439 59.4568C338.778 59.1822 339.513 58.7249 339.513 57.253C339.513 55.4588 337.349 54.7719 335.734 54.7714C333.56 54.7719 332.185 55.7373 331.814 57.7558L324.463 57.7578C324.622 54.6277 326.087 52.5369 328.208 51.3552C330.33 50.1731 333.092 49.7054 335.817 49.7049C341.488 49.7055 346.977 50.9546 346.978 57.7152L346.976 68.1626C346.976 70.1861 346.978 72.4165 347.915 74.2854L340.019 74.2834C339.774 73.5511 339.619 72.7928 339.56 72.0228C337.531 74.1397 334.536 74.9617 331.67 74.9626ZM251.499 74.7173C245.711 74.717 242.846 70.1532 242.846 64.8538C242.846 59.5549 245.678 55.094 251.428 55.0938C253.349 55.0939 256.111 55.8459 257.493 58.0275H257.568V48.3688H260.659V74.2834H257.568V71.7511H257.493C256.482 73.8117 254.079 74.7174 251.499 74.7173ZM271.594 74.7132C265.591 74.7141 262.754 70.584 262.567 64.8498C262.567 59.2197 266.26 55.088 271.411 55.0877C278.042 55.0876 280.1 61.2982 279.917 65.8351H265.866C265.759 69.1064 267.614 71.9947 271.716 71.9944C274.245 71.9947 276.039 70.7578 276.586 68.3369L279.64 68.3349C278.798 72.4714 275.818 74.7183 271.594 74.7132ZM206.305 74.2895V47.8275H201.339L198.575 44.1396L195.808 47.8275H189.908L195.069 40.9829L202.074 40.9808L206.305 46.5867V41.435H214.144V74.2895H206.305ZM194.65 74.2834V50.4064H202.489V74.2834H194.65ZM281.924 74.2834V41.435H306.18L306.182 48.2897H290.499V55.0106L304.059 55.0086V61.6302H290.499V74.2834H281.924ZM307.737 74.2611V50.382H315.356V54.5889H315.446C316.602 51.5562 319.27 49.9433 322.647 49.9441C323.266 49.9412 323.883 50.0045 324.487 50.1347V57.2652C323.514 56.9692 322.504 56.8124 321.486 56.7988C317.618 56.7988 315.58 59.4674 315.58 62.4675L315.582 74.2611H307.737ZM251.93 71.9701C256.07 71.9697 257.672 68.4227 257.672 64.9045C257.664 61.2041 255.938 57.7978 251.733 57.7984C247.518 57.7975 246.115 61.3816 246.115 65.0505C246.115 68.5636 247.936 71.9695 251.93 71.9701ZM334.628 70.1393C338.356 70.1398 339.606 68.0269 339.424 63.1021C338.323 63.784 336.324 63.9768 334.578 64.3875C332.831 64.7991 331.352 65.5551 331.351 67.4246C331.351 69.3593 332.862 70.1396 334.628 70.1393ZM265.858 63.1123H276.625C276.479 60.1588 274.268 57.8235 271.21 57.8227C267.998 57.8228 266.06 60.2437 265.858 63.1123ZM224.055 59.8927H233.81C233.646 57.2107 231.754 55.0083 229.126 55.0086C226.364 55.0087 224.522 56.982 224.055 59.8927ZM365.847 62.7382L365.846 74.2843L373.686 74.2841L373.686 58.963C373.686 55.5146 373.039 49.7161 365.06 49.7157C362.203 49.7158 358.972 51.2347 357.567 53.6781L357.465 53.678L357.464 50.4068L349.854 50.4072L349.854 74.284L357.684 74.2842L357.684 61.2564C357.685 58.6399 358.977 56.159 361.898 56.1591C366.217 56.1597 365.847 59.4669 365.847 62.7382ZM399.99 64.9017L392.385 64.9015C392.029 67.4245 390.623 68.9904 387.912 68.9903C384.597 68.9899 383.257 65.8221 383.258 62.7383C383.258 59.4251 383.951 55.701 388.329 55.7014C390.305 55.7012 392.108 57.103 392.16 59.1491L399.788 59.1493C399.24 52.8416 393.93 49.7153 387.982 49.7152C380.279 49.7158 375.433 55.15 375.433 62.7384C375.432 70.051 380.795 74.9717 387.983 74.9715C394.346 74.9708 399.324 71.2941 399.99 64.9017ZM425.477 67.0596L418.135 67.0599C417.4 68.8167 415.555 69.6902 413.673 69.6905C410.348 69.6904 408.456 67.5312 408.315 64.2655L425.886 64.2657C426.255 56.1677 421.97 49.724 413.387 49.7244C406.339 49.7244 400.476 54.9718 400.476 62.2845C400.475 70.2887 405.782 74.9795 413.588 74.9806C418.917 74.97 424.036 72.5783 425.477 67.0596ZM408.315 59.8917C408.783 56.9808 410.615 55.0093 413.386 55.0089C416.018 55.0089 417.91 57.2097 418.046 59.8919L408.315 59.8917Z" fill="white"/>
<path d="M447.653 101.092L480.402 101.092C484.025 101.082 487.496 99.6402 490.058 97.0832C492.62 94.5247 494.064 91.0593 494.073 87.4412L494.074 54.7523C494.066 51.1338 492.624 47.6651 490.062 45.1052C487.5 42.5453 484.027 41.1025 480.402 41.0924L447.652 41.093C444.029 41.104 440.556 42.5467 437.995 45.1064C435.433 47.666 433.99 51.1343 433.981 54.7529L433.981 87.4508C433.993 91.0669 435.438 94.5309 437.999 97.0867C440.561 99.6416 444.031 101.083 447.653 101.092ZM458.917 52.3727C460.347 49.2984 463.465 47.7175 465.891 48.8365C468.318 49.9546 469.123 53.3626 467.698 56.4516C466.273 59.5406 463.15 61.1067 460.724 59.9887C458.297 58.8697 457.497 55.4571 458.917 52.3727ZM447.171 71.3207C452.257 65.9001 456.839 64.5048 462.955 63.591C469.071 62.6773 471.321 63.0294 478.581 59.3747C480.574 58.3747 480.011 59.5693 478.738 60.9209C473.652 66.3424 469.066 67.7366 462.955 68.6505C456.844 69.5645 454.589 69.2122 447.328 72.8678C445.336 73.8669 445.903 72.6725 447.171 71.3207ZM446.218 92.4108C449.717 87.5941 452.548 83.6578 455.928 79.1266C460.185 73.3771 466.497 69.7167 471.659 76.8853C476.465 83.5478 481.784 90.8544 483.31 92.9487C483.515 93.2344 483.386 93.553 482.947 93.5859C480.516 93.7572 474.934 94.1435 473.094 91.6251C470.43 87.9793 467.431 83.7722 464.99 80.4166C462.888 77.5224 459.842 77.2366 457.802 80.0405C455.528 83.1726 451.9 88.1314 450.446 90.0927C449.565 91.3512 448.44 92.4207 447.138 93.239C446.018 93.9192 445.398 93.5242 446.203 92.411L446.218 92.4108Z" fill="white"/>
<path d="M483.42 93.2638C483.393 93.4297 483.241 93.5633 482.967 93.5839C480.536 93.7551 474.953 94.1403 473.113 91.622C470.438 87.9766 467.44 83.7695 465.009 80.4144C462.907 77.5202 459.86 77.2346 457.819 80.0385C455.545 83.1706 451.918 88.105 450.464 90.0896C449.583 91.3481 448.459 92.4186 447.157 93.2369C446.018 93.9172 445.398 93.522 446.222 92.4088C449.75 87.6063 452.61 83.655 455.947 79.1237C460.195 73.3737 466.505 69.715 471.677 76.883C476.483 83.5416 481.803 90.8514 483.329 92.9457C483.406 93.0529 483.435 93.1642 483.42 93.2638ZM479.887 59.2032C479.887 59.5272 479.412 60.2017 478.739 60.9194C473.652 66.3408 469.047 67.7332 462.955 68.6472C456.863 69.5611 454.589 69.2107 447.329 72.8663C445.336 73.8654 445.903 72.6693 447.171 71.3174C452.257 65.8969 456.863 64.5035 462.955 63.5896C469.047 62.6756 471.322 63.0273 478.582 59.3726C479.516 58.9038 479.886 58.9173 479.887 59.2032ZM468.403 53.2762C468.416 54.305 468.19 55.3983 467.698 56.4504C466.268 59.5109 463.15 61.1049 460.723 59.9859C458.301 58.8535 457.487 55.4323 458.918 52.3717C460.348 49.3111 463.469 47.6932 465.89 48.8362C467.479 49.5856 468.378 51.3123 468.403 53.2762Z" fill="#64B5F6"/>
<path d="M439.908 251.614C441.152 249.254 442.683 247.061 444.468 245.087C444.509 245.687 444.57 246.252 444.634 246.798C444.795 248.388 445.143 249.951 445.671 251.457C446.473 253.599 447.492 254.974 448.637 255.717C449.73 256.407 450.972 256.817 452.256 256.918L452.255 256.516C452.262 254.063 452.541 251.62 453.085 249.23C453.563 246.896 454.485 244.678 455.797 242.699L455.772 242.669C457.054 240.686 458.825 239.076 460.912 237.998C462.996 236.921 465.324 236.412 467.663 236.524C470.389 236.48 473.055 237.322 475.272 238.925C477.47 240.563 479.232 242.727 480.398 245.225C481.313 247.141 481.941 249.185 482.26 251.288C482.632 253.849 482.804 256.437 482.775 259.025V262.357C482.745 262.612 482.622 262.847 482.432 263.017C482.243 263.187 481.998 263.281 481.743 263.282H479.851C478.939 263.281 477.739 263.28 476.233 263.28C472.876 263.244 469.69 263.226 466.668 263.226C464.609 263.226 462.528 263.189 460.387 263.226C458.246 263.262 456.294 263.262 454.516 263.263C451.177 263.262 448.453 262.704 446.396 261.462C444.368 260.204 442.715 258.41 441.616 256.275C440.885 254.786 440.311 253.224 439.908 251.614ZM452.213 205.708C453.274 205.251 456.773 203.687 461.578 201.508C467.552 198.762 473.619 195.989 479.779 193.188L480.634 192.816L483.286 198.776L460.633 208.464L481.819 217.288C482.003 217.4 482.155 217.558 482.258 217.749C482.362 217.94 482.417 218.156 482.413 218.374V226.895V231.698C482.413 231.838 482.386 231.976 482.332 232.106C482.278 232.235 482.198 232.351 482.099 232.449C481.999 232.546 481.881 232.623 481.751 232.673C481.622 232.723 481.484 232.745 481.346 232.742H453.291C453.158 232.745 453.024 232.723 452.898 232.675C452.772 232.626 452.657 232.551 452.559 232.458C452.462 232.364 452.384 232.254 452.33 232.129C452.275 232.004 452.246 231.868 452.243 231.732V226.932C452.242 226.794 452.27 226.66 452.323 226.533C452.376 226.406 452.451 226.29 452.548 226.192C452.644 226.096 452.757 226.02 452.883 225.968C453.01 225.916 453.146 225.893 453.282 225.894H476.939V221.771C472.194 219.663 467.265 217.473 462.111 215.168C456.958 212.862 453.304 211.248 452.213 210.744V205.708ZM452.253 280.878C452.245 278.993 452.566 277.12 453.195 275.344C453.812 273.628 454.749 272.047 455.954 270.687C457.405 269.114 459.18 267.886 461.154 267.087C463.198 266.24 465.388 265.808 467.595 265.813C469.652 265.797 471.693 266.168 473.616 266.907C475.509 267.661 477.217 268.825 478.621 270.315C479.962 271.69 481.015 273.322 481.723 275.116C482.445 276.961 482.815 278.931 482.809 280.915C482.834 282.894 482.49 284.861 481.8 286.713C481.136 288.47 480.111 290.062 478.793 291.388C477.354 292.901 475.613 294.086 473.686 294.863C471.717 295.624 469.626 296.002 467.519 295.98C465.348 295.989 463.196 295.561 461.19 294.72C459.378 293.972 457.736 292.86 456.363 291.451C454.988 290.041 453.91 288.363 453.195 286.52C452.545 284.713 452.225 282.802 452.253 280.878ZM452.264 178.393L452.3 178.178V171.635C452.266 169.763 452.437 167.892 452.811 166.058C453.095 164.445 453.632 162.886 454.4 161.443C455.144 160.222 456.158 159.196 457.364 158.442C458.388 157.849 459.537 157.513 460.715 157.464L460.77 157.462L463.508 157.464C464.492 157.463 465.952 157.469 467.884 157.464C469.819 157.458 471.23 157.427 472.108 157.427C474.196 157.379 475.615 156.887 476.261 156.365C476.908 155.843 477.351 154.78 477.351 152.979C477.28 151.593 476.951 150.235 476.384 148.971C475.744 147.351 474.977 145.785 474.089 144.291C473.543 144.29 472.594 144.289 471.213 144.289C469.166 144.289 467.268 144.289 465.608 144.289C463.947 144.288 452.45 144.289 452.294 144.289V137.981H482.5L482.498 144.457H479.783C480.768 146.226 481.604 148.079 482.279 149.992C482.849 151.53 483.169 153.15 483.229 154.792C483.276 156.013 483.072 157.231 482.629 158.368C482.185 159.505 481.515 160.535 480.655 161.393C478.918 163.081 476.557 163.904 473.739 163.904C471.325 163.904 469.249 163.886 467.506 163.856C465.761 163.826 464.368 163.825 463.277 163.825H461.368C460.749 163.8 460.142 163.987 459.642 164.354C459.061 164.831 458.615 165.45 458.344 166.154C458.027 166.919 457.827 167.729 457.75 168.555C457.703 168.79 457.704 168.981 457.704 169.191C458.79 168.702 459.966 168.45 461.156 168.454C463.085 168.424 464.96 169.103 466.433 170.367C467.984 171.74 469.178 173.475 469.913 175.422C470.551 177.098 471.028 178.832 471.336 180.601C471.735 182.68 472.026 184.78 472.203 186.891C473.025 186.775 473.815 186.482 474.517 186.033C475.354 185.445 475.989 184.605 476.331 183.632C476.665 182.799 476.892 181.925 477.007 181.033C477.154 179.869 477.222 178.696 477.209 177.523C477.21 176.683 477.186 176.004 477.157 175.386C477.127 174.768 477.067 173.933 477.02 172.906L476.954 171.784L482.576 172.473L482.636 173.255L482.737 174.976C482.808 175.859 482.809 177.031 482.809 178.544C482.836 180.669 482.59 182.789 482.078 184.852C481.64 186.628 480.79 188.275 479.599 189.653C478.504 190.82 477.157 191.714 475.662 192.263C474.031 192.882 471.829 193.152 469.007 193.153C464.286 193.153 460.454 193.194 457.477 193.151C454.5 193.11 453.877 193.11 453.651 193.111H453.439H453.32C453.209 193.116 453.098 193.098 452.992 193.061C452.783 192.999 452.599 192.872 452.468 192.696C452.337 192.519 452.266 192.305 452.264 192.085V178.393ZM457.441 280.873C457.434 281.917 457.61 282.952 457.963 283.933C458.314 284.843 458.84 285.673 459.511 286.376C460.49 287.384 461.671 288.169 462.974 288.676C464.368 289.217 465.849 289.491 467.34 289.486C468.938 289.487 470.524 289.207 472.027 288.659C473.455 288.148 474.733 287.282 475.745 286.143C476.363 285.468 476.834 284.671 477.132 283.803C477.465 282.878 477.631 281.9 477.624 280.915C477.652 279.857 477.479 278.803 477.109 277.811C476.718 276.883 476.148 276.04 475.436 275.333C474.468 274.347 473.298 273.591 472.008 273.119C470.599 272.572 469.104 272.294 467.595 272.301C465.963 272.282 464.341 272.566 462.809 273.136C461.394 273.689 460.142 274.595 459.169 275.771C458.603 276.457 458.167 277.241 457.886 278.086C457.585 278.984 457.435 279.925 457.441 280.873ZM457.7 256.834V256.985C458.235 256.985 458.987 256.985 459.965 256.985C461.858 257.021 464.087 257.02 466.679 257.02C468.036 257.02 469.751 257.021 471.815 257.02C473.582 257.002 475.416 256.995 477.319 256.96C477.321 255.493 477.208 254.028 476.981 252.579C476.742 251.199 476.343 249.851 475.794 248.563C475.126 246.883 473.963 245.452 472.462 244.465C470.964 243.513 469.225 243.02 467.457 243.048C465.736 242.992 464.041 243.478 462.605 244.44C461.242 245.385 460.157 246.689 459.468 248.209C458.898 249.457 458.471 250.765 458.192 252.11C457.857 253.661 457.692 255.246 457.7 256.834ZM457.767 184.773C457.767 185.128 457.768 185.588 457.769 186.152C457.768 186.404 457.768 186.718 457.769 187.006C458.023 187.006 458.308 187.005 458.658 187.004C459.637 187.005 460.977 187.006 462.643 187.006L464.855 187.012C465.501 187.012 466.207 187.012 467.003 187.012C466.942 186.19 466.806 185.043 466.639 183.626C466.459 181.875 466.094 180.15 465.549 178.477C465.256 177.537 464.779 176.666 464.149 175.915C463.906 175.608 463.595 175.361 463.243 175.195C462.888 175.029 462.504 174.949 462.115 174.959C461.711 174.934 461.306 174.994 460.927 175.137C460.546 175.279 460.199 175.501 459.909 175.786C459.259 176.506 458.791 177.373 458.544 178.314C458.256 179.276 458.059 180.263 457.952 181.261C457.828 182.428 457.765 183.601 457.767 184.773ZM486.336 226.926C486.337 226.788 486.364 226.651 486.417 226.524C486.471 226.398 486.549 226.282 486.646 226.187C486.744 226.09 486.859 226.017 486.987 225.966C487.113 225.916 487.249 225.891 487.386 225.894H491.852C492.122 225.889 492.383 225.989 492.58 226.177C492.777 226.365 492.895 226.623 492.908 226.897V231.698C492.907 231.838 492.879 231.976 492.824 232.104C492.771 232.233 492.692 232.349 492.593 232.445C492.494 232.542 492.378 232.619 492.249 232.669C492.12 232.718 491.983 232.741 491.844 232.736H487.392C487.256 232.74 487.122 232.718 486.996 232.669C486.87 232.62 486.755 232.548 486.657 232.454C486.559 232.36 486.48 232.248 486.425 232.123C486.371 231.999 486.339 231.864 486.336 231.729V226.926Z" fill="white"/>
<path d="M427.808 140.688C426.684 140.705 425.576 140.974 424.566 141.478C423.561 142.002 422.723 142.807 422.15 143.801C421.732 144.497 421.424 145.256 421.239 146.049C421.019 147.05 420.919 148.074 420.941 149.1C420.943 149.721 420.944 150.341 420.983 150.901C420.986 151.235 421.011 151.568 421.053 151.9L418.829 151.596C418.788 151.293 418.765 150.989 418.76 150.683C418.758 150.175 418.726 149.579 418.722 148.901C418.681 147.278 418.913 145.659 419.408 144.116C419.803 142.886 420.443 141.755 421.291 140.796C422.033 139.999 422.908 139.347 423.876 138.873C424.975 138.328 426.18 138.052 427.4 138.065C428.582 138.046 429.756 138.249 430.867 138.666C431.91 139.075 432.877 139.664 433.725 140.406C434.486 141.082 435.083 141.929 435.472 142.88C435.882 143.86 436.093 144.916 436.089 145.981C436.134 146.898 435.99 147.814 435.669 148.671C435.347 149.528 434.855 150.309 434.223 150.96C433.45 151.645 432.553 152.168 431.583 152.497C430.373 152.89 429.109 153.08 427.841 153.059L427.808 140.688ZM432.944 148.942C433.338 148.536 433.646 148.048 433.847 147.511C434.047 146.977 434.136 146.404 434.108 145.832C434.134 144.65 433.7 143.506 432.903 142.653C432.019 141.753 430.893 141.143 429.668 140.902L429.703 150.427C430.906 150.306 432.038 149.785 432.926 148.944L432.944 148.942ZM424.571 168.784C423.431 168.791 422.451 168.796 421.615 168.801C420.779 168.806 420.118 168.81 419.616 168.813C419.114 168.817 418.864 168.817 418.799 168.817C418.798 168.707 418.76 168.197 418.671 167.23C418.583 166.26 418.549 165.063 418.542 163.567C418.546 162.621 418.631 161.677 418.799 160.746C418.94 159.888 419.185 159.053 419.529 158.258C419.897 157.394 420.46 156.634 421.175 156.043C421.912 155.461 422.822 155.158 423.752 155.183C424.751 155.161 425.723 155.509 426.487 156.169C427.329 156.922 427.978 157.876 428.381 158.944C428.734 159.903 429.004 160.889 429.191 161.897C429.457 163.303 429.65 164.723 429.77 166.153C431.478 165.998 432.601 165.208 433.141 163.786C433.581 162.563 433.782 161.264 433.734 159.963C433.73 159.455 433.729 159.013 433.729 158.653L433.62 157.201L435.838 157.431C435.838 157.616 435.889 157.963 435.914 158.466C435.941 158.97 435.948 159.659 435.953 160.546C435.973 161.755 435.838 162.964 435.554 164.138C435.328 165.12 434.875 166.03 434.231 166.792C433.953 167.1 433.646 167.378 433.312 167.622C432.936 167.883 432.531 168.094 432.103 168.25C431.591 168.443 431.06 168.575 430.519 168.644C429.81 168.736 429.095 168.782 428.38 168.781C426.963 168.771 425.71 168.777 424.571 168.784ZM427.741 166.145C427.715 165.632 427.609 164.746 427.422 163.484C427.275 162.412 427.033 161.358 426.696 160.334C426.463 159.704 426.107 159.128 425.647 158.644C425.423 158.4 425.15 158.206 424.848 158.078C424.544 157.948 424.216 157.888 423.889 157.897C423.228 157.863 422.579 158.089 422.075 158.528C421.578 159.01 421.214 159.615 421.021 160.286C420.825 160.892 420.688 161.517 420.615 162.151C420.525 162.866 420.481 163.586 420.485 164.306L420.487 165.144L420.545 166.193L427.742 166.152L427.741 166.145ZM421.558 182.311C420.911 181.915 420.373 181.359 419.996 180.692C419.531 179.941 419.198 179.114 419.012 178.245C418.786 177.213 418.676 176.157 418.678 175.099C418.677 174.813 418.689 174.521 418.713 174.223C418.711 173.918 418.747 173.632 418.758 173.359C418.769 173.086 418.757 172.863 418.809 172.676C418.826 172.561 418.836 172.444 418.839 172.329L421.024 172.21C421.023 172.351 421.014 172.492 420.997 172.632L420.926 173.421L420.881 174.421C420.883 174.768 420.884 175.116 420.885 175.471C420.896 175.986 420.932 176.499 420.995 177.01C421.039 177.542 421.167 178.06 421.375 178.548C421.509 179.037 421.797 179.464 422.194 179.767C422.59 180.068 423.073 180.228 423.567 180.218C423.965 180.234 424.356 180.108 424.675 179.864C424.993 179.585 425.262 179.25 425.47 178.879C425.652 178.604 425.813 178.317 425.952 178.019L426.438 176.979C426.614 176.63 426.776 176.281 426.931 175.926C427.089 175.571 427.251 175.259 427.407 174.979C427.813 174.283 428.365 173.688 429.024 173.238C429.671 172.816 430.423 172.596 431.189 172.605C431.981 172.59 432.758 172.825 433.415 173.274C434.089 173.741 434.631 174.381 434.991 175.128C435.362 175.818 435.609 176.568 435.72 177.347C435.831 178.131 435.891 178.92 435.897 179.712C435.9 180.411 435.89 180.984 435.868 181.426L435.834 182.203L433.618 182.389C433.617 182.314 433.616 181.973 433.68 181.353C433.745 180.73 433.742 180.054 433.74 179.302C433.743 178.798 433.695 178.296 433.602 177.8C433.524 177.388 433.398 176.988 433.221 176.61C433.025 176.184 432.714 175.821 432.327 175.566C432.033 175.371 431.691 175.264 431.339 175.254C430.912 175.247 430.496 175.405 430.177 175.697C429.853 175.997 429.579 176.349 429.364 176.739C429.225 176.969 429.08 177.242 428.919 177.561C428.756 177.878 428.593 178.234 428.413 178.632L427.92 179.683C427.771 179.989 427.644 180.238 427.529 180.425C427.121 181.144 426.57 181.767 425.913 182.254C425.28 182.684 424.535 182.906 423.777 182.888C422.998 182.915 422.229 182.715 421.558 182.311ZM427.705 198.956L419.871 195.406C417.179 194.179 415.119 193.251 413.695 192.617C412.27 192.004 411.469 191.623 411.268 191.532L412.12 189.142L419.269 192.678C419.384 192.628 419.842 192.425 420.654 192.048C421.463 191.671 422.624 191.16 424.148 190.476C425.672 189.79 427.323 189.034 429.106 188.223C430.891 187.412 432.843 186.5 434.96 185.513L436.06 188.096C434.494 188.726 432.952 189.356 431.439 189.986C429.927 190.615 428.415 191.288 426.885 191.95L423.457 193.46C422.67 193.799 422.248 193.996 422.144 194.046L422.144 194.076C422.188 194.077 422.581 194.272 423.322 194.597C424.062 194.923 425.142 195.382 426.592 195.982C428.042 196.582 429.527 197.207 431.086 197.88C432.646 198.554 434.302 199.241 436.031 199.957L435.118 202.31C432.703 201.211 430.232 200.091 427.705 198.956Z" fill="white"/>
<path d="M265.516 270.5L284.016 268L290.016 273L282.016 286.5L253.516 287.5V264L265.516 270.5Z" fill="#571E2F"/>
<path d="M256.736 259.648L279.748 260.455C280.522 260.483 281.211 260.954 281.516 261.666L283.062 265.273C283.557 266.428 282.876 267.748 281.648 268.015L272.726 269.954C272.587 269.985 272.444 270 272.301 270H261.507C260.882 270 260.294 269.709 259.916 269.212L255.075 262.859C254.053 261.517 255.05 259.589 256.736 259.648Z" fill="white"/>
<path d="M263.516 270L263.868 268.286L263.516 270ZM254.582 260.219C254.151 259.354 253.1 259.003 252.235 259.434C251.37 259.866 251.019 260.916 251.45 261.781L253.016 261L254.582 260.219ZM284.516 267.5C284.034 265.818 284.035 265.818 284.035 265.818C284.035 265.818 284.035 265.818 284.035 265.818C284.034 265.818 284.034 265.818 284.033 265.818C284.032 265.818 284.03 265.819 284.027 265.82C284.022 265.821 284.013 265.824 284.001 265.827C283.977 265.834 283.939 265.844 283.89 265.858C283.791 265.886 283.644 265.926 283.453 265.978C283.07 266.08 282.512 266.227 281.82 266.398C280.433 266.741 278.513 267.183 276.377 267.579C272.013 268.389 267.07 268.943 263.868 268.286L263.516 270L263.164 271.714C267.109 272.523 272.666 271.827 277.015 271.02C279.236 270.608 281.226 270.15 282.66 269.796C283.378 269.618 283.958 269.466 284.361 269.358C284.563 269.303 284.72 269.26 284.827 269.23C284.881 269.215 284.923 269.204 284.952 269.196C284.966 269.192 284.977 269.188 284.985 269.186C284.988 269.185 284.992 269.184 284.994 269.184C284.995 269.183 284.996 269.183 284.996 269.183C284.997 269.183 284.997 269.183 284.997 269.183C284.998 269.182 284.998 269.182 284.516 267.5ZM263.516 270L263.868 268.286C261.069 267.711 258.759 265.793 257.082 263.844C256.258 262.886 255.625 261.965 255.198 261.284C254.986 260.945 254.827 260.669 254.723 260.482C254.671 260.388 254.634 260.317 254.61 260.272C254.598 260.25 254.59 260.234 254.585 260.225C254.583 260.22 254.581 260.217 254.581 260.216C254.581 260.216 254.581 260.216 254.581 260.216C254.581 260.216 254.581 260.217 254.581 260.217C254.581 260.217 254.582 260.218 254.582 260.218C254.582 260.218 254.582 260.219 253.016 261C251.45 261.781 251.45 261.782 251.451 261.782C251.451 261.783 251.451 261.783 251.451 261.784C251.452 261.784 251.452 261.785 251.453 261.787C251.454 261.789 251.455 261.791 251.457 261.795C251.46 261.801 251.464 261.809 251.469 261.819C251.479 261.839 251.493 261.866 251.511 261.9C251.546 261.967 251.597 262.061 251.662 262.179C251.793 262.415 251.983 262.745 252.232 263.142C252.729 263.934 253.465 265.006 254.429 266.126C256.328 268.333 259.269 270.915 263.164 271.714L263.516 270Z" fill="black"/>
<path d="M269.016 283.5L279.516 284L280.016 285L272.516 296L263.016 299.5L253.516 295L253.016 287L264.016 283L269.016 283.5Z" fill="black"/>
<path d="M279.516 287C279.516 287 279.516 283.5 276.016 283C273.282 282.609 268.516 284 268.516 284M268.516 284L262.016 290M268.516 284C268.516 284 266.797 282.139 264.516 282C259.97 281.723 253.016 289 253.016 289" stroke="black" stroke-width="3" stroke-linecap="round"/>
<path d="M259.516 285.5C261.516 284 266.016 283 265.516 284.5C265.016 286 263.016 287.5 262.016 288.5C261.016 289.5 260.724 290.5 261.016 291C261.308 291.5 262.516 291 263.516 290.5C264.516 290 269.516 286 271.016 285C272.516 284 276.516 283.5 278.016 285.5C279.516 287.5 274.516 292 272.516 293.5C270.516 295 268.305 297.055 265.016 297.5C261.727 297.945 257.315 297.418 256.016 296C254.717 294.582 253.016 291 253.016 291C253.016 291 257.516 287 259.516 285.5Z" fill="#EF83B3"/>
<path d="M265.016 261C269.515 261.205 276.202 260.218 279.096 259.743C279.948 259.604 280.795 260.009 281.228 260.756C282.107 262.269 283.651 264.819 285.016 266.5C286.239 268.007 288.349 270.037 289.713 271.307C290.452 271.996 290.583 273.128 290.003 273.955C286.391 279.107 285.576 279.87 282.516 284C278.032 290.053 273.516 295.443 271.516 296.5C269.516 297.557 262.81 300.557 259.016 299C256.661 298.034 254.102 295.616 253.032 294.536C252.693 294.194 252.509 293.735 252.496 293.254L251.595 260.384C251.569 259.435 253.088 258.62 253.962 258.989C255.938 259.821 259.349 260.742 265.016 261Z" stroke="black" stroke-width="3.5"/>
<path d="M258.516 285C258.516 285 255.516 287 254.516 288.5C253.428 290.133 253.112 292.493 254.016 294C255.516 296.5 260.516 299 260.516 299" stroke="black" stroke-width="2"/>
<circle cx="317.016" cy="245.5" r="32.5" transform="rotate(90 317.016 245.5)" fill="white"/>
<ellipse cx="305.998" cy="234.447" rx="20.4106" ry="15.1605" transform="rotate(115.728 305.998 234.447)" fill="#007BC4"/>
<ellipse cx="303.6" cy="233.054" rx="12.607" ry="8.2333" transform="rotate(128.104 303.6 233.054)" fill="black"/>
<circle cx="305.516" cy="225" r="5" transform="rotate(90 305.516 225)" fill="white"/>
<circle cx="317.016" cy="245.5" r="30.5" transform="rotate(90 317.016 245.5)" stroke="black" stroke-width="4"/>
<path d="M263.516 237C270.016 227 268.516 213.5 268.516 213.5L260.016 210.5C260.016 210.5 250.016 216 244.516 227C239.94 236.152 242.979 251.187 244.129 255.981C244.3 256.695 245.146 256.946 245.69 256.455C249.03 253.443 258.652 244.483 263.516 237Z" fill="white"/>
<ellipse cx="257.826" cy="226.776" rx="16.0452" ry="10.2979" transform="rotate(112.689 257.826 226.776)" fill="#007BC4"/>
<ellipse cx="258.964" cy="226.534" rx="9.93066" ry="6.37353" transform="rotate(121.839 258.964 226.534)" fill="black"/>
<ellipse cx="264.486" cy="220.5" rx="5.11236" ry="4.14433" transform="rotate(120.022 264.486 220.5)" fill="white"/>
<path d="M263.516 237L265.193 238.09L265.193 238.09L263.516 237ZM262.5 211.241C263.462 210.698 263.801 209.477 263.257 208.516C262.714 207.554 261.494 207.215 260.532 207.759L261.516 209.5L262.5 211.241ZM245.638 255.127L244.397 253.559L245.638 255.127ZM244.138 254.63L242.202 255.133L244.138 254.63ZM268.516 213.5C266.528 213.721 266.528 213.72 266.528 213.72C266.528 213.72 266.528 213.719 266.528 213.719C266.528 213.719 266.528 213.719 266.528 213.719C266.528 213.719 266.528 213.72 266.528 213.722C266.529 213.726 266.53 213.732 266.531 213.742C266.533 213.762 266.536 213.794 266.54 213.839C266.548 213.928 266.56 214.064 266.573 214.245C266.6 214.606 266.631 215.142 266.65 215.821C266.687 217.179 266.672 219.096 266.463 221.312C266.04 225.777 264.842 231.291 261.839 235.91L263.516 237L265.193 238.09C268.69 232.709 269.992 226.473 270.445 221.688C270.673 219.279 270.689 217.196 270.648 215.711C270.628 214.967 270.593 214.37 270.563 213.954C270.547 213.746 270.533 213.583 270.523 213.469C270.518 213.412 270.513 213.368 270.51 213.336C270.508 213.32 270.507 213.307 270.506 213.298C270.505 213.293 270.505 213.289 270.505 213.286C270.504 213.284 270.504 213.283 270.504 213.282C270.504 213.281 270.504 213.281 270.504 213.28C270.504 213.28 270.504 213.279 268.516 213.5ZM263.516 237L261.839 235.91C257.152 243.121 247.708 250.938 244.397 253.559L245.638 255.127L246.879 256.695C250.149 254.107 260.102 245.923 265.193 238.09L263.516 237ZM244.138 254.63L246.074 254.128C245.519 251.991 244.499 247.512 244.174 242.476C243.846 237.39 244.247 232.01 246.305 227.894L244.516 227L242.727 226.106C240.197 231.167 239.838 237.399 240.182 242.733C240.529 248.117 241.614 252.865 242.202 255.133L244.138 254.63ZM244.516 227L246.305 227.894C248.887 222.73 252.916 218.561 256.367 215.655C258.083 214.21 259.632 213.097 260.748 212.348C261.305 211.974 261.752 211.692 262.056 211.506C262.208 211.413 262.324 211.344 262.399 211.3C262.437 211.278 262.464 211.262 262.481 211.252C262.49 211.247 262.496 211.244 262.499 211.242C262.501 211.241 262.501 211.24 262.502 211.24C262.502 211.24 262.502 211.24 262.501 211.24C262.501 211.24 262.501 211.241 262.501 211.241C262.501 211.241 262.5 211.241 261.516 209.5C260.532 207.759 260.532 207.759 260.531 207.759C260.531 207.76 260.53 207.76 260.53 207.76C260.529 207.761 260.528 207.761 260.526 207.762C260.524 207.764 260.52 207.765 260.517 207.768C260.509 207.772 260.498 207.778 260.484 207.786C260.458 207.802 260.42 207.823 260.372 207.851C260.277 207.908 260.14 207.989 259.966 208.095C259.62 208.308 259.126 208.62 258.519 209.027C257.306 209.841 255.637 211.04 253.79 212.595C250.116 215.689 245.645 220.27 242.727 226.106L244.516 227ZM245.638 255.127L244.397 253.559C244.965 253.109 245.879 253.377 246.074 254.128L244.138 254.63L242.202 255.133C242.746 257.229 245.222 258.007 246.879 256.695L245.638 255.127Z" fill="black"/>
<path d="M252.516 216.5C252.516 216.5 258.516 211 262.016 211C264.919 211 266.711 212.585 267.516 215C269.016 219.5 267.016 231 267.016 231" stroke="black" stroke-width="3"/>
<path d="M377.516 292.5L345.53 267.671C345.53 267.671 346.726 266.291 347.516 265.5C348.016 265 349.016 263.5 349.016 263.5L350.516 263L381.516 286L377.516 292.5Z" fill="#007BC4"/>
<path d="M348.633 264.043L350.516 260.5L364.016 263.5L384.016 282.5L381.016 286C381.016 286 370.227 281.538 364.016 275C357.805 268.462 348.633 264.043 348.633 264.043Z" fill="white"/>
<path d="M357.926 264.19C354.272 261.801 350.274 260.953 350.274 260.953C350.274 260.953 351.067 258.95 351.262 257.974C351.457 256.998 351.516 255.5 351.516 255.5L359.516 257L386.516 276.5L383.516 282C383.516 282 378.516 280.12 372.016 275.5C367.059 271.977 363.017 267.517 357.926 264.19Z" fill="#E62C32"/>
<path d="M372.516 260.5L351.569 255.046C351.569 255.046 352.362 253.172 352.742 251.992C353.122 250.811 353.516 249 353.516 249L355.016 247L387.516 257.5L390.516 266L372.516 260.5Z" fill="#007BC4"/>
<path d="M371.516 252.5C365.004 250.756 353.516 249 353.516 249C353.516 249 353.762 247.826 353.86 247.045C353.957 246.264 354.016 245 354.016 245L361.016 244L386.516 251L388.016 258.5C388.016 258.5 378.028 254.244 371.516 252.5Z" fill="white"/>
<path d="M370.516 247.5C364.359 246.058 354.016 245 354.016 245V243C354.016 241.5 353.016 237.5 353.016 237.5L385.516 245L386.516 253C386.516 253 377.31 249.091 370.516 247.5Z" fill="#E62C32"/>
<path d="M355.016 237.5C355.016 237.5 366.383 239.215 373.516 241C377.496 241.996 383.263 243.79 385.001 244.337C385.324 244.439 385.57 244.696 385.66 245.022L391.461 265.992C391.684 266.801 390.878 267.513 390.106 267.185C385.642 265.29 374.53 260.626 369.516 259C363.163 256.94 353.516 255.5 353.516 255.5C353.516 255.5 362.516 257 368.516 263C373.583 268.067 383.997 274.203 387.115 275.989C387.606 276.271 387.774 276.9 387.48 277.384C386.526 278.95 384.498 282.256 383.016 284.5C381.489 286.813 379.672 290.254 378.897 291.755C378.674 292.186 378.183 292.398 377.725 292.237C375.229 291.36 367.336 288.235 361.516 282C354.034 273.983 347.016 269 347.016 269" stroke="black" stroke-width="4" stroke-linecap="round"/>
<path d="M356.516 256L353.516 255.5" stroke="black" stroke-width="4" stroke-linecap="round"/>
<path d="M317.516 198.5C317.516 198.5 302.516 213 281.016 214.5C273.016 215.058 257.139 210.707 252.516 198.5C251.191 195 246.016 165 290.016 158.5C293.096 158.045 333.016 156.5 356.016 187.5C379.016 218.5 376.516 241.5 376.516 241.5" stroke="black" stroke-width="4" stroke-linecap="round"/>
<path d="M227.516 256.5L236.016 246.5L230.516 242L232.516 231L214.016 213.5L206.516 230L193.016 241L213.516 258L221.016 253.5L227.516 256.5Z" fill="#007BC4"/>
<path d="M179.016 235L155.016 230.5L166.516 220.5L180.516 204.5L186.516 188L191.016 183L200.016 198L214.516 214L210.016 224L202.016 234L192.516 241.5L179.016 235Z" fill="white"/>
<path d="M140.516 228.5L157.516 229.5L178.016 209L187.016 191.5L191.516 180.5L185.016 160L177.016 183.5L169.016 198L159.016 210L140.516 228.5Z" fill="#E62C32"/>
<path d="M180.516 174.5L184.016 157L182.016 148L175.516 143L164.016 146.5L144.516 161L128.516 183.5L119.516 207L118.516 221L122.016 227L137.516 229L153.016 217.5L171.016 196L180.516 174.5Z" fill="#B41412"/>
<path d="M160.756 207.86L173.861 190.528C174.507 189.674 174.365 188.462 173.539 187.78L164.701 180.479C164.002 179.902 163.003 179.867 162.265 180.394L153.623 186.567C153.231 186.846 152.954 187.257 152.841 187.725L149.815 200.264C149.632 201.018 149.903 201.81 150.509 202.295L157.911 208.216C158.79 208.919 160.077 208.759 160.756 207.86Z" fill="white"/>
<path d="M175.016 188L167.016 181.5C162.655 178.186 157.388 181.823 153.016 188C148.644 194.177 149.016 202 150.516 203L158.516 209.5" stroke="black" stroke-width="4"/>
<path d="M153.487 198.992C155.586 200.516 158.456 197.379 160.971 193.916C163.485 190.454 163.956 186.524 161.857 185" stroke="black" stroke-width="4"/>
<path d="M184.516 158.5C184.516 158.5 179.516 184.5 167.516 200.5C156.384 215.342 139.016 228.5 139.016 228.5" stroke="black" stroke-width="4"/>
<path d="M214.016 213.5C214.016 213.5 210.768 224.065 206.516 229.5C202.063 235.192 192.016 241 192.016 241" stroke="black" stroke-width="4"/>
<path d="M190.516 178.5C190.516 178.5 186.589 195.887 180.016 206C173.516 216 156.016 229.5 156.016 229.5" stroke="black" stroke-width="4"/>
<path d="M226.516 247.5C230.538 241.948 231.753 237.814 232.516 231C232.74 229 205.228 210.196 195.016 189.5C188.203 175.693 185.196 159.305 182.016 149.5C176.016 131 143.516 157.5 133.016 177C122.516 196.5 108.516 228.5 129.016 228.5C134.606 228.5 169.133 227.74 191.016 240C198.956 244.448 209.139 253.838 212.435 256.963C213.083 257.577 214.046 257.697 214.805 257.229C217.468 255.587 223.572 251.564 226.516 247.5Z" stroke="black" stroke-width="4"/>
<path d="M230.516 242L234.016 244.5C235.516 245.743 236.059 248.5 232.283 253.058C228.506 257.616 225.353 257.108 224.016 256L220.516 253.5" stroke="black" stroke-width="4"/>
<path d="M174.161 284.104L180.765 290.296C181.176 290.681 181.822 290.654 182.194 290.231C184.451 287.667 191.858 279.222 197.016 273C202.581 266.286 210.766 254.938 212.273 252.839C212.429 252.621 212.491 252.353 212.432 252.091C212.205 251.086 211.498 248.469 210.016 247C208.883 245.877 206.764 244.733 205.153 243.958C203.912 243.361 202.447 243.781 201.637 244.894L174.036 282.786C173.739 283.194 173.792 283.759 174.161 284.104Z" fill="#007BC4"/>
<path d="M175.45 285.313L179.262 288.887C180.496 290.044 182.438 289.955 183.553 288.683C186.65 285.152 192.642 278.277 197.016 273C202.102 266.864 209.376 256.858 211.741 253.578C212.239 252.888 212.416 252.023 212.121 251.225C211.696 250.075 210.89 248.362 209.516 247C208.444 245.937 206.634 244.855 205.196 244.085C203.944 243.415 202.418 243.822 201.582 244.969L175.076 281.358C174.185 282.581 174.345 284.277 175.45 285.313Z" stroke="black" stroke-width="4"/>
<path d="M173.516 262C169.111 267.44 164.516 277.5 164.516 277.5L171.516 281.5C171.516 281.5 173.203 277.787 175.016 276C176.016 275.015 181.516 274.5 188.516 274C194.851 273.547 202.881 266.85 203.016 260.5C203.103 256.396 202.157 255.144 199.016 252.5C195.086 249.192 191.012 249.307 186.016 250.5C179.564 252.041 177.69 256.845 173.516 262Z" fill="#E40521"/>
<path d="M164.516 277.5C164.516 277.5 169.111 267.44 173.516 262C177.69 256.845 179.564 252.041 186.016 250.5C191.012 249.307 195.086 249.192 199.016 252.5C202.157 255.144 203.103 256.396 203.016 260.5C202.881 266.85 194.851 273.547 188.516 274C181.516 274.5 176.516 276.015 175.516 277C173.703 278.787 174.516 284 174.516 284" stroke="black" stroke-width="4" stroke-linecap="round"/>
<path d="M108.516 179L88.5161 174.5" stroke="black" stroke-width="4" stroke-linecap="round"/>
<path d="M106.016 132L122.516 146.5" stroke="black" stroke-width="4" stroke-linecap="round"/>
<path d="M142.533 109L148.612 122.455" stroke="black" stroke-width="4" stroke-linecap="round"/>
<path d="M102.016 220L86.5161 221" stroke="black" stroke-width="4" stroke-linecap="round"/>
<path d="M133.312 55.1099C132.89 54.966 132.437 54.9326 131.998 55.0129C131.559 55.0933 131.147 55.2848 130.803 55.5691C130.458 55.2848 130.046 55.0934 129.606 55.013C129.166 54.9326 128.713 54.966 128.29 55.1099C127.764 55.3321 127.196 55.4384 126.625 55.4215C127.003 56.2082 127.596 56.872 128.335 57.3367C129.073 57.8013 129.928 58.0478 130.801 58.0478C131.674 58.0478 132.529 57.8013 133.268 57.3367C134.006 56.872 134.599 56.2082 134.977 55.4215C134.406 55.4384 133.838 55.3321 133.312 55.1099Z" fill="white"/>
<path d="M130.807 16C125.211 15.9954 119.807 18.0487 115.626 21.7693C111.445 25.4898 108.778 30.6178 108.132 36.1772C107.487 41.7367 108.908 47.3394 112.125 51.9191C115.342 56.4988 120.131 59.7358 125.58 61.0139C121.721 58.9468 118.802 55.4789 117.424 51.3243C116.046 47.1696 116.313 42.6446 118.171 38.6812C118.482 40.3332 119.18 41.8882 120.206 43.2193C121.233 44.5503 122.56 45.6197 124.079 46.34C122.066 41.6176 121.704 36.3542 123.052 31.4007C124.4 26.4472 127.38 22.0931 131.508 19.0422C129.831 24.7822 132.406 30.0302 137.929 33.9949C144.243 38.5295 144.489 47.7832 138.938 52.7811C141.218 52.2522 143.261 50.9871 144.751 49.1813C144.271 51.6782 143.24 54.0364 141.731 56.0836C140.223 58.1307 138.277 59.8152 136.035 61.0139C141.484 59.7358 146.272 56.4988 149.49 51.9191C152.707 47.3394 154.128 41.7367 153.482 36.1772C152.837 30.6178 150.169 25.4898 145.988 21.7693C141.807 18.0487 136.404 15.9954 130.807 16Z" fill="white"/>
<path d="M98.692 70.3291C98.3947 70.6932 98.0095 70.9754 97.5727 71.1491C97.1076 71.3499 96.6728 71.6149 96.2812 71.9363V68.3529H97.3308C97.9171 68.3529 98.5608 68.5333 98.7986 69.136C98.8709 69.3302 98.8989 69.5382 98.8804 69.7446C98.862 69.9511 98.7976 70.1508 98.692 70.3291ZM98.7453 67.6026C98.2139 67.381 97.6391 67.2829 97.0643 67.3156H95.1701V74.4414H96.2771C96.2374 74.0363 96.2878 73.6275 96.4247 73.2442C96.7035 72.6374 97.3554 72.3463 97.9212 72.0716C98.487 71.7969 99.2086 71.4894 99.6104 70.9154C99.9549 70.3907 100.08 69.7519 99.9589 69.136C99.8946 68.8018 99.7507 68.4879 99.5395 68.221C99.3283 67.9541 99.0558 67.742 98.7453 67.6026Z" fill="white"/>
<path d="M106.876 71.76C106.537 71.4452 106.13 71.2138 105.687 71.0842C105.243 70.9547 104.776 70.9306 104.321 71.0138V69.8494C104.311 69.6364 104.328 69.4229 104.371 69.2139C104.424 69.0129 104.528 68.8285 104.671 68.6774C104.814 68.5263 104.993 68.4134 105.191 68.3488C105.396 68.2807 105.614 68.2618 105.828 68.2939C106.041 68.326 106.244 68.408 106.421 68.5333C106.585 68.663 106.717 68.8289 106.807 69.0181C106.896 69.2073 106.941 69.4146 106.937 69.6239C106.937 69.9601 106.937 70.2922 106.937 70.6284V71.8297C106.919 71.8044 106.898 71.7811 106.876 71.76ZM106.876 67.5042C106.384 67.2333 105.817 67.1311 105.261 67.2133C104.706 67.2955 104.193 67.5576 103.801 67.9593C103.451 68.3695 103.247 68.8845 103.223 69.423C103.223 69.5583 103.223 74.4332 103.223 74.4332H104.35V72.0757C105.01 71.9582 105.691 72.0929 106.257 72.4529C106.485 72.6272 106.667 72.8537 106.789 73.1135C106.911 73.3732 106.969 73.6586 106.958 73.9453V74.4373H108.04V69.669C108.06 69.2391 107.964 68.8116 107.761 68.432C107.558 68.0523 107.257 67.7346 106.888 67.5124L106.876 67.5042Z" fill="white"/>
<path d="M113.899 68.3488C114.604 68.3488 115.313 68.6932 115.395 69.464C115.419 69.6453 115.405 69.8295 115.354 70.0052C115.304 70.1809 115.217 70.3442 115.1 70.4849C114.802 70.7737 114.451 71.0033 114.067 71.1614C113.612 71.3533 113.189 71.6132 112.812 71.9322V68.3488H113.899ZM115.568 71.7928C115.436 71.7268 115.299 71.672 115.158 71.6288C115.522 71.4461 115.845 71.1892 116.105 70.8744C116.336 70.5801 116.478 70.2259 116.515 69.8535C116.571 69.477 116.525 69.0922 116.381 68.7399C116.236 68.3876 115.999 68.081 115.695 67.8527C114.838 67.2172 113.755 67.3156 112.747 67.3156H111.701V74.4414H112.808C112.808 74.2323 112.808 74.0314 112.808 73.8059C112.81 73.5717 112.869 73.3416 112.981 73.1358C113.092 72.9299 113.253 72.7545 113.448 72.6251C113.656 72.5043 113.889 72.434 114.129 72.4198C114.369 72.4055 114.609 72.4478 114.83 72.5431C115.04 72.6408 115.222 72.7902 115.359 72.9773C115.496 73.1645 115.583 73.3832 115.613 73.6132C115.64 73.8856 115.647 74.1597 115.633 74.4332H116.752C116.774 74.0411 116.752 73.6478 116.687 73.2606C116.617 72.9497 116.481 72.6576 116.288 72.4042C116.095 72.1509 115.849 71.9423 115.568 71.7928Z" fill="white"/>
<path d="M120.205 68.3119C120.566 68.2226 120.936 68.1677 121.308 68.1479V67.3279H120.205V68.3119Z" fill="white"/>
<path d="M120.205 68.9391V74.4413H121.308V68.7751C120.935 68.7886 120.565 68.8436 120.205 68.9391Z" fill="white"/>
<path d="M128.7 71.022C128.289 70.7336 127.837 70.5096 127.359 70.3578C126.891 70.2337 126.459 69.9988 126.1 69.6731C125.969 69.504 125.904 69.2927 125.918 69.079C125.931 68.8653 126.022 68.6639 126.174 68.5128C126.338 68.3646 126.539 68.2631 126.755 68.2191C126.971 68.1751 127.196 68.1901 127.404 68.2627C127.621 68.3342 127.809 68.4739 127.939 68.6608C128.07 68.8478 128.137 69.072 128.13 69.3H129.225C129.238 68.7791 129.048 68.2734 128.696 67.8896C128.342 67.5217 127.871 67.2884 127.363 67.2295C126.84 67.1485 126.304 67.2407 125.838 67.4919C125.394 67.7347 125.055 68.1334 124.887 68.6112C124.81 68.8491 124.781 69.0997 124.802 69.3488C124.822 69.5978 124.891 69.8404 125.006 70.0626C125.296 70.5134 125.729 70.854 126.236 71.0302C126.794 71.2023 127.332 71.4361 127.839 71.7272C128.038 71.852 128.184 72.0463 128.249 72.2725C128.308 72.5031 128.284 72.7473 128.179 72.9613C128.034 73.1936 127.819 73.3734 127.564 73.4745C127.31 73.5756 127.03 73.5926 126.765 73.523C126.483 73.4715 126.228 73.3233 126.044 73.104C125.86 72.8847 125.758 72.6081 125.756 72.3217H124.661C124.652 72.6045 124.701 72.8861 124.804 73.1497C124.907 73.4132 125.062 73.6532 125.26 73.8551C125.681 74.2591 126.232 74.5003 126.814 74.5357C127.417 74.6024 128.024 74.4574 128.532 74.1257C128.759 73.9662 128.95 73.7601 129.091 73.5211C129.232 73.2822 129.321 73.0159 129.352 72.7399C129.402 72.4216 129.369 72.0956 129.254 71.7943C129.14 71.4929 128.949 71.2267 128.7 71.022Z" fill="white"/>
<path d="M139.016 71.1737C139.272 70.8745 139.49 70.5439 139.663 70.1897C139.82 69.8373 139.879 69.4494 139.836 69.0663C139.787 68.7108 139.649 68.3736 139.433 68.0866C139.218 67.7997 138.933 67.5724 138.606 67.4263C138.26 67.2733 137.885 67.1981 137.508 67.2059C137.13 67.2137 136.759 67.3043 136.42 67.4714C136.086 67.6333 135.801 67.8804 135.593 68.1878C135.385 68.4951 135.262 68.8519 135.235 69.2221C135.219 69.5952 135.295 69.9667 135.458 70.303C135.62 70.6394 135.863 70.9301 136.166 71.1491L136.789 70.3496C136.556 70.1442 136.397 69.8674 136.338 69.5624C136.31 69.4161 136.311 69.2655 136.342 69.1196C136.373 68.9738 136.433 68.8357 136.519 68.7137C136.706 68.4803 136.967 68.3174 137.259 68.2519C137.551 68.1863 137.857 68.222 138.126 68.3529C138.398 68.4818 138.609 68.7131 138.712 68.9966C138.803 69.2998 138.777 69.6263 138.638 69.9109C138.496 70.1873 138.32 70.4448 138.114 70.6776L135.895 73.4533L135.1 74.4414H140.11V73.4246H137.24L139.016 71.1737Z" fill="white"/>
<path d="M149.188 71.9035C148.985 72.3997 148.634 72.8206 148.181 73.1081C147.729 73.3955 147.199 73.5351 146.663 73.5076C146.128 73.4802 145.615 73.2869 145.194 72.9547C144.774 72.6225 144.467 72.1677 144.317 71.6534C144.166 71.1372 144.173 70.5876 144.338 70.0758C144.504 69.564 144.819 69.1137 145.243 68.7834C145.677 68.4598 146.201 68.2795 146.742 68.2677C147.283 68.256 147.814 68.4133 148.261 68.7178C148.751 69.0678 149.108 69.5723 149.276 70.1501C149.444 70.7279 149.413 71.3455 149.188 71.9035ZM149.43 68.2709C148.877 67.7417 148.179 67.3902 147.425 67.2615C146.67 67.1329 145.895 67.2331 145.198 67.5493C144.508 67.8652 143.932 68.3878 143.552 69.0448C143.171 69.7018 143.004 70.4608 143.073 71.217C143.142 71.9732 143.445 72.6892 143.939 73.2661C144.432 73.8429 145.093 74.2522 145.83 74.4373C146.569 74.6278 147.349 74.5917 148.068 74.3336C148.786 74.0756 149.411 73.6074 149.86 72.99C150.298 72.3541 150.528 71.5973 150.516 70.8249C150.504 70.0526 150.252 69.3032 149.794 68.6809C149.689 68.5364 149.574 68.3994 149.45 68.2709H149.43Z" fill="white"/>
<path d="M157.564 71.1737C157.822 70.8754 158.04 70.5446 158.212 70.1897C158.37 69.8377 158.431 69.4498 158.388 69.0663C158.337 68.7088 158.196 68.3704 157.977 68.0832C157.758 67.7961 157.469 67.5699 157.137 67.4263C156.792 67.2733 156.417 67.1981 156.04 67.2059C155.662 67.2137 155.291 67.3043 154.952 67.4714C154.618 67.6333 154.333 67.8804 154.125 68.1878C153.917 68.4951 153.794 68.8519 153.767 69.2221C153.751 69.5951 153.828 69.9663 153.991 70.3025C154.153 70.6388 154.396 70.9296 154.698 71.1491L155.325 70.3496C155.091 70.1444 154.931 69.8677 154.87 69.5624C154.841 69.4158 154.843 69.2649 154.874 69.1189C154.906 68.9729 154.967 68.835 155.055 68.7137C155.242 68.4797 155.503 68.3164 155.795 68.2508C156.087 68.1852 156.393 68.2212 156.662 68.3529C156.796 68.4163 156.917 68.5059 157.016 68.6164C157.115 68.7269 157.191 68.8562 157.24 68.9966C157.331 69.2998 157.305 69.6263 157.166 69.9109C157.024 70.1863 156.849 70.4437 156.645 70.6776L154.423 73.4533C154.161 73.7854 153.894 74.1134 153.628 74.4455H158.638V73.4287H155.768L157.564 71.1737Z" fill="white"/>
<path d="M165.37 69.2221V71.637C164.846 71.2639 164.189 71.1491 163.632 70.817C163.419 70.6753 163.248 70.4785 163.137 70.2475C163.027 70.0165 162.981 69.76 163.005 69.505C163.005 68.9884 163.005 67.3115 163.005 67.3115H161.894V69.5378C161.867 69.9108 161.927 70.2849 162.069 70.6306C162.211 70.9764 162.432 71.2844 162.714 71.5304C163.107 71.8115 163.543 72.0274 164.005 72.17C164.432 72.284 164.82 72.5139 165.124 72.8342C165.312 73.1062 165.398 73.4359 165.366 73.7649V74.4332H166.428V69.218H165.37V69.2221Z" fill="white"/>
<path d="M130.717 80.1407C129.004 79.7458 126.666 80.1813 124.457 81.4566C121 83.4516 119.169 86.7514 120.367 88.8258C121.133 90.1509 122.949 90.6547 125.062 90.3262C124.095 90.1029 123.327 89.6175 122.895 88.8682C121.698 86.7939 123.53 83.4959 126.985 81.4991C128.233 80.7793 129.523 80.3271 130.717 80.1407Z" fill="white"/>
<path d="M130.746 88.322C131.261 90.0032 132.806 91.81 135.015 93.0853C138.472 95.0803 142.244 95.0175 143.442 92.9432C144.207 91.6181 143.735 89.7929 142.393 88.1263C142.683 89.0749 142.646 89.9829 142.214 90.7304C141.017 92.8047 137.244 92.8675 133.788 90.8725C132.54 90.1527 131.503 89.2613 130.746 88.3201" fill="white"/>
<path d="M128.402 84.2526C127.205 85.5389 126.411 87.7812 126.411 90.3317C126.411 94.3236 128.353 97.5588 130.748 97.5588C132.278 97.5588 133.623 96.2374 134.395 94.2424C133.719 94.9677 132.913 95.3903 132.049 95.3903C129.654 95.3903 127.712 92.1551 127.712 88.1632C127.712 86.7219 127.965 85.3802 128.401 84.2526" fill="white"/>
<path d="M30 49.0017H31.7456C33.1154 49.0017 34.0385 49.4624 34.0385 50.801C34.0385 52.1397 33.1189 52.6886 31.782 52.6886H30.7776V55.1131H30V49.0017ZM31.6833 52.0583C32.7518 52.0583 33.2609 51.6704 33.2609 50.801C33.2609 49.9317 32.7189 49.6321 31.6452 49.6321H30.7758V52.0583H31.6833Z" fill="white"/>
<path d="M36.7054 49.0017H37.5834L39.6511 55.1131H38.8268L37.7618 51.6998C37.5418 51.0157 37.3461 50.3456 37.1505 49.6407H37.1124C36.9236 50.349 36.7279 51.0175 36.508 51.6998L35.4308 55.1131H34.6394L36.7071 49.0017H36.7054ZM35.7252 52.6297H38.5393V53.2497H35.7252V52.6297Z" fill="white"/>
<path d="M41.1196 49.0017H43.0332C44.2783 49.0017 45.1719 49.4485 45.1719 50.7213C45.1719 51.9942 44.2783 52.5293 43.0332 52.5293H41.8972V55.1131H41.1196V49.0017ZM42.9224 51.8989C43.8731 51.8989 44.3961 51.5145 44.3961 50.7213C44.3961 49.9282 43.8731 49.6321 42.9224 49.6321H41.8972V51.8989H42.9224ZM42.8808 52.3163L43.4904 51.9145L45.3555 55.1131H44.474L42.8808 52.3163Z" fill="white"/>
<path d="M48.2042 49.6598H46.3547V49.0017H50.8296V49.6598H48.9801V55.1131H48.2025V49.6598H48.2042Z" fill="white"/>
<path d="M52.5666 49.0017H56.0889V49.6598H53.3441V51.5751H55.6595V52.2332H53.3441V54.455H56.1825V55.1131H52.5666V49.0017Z" fill="white"/>
<path d="M58.1168 49.0017H58.9204L61.1318 52.8445L61.7916 54.1087H61.8297C61.7899 53.4922 61.731 52.8029 61.731 52.1639V49.0017H62.4687V55.1131H61.6652L59.4537 51.2669L58.7939 50.0044H58.7559C58.7957 50.6227 58.8546 51.2738 58.8546 51.9128V55.1114H58.1168V49V49.0017Z" fill="white"/>
<path d="M66.0431 49.0017H66.9211L68.9888 55.1131H68.1645L67.0995 51.6998C66.8795 51.0157 66.6838 50.3456 66.4882 49.6407H66.45C66.2613 50.349 66.0656 51.0175 65.8457 51.6998L64.7685 55.1131H63.9771L66.0448 49.0017H66.0431ZM65.0612 52.6297H67.8753V53.2497H65.0612V52.6297Z" fill="white"/>
<path d="M70.4573 49.0017H71.2349V55.1131H70.4573V49.0017Z" fill="white"/>
<path d="M73.5485 49.0017H75.4621C76.7072 49.0017 77.6008 49.4485 77.6008 50.7213C77.6008 51.9942 76.7072 52.5293 75.4621 52.5293H74.3261V55.1131H73.5485V49.0017ZM75.3513 51.8989C76.302 51.8989 76.825 51.5145 76.825 50.7213C76.825 49.9282 76.302 49.6321 75.3513 49.6321H74.3261V51.8989H75.3513ZM75.3097 52.3163L75.9193 51.9145L77.7844 55.1131H76.9029L75.3097 52.3163Z" fill="white"/>
<path d="M79.4919 49.0017H83.0143V49.6598H80.2695V51.5751H82.5848V52.2332H80.2695V54.455H83.1078V55.1131H79.4919V49.0017Z" fill="white"/>
<path d="M35 63.1449C35 61.188 36.0771 60 37.6115 60C39.1458 60 40.223 61.1915 40.223 63.1449C40.223 65.0983 39.1458 66.3348 37.6115 66.3348C36.0771 66.3348 35 65.1035 35 63.1449ZM39.4194 63.1449C39.4194 61.6227 38.7025 60.6823 37.6097 60.6823C36.517 60.6823 35.8018 61.6209 35.8018 63.1449C35.8018 64.6688 36.5187 65.6507 37.6097 65.6507C38.7008 65.6507 39.4194 64.6671 39.4194 63.1449Z" fill="white"/>
<path d="M42.1816 60.1125H45.7057V60.7706H42.9592V62.8314H45.2884V63.4895H42.9592V66.2239H42.1816V60.1125Z" fill="white"/>
<path d="M47.4236 60.1125H50.9478V60.7706H48.2012V62.8314H50.5304V63.4895H48.2012V66.2239H47.4236V60.1125Z" fill="white"/>
<path d="M52.6674 60.1125H53.445V66.2239H52.6674V60.1125Z" fill="white"/>
<path d="M55.4053 63.1726C55.4053 61.2018 56.5673 60 58.1172 60C58.8584 60 59.4403 60.3602 59.7988 60.7533L59.3728 61.259C59.0507 60.9161 58.6472 60.6823 58.1311 60.6823C56.976 60.6823 56.2088 61.6279 56.2088 63.1501C56.2088 64.6723 56.9414 65.649 58.1017 65.649C58.6853 65.649 59.1286 65.3944 59.5182 64.9632L59.9443 65.4516C59.4611 66.0127 58.8636 66.333 58.0687 66.333C56.5465 66.333 55.4053 65.1554 55.4053 63.1708V63.1726Z" fill="white"/>
<path d="M61.721 60.1125H62.4986V66.2239H61.721V60.1125Z" fill="white"/>
<path d="M64.8122 60.1125H68.3346V60.7706H65.5898V62.6859H67.9051V63.344H65.5898V65.5659H68.4281V66.2239H64.8122V60.1125Z" fill="white"/>
<path d="M70.3625 60.1125H71.1401V65.5659H73.807V66.2239H70.3625V60.1125Z" fill="white"/>
</svg>
