<svg width="535" height="337" viewBox="0 0 535 337" fill="none" xmlns="http://www.w3.org/2000/svg">
<path d="M19.8848 336.667C14.6183 336.658 9.56863 334.566 5.84336 330.85C2.11607 327.135 0.016515 322.097 0 316.839L0 135.884L534.515 135.884V316.839C534.501 322.093 532.404 327.129 528.683 330.844C524.962 334.56 519.923 336.652 514.659 336.667H19.8848Z" fill="#E40521"/>
<path d="M0.0269775 19.825L0.0269775 135.885L534.516 135.885V19.825C534.5 14.5718 532.405 9.5374 528.684 5.82269C524.964 2.10808 519.921 0.0157659 514.66 0L19.8857 0C14.6244 0.0157896 9.58217 2.10799 5.86164 5.82269C2.14112 9.53742 0.0427636 14.572 0.0269775 19.825Z" fill="#E40521"/>
<g clip-path="url(#clip0_16_212)">
<path d="M96.7977 73.2932C96.9417 72.8705 96.9751 72.418 96.8947 71.9788C96.8143 71.5396 96.6228 71.1283 96.3385 70.784C96.6229 70.4389 96.8143 70.0269 96.8947 69.587C96.975 69.1471 96.9417 68.694 96.7977 68.2707C96.5755 67.7446 96.4693 67.1769 96.4861 66.6061C95.6995 66.9841 95.0356 67.5766 94.571 68.3154C94.1064 69.0542 93.8598 69.9092 93.8598 70.7819C93.8598 71.6547 94.1064 72.5097 94.571 73.2485C95.0356 73.9872 95.6995 74.5798 96.4861 74.9578C96.4693 74.387 96.5755 73.8192 96.7977 73.2932Z" fill="white"/>
<path d="M135.908 70.7882C135.912 65.1914 133.859 59.7883 130.138 55.6072C126.418 51.4261 121.29 48.7589 115.73 48.1133C110.171 47.4676 104.568 48.8886 99.9885 52.1058C95.4087 55.323 92.1718 60.1118 90.8937 65.5607C92.9607 61.7022 96.4287 58.7833 100.583 57.405C104.738 56.0267 109.263 56.2941 113.226 58.152C111.574 58.4631 110.019 59.1606 108.688 60.1874C107.357 61.2141 106.288 62.5412 105.568 64.0601C110.29 62.0469 115.553 61.6851 120.507 63.0332C125.46 64.3813 129.814 67.3605 132.865 71.4893C127.125 69.8124 121.877 72.3872 117.913 77.9099C113.378 84.2239 104.124 84.4699 99.1265 78.9185C99.6554 81.1991 100.92 83.2422 102.726 84.7323C100.229 84.2522 97.8712 83.2205 95.824 81.7124C93.7769 80.2043 92.0924 78.258 90.8937 76.0157C92.1718 81.4646 95.4087 86.2534 99.9885 89.4705C104.568 92.6877 110.171 94.1087 115.73 93.4631C121.29 92.8175 126.418 90.1503 130.138 85.9692C133.859 81.7881 135.912 76.385 135.908 70.7882Z" fill="white"/>
<path d="M81.5785 38.6728C81.2144 38.3755 80.9322 37.9902 80.7585 37.5535C80.5577 37.0883 80.2927 36.6536 79.9713 36.262H83.5547V37.3116C83.5547 37.8979 83.3743 38.5416 82.7716 38.7794C82.5773 38.8517 82.3694 38.8796 82.163 38.8612C81.9565 38.8428 81.7568 38.7784 81.5785 38.6728ZM84.305 38.7261C84.5266 38.1947 84.6247 37.6199 84.592 37.0451V35.1509H77.4662V36.2579C77.8713 36.2182 78.2801 36.2686 78.6634 36.4055C79.2702 36.6843 79.5613 37.3362 79.836 37.902C80.1107 38.4678 80.4182 39.1894 80.9922 39.5912C81.5169 39.9357 82.1557 40.0608 82.7716 39.9397C83.1058 39.8754 83.4197 39.7315 83.6866 39.5203C83.9535 39.309 84.1656 39.0366 84.305 38.7261Z" fill="white"/>
<path d="M80.1476 46.8565C80.4624 46.5183 80.6938 46.1112 80.8234 45.6678C80.953 45.2243 80.9771 44.7566 80.8938 44.3022H82.0582C82.2712 44.2918 82.4848 44.3084 82.6937 44.3514C82.8947 44.4053 83.0792 44.5085 83.2302 44.6517C83.3813 44.7949 83.4942 44.9735 83.5588 45.1714C83.627 45.3764 83.6458 45.5947 83.6137 45.8084C83.5817 46.0222 83.4996 46.2253 83.3743 46.4014C83.2447 46.5658 83.0788 46.6979 82.8896 46.7876C82.7004 46.8772 82.493 46.9218 82.2837 46.918C81.9475 46.918 81.6154 46.918 81.2792 46.918H80.0779C80.1032 46.8999 80.1265 46.8793 80.1476 46.8565ZM84.4034 46.8565C84.6743 46.3647 84.7765 45.7976 84.6943 45.2422C84.6121 44.6868 84.35 44.1737 83.9483 43.7815C83.5381 43.4316 83.0231 43.2282 82.4846 43.2034C82.3493 43.2034 77.4744 43.2034 77.4744 43.2034V44.3309H79.8319C79.9494 44.9912 79.8148 45.6715 79.4547 46.2374C79.2805 46.4655 79.0539 46.6482 78.7941 46.7703C78.5344 46.8923 78.249 46.95 77.9623 46.9385H77.4703V48.0209H82.2386C82.6685 48.0412 83.096 47.9448 83.4757 47.742C83.8553 47.5392 84.173 47.2375 84.3952 46.8688L84.4034 46.8565Z" fill="white"/>
<path d="M83.5588 53.8797C83.5588 54.5849 83.2144 55.2942 82.4436 55.3762C82.2623 55.3999 82.078 55.386 81.9023 55.3352C81.7266 55.2844 81.5634 55.1979 81.4227 55.081C81.1338 54.7826 80.9042 54.432 80.7462 54.0478C80.5542 53.593 80.2943 53.17 79.9754 52.7932H83.5588V53.8797ZM80.1148 55.5484C80.1807 55.4165 80.2356 55.2794 80.2788 55.1384C80.4614 55.5033 80.7184 55.8259 81.0332 56.0855C81.3275 56.3167 81.6817 56.4589 82.0541 56.4955C82.4305 56.5523 82.8154 56.5061 83.1677 56.3617C83.5199 56.2173 83.8265 55.9802 84.0549 55.6755C84.6904 54.8186 84.592 53.7362 84.592 52.7276V51.6821H77.4662V52.7891C77.6753 52.7891 77.8762 52.7891 78.1017 52.7891C78.3358 52.791 78.5659 52.8503 78.7718 52.9618C78.9776 53.0733 79.153 53.2336 79.2825 53.4287C79.4032 53.6366 79.4735 53.8699 79.4877 54.1098C79.502 54.3498 79.4598 54.5897 79.3645 54.8104C79.2667 55.0207 79.1173 55.2027 78.9302 55.3397C78.7431 55.4766 78.5243 55.5639 78.2944 55.5935C78.0219 55.6207 77.7478 55.6275 77.4744 55.614V56.7333C77.8665 56.7547 78.2597 56.7327 78.647 56.6677C78.9579 56.598 79.25 56.4619 79.5033 56.2687C79.7567 56.0755 79.9653 55.8298 80.1148 55.5484Z" fill="white"/>
<path d="M83.5957 60.1855C83.6849 60.5472 83.7398 60.9165 83.7597 61.2884H84.5797V60.1855H83.5957Z" fill="white"/>
<path d="M82.9684 60.1855H77.4662V61.2884H83.1324C83.1189 60.9159 83.0639 60.5459 82.9684 60.1855Z" fill="white"/>
<path d="M80.8856 68.6808C81.1741 68.2704 81.398 67.8182 81.5498 67.3401C81.674 66.8717 81.9088 66.4401 82.2345 66.0814C82.4036 65.95 82.6149 65.8849 82.8286 65.8985C83.0423 65.9121 83.2437 66.0034 83.3948 66.1552C83.5431 66.3189 83.6445 66.5194 83.6885 66.7359C83.7326 66.9523 83.7175 67.1766 83.6449 67.3852C83.5734 67.6018 83.4337 67.7895 83.2468 67.9203C83.0598 68.0511 82.8356 68.118 82.6076 68.1109V69.2056C83.1285 69.2189 83.6342 69.0292 84.018 68.6767C84.3859 68.3225 84.6193 67.8515 84.6781 67.3442C84.7591 66.8208 84.667 66.2852 84.4157 65.819C84.1729 65.3745 83.7742 65.0357 83.2964 64.8678C83.0585 64.7911 82.8079 64.7621 82.5588 64.7825C82.3098 64.8029 82.0672 64.8723 81.845 64.9867C81.3942 65.2772 81.0536 65.7102 80.8774 66.2167C80.7053 66.7753 80.4715 67.3129 80.1804 67.8198C80.0556 68.0192 79.8613 68.1652 79.6351 68.2298C79.4045 68.2893 79.1603 68.2645 78.9463 68.1601C78.714 68.0151 78.5342 67.7996 78.4331 67.5451C78.3321 67.2906 78.3151 67.0104 78.3846 66.7456C78.4361 66.4639 78.5843 66.2091 78.8036 66.0249C79.0229 65.8408 79.2996 65.739 79.5859 65.737V64.6423C79.3031 64.6334 79.0215 64.6818 78.7579 64.7847C78.4944 64.8876 78.2544 65.0427 78.0525 65.2409C77.6486 65.6618 77.4073 66.2125 77.3719 66.7948C77.3053 67.3976 77.4502 68.0049 77.7819 68.5127C77.9414 68.7399 78.1475 68.9305 78.3865 69.0719C78.6254 69.2133 78.8917 69.3022 79.1677 69.3327C79.486 69.3832 79.812 69.3496 80.1133 69.2352C80.4147 69.1209 80.6809 68.9297 80.8856 68.6808Z" fill="white"/>
<path d="M80.7339 78.9963C81.0331 79.2532 81.3637 79.4709 81.7179 79.6441C82.0703 79.8007 82.4582 79.8602 82.8413 79.8163C83.1968 79.7678 83.5339 79.6294 83.8209 79.4142C84.1079 79.1989 84.3352 78.914 84.4813 78.5863C84.6343 78.241 84.7095 77.8663 84.7017 77.4886C84.6939 77.111 84.6033 76.7397 84.4362 76.401C84.2743 76.0671 84.0272 75.7817 83.7198 75.5737C83.4125 75.3657 83.0557 75.2423 82.6855 75.2161C82.3124 75.1995 81.9409 75.2759 81.6046 75.4383C81.2682 75.6008 80.9775 75.8442 80.7585 76.1468L81.558 76.77C81.7634 76.5368 82.0402 76.3782 82.3452 76.319C82.4915 76.2904 82.6421 76.2916 82.788 76.3226C82.9338 76.3536 83.0719 76.4137 83.1939 76.4994C83.4273 76.6867 83.5901 76.9478 83.6557 77.2398C83.7213 77.5319 83.6856 77.8375 83.5547 78.1066C83.4258 78.3793 83.1945 78.59 82.911 78.6929C82.6078 78.7842 82.2813 78.7578 81.9967 78.6191C81.7203 78.4767 81.4628 78.3004 81.23 78.0943L78.4543 75.8762L77.4662 75.0808V80.091H78.483V77.221L80.7339 78.9963Z" fill="white"/>
<path d="M80.0041 89.1684C79.5079 88.966 79.0869 88.6144 78.7995 88.1621C78.5121 87.7098 78.3724 87.1794 78.3999 86.6442C78.4274 86.1091 78.6206 85.5957 78.9529 85.1753C79.2851 84.7548 79.7399 84.4481 80.2542 84.2976C80.7703 84.1464 81.32 84.1539 81.8318 84.3192C82.3436 84.4844 82.7939 84.7998 83.1242 85.2242C83.4478 85.6578 83.6281 86.1816 83.6398 86.7225C83.6516 87.2634 83.4943 87.7946 83.1898 88.2418C82.8398 88.7313 82.3353 89.0889 81.7574 89.257C81.1796 89.425 80.562 89.3938 80.0041 89.1684ZM83.6367 89.4103C84.1659 88.8578 84.5174 88.1595 84.646 87.4053C84.7746 86.6512 84.6744 85.8758 84.3583 85.1791C84.0424 84.4886 83.5198 83.9132 82.8628 83.5325C82.2058 83.1518 81.4467 82.9846 80.6905 83.0539C79.9343 83.1232 79.2184 83.4257 78.6415 83.9195C78.0646 84.4133 77.6554 85.0741 77.4703 85.8105C77.2797 86.55 77.3158 87.3296 77.5739 88.0483C77.832 88.767 78.3001 89.3915 78.9176 89.8408C79.5535 90.2793 80.3103 90.5086 81.0826 90.4968C81.8549 90.485 82.6044 90.2328 83.2267 89.7752C83.3712 89.6701 83.5082 89.555 83.6367 89.4308V89.4103Z" fill="white"/>
<path d="M80.7339 97.5448C81.0322 97.8028 81.363 98.0206 81.7179 98.1926C82.0699 98.3506 82.4578 98.4115 82.8413 98.3689C83.1988 98.318 83.5372 98.1764 83.8244 97.9575C84.1115 97.7385 84.3377 97.4496 84.4813 97.1184C84.6343 96.773 84.7095 96.3983 84.7017 96.0207C84.6939 95.6431 84.6033 95.2718 84.4362 94.9331C84.2743 94.5991 84.0272 94.3138 83.7198 94.1057C83.4125 93.8977 83.0557 93.7744 82.6855 93.7482C82.3125 93.7323 81.9413 93.809 81.6051 93.9714C81.2688 94.1338 80.978 94.3768 80.7585 94.6789L81.558 95.3062C81.7632 95.072 82.0399 94.912 82.3452 94.8511C82.4918 94.822 82.6427 94.8234 82.7887 94.8552C82.9347 94.8869 83.0726 94.9483 83.1939 95.0356C83.4279 95.2224 83.5912 95.4835 83.6568 95.7757C83.7224 96.0679 83.6864 96.3738 83.5547 96.6428C83.4913 96.7771 83.4017 96.8975 83.2912 96.9968C83.1807 97.0961 83.0514 97.1722 82.911 97.2209C82.6078 97.3121 82.2813 97.2858 81.9967 97.1471C81.7213 97.0047 81.4639 96.8299 81.23 96.6264L78.4543 94.4042C78.1222 94.1418 77.7942 93.8753 77.4621 93.6088V98.619H78.4789V95.749L80.7339 97.5448Z" fill="white"/>
<path d="M82.6855 105.351H80.2706C80.6437 104.826 80.7585 104.17 81.0906 103.613C81.2323 103.399 81.4291 103.229 81.6601 103.118C81.8911 103.008 82.1477 102.962 82.4026 102.985C82.9192 102.985 84.5961 102.985 84.5961 102.985V101.874H82.3698C81.9969 101.847 81.6228 101.907 81.277 102.05C80.9312 102.192 80.6232 102.413 80.3772 102.694C80.0961 103.088 79.8802 103.524 79.7376 103.986C79.6236 104.413 79.3937 104.8 79.0734 105.105C78.8014 105.293 78.4717 105.379 78.1427 105.347H77.4744V106.409H82.6896V105.351H82.6855Z" fill="white"/>
<path d="M64.7111 64.4454C64.707 63.4821 64.4177 62.5416 63.8796 61.7426C63.3415 60.9437 62.5787 60.322 61.6876 59.9562C60.7965 59.5904 59.8169 59.4968 58.8726 59.6872C57.9284 59.8776 57.0617 60.3435 56.3819 61.026C55.7022 61.7086 55.24 62.5773 55.0535 63.5223C54.8671 64.4674 54.9648 65.4465 55.3344 66.3361C55.7039 67.2257 56.3288 67.9859 57.13 68.5206C57.9312 69.0554 58.8729 69.3408 59.8362 69.3408C60.4781 69.3408 61.1137 69.214 61.7065 68.9677C62.2993 68.7215 62.8376 68.3606 63.2905 67.9057C63.7435 67.4509 64.1021 66.911 64.3459 66.3172C64.5897 65.7234 64.7138 65.0873 64.7111 64.4454ZM59.8362 70.3002C58.678 70.301 57.5457 69.9583 56.5823 69.3155C55.619 68.6726 54.8679 67.7585 54.4241 66.6888C53.9804 65.619 53.8638 64.4417 54.0893 63.3057C54.3147 62.1697 54.872 61.1261 55.6907 60.3069C56.5093 59.4876 57.5525 58.9296 58.6884 58.7034C59.8242 58.4771 61.0016 58.5928 62.0717 59.0359C63.1417 59.4789 64.0564 60.2293 64.6999 61.1922C65.3434 62.1551 65.6869 63.2872 65.6869 64.4454C65.6858 65.9971 65.0692 67.4851 63.9723 68.5827C62.8754 69.6803 61.3879 70.298 59.8362 70.3002Z" fill="white"/>
<path d="M64.7111 77.1308C64.7111 76.1666 64.4252 75.2241 63.8895 74.4225C63.3539 73.6208 62.5925 72.996 61.7017 72.627C60.811 72.258 59.8308 72.1615 58.8851 72.3496C57.9395 72.5377 57.0709 73.002 56.3891 73.6837C55.7074 74.3655 55.2431 75.2341 55.055 76.1798C54.8669 77.1254 54.9634 78.1056 55.3324 78.9963C55.7013 79.8871 56.3262 80.6485 57.1278 81.1841C57.9295 81.7198 58.872 82.0057 59.8362 82.0057C60.4765 82.0062 61.1107 81.8805 61.7024 81.6357C62.2941 81.3909 62.8317 81.0319 63.2845 80.5791C63.7373 80.1263 64.0963 79.5887 64.3411 78.997C64.5859 78.4053 64.7116 77.7711 64.7111 77.1308ZM59.8362 82.9856C58.678 82.9864 57.5457 82.6437 56.5823 82.0009C55.619 81.358 54.8679 80.4439 54.4241 79.3742C53.9804 78.3044 53.8638 77.1271 54.0893 75.9911C54.3147 74.8551 54.872 73.8115 55.6907 72.9923C56.5093 72.1731 57.5525 71.615 58.6884 71.3888C59.8242 71.1626 61.0016 71.2783 62.0717 71.7213C63.1417 72.1643 64.0564 72.9147 64.6999 73.8776C65.3434 74.8405 65.6869 75.9727 65.6869 77.1308C65.6836 78.6811 65.0661 80.167 63.9694 81.2628C62.8728 82.3587 61.3865 82.9752 59.8362 82.9774V82.9856Z" fill="white"/>
<path d="M71.0538 58.111C71.0538 57.3426 70.9025 56.5818 70.6085 55.872C70.3144 55.1621 69.8835 54.5172 69.3402 53.9739C68.7969 53.4306 68.1519 52.9996 67.4421 52.7056C66.7323 52.4116 65.9715 52.2603 65.2031 52.2603C64.4348 52.2603 63.674 52.4116 62.9642 52.7056C62.2543 52.9996 61.6093 53.4306 61.0661 53.9739C60.5228 54.5172 60.0918 55.1621 59.7978 55.872C59.5038 56.5818 59.3524 57.3426 59.3524 58.111C59.3524 58.2791 59.3524 58.4472 59.3729 58.6153C59.5287 58.6153 59.6804 58.6153 59.8362 58.6153C59.992 58.6153 60.1806 58.6153 60.3528 58.6153C60.3528 58.4513 60.3282 58.2791 60.3282 58.1069C60.331 56.8837 60.7946 55.7065 61.6266 54.8099C62.4586 53.9134 63.598 53.3633 64.8175 53.2694C66.0371 53.1755 67.2472 53.5447 68.2067 54.3033C69.1662 55.062 69.8045 56.1543 69.9944 57.3626C70.1844 58.571 69.9119 59.8065 69.2315 60.8229C68.551 61.8393 67.5125 62.5619 66.3229 62.8467C65.1334 63.1314 63.8802 62.9574 62.8132 62.3594C61.7462 61.7613 60.9439 60.7831 60.566 59.6198C60.3244 59.584 60.0805 59.5648 59.8362 59.5624C59.7378 59.5624 59.6353 59.5624 59.5369 59.5624C59.8983 60.9361 60.7468 62.1316 61.9243 62.9262C63.1019 63.7207 64.5281 64.06 65.9372 63.8809C67.3464 63.7018 68.6424 63.0165 69.5837 61.9527C70.5251 60.8889 71.0476 59.5191 71.0538 58.0987V58.111Z" fill="white"/>
<path d="M71.0538 83.4613C71.0524 81.99 70.4975 80.5731 69.4994 79.4921C68.5012 78.4112 67.1329 77.7454 65.6664 77.627C65.6374 77.9536 65.5812 78.2773 65.4983 78.5946C66.7491 78.6661 67.9247 79.2148 68.7828 80.1276C69.6409 81.0403 70.116 82.2475 70.1103 83.5003C70.1046 84.7531 69.6183 85.9559 68.7519 86.8607C67.8855 87.7656 66.7049 88.3035 65.4536 88.3635C64.2022 88.4236 62.9755 88.0012 62.0264 87.1835C61.0773 86.3658 60.4781 85.2151 60.3524 83.9687C60.2267 82.7222 60.5841 81.475 61.3508 80.4843C62.1175 79.4935 63.2352 78.8348 64.4733 78.6438C64.5762 78.3151 64.6475 77.9773 64.6865 77.6352C63.5557 77.7354 62.4786 78.1624 61.5862 78.8642C60.6939 79.566 60.0251 80.5122 59.6612 81.5875C59.2973 82.6628 59.2541 83.8208 59.5368 84.9202C59.8196 86.0197 60.4161 87.0131 61.2536 87.7794C62.0911 88.5458 63.1335 89.0519 64.2536 89.2361C65.3738 89.4204 66.5234 89.2747 67.5622 88.817C68.6011 88.3593 69.4843 87.6092 70.1043 86.6582C70.7242 85.7073 71.0542 84.5965 71.0538 83.4613Z" fill="white"/>
<path d="M71.0538 70.7882C71.0533 69.3166 70.4988 67.8992 69.5004 66.818C68.5021 65.7369 67.1333 65.0713 65.6664 64.9539C65.6357 65.2803 65.5795 65.6038 65.4983 65.9215C66.3829 65.9739 67.2364 66.2665 67.9671 66.7677C68.6979 67.2689 69.2782 67.9598 69.6456 68.7661C70.0131 69.5725 70.1539 70.4637 70.0528 71.344C69.9517 72.2243 69.6125 73.0605 69.0718 73.7625C68.5311 74.4645 67.8093 75.0059 66.9839 75.3284C66.1586 75.6509 65.261 75.7423 64.3876 75.5929C63.5141 75.4434 62.698 75.0588 62.0268 74.4802C61.3556 73.9017 60.8549 73.1511 60.5783 72.3093C60.3369 72.2713 60.0929 72.2521 59.8485 72.2519C59.7501 72.2519 59.6476 72.2519 59.5492 72.2519C59.9108 73.6263 60.76 74.8222 61.9383 75.6167C63.1167 76.4112 64.5438 76.75 65.9536 76.5698C67.3633 76.3896 68.6593 75.7028 69.6 74.6375C70.5407 73.5722 71.0618 72.2011 71.0661 70.78L71.0538 70.7882Z" fill="white"/>
<path d="M59.8362 71.272C60.0125 71.272 60.1806 71.272 60.3528 71.2925C60.3528 71.1244 60.3282 70.9522 60.3282 70.7841C60.3285 69.6171 60.7467 68.4888 61.5071 67.6036C62.2675 66.7184 63.3197 66.1347 64.4733 65.9584C64.5769 65.6313 64.6483 65.2948 64.6865 64.9539C63.2306 65.0849 61.8764 65.7558 60.8901 66.8346C59.9038 67.9135 59.3567 69.3223 59.3565 70.7841C59.3565 70.9522 59.3565 71.1244 59.377 71.2884C59.5287 71.2761 59.6804 71.272 59.8362 71.272Z" fill="white"/>
<path d="M71.0538 70.7882C71.0533 69.3166 70.4988 67.8992 69.5004 66.818C68.5021 65.7369 67.1333 65.0713 65.6664 64.9539C65.6357 65.2803 65.5795 65.6038 65.4983 65.9215C66.3829 65.9739 67.2364 66.2665 67.9671 66.7677C68.6979 67.2689 69.2782 67.9598 69.6456 68.7661C70.0131 69.5725 70.1539 70.4637 70.0528 71.344C69.9517 72.2243 69.6125 73.0605 69.0718 73.7625C68.5311 74.4645 67.8093 75.0059 66.9839 75.3284C66.1586 75.6509 65.261 75.7423 64.3876 75.5929C63.5141 75.4434 62.698 75.0588 62.0268 74.4802C61.3556 73.9017 60.8549 73.1511 60.5783 72.3093C60.3369 72.2713 60.0929 72.2521 59.8485 72.2519C59.7501 72.2519 59.6476 72.2519 59.5492 72.2519C59.9108 73.6263 60.76 74.8222 61.9383 75.6167C63.1167 76.4112 64.5438 76.75 65.9536 76.5698C67.3633 76.3896 68.6593 75.7028 69.6 74.6375C70.5407 73.5722 71.0618 72.2011 71.0661 70.78L71.0538 70.7882Z" fill="white"/>
</g>
<path d="M407.221 101.077C407.135 101.077 407.048 101.076 406.962 101.073C405.989 101.096 405.022 100.911 404.124 100.532C403.348 100.193 402.657 99.6787 402.105 99.029C401.542 98.3537 401.125 97.5664 400.88 96.7177C400.592 95.7654 400.434 94.7791 400.408 93.7837C400.396 92.7999 400.556 91.8221 400.88 90.8957C401.176 90.0534 401.629 89.2768 402.214 88.6074C402.78 87.9671 403.473 87.4533 404.247 87.1028C405.057 86.7362 405.934 86.5526 406.821 86.5636C407.879 86.5224 408.927 86.7895 409.844 87.3306C410.625 87.8208 411.284 88.4878 411.773 89.2803C412.257 90.0716 412.596 90.9483 412.774 91.8632C412.956 92.7372 413.031 93.6289 412.998 94.5214H402.782C402.764 95.1075 402.836 95.6926 402.993 96.2559C403.147 96.7873 403.409 97.2791 403.761 97.6999C404.129 98.1337 404.589 98.4777 405.105 98.7072C405.715 98.9693 406.372 99.098 407.034 99.0833C407.863 99.1187 408.681 98.8821 409.369 98.4084C410.01 97.9077 410.439 97.1779 410.57 96.3667H412.79C412.592 97.7509 411.886 99.0073 410.816 99.8858C409.767 100.657 408.51 101.072 407.221 101.077ZM351.915 101.071C350.946 101.071 349.976 100.887 349.058 100.521C348.26 100.173 347.548 99.6483 346.973 98.9851C346.398 98.3172 345.966 97.5352 345.705 96.6885C345.416 95.7672 345.274 94.8037 345.284 93.836C345.276 92.8662 345.417 91.9004 345.705 90.9751C345.966 90.1244 346.399 89.3367 346.973 88.6638C347.549 87.9992 348.261 87.4713 349.058 87.1174C350.891 86.3666 352.939 86.3674 354.771 87.1174C355.564 87.4746 356.27 88.0014 356.842 88.6638C357.418 89.3371 357.848 90.1231 358.11 90.9751C358.398 91.9001 358.54 92.8663 358.531 93.836C358.542 94.8035 358.399 95.7655 358.11 96.6864C357.849 97.5332 357.416 98.317 356.842 98.9851C356.27 99.6457 355.565 100.171 354.771 100.521C353.853 100.888 352.884 101.071 351.915 101.071ZM367.688 101.071C367.312 101.065 366.94 101.03 366.569 100.964C366.148 100.892 365.735 100.773 365.338 100.613C364.927 100.448 364.541 100.226 364.189 99.9527C363.824 99.6701 363.516 99.3204 363.282 98.9183H363.228V100.776L360.981 100.778V81.5837H363.228V88.76H363.282C363.638 88.0009 364.259 87.4023 365.022 87.0798C365.849 86.7224 366.738 86.5435 367.636 86.5553C368.588 86.5329 369.532 86.7349 370.395 87.1467C371.157 87.523 371.824 88.069 372.348 88.7453C372.88 89.4374 373.278 90.2271 373.52 91.0712C373.79 91.9774 373.925 92.9189 373.918 93.8652C373.924 94.8113 373.794 95.7546 373.534 96.6634C373.3 97.499 372.907 98.2803 372.377 98.9621C371.85 99.6221 371.182 100.149 370.423 100.506C369.564 100.898 368.629 101.092 367.688 101.071ZM326.012 100.778L323.771 100.776V86.8771H325.881V88.9188H325.936C326.653 87.8467 327.725 87.0739 328.955 86.7392C330.186 86.4041 331.492 86.5301 332.639 87.0944C332.989 87.2841 333.298 87.5417 333.548 87.8551C333.797 88.1694 333.983 88.5322 334.092 88.9209C334.533 88.1857 335.155 87.5827 335.898 87.1717C336.657 86.7594 337.506 86.5472 338.366 86.5553C338.994 86.5486 339.622 86.6238 340.232 86.781C340.747 86.9169 341.23 87.1601 341.65 87.4936C342.054 87.8265 342.371 88.2571 342.571 88.7453C342.807 89.3287 342.921 89.9566 342.904 90.5864L342.902 100.734H340.661V91.6167C340.661 91.2116 340.626 90.8071 340.556 90.4088C340.494 90.0623 340.359 89.7327 340.16 89.4454C339.954 89.1562 339.676 88.9278 339.355 88.785C338.933 88.6082 338.477 88.524 338.022 88.5426C337.544 88.5149 337.066 88.5864 336.616 88.7516C336.167 88.9164 335.755 89.1752 335.405 89.5081C335.083 89.8489 334.835 90.252 334.672 90.6951C334.51 91.1381 334.438 91.6105 334.461 92.0827V100.753H332.218V91.6355C332.223 91.2206 332.183 90.8078 332.101 90.4025C332.028 90.0567 331.887 89.7288 331.689 89.4391C331.49 89.1581 331.222 88.9366 330.913 88.7955C330.513 88.6311 330.085 88.5537 329.655 88.5677C329.072 88.5498 328.495 88.6883 327.98 88.9689C327.544 89.2102 327.158 89.5371 326.845 89.9302C326.57 90.2811 326.355 90.6759 326.211 91.1005C326.094 91.4231 326.028 91.7636 326.012 92.1077V100.778ZM376.43 100.776V86.8771H378.671V100.776H376.43ZM382.024 100.776V81.5837H384.267V100.776H382.024ZM387.621 100.776L387.618 86.8771H389.862V100.776H387.621ZM397.202 100.776C396.701 100.783 396.2 100.741 395.706 100.651C395.34 100.594 394.996 100.443 394.705 100.21C394.433 99.9683 394.234 99.6517 394.136 99.2986C393.999 98.7902 393.937 98.2639 393.952 97.7375V88.8958L391.63 88.8937V86.8771H393.952V82.7101L396.199 82.7122V86.8771H398.918V88.8958H396.199V97.5056C396.191 97.7237 396.213 97.9406 396.264 98.1513C396.301 98.3036 396.39 98.4379 396.515 98.5275C396.668 98.6289 396.845 98.6891 397.028 98.7051C397.314 98.7336 397.6 98.7464 397.888 98.7448H398.918V100.776H397.202ZM351.915 99.098C352.485 99.0983 353.049 98.9768 353.571 98.7427C354.091 98.5108 354.553 98.1689 354.931 97.7375C355.341 97.2616 355.652 96.7022 355.841 96.0992C356.283 94.6368 356.283 93.0726 355.841 91.6104C355.649 91.0023 355.339 90.4409 354.931 89.9553C354.556 89.5182 354.091 89.1686 353.569 88.9334C353.046 88.7016 352.484 88.5821 351.915 88.5823C351.345 88.582 350.782 88.7022 350.259 88.9334C349.737 89.169 349.272 89.516 348.896 89.9532C348.488 90.4388 348.181 91.0018 347.989 91.6104C347.548 93.0733 347.548 94.6365 347.989 96.0992C348.178 96.7023 348.487 97.2614 348.898 97.7375C349.275 98.169 349.739 98.5131 350.259 98.7448C350.78 98.9785 351.344 99.0986 351.915 99.098ZM367.199 99.0645C367.285 99.0667 367.372 99.0656 367.458 99.0624C368.133 99.085 368.802 98.9279 369.397 98.6048C369.905 98.3118 370.334 97.8966 370.649 97.3948C370.976 96.8678 371.21 96.2851 371.337 95.675C371.479 95.0226 371.549 94.3569 371.548 93.6876C371.548 93.0462 371.463 92.4085 371.298 91.7901C371.141 91.1976 370.883 90.636 370.532 90.1371C370.187 89.6515 369.736 89.257 369.213 88.9815C368.626 88.6825 367.976 88.5347 367.32 88.5531C366.65 88.5308 365.985 88.6886 365.391 89.0065C364.878 89.304 364.438 89.7117 364.101 90.204C363.756 90.7131 363.51 91.2842 363.376 91.8862C363.224 92.5168 363.147 93.1634 363.148 93.813C363.147 94.4783 363.227 95.1416 363.384 95.7878C363.53 96.3911 363.786 96.9609 364.138 97.468C364.489 97.9573 364.945 98.3573 365.471 98.6382C366.013 98.9045 366.601 99.0494 367.199 99.0645ZM402.782 92.5132H410.623C410.587 91.9842 410.468 91.4643 410.268 90.9751C410.076 90.5098 409.798 90.0888 409.45 89.7296C409.099 89.3765 408.687 89.0936 408.235 88.8958C407.745 88.6847 407.218 88.5808 406.687 88.5886C406.149 88.5797 405.614 88.6836 405.117 88.8958C404.665 89.0929 404.257 89.382 403.917 89.7442C403.581 90.1077 403.315 90.5302 403.127 90.9918C402.932 91.4765 402.815 91.9903 402.782 92.5132ZM406.628 84.4321L404.939 84.43L407.475 80.077H410.35L406.628 84.4321ZM376.43 84.3777V81.5837H378.671V84.3777H376.43ZM387.618 84.3777V81.5837H389.862V84.3777H387.618ZM425.253 98.8109C425.616 98.1768 425.795 97.4505 425.769 96.7159C425.788 96.1357 425.656 95.561 425.385 95.0497C425.134 94.6059 424.793 94.2236 424.383 93.9281C423.947 93.6211 423.468 93.3804 422.964 93.2149C422.421 93.034 421.871 92.8811 421.313 92.7574C420.788 92.6313 420.258 92.5112 419.729 92.3964C419.246 92.2916 418.771 92.1485 418.31 91.9674C417.926 91.8198 417.574 91.6003 417.269 91.3223C417.138 91.1998 417.033 91.0514 416.963 90.8851C416.892 90.7187 416.856 90.5397 416.857 90.3585C416.844 90.0457 416.938 89.7374 417.122 89.4865C417.306 89.2547 417.541 89.0692 417.809 88.9475C418.109 88.8062 418.427 88.7106 418.754 88.663C419.091 88.6117 419.431 88.5855 419.771 88.5866C420.14 88.5856 420.509 88.626 420.868 88.7064C421.216 88.7814 421.55 88.9135 421.857 89.0962C422.153 89.2729 422.407 89.5171 422.595 89.8095C422.801 90.1442 422.92 90.5278 422.94 90.9226L425.182 90.9225C425.158 90.1881 424.979 89.4692 424.657 88.8124C424.374 88.2692 423.96 87.8072 423.455 87.4687C422.928 87.1263 422.34 86.8895 421.724 86.7708C421.02 86.63 420.304 86.5623 419.587 86.5683C418.978 86.5709 418.371 86.6464 417.78 86.7943C417.201 86.9368 416.648 87.1738 416.144 87.4977C415.66 87.8066 415.252 88.2227 414.951 88.7167C414.629 89.2589 414.466 89.884 414.479 90.518C414.432 91.2764 414.667 92.0261 415.136 92.6171C415.593 93.1292 416.157 93.5299 416.787 93.7879C417.484 94.0654 418.207 94.274 418.944 94.4097C419.72 94.5582 420.433 94.7317 421.096 94.9199C421.681 95.0735 422.238 95.3233 422.746 95.6569C422.961 95.8028 423.134 96.0046 423.25 96.2394C423.365 96.4751 423.418 96.7371 423.404 97.0009C423.42 97.3811 423.309 97.7568 423.087 98.0649C422.876 98.341 422.599 98.559 422.283 98.6955C421.942 98.8434 421.582 98.9431 421.213 98.9896C420.847 99.042 420.477 99.0692 420.107 99.0715C419.659 99.073 419.212 99.0274 418.774 98.9364C418.364 98.8553 417.971 98.7057 417.61 98.4933C417.271 98.2875 416.985 98.0021 416.777 97.66C416.556 97.2722 416.439 96.8326 416.437 96.3838L414.19 96.3836C414.203 97.1451 414.384 97.8939 414.72 98.5755C415.021 99.1542 415.456 99.6506 415.987 100.02C416.541 100.398 417.158 100.666 417.808 100.815C418.519 100.977 419.246 101.058 419.974 101.056C420.67 101.055 421.364 100.987 422.046 100.853C422.714 100.734 423.355 100.493 423.938 100.14C424.471 99.8067 424.922 99.3524 425.253 98.8109Z" fill="white"/>
<path d="M229.328 74.9808C221.516 74.9804 216.216 70.2846 216.216 62.2851C216.216 54.9724 222.074 49.7255 229.126 49.7251C237.706 49.7255 241.991 56.1684 241.63 64.2659H224.055C224.196 67.5321 226.082 69.6891 229.407 69.6892C231.289 69.6899 233.14 68.817 233.881 67.0597H241.214C239.786 72.5777 234.657 74.9717 229.328 74.9808ZM331.67 74.9626C327.109 74.9624 323.513 72.6666 323.512 67.7328C323.512 59.9667 331.998 60.5643 337.439 59.4568C338.778 59.1822 339.513 58.7249 339.513 57.253C339.513 55.4588 337.349 54.7719 335.734 54.7714C333.56 54.7719 332.185 55.7373 331.814 57.7558L324.463 57.7578C324.622 54.6277 326.087 52.5369 328.208 51.3552C330.33 50.1731 333.092 49.7054 335.817 49.7049C341.488 49.7055 346.977 50.9546 346.978 57.7152L346.976 68.1626C346.976 70.1861 346.978 72.4165 347.915 74.2854L340.019 74.2834C339.774 73.5511 339.619 72.7928 339.56 72.0228C337.531 74.1397 334.536 74.9617 331.67 74.9626ZM251.499 74.7173C245.711 74.717 242.846 70.1532 242.846 64.8538C242.846 59.5549 245.678 55.094 251.428 55.0938C253.349 55.0939 256.111 55.8459 257.493 58.0275H257.568V48.3688H260.659V74.2834H257.568V71.7511H257.493C256.482 73.8117 254.079 74.7174 251.499 74.7173ZM271.594 74.7132C265.591 74.7141 262.754 70.584 262.567 64.8498C262.567 59.2197 266.26 55.088 271.411 55.0877C278.042 55.0876 280.1 61.2982 279.917 65.8351H265.866C265.759 69.1064 267.614 71.9947 271.716 71.9944C274.245 71.9947 276.039 70.7578 276.586 68.3369L279.64 68.3349C278.798 72.4714 275.818 74.7183 271.594 74.7132ZM206.305 74.2895V47.8275H201.339L198.575 44.1396L195.808 47.8275H189.908L195.069 40.9829L202.074 40.9808L206.305 46.5867V41.435H214.144V74.2895H206.305ZM194.65 74.2834V50.4064H202.489V74.2834H194.65ZM281.924 74.2834V41.435H306.18L306.182 48.2897H290.499V55.0106L304.059 55.0086V61.6302H290.499V74.2834H281.924ZM307.737 74.2611V50.382H315.356V54.5889H315.446C316.602 51.5562 319.27 49.9433 322.647 49.9441C323.266 49.9412 323.883 50.0045 324.487 50.1347V57.2652C323.514 56.9692 322.504 56.8124 321.486 56.7988C317.618 56.7988 315.58 59.4674 315.58 62.4675L315.582 74.2611H307.737ZM251.93 71.9701C256.07 71.9697 257.672 68.4227 257.672 64.9045C257.664 61.2041 255.938 57.7978 251.733 57.7984C247.518 57.7975 246.115 61.3816 246.115 65.0505C246.115 68.5636 247.936 71.9695 251.93 71.9701ZM334.628 70.1393C338.356 70.1398 339.606 68.0269 339.424 63.1021C338.323 63.784 336.324 63.9768 334.578 64.3875C332.831 64.7991 331.352 65.5551 331.351 67.4246C331.351 69.3593 332.862 70.1396 334.628 70.1393ZM265.858 63.1123H276.625C276.479 60.1588 274.268 57.8235 271.21 57.8227C267.998 57.8228 266.06 60.2437 265.858 63.1123ZM224.055 59.8927H233.81C233.646 57.2107 231.754 55.0083 229.126 55.0086C226.364 55.0087 224.522 56.982 224.055 59.8927ZM365.847 62.7382L365.846 74.2843L373.686 74.2841L373.686 58.963C373.686 55.5146 373.039 49.7161 365.06 49.7157C362.203 49.7158 358.972 51.2347 357.567 53.6781L357.465 53.678L357.464 50.4068L349.854 50.4072L349.854 74.284L357.684 74.2842L357.684 61.2564C357.685 58.6399 358.977 56.159 361.898 56.1591C366.217 56.1597 365.847 59.4669 365.847 62.7382ZM399.99 64.9017L392.385 64.9015C392.029 67.4245 390.623 68.9904 387.912 68.9903C384.597 68.9899 383.257 65.8221 383.258 62.7383C383.258 59.4251 383.951 55.701 388.329 55.7014C390.305 55.7012 392.108 57.103 392.16 59.1491L399.788 59.1493C399.24 52.8416 393.93 49.7153 387.982 49.7152C380.279 49.7158 375.433 55.15 375.433 62.7384C375.432 70.051 380.795 74.9717 387.983 74.9715C394.346 74.9708 399.324 71.2941 399.99 64.9017ZM425.477 67.0596L418.135 67.0599C417.4 68.8167 415.555 69.6902 413.673 69.6905C410.348 69.6904 408.456 67.5312 408.315 64.2655L425.886 64.2657C426.255 56.1677 421.97 49.724 413.387 49.7244C406.339 49.7244 400.476 54.9718 400.476 62.2845C400.475 70.2887 405.782 74.9795 413.588 74.9806C418.917 74.97 424.036 72.5783 425.477 67.0596ZM408.315 59.8917C408.783 56.9808 410.615 55.0093 413.386 55.0089C416.018 55.0089 417.91 57.2097 418.046 59.8919L408.315 59.8917Z" fill="white"/>
<path d="M433.908 54.6526L433.908 87.4018C433.918 91.0248 435.36 94.4963 437.917 97.0583C440.475 99.62 443.941 101.064 447.559 101.073L480.248 101.074C483.866 101.066 487.335 99.6238 489.895 97.0617C492.455 94.4996 493.897 91.0266 493.908 87.4021L493.907 54.6525C493.896 51.0285 492.453 47.5564 489.894 44.9945C487.334 42.4327 483.866 40.9897 480.247 40.9808L447.549 40.9811C443.933 40.9933 440.469 42.4381 437.913 44.9994C435.358 47.5614 433.917 51.0311 433.908 54.6526ZM482.627 65.9172C485.702 67.347 487.282 70.4651 486.163 72.8913C485.045 75.3179 481.637 76.1235 478.548 74.6981C475.459 73.2728 473.893 70.1503 475.011 67.7236C476.13 65.2974 479.543 64.4966 482.627 65.9172ZM463.679 54.1714C469.1 59.2573 470.495 63.8389 471.409 69.9549C472.323 76.0709 471.971 78.321 475.625 85.5807C476.625 87.5737 475.431 87.0112 474.079 85.7384C468.658 80.6519 467.263 76.0662 466.349 69.9549C465.435 63.8435 465.788 61.5888 462.132 54.3285C461.133 52.3361 462.327 52.9032 463.679 54.1714ZM442.589 53.2178C447.406 56.7166 451.342 59.5483 455.873 62.9282C461.623 67.1851 465.283 73.4967 458.115 78.6591C451.452 83.4647 444.146 88.7839 442.051 90.3096C441.766 90.5149 441.447 90.3857 441.414 89.9472C441.243 87.5163 440.857 81.9341 443.375 80.0943C447.021 77.4296 451.228 74.4309 454.583 71.9902C457.478 69.8881 457.763 66.8422 454.959 64.8015C451.827 62.5276 446.869 58.9003 444.907 57.4462C443.649 56.5646 442.579 55.4398 441.761 54.1378C441.081 53.0177 441.476 52.398 442.589 53.2033L442.589 53.2178Z" fill="white"/>
<path d="M441.736 90.4196C441.57 90.3933 441.437 90.2407 441.416 89.9666C441.245 87.5357 440.86 81.9527 443.378 80.1129C447.023 77.4384 451.231 74.4405 454.586 72.0091C457.48 69.907 457.765 66.86 454.961 64.8194C451.829 62.5453 446.895 58.9182 444.91 57.4643C443.652 56.5827 442.581 55.4591 441.763 54.157C441.083 53.0179 441.478 52.3977 442.591 53.2221C447.394 56.7497 451.345 59.6105 455.876 62.9475C461.626 67.1952 465.285 73.5054 458.117 78.6775C451.458 83.4827 444.149 88.8029 442.054 90.3286C441.947 90.4056 441.836 90.4354 441.736 90.4196ZM475.797 86.8868C475.473 86.8875 474.798 86.4123 474.081 85.7389C468.659 80.6523 467.267 76.0474 466.353 69.9552C465.439 63.8628 465.789 61.589 462.134 54.3287C461.135 52.3363 462.331 52.9034 463.683 54.1715C469.103 59.2575 470.497 63.8628 471.41 69.9552C472.324 76.0474 471.973 78.3219 475.627 85.5817C476.096 86.5158 476.083 86.8863 475.797 86.8868ZM481.724 75.4032C480.695 75.4163 479.602 75.1896 478.55 74.6979C475.489 73.2678 473.895 70.1496 475.014 67.7234C476.146 65.3015 479.568 64.4875 482.628 65.9177C485.689 67.3479 487.307 70.469 486.164 72.8902C485.414 74.4795 483.688 75.3783 481.724 75.4032Z" fill="#64B5F6"/>
<path d="M439.908 251.614C441.152 249.254 442.683 247.061 444.468 245.087C444.509 245.687 444.57 246.252 444.634 246.798C444.795 248.388 445.143 249.951 445.671 251.457C446.473 253.599 447.492 254.974 448.637 255.717C449.73 256.407 450.972 256.817 452.256 256.918L452.255 256.516C452.262 254.063 452.541 251.62 453.085 249.23C453.563 246.896 454.485 244.678 455.797 242.699L455.772 242.669C457.054 240.686 458.825 239.076 460.912 237.998C462.996 236.921 465.324 236.412 467.663 236.524C470.389 236.48 473.055 237.322 475.272 238.925C477.47 240.563 479.232 242.727 480.398 245.225C481.313 247.141 481.941 249.185 482.26 251.288C482.632 253.849 482.804 256.437 482.775 259.025V262.357C482.745 262.612 482.622 262.847 482.432 263.017C482.243 263.187 481.998 263.281 481.743 263.282H479.851C478.939 263.281 477.739 263.28 476.233 263.28C472.876 263.244 469.69 263.226 466.668 263.226C464.609 263.226 462.528 263.189 460.387 263.226C458.246 263.262 456.294 263.262 454.516 263.263C451.177 263.262 448.453 262.704 446.396 261.462C444.368 260.204 442.715 258.41 441.616 256.275C440.885 254.786 440.311 253.224 439.908 251.614ZM452.213 205.708C453.274 205.251 456.773 203.687 461.578 201.508C467.552 198.762 473.619 195.989 479.779 193.188L480.634 192.816L483.286 198.776L460.633 208.464L481.819 217.288C482.003 217.4 482.155 217.558 482.258 217.749C482.362 217.94 482.417 218.156 482.413 218.374V226.895V231.698C482.413 231.838 482.386 231.976 482.332 232.106C482.278 232.235 482.198 232.351 482.099 232.449C481.999 232.546 481.881 232.623 481.751 232.673C481.622 232.723 481.484 232.745 481.346 232.742H453.291C453.158 232.745 453.024 232.723 452.898 232.675C452.772 232.626 452.657 232.551 452.559 232.458C452.462 232.364 452.384 232.254 452.33 232.129C452.275 232.004 452.246 231.868 452.243 231.732V226.932C452.242 226.794 452.27 226.66 452.323 226.533C452.376 226.406 452.451 226.29 452.548 226.192C452.644 226.096 452.757 226.02 452.883 225.968C453.01 225.916 453.146 225.893 453.282 225.894H476.939V221.771C472.194 219.663 467.265 217.473 462.111 215.168C456.958 212.862 453.304 211.248 452.213 210.744V205.708ZM452.253 280.878C452.245 278.993 452.566 277.12 453.195 275.344C453.812 273.628 454.749 272.047 455.954 270.687C457.405 269.114 459.18 267.886 461.154 267.087C463.198 266.24 465.388 265.808 467.595 265.813C469.652 265.797 471.693 266.168 473.616 266.907C475.509 267.661 477.217 268.825 478.621 270.315C479.962 271.69 481.015 273.322 481.723 275.116C482.445 276.961 482.815 278.931 482.809 280.915C482.834 282.894 482.49 284.861 481.8 286.713C481.136 288.47 480.111 290.062 478.793 291.388C477.354 292.901 475.613 294.086 473.686 294.863C471.717 295.624 469.626 296.002 467.519 295.98C465.348 295.989 463.196 295.561 461.19 294.72C459.378 293.972 457.736 292.86 456.363 291.451C454.988 290.041 453.91 288.363 453.195 286.52C452.545 284.713 452.225 282.802 452.253 280.878ZM452.264 178.393L452.3 178.178V171.635C452.266 169.763 452.437 167.892 452.811 166.058C453.095 164.445 453.632 162.886 454.4 161.443C455.144 160.222 456.158 159.196 457.364 158.442C458.388 157.849 459.537 157.513 460.715 157.464L460.77 157.462L463.508 157.464C464.492 157.463 465.952 157.469 467.884 157.464C469.819 157.458 471.23 157.427 472.108 157.427C474.196 157.379 475.615 156.887 476.261 156.365C476.908 155.843 477.351 154.78 477.351 152.979C477.28 151.593 476.951 150.235 476.384 148.971C475.744 147.351 474.977 145.785 474.089 144.291C473.543 144.29 472.594 144.289 471.213 144.289C469.166 144.289 467.268 144.289 465.608 144.289C463.947 144.288 452.45 144.289 452.294 144.289V137.981H482.5L482.498 144.457H479.783C480.768 146.226 481.604 148.079 482.279 149.992C482.849 151.53 483.169 153.15 483.229 154.792C483.276 156.013 483.072 157.231 482.629 158.368C482.185 159.505 481.515 160.535 480.655 161.393C478.918 163.081 476.557 163.904 473.739 163.904C471.325 163.904 469.249 163.886 467.506 163.856C465.761 163.826 464.368 163.825 463.277 163.825H461.368C460.749 163.8 460.142 163.987 459.642 164.354C459.061 164.831 458.615 165.45 458.344 166.154C458.027 166.919 457.827 167.729 457.75 168.555C457.703 168.79 457.704 168.981 457.704 169.191C458.79 168.702 459.966 168.45 461.156 168.454C463.085 168.424 464.96 169.103 466.433 170.367C467.984 171.74 469.178 173.475 469.913 175.422C470.551 177.098 471.028 178.832 471.336 180.601C471.735 182.68 472.026 184.78 472.203 186.891C473.025 186.775 473.815 186.482 474.517 186.033C475.354 185.445 475.989 184.605 476.331 183.632C476.665 182.799 476.892 181.925 477.007 181.033C477.154 179.869 477.222 178.696 477.209 177.523C477.21 176.683 477.186 176.004 477.157 175.386C477.127 174.768 477.067 173.933 477.02 172.906L476.954 171.784L482.576 172.473L482.636 173.255L482.737 174.976C482.808 175.859 482.809 177.031 482.809 178.544C482.836 180.669 482.59 182.789 482.078 184.852C481.64 186.628 480.79 188.275 479.599 189.653C478.504 190.82 477.157 191.714 475.662 192.263C474.031 192.882 471.829 193.152 469.007 193.153C464.286 193.153 460.454 193.194 457.477 193.151C454.5 193.11 453.877 193.11 453.651 193.111H453.439H453.32C453.209 193.116 453.098 193.098 452.992 193.061C452.783 192.999 452.599 192.872 452.468 192.696C452.337 192.519 452.266 192.305 452.264 192.085V178.393ZM457.441 280.873C457.434 281.917 457.61 282.952 457.963 283.933C458.314 284.843 458.84 285.673 459.511 286.376C460.49 287.384 461.671 288.169 462.974 288.676C464.368 289.217 465.849 289.491 467.34 289.486C468.938 289.487 470.524 289.207 472.027 288.659C473.455 288.148 474.733 287.282 475.745 286.143C476.363 285.468 476.834 284.671 477.132 283.803C477.465 282.878 477.631 281.9 477.624 280.915C477.652 279.857 477.479 278.803 477.109 277.811C476.718 276.883 476.148 276.04 475.436 275.333C474.468 274.347 473.298 273.591 472.008 273.119C470.599 272.572 469.104 272.294 467.595 272.301C465.963 272.282 464.341 272.566 462.809 273.136C461.394 273.689 460.142 274.595 459.169 275.771C458.603 276.457 458.167 277.241 457.886 278.086C457.585 278.984 457.435 279.925 457.441 280.873ZM457.7 256.834V256.985C458.235 256.985 458.987 256.985 459.965 256.985C461.858 257.021 464.087 257.02 466.679 257.02C468.036 257.02 469.751 257.021 471.815 257.02C473.582 257.002 475.416 256.995 477.319 256.96C477.321 255.493 477.208 254.028 476.981 252.579C476.742 251.199 476.343 249.851 475.794 248.563C475.126 246.883 473.963 245.452 472.462 244.465C470.964 243.513 469.225 243.02 467.457 243.048C465.736 242.992 464.041 243.478 462.605 244.44C461.242 245.385 460.157 246.689 459.468 248.209C458.898 249.457 458.471 250.765 458.192 252.11C457.857 253.661 457.692 255.246 457.7 256.834ZM457.767 184.773C457.767 185.128 457.768 185.588 457.769 186.152C457.768 186.404 457.768 186.718 457.769 187.006C458.023 187.006 458.308 187.005 458.658 187.004C459.637 187.005 460.977 187.006 462.643 187.006L464.855 187.012C465.501 187.012 466.207 187.012 467.003 187.012C466.942 186.19 466.806 185.043 466.639 183.626C466.459 181.875 466.094 180.15 465.549 178.477C465.256 177.537 464.779 176.666 464.149 175.915C463.906 175.608 463.595 175.361 463.243 175.195C462.888 175.029 462.504 174.949 462.115 174.959C461.711 174.934 461.306 174.994 460.927 175.137C460.546 175.279 460.199 175.501 459.909 175.786C459.259 176.506 458.791 177.373 458.544 178.314C458.256 179.276 458.059 180.263 457.952 181.261C457.828 182.428 457.765 183.601 457.767 184.773ZM486.336 226.926C486.337 226.788 486.364 226.651 486.417 226.524C486.471 226.398 486.549 226.282 486.646 226.187C486.744 226.09 486.859 226.017 486.987 225.966C487.113 225.916 487.249 225.891 487.386 225.894H491.852C492.122 225.889 492.383 225.989 492.58 226.177C492.777 226.365 492.895 226.623 492.908 226.897V231.698C492.907 231.838 492.879 231.976 492.824 232.104C492.771 232.233 492.692 232.349 492.593 232.445C492.494 232.542 492.378 232.619 492.249 232.669C492.12 232.718 491.983 232.741 491.844 232.736H487.392C487.256 232.74 487.122 232.718 486.996 232.669C486.87 232.62 486.755 232.548 486.657 232.454C486.559 232.36 486.48 232.248 486.425 232.123C486.371 231.999 486.339 231.864 486.336 231.729V226.926Z" fill="white"/>
<path d="M426.945 140.601C425.822 140.65 424.723 140.952 423.728 141.486C422.739 142.039 421.925 142.868 421.382 143.879C420.984 144.587 420.698 145.354 420.536 146.153C420.346 147.16 420.277 148.186 420.328 149.211C420.349 149.831 420.368 150.452 420.423 151.01C420.437 151.343 420.471 151.676 420.523 152.006L418.291 151.768C418.241 151.466 418.209 151.163 418.195 150.858C418.178 150.35 418.128 149.755 418.105 149.077C418.016 147.457 418.201 145.831 418.649 144.274C419.008 143.033 419.615 141.884 420.434 140.9C421.152 140.082 422.008 139.405 422.962 138.902C424.044 138.325 425.241 138.014 426.46 137.991C427.641 137.937 428.821 138.105 429.943 138.489C430.998 138.868 431.981 139.428 432.851 140.145C433.631 140.798 434.254 141.627 434.671 142.566C435.109 143.534 435.351 144.583 435.379 145.648C435.45 146.563 435.334 147.484 435.037 148.349C434.741 149.215 434.272 150.01 433.66 150.679C432.907 151.387 432.026 151.936 431.066 152.294C429.868 152.722 428.61 152.949 427.342 152.965L426.945 140.601ZM432.322 148.7C432.704 148.282 432.997 147.785 433.182 147.244C433.366 146.703 433.439 146.128 433.394 145.557C433.385 144.375 432.917 143.244 432.096 142.415C431.186 141.542 430.043 140.965 428.811 140.76L429.126 150.28C430.325 150.123 431.441 149.569 432.304 148.702L432.322 148.7ZM424.536 168.78C423.397 168.82 422.417 168.854 421.581 168.884C420.746 168.913 420.086 168.936 419.584 168.955C419.082 168.973 418.832 168.981 418.767 168.983C418.763 168.872 418.71 168.364 418.593 167.399C418.476 166.433 418.407 165.238 418.356 163.742C418.332 162.796 418.39 161.85 418.53 160.915C418.646 160.053 418.866 159.211 419.186 158.406C419.529 157.533 420.069 156.756 420.767 156.144C421.486 155.541 422.387 155.211 423.318 155.209C424.315 155.157 425.297 155.477 426.08 156.113C426.944 156.842 427.62 157.776 428.055 158.832C428.436 159.78 428.735 160.758 428.952 161.76C429.259 163.158 429.493 164.571 429.656 165.997C431.357 165.792 432.457 164.97 432.955 163.532C433.359 162.297 433.522 160.992 433.435 159.694C433.417 159.185 433.402 158.743 433.392 158.383L433.24 156.936L435.464 157.1C435.47 157.285 435.531 157.631 435.57 158.132C435.612 158.636 435.64 159.325 435.67 160.211C435.726 161.419 435.627 162.631 435.377 163.812C435.181 164.801 434.754 165.724 434.133 166.504C433.864 166.821 433.566 167.107 433.239 167.361C432.87 167.633 432.472 167.856 432.049 168.025C431.543 168.233 431.015 168.38 430.477 168.465C429.771 168.578 429.057 168.645 428.343 168.664C426.927 168.697 425.674 168.739 424.536 168.78ZM427.627 166.049C427.586 165.537 427.454 164.654 427.23 163.398C427.052 162.331 426.778 161.285 426.411 160.271C426.16 159.648 425.787 159.083 425.313 158.612C425.082 158.375 424.804 158.189 424.498 158.07C424.19 157.949 423.861 157.898 423.534 157.917C422.872 157.903 422.23 158.148 421.739 158.601C421.257 159.098 420.911 159.713 420.737 160.39C420.559 161.001 420.441 161.63 420.387 162.266C420.317 162.983 420.295 163.704 420.319 164.424L420.346 165.262L420.435 166.309L427.628 166.056L427.627 166.049ZM421.921 182.389C421.263 182.013 420.71 181.473 420.313 180.817C419.826 180.08 419.469 179.263 419.257 178.401C419.001 177.375 418.86 176.323 418.831 175.265C418.822 174.98 418.825 174.687 418.84 174.389C418.829 174.084 418.857 173.797 418.86 173.524C418.863 173.251 418.844 173.028 418.891 172.84C418.905 172.724 418.911 172.607 418.911 172.492L421.091 172.308C421.094 172.449 421.089 172.591 421.076 172.731L421.029 173.522L421.013 174.522C421.025 174.87 421.037 175.218 421.048 175.572C421.074 176.087 421.125 176.598 421.203 177.107C421.263 177.638 421.406 178.152 421.628 178.633C421.777 179.118 422.077 179.537 422.483 179.828C422.887 180.117 423.374 180.263 423.868 180.238C424.267 180.242 424.653 180.105 424.966 179.852C425.275 179.563 425.534 179.221 425.732 178.844C425.905 178.564 426.057 178.272 426.188 177.97L426.643 176.916C426.809 176.562 426.96 176.209 427.105 175.849C427.252 175.49 427.405 175.174 427.553 174.889C427.938 174.182 428.472 173.57 429.118 173.101C429.752 172.66 430.498 172.418 431.264 172.404C432.054 172.366 432.838 172.578 433.508 173.007C434.195 173.454 434.756 174.078 435.138 174.815C435.529 175.493 435.798 176.236 435.932 177.012C436.066 177.791 436.149 178.578 436.178 179.37C436.202 180.069 436.208 180.641 436.2 181.084L436.189 181.861L433.979 182.113C433.976 182.038 433.965 181.697 434.011 181.075C434.057 180.451 434.035 179.775 434.01 179.023C433.998 178.519 433.935 178.019 433.828 177.526C433.738 177.117 433.6 176.721 433.413 176.348C433.203 175.928 432.882 175.574 432.488 175.33C432.188 175.144 431.843 175.048 431.491 175.048C431.064 175.053 430.653 175.223 430.343 175.525C430.028 175.834 429.764 176.194 429.561 176.59C429.428 176.825 429.292 177.102 429.14 177.425C428.986 177.746 428.834 178.107 428.666 178.51L428.204 179.576C428.064 179.886 427.944 180.138 427.835 180.329C427.448 181.059 426.916 181.698 426.273 182.204C425.653 182.653 424.915 182.897 424.157 182.901C423.379 182.951 422.605 182.773 421.921 182.389ZM428.555 198.846L420.621 195.529C417.894 194.381 415.808 193.514 414.365 192.922C412.923 192.351 412.111 191.994 411.908 191.909L412.688 189.495L419.938 192.819C420.052 192.765 420.504 192.55 421.304 192.149C422.102 191.748 423.248 191.204 424.751 190.475C426.254 189.745 427.882 188.94 429.641 188.077C431.401 187.214 433.325 186.245 435.412 185.196L436.587 187.745C435.04 188.421 433.518 189.097 432.024 189.771C430.531 190.444 429.04 191.161 427.53 191.868L424.148 193.478C423.371 193.84 422.955 194.049 422.853 194.102L422.853 194.132C422.897 194.132 423.296 194.316 424.046 194.618C424.795 194.922 425.888 195.35 427.355 195.907C428.822 196.464 430.325 197.044 431.904 197.672C433.482 198.299 435.158 198.937 436.908 199.602L436.064 201.981C433.618 200.953 431.115 199.907 428.555 198.846Z" fill="white"/>
<path d="M318.407 267.981C306.952 272.042 291.854 260.204 284.651 239.891C277.449 219.577 280.897 199.817 292.353 195.755C303.808 191.694 318.933 204.869 326.135 225.183C333.337 245.497 329.863 263.919 318.407 267.981Z" fill="white"/>
<path d="M295.003 245.474C283.649 243.91 279.941 231.128 279.487 226.316C279.267 209.661 286.333 186.108 303.408 195.981C305.774 199.077 321.791 203.082 319.575 219.172C317.358 235.262 306.357 247.038 295.003 245.474Z" fill="#007BC4"/>
<path d="M287.37 229.558C281.875 228.219 279.119 220.16 281.214 211.558C283.31 202.955 280.857 197.058 292.907 197.981C300.907 198.594 305.221 207.981 302.907 217.481C300.812 226.084 294.958 230.981 287.37 229.558Z" fill="black"/>
<ellipse cx="303.168" cy="223.209" rx="7.64403" ry="6.22681" transform="rotate(30.2231 303.168 223.209)" fill="white"/>
<ellipse cx="304.883" cy="229.985" rx="38.2938" ry="21.5691" transform="rotate(70.4786 304.883 229.985)" stroke="black" stroke-width="6"/>
<path d="M287.196 206.927C285.403 205.241 285.611 202.107 287.66 199.927C289.907 197.481 292.907 197.481 294.619 199.034C296.412 200.721 296.204 203.855 294.155 206.034C292.105 208.214 288.99 208.614 287.196 206.927Z" fill="white"/>
<circle cx="202.407" cy="254.981" r="48.5" transform="rotate(90 202.407 254.981)" fill="white"/>
<path d="M189.407 276.981C168.697 276.981 158.907 261.481 156.907 255.481C152.407 234.481 178.407 200.481 211.407 209.981C216.407 213.481 226.907 218.77 226.907 239.481C226.907 260.191 210.118 276.981 189.407 276.981Z" fill="#007BC4"/>
<circle cx="188.407" cy="234.481" r="18.5" transform="rotate(90 188.407 234.481)" fill="black"/>
<circle cx="180.907" cy="219.981" r="7" transform="rotate(90 180.907 219.981)" fill="white"/>
<circle cx="199.407" cy="246.481" r="9.5" transform="rotate(90 199.407 246.481)" fill="white"/>
<circle cx="202.407" cy="254.981" r="48.5" transform="rotate(90 202.407 254.981)" stroke="black" stroke-width="7"/>
<path d="M353.407 145.981C341.407 144.481 337.408 157.981 337.408 157.981C337.408 157.981 337.408 150.981 335.408 146.981C333.408 142.981 331.612 141.586 327.907 140.481C324.203 139.376 318.907 140.481 316.407 144.981C314.558 148.309 310.622 159.481 314.908 169.481C322.699 187.661 340.408 195.981 340.408 195.981C340.408 195.981 366.907 181.981 366.907 164.981C366.908 152.481 356.88 146.415 353.407 145.981Z" fill="white"/>
<path d="M253.908 281.481C253.908 281.481 253.079 285.43 251.908 287.481C250.736 289.531 247.908 291.981 247.908 291.981" stroke="black" stroke-width="6" stroke-linecap="round"/>
<path d="M298.408 274.481C298.408 274.481 294.408 282.568 279.908 286.981C265.408 291.394 252.408 286.981 252.408 286.981" stroke="black" stroke-width="6" stroke-linecap="round"/>
<path d="M294.408 270.481C294.408 270.481 295.845 271.809 297.408 272.981C298.97 274.152 303.908 274.981 303.908 274.981" stroke="black" stroke-width="6" stroke-linecap="round"/>
<path d="M147.907 263.981C148.502 265.468 104.907 260.981 104.907 260.981L103.907 248.981C103.907 248.981 146.407 237.269 146.407 253.981C146.408 257.481 146.908 261.481 147.907 263.981Z" fill="#E62C32"/>
<path d="M149.589 235.988C149.589 233.439 152.408 228.981 152.408 228.981L116.908 203.481L114.908 213.981C114.908 213.981 149.589 238.981 149.589 235.988Z" fill="#E62C32"/>
<path d="M128.408 253.981C111.408 253.662 104.908 251.481 104.908 251.481L105.408 243.481L146.908 247.981L146.408 253.981C146.408 253.981 135.241 254.109 128.408 253.981Z" fill="white"/>
<path d="M146.908 247.981C146.908 247.981 147.408 240.481 149.408 236.481C150.908 233.481 104.908 238.481 104.908 238.481L105.408 245.481C105.408 245.481 119.068 247.591 126.908 247.981C134.708 248.369 146.908 247.981 146.908 247.981Z" fill="#007BC4"/>
<path d="M156.505 223.334L152.408 228.981C152.408 228.981 141.187 222.498 133.908 217.481C126.927 212.67 115.408 202.481 115.408 202.481L117.958 195.255C118.182 194.621 118.954 194.384 119.495 194.783L156.289 221.942C156.731 222.269 156.827 222.89 156.505 223.334Z" fill="white"/>
<path d="M162.951 215.563C162.908 216.481 156.408 223.481 156.408 223.481C156.408 223.481 145.187 217.498 137.908 212.481C130.927 207.67 119.408 197.481 119.408 197.481L121.999 190.138C122.21 189.541 122.91 189.284 123.452 189.612C129.811 193.463 163.039 213.68 162.951 215.563Z" fill="#007BC4"/>
<path d="M160.408 213.981C160.408 213.981 146.052 205.858 138.908 200.481C133.202 196.186 125.827 188.61 123.04 185.683C122.521 185.137 121.608 185.335 121.358 186.046L112.14 212.318C112.001 212.715 112.122 213.155 112.45 213.42C114.117 214.765 119.271 218.894 122.908 221.481C127.301 224.605 134.408 228.981 134.408 228.981L146.066 235.198C146.972 235.682 146.649 237.067 145.623 237.107C143.384 237.194 140.734 237.323 139.408 237.481C129.779 238.628 109.425 236.235 104.498 235.62C103.913 235.547 103.389 235.991 103.368 236.58L102.444 261.968C102.424 262.525 102.863 262.991 103.42 263.005L144.908 263.981" stroke="black" stroke-width="6" stroke-linecap="round"/>
<path d="M202.908 182.481C202.908 182.481 224.908 203.481 247.908 199.981C275.908 195.72 286.408 180.033 286.408 158.481C286.408 133.481 253.908 122.641 239.908 121.981C222.462 121.158 190.979 129.341 172.408 143.481C143.908 161.481 133.908 192.981 133.908 192.981" stroke="black" stroke-width="6" stroke-linecap="round"/>
<defs>
<clipPath id="clip0_16_212">
<rect width="82" height="82" fill="white" transform="matrix(0 1 -1 0 135.908 29.9808)"/>
</clipPath>
</defs>
</svg>
