<svg width="786" height="491" viewBox="0 0 786 491" fill="none" xmlns="http://www.w3.org/2000/svg">
<path d="M766 0C777.046 0 786 8.9543 786 20V471C786 482.046 777.046 491 766 491H20C8.9543 491 0 482.046 0 471V20C0 8.95432 8.9543 0 20 0L766 0Z" fill="url(#paint0_linear_60_181)"/>
<mask id="mask0_60_181" style="mask-type:luminance" maskUnits="userSpaceOnUse" x="516" y="68" width="184" height="96">
<path d="M519.353 68.2044C517.308 68.2862 516 69.2266 516 71.23V161.015C516 162.569 517.104 164 518.862 164H679.094C680.525 164 681.67 163.877 682.365 161.956C682.365 161.956 698.596 111.135 698.882 110.194C699.496 108.273 699.087 107.291 697.451 106.269C645.281 72.8245 567.23 68 531.782 68C526.712 68 522.501 68.0818 519.353 68.2044Z" fill="white"/>
</mask>
<g mask="url(#mask0_60_181)">
<path d="M699.169 67.9182H516V164H699.169V67.9182Z" fill="url(#paint1_linear_60_181)"/>
</g>
<path d="M617.134 139.193C614.891 136.624 613.994 133.333 614.565 129.64C615.87 120.85 624.596 115.271 636.217 115.271C638.664 115.271 641.192 115.432 643.475 115.712L645.759 109.09C642.945 108.648 639.561 108.488 636.217 108.488C625.901 108.488 616.93 111.98 611.099 118.161C610.936 118.362 610.732 118.362 610.61 118.362C610.447 118.362 610.324 118.321 610.365 118.161L613.26 109.17H604.738L595.4 137.949C592.424 129.44 586.307 118.281 578.845 109.17H569.711L562.943 130.082C566.368 132.611 567.469 134.417 568.366 136.986C568.407 137.146 568.529 137.186 568.692 137.186C568.855 137.186 568.937 137.146 568.977 136.986C569.059 136.785 574.931 118.763 574.931 118.763C580.966 127.232 586.919 138.391 590.14 150.191H599.967L604.82 135.26C604.86 135.099 604.983 135.059 605.146 135.059C605.309 135.059 605.431 135.099 605.431 135.26C606.899 144.612 616.359 150.914 629.775 150.914C638.46 150.914 646.289 148.666 648.246 147.662L653.343 131.888H672.875L674.873 125.787H655.341L658.726 115.432H682.009L684.048 109.09H651.345L640.254 143.247C637.889 143.849 634.994 144.13 631.936 144.13C625.371 144.13 620.111 142.605 617.134 139.193ZM562.045 115.432L564.003 109.411C561.23 108.889 559.232 108.648 555.888 108.568C545.164 108.327 535.5 111.217 533.013 117.398C530.077 124.703 538.436 128.798 545.694 132.209C551.444 134.899 556.011 137.467 554.42 140.799C553.156 143.408 549.119 144.612 543.166 144.492C538.028 144.371 531.626 142.926 526.57 140.438L523.553 146.82C527.263 148.505 534.929 150.833 541.453 150.954C553.727 151.235 561.638 148.184 564.818 141.642C568.57 133.855 559.232 129.6 551.77 126.068C545.898 123.299 541.902 121.813 542.881 119.004C544.022 115.672 549.935 114.428 555.277 114.548C557.927 114.589 559.844 114.91 562.045 115.432Z" fill="white"/>
<path d="M196.999 322.979C196.999 331.274 188.957 338 179.039 338H104.96C95.0416 338 87 331.274 87 322.979V261.021C87 252.726 95.0416 246 104.96 246H179.04C188.958 246 197 252.726 197 261.021L196.999 322.979Z" fill="#F9B000"/>
<path d="M104.226 73.532C102.911 73.532 101.771 73.5707 100.804 73.648C99.8373 73.6867 98.8707 73.764 97.904 73.88V88.322C98.948 88.6313 100.031 88.8633 101.152 89.018C102.273 89.1727 103.53 89.25 104.922 89.25C107.706 89.25 109.891 88.6313 111.476 87.394C113.1 86.118 113.912 84.03 113.912 81.13C113.912 78.23 113.1 76.2387 111.476 75.156C109.852 74.0733 107.435 73.532 104.226 73.532ZM104.574 93.89C103.337 93.89 102.215 93.8513 101.21 93.774C100.205 93.6967 99.1027 93.5613 97.904 93.368V111H92.336V69.53C94.076 69.3753 95.9513 69.24 97.962 69.124C100.011 69.008 102.022 68.95 103.994 68.95C106.043 68.95 108.015 69.1047 109.91 69.414C111.805 69.6847 113.487 70.2453 114.956 71.096C116.425 71.9467 117.585 73.1453 118.436 74.692C119.325 76.2387 119.77 78.2687 119.77 80.782C119.77 83.0633 119.364 85.0353 118.552 86.698C117.74 88.3607 116.638 89.7333 115.246 90.816C113.854 91.86 112.23 92.6333 110.374 93.136C108.557 93.6387 106.623 93.89 104.574 93.89ZM136.35 98.182C135.074 98.182 133.876 98.24 132.754 98.356C131.517 98.5493 130.492 98.994 129.68 99.69C128.907 100.347 128.52 101.372 128.52 102.764C128.52 104.233 129.004 105.335 129.97 106.07C130.976 106.766 132.155 107.114 133.508 107.114C135.21 107.114 136.698 106.65 137.974 105.722C139.25 104.794 140.217 103.615 140.874 102.184C141.261 101.256 141.454 100.212 141.454 99.052V98.182H136.35ZM142.208 111C142.131 110.381 142.034 109.55 141.918 108.506C141.841 107.462 141.802 106.515 141.802 105.664C140.797 107.52 139.482 108.97 137.858 110.014C136.234 111.058 134.301 111.58 132.058 111.58C130.782 111.58 129.603 111.387 128.52 111C127.438 110.613 126.49 110.053 125.678 109.318C124.905 108.583 124.286 107.694 123.822 106.65C123.397 105.567 123.184 104.369 123.184 103.054C123.184 100.773 123.803 98.9747 125.04 97.66C126.278 96.3453 127.979 95.456 130.144 94.992C131.034 94.7987 132.058 94.6633 133.218 94.586C134.378 94.5087 135.577 94.47 136.814 94.47H141.454V91.744C141.454 89.772 141.068 88.2833 140.294 87.278C139.521 86.234 138.09 85.712 136.002 85.712C134.456 85.712 133.006 85.944 131.652 86.408C130.338 86.8333 128.868 87.452 127.244 88.264L125.678 83.972C127.612 83.1213 129.41 82.4833 131.072 82.058C132.735 81.6327 134.456 81.42 136.234 81.42C137.82 81.42 139.173 81.5747 140.294 81.884C141.416 82.1933 142.363 82.6187 143.136 83.16C143.948 83.6627 144.586 84.2813 145.05 85.016C145.514 85.7507 145.882 86.5433 146.152 87.394C146.346 87.974 146.462 88.5927 146.5 89.25C146.578 89.9073 146.616 90.6227 146.616 91.396V99.516C146.616 100.56 146.616 101.565 146.616 102.532C146.655 103.46 146.713 104.388 146.79 105.316C146.868 106.244 146.984 107.172 147.138 108.1C147.332 109.028 147.564 109.995 147.834 111H142.208ZM163.873 111.58C162.056 111.58 160.296 111.387 158.595 111C156.932 110.613 155.289 109.956 153.665 109.028L155.869 104.446C157.068 105.335 158.344 106.051 159.697 106.592C161.089 107.095 162.52 107.346 163.989 107.346C164.762 107.346 165.497 107.269 166.193 107.114C166.889 106.921 167.508 106.65 168.049 106.302C168.629 105.915 169.074 105.432 169.383 104.852C169.731 104.233 169.905 103.518 169.905 102.706C169.905 102.126 169.789 101.643 169.557 101.256C169.325 100.831 169.016 100.483 168.629 100.212C168.281 99.9413 167.856 99.7287 167.353 99.574C166.889 99.3807 166.386 99.2067 165.845 99.052L163.003 98.24C161.959 97.9307 160.915 97.5827 159.871 97.196C158.866 96.7707 157.957 96.268 157.145 95.688C156.372 95.0693 155.734 94.3153 155.231 93.426C154.728 92.498 154.477 91.3767 154.477 90.062C154.477 88.6313 154.767 87.3747 155.347 86.292C155.927 85.2093 156.7 84.32 157.667 83.624C158.634 82.8893 159.755 82.348 161.031 82C162.346 81.6133 163.699 81.42 165.091 81.42C166.676 81.42 168.146 81.5747 169.499 81.884C170.891 82.1933 172.225 82.6767 173.501 83.334L171.355 87.626C170.35 87.0073 169.364 86.524 168.397 86.176C167.43 85.828 166.251 85.654 164.859 85.654C163.583 85.654 162.423 85.9827 161.379 86.64C160.335 87.2587 159.813 88.2833 159.813 89.714C159.813 90.3713 159.929 90.9127 160.161 91.338C160.393 91.7633 160.683 92.1113 161.031 92.382C161.418 92.6527 161.862 92.8847 162.365 93.078C162.868 93.2327 163.37 93.3873 163.873 93.542L166.889 94.47C168.01 94.818 169.054 95.1853 170.021 95.572C171.026 95.92 171.896 96.4033 172.631 97.022C173.366 97.602 173.946 98.3367 174.371 99.226C174.835 100.115 175.067 101.237 175.067 102.59C175.067 103.905 174.758 105.123 174.139 106.244C173.559 107.327 172.766 108.274 171.761 109.086C170.756 109.859 169.557 110.478 168.165 110.942C166.812 111.367 165.381 111.58 163.873 111.58ZM189.928 111.58C188.11 111.58 186.351 111.387 184.65 111C182.987 110.613 181.344 109.956 179.72 109.028L181.924 104.446C183.122 105.335 184.398 106.051 185.752 106.592C187.144 107.095 188.574 107.346 190.044 107.346C190.817 107.346 191.552 107.269 192.248 107.114C192.944 106.921 193.562 106.65 194.104 106.302C194.684 105.915 195.128 105.432 195.438 104.852C195.786 104.233 195.96 103.518 195.96 102.706C195.96 102.126 195.844 101.643 195.612 101.256C195.38 100.831 195.07 100.483 194.684 100.212C194.336 99.9413 193.91 99.7287 193.408 99.574C192.944 99.3807 192.441 99.2067 191.9 99.052L189.058 98.24C188.014 97.9307 186.97 97.5827 185.926 97.196C184.92 96.7707 184.012 96.268 183.2 95.688C182.426 95.0693 181.788 94.3153 181.286 93.426C180.783 92.498 180.532 91.3767 180.532 90.062C180.532 88.6313 180.822 87.3747 181.402 86.292C181.982 85.2093 182.755 84.32 183.722 83.624C184.688 82.8893 185.81 82.348 187.086 82C188.4 81.6133 189.754 81.42 191.146 81.42C192.731 81.42 194.2 81.5747 195.554 81.884C196.946 82.1933 198.28 82.6767 199.556 83.334L197.41 87.626C196.404 87.0073 195.418 86.524 194.452 86.176C193.485 85.828 192.306 85.654 190.914 85.654C189.638 85.654 188.478 85.9827 187.434 86.64C186.39 87.2587 185.868 88.2833 185.868 89.714C185.868 90.3713 185.984 90.9127 186.216 91.338C186.448 91.7633 186.738 92.1113 187.086 92.382C187.472 92.6527 187.917 92.8847 188.42 93.078C188.922 93.2327 189.425 93.3873 189.928 93.542L192.944 94.47C194.065 94.818 195.109 95.1853 196.076 95.572C197.081 95.92 197.951 96.4033 198.686 97.022C199.42 97.602 200 98.3367 200.426 99.226C200.89 100.115 201.122 101.237 201.122 102.59C201.122 103.905 200.812 105.123 200.194 106.244C199.614 107.327 198.821 108.274 197.816 109.086C196.81 109.859 195.612 110.478 194.22 110.942C192.866 111.367 191.436 111.58 189.928 111.58Z" fill="white"/>
<path d="M118.436 131.404C117.315 129.471 116.019 128.175 114.55 127.518C113.119 126.822 111.399 126.474 109.388 126.474C108.112 126.474 106.681 126.687 105.096 127.112C103.549 127.537 102.08 128.369 100.688 129.606C99.296 130.805 98.136 132.487 97.208 134.652C96.28 136.779 95.816 139.582 95.816 143.062C95.816 145.382 96.048 147.567 96.512 149.616C96.976 151.665 97.7493 153.444 98.832 154.952C99.9533 156.46 101.423 157.659 103.24 158.548C105.096 159.437 107.397 159.882 110.142 159.882C112.075 159.882 113.854 159.631 115.478 159.128C117.102 158.587 118.668 157.91 120.176 157.098L122.206 161.97C121.239 162.357 120.273 162.724 119.306 163.072C118.339 163.381 117.334 163.652 116.29 163.884C115.246 164.116 114.125 164.29 112.926 164.406C111.766 164.522 110.49 164.58 109.098 164.58C106.43 164.58 103.917 164.174 101.558 163.362C99.238 162.511 97.208 161.216 95.468 159.476C93.728 157.736 92.336 155.551 91.292 152.922C90.2867 150.293 89.784 147.18 89.784 143.584C89.784 140.336 90.2093 137.378 91.06 134.71C91.9493 132.003 93.2253 129.703 94.888 127.808C96.5893 125.875 98.6967 124.386 101.21 123.342C103.723 122.298 106.623 121.776 109.91 121.776C112.81 121.776 115.497 122.279 117.972 123.284C120.447 124.251 122.457 126.01 124.004 128.562L118.436 131.404ZM139.919 151.182C138.643 151.182 137.444 151.24 136.323 151.356C135.085 151.549 134.061 151.994 133.249 152.69C132.475 153.347 132.089 154.372 132.089 155.764C132.089 157.233 132.572 158.335 133.539 159.07C134.544 159.766 135.723 160.114 137.077 160.114C138.778 160.114 140.267 159.65 141.543 158.722C142.819 157.794 143.785 156.615 144.443 155.184C144.829 154.256 145.023 153.212 145.023 152.052V151.182H139.919ZM145.777 164C145.699 163.381 145.603 162.55 145.487 161.506C145.409 160.462 145.371 159.515 145.371 158.664C144.365 160.52 143.051 161.97 141.427 163.014C139.803 164.058 137.869 164.58 135.627 164.58C134.351 164.58 133.171 164.387 132.089 164C131.006 163.613 130.059 163.053 129.247 162.318C128.473 161.583 127.855 160.694 127.391 159.65C126.965 158.567 126.753 157.369 126.753 156.054C126.753 153.773 127.371 151.975 128.609 150.66C129.846 149.345 131.547 148.456 133.713 147.992C134.602 147.799 135.627 147.663 136.787 147.586C137.947 147.509 139.145 147.47 140.383 147.47H145.023V144.744C145.023 142.772 144.636 141.283 143.863 140.278C143.089 139.234 141.659 138.712 139.571 138.712C138.024 138.712 136.574 138.944 135.221 139.408C133.906 139.833 132.437 140.452 130.813 141.264L129.247 136.972C131.18 136.121 132.978 135.483 134.641 135.058C136.303 134.633 138.024 134.42 139.803 134.42C141.388 134.42 142.741 134.575 143.863 134.884C144.984 135.193 145.931 135.619 146.705 136.16C147.517 136.663 148.155 137.281 148.619 138.016C149.083 138.751 149.45 139.543 149.721 140.394C149.914 140.974 150.03 141.593 150.069 142.25C150.146 142.907 150.185 143.623 150.185 144.396V152.516C150.185 153.56 150.185 154.565 150.185 155.532C150.223 156.46 150.281 157.388 150.359 158.316C150.436 159.244 150.552 160.172 150.707 161.1C150.9 162.028 151.132 162.995 151.403 164H145.777ZM174.865 140.336C174.015 140.181 173.164 140.143 172.313 140.22C171.463 140.297 170.651 140.452 169.877 140.684C169.143 140.916 168.447 141.245 167.789 141.67C167.171 142.095 166.668 142.579 166.281 143.12C165.469 144.28 165.063 145.807 165.063 147.702V164H159.669V135H165.063V140.336H165.179C166.069 138.403 167.383 136.895 169.123 135.812C170.863 134.729 173.183 134.265 176.083 134.42L174.865 140.336ZM195.756 134.42C197.96 134.42 199.855 134.923 201.44 135.928C203.064 136.933 204.166 138.654 204.746 141.09C205.288 140.162 205.848 139.292 206.428 138.48C207.047 137.668 207.743 136.972 208.516 136.392C209.29 135.773 210.16 135.29 211.126 134.942C212.132 134.594 213.272 134.42 214.548 134.42C215.902 134.42 217.139 134.613 218.26 135C219.42 135.348 220.406 135.947 221.218 136.798C222.069 137.61 222.726 138.693 223.19 140.046C223.693 141.361 223.944 143.004 223.944 144.976V164H218.55V144.802C218.55 143.681 218.415 142.753 218.144 142.018C217.874 141.245 217.506 140.645 217.042 140.22C216.617 139.795 216.114 139.505 215.534 139.35C214.954 139.157 214.355 139.06 213.736 139.06C211.88 139.06 210.314 139.582 209.038 140.626C207.762 141.67 206.776 143.004 206.08 144.628C205.732 145.517 205.481 146.445 205.326 147.412C205.21 148.379 205.152 149.345 205.152 150.312V164H199.758V144.802C199.758 143.681 199.623 142.753 199.352 142.018C199.082 141.245 198.714 140.645 198.25 140.22C197.825 139.795 197.322 139.505 196.742 139.35C196.162 139.157 195.563 139.06 194.944 139.06C193.088 139.06 191.522 139.582 190.246 140.626C188.97 141.67 187.984 143.004 187.288 144.628C186.94 145.517 186.689 146.445 186.534 147.412C186.418 148.379 186.36 149.345 186.36 150.312V164H180.966V135H186.36V140.336H186.476C188.41 136.392 191.503 134.42 195.756 134.42ZM232.082 125.836C232.082 124.715 232.468 123.767 233.242 122.994C234.015 122.182 234.962 121.776 236.084 121.776C237.205 121.776 238.152 122.163 238.926 122.936C239.738 123.709 240.144 124.657 240.144 125.778C240.144 126.899 239.757 127.866 238.984 128.678C238.21 129.451 237.263 129.838 236.142 129.838C235.02 129.838 234.054 129.451 233.242 128.678C232.468 127.866 232.082 126.899 232.082 125.778V125.836ZM233.416 135H238.81V164H233.416V135ZM253.645 156.054C253.645 156.518 253.645 157.001 253.645 157.504C253.684 158.007 253.781 158.471 253.935 158.896C254.129 159.283 254.399 159.611 254.747 159.882C255.134 160.114 255.675 160.23 256.371 160.23C256.835 160.23 257.222 160.191 257.531 160.114C257.879 159.998 258.227 159.843 258.575 159.65L260.431 163.42C259.658 163.845 258.904 164.135 258.169 164.29C257.473 164.483 256.661 164.58 255.733 164.58C254.651 164.58 253.645 164.445 252.717 164.174C251.828 163.903 251.055 163.439 250.397 162.782C249.74 162.086 249.218 161.177 248.831 160.056C248.445 158.935 248.251 157.523 248.251 155.822V122.356H253.645V156.054ZM270.298 156.054C270.298 156.518 270.298 157.001 270.298 157.504C270.336 158.007 270.433 158.471 270.588 158.896C270.781 159.283 271.052 159.611 271.4 159.882C271.786 160.114 272.328 160.23 273.024 160.23C273.488 160.23 273.874 160.191 274.184 160.114C274.532 159.998 274.88 159.843 275.228 159.65L277.084 163.42C276.31 163.845 275.556 164.135 274.822 164.29C274.126 164.483 273.314 164.58 272.386 164.58C271.303 164.58 270.298 164.445 269.37 164.174C268.48 163.903 267.707 163.439 267.05 162.782C266.392 162.086 265.87 161.177 265.484 160.056C265.097 158.935 264.904 157.523 264.904 155.822V122.356H270.298V156.054ZM293.678 138.596C291.203 138.596 289.27 139.543 287.878 141.438C286.525 143.294 285.848 145.923 285.848 149.326C285.848 150.95 286.022 152.439 286.37 153.792C286.718 155.145 287.221 156.325 287.878 157.33C288.574 158.297 289.405 159.051 290.372 159.592C291.339 160.133 292.441 160.404 293.678 160.404C294.915 160.404 296.017 160.133 296.984 159.592C297.989 159.051 298.821 158.297 299.478 157.33C300.135 156.325 300.638 155.145 300.986 153.792C301.334 152.439 301.508 150.95 301.508 149.326C301.508 145.923 300.831 143.294 299.478 141.438C298.125 139.543 296.191 138.596 293.678 138.596ZM293.388 164.58C291.455 164.58 289.676 164.251 288.052 163.594C286.467 162.898 285.094 161.912 283.934 160.636C282.774 159.321 281.865 157.736 281.208 155.88C280.589 154.024 280.28 151.917 280.28 149.558C280.28 147.122 280.609 144.976 281.266 143.12C281.923 141.225 282.851 139.64 284.05 138.364C285.249 137.088 286.679 136.121 288.342 135.464C290.043 134.768 291.899 134.42 293.91 134.42C295.882 134.42 297.68 134.768 299.304 135.464C300.928 136.121 302.301 137.088 303.422 138.364C304.582 139.601 305.471 141.129 306.09 142.946C306.709 144.763 307.018 146.832 307.018 149.152C307.018 151.395 306.709 153.463 306.09 155.358C305.471 157.253 304.582 158.896 303.422 160.288C302.262 161.641 300.831 162.705 299.13 163.478C297.467 164.213 295.553 164.58 293.388 164.58ZM334.171 144.802C334.171 143.681 334.035 142.753 333.765 142.018C333.494 141.245 333.127 140.645 332.663 140.22C332.199 139.795 331.677 139.505 331.097 139.35C330.517 139.157 329.917 139.06 329.299 139.06C327.443 139.06 325.857 139.582 324.543 140.626C323.228 141.67 322.223 143.004 321.527 144.628C321.179 145.517 320.927 146.445 320.773 147.412C320.657 148.379 320.599 149.345 320.599 150.312V164H315.205V135H320.599V140.336H320.715C321.681 138.364 322.957 136.895 324.543 135.928C326.167 134.923 328.023 134.42 330.111 134.42C331.464 134.42 332.701 134.613 333.823 135C334.983 135.348 335.988 135.947 336.839 136.798C337.689 137.61 338.347 138.693 338.811 140.046C339.313 141.361 339.565 143.004 339.565 144.976V164H334.171V144.802Z" fill="#E50050"/>
<defs>
<linearGradient id="paint0_linear_60_181" x1="189.5" y1="491" x2="393" y2="4.73441e-05" gradientUnits="userSpaceOnUse">
<stop stop-color="#DC0D15"/>
<stop offset="0.274038" stop-color="#C5174E"/>
<stop offset="0.567308" stop-color="#991B6B"/>
<stop offset="1" stop-color="#1F1B36"/>
</linearGradient>
<linearGradient id="paint1_linear_60_181" x1="516" y1="115.959" x2="699.169" y2="115.959" gradientUnits="userSpaceOnUse">
<stop stop-color="#7C2270"/>
<stop offset="0.2472" stop-color="#AA147E"/>
<stop offset="0.8146" stop-color="#E41D25"/>
<stop offset="1" stop-color="#E41D25"/>
</linearGradient>
</defs>
</svg>
