<svg width="50" height="40" viewBox="0 0 50 40" fill="none" xmlns="http://www.w3.org/2000/svg">
<path fill-rule="evenodd" clip-rule="evenodd" d="M14.2608 3.07812C14.2709 2.94195 14.3322 2.81466 14.4324 2.72189C14.5326 2.62912 14.6642 2.57775 14.8008 2.57812H25.3808V11.3581H37.2408V3.07812C37.2408 2.54769 37.0301 2.03898 36.655 1.66391C36.2799 1.28884 35.7712 1.07812 35.2408 1.07812H14.8008C14.2703 1.07812 13.7616 1.28884 13.3866 1.66391C13.0115 2.03898 12.8008 2.54769 12.8008 3.07812V11.3581H14.3008L14.2608 3.07812ZM22.5603 29.2581V29.0781H23.5203V29.6181V30.1981C23.5426 30.3842 23.5257 30.5729 23.4706 30.7521C23.4155 30.9312 23.3234 31.0968 23.2003 31.2381L21.3403 32.5781C21.2364 32.6377 21.1501 32.7236 21.09 32.8272C21.03 32.9308 20.9984 33.0484 20.9984 33.1681C20.9984 33.2879 21.03 33.4055 21.09 33.5091C21.1501 33.6127 21.2364 33.6986 21.3403 33.7581L23.0003 34.9581C23.174 35.1246 23.3163 35.3211 23.4203 35.5381C23.5203 35.6781 23.4603 35.8181 23.2803 35.6781L21.0803 34.0781C20.1403 33.3781 19.5403 32.3381 20.7203 31.4981L21.8803 30.6381C22.0907 30.5074 22.2639 30.3246 22.383 30.1074C22.5021 29.8901 22.5632 29.6458 22.5603 29.3981V29.2581ZM19.3595 32.8987C19.2729 31.9025 18.8162 30.9749 18.0795 30.2987C17.8595 30.0987 17.6595 29.9987 17.8195 30.2987C18.2518 31.0848 18.4916 31.9621 18.5195 32.8587C18.6062 33.8549 19.0629 34.7825 19.7995 35.4587C20.0195 35.6787 20.2195 35.7787 20.0595 35.4587C19.6351 34.6623 19.3959 33.7804 19.3595 32.8787V32.8987ZM17.3404 32.1206C17.1309 32.0043 16.8854 31.9706 16.6522 32.0261C16.4191 32.0816 16.2151 32.2223 16.0804 32.4206C16.0106 32.654 16.0342 32.9054 16.1461 33.1218C16.258 33.3382 16.4496 33.5027 16.6804 33.5806C16.7788 33.6537 16.8922 33.7039 17.0125 33.7274C17.1327 33.7509 17.2567 33.7472 17.3754 33.7165C17.494 33.6858 17.6042 33.6289 17.698 33.5499C17.7917 33.471 17.8666 33.3721 17.917 33.2604C17.9675 33.1488 17.9923 33.0272 17.9896 32.9047C17.987 32.7822 17.9569 32.6619 17.9015 32.5525C17.8462 32.4432 17.7671 32.3476 17.67 32.2729C17.5729 32.1981 17.4603 32.1461 17.3404 32.1206ZM14.7998 37.4631H25.3798V28.7031H37.1998V36.9231C37.1998 37.1858 37.148 37.4458 37.0475 37.6885C36.947 37.9311 36.7997 38.1516 36.614 38.3373C36.4283 38.5231 36.2078 38.6704 35.9651 38.7709C35.7225 38.8714 35.4624 38.9231 35.1998 38.9231H14.7598C14.2293 38.9231 13.7206 38.7124 13.3456 38.3373C12.9705 37.9623 12.7598 37.4536 12.7598 36.9231V28.7031H14.2598V36.9231C14.2598 37.0663 14.3167 37.2037 14.4179 37.305C14.5192 37.4062 14.6565 37.4631 14.7998 37.4631Z" fill="#1972D2"/>
<path d="M3.63262 21.165C3.66595 21.1883 3.73595 21.2217 3.84262 21.265C3.95262 21.305 4.08095 21.325 4.22762 21.325C4.34428 21.325 4.43928 21.305 4.51262 21.265C4.58928 21.225 4.64595 21.165 4.68262 21.085C4.72262 21.0017 4.74928 20.895 4.76262 20.765C4.77595 20.6317 4.78262 20.4717 4.78262 20.285V18.45H5.60262V20.255C5.60262 20.5217 5.58762 20.765 5.55762 20.985C5.52762 21.205 5.46595 21.3967 5.37262 21.56C5.28262 21.72 5.14595 21.8433 4.96262 21.93C4.77928 22.0133 4.53428 22.055 4.22762 22.055C4.07095 22.055 3.92928 22.0367 3.80262 22C3.67595 21.9633 3.55928 21.9083 3.45262 21.835L3.63262 21.165ZM7.38938 22.05C7.16604 22.05 6.96771 22.015 6.79438 21.945C6.62104 21.8717 6.47271 21.7733 6.34938 21.65C6.22938 21.5267 6.13771 21.385 6.07438 21.225C6.01104 21.0617 5.97938 20.8917 5.97938 20.715C5.97938 20.4617 6.03438 20.2317 6.14438 20.025C6.25771 19.815 6.41938 19.6467 6.62938 19.52C6.83938 19.39 7.09271 19.325 7.38938 19.325C7.68604 19.325 7.93771 19.3883 8.14438 19.515C8.35438 19.6417 8.51438 19.8083 8.62438 20.015C8.73438 20.2183 8.78938 20.44 8.78938 20.68C8.78938 20.7267 8.78604 20.7733 8.77938 20.82C8.77604 20.8633 8.77271 20.9017 8.76938 20.935H6.82938C6.83938 21.0517 6.87104 21.15 6.92438 21.23C6.98104 21.31 7.05271 21.3717 7.13938 21.415C7.22604 21.455 7.31771 21.475 7.41438 21.475C7.53438 21.475 7.64604 21.4467 7.74938 21.39C7.85604 21.3333 7.92938 21.2567 7.96938 21.16L8.64938 21.35C8.58271 21.4867 8.48771 21.6083 8.36438 21.715C8.24438 21.8183 8.10104 21.9 7.93438 21.96C7.77104 22.02 7.58938 22.05 7.38938 22.05ZM6.80938 20.445H7.94938C7.93604 20.335 7.90438 20.24 7.85438 20.16C7.80438 20.0767 7.73771 20.0133 7.65438 19.97C7.57104 19.9233 7.47938 19.9 7.37938 19.9C7.27604 19.9 7.18271 19.9233 7.09938 19.97C7.01938 20.0133 6.95438 20.0767 6.90438 20.16C6.85438 20.24 6.82271 20.335 6.80938 20.445ZM9.12695 21.055V19.375H9.92695V20.88C9.92695 21.04 9.95862 21.1633 10.022 21.25C10.0853 21.3333 10.1753 21.375 10.292 21.375C10.3653 21.375 10.4353 21.3633 10.502 21.34C10.5686 21.3133 10.6336 21.2717 10.697 21.215C10.7603 21.1583 10.817 21.085 10.867 20.995V19.375H11.667V21.11C11.667 21.19 11.6786 21.2467 11.702 21.28C11.7286 21.31 11.7736 21.3283 11.837 21.335V22C11.7636 22.0133 11.6986 22.0233 11.642 22.03C11.5886 22.0367 11.5403 22.04 11.497 22.04C11.357 22.04 11.2453 22.0117 11.162 21.955C11.0786 21.895 11.027 21.8117 11.007 21.705L10.992 21.545C10.872 21.7183 10.722 21.8467 10.542 21.93C10.3653 22.01 10.167 22.05 9.94695 22.05C9.68029 22.05 9.47695 21.965 9.33695 21.795C9.19695 21.625 9.12695 21.3783 9.12695 21.055ZM14.8167 22H14.0167V20.525C14.0167 20.3517 13.9834 20.2267 13.9167 20.15C13.8534 20.07 13.7684 20.03 13.6617 20.03C13.5884 20.03 13.5134 20.05 13.4367 20.09C13.3601 20.13 13.2901 20.185 13.2267 20.255C13.1667 20.325 13.1201 20.405 13.0867 20.495V22H12.2867V19.375H13.0067V19.815C13.0734 19.7117 13.1567 19.6233 13.2567 19.55C13.3567 19.4767 13.4717 19.4217 13.6017 19.385C13.7317 19.345 13.8734 19.325 14.0267 19.325C14.1967 19.325 14.3334 19.3567 14.4367 19.42C14.5434 19.48 14.6234 19.56 14.6767 19.66C14.7334 19.76 14.7701 19.8683 14.7867 19.985C14.8067 20.0983 14.8167 20.21 14.8167 20.32V22ZM16.6032 22.05C16.3799 22.05 16.1816 22.015 16.0082 21.945C15.8349 21.8717 15.6866 21.7733 15.5632 21.65C15.4432 21.5267 15.3516 21.385 15.2882 21.225C15.2249 21.0617 15.1932 20.8917 15.1932 20.715C15.1932 20.4617 15.2482 20.2317 15.3582 20.025C15.4716 19.815 15.6332 19.6467 15.8432 19.52C16.0532 19.39 16.3066 19.325 16.6032 19.325C16.8999 19.325 17.1516 19.3883 17.3582 19.515C17.5682 19.6417 17.7282 19.8083 17.8382 20.015C17.9482 20.2183 18.0032 20.44 18.0032 20.68C18.0032 20.7267 17.9999 20.7733 17.9932 20.82C17.9899 20.8633 17.9866 20.9017 17.9832 20.935H16.0432C16.0532 21.0517 16.0849 21.15 16.1382 21.23C16.1949 21.31 16.2666 21.3717 16.3532 21.415C16.4399 21.455 16.5316 21.475 16.6282 21.475C16.7482 21.475 16.8599 21.4467 16.9632 21.39C17.0699 21.3333 17.1432 21.2567 17.1832 21.16L17.8632 21.35C17.7966 21.4867 17.7016 21.6083 17.5782 21.715C17.4582 21.8183 17.3149 21.9 17.1482 21.96C16.9849 22.02 16.8032 22.05 16.6032 22.05ZM16.0232 20.445H17.1632C17.1499 20.335 17.1182 20.24 17.0682 20.16C17.0182 20.0767 16.9516 20.0133 16.8682 19.97C16.7849 19.9233 16.6932 19.9 16.5932 19.9C16.4899 19.9 16.3966 19.9233 16.3132 19.97C16.2332 20.0133 16.1682 20.0767 16.1182 20.16C16.0682 20.24 16.0366 20.335 16.0232 20.445ZM19.3708 22.05C19.1475 22.05 18.9292 22.0133 18.7158 21.94C18.5025 21.8667 18.3225 21.7583 18.1758 21.615L18.4508 21.11C18.6108 21.2267 18.7658 21.315 18.9158 21.375C19.0692 21.435 19.2125 21.465 19.3458 21.465C19.4492 21.465 19.5292 21.4483 19.5858 21.415C19.6425 21.3817 19.6708 21.33 19.6708 21.26C19.6708 21.21 19.6542 21.1717 19.6208 21.145C19.5875 21.115 19.5358 21.0883 19.4658 21.065C19.3992 21.0417 19.3158 21.0167 19.2158 20.99C19.0158 20.9233 18.8492 20.8583 18.7158 20.795C18.5825 20.7317 18.4825 20.655 18.4158 20.565C18.3492 20.4717 18.3158 20.3517 18.3158 20.205C18.3158 20.0283 18.3592 19.875 18.4458 19.745C18.5358 19.6117 18.6625 19.5083 18.8258 19.435C18.9892 19.3617 19.1842 19.325 19.4108 19.325C19.5908 19.325 19.7658 19.3533 19.9358 19.41C20.1092 19.4667 20.2708 19.5617 20.4208 19.695L20.1108 20.195C19.9608 20.0917 19.8275 20.0167 19.7108 19.97C19.5942 19.9233 19.4808 19.9 19.3708 19.9C19.3142 19.9 19.2625 19.9067 19.2158 19.92C19.1692 19.9333 19.1308 19.9567 19.1008 19.99C19.0742 20.02 19.0608 20.06 19.0608 20.11C19.0608 20.16 19.0742 20.2 19.1008 20.23C19.1308 20.26 19.1758 20.2867 19.2358 20.31C19.2992 20.33 19.3775 20.355 19.4708 20.385C19.6875 20.4483 19.8675 20.5133 20.0108 20.58C20.1542 20.6433 20.2608 20.7233 20.3308 20.82C20.4042 20.9133 20.4408 21.0383 20.4408 21.195C20.4408 21.4617 20.3442 21.6717 20.1508 21.825C19.9608 21.975 19.7008 22.05 19.3708 22.05ZM23.0774 18.455H23.8324L24.2024 19.59L24.5724 18.455H25.3324L24.7274 20.105L25.0874 21.05L25.9774 18.45H26.8724L25.4874 22H24.7774L24.2024 20.61L23.6324 22H22.9174L21.5374 18.45H22.4274L23.3224 21.05L23.6724 20.105L23.0774 18.455ZM28.0144 22.05C27.791 22.05 27.5927 22.015 27.4194 21.945C27.246 21.8717 27.0977 21.7733 26.9744 21.65C26.8544 21.5267 26.7627 21.385 26.6994 21.225C26.636 21.0617 26.6044 20.8917 26.6044 20.715C26.6044 20.4617 26.6594 20.2317 26.7694 20.025C26.8827 19.815 27.0444 19.6467 27.2544 19.52C27.4644 19.39 27.7177 19.325 28.0144 19.325C28.311 19.325 28.5627 19.3883 28.7694 19.515C28.9794 19.6417 29.1394 19.8083 29.2494 20.015C29.3594 20.2183 29.4144 20.44 29.4144 20.68C29.4144 20.7267 29.411 20.7733 29.4044 20.82C29.401 20.8633 29.3977 20.9017 29.3944 20.935H27.4544C27.4644 21.0517 27.496 21.15 27.5494 21.23C27.606 21.31 27.6777 21.3717 27.7644 21.415C27.851 21.455 27.9427 21.475 28.0394 21.475C28.1594 21.475 28.271 21.4467 28.3744 21.39C28.481 21.3333 28.5544 21.2567 28.5944 21.16L29.2744 21.35C29.2077 21.4867 29.1127 21.6083 28.9894 21.715C28.8694 21.8183 28.726 21.9 28.5594 21.96C28.396 22.02 28.2144 22.05 28.0144 22.05ZM27.4344 20.445H28.5744C28.561 20.335 28.5294 20.24 28.4794 20.16C28.4294 20.0767 28.3627 20.0133 28.2794 19.97C28.196 19.9233 28.1044 19.9 28.0044 19.9C27.901 19.9 27.8077 19.9233 27.7244 19.97C27.6444 20.0133 27.5794 20.0767 27.5294 20.16C27.4794 20.24 27.4477 20.335 27.4344 20.445ZM31.032 22.05C30.8086 22.05 30.6103 22.015 30.437 21.945C30.2636 21.8717 30.1153 21.7733 29.992 21.65C29.872 21.5267 29.7803 21.385 29.717 21.225C29.6536 21.0617 29.622 20.8917 29.622 20.715C29.622 20.4617 29.677 20.2317 29.787 20.025C29.9003 19.815 30.062 19.6467 30.272 19.52C30.482 19.39 30.7353 19.325 31.032 19.325C31.3286 19.325 31.5803 19.3883 31.787 19.515C31.997 19.6417 32.157 19.8083 32.267 20.015C32.377 20.2183 32.432 20.44 32.432 20.68C32.432 20.7267 32.4286 20.7733 32.422 20.82C32.4186 20.8633 32.4153 20.9017 32.412 20.935H30.472C30.482 21.0517 30.5136 21.15 30.567 21.23C30.6236 21.31 30.6953 21.3717 30.782 21.415C30.8686 21.455 30.9603 21.475 31.057 21.475C31.177 21.475 31.2886 21.4467 31.392 21.39C31.4986 21.3333 31.572 21.2567 31.612 21.16L32.292 21.35C32.2253 21.4867 32.1303 21.6083 32.007 21.715C31.887 21.8183 31.7436 21.9 31.577 21.96C31.4136 22.02 31.232 22.05 31.032 22.05ZM30.452 20.445H31.592C31.5786 20.335 31.547 20.24 31.497 20.16C31.447 20.0767 31.3803 20.0133 31.297 19.97C31.2136 19.9233 31.122 19.9 31.022 19.9C30.9186 19.9 30.8253 19.9233 30.742 19.97C30.662 20.0133 30.597 20.0767 30.547 20.16C30.497 20.24 30.4653 20.335 30.452 20.445ZM34.5595 22L33.8745 20.95L33.5945 21.235V22H32.7945V18.35H33.5945V20.46L34.4845 19.375H35.3295L34.3845 20.505L35.4095 22H34.5595ZM35.4067 20.985V20.265H36.9467V20.985H35.4067ZM38.7468 22.05C38.5235 22.05 38.3251 22.015 38.1518 21.945C37.9785 21.8717 37.8301 21.7733 37.7068 21.65C37.5868 21.5267 37.4951 21.385 37.4318 21.225C37.3685 21.0617 37.3368 20.8917 37.3368 20.715C37.3368 20.4617 37.3918 20.2317 37.5018 20.025C37.6151 19.815 37.7768 19.6467 37.9868 19.52C38.1968 19.39 38.4501 19.325 38.7468 19.325C39.0435 19.325 39.2951 19.3883 39.5018 19.515C39.7118 19.6417 39.8718 19.8083 39.9818 20.015C40.0918 20.2183 40.1468 20.44 40.1468 20.68C40.1468 20.7267 40.1435 20.7733 40.1368 20.82C40.1335 20.8633 40.1301 20.9017 40.1268 20.935H38.1868C38.1968 21.0517 38.2285 21.15 38.2818 21.23C38.3385 21.31 38.4101 21.3717 38.4968 21.415C38.5835 21.455 38.6751 21.475 38.7718 21.475C38.8918 21.475 39.0035 21.4467 39.1068 21.39C39.2135 21.3333 39.2868 21.2567 39.3268 21.16L40.0068 21.35C39.9401 21.4867 39.8451 21.6083 39.7218 21.715C39.6018 21.8183 39.4585 21.9 39.2918 21.96C39.1285 22.02 38.9468 22.05 38.7468 22.05ZM38.1668 20.445H39.3068C39.2935 20.335 39.2618 20.24 39.2118 20.16C39.1618 20.0767 39.0951 20.0133 39.0118 19.97C38.9285 19.9233 38.8368 19.9 38.7368 19.9C38.6335 19.9 38.5401 19.9233 38.4568 19.97C38.3768 20.0133 38.3118 20.0767 38.2618 20.16C38.2118 20.24 38.1801 20.335 38.1668 20.445ZM43.0394 22H42.2394V20.525C42.2394 20.3517 42.206 20.2267 42.1394 20.15C42.076 20.07 41.991 20.03 41.8844 20.03C41.811 20.03 41.736 20.05 41.6594 20.09C41.5827 20.13 41.5127 20.185 41.4494 20.255C41.3894 20.325 41.3427 20.405 41.3094 20.495V22H40.5094V19.375H41.2294V19.815C41.296 19.7117 41.3794 19.6233 41.4794 19.55C41.5794 19.4767 41.6944 19.4217 41.8244 19.385C41.9544 19.345 42.096 19.325 42.2494 19.325C42.4194 19.325 42.556 19.3567 42.6594 19.42C42.766 19.48 42.846 19.56 42.8994 19.66C42.956 19.76 42.9927 19.8683 43.0094 19.985C43.0294 20.0983 43.0394 20.21 43.0394 20.32V22ZM43.4209 20.685C43.4209 20.4283 43.4709 20.1983 43.5709 19.995C43.6709 19.7883 43.8076 19.625 43.9809 19.505C44.1542 19.385 44.3542 19.325 44.5809 19.325C44.7642 19.325 44.9309 19.37 45.0809 19.46C45.2309 19.5467 45.3442 19.6617 45.4209 19.805V18.35H46.2209V21.11C46.2209 21.19 46.2342 21.2467 46.2609 21.28C46.2876 21.31 46.3309 21.3283 46.3909 21.335V22C46.2509 22.0267 46.1376 22.04 46.0509 22.04C45.9142 22.04 45.8026 22.01 45.7159 21.95C45.6326 21.89 45.5809 21.8067 45.5609 21.7L45.5459 21.565C45.4526 21.7283 45.3259 21.85 45.1659 21.93C45.0059 22.01 44.8376 22.05 44.6609 22.05C44.4809 22.05 44.3142 22.0167 44.1609 21.95C44.0109 21.88 43.8792 21.7833 43.7659 21.66C43.6559 21.5367 43.5709 21.3917 43.5109 21.225C43.4509 21.0583 43.4209 20.8783 43.4209 20.685ZM45.4259 21.01V20.46C45.3926 20.37 45.3442 20.2917 45.2809 20.225C45.2209 20.1583 45.1509 20.105 45.0709 20.065C44.9942 20.025 44.9159 20.005 44.8359 20.005C44.7492 20.005 44.6692 20.0233 44.5959 20.06C44.5259 20.0967 44.4642 20.1483 44.4109 20.215C44.3576 20.2783 44.3159 20.3517 44.2859 20.435C44.2592 20.5183 44.2459 20.6067 44.2459 20.7C44.2459 20.7967 44.2609 20.8867 44.2909 20.97C44.3242 21.05 44.3692 21.1217 44.4259 21.185C44.4826 21.245 44.5492 21.2917 44.6259 21.325C44.7026 21.3583 44.7859 21.375 44.8759 21.375C44.9326 21.375 44.9876 21.3667 45.0409 21.35C45.0942 21.33 45.1442 21.305 45.1909 21.275C45.2409 21.245 45.2859 21.2067 45.3259 21.16C45.3659 21.1133 45.3992 21.0633 45.4259 21.01Z" fill="#1972D2"/>
<rect x="0.75" y="13.75" width="48.5" height="12.5" rx="4.25" stroke="#1972D2" stroke-width="1.5"/>
</svg>
