<svg width="535" height="333" viewBox="0 0 535 333" fill="none" xmlns="http://www.w3.org/2000/svg">
<g clip-path="url(#clip0_96_1141)">
<path d="M517.906 0H303.612V333H517.906C527.132 333 534.612 325.527 534.612 316.308V16.6917C534.612 7.4729 527.132 0 517.906 0Z" fill="#00A3E2"/>
<path d="M0.00012207 316.308C0.00012207 325.527 7.47971 333 16.7068 333H311.612V0H16.7068C7.47971 0 0.00012207 7.4729 0.00012207 16.6917V316.308Z" fill="#F15D22"/>
<ellipse cx="51.1123" cy="320.5" rx="194.5" ry="220.5" transform="rotate(90 51.1123 320.5)" fill="#FCF5E1"/>
<path d="M494.609 189C494.544 189 494.478 188.999 494.413 188.997C493.679 189.014 492.949 188.882 492.271 188.61C491.685 188.368 491.164 188.001 490.746 187.537C490.322 187.055 490.007 186.492 489.822 185.886C489.605 185.206 489.485 184.501 489.465 183.791C489.457 183.088 489.577 182.389 489.822 181.728C490.046 181.126 490.387 180.571 490.829 180.093C491.256 179.636 491.78 179.269 492.364 179.018C492.975 178.757 493.637 178.625 494.306 178.633C495.105 178.604 495.897 178.795 496.588 179.181C497.178 179.531 497.676 180.008 498.045 180.574C498.41 181.139 498.667 181.765 498.801 182.419C498.938 183.043 498.994 183.68 498.97 184.317H491.258C491.244 184.736 491.298 185.154 491.417 185.556C491.533 185.936 491.731 186.287 491.997 186.588C492.274 186.898 492.621 187.143 493.011 187.307C493.472 187.494 493.968 187.586 494.468 187.576C495.094 187.601 495.711 187.432 496.231 187.094C496.714 186.736 497.038 186.215 497.137 185.635H498.813C498.663 186.624 498.13 187.522 497.323 188.149C496.531 188.7 495.582 188.996 494.609 189ZM452.858 188.995C452.126 188.995 451.395 188.865 450.701 188.603C450.099 188.354 449.562 187.979 449.127 187.506C448.693 187.029 448.367 186.47 448.17 185.865C447.952 185.207 447.845 184.519 447.852 183.828C447.846 183.135 447.953 182.445 448.17 181.784C448.367 181.177 448.694 180.614 449.127 180.133C449.562 179.659 450.099 179.282 450.701 179.029C452.085 178.493 453.631 178.493 455.014 179.029C455.613 179.284 456.146 179.66 456.578 180.133C457.012 180.614 457.337 181.176 457.535 181.784C457.752 182.445 457.859 183.135 457.852 183.828C457.861 184.519 457.753 185.206 457.535 185.864C457.337 186.469 457.011 187.029 456.578 187.506C456.145 187.978 455.613 188.353 455.014 188.603C454.321 188.865 453.59 188.995 452.858 188.995ZM464.765 188.995C464.482 188.991 464.2 188.966 463.921 188.919C463.603 188.868 463.291 188.783 462.991 188.669C462.681 188.551 462.389 188.392 462.124 188.197C461.848 187.995 461.616 187.745 461.439 187.458H461.399V188.785L459.702 188.787V175.076H461.399V180.202H461.439C461.708 179.66 462.177 179.232 462.753 179.002C463.377 178.747 464.048 178.619 464.726 178.627C465.445 178.611 466.158 178.756 466.808 179.05C467.384 179.319 467.888 179.709 468.283 180.192C468.685 180.686 468.985 181.25 469.168 181.853C469.372 182.5 469.473 183.173 469.468 183.849C469.473 184.525 469.374 185.198 469.179 185.847C469.001 186.444 468.705 187.002 468.305 187.489C467.907 187.961 467.402 188.337 466.83 188.592C466.182 188.872 465.476 189.011 464.765 188.995ZM433.304 188.787L431.612 188.785V178.857H433.205V180.316H433.247C433.788 179.55 434.597 178.998 435.526 178.759C436.455 178.519 437.441 178.609 438.306 179.012C438.57 179.148 438.804 179.332 438.993 179.556C439.181 179.78 439.321 180.039 439.403 180.317C439.736 179.792 440.206 179.361 440.766 179.068C441.34 178.773 441.981 178.622 442.63 178.627C443.104 178.623 443.578 178.676 444.038 178.789C444.427 178.886 444.792 179.059 445.109 179.298C445.414 179.535 445.653 179.843 445.804 180.192C445.982 180.608 446.069 181.057 446.055 181.507L446.054 188.755H444.362V182.243C444.362 181.953 444.336 181.664 444.283 181.38C444.236 181.132 444.134 180.897 443.984 180.692C443.829 180.485 443.619 180.322 443.377 180.22C443.058 180.094 442.714 180.034 442.37 180.047C442.009 180.027 441.649 180.078 441.309 180.196C440.97 180.314 440.659 180.499 440.395 180.736C440.152 180.98 439.964 181.268 439.842 181.584C439.719 181.901 439.664 182.238 439.682 182.575V188.769H437.989V182.256C437.992 181.96 437.962 181.665 437.9 181.375C437.845 181.128 437.739 180.894 437.589 180.687C437.439 180.486 437.237 180.328 437.003 180.227C436.702 180.11 436.379 180.055 436.054 180.065C435.614 180.052 435.178 180.151 434.79 180.351C434.46 180.524 434.169 180.757 433.933 181.038C433.725 181.289 433.563 181.571 433.454 181.874C433.366 182.104 433.316 182.348 433.304 182.593V188.787ZM471.365 188.785V178.857H473.056V188.785H471.365ZM475.588 188.785V175.076H477.281V188.785H475.588ZM479.812 188.785L479.811 178.857H481.504V188.785H479.812ZM487.045 188.785C486.667 188.79 486.289 188.76 485.916 188.695C485.64 188.655 485.38 188.547 485.16 188.38C484.955 188.208 484.805 187.982 484.731 187.73C484.627 187.367 484.581 186.991 484.592 186.615V180.299L482.839 180.298V178.857H484.592V175.881L486.288 175.882V178.857H488.341V180.299H486.288V186.449C486.282 186.605 486.298 186.76 486.337 186.91C486.365 187.019 486.432 187.115 486.526 187.179C486.642 187.251 486.776 187.294 486.914 187.306C487.13 187.326 487.346 187.335 487.563 187.334H488.341V188.785H487.045ZM452.858 187.586C453.288 187.587 453.714 187.5 454.108 187.333C454.5 187.167 454.85 186.923 455.135 186.615C455.444 186.275 455.679 185.875 455.822 185.444C456.155 184.4 456.156 183.283 455.822 182.238C455.677 181.804 455.443 181.403 455.135 181.056C454.852 180.744 454.5 180.494 454.107 180.326C453.712 180.16 453.288 180.075 452.858 180.075C452.428 180.075 452.002 180.161 451.608 180.326C451.214 180.494 450.863 180.742 450.579 181.054C450.271 181.401 450.039 181.803 449.894 182.238C449.561 183.283 449.561 184.4 449.894 185.444C450.037 185.875 450.271 186.275 450.581 186.615C450.865 186.923 451.215 187.169 451.608 187.334C452.001 187.501 452.427 187.587 452.858 187.586ZM464.396 187.563C464.461 187.564 464.527 187.563 464.591 187.561C465.101 187.577 465.606 187.465 466.055 187.234C466.439 187.025 466.763 186.728 467 186.37C467.247 185.993 467.424 185.577 467.519 185.141C467.627 184.675 467.68 184.2 467.679 183.722C467.679 183.264 467.615 182.808 467.49 182.366C467.372 181.943 467.177 181.542 466.912 181.186C466.652 180.839 466.311 180.557 465.916 180.36C465.473 180.147 464.983 180.041 464.488 180.054C463.982 180.038 463.48 180.151 463.031 180.378C462.644 180.591 462.312 180.882 462.057 181.234C461.797 181.597 461.611 182.005 461.51 182.435C461.395 182.886 461.337 183.347 461.338 183.811C461.337 184.287 461.397 184.76 461.516 185.222C461.626 185.653 461.819 186.06 462.085 186.422C462.35 186.772 462.695 187.057 463.092 187.258C463.5 187.448 463.944 187.552 464.396 187.563ZM491.258 182.883H497.177C497.15 182.505 497.06 182.134 496.909 181.784C496.764 181.452 496.554 181.151 496.291 180.895C496.026 180.642 495.715 180.44 495.374 180.299C495.004 180.148 494.607 180.074 494.206 180.08C493.799 180.073 493.395 180.148 493.021 180.299C492.679 180.44 492.371 180.646 492.114 180.905C491.861 181.165 491.66 181.467 491.518 181.796C491.371 182.143 491.283 182.509 491.258 182.883ZM494.161 177.111L492.886 177.109L494.801 174H496.971L494.161 177.111ZM471.365 177.072V175.076H473.056V177.072H471.365ZM479.811 177.072V175.076H481.504V177.072H479.811ZM508.221 187.381C508.495 186.928 508.63 186.41 508.61 185.885C508.625 185.47 508.525 185.06 508.321 184.695C508.131 184.378 507.874 184.105 507.564 183.894C507.235 183.674 506.874 183.502 506.493 183.384C506.083 183.255 505.668 183.146 505.247 183.057C504.85 182.967 504.45 182.882 504.051 182.8C503.686 182.725 503.328 182.622 502.98 182.493C502.69 182.388 502.424 182.231 502.194 182.032C502.095 181.945 502.016 181.839 501.963 181.72C501.909 181.601 501.882 181.473 501.883 181.344C501.873 181.12 501.944 180.9 502.083 180.721C502.222 180.555 502.399 180.423 502.601 180.336C502.828 180.235 503.068 180.167 503.315 180.133C503.569 180.096 503.826 180.077 504.083 180.078C504.361 180.078 504.64 180.106 504.911 180.164C505.174 180.217 505.426 180.312 505.657 180.442C505.881 180.569 506.073 180.743 506.215 180.952C506.37 181.191 506.46 181.465 506.475 181.747L508.167 181.747C508.149 181.222 508.015 180.709 507.771 180.24C507.557 179.852 507.245 179.522 506.864 179.28C506.466 179.035 506.022 178.866 505.557 178.781C505.026 178.681 504.485 178.632 503.944 178.637C503.484 178.638 503.026 178.692 502.58 178.798C502.142 178.9 501.725 179.069 501.344 179.301C500.98 179.521 500.671 179.818 500.444 180.171C500.201 180.558 500.078 181.005 500.087 181.458C500.052 182 500.23 182.535 500.584 182.957C500.929 183.323 501.355 183.609 501.83 183.794C502.356 183.992 502.902 184.141 503.458 184.238C504.044 184.344 504.583 184.468 505.083 184.602C505.524 184.712 505.945 184.89 506.329 185.128C506.491 185.233 506.621 185.377 506.709 185.545C506.796 185.713 506.835 185.9 506.825 186.088C506.837 186.36 506.753 186.628 506.586 186.848C506.427 187.046 506.218 187.201 505.979 187.299C505.722 187.405 505.45 187.476 505.172 187.509C504.895 187.546 504.616 187.566 504.336 187.568C503.998 187.569 503.661 187.536 503.33 187.471C503.021 187.413 502.724 187.306 502.451 187.154C502.195 187.007 501.979 186.804 501.823 186.559C501.656 186.282 501.568 185.968 501.566 185.648L499.869 185.648C499.88 186.192 500.016 186.726 500.269 187.213C500.497 187.627 500.825 187.981 501.226 188.245C501.645 188.515 502.11 188.707 502.601 188.813C503.138 188.929 503.687 188.986 504.236 188.985C504.761 188.984 505.285 188.935 505.8 188.84C506.304 188.755 506.788 188.583 507.228 188.331C507.631 188.093 507.971 187.768 508.221 187.381Z" fill="#323E48"/>
<path d="M359.511 170C353.587 170 349.566 166.409 349.567 160.291C349.567 154.699 354.01 150.687 359.359 150.687C365.866 150.687 369.116 155.614 368.843 161.806H355.512C355.619 164.304 357.05 165.953 359.571 165.953C360.999 165.954 362.403 165.286 362.965 163.943H368.527C367.444 168.162 363.553 169.993 359.511 170ZM437.136 169.986C433.676 169.986 430.948 168.23 430.948 164.457C430.948 158.519 437.384 158.976 441.511 158.129C442.527 157.919 443.084 157.569 443.084 156.443C443.084 155.071 441.443 154.546 440.218 154.546C438.569 154.546 437.526 155.284 437.245 156.828L431.669 156.829C431.79 154.436 432.901 152.837 434.509 151.933C436.119 151.029 438.214 150.672 440.281 150.671C444.582 150.672 448.746 151.627 448.746 156.797L448.745 164.786C448.745 166.333 448.746 168.039 449.457 169.468L443.468 169.467C443.282 168.907 443.164 168.327 443.12 167.738C441.581 169.357 439.309 169.985 437.136 169.986ZM376.328 169.798C371.937 169.798 369.765 166.308 369.764 162.256C369.765 158.204 371.912 154.792 376.274 154.792C377.731 154.792 379.826 155.367 380.874 157.036H380.931V149.65H383.275V169.467H380.931V167.53H380.874C380.108 169.106 378.285 169.799 376.328 169.798ZM391.57 169.795C387.016 169.796 384.864 166.638 384.722 162.253C384.722 157.947 387.524 154.788 391.431 154.788C396.46 154.788 398.021 159.537 397.882 163.006H387.225C387.143 165.508 388.55 167.717 391.662 167.716C393.58 167.717 394.941 166.771 395.356 164.919L397.672 164.918C397.033 168.081 394.773 169.799 391.57 169.795ZM342.049 169.471V149.236H338.283L336.187 146.416L334.088 149.236H329.612L333.527 144.002L338.84 144L342.049 148.287V144.347H347.995V169.471H342.049ZM333.209 169.467V151.208H339.155V169.467H333.209ZM399.405 169.467V144.347H417.802L417.804 149.589H405.908V154.729L416.193 154.727V159.791H405.908V169.467H399.405ZM418.983 169.45V151.189H424.762V154.406H424.83C425.707 152.087 427.731 150.854 430.291 150.854C430.761 150.852 431.229 150.9 431.688 151V156.453C430.949 156.226 430.184 156.106 429.411 156.096C426.478 156.096 424.932 158.137 424.931 160.431L424.933 169.45H418.983ZM376.655 167.698C379.795 167.697 381.01 164.985 381.01 162.295C381.004 159.465 379.695 156.86 376.505 156.86C373.308 156.86 372.244 159.601 372.244 162.406C372.244 165.093 373.626 167.697 376.655 167.698ZM439.379 166.298C442.206 166.298 443.155 164.682 443.016 160.916C442.181 161.438 440.665 161.585 439.341 161.899C438.016 162.214 436.894 162.792 436.894 164.222C436.894 165.701 438.04 166.298 439.379 166.298ZM387.219 160.924H395.385C395.275 158.665 393.598 156.88 391.278 156.879C388.842 156.879 387.372 158.73 387.219 160.924ZM355.512 158.462H362.911C362.787 156.411 361.352 154.727 359.359 154.727C357.263 154.727 355.867 156.236 355.512 158.462ZM463.058 160.638L463.057 169.467L469.004 169.467L469.003 157.751C469.003 155.114 468.513 150.68 462.461 150.68C460.294 150.68 457.844 151.841 456.778 153.71L456.7 153.71L456.7 151.208L450.928 151.208L450.928 169.467L456.866 169.467L456.867 159.505C456.867 157.504 457.847 155.607 460.063 155.607C463.338 155.607 463.058 158.136 463.058 160.638ZM488.954 162.292L483.186 162.292C482.916 164.222 481.85 165.419 479.794 165.419C477.279 165.419 476.263 162.996 476.264 160.638C476.263 158.104 476.789 155.257 480.11 155.257C481.609 155.257 482.976 156.329 483.016 157.893L488.801 157.894C488.386 153.07 484.358 150.679 479.847 150.679C474.005 150.68 470.329 154.835 470.328 160.638C470.328 166.23 474.395 169.993 479.847 169.993C484.674 169.992 488.45 167.181 488.954 162.292ZM508.286 163.943L502.717 163.943C502.159 165.286 500.76 165.954 499.332 165.954C496.81 165.954 495.375 164.303 495.269 161.806L508.596 161.806C508.876 155.614 505.626 150.686 499.116 150.686C493.77 150.686 489.323 154.699 489.323 160.291C489.323 166.412 493.348 169.999 499.268 170C503.31 169.992 507.193 168.163 508.286 163.943ZM495.269 158.461C495.624 156.235 497.013 154.728 499.115 154.727C501.111 154.727 502.546 156.41 502.649 158.461L495.269 158.461Z" fill="white"/>
<path d="M396.736 115.056L442.544 115.056C447.612 115.042 452.467 113.022 456.051 109.439C459.634 105.855 461.654 101 461.667 95.9315L461.668 50.1366C461.657 45.0673 459.639 40.2079 456.056 36.6217C452.472 33.0355 447.614 31.0142 442.544 31L396.736 31.0009C391.667 31.0162 386.81 33.0374 383.226 36.6233C379.643 40.2092 377.625 45.068 377.612 50.1374L377.613 95.945C377.63 101.011 379.651 105.864 383.233 109.444C386.817 113.023 391.67 115.042 396.736 115.056ZM412.492 46.8029C414.492 42.4961 418.854 40.2813 422.247 41.849C425.641 43.4153 426.768 48.1897 424.775 52.5172C422.781 56.8447 418.413 59.0387 415.019 57.4724C411.625 55.9048 410.505 51.124 412.492 46.8029ZM396.063 73.3478C403.177 65.7539 409.585 63.7992 418.14 62.5191C426.695 61.239 429.842 61.7322 439.997 56.6122C442.784 55.2113 441.998 56.8849 440.217 58.7784C433.102 66.3736 426.688 68.3267 418.14 69.6071C409.592 70.8875 406.438 70.394 396.282 75.5152C393.496 76.9149 394.289 75.2417 396.063 73.3478ZM394.729 102.894C399.623 96.1458 403.584 90.6313 408.311 84.2834C414.266 76.2287 423.094 71.1008 430.315 81.1434C437.037 90.4772 444.477 100.713 446.611 103.647C446.898 104.047 446.718 104.494 446.104 104.54C442.704 104.78 434.896 105.321 432.322 101.793C428.595 96.6853 424.401 90.7915 420.987 86.0906C418.047 82.036 413.786 81.6356 410.932 85.5637C407.751 89.9516 402.677 96.8984 400.643 99.6461C399.41 101.409 397.837 102.907 396.016 104.054C394.449 105.007 393.582 104.453 394.709 102.894L394.729 102.894Z" fill="white"/>
<path d="M446.765 104.089C446.728 104.321 446.515 104.508 446.131 104.537C442.731 104.777 434.922 105.317 432.348 101.789C428.607 96.6815 424.414 90.7877 421.013 86.0874C418.073 82.0329 413.811 81.6327 410.957 85.5609C407.776 89.9487 402.702 96.8614 400.669 99.6418C399.435 101.405 397.864 102.905 396.042 104.051C394.449 105.004 393.582 104.45 394.735 102.891C399.669 96.1628 403.671 90.6274 408.338 84.2792C414.28 76.2239 423.106 71.0983 430.341 81.1402C437.062 90.4685 444.504 100.709 446.638 103.643C446.745 103.793 446.787 103.949 446.765 104.089ZM441.823 56.372C441.824 56.8259 441.16 57.7708 440.218 58.7762C433.103 66.3713 426.662 68.3219 418.14 69.6023C409.619 70.8827 406.438 70.3918 396.283 75.513C393.496 76.9127 394.289 75.2371 396.063 73.3432C403.177 65.7494 409.619 63.7974 418.14 62.517C426.662 61.2366 429.843 61.7293 439.998 56.6092C441.305 55.9525 441.823 55.9715 441.823 56.372ZM425.761 48.0687C425.779 49.5099 425.462 51.0416 424.774 52.5154C422.774 56.803 418.412 59.0361 415.019 57.4685C411.631 55.8821 410.492 51.0892 412.493 46.8015C414.493 42.5138 418.859 40.2472 422.246 41.8484C424.469 42.8984 425.726 45.3174 425.761 48.0687Z" fill="#00A3E2"/>
<path d="M16.8876 304.453C16.9491 305.8 17.3267 307.119 17.9932 308.314C18.6851 309.5 19.7218 310.477 20.9849 311.129C21.8698 311.606 22.8292 311.949 23.8272 312.143C25.0856 312.371 26.3688 312.455 27.65 312.393C28.4254 312.368 29.2006 312.345 29.8984 312.279C30.3154 312.263 30.7307 312.222 31.1438 312.159L30.8466 314.838C30.4692 314.898 30.0898 314.936 29.7082 314.953C29.0732 314.973 28.3295 315.033 27.4827 315.061C25.4572 315.168 23.4253 314.946 21.4792 314.408C19.9276 313.977 18.4906 313.249 17.2614 312.266C16.2388 311.404 15.3919 310.377 14.7643 309.232C14.0425 307.934 13.6532 306.498 13.6245 305.034C13.5574 303.617 13.7676 302.202 14.2479 300.855C14.7215 299.59 15.4212 298.409 16.3169 297.365C17.1342 296.429 18.1706 295.682 19.3443 295.182C20.5542 294.656 21.8648 294.366 23.1963 294.333C24.3403 294.247 25.4907 294.387 26.5731 294.742C27.6556 295.098 28.6487 295.661 29.4854 296.395C30.3703 297.298 31.0563 298.356 31.5032 299.508C32.0388 300.945 32.3223 302.455 32.3425 303.977L16.8876 304.453ZM27.0118 298.001C26.489 297.542 25.8681 297.19 25.1907 296.968C24.5155 296.747 23.7967 296.66 23.0825 296.714C21.6047 296.725 20.1912 297.286 19.1553 298.272C18.0634 299.364 17.3428 300.736 17.0858 302.213L28.9862 301.835C28.7904 300.397 28.0975 299.058 27.014 298.022L27.0118 298.001ZM52.1111 307.344C52.1614 308.711 52.2039 309.886 52.2408 310.889C52.2778 311.892 52.3066 312.684 52.3296 313.286C52.3525 313.889 52.362 314.188 52.3646 314.266C52.2264 314.271 51.591 314.335 50.3856 314.476C49.1779 314.616 47.6834 314.699 45.8138 314.759C44.6316 314.789 43.4491 314.719 42.2796 314.551C41.2024 314.412 40.15 314.147 39.1439 313.764C38.052 313.353 37.0816 312.704 36.3159 311.867C35.5621 311.004 35.1496 309.923 35.1474 308.806C35.0828 307.609 35.4825 306.431 36.2781 305.491C37.1884 304.454 38.3562 303.643 39.6766 303.121C40.8613 302.664 42.084 302.305 43.3358 302.045C45.0836 301.676 46.8506 301.395 48.6327 301.2C48.3763 299.158 47.3483 297.838 45.5507 297.24C44.0072 296.756 42.3766 296.561 40.7532 296.665C40.1181 296.687 39.5655 296.704 39.1156 296.717L37.306 296.899L37.5112 294.23C37.7428 294.223 38.1749 294.15 38.8019 294.102C39.4312 294.052 40.292 294.019 41.3995 293.982C42.91 293.916 44.4246 294.034 45.9017 294.334C47.1371 294.57 48.2913 295.082 49.2666 295.828C49.6622 296.15 50.0205 296.508 50.3374 296.9C50.6775 297.343 50.9561 297.821 51.167 298.329C51.4271 298.935 51.611 299.568 51.718 300.215C51.8585 301.062 51.9426 301.918 51.9666 302.775C52.0072 304.475 52.0604 305.979 52.1111 307.344ZM48.6974 303.635C48.0571 303.684 46.9539 303.843 45.3836 304.111C44.0502 304.325 42.7421 304.653 41.4749 305.094C40.6959 305.395 39.9898 305.843 39.4014 306.411C39.1046 306.688 38.8727 307.022 38.7238 307.39C38.5724 307.759 38.5092 308.154 38.5329 308.547C38.515 309.34 38.8215 310.111 39.3878 310.7C40.0083 311.279 40.7778 311.694 41.6232 311.903C42.3881 312.116 43.1742 312.258 43.9686 312.323C44.8654 312.406 45.7662 312.433 46.6664 312.404L47.7135 312.372L49.0219 312.264L48.7064 303.634L48.6974 303.635ZM69.1226 310.481C68.6521 311.271 67.9778 311.935 67.1575 312.411C66.2366 312.995 65.2149 313.424 64.1369 313.678C62.8555 313.985 61.5403 314.155 60.2176 314.189C59.8611 314.201 59.4952 314.196 59.1219 314.179C58.7407 314.192 58.3824 314.159 58.0409 314.155C57.6994 314.151 57.4215 314.174 57.1857 314.118C57.041 314.101 56.8952 314.093 56.7509 314.094L56.5218 311.477C56.6976 311.473 56.8745 311.48 57.0505 311.495L58.039 311.552L59.2892 311.571C59.7238 311.557 60.1583 311.543 60.6016 311.53C61.2445 311.498 61.884 311.436 62.5204 311.343C63.1833 311.272 63.826 311.099 64.428 310.833C65.0336 310.655 65.557 310.295 65.9211 309.807C66.2829 309.322 66.4644 308.738 66.4338 308.145C66.4394 307.667 66.268 307.203 65.9516 306.828C65.5903 306.457 65.1624 306.146 64.6909 305.909C64.3406 305.701 63.9765 305.518 63.5984 305.362L62.2815 304.815C61.8391 304.617 61.3971 304.435 60.9477 304.261C60.4984 304.085 60.1033 303.901 59.7474 303.724C58.8632 303.262 58.0984 302.62 57.5126 301.845C56.9608 301.084 56.6588 300.19 56.6416 299.271C56.5944 298.321 56.8592 297.382 57.3956 296.578C57.9543 295.753 58.734 295.08 59.6544 294.622C60.5028 294.153 61.4307 293.83 62.4009 293.668C63.3754 293.508 64.3588 293.408 65.3485 293.373C66.222 293.345 66.9378 293.337 67.4918 293.347L68.4629 293.36L68.7769 296.013C68.6833 296.016 68.2578 296.029 67.48 295.974C66.7 295.919 65.8556 295.945 64.9153 295.975C64.2854 295.989 63.6599 296.065 63.0441 296.193C62.5328 296.301 62.0373 296.467 61.5708 296.692C61.046 296.943 60.6042 297.328 60.2993 297.802C60.0669 298.161 59.9461 298.575 59.9466 298.997C59.9527 299.51 60.1653 300.003 60.5419 300.376C60.9292 300.754 61.3786 301.07 61.8738 301.314C62.1672 301.473 62.5135 301.637 62.9176 301.819C63.3194 302.003 63.7701 302.186 64.2742 302.388L65.6059 302.942C65.9938 303.11 66.3089 303.254 66.5477 303.385C67.4606 303.85 68.259 304.488 68.8918 305.259C69.4523 306.003 69.7573 306.889 69.7622 307.798C69.8244 308.732 69.603 309.661 69.1226 310.481ZM89.6942 302.521L85.5471 312.042C84.1125 315.315 83.0284 317.818 82.2885 319.548C81.5753 321.28 81.129 322.254 81.0224 322.498L78.0053 321.561L82.1603 312.861C82.0931 312.724 81.8238 312.182 81.3225 311.222C80.8211 310.264 80.1408 308.89 79.2301 307.086C78.3171 305.282 77.3117 303.328 76.2323 301.218C75.1532 299.106 73.9424 296.796 72.6308 294.292L75.818 292.882C76.6631 294.738 77.507 296.565 78.3501 298.358C79.1913 300.149 80.088 301.939 80.9713 303.751L82.9834 307.809C83.4366 308.742 83.6972 309.241 83.7639 309.363L83.8017 309.363C83.8007 309.31 84.0307 308.831 84.4088 307.932C84.7891 307.033 85.3233 305.721 86.0197 303.96C86.7162 302.2 87.4418 300.397 88.2262 298.502C89.0106 296.608 89.8076 294.597 90.6389 292.498L93.6123 293.51C92.3278 296.445 91.0203 299.449 89.6942 302.521Z" fill="#84817A"/>
<path d="M171.116 292.498C167.845 290.807 164.806 288.727 162.07 286.303C162.902 286.247 163.684 286.164 164.441 286.076C166.645 285.858 168.812 285.386 170.898 284.668C173.867 283.579 175.773 282.194 176.804 280.64C177.76 279.155 178.329 277.467 178.469 275.722L177.911 275.725C174.511 275.715 171.125 275.335 167.811 274.596C164.577 273.947 161.503 272.694 158.76 270.912L158.718 270.946C155.97 269.205 153.738 266.798 152.244 263.964C150.75 261.132 150.045 257.969 150.2 254.792C150.139 251.089 151.307 247.467 153.529 244.456C155.8 241.47 158.799 239.076 162.261 237.492C164.917 236.249 167.75 235.395 170.665 234.962C174.214 234.457 177.801 234.223 181.388 234.263H186.007C186.36 234.304 186.686 234.47 186.922 234.729C187.157 234.986 187.288 235.319 187.289 235.664V238.235C187.288 239.475 187.287 241.104 187.286 243.15C187.237 247.711 187.211 252.039 187.212 256.144C187.212 258.94 187.161 261.769 187.212 264.676C187.262 267.585 187.262 270.237 187.262 272.653C187.262 277.189 186.489 280.888 184.767 283.683C183.022 286.438 180.537 288.684 177.577 290.176C175.514 291.17 173.348 291.95 171.116 292.498ZM107.487 275.781C106.854 274.34 104.686 269.586 101.666 263.059C97.8594 254.943 94.0154 246.701 90.1333 238.333L89.6183 237.171L97.8785 233.569L111.307 264.342L123.538 235.561C123.693 235.311 123.913 235.104 124.177 234.965C124.441 234.823 124.741 234.749 125.043 234.754H136.854H143.511C143.705 234.755 143.897 234.791 144.077 234.865C144.255 234.938 144.416 235.047 144.552 235.181C144.687 235.316 144.793 235.477 144.862 235.654C144.933 235.83 144.963 236.017 144.958 236.204V274.316C144.963 274.497 144.933 274.68 144.865 274.851C144.797 275.021 144.693 275.178 144.565 275.311C144.435 275.443 144.282 275.549 144.109 275.622C143.936 275.697 143.747 275.736 143.559 275.74H136.905C136.714 275.741 136.528 275.703 136.353 275.632C136.176 275.56 136.015 275.457 135.88 275.326C135.747 275.196 135.641 275.041 135.57 274.871C135.498 274.698 135.465 274.514 135.466 274.329V242.191H129.751C126.831 248.637 123.794 255.333 120.599 262.334C117.403 269.335 115.166 274.299 114.468 275.781H107.487ZM211.679 275.727C209.065 275.737 206.469 275.302 204.008 274.447C201.629 273.609 199.439 272.336 197.553 270.699C195.373 268.728 193.67 266.317 192.563 263.635C191.389 260.858 190.79 257.883 190.798 254.885C190.776 252.09 191.289 249.317 192.313 246.705C193.359 244.134 194.972 241.814 197.038 239.906C198.944 238.084 201.205 236.654 203.692 235.693C206.25 234.711 208.979 234.209 211.73 234.217C214.473 234.182 217.199 234.65 219.767 235.587C222.202 236.49 224.409 237.882 226.246 239.672C228.343 241.628 229.986 243.992 231.064 246.61C232.117 249.285 232.642 252.126 232.611 254.987C232.624 257.938 232.03 260.861 230.864 263.586C229.828 266.047 228.287 268.278 226.334 270.144C224.38 272.011 222.054 273.476 219.499 274.447C216.994 275.33 214.346 275.765 211.679 275.727ZM69.6261 275.712L69.3288 275.663H60.2591C57.6646 275.708 55.0717 275.477 52.5297 274.969C50.2932 274.582 48.1332 273.854 46.1328 272.809C44.4409 271.799 43.018 270.422 41.9735 268.784C41.1515 267.392 40.6852 265.832 40.6172 264.231L40.6145 264.157L40.6172 260.437C40.6165 259.1 40.6251 257.116 40.6172 254.491C40.6086 251.864 40.5666 249.946 40.5668 248.754C40.4991 245.918 39.8183 243.99 39.0936 243.111C38.3705 242.234 36.8972 241.631 34.4008 241.631C32.4796 241.728 30.5971 242.175 28.8454 242.944C26.6006 243.814 24.4301 244.856 22.3582 246.062C22.3578 246.804 22.356 248.093 22.3556 249.97C22.3563 252.75 22.3554 255.329 22.3556 257.584C22.3548 259.84 22.3554 275.46 22.3556 275.671H13.6123V234.636L22.5892 234.639V238.327C25.0411 236.989 27.6091 235.854 30.2601 234.937C32.393 234.162 34.6382 233.727 36.9144 233.646C38.6068 233.582 40.2952 233.86 41.87 234.461C43.4465 235.064 44.8735 235.975 46.0638 237.142C48.4025 239.502 49.544 242.71 49.5436 246.538C49.5432 249.818 49.5189 252.637 49.4773 255.005C49.4364 257.376 49.4347 259.269 49.4348 260.751V263.344C49.3993 264.184 49.6589 265.01 50.1674 265.689C50.8281 266.478 51.6866 267.084 52.6624 267.452C53.7229 267.882 54.8457 268.154 55.9909 268.259C56.3157 268.323 56.5815 268.322 56.8722 268.321C56.1935 266.846 55.8454 265.248 55.8503 263.632C55.8082 261.011 56.75 258.464 58.5019 256.463C60.4044 254.356 62.8102 252.734 65.5093 251.736C67.8318 250.868 70.2345 250.221 72.6865 249.803C75.5685 249.26 78.4797 248.866 81.4059 248.625C81.2442 247.508 80.8391 246.435 80.2168 245.481C79.4013 244.343 78.2373 243.481 76.8883 243.016C75.7332 242.562 74.5229 242.255 73.2864 242.098C71.6726 241.899 70.0466 241.806 68.421 241.823C67.256 241.823 66.315 241.855 65.4588 241.895C64.6027 241.935 63.4447 242.016 62.0215 242.08L60.4661 242.17L61.4216 234.533L62.5046 234.451L64.8908 234.315C66.114 234.217 67.7385 234.216 69.8358 234.217C72.7817 234.18 75.72 234.514 78.5791 235.209C81.0411 235.805 83.3233 236.959 85.2334 238.577C86.8518 240.065 88.0903 241.895 88.8512 243.926C89.7091 246.142 90.0838 249.132 90.0855 252.967C90.0846 259.38 90.1422 264.585 90.0828 268.63C90.026 272.674 90.0262 273.521 90.0271 273.827V274.115V274.277C90.0335 274.428 90.0091 274.579 89.9581 274.722C89.8717 275.006 89.6956 275.257 89.4511 275.434C89.2057 275.613 88.9093 275.709 88.6044 275.712H69.6261ZM211.671 268.678C213.119 268.688 214.553 268.449 215.913 267.969C217.174 267.492 218.325 266.778 219.3 265.866C220.696 264.537 221.784 262.933 222.488 261.162C223.237 259.268 223.617 257.257 223.61 255.232C223.612 253.06 223.223 250.905 222.464 248.864C221.755 246.924 220.555 245.188 218.976 243.813C218.04 242.974 216.936 242.333 215.732 241.929C214.45 241.477 213.095 241.251 211.73 241.26C210.263 241.222 208.802 241.457 207.427 241.96C206.141 242.491 204.972 243.265 203.992 244.232C202.626 245.547 201.578 247.137 200.924 248.89C200.165 250.803 199.781 252.835 199.791 254.885C199.764 257.102 200.157 259.304 200.948 261.386C201.714 263.308 202.971 265.009 204.6 266.332C205.55 267.1 206.637 267.692 207.809 268.074C209.053 268.483 210.358 268.686 211.671 268.678ZM178.352 268.326H178.561C178.561 267.601 178.561 266.578 178.561 265.249C178.611 262.679 178.61 259.651 178.609 256.129C178.609 254.285 178.611 251.956 178.609 249.152C178.585 246.752 178.575 244.26 178.527 241.674C176.493 241.672 174.463 241.825 172.454 242.134C170.541 242.458 168.673 243 166.888 243.746C164.559 244.653 162.575 246.233 161.208 248.273C159.887 250.309 159.205 252.67 159.243 255.072C159.166 257.41 159.839 259.713 161.173 261.663C162.482 263.516 164.29 264.989 166.397 265.925C168.127 266.699 169.94 267.279 171.804 267.658C173.954 268.114 176.151 268.338 178.352 268.326ZM78.4702 268.236C78.9613 268.236 79.5996 268.235 80.3813 268.234C80.7307 268.235 81.1661 268.234 81.5652 268.234C81.5643 267.888 81.5629 267.501 81.5625 267.026C81.5638 265.695 81.5648 263.875 81.5652 261.612L81.5731 258.607C81.5737 257.729 81.5732 256.77 81.5731 255.689C80.4336 255.771 78.8444 255.956 76.8803 256.183C74.4532 256.427 72.0616 256.924 69.7429 257.663C68.4406 258.062 67.2331 258.71 66.1914 259.566C65.7661 259.896 65.4235 260.318 65.1934 260.797C64.964 261.278 64.8533 261.801 64.8669 262.329C64.8321 262.878 64.9156 263.428 65.1138 263.943C65.3111 264.461 65.6175 264.931 66.0136 265.326C67.0113 266.209 68.2124 266.845 69.5173 267.18C70.8501 267.572 72.2186 267.839 73.6022 267.984C75.2197 268.153 76.8447 268.239 78.4702 268.236ZM136.897 229.425C136.706 229.424 136.516 229.387 136.339 229.315C136.165 229.242 136.005 229.136 135.872 229.004C135.738 228.871 135.637 228.714 135.567 228.541C135.496 228.369 135.462 228.185 135.466 227.999V221.932C135.459 221.564 135.599 221.21 135.859 220.942C136.119 220.675 136.477 220.515 136.857 220.498H143.511C143.705 220.499 143.896 220.536 144.074 220.611C144.252 220.684 144.413 220.79 144.547 220.924C144.681 221.06 144.788 221.218 144.857 221.392C144.926 221.567 144.957 221.754 144.95 221.942V227.991C144.955 228.176 144.925 228.357 144.857 228.528C144.789 228.699 144.69 228.856 144.56 228.988C144.429 229.122 144.273 229.23 144.101 229.305C143.929 229.378 143.742 229.421 143.554 229.425H136.897Z" fill="url(#paint0_linear_96_1141)"/>
</g>
<defs>
<linearGradient id="paint0_linear_96_1141" x1="13.6123" y1="256.927" x2="232.879" y2="253.611" gradientUnits="userSpaceOnUse">
<stop stop-color="#FCC62F"/>
<stop offset="0.183586" stop-color="#FCC62F"/>
<stop offset="0.185646" stop-color="#7A4672"/>
<stop offset="0.348915" stop-color="#7A4672"/>
<stop offset="0.34898" stop-color="#009DC7"/>
<stop offset="0.530989" stop-color="#009DC7"/>
<stop offset="0.532828" stop-color="#EB2A35"/>
<stop offset="0.614711" stop-color="#EB2A35"/>
<stop offset="0.622794" stop-color="#00A880"/>
<stop offset="0.804306" stop-color="#00A880"/>
<stop offset="0.808518" stop-color="#F15D22"/>
</linearGradient>
<clipPath id="clip0_96_1141">
<rect width="333" height="534.612" fill="white" transform="matrix(0 1 -1 0 534.612 0)"/>
</clipPath>
</defs>
</svg>
