<svg width="539" height="337" viewBox="0 0 539 337" fill="none" xmlns="http://www.w3.org/2000/svg">
<g clip-path="url(#clip0_120_7514)">
<path d="M20.0591 337.022C14.7464 337.013 9.65248 334.919 5.89457 331.199C2.13461 327.481 0.0166598 322.438 0 317.175L0 109.522L539.199 109.522V317.175C539.185 322.434 537.069 327.475 533.316 331.194C529.563 334.913 524.479 337.007 519.169 337.022H20.0591Z" fill="#FAE8EB"/>
<path d="M206 160.734C206 144.244 219.636 131.022 236.234 131.022C252.832 131.022 266.466 144.392 266.466 160.734C266.466 177.075 252.832 190.445 236.234 190.445C219.636 190.445 206 177.075 206 160.734Z" fill="#B20131"/>
<path d="M233 82.5777V135.635C233 139.042 238.348 139.042 238.348 135.635V82.5777C238.348 79.1704 233 79.1704 233 82.5777Z" fill="#B20131"/>
<path d="M223.339 176.332V151.523C221.414 153.009 218.3 154.494 216.226 155.386L214.003 150.632C217.412 149.295 221.414 147.215 224.525 144.838H230.158V176.332H223.339ZM244.237 177.224C240.531 177.224 237.716 176.481 235.197 174.995L237.716 170.093C239.494 171.281 241.273 172.173 243.792 172.173C246.311 172.173 249.423 170.687 249.423 166.973C249.423 163.259 247.94 161.625 242.014 161.477C240.235 161.477 238.012 161.477 236.975 161.477L238.308 145.135H255.202V150.335H243.643L243.198 156.277C243.347 156.277 243.792 156.277 244.088 156.277C252.832 156.723 256.389 161.477 256.389 166.23C256.389 170.984 251.499 177.224 244.237 177.224Z" fill="white"/>
<mask id="mask0_120_7514" style="mask-type:luminance" maskUnits="userSpaceOnUse" x="31" y="187" width="62" height="60">
<path d="M92.1624 187.022H31.6964V246.444H92.1624V187.022Z" fill="white"/>
</mask>
<g mask="url(#mask0_120_7514)">
<path fill-rule="evenodd" clip-rule="evenodd" d="M92.1624 216.732C92.1624 233.074 78.6755 246.444 61.9283 246.444C45.1832 246.444 31.6964 233.074 31.6964 216.732C31.6964 200.391 45.1832 187.022 61.9283 187.022C78.6755 187.022 92.1624 200.391 92.1624 216.732Z" fill="#FD78B2"/>
<path d="M48.5906 232.33V207.523C46.6655 209.008 43.5519 210.494 41.4777 211.384L39.2544 206.631C42.6639 205.293 46.6655 203.215 49.7768 200.838H55.4074V232.33H48.5906ZM71.8587 233.074C63.1145 233.074 60.0032 227.132 60.0032 218.813C60.0032 210.494 65.1887 200.095 75.4151 200.095C85.6415 200.095 78.8247 200.244 80.1578 200.689L79.1207 206.037C78.2305 205.741 76.6013 205.293 74.674 205.293C70.2274 205.293 66.9669 208.858 66.524 215.099C67.5611 214.208 69.6354 213.02 73.1918 213.02C78.5265 213.02 82.8262 216.436 82.8262 222.378C82.8262 228.32 78.5265 233.372 71.8587 233.372M71.2667 217.921C69.1903 217.921 67.5612 218.664 66.967 219.703C66.671 220.297 66.6709 221.486 66.6709 222.378C66.6709 225.349 68.4492 228.32 71.7096 228.32C74.97 228.32 76.4522 225.794 76.4522 223.121C76.4522 220.446 74.5249 218.07 71.2667 218.07" fill="black"/>
</g>
<path d="M60.4459 239.908C60.4459 246.889 60.4459 254.022 60.4459 261.003C60.4459 272.738 55.4073 283.732 46.2202 291.161C37.0309 298.589 35.2527 297.697 29.0287 298.736C22.8043 299.778 23.2489 299.184 20.4332 299.184C12.1339 299.184 3.98302 299.184 -4.31627 299.184C-12.6154 299.184 -18.2469 299.184 -25.0642 299.184C-31.8813 299.184 -28.4726 304.531 -25.0642 304.531C-10.2443 304.531 4.57568 304.531 19.5438 304.531C22.0634 304.531 24.7309 304.531 27.2503 304.382C34.0665 303.639 40.8855 301.411 46.6653 297.548C58.0757 289.972 65.3377 277.047 65.9297 263.38C66.5239 249.714 65.9297 247.782 65.9297 240.057C65.9297 232.333 60.595 236.639 60.595 240.057L60.4459 239.908Z" fill="#FD78B2"/>
<path d="M152.862 289.463V339.973C152.862 343.391 158.196 343.391 158.196 339.973V289.463C158.196 286.047 152.862 286.047 152.862 289.463Z" fill="#CFCF05"/>
<mask id="mask1_120_7514" style="mask-type:luminance" maskUnits="userSpaceOnUse" x="125" y="237" width="61" height="60">
<path d="M185.613 237.022H125V296.594H185.613V237.022Z" fill="white"/>
</mask>
<g mask="url(#mask1_120_7514)">
<path fill-rule="evenodd" clip-rule="evenodd" d="M185.613 266.734C185.613 283.223 171.979 296.447 155.381 296.447C138.781 296.447 125.147 283.076 125.147 266.734C125.147 250.393 138.781 237.022 155.381 237.022C171.979 237.022 185.613 250.393 185.613 266.734Z" fill="#CFCF05"/>
<path d="M141.153 282.482V257.672C139.226 259.157 136.114 260.643 134.04 261.534L131.817 256.78C135.224 255.445 139.226 253.364 142.339 250.987H147.97V282.482H141.153ZM163.827 282.482H156.565C156.565 278.322 157.751 275.647 160.567 270.449L168.423 256.186H152.862V250.987H175.387V256.186C168.274 268.219 164.123 277.579 164.123 282.631" fill="black"/>
</g>
<path fill-rule="evenodd" clip-rule="evenodd" d="M298.613 290.734C298.613 307.225 284.979 320.447 268.381 320.447C251.783 320.447 238 307.076 238 290.734C238 274.393 251.634 261.022 268.381 261.022C285.126 261.022 298.613 274.393 298.613 290.734Z" fill="#05A08F"/>
<path d="M255.782 306.333V281.523C253.857 283.01 250.744 284.494 248.669 285.387L246.446 280.633C249.856 279.296 253.857 277.215 256.968 274.838H262.601V306.333H255.782ZM278.162 307.225C271.047 307.225 267.046 303.066 267.046 298.31C267.046 293.556 269.418 291.478 272.529 289.844C269.714 288.209 268.083 285.981 268.083 282.712C268.083 277.513 272.975 273.799 278.458 273.799C283.942 273.799 288.832 276.474 288.832 281.971C288.832 287.465 287.349 287.465 284.238 289.248C287.203 290.585 289.722 293.26 289.722 297.42C289.722 303.362 284.83 307.225 278.309 307.225M277.717 292.072C275.641 292.815 273.567 295.043 273.567 297.569C273.567 300.095 275.345 302.619 278.458 302.619C281.57 302.619 283.201 300.54 283.201 298.014C283.201 295.488 280.533 293.41 277.864 292.072M278.458 278.552C275.939 278.552 274.308 280.039 274.308 282.267C274.308 284.494 276.976 286.426 279.05 287.318C280.682 286.575 282.607 284.494 282.607 282.565C282.607 280.633 281.125 278.552 278.458 278.552Z" fill="white"/>
<path d="M298.175 293.77C305.157 293.77 312.289 293.77 319.271 293.77C331.006 293.77 341.999 298.809 349.428 307.996C356.857 317.185 355.964 318.963 357.004 325.187C358.045 331.412 357.451 330.967 357.451 333.783C357.451 342.082 357.451 350.233 357.451 358.532C357.451 366.831 357.451 372.463 357.451 379.28C357.451 386.097 362.799 382.689 362.799 379.28C362.799 364.46 362.799 349.64 362.799 334.672C362.799 332.153 362.799 329.485 362.65 326.966C361.906 320.149 359.679 313.33 355.815 307.551C348.24 296.14 335.314 288.878 321.647 288.286C307.981 287.692 306.049 288.286 298.325 288.286C290.6 288.286 294.906 293.621 298.325 293.621L298.175 293.77Z" fill="#05A08F"/>
<path d="M0.0269775 19.8668L0.0269775 109.522L539.2 109.522V19.8668C539.184 14.6084 537.07 9.56905 533.317 5.85067C529.564 2.13238 524.477 0.0379983 519.17 0.0222168L20.0597 0.0222168C14.7523 0.038022 9.6659 2.13229 5.91277 5.85067C2.15964 9.56907 0.0429019 14.6087 0.0269775 19.8668Z" fill="#E07887"/>
<path d="M523.254 198.838L532.008 203.489L486.731 231.257L479.07 226.743L390.019 276.672L376.614 261.762L444.599 222.503L458.141 230.436L512.447 198.974L523.254 198.838Z" fill="white"/>
<path d="M512.446 198.976V183.382L458.14 214.707V230.438L512.446 198.976Z" fill="#D5D8EC"/>
<path d="M511.545 183.321L458.249 214.064L413.907 162.444L453.86 139.384L511.545 183.321Z" fill="#F4D0D5" stroke="#F4D0D5"/>
<path d="M458.14 230.436V214.705L413.136 162.314L363.07 144.121V175.446L458.14 230.436Z" fill="#E07887"/>
<path d="M366.079 177.497C365.942 177.497 365.806 177.36 365.806 177.223V136.323C365.806 136.186 365.942 136.049 366.079 136.049C366.216 136.049 366.353 136.186 366.353 136.323V177.223C366.353 177.36 366.216 177.497 366.079 177.497Z" fill="#DB6778"/>
<path d="M371.824 180.781C371.688 180.781 371.551 180.644 371.551 180.508V138.239C371.551 138.102 371.688 137.966 371.824 137.966C371.961 137.966 372.098 138.102 372.098 138.239V180.508C372.098 180.644 371.961 180.781 371.824 180.781Z" fill="#DB6778"/>
<path d="M377.571 184.201C377.434 184.201 377.298 184.064 377.298 183.927V140.291C377.298 140.154 377.434 140.017 377.571 140.017C377.708 140.017 377.845 140.154 377.845 140.291V183.927C377.845 184.064 377.708 184.201 377.571 184.201Z" fill="#DB6778"/>
<path d="M383.315 187.484C383.178 187.484 383.041 187.347 383.041 187.21V142.206C383.041 142.069 383.178 141.932 383.315 141.932C383.452 141.932 383.589 142.069 383.589 142.206V187.21C383.589 187.347 383.452 187.484 383.315 187.484Z" fill="#DB6778"/>
<path d="M389.062 190.764C388.925 190.764 388.788 190.628 388.788 190.491V144.119C388.788 143.982 388.925 143.845 389.062 143.845C389.198 143.845 389.335 143.982 389.335 144.119V190.491C389.335 190.628 389.198 190.764 389.062 190.764Z" fill="#DB6778"/>
<path d="M394.942 194.049C394.806 194.049 394.669 193.912 394.669 193.775V146.035C394.669 145.898 394.806 145.761 394.942 145.761C395.079 145.761 395.216 145.898 395.216 146.035V193.775C395.079 194.049 394.942 194.049 394.942 194.049Z" fill="#DB6778"/>
<path d="M400.689 197.468C400.552 197.468 400.415 197.332 400.415 197.195V148.087C400.415 147.95 400.552 147.813 400.689 147.813C400.826 147.813 400.962 147.95 400.962 148.087V197.195C400.826 197.332 400.826 197.468 400.689 197.468Z" fill="#DB6778"/>
<path d="M406.433 200.751C406.296 200.751 406.159 200.615 406.159 200.478V150.002C406.159 149.865 406.296 149.728 406.433 149.728C406.57 149.728 406.706 149.865 406.706 150.002V200.478C406.57 200.615 406.57 200.751 406.433 200.751Z" fill="#DB6778"/>
<path d="M412.178 204.036C412.041 204.036 411.904 203.899 411.904 203.762V151.918C411.904 151.781 412.041 151.645 412.178 151.645C412.315 151.645 412.451 151.781 412.451 151.918V203.762C412.315 203.899 412.315 204.036 412.178 204.036Z" fill="#DB6778"/>
<path d="M417.925 207.455C417.788 207.455 417.651 207.319 417.651 207.182V153.97C417.651 153.833 417.788 153.697 417.925 153.697C418.061 153.697 418.198 153.833 418.198 153.97V207.182C418.198 207.319 418.061 207.455 417.925 207.455Z" fill="#DB6778"/>
<path d="M423.668 210.738C423.532 210.738 423.395 210.602 423.395 210.465V155.885C423.395 155.748 423.532 155.612 423.668 155.612C423.805 155.612 423.942 155.748 423.942 155.885V210.465C423.942 210.602 423.805 210.738 423.668 210.738Z" fill="#DB6778"/>
<path d="M429.415 214.019C429.278 214.019 429.141 213.882 429.141 213.745V157.798C429.141 157.661 429.278 157.524 429.415 157.524C429.552 157.524 429.689 157.661 429.689 157.798V213.745C429.689 213.882 429.552 214.019 429.415 214.019Z" fill="#DB6778"/>
<path d="M435.159 217.303C435.022 217.303 434.885 217.166 434.885 217.03V159.714C434.885 159.577 435.022 159.44 435.159 159.44C435.296 159.44 435.433 159.577 435.433 159.714V217.03C435.433 217.303 435.296 217.303 435.159 217.303Z" fill="#DB6778"/>
<path d="M440.904 220.723C440.767 220.723 440.63 220.586 440.63 220.449V161.766C440.63 161.629 440.767 161.492 440.904 161.492C441.041 161.492 441.178 161.629 441.178 161.766V220.449C441.178 220.586 441.041 220.723 440.904 220.723Z" fill="#DB6778"/>
<path d="M446.651 224.006C446.514 224.006 446.377 223.869 446.377 223.732V163.681C446.377 163.544 446.514 163.407 446.651 163.407C446.788 163.407 446.924 163.544 446.924 163.681V223.732C446.924 223.869 446.788 224.006 446.651 224.006Z" fill="#DB6778"/>
<path d="M452.395 227.29C452.258 227.29 452.121 227.153 452.121 227.017V165.597C452.121 165.461 452.258 165.324 452.395 165.324C452.531 165.324 452.668 165.461 452.668 165.597V227.017C452.668 227.153 452.531 227.29 452.395 227.29Z" fill="#DB6778"/>
<path d="M458.141 230.71C458.004 230.71 457.867 230.573 457.867 230.436V167.649C457.867 167.512 458.004 167.376 458.141 167.376C458.278 167.376 458.415 167.512 458.415 167.649V230.436C458.415 230.573 458.278 230.71 458.141 230.71Z" fill="#DB6778"/>
<path d="M461.833 232.353C461.697 232.353 461.56 232.216 461.56 232.079V191.179C461.56 191.042 461.697 190.905 461.833 190.905C461.97 190.905 462.107 191.042 462.107 191.179V232.079C461.97 232.216 461.97 232.353 461.833 232.353Z" fill="#9593C5"/>
<path d="M467.169 229.069C467.033 229.069 466.896 228.932 466.896 228.795V186.527C466.896 186.39 467.033 186.253 467.169 186.253C467.306 186.253 467.443 186.39 467.443 186.527V228.795C467.443 228.932 467.306 229.069 467.169 229.069Z" fill="#9290C4"/>
<path d="M472.504 225.649C472.367 225.649 472.231 225.512 472.231 225.375V181.739C472.231 181.602 472.367 181.465 472.504 181.465C472.641 181.465 472.778 181.602 472.778 181.739V225.375C472.778 225.649 472.641 225.649 472.504 225.649Z" fill="#8F8DC2"/>
<path d="M477.838 222.366C477.701 222.366 477.564 222.229 477.564 222.092V177.088C477.564 176.951 477.701 176.814 477.838 176.814C477.974 176.814 478.111 176.951 478.111 177.088V222.092C478.111 222.229 477.974 222.366 477.838 222.366Z" fill="#8D8BC1"/>
<path d="M483.173 219.083C483.036 219.083 482.899 218.946 482.899 218.809V172.437C482.899 172.3 483.036 172.163 483.173 172.163C483.309 172.163 483.446 172.3 483.446 172.437V218.809C483.446 218.946 483.309 219.083 483.173 219.083Z" fill="#8B88BF"/>
<path d="M488.644 215.663C488.508 215.663 488.371 215.526 488.371 215.389V167.649C488.371 167.512 488.508 167.376 488.644 167.376C488.781 167.376 488.918 167.512 488.918 167.649V215.389C488.781 215.663 488.781 215.663 488.644 215.663Z" fill="#8986BD"/>
<path d="M493.979 212.381C493.842 212.381 493.706 212.245 493.706 212.108V163C493.706 162.863 493.842 162.726 493.979 162.726C494.116 162.726 494.253 162.863 494.253 163V212.108C494.253 212.245 494.116 212.381 493.979 212.381Z" fill="#8784BC"/>
<path d="M499.315 209.098C499.179 209.098 499.042 208.962 499.042 208.825V158.349C499.042 158.212 499.179 158.075 499.315 158.075C499.452 158.075 499.589 158.212 499.589 158.349V208.825C499.589 208.962 499.452 209.098 499.315 209.098Z" fill="#8481BB"/>
<path d="M504.65 205.679C504.513 205.679 504.377 205.542 504.377 205.405V153.561C504.377 153.424 504.513 153.288 504.65 153.288C504.787 153.288 504.924 153.424 504.924 153.561V205.405C504.924 205.542 504.787 205.679 504.65 205.679Z" fill="#817FBA"/>
<path d="M509.984 202.394C509.847 202.394 509.71 202.258 509.71 202.121V148.909C509.71 148.772 509.847 148.635 509.984 148.635C510.12 148.635 510.257 148.772 510.257 148.909V202.121C510.257 202.258 510.12 202.394 509.984 202.394Z" fill="#7E7DB9"/>
<path d="M413.136 162.314L453.899 138.786L385.093 127.022L357.872 142.616L413.136 162.314Z" fill="#6664AB"/>
<g opacity="0.53">
<path d="M512.445 183.382L498.902 191.179L512.445 198.976V183.382Z" fill="#3D4F9D"/>
</g>
<path d="M376.614 251.229V261.762L281.544 238.234V206.908L376.614 251.229Z" fill="#E07887"/>
<path d="M376.614 251.229V261.762L395.491 250.955V240.969L376.614 251.229Z" fill="#959DCE"/>
<path d="M395.489 240.971L342.825 202.943L376.612 183.382L440.494 224.966L395.489 250.957V240.971Z" fill="#4A5AA5"/>
<path d="M342.825 202.943L376.612 183.382V198.976L354.589 211.697L342.825 202.943Z" fill="#4757A3"/>
<path d="M353.493 214.158C353.356 214.158 353.356 214.158 353.219 214.021C353.219 213.885 353.219 213.748 353.356 213.748L379.21 198.838C379.347 198.838 379.483 198.838 379.483 198.974C379.483 199.111 379.483 199.248 379.347 199.248L353.493 214.158Z" fill="#8D96CB"/>
<path d="M358.829 218.946C358.692 218.946 358.692 218.946 358.556 218.809C358.556 218.672 358.556 218.536 358.692 218.536L385.777 202.805C385.914 202.805 386.051 202.805 386.051 202.941C386.051 203.078 386.051 203.215 385.914 203.215L358.829 218.946Z" fill="#848EC6"/>
<path d="M364.028 223.597C363.891 223.597 363.891 223.597 363.754 223.46C363.754 223.323 363.754 223.187 363.891 223.187L392.343 206.772C392.48 206.772 392.617 206.772 392.617 206.908C392.617 207.045 392.617 207.182 392.48 207.182L364.028 223.597C364.164 223.597 364.164 223.597 364.028 223.597Z" fill="#7D87C2"/>
<path d="M369.364 228.385C369.227 228.385 369.227 228.385 369.09 228.248C369.09 228.111 369.09 227.974 369.227 227.974L399.047 210.875C399.184 210.875 399.321 210.875 399.321 211.012C399.321 211.149 399.321 211.286 399.184 211.286L369.364 228.385Z" fill="#7580BE"/>
<path d="M374.56 233.174C374.424 233.174 374.424 233.174 374.287 233.037C374.287 232.9 374.287 232.763 374.424 232.763L405.612 214.844C405.749 214.844 405.886 214.844 405.886 214.98C405.886 215.117 405.886 215.254 405.749 215.254L374.56 233.174C374.697 233.174 374.697 233.174 374.56 233.174Z" fill="#6E79BA"/>
<path d="M379.895 237.822C379.759 237.822 379.758 237.822 379.622 237.685C379.622 237.548 379.622 237.411 379.759 237.411L412.178 218.808C412.315 218.808 412.452 218.808 412.452 218.945C412.452 219.081 412.452 219.218 412.315 219.218L379.895 237.822Z" fill="#6672B5"/>
<path d="M385.23 242.611C385.093 242.611 385.093 242.611 384.957 242.474C384.957 242.337 384.957 242.201 385.093 242.201L418.881 222.776C419.018 222.776 419.154 222.776 419.154 222.913C419.154 223.05 419.154 223.187 419.018 223.187L385.23 242.611Z" fill="#5E6CB1"/>
<path d="M390.427 247.262C390.29 247.262 390.29 247.262 390.153 247.125C390.153 246.988 390.153 246.851 390.29 246.851L425.445 226.743C425.582 226.743 425.719 226.743 425.719 226.88C425.719 227.017 425.719 227.153 425.582 227.153L390.427 247.262C390.563 247.262 390.563 247.262 390.427 247.262Z" fill="#5664AC"/>
<path d="M395.763 252.05C395.626 252.05 395.626 252.05 395.49 251.913C395.49 251.776 395.49 251.639 395.626 251.639L432.013 230.71C432.15 230.71 432.286 230.71 432.286 230.847C432.286 230.984 432.286 231.12 432.15 231.12L395.763 252.05Z" fill="#4F5EA7"/>
<path d="M401.098 256.702C400.961 256.702 400.961 256.702 400.824 256.565C400.824 256.428 400.824 256.291 400.961 256.291L438.715 234.678C438.852 234.678 438.989 234.678 438.989 234.815C438.989 234.952 438.989 235.089 438.852 235.089L401.098 256.702Z" fill="#4757A3"/>
<path d="M376.612 251.229L268 208.276L363.07 159.852V175.446L376.612 183.38L342.825 202.941L395.489 240.969L376.612 251.229Z" fill="#848EC6"/>
<path d="M281.542 206.908L268 208.276L335.165 174.078L363.07 159.852V164.093L281.542 206.908Z" fill="#4757A3"/>
<path d="M378.802 249.996L281.544 206.907L363.071 164.091V175.445L376.614 183.379L342.826 202.94L395.491 240.968L378.802 249.996Z" fill="white"/>
<path d="M376.614 183.382V198.976L431.056 230.438L444.599 222.504L376.614 183.382Z" fill="#5E6CB1"/>
<path d="M377.571 217.578C377.434 217.578 377.298 217.441 377.298 217.304V173.668C377.298 173.531 377.434 173.394 377.571 173.394C377.708 173.394 377.845 173.531 377.845 173.668V217.304C377.845 217.578 377.708 217.578 377.571 217.578Z" fill="#EA853F"/>
<path d="M383.315 220.998C383.178 220.998 383.041 220.861 383.041 220.724V175.72C383.041 175.583 383.178 175.446 383.315 175.446C383.452 175.446 383.589 175.583 383.589 175.72V220.724C383.589 220.861 383.452 220.998 383.315 220.998Z" fill="#EA853F"/>
<path d="M389.062 224.281C388.925 224.281 388.788 224.144 388.788 224.007V177.635C388.788 177.498 388.925 177.362 389.062 177.362C389.198 177.362 389.335 177.498 389.335 177.635V224.007C389.335 224.144 389.198 224.281 389.062 224.281Z" fill="#EA853F"/>
<path d="M394.942 227.565C394.806 227.565 394.669 227.429 394.669 227.292V179.552C394.669 179.415 394.806 179.278 394.942 179.278C395.079 179.278 395.216 179.415 395.216 179.552V227.292C395.079 227.429 394.942 227.565 394.942 227.565Z" fill="#EA853F"/>
<path d="M400.689 230.845C400.552 230.845 400.415 230.709 400.415 230.572V181.464C400.415 181.327 400.552 181.19 400.689 181.19C400.826 181.19 400.962 181.327 400.962 181.464V230.572C400.826 230.845 400.826 230.845 400.689 230.845Z" fill="#EA853F"/>
<path d="M406.433 234.265C406.296 234.265 406.159 234.128 406.159 233.992V183.516C406.159 183.379 406.296 183.242 406.433 183.242C406.57 183.242 406.706 183.379 406.706 183.516V233.992C406.57 234.128 406.57 234.265 406.433 234.265Z" fill="#EA853F"/>
<path d="M412.181 237.55C412.044 237.55 411.907 237.413 411.907 237.276V185.432C411.907 185.295 412.044 185.159 412.181 185.159C412.317 185.159 412.454 185.295 412.454 185.432V237.276C412.318 237.413 412.317 237.55 412.181 237.55Z" fill="#EA853F"/>
<path d="M417.925 240.833C417.788 240.833 417.651 240.696 417.651 240.559V187.347C417.651 187.21 417.788 187.074 417.925 187.074C418.061 187.074 418.198 187.21 418.198 187.347V240.559C418.198 240.833 418.061 240.833 417.925 240.833Z" fill="#EA853F"/>
<path d="M423.668 244.252C423.532 244.252 423.395 244.116 423.395 243.979V189.399C423.395 189.262 423.532 189.125 423.668 189.125C423.805 189.125 423.942 189.262 423.942 189.399V243.979C423.942 244.116 423.805 244.252 423.668 244.252Z" fill="#EA853F"/>
<path d="M429.415 247.535C429.278 247.535 429.141 247.399 429.141 247.262V191.314C429.141 191.177 429.278 191.041 429.415 191.041C429.552 191.041 429.689 191.177 429.689 191.314V247.262C429.689 247.399 429.552 247.535 429.415 247.535Z" fill="#EA853F"/>
<path d="M435.159 250.82C435.022 250.82 434.885 250.683 434.885 250.546V193.231C434.885 193.094 435.022 192.957 435.159 192.957C435.296 192.957 435.433 193.094 435.433 193.231V250.546C435.433 250.683 435.296 250.82 435.159 250.82Z" fill="#EA853F"/>
<path d="M440.907 254.1C440.77 254.1 440.633 253.963 440.633 253.826V195.143C440.633 195.006 440.77 194.869 440.907 194.869C441.044 194.869 441.181 195.006 441.181 195.143V253.826C441.181 254.1 441.044 254.1 440.907 254.1Z" fill="#EA853F"/>
<path d="M355.821 177.361L360.472 179.824C363.618 181.465 363.755 186.116 360.746 187.894L339.543 200.479C337.901 201.437 337.765 203.899 339.406 204.993L385.231 234.951C387.557 236.455 387.42 239.875 385.094 241.243L380.307 243.979C377.981 245.347 375.246 245.484 372.783 244.252L295.77 208.413C293.171 207.182 293.034 203.625 295.633 202.257L343.1 177.225C347.203 175.31 351.854 175.31 355.821 177.361Z" fill="#75AC75"/>
<path d="M319.982 211.834C318.751 211.834 317.656 210.74 317.656 209.509V201.301C317.656 200.07 318.751 198.976 319.982 198.976C321.213 198.976 322.307 200.07 322.307 201.301V209.509C322.307 210.877 321.35 211.834 319.982 211.834Z" fill="#8EBB8D"/>
<path d="M350.075 218.537L351.306 213.886C351.853 211.834 353.358 210.33 355.41 209.782H355.546C359.103 208.825 362.523 211.287 362.796 214.98L363.207 220.315C363.344 222.367 362.386 224.419 360.608 225.65C359.103 226.744 357.051 226.881 355.273 226.197L353.495 225.513C350.896 224.419 349.254 221.41 350.075 218.537Z" fill="#6FA96F"/>
<path d="M345.15 212.927L349.801 214.158C351.853 214.705 353.358 216.21 353.905 218.262V218.399C354.862 221.955 352.4 225.375 348.707 225.649L343.372 226.059C341.32 226.196 339.268 225.238 338.037 223.46C336.943 221.955 336.806 219.903 337.49 218.125L338.174 216.347C339.268 213.611 342.278 212.106 345.15 212.927Z" fill="#80B380"/>
<path d="M314.509 174.626C316.424 174.626 317.929 176.13 317.929 178.045V186.39C317.929 188.305 316.424 189.81 314.509 189.81C312.594 189.81 311.089 188.305 311.089 186.39V178.045C311.089 176.267 312.731 174.626 314.509 174.626Z" fill="#5E9F5D"/>
<path d="M314.51 199.248C314.374 199.248 314.237 199.111 314.237 198.974V178.592C314.237 178.456 314.374 178.319 314.51 178.319C314.647 178.319 314.784 178.456 314.784 178.592V198.974C314.784 199.111 314.647 199.248 314.51 199.248Z" fill="#4757A3"/>
<path d="M314.509 185.979L312.594 184.885C312.457 184.748 312.457 184.611 312.457 184.611C312.594 184.475 312.731 184.475 312.731 184.475L314.509 185.569C314.646 185.706 314.646 185.843 314.646 185.843C314.646 185.979 314.646 185.979 314.509 185.979Z" fill="#4757A3"/>
<path d="M314.509 182.286C314.372 182.286 314.372 182.286 314.372 182.149C314.236 182.012 314.372 181.876 314.372 181.876L315.877 180.781C316.014 180.644 316.151 180.781 316.151 180.781C316.287 180.918 316.151 181.055 316.151 181.055L314.646 182.286C314.646 182.286 314.646 182.286 314.509 182.286Z" fill="#4757A3"/>
<path d="M344.194 188.169C342.963 187.485 341.048 187.485 339.953 188.169C338.722 188.853 338.722 189.948 339.953 190.632C341.185 191.316 343.1 191.316 344.194 190.632C345.425 189.948 345.425 188.853 344.194 188.169Z" fill="#5E9F5D"/>
<path d="M342.142 182.56C343.237 182.56 344.194 181.739 345.015 180.371C345.972 178.729 346.793 177.088 347.751 175.583C348.708 173.942 348.845 172.027 348.298 170.248C347.751 168.47 346.383 166.965 344.741 166.281C343.921 165.871 342.963 165.734 342.005 165.734C341.458 165.734 340.774 165.871 340.227 166.008C339.954 166.145 339.543 166.281 339.27 166.418C337.628 167.239 336.26 168.607 335.713 170.385C335.303 171.753 335.303 173.121 335.713 174.489C335.85 174.899 335.987 175.31 336.26 175.72C337.218 177.362 338.038 179.003 338.996 180.508C339.68 181.876 340.774 182.56 341.869 182.696" fill="#828DC5"/>
<path d="M342.005 189.399C341.869 189.399 341.732 189.262 341.732 189.125V170.795C341.732 170.659 341.869 170.522 342.005 170.522C342.142 170.522 342.279 170.659 342.279 170.795V189.125C342.279 189.262 342.142 189.399 342.005 189.399Z" fill="#FFDA00"/>
<path d="M342.004 177.088C340.089 177.088 338.584 175.857 338.584 174.215V172.984C338.584 172.847 338.721 172.711 338.858 172.711C338.995 172.711 339.132 172.847 339.132 172.984V174.215C339.132 175.583 340.499 176.541 342.141 176.541C342.278 176.541 342.414 176.678 342.414 176.814C342.414 176.951 342.141 177.088 342.004 177.088Z" fill="#FFDA00"/>
<path d="M342.141 175.995C342.004 175.995 341.867 175.858 341.867 175.721C341.867 175.585 342.004 175.448 342.141 175.448C343.782 175.448 345.15 174.353 345.15 173.122V171.891C345.15 171.754 345.287 171.618 345.424 171.618C345.561 171.618 345.697 171.754 345.697 171.891V173.122C345.561 174.764 344.056 175.995 342.141 175.995Z" fill="#FFDA00"/>
<path d="M363.617 229.479C362.386 229.479 361.292 228.385 361.292 227.153V218.946C361.292 217.715 362.386 216.62 363.617 216.62C364.848 216.62 365.942 217.715 365.942 218.946V227.153C366.079 228.521 364.985 229.479 363.617 229.479Z" fill="#8EBB8D"/>
<path d="M350.075 225.512C350.075 223.597 351.58 222.092 353.495 222.092C355.41 222.092 356.914 223.597 356.914 225.512C356.914 227.427 355.41 228.932 353.495 228.932C351.716 228.932 350.075 227.427 350.075 225.512Z" fill="#91BD90"/>
<path d="M306.029 207.045C306.029 205.13 307.534 203.625 309.449 203.625C311.364 203.625 312.869 205.13 312.869 207.045C312.869 208.96 311.364 210.465 309.449 210.465C307.534 210.602 306.029 209.097 306.029 207.045Z" fill="#91BD90"/>
<path d="M376.614 198.976L417.377 238.235L431.056 230.438L376.614 198.976Z" fill="#4757A3"/>
<path d="M532.009 203.489V219.22L390.293 301.021V294.728L471.684 246.851L485.089 232.215L532.009 203.489Z" fill="#4757A3"/>
<path d="M523.253 198.838L512.446 193.366V198.974L458.14 230.436L523.253 198.838Z" fill="#EBEDF6"/>
<path d="M479.069 226.743L486.729 231.257L471.682 246.851L464.432 242.474L479.069 226.743Z" fill="#ADB4DA"/>
<path d="M382.769 292.54L390.293 294.728L471.684 246.851L464.434 242.474L390.293 287.889L382.769 292.54Z" fill="#D6DAEC"/>
<path d="M390.293 301.022L345.152 281.871L382.769 292.541L390.293 294.73V301.022Z" fill="#4757A3"/>
<path d="M345.152 281.871L354.043 276.263L390.293 287.89L382.769 292.541L345.152 281.871Z" fill="#F3F4FA"/>
<path d="M390.291 287.889L390.018 276.672L479.069 226.743L464.432 242.474L390.291 287.889Z" fill="#AFB6DA"/>
<path d="M390.019 276.672L343.1 260.12V272.705L390.293 287.889L390.019 276.672Z" fill="#6A76B8"/>
<path d="M313.141 251.777L343.098 260.122V272.706L313.278 262.994L313.141 251.777Z" fill="#6A76B8"/>
<path d="M319.161 258.752L335.029 262.582V270.106L319.435 265.045L319.161 258.752Z" fill="#E07887"/>
<path d="M319.161 258.752L325.043 260.12L319.435 265.045L319.161 258.752Z" fill="#4757A3"/>
<path d="M313.141 251.776L268 237.686L313.278 262.993L313.141 251.776Z" fill="#6A76B8"/>
<path d="M487.14 230.71L479.479 226.333C479.343 226.333 479.343 226.059 479.343 226.059C479.343 225.922 479.616 225.922 479.616 225.922L487.14 230.3C487.276 230.3 487.276 230.573 487.276 230.573C487.413 230.71 487.276 230.71 487.14 230.71Z" fill="white"/>
<path d="M485.224 232.762L477.564 228.385C477.427 228.385 477.427 228.111 477.427 228.111L477.701 227.974L485.224 232.352C485.361 232.352 485.361 232.625 485.361 232.625C485.361 232.762 485.361 232.762 485.224 232.762Z" fill="#FBFBFD"/>
<path d="M483.309 234.814L475.649 230.437C475.512 230.437 475.512 230.163 475.512 230.163C475.512 230.026 475.786 230.026 475.786 230.026L483.309 234.403C483.446 234.403 483.446 234.677 483.446 234.677C483.446 234.814 483.446 234.814 483.309 234.814Z" fill="#F5F5FA"/>
<path d="M481.396 236.866L473.872 232.488C473.735 232.488 473.735 232.215 473.735 232.215C473.735 232.078 474.009 232.078 474.009 232.078L481.396 236.455C481.533 236.455 481.533 236.729 481.533 236.729C481.533 236.866 481.396 236.866 481.396 236.866Z" fill="#EFF1F8"/>
<path d="M479.479 238.918C479.343 238.918 479.343 238.918 479.479 238.918L471.956 234.54C471.819 234.54 471.819 234.267 471.819 234.267C471.956 234.13 472.093 234.13 472.093 234.13L479.479 238.507C479.616 238.507 479.616 238.781 479.616 238.781C479.616 238.918 479.479 238.918 479.479 238.918Z" fill="#EAECF6"/>
<path d="M477.427 240.971L469.904 236.457C469.767 236.457 469.767 236.183 469.767 236.183C469.904 236.046 470.041 236.046 470.041 236.046L477.427 240.424C477.564 240.424 477.564 240.697 477.564 240.697C477.701 240.971 477.564 240.971 477.427 240.971Z" fill="#E6E8F4"/>
<path d="M475.512 243.023L468.126 238.509C467.989 238.372 467.989 238.235 467.989 238.235C467.989 238.098 468.262 238.098 468.262 238.098L475.512 242.476C475.649 242.612 475.649 242.749 475.649 242.749C475.649 243.023 475.649 243.023 475.512 243.023Z" fill="#E0E2F0"/>
<path d="M473.598 245.075L466.212 240.56C466.075 240.424 466.075 240.287 466.075 240.287C466.212 240.15 466.349 240.15 466.349 240.15L473.598 244.527C473.735 244.664 473.735 244.801 473.735 244.801C473.735 245.075 473.735 245.075 473.598 245.075Z" fill="#DBDEEF"/>
<path d="M471.684 247.126L464.297 242.612C464.16 242.475 464.16 242.339 464.16 242.339C464.297 242.202 464.434 242.202 464.434 242.202L471.684 246.579C471.82 246.716 471.82 246.853 471.82 246.853C471.82 247.126 471.684 247.126 471.684 247.126Z" fill="#D6DAEC"/>
<path d="M382.768 292.813C382.631 292.813 382.631 292.813 382.631 292.676C382.494 292.54 382.631 292.403 382.768 292.403L390.291 287.615C390.428 287.478 390.565 287.615 390.565 287.752C390.702 287.889 390.565 288.026 390.428 288.026L382.768 292.813Z" fill="#D6DAEC"/>
<path d="M380.032 292.129C379.895 292.129 379.895 292.129 379.895 291.993C379.758 291.856 379.895 291.719 380.032 291.719L387.555 286.931C387.692 286.795 387.829 286.931 387.829 287.068C387.966 287.205 387.829 287.342 387.692 287.342L380.032 292.129C380.169 292.129 380.169 291.993 380.032 292.129Z" fill="#D9DCEE"/>
<path d="M377.432 291.307C377.295 291.307 377.295 291.307 377.295 291.17C377.158 291.034 377.295 290.897 377.432 290.897L385.092 285.972C385.229 285.836 385.366 285.972 385.366 286.109C385.502 286.246 385.365 286.383 385.229 286.383L377.432 291.307Z" fill="#DCDFEF"/>
<path d="M374.696 290.488C374.559 290.488 374.559 290.488 374.559 290.351C374.422 290.214 374.559 290.078 374.696 290.078L382.493 285.153C382.63 285.016 382.766 285.153 382.766 285.29C382.903 285.427 382.766 285.563 382.63 285.563L374.696 290.488C374.832 290.488 374.832 290.488 374.696 290.488Z" fill="#DFE1F0"/>
<path d="M372.097 289.803C371.96 289.803 371.96 289.802 371.96 289.666C371.823 289.529 371.96 289.392 372.097 289.392L380.03 284.468C380.167 284.468 380.304 284.468 380.304 284.604C380.304 284.741 380.304 284.878 380.167 284.878L372.097 289.803Z" fill="#E2E4F1"/>
<path d="M369.361 288.983C369.224 288.983 369.224 288.983 369.224 288.846C369.087 288.71 369.224 288.573 369.361 288.573L377.295 283.512C377.432 283.512 377.568 283.512 377.568 283.648C377.705 283.785 377.568 283.922 377.431 283.922L369.361 288.983Z" fill="#E5E7F3"/>
<path d="M366.625 288.162C366.488 288.162 366.488 288.162 366.488 288.026C366.352 287.889 366.488 287.752 366.625 287.752L374.696 282.691C374.833 282.691 374.969 282.691 374.969 282.828C375.106 282.964 374.969 283.101 374.833 283.101L366.625 288.162C366.762 288.162 366.762 288.162 366.625 288.162Z" fill="#E8EAF5"/>
<path d="M364.027 287.48C363.891 287.48 363.891 287.48 363.891 287.343C363.754 287.206 363.891 287.069 364.027 287.069L372.235 281.871C372.372 281.871 372.508 281.871 372.508 282.008C372.645 282.145 372.509 282.282 372.372 282.282L364.027 287.48Z" fill="#EAECF6"/>
<path d="M361.292 286.656C361.155 286.656 361.155 286.656 361.155 286.52C361.018 286.383 361.155 286.246 361.292 286.246L369.636 281.048C369.773 281.048 369.909 281.048 369.909 281.185C369.909 281.321 369.909 281.458 369.773 281.458L361.292 286.656Z" fill="#EEEFF7"/>
<path d="M358.556 285.972C358.419 285.972 358.419 285.972 358.419 285.836C358.282 285.699 358.419 285.562 358.556 285.562L367.037 280.364C367.174 280.364 367.311 280.364 367.311 280.501C367.311 280.638 367.311 280.774 367.174 280.774L358.556 285.972C358.693 285.972 358.693 285.972 358.556 285.972Z" fill="#F0F2F9"/>
<path d="M355.957 285.153C355.82 285.153 355.82 285.153 355.82 285.016C355.683 284.879 355.82 284.743 355.957 284.743L364.438 279.408C364.575 279.408 364.711 279.408 364.711 279.545C364.848 279.681 364.711 279.818 364.575 279.818L355.957 285.153Z" fill="#F3F4FA"/>
<path d="M353.221 284.332C353.084 284.332 353.084 284.332 353.084 284.196C352.947 284.059 353.084 283.922 353.221 283.922L361.839 278.587C361.975 278.587 362.112 278.587 362.112 278.724C362.249 278.861 362.112 278.997 361.975 278.997L353.221 284.332Z" fill="#F7F8FC"/>
<path d="M350.485 283.647C350.348 283.647 350.348 283.647 350.348 283.51C350.211 283.373 350.348 283.237 350.485 283.237L359.24 277.765C359.377 277.628 359.513 277.765 359.513 277.902C359.65 278.039 359.513 278.175 359.377 278.175L350.485 283.647C350.622 283.647 350.622 283.647 350.485 283.647Z" fill="#FAFBFD"/>
<path d="M347.886 282.826C347.749 282.826 347.749 282.826 347.749 282.689C347.613 282.553 347.749 282.416 347.886 282.416L356.777 276.944C356.914 276.944 357.051 276.944 357.051 277.081C357.188 277.218 357.051 277.354 356.914 277.354L347.886 282.826Z" fill="#FDFDFF"/>
<path d="M345.15 282.144C345.013 282.144 345.013 282.144 345.013 282.007C344.877 281.87 345.013 281.733 345.15 281.733L354.042 276.125C354.178 275.988 354.315 276.125 354.315 276.262C354.452 276.398 354.315 276.535 354.178 276.535L345.15 282.144Z" fill="white"/>
<path d="M371.551 161.461C369.636 160.366 368.542 161.187 368.542 163.512C368.542 165.838 369.636 167.616 371.277 168.574C372.235 169.121 372.782 169.258 373.329 169.121V165.564L371.277 164.333V165.701L372.098 166.111V167.479C371.961 167.479 371.688 167.343 371.414 167.206C370.32 166.659 369.773 165.291 369.773 163.923C369.773 162.418 370.593 162.281 371.414 162.828C371.961 163.102 372.645 163.786 373.056 164.47V162.828C372.919 162.418 372.372 161.871 371.551 161.461Z" fill="white"/>
<path d="M376.339 166.113C375.791 165.839 375.381 165.976 375.244 166.25L375.108 165.566L374.013 164.882L374.15 166.386V170.08L375.381 170.764V167.481C375.655 167.344 375.928 167.344 376.202 167.481C376.339 167.618 376.475 167.618 376.612 167.754V166.25L376.339 166.113Z" fill="white"/>
<path d="M378.391 171.448C377.98 171.174 377.98 170.901 377.98 170.627C377.98 170.353 378.117 170.217 378.527 170.49C378.664 170.627 378.801 170.764 379.075 170.901V171.585C378.938 171.721 378.664 171.585 378.391 171.448ZM378.527 167.344C377.98 167.07 377.296 166.934 377.023 167.07V168.438C377.433 168.302 377.843 168.438 378.391 168.712C378.938 168.986 379.075 169.396 379.075 170.08C378.801 169.943 378.664 169.669 378.391 169.533C377.433 168.986 376.749 169.259 376.749 170.217C376.749 171.037 377.16 171.858 377.844 172.269C378.391 172.679 378.801 172.542 379.075 172.132V172.816L380.306 173.5L380.169 172.405V170.353C380.169 168.986 379.622 168.028 378.527 167.344Z" fill="white"/>
<path d="M383.315 170.215C382.768 169.942 382.358 170.078 382.084 170.352L381.947 169.531L380.853 168.847L380.99 170.352V174.045L382.221 174.729V171.31C382.358 171.173 382.631 171.036 382.905 171.173C383.315 171.446 383.452 171.857 383.452 172.541V175.413L384.683 176.097V172.541C384.683 171.31 383.999 170.626 383.315 170.215Z" fill="white"/>
<path d="M387.145 176.508C386.598 176.234 386.324 175.413 386.324 174.593C386.324 173.635 386.598 173.361 387.145 173.635C387.419 173.772 387.692 174.182 387.829 174.729V176.371C387.692 176.644 387.419 176.644 387.145 176.508ZM389.06 171.446L387.966 170.762V173.361C387.692 172.814 387.419 172.404 386.872 172.13C385.914 171.583 385.093 172.267 385.093 173.909C385.093 175.55 385.777 176.781 386.598 177.328C387.145 177.602 387.556 177.602 387.829 177.328L387.966 178.012L388.923 178.56L389.06 171.446Z" fill="white"/>
<path d="M393.164 177.602V175.413L393.438 175.55C394.258 175.961 394.669 176.645 394.669 177.328C394.669 178.012 394.258 178.149 393.574 177.739L393.164 177.602ZM393.574 174.319L391.796 173.362V180.338L393.027 181.022V178.97L393.438 179.244C394.942 180.064 395.763 179.244 395.763 178.012C395.763 176.234 394.805 175.003 393.574 174.319Z" fill="white"/>
<path d="M397.678 182.663C397.268 182.39 397.268 182.116 397.268 181.843C397.268 181.569 397.405 181.432 397.815 181.706C397.952 181.843 398.089 181.979 398.362 182.116V182.8C398.225 182.8 397.952 182.8 397.678 182.663ZM397.815 178.56C397.268 178.286 396.584 178.149 396.31 178.286V179.654C396.721 179.517 397.131 179.654 397.678 179.927C398.225 180.201 398.362 180.611 398.362 181.295C398.089 181.159 397.952 180.885 397.678 180.748C396.721 180.201 396.037 180.475 396.037 181.569C396.037 182.39 396.447 183.21 397.131 183.621C397.678 184.031 398.089 183.894 398.362 183.484V184.168L399.593 184.852L399.456 183.758V181.706C399.456 180.064 398.909 179.243 397.815 178.56Z" fill="white"/>
<path d="M402.602 181.297C402.055 181.023 401.645 181.16 401.508 181.434L401.371 180.75L400.277 180.066L400.414 181.57V185.264L401.645 185.948V182.665C401.918 182.528 402.192 182.528 402.466 182.665C402.602 182.801 402.739 182.801 402.876 182.938V181.434L402.602 181.297Z" fill="white"/>
<path d="M404.382 182.39L403.288 181.706V186.767L404.382 187.451V182.39ZM404.382 180.338L403.151 179.654V181.159L404.382 181.843V180.338Z" fill="white"/>
<path d="M406.706 183.622C405.749 183.075 405.065 183.349 405.065 184.443C405.065 185.264 405.475 185.948 406.296 186.768C406.706 187.042 407.117 187.316 407.117 187.726C407.117 187.999 406.843 187.863 406.569 187.726C406.159 187.452 405.749 187.042 405.065 186.358V187.726C405.475 188.273 405.885 188.683 406.433 188.957C407.39 189.504 408.211 189.367 408.211 188.273C408.211 187.042 407.39 186.358 406.98 186.084C406.569 185.811 406.159 185.4 406.159 185.127C406.159 184.853 406.433 184.853 406.706 185.127C407.117 185.4 407.527 185.674 407.937 186.358V184.99C407.664 184.443 407.253 183.896 406.706 183.622Z" fill="white"/>
<path d="M414.231 186.221L410.811 184.169L410.675 191.146L414.368 193.198V191.83L412.042 190.599V188.957L413.821 190.051V188.82L412.042 187.726V186.221L414.231 187.589V186.221Z" fill="white"/>
<path d="M418.607 190.734L417.376 189.913L416.692 191.008L416.008 189.229L414.64 188.409L416.008 191.828L414.503 193.333L415.871 194.154L416.555 193.059L417.239 194.974L418.744 195.795L417.239 192.239L418.607 190.734Z" fill="white"/>
<path d="M420.934 195.933C420.66 195.797 420.524 195.523 420.25 195.113V193.198C420.387 192.924 420.66 192.924 420.934 193.061C421.481 193.334 421.755 194.018 421.755 194.976C421.755 195.797 421.344 196.207 420.934 195.933ZM421.344 192.103C420.934 191.83 420.524 191.966 420.25 192.24L420.113 191.556L419.019 190.872L419.156 192.377V198.122L420.387 198.806V196.207C420.66 196.754 421.071 197.165 421.481 197.438C422.439 197.985 422.986 197.165 422.986 195.66C422.986 194.018 422.302 192.65 421.344 192.103Z" fill="white"/>
<path d="M425.857 194.701C425.31 194.427 425.036 194.564 424.763 194.838L424.626 194.154L423.532 193.47L423.669 194.974V198.668L424.763 199.352V196.069C425.036 195.932 425.31 195.932 425.584 196.069C425.72 196.206 425.857 196.206 425.994 196.342V194.838L425.857 194.701Z" fill="white"/>
<path d="M427.362 197.71C427.499 197.163 427.635 196.89 428.046 197.163C428.456 197.437 428.593 197.847 428.73 198.531L427.362 197.71ZM428.046 195.932C426.951 195.248 426.131 195.932 426.131 197.574C426.131 199.215 426.815 200.446 428.046 201.267C428.593 201.541 429.277 201.814 429.687 201.677V200.446C429.277 200.583 428.73 200.309 428.319 200.173C427.772 199.899 427.362 199.352 427.362 198.668L429.824 200.173C429.824 197.984 429.277 196.753 428.046 195.932Z" fill="white"/>
<path d="M432.013 198.258C431.192 197.71 430.371 197.984 430.371 199.078C430.371 199.899 430.782 200.583 431.602 201.404C432.013 201.677 432.423 201.951 432.423 202.361C432.423 202.635 432.15 202.498 431.876 202.361C431.466 202.088 431.055 201.677 430.371 200.993V202.361C430.782 202.908 431.192 203.319 431.739 203.592C432.697 204.14 433.517 204.003 433.517 202.908C433.517 201.677 432.697 200.993 432.286 200.72C431.876 200.446 431.466 200.036 431.466 199.762C431.466 199.489 431.739 199.489 432.013 199.762C432.423 200.036 432.833 200.309 433.244 200.993V199.625C433.107 199.078 432.56 198.531 432.013 198.258Z" fill="white"/>
<path d="M435.708 200.446C434.75 199.899 434.066 200.173 434.066 201.267C434.066 202.088 434.476 202.772 435.297 203.592C435.708 203.866 436.118 204.139 436.118 204.55C436.118 204.823 435.844 204.687 435.571 204.55C435.16 204.276 434.75 203.866 434.066 203.182V204.55C434.476 205.097 434.887 205.507 435.434 205.781C436.391 206.328 437.212 206.191 437.212 205.097C437.212 203.866 436.391 203.182 435.981 202.908C435.571 202.635 435.16 202.224 435.16 201.951C435.16 201.677 435.434 201.677 435.708 201.951C436.118 202.224 436.528 202.498 436.939 203.182V201.814C436.665 201.13 436.255 200.72 435.708 200.446Z" fill="white"/>
<path d="M325.863 208.687C325.726 208.687 325.589 208.55 325.589 208.413C324.905 202.531 325.589 196.649 325.589 196.649V196.512L327.641 195.418V195.828C327.641 196.923 327.641 198.017 327.641 199.111C327.641 200.89 327.504 202.257 327.914 203.625C328.325 205.267 328.872 207.729 328.872 207.729L328.325 207.866C328.325 207.866 327.778 205.404 327.367 203.762C326.957 202.394 327.094 200.753 327.094 199.111C327.094 198.154 327.094 197.333 327.094 196.375L326.136 196.923C325.999 197.88 325.452 203.078 326.136 208.413C326.136 208.413 325.999 208.55 325.863 208.687Z" fill="#E07887"/>
<path d="M327.229 202.119C327.229 202.119 326.819 202.256 326.135 201.982C325.314 201.709 326.408 194.869 326.408 194.869L327.366 196.648L327.229 202.119Z" fill="#E07887"/>
<path d="M326.819 197.196C326.135 197.196 325.861 196.649 325.861 196.102V192.956C325.861 192.408 326.272 191.998 326.819 191.998H326.956C327.503 191.998 327.913 192.408 327.913 192.956V195.691C327.776 196.375 327.366 197.196 326.819 197.196Z" fill="#E07887"/>
<path d="M64.6367 126.303L25.3613 103.552L25.2626 72.0947L64.5374 94.8466L64.6367 126.303Z" fill="#DC7885"/>
<path d="M64.5374 94.8464L25.2626 72.0947C25.2626 65.3681 35.6241 68.1378 31.7755 65.8627L58.3207 81.0964C62.1693 83.3717 64.5374 88.1197 64.5374 94.8464Z" fill="#DC7885"/>
<path d="M21.8088 151.033L13.2235 146.087C-0.394501 138.174 -0.394501 118.488 13.2235 110.575L25.3614 103.551L64.6369 126.303L21.8088 151.132V151.033Z" fill="#F7D14A"/>
<path d="M43.0255 76.1504C57.9267 67.5444 70.0637 74.4688 70.0637 91.5821V123.039C70.163 123.039 16.184 154.298 16.184 154.298V122.841C15.9866 105.728 28.1245 84.7566 42.9268 76.1504H43.0255ZM64.6369 126.303V94.8465C64.5376 81.1955 54.8665 75.7548 43.0255 82.5803C31.1837 89.4058 21.6114 106.024 21.7101 119.675V151.132L64.6369 126.303Z" fill="#9BA4D0"/>
<path d="M46.0844 64.8736C45.8873 64.8736 45.7884 64.6757 45.591 64.5768C42.6305 62.9941 39.078 62.5984 35.0321 63.4887C32.4663 63.9833 29.7032 65.0714 26.8414 66.753C22.1048 69.5229 17.664 73.4796 13.8154 78.2278C10.1643 82.6792 7.10511 87.7242 4.73669 93.0659C1.77624 99.7926 0 106.915 0 113.542V144.999C0.0986963 144.999 16.1839 154.397 16.1839 154.397V122.94C16.0852 116.411 17.8614 109.289 20.8218 102.463C23.1903 97.1216 26.2494 92.0767 29.9006 87.6253C33.7492 82.8771 38.1899 78.9203 42.9266 76.1505C45.7884 74.4689 48.5518 73.3808 51.1171 72.8861C55.0649 71.9958 58.7149 72.4905 61.6758 74.0731C61.8729 74.0731 61.9722 74.2711 62.1693 74.3699L46.0844 64.9725V64.8736Z" fill="#CCD0E6"/>
<mask id="mask2_120_7514" style="mask-type:luminance" maskUnits="userSpaceOnUse" x="21" y="79" width="215" height="239">
<path d="M235.85 192.086L61.479 93.7584C61.479 81.0965 52.4985 76.0516 41.5452 82.3825C30.5916 88.7134 21.7102 104.145 21.7102 116.807V146.087L62.663 191.789L235.751 317.022L235.948 192.184L235.85 192.086Z" fill="white"/>
</mask>
<g mask="url(#mask2_120_7514)">
<path d="M48.946 154.792L71.7411 141.636V109.981L53.4852 104.739L35.328 115.224L48.946 154.792Z" fill="#4756A7"/>
<path d="M22.993 138.272L26.0522 136.492C26.3483 136.294 26.8416 136.294 27.3351 136.591L24.2759 138.371C23.7825 138.075 23.2891 138.075 22.993 138.272Z" fill="#3D4DA2"/>
<path d="M28.7166 141.042L25.6575 142.823C25.9535 142.625 26.1509 142.229 26.1509 141.636C26.1509 140.449 25.3615 138.965 24.276 138.372L27.3351 136.591C28.322 137.185 29.2101 138.668 29.2101 139.855C29.2101 140.449 29.0127 140.845 28.7166 141.042Z" fill="#3D4DA2"/>
<path d="M24.3746 138.371C25.3614 138.965 26.2495 140.449 26.2495 141.636C26.2495 142.823 25.46 143.317 24.3746 142.724C23.3878 142.13 22.4995 140.647 22.4995 139.459C22.4995 138.272 23.2891 137.778 24.3746 138.371Z" fill="#4756A7"/>
<path d="M27.5322 140.943L30.5914 139.163C30.8875 138.965 31.3808 138.965 31.8743 139.262L28.8151 141.042C28.3217 140.745 27.8283 140.745 27.5322 140.943Z" fill="#3D4DA2"/>
<path d="M33.2558 143.713L30.1968 145.494C30.4927 145.296 30.6901 144.9 30.6901 144.307C30.6901 143.12 29.9007 141.636 28.8152 141.042L31.8743 139.262C32.8611 139.855 33.7493 141.339 33.7493 142.526C33.7493 143.12 33.5519 143.515 33.2558 143.713Z" fill="#3D4DA2"/>
<path d="M28.9139 141.042C29.9007 141.636 30.7888 143.12 30.7888 144.307C30.7888 145.494 29.9994 145.988 28.9139 145.395C27.9271 144.801 27.0389 143.317 27.0389 142.13C27.0389 140.943 27.8284 140.449 28.9139 141.042Z" fill="#4756A7"/>
<path d="M48.552 146.681L48.9462 147.868V151.627L-1.08533 122.643V117.895L48.552 146.681Z" fill="#9BA4D0"/>
<path d="M-1.08533 125.809V122.643L48.9462 151.627V154.792L-1.08533 125.809Z" fill="#4756A7"/>
<path d="M21.6114 80.9976L-1.18408 94.154L48.8469 123.138C48.8469 123.138 54.4723 117.005 60.1955 113.74C65.8209 110.476 71.6434 109.981 71.6434 109.981L21.6114 80.9976Z" fill="#EAEBF4"/>
<path d="M-1.08533 94.1539V120.566L48.9462 149.55V123.138L-1.08533 94.1539Z" fill="white"/>
<path d="M-1.08533 115.224L48.9462 144.208V149.55L-1.08533 120.566V115.224Z" fill="#CCD0E6"/>
<path d="M26.1508 136.294V117.499C26.1508 115.818 28.0258 114.729 29.5059 115.521L35.9203 119.28C37.0058 119.972 37.6965 121.159 37.6965 122.445V143.021L26.0521 136.294H26.1508Z" fill="#F7D14A"/>
<path d="M36.5122 123.138V128.776C36.5122 130.062 35.1307 130.952 33.9465 130.26L29.0124 127.391C28.0256 126.798 27.3347 125.71 27.3347 124.523V117.895C27.3347 117.005 28.3215 116.51 29.0124 116.906L34.7359 120.269C35.7227 120.862 36.4135 121.951 36.4135 123.138H36.5122Z" fill="#DC7885"/>
<path d="M32.2692 118.291L31.5783 117.895V118.488L31.4796 127.985V136.789L32.1705 137.184L32.2692 128.381V118.983V118.291Z" fill="#F7D14A"/>
<path d="M21.6114 80.9976C21.6114 80.9976 15.7892 81.4922 10.1644 84.7566C4.53958 88.0209 -1.18408 94.154 -1.18408 94.154L29.4072 96.4292L21.6114 80.9976Z" fill="#EAEBF4"/>
<path d="M56.4462 157.562L59.5049 155.781C59.8013 155.584 60.2947 155.584 60.7882 155.88L57.7295 157.661C57.236 157.364 56.7425 157.364 56.4462 157.562Z" fill="#3D4DA2"/>
<path d="M62.0716 160.332L59.0114 162.112C59.3078 161.914 59.5049 161.519 59.5049 160.925C59.5049 159.738 58.7165 158.254 57.6302 157.661L60.689 155.88C61.6759 156.474 62.5651 157.958 62.5651 159.145C62.5651 159.738 62.3665 160.134 62.0716 160.332Z" fill="#3D4DA2"/>
<path d="M57.7295 157.76C58.7165 158.353 59.6041 159.837 59.6041 161.024C59.6041 162.211 58.8143 162.706 57.7295 162.112C56.7425 161.519 55.8534 160.035 55.8534 158.848C55.8534 157.661 56.6432 157.166 57.7295 157.76Z" fill="#4756A7"/>
<path d="M60.9854 160.233L64.0441 158.452C64.3404 158.254 64.8339 158.254 65.3274 158.551L62.2687 160.332C61.7752 160.035 61.2817 160.035 60.9854 160.233Z" fill="#3D4DA2"/>
<path d="M66.7087 163.003L63.65 164.783C63.9463 164.585 64.1435 164.19 64.1435 163.596C64.1435 162.409 63.3536 160.925 62.2688 160.332L65.3275 158.551C66.3145 159.145 67.2021 160.629 67.2021 161.816C67.2021 162.409 67.0051 162.805 66.7087 163.003Z" fill="#3D4DA2"/>
<path d="M62.2688 160.332C63.2558 160.925 64.1435 162.409 64.1435 163.596C64.1435 164.783 63.3536 165.278 62.2688 164.684C61.2818 164.091 60.3942 162.607 60.3942 161.42C60.3942 160.233 61.1826 159.738 62.2688 160.332Z" fill="#4756A7"/>
<path d="M74.6042 168.146L77.663 166.366C77.9593 166.168 78.4528 166.168 78.9448 166.465L75.8861 168.245C75.3927 167.949 74.8992 167.949 74.6042 168.146Z" fill="#3D4DA2"/>
<path d="M80.3276 170.916L77.2674 172.697C77.5638 172.499 77.7609 172.103 77.7609 171.51C77.7609 170.323 76.9725 168.839 75.8862 168.245L78.9449 166.465C79.9319 167.058 80.821 168.542 80.821 169.729C80.821 170.323 80.6225 170.719 80.3276 170.916Z" fill="#3D4DA2"/>
<path d="M75.9854 168.245C76.9723 168.839 77.86 170.323 77.86 171.51C77.86 172.697 77.0701 173.192 75.9854 172.598C74.9984 172.004 74.1107 170.521 74.1107 169.334C74.1107 168.146 74.8991 167.652 75.9854 168.245Z" fill="#4756A7"/>
<path d="M79.1434 170.817L82.2021 169.037C82.4985 168.839 82.992 168.839 83.4855 169.136L80.4253 170.916C79.9318 170.62 79.4384 170.62 79.1434 170.817Z" fill="#3D4DA2"/>
<path d="M84.8667 173.488L81.808 175.269C82.103 175.071 82.3015 174.675 82.3015 174.082C82.3015 172.895 81.5117 171.411 80.4254 170.817L83.4856 169.037C84.4711 169.63 85.3602 171.114 85.3602 172.301C85.3602 172.895 85.1631 173.291 84.8667 173.488Z" fill="#3D4DA2"/>
<path d="M80.5245 170.916C81.5115 171.51 82.3992 172.993 82.3992 174.181C82.3992 175.367 81.6093 175.862 80.5245 175.269C79.5376 174.675 78.6499 173.191 78.6499 172.004C78.6499 170.817 79.4383 170.323 80.5245 170.916Z" fill="#4756A7"/>
<path d="M100.162 176.555L100.557 177.742V181.501L50.5259 152.517V147.769L100.162 176.555Z" fill="#9BA4D0"/>
<path d="M50.5259 155.683V152.517L100.557 181.501V184.666L50.5259 155.683Z" fill="#4756A7"/>
<path d="M106.478 186.546L109.536 184.765C109.833 184.567 110.326 184.567 110.82 184.864L107.761 186.645C107.268 186.348 106.774 186.348 106.478 186.546Z" fill="#3D4DA2"/>
<path d="M112.201 189.316L109.142 191.096C109.439 190.898 109.636 190.503 109.636 189.909C109.636 188.722 108.846 187.238 107.761 186.645L110.82 184.864C111.807 185.458 112.694 186.941 112.694 188.128C112.694 188.722 112.497 189.118 112.201 189.316Z" fill="#3D4DA2"/>
<path d="M107.859 186.743C108.846 187.337 109.735 188.821 109.735 190.008C109.735 191.195 108.945 191.689 107.859 191.096C106.872 190.502 105.984 189.019 105.984 187.832C105.984 186.644 106.774 186.15 107.859 186.743Z" fill="#4756A7"/>
<path d="M111.017 189.217L114.076 187.436C114.372 187.238 114.865 187.238 115.359 187.535L112.3 189.315C111.807 189.019 111.313 189.019 111.017 189.217Z" fill="#3D4DA2"/>
<path d="M116.74 191.986L113.681 193.767C113.978 193.569 114.175 193.173 114.175 192.58C114.175 191.393 113.385 189.909 112.3 189.316L115.359 187.535C116.346 188.128 117.233 189.612 117.233 190.799C117.233 191.393 117.036 191.788 116.74 191.986Z" fill="#3D4DA2"/>
<path d="M112.398 189.315C113.385 189.909 114.274 191.393 114.274 192.58C114.274 193.767 113.484 194.262 112.398 193.668C111.412 193.074 110.523 191.591 110.523 190.404C110.523 189.216 111.313 188.722 112.398 189.315Z" fill="#4756A7"/>
<path d="M124.734 197.13L127.792 195.35C128.089 195.152 128.582 195.152 129.076 195.448L126.017 197.229C125.524 196.932 125.03 196.932 124.734 197.13Z" fill="#3D4DA2"/>
<path d="M130.359 199.901L127.3 201.68C127.595 201.483 127.794 201.088 127.794 200.493C127.794 199.306 127.004 197.823 125.917 197.229L128.978 195.449C129.963 196.042 130.852 197.526 130.852 198.713C130.852 199.306 130.655 199.702 130.359 199.901Z" fill="#3D4DA2"/>
<path d="M126.017 197.229C127.004 197.823 127.892 199.306 127.892 200.493C127.892 201.68 127.102 202.175 126.017 201.581C125.03 200.988 124.142 199.505 124.142 198.317C124.142 197.13 124.931 196.636 126.017 197.229Z" fill="#4756A7"/>
<path d="M129.273 199.801L132.333 198.02C132.628 197.823 133.121 197.823 133.615 198.119L130.556 199.901C130.063 199.603 129.569 199.603 129.273 199.801Z" fill="#3D4DA2"/>
<path d="M134.997 202.472L131.937 204.253C132.233 204.054 132.431 203.659 132.431 203.066C132.431 201.879 131.642 200.394 130.556 199.801L133.615 198.021C134.602 198.614 135.491 200.098 135.491 201.285C135.491 201.879 135.292 202.275 134.997 202.472Z" fill="#3D4DA2"/>
<path d="M130.556 199.901C131.543 200.493 132.431 201.977 132.431 203.164C132.431 204.351 131.642 204.846 130.556 204.253C129.569 203.659 128.681 202.175 128.681 200.988C128.681 199.801 129.471 199.306 130.556 199.901Z" fill="#4756A7"/>
<path d="M154.535 196.834L169.634 205.637C169.239 205.44 168.745 205.44 168.154 205.836L153.056 197.031C153.647 196.636 154.24 196.636 154.535 196.834Z" fill="#3D4DA2"/>
<mask id="mask3_120_7514" style="mask-type:luminance" maskUnits="userSpaceOnUse" x="153" y="196" width="17" height="10">
<path d="M154.535 196.834L169.634 205.637C169.239 205.44 168.745 205.44 168.154 205.836L153.056 197.031C153.647 196.636 154.24 196.636 154.535 196.834Z" fill="white"/>
</mask>
<g mask="url(#mask3_120_7514)">
<path d="M168.055 205.835L152.957 197.031C153.45 196.735 153.844 196.636 154.24 196.735L169.338 205.539C168.944 205.539 168.548 205.539 168.055 205.835Z" fill="#4756A7"/>
<path d="M169.338 205.539L154.24 196.735C154.24 196.735 154.437 196.735 154.535 196.834L169.635 205.637C169.635 205.637 169.437 205.637 169.338 205.539Z" fill="#3D4DA2"/>
</g>
<path d="M166.574 210.88L151.476 202.076C151.082 201.879 150.885 201.384 150.885 200.692C150.885 199.306 151.871 197.625 153.056 196.932L168.154 205.736C166.97 206.428 165.983 208.11 165.983 209.496C165.983 210.88 166.18 210.683 166.574 210.88Z" fill="#4756A7"/>
<mask id="mask4_120_7514" style="mask-type:luminance" maskUnits="userSpaceOnUse" x="150" y="196" width="19" height="15">
<path d="M166.574 210.88L151.476 202.076C151.082 201.879 150.885 201.384 150.885 200.692C150.885 199.306 151.871 197.625 153.056 196.932L168.154 205.736C166.97 206.428 165.983 208.11 165.983 209.496C165.983 210.88 166.18 210.683 166.574 210.88Z" fill="white"/>
</mask>
<g mask="url(#mask4_120_7514)">
<path d="M166.477 207.518L151.379 198.713C151.773 198.021 152.364 197.328 152.957 197.031L168.055 205.836C167.464 206.231 166.871 206.824 166.477 207.518Z" fill="#4756A7"/>
</g>
<path d="M168.055 205.836C169.239 205.144 170.226 205.736 170.226 207.023C170.226 208.309 169.239 210.089 168.055 210.782C166.871 211.474 165.884 210.88 165.884 209.595C165.884 208.309 166.871 206.528 168.055 205.836Z" fill="#6371B5"/>
<path d="M153.647 211.375L157.792 209.001V209.891L153.647 212.365V211.375Z" fill="white"/>
<path d="M103.517 178.533L107.761 176.06L154.437 203.066L150.292 205.539L103.517 178.533Z" fill="#8E98CA"/>
<path d="M150.292 205.539C152.167 206.627 153.647 209.297 153.647 211.375V212.365L100.557 181.6V176.753L150.292 205.539Z" fill="#9BA4D0"/>
<path d="M150.292 205.539L154.437 203.164C156.312 204.253 157.89 206.923 157.89 209.001L153.747 211.375C153.747 209.198 152.266 206.627 150.392 205.539H150.292Z" fill="#8E98CA"/>
<path d="M100.557 184.666V181.501L154.141 212.562V215.727L100.557 184.666Z" fill="#4756A7"/>
<path d="M157.792 209.891L153.647 212.265V214.639C153.647 215.727 154.831 216.421 155.818 215.926L156.608 215.431C157.397 215.035 157.89 214.144 157.89 213.254V209.891H157.792Z" fill="#9BA4D0"/>
<path d="M171.806 200.988L175.949 198.614V199.505L171.806 201.978V200.988Z" fill="white"/>
<path d="M121.675 168.147L125.918 165.674L172.496 192.679L168.45 195.152L121.675 168.147Z" fill="#8E98CA"/>
<path d="M168.45 195.152C170.325 196.24 171.805 198.911 171.805 200.988V201.977L121.773 172.994V168.147L168.45 195.152Z" fill="#4756A7"/>
<path d="M168.45 195.152L172.594 192.778C174.47 193.866 176.048 196.537 176.048 198.614L171.903 200.988C171.903 198.811 170.423 196.24 168.548 195.152H168.45Z" fill="#8E98CA"/>
<path d="M121.675 176.06V172.994L172.2 202.175V205.341L121.675 176.06Z" fill="#4756A7"/>
<path d="M175.949 199.505L171.806 201.879V204.253C171.806 205.341 172.99 206.033 173.977 205.539L174.765 205.044C175.555 204.649 176.048 203.758 176.048 202.867V199.505H175.949Z" fill="#9BA4D0"/>
<path fill-rule="evenodd" clip-rule="evenodd" d="M100.557 179.424L135.983 199.901C139.634 201.977 143.582 203.659 147.628 204.846L150.589 205.637C156.411 207.319 162.726 206.528 167.957 203.559L169.436 202.67C171.903 201.285 173.68 198.812 174.174 196.042C174.371 194.954 174.371 193.866 174.174 192.778L171.509 181.6L170.719 177.148C169.535 170.224 165.292 164.19 159.174 160.629L123.253 139.855L100.458 153.012V179.325L100.557 179.424Z" fill="white"/>
<path d="M136.476 194.855L100.557 174.082V179.325L135.983 199.801C139.634 201.879 143.582 203.561 147.628 204.748L150.589 205.539C152.069 205.935 153.647 206.231 155.227 206.331C155.227 204.253 153.944 202.472 152.069 201.78L146.937 199.801C143.286 198.416 139.831 196.735 136.476 194.756V194.855Z" fill="#CCD0E6"/>
<path d="M166.871 174.379C166.773 173.785 166.574 173.093 166.476 172.499L169.141 171.609C167.068 167.058 163.713 163.201 159.273 160.629L123.352 139.855L100.557 153.012L137.463 174.379C140.128 175.862 142.002 178.434 142.694 181.402L143.878 186.249C143.878 186.249 145.457 192.085 149.208 194.558C152.957 197.031 161.937 193.174 164.996 190.799C167.561 188.722 168.845 186.645 169.141 184.963L167.66 178.83L166.871 174.379Z" fill="#EAEBF4"/>
<path d="M146.543 182.193L147.727 189.019C147.727 189.019 149.305 194.855 153.056 197.328C156.806 199.801 165.786 195.943 168.845 193.569C171.41 191.492 172.693 189.415 172.99 187.733L171.509 181.6L170.719 177.148C170.128 173.587 168.648 170.323 166.674 167.454L148.516 177.94C147.037 178.731 146.247 180.413 146.543 182.094V182.193Z" fill="#6A76B8"/>
<path d="M172.496 185.359C171.903 186.645 170.226 189.81 167.463 191.69C165.39 193.273 159.963 195.746 156.411 195.746C152.857 195.746 154.931 195.647 154.535 195.35C152.167 193.767 150.589 189.909 150.193 188.524L149.009 181.798C148.911 181.105 149.207 180.413 149.799 180.116L168.055 169.532C167.66 168.839 167.266 168.147 166.773 167.553L148.615 178.039C147.134 178.83 146.344 180.512 146.641 182.193L147.825 189.019C147.825 189.019 149.405 194.855 153.154 197.328C153.944 197.922 155.128 198.12 156.411 198.12C160.753 198.12 166.674 195.35 168.944 193.569C171.509 191.492 172.792 189.415 173.087 187.733L172.496 185.359Z" fill="#3D4DA2"/>
<path d="M73.2217 110.872C73.2217 110.872 67.3992 111.366 61.7753 114.631C56.1499 117.895 50.4266 124.028 50.4266 124.028L81.0181 126.303L73.2217 110.872Z" fill="#EAEBF4"/>
<path d="M73.2216 110.872L123.352 139.855L100.557 153.012L50.5259 124.028L73.2216 110.872Z" fill="#EAEBF4"/>
<path d="M50.5259 124.028V150.44L100.557 179.423V153.012L50.5259 124.028Z" fill="white"/>
<path d="M50.5259 145.098L100.557 174.082V179.423L50.5259 150.44V145.098Z" fill="#CCD0E6"/>
<path d="M114.274 168.147V173.884C114.274 175.17 112.892 175.961 111.707 175.368L96.0182 166.267C95.0313 165.674 94.3407 164.585 94.3407 163.399V157.661C94.3407 156.375 95.7219 155.584 96.9059 156.177L112.597 165.278C113.584 165.871 114.274 166.96 114.274 168.147Z" fill="#F7D14A"/>
<path d="M73.2216 144.406V150.143C73.2216 151.429 71.8405 152.22 70.6564 151.627L54.9658 142.526C53.9788 141.933 53.2882 140.844 53.2882 139.657V133.92C53.2882 132.634 54.6694 131.843 55.8534 132.436L71.5441 141.537C72.5311 142.13 73.2216 143.219 73.2216 144.406Z" fill="#DC7885"/>
<path d="M118.813 189.909V171.114C118.813 169.433 120.688 168.344 122.168 169.136L128.582 172.895C129.668 173.587 130.359 174.774 130.359 176.06V196.636L118.714 189.909H118.813Z" fill="#F7D14A"/>
<path d="M129.175 176.753V182.391C129.175 183.677 127.792 184.567 126.608 183.875L121.675 181.006C120.688 180.413 119.997 179.325 119.997 178.138V171.51C119.997 170.62 120.984 170.125 121.675 170.521L127.398 173.884C128.385 174.478 129.076 175.566 129.076 176.753H129.175Z" fill="#DC7885"/>
<path d="M124.833 171.906L124.142 171.411V172.103L124.043 181.6V190.404L124.833 190.799V181.995V172.499V171.906Z" fill="#F7D14A"/>
<path d="M77.86 166.168V147.373C77.86 145.691 79.7347 144.603 81.2151 145.395L87.6289 149.154C88.7152 149.846 89.4057 151.033 89.4057 152.319V172.895L77.7607 166.168H77.86Z" fill="#F7D14A"/>
<path d="M88.1225 153.012V158.65C88.1225 159.936 86.7414 160.826 85.5573 160.134L80.6225 157.265C79.637 156.672 78.9449 155.584 78.9449 154.397V147.769C78.9449 146.879 79.9319 146.384 80.6225 146.78L86.3472 150.143C87.3341 150.737 88.0247 151.825 88.0247 153.012H88.1225Z" fill="#DC7885"/>
<path d="M83.8796 148.165L83.189 147.769V148.362L83.0897 157.859V166.663L83.8796 167.058V158.254V148.857V148.165Z" fill="#F7D14A"/>
</g>
<path d="M105.945 40.5961C105.945 34.3985 110.084 30.4331 116.915 30.4331C123.745 30.4331 121.801 31.0772 123.147 31.7711V36.2334C121.252 34.9939 118.959 34.3985 116.964 34.3985C113.874 34.3985 110.832 36.0354 110.832 40.0505C110.832 44.0657 112.926 46.3466 116.765 46.3466C120.603 46.3466 118.36 46.247 119.109 46.0987V42.4798H116.217V38.8608H123.745V48.528C121.751 49.5683 119.607 50.1637 116.117 50.1637C110.034 50.1637 105.945 47.0406 105.945 40.5463V40.5961ZM126.637 49.8162V39.754L126.089 35.9867H130.278L130.677 37.8205C131.624 36.5312 132.871 35.6392 134.914 35.6392H135.513V39.6057C135.02 39.5108 134.519 39.4608 134.017 39.4562C132.77 39.4562 131.723 39.8536 130.925 40.646V49.7675H126.637V49.8162ZM144.836 47.9326C143.939 49.42 142.543 50.2135 140.349 50.2135C138.155 50.2135 136.26 48.6763 136.26 46.3466C136.26 44.017 138.354 41.7859 142.044 41.7859C145.734 41.7859 143.888 41.8843 144.686 42.0824C144.586 40.2984 143.839 39.5547 142.044 39.5547C140.249 39.5547 138.354 40.0505 137.108 40.9425V37.1254C138.354 36.2821 140.598 35.638 142.742 35.638C146.931 35.638 149.025 37.2737 149.025 41.1904V46.7926L149.323 49.8162H145.037L144.838 47.8827L144.836 47.9326ZM144.737 46.2968V44.6113C144.168 44.4529 143.581 44.3696 142.991 44.3634C141.446 44.3634 140.748 44.8094 140.748 45.6527C140.748 46.4949 141.047 46.9907 142.443 46.9907C143.839 46.9907 144.088 46.744 144.737 46.2968ZM151.767 49.8162V39.754L151.218 35.9867H155.406L155.805 37.8703C156.802 36.5312 158.198 35.6392 160.292 35.6392C162.387 35.6392 165.029 36.8289 165.029 40.2996V49.8173H160.741V42.0824C160.741 40.1003 159.993 39.3068 158.497 39.3068C157.002 39.3068 156.802 39.7528 156.055 40.5463V49.8162H151.767ZM181.532 30.0856V49.8162H177.892L177.493 47.9824C176.296 49.4698 174.951 50.1139 172.807 50.1139C169.417 50.1139 167.123 47.5364 167.123 43.2235C167.123 38.9106 169.964 35.6878 173.455 35.6878C176.945 35.6878 176.347 36.1836 177.244 37.3235V30.0856H181.532ZM177.244 45.3052V40.844C176.546 39.6543 175.748 39.0091 174.602 39.0091C172.856 39.0091 171.71 40.4467 171.71 42.876C171.71 45.3052 172.757 46.8923 174.552 46.8923C176.347 46.8923 176.397 46.3965 177.244 45.3052ZM191.554 30.7297H197.936C202.622 30.7297 206.212 32.3666 206.212 37.3235C206.212 42.2817 203.52 44.3136 197.886 44.3136H196.191V49.866H191.504V30.7297H191.554ZM196.241 34.4483V40.4965H197.188C200.029 40.4965 201.426 39.5049 201.426 37.473C201.426 35.4411 199.88 34.4494 197.088 34.4494H196.191L196.241 34.4483ZM216.085 47.9326C215.187 49.42 213.791 50.2135 211.597 50.2135C209.403 50.2135 207.509 48.6763 207.509 46.3466C207.509 44.017 209.603 41.7859 213.293 41.7859C216.982 41.7859 215.137 41.8843 215.935 42.0824C215.835 40.2984 215.088 39.5547 213.293 39.5547C211.498 39.5547 209.603 40.0505 208.356 40.9425V37.1254C209.603 36.2821 211.846 35.638 213.991 35.638C218.178 35.638 220.272 37.2737 220.272 41.1904V46.7926L220.571 49.8162H216.283L216.085 47.8827V47.9326ZM215.985 46.2968V44.6113C215.417 44.4529 214.83 44.3696 214.239 44.3634C212.694 44.3634 211.996 44.8094 211.996 45.6527C211.996 46.4949 212.295 46.9907 213.692 46.9907C215.088 46.9907 215.336 46.744 215.985 46.2968ZM223.563 49.8162V39.754L223.015 35.9867H227.204L227.602 37.8205C228.549 36.5312 229.795 35.6392 231.84 35.6392H232.438V39.6057C231.946 39.5108 231.445 39.4608 230.943 39.4562C229.695 39.4562 228.649 39.8536 227.851 40.646V49.7675H223.563V49.8162ZM234.682 34.0521V30.0856H239.119V34.0521H234.682ZM234.781 49.8162V35.9844H239.07V49.8162H234.781ZM241.911 49.0238V45.4535C244.056 46.3455 245.701 46.7428 247.246 46.7428C248.792 46.7428 249.44 46.5447 249.44 45.9006C249.44 45.2554 247.795 44.9588 246.448 44.7098C243.207 44.1155 241.811 42.8261 241.811 40.4467C241.811 38.0673 244.654 35.7376 247.894 35.7376C251.135 35.7376 251.733 36.1338 252.98 36.7779V40.3482C251.185 39.4562 249.739 39.0589 248.293 39.0589C246.848 39.0589 246.05 39.4551 246.05 40.0505C246.05 40.6448 247.595 41.092 248.892 41.3399C250.388 41.5866 253.579 41.9341 253.579 45.355C253.579 48.7759 250.587 50.1139 246.997 50.1139C243.407 50.1139 243.407 49.7177 241.862 49.0725L241.911 49.0238ZM126.139 67.4152C126.139 62.8046 128.981 59.8807 133.02 59.8807C137.058 59.8807 139.801 62.6563 139.801 68.1589H130.527C130.925 69.8943 132.222 70.6878 134.266 70.6878C136.311 70.6878 137.707 70.3901 139.352 69.3985V72.7197C137.806 73.7612 135.513 74.3068 133.319 74.3068C128.782 74.3068 126.089 71.8277 126.089 67.465L126.139 67.4152ZM130.477 65.6312H135.363C135.214 63.9955 134.665 63.0039 133.02 63.0039C131.375 63.0039 130.726 63.8959 130.477 65.6312ZM148.376 64.1438L151.069 60.2283H155.556L150.27 66.9194L155.804 74.0589H150.668L147.927 70.0924L145.283 74.0589H140.649L146.034 67.3666L140.898 60.2271H145.984L148.376 64.1438ZM157.799 79.6611V63.9457L157.251 60.1773H161.44L161.839 62.0123C162.836 60.6233 164.232 59.8807 165.877 59.8807C169.367 59.8807 171.96 62.4084 171.96 66.9704C171.96 71.53 169.666 74.3068 166.276 74.3068C162.885 74.3068 163.135 73.7623 162.038 72.6711V79.6611H157.75H157.799ZM162.087 64.6894V69.746C162.836 70.6878 163.633 71.084 164.581 71.084C166.376 71.084 167.422 69.3985 167.422 67.0688C167.422 64.7392 166.276 63.202 164.53 63.202C162.784 63.202 162.735 63.7464 162.087 64.7381V64.6894ZM174.452 74.0091V63.9457L173.904 60.1773H178.093L178.491 62.0123C179.438 60.7229 180.685 59.8309 182.729 59.8309H183.327V63.7963C182.834 63.7018 182.334 63.6521 181.832 63.648C180.586 63.648 179.538 64.0442 178.74 64.8377V73.9593H174.452V74.0091ZM184.624 67.4152C184.624 62.8046 187.465 59.8807 191.505 59.8807C195.544 59.8807 198.285 62.6563 198.285 68.1589H189.012C189.411 69.8943 190.707 70.6878 192.751 70.6878C194.794 70.6878 196.191 70.3901 197.837 69.3985V72.7197C196.29 73.7612 193.997 74.3068 191.803 74.3068C187.266 74.3068 184.573 71.8277 184.573 67.465L184.624 67.4152ZM188.961 65.6312H193.848C193.698 63.9955 193.15 63.0039 191.505 63.0039C189.86 63.0039 189.211 63.8959 188.961 65.6312ZM200.778 73.2155V69.6475C202.921 70.5395 204.567 70.9357 206.113 70.9357C207.659 70.9357 208.306 70.7376 208.306 70.0924C208.306 69.4471 206.662 69.1506 205.315 68.9027C202.074 68.3084 200.678 67.019 200.678 64.6396C200.678 62.2602 203.52 59.9294 206.761 59.9294C210.003 59.9294 210.6 60.3267 211.846 60.972V64.54C210.051 63.648 208.606 63.2518 207.16 63.2518C205.715 63.2518 204.916 63.648 204.916 64.2423C204.916 64.8377 206.462 65.2848 207.759 65.5316C209.253 65.7795 212.444 66.127 212.444 69.5479C212.444 72.9676 209.453 74.3068 205.864 74.3068C202.275 74.3068 202.274 73.9095 200.727 73.2654L200.778 73.2155ZM214.689 73.2155V69.6475C216.832 70.5395 218.478 70.9357 220.023 70.9357C221.569 70.9357 222.217 70.7376 222.217 70.0924C222.217 69.4471 220.572 69.1506 219.226 68.9027C215.985 68.3084 214.589 67.019 214.589 64.6396C214.589 62.2602 217.431 59.9294 220.672 59.9294C223.914 59.9294 224.511 60.3267 225.757 60.972V64.54C223.962 63.648 222.517 63.2518 221.071 63.2518C219.626 63.2518 218.827 63.648 218.827 64.2423C218.827 64.8377 220.373 65.2848 221.668 65.5316C223.164 65.7795 226.355 66.127 226.355 69.5479C226.355 72.9676 223.364 74.3068 219.775 74.3068C216.186 74.3068 216.185 73.9095 214.638 73.2654L214.689 73.2155ZM148.127 24.4834H89.2433C88.9473 24.4837 88.6542 24.4261 88.3809 24.314C88.1076 24.2018 87.8595 24.0373 87.651 23.83C87.4424 23.6227 87.2775 23.3766 87.1658 23.106C87.0541 22.8354 86.9978 22.5456 87.0001 22.2534C87.0001 21.0138 87.9973 20.0222 89.2433 20.0222H148.177C149.424 20.0222 150.42 21.0138 150.42 22.2534C150.42 23.4929 149.422 24.4834 148.177 24.4834H148.127ZM296.706 34.4483H287.033C286.737 34.4486 286.444 34.391 286.171 34.2788C285.897 34.1666 285.649 34.002 285.44 33.7945C285.232 33.5871 285.067 33.3408 284.955 33.0701C284.844 32.7994 284.787 32.5094 284.79 32.2171C284.79 30.9776 285.787 29.9871 287.033 29.9871H296.706C297.952 29.9871 298.95 30.9788 298.95 32.2171C298.95 33.4567 297.952 34.4483 296.706 34.4483ZM93.1325 64.6894H89.2433C88.9472 64.6897 88.654 64.6321 88.3807 64.5199C88.1073 64.4077 87.8591 64.2431 87.6506 64.0356C87.442 63.8282 87.2771 63.582 87.1655 63.3112C87.0538 63.0405 86.9976 62.7506 87.0001 62.4583C87.0001 61.2187 87.9973 60.2271 89.2433 60.2271H93.1325C94.3785 60.2271 95.3757 61.2187 95.3757 62.4583C95.3757 63.6978 94.3785 64.6894 93.1325 64.6894ZM277.41 62.4084H251.334C251.038 62.4088 250.745 62.3511 250.472 62.2389C250.198 62.1267 249.95 61.9621 249.742 61.7547C249.533 61.5472 249.368 61.301 249.257 61.0302C249.145 60.7595 249.089 60.4696 249.091 60.1773C249.091 58.9377 250.088 57.9473 251.334 57.9473H277.41C278.658 57.9473 279.655 58.9377 279.655 60.1773C279.655 61.4168 278.658 62.4084 277.41 62.4084ZM296.706 90.0222H128.383C128.087 90.0227 127.794 89.9652 127.52 89.853C127.247 89.7409 126.998 89.5763 126.79 89.3689C126.581 89.1614 126.416 88.9151 126.304 88.6443C126.193 88.3735 126.136 88.0835 126.139 87.7911C126.139 86.5515 127.136 85.5599 128.383 85.5599H296.757C298.003 85.5599 299 86.5515 299 87.7911C299 89.0306 298.003 90.0222 296.757 90.0222H296.706Z" fill="#FFF9FA"/>
<path d="M318.732 43.3959C318.903 42.8781 319.018 42.3025 319.075 42.0725C319.419 42.0725 320.511 41.8425 320.912 41.669C320.682 42.4168 320.338 43.6259 320.108 44.4315C320.74 43.6259 321.659 42.6482 322.863 42.6482C324.068 42.6482 324.299 43.3959 324.299 44.375C324.299 46.0428 323.323 48.0575 321.715 48.8066C321.247 49.0234 320.739 49.1407 320.223 49.1509C319.764 49.1509 319.19 49.0366 318.96 48.7474C318.674 49.8422 318.444 50.6478 318.329 51.1656C318.271 51.5113 318.329 51.5691 318.616 51.6269H319.534C319.534 51.6834 319.419 52.1447 319.419 52.1447H317.411C316.664 52.1447 315.804 52.1447 315 52.259L315.172 51.7991L315.804 51.6834C316.09 51.6834 316.263 51.5691 316.378 51.2235C317.008 49.4387 317.812 46.6776 318.444 44.4315C318.1 44.6615 317.526 44.8928 317.296 44.9493C317.296 44.835 317.181 44.7207 317.123 44.605C317.755 44.3172 318.386 43.8559 318.73 43.3381L318.732 43.3959ZM320.166 45.525C319.822 46.1006 319.419 47.2519 319.419 47.8853C319.419 48.5188 319.707 48.6923 320.108 48.6923C320.509 48.6923 320.797 48.5174 321.199 48.0575C321.888 47.194 322.462 45.4685 322.462 44.3172C322.462 43.166 322.347 43.6259 322.06 43.6259C321.486 43.6259 320.74 44.5472 320.223 45.5828L320.166 45.525ZM325.733 42.9938C326.71 42.9938 328.086 42.8203 328.833 42.6482C328.432 43.6838 327.399 46.8497 327.169 48.001C327.169 48.1731 327.169 48.3453 327.284 48.3453C327.57 48.3453 328.259 47.7697 328.604 47.0219L328.89 47.3675C328.201 48.5753 327.341 49.2101 326.193 49.2101C325.045 49.2101 324.988 48.6331 325.332 47.4818C325.677 46.3884 326.251 44.7193 326.48 43.7994C326.48 43.6259 326.48 43.5116 326.366 43.5116H325.504L325.677 43.0503L325.733 42.9938ZM329.121 40.7478C329.121 41.4969 328.547 41.899 327.973 41.899C327.399 41.899 327.111 41.5547 327.111 40.9213C327.111 40.1143 327.743 39.77 328.259 39.77C328.776 39.77 329.119 40.1156 329.119 40.7491M330.785 39.7122C332.104 39.7122 333.425 39.5978 333.941 39.4243C333.655 40.1721 333.196 41.4391 332.507 43.8559C331.933 45.9284 331.53 47.1375 331.359 47.8853C331.359 48.1153 331.359 48.231 331.474 48.231C331.818 48.231 332.449 47.6553 332.793 46.964L333.081 47.3097C332.449 48.5188 331.474 49.1523 330.382 49.1523C329.292 49.1523 329.234 48.461 329.522 47.3097C329.808 46.2741 330.153 45.295 330.612 43.7994C331.244 41.669 331.416 41.0356 331.53 40.46C331.53 40.2313 331.53 40.1735 331.359 40.1735H330.612L330.727 39.7122H330.785ZM340.255 44.9493C340.255 46.3319 339.51 47.8853 338.362 48.6344C337.695 49.0057 336.945 49.2032 336.181 49.2087C334.974 49.2087 333.712 48.8631 333.712 46.964C333.712 45.065 334.4 44.2016 335.492 43.3959C336.181 42.936 336.984 42.6482 337.788 42.6482C339.337 42.6482 340.255 43.3959 340.255 44.9493ZM336.811 43.7994C336.181 44.7193 335.607 46.6776 335.607 47.7697C335.607 48.8631 335.893 48.7488 336.237 48.7488C336.582 48.7488 336.811 48.5753 337.099 48.1731C337.73 47.3097 338.419 45.1228 338.419 44.0294C338.419 43.6259 338.304 43.1081 337.845 43.1081C337.385 43.1081 337.214 43.2803 336.869 43.7994H336.811ZM345.019 47.5397C344.445 48.6331 343.412 49.2087 342.322 49.2087C341.232 49.2087 340.829 48.5766 341.174 47.4254C341.518 46.2149 342.092 44.4315 342.322 43.5116H341.345C341.345 43.4538 341.575 42.936 341.575 42.936H342.493C342.666 42.2447 342.838 41.669 342.953 41.2091C343.641 41.2091 344.675 40.9791 345.134 40.8634C345.019 41.1512 344.675 42.1868 344.445 42.9925H345.881L345.651 43.4538H344.273C344.044 44.3172 343.182 47.194 342.953 48.0575C342.896 48.3453 342.953 48.5188 343.182 48.5188C343.699 48.5188 344.503 47.7118 344.733 47.0219L344.962 47.5975L345.019 47.5397ZM351.275 47.4254C350.701 48.2875 349.553 49.1509 347.889 49.1509C346.225 49.1509 345.823 48.461 345.823 47.0797C345.823 45.6985 346.455 44.2016 347.718 43.2803C348.406 42.8203 349.152 42.5903 349.841 42.5903C351.104 42.5903 351.678 43.2224 351.678 44.1437C351.678 45.065 351.16 45.2372 350.701 45.4107C350.012 45.6985 348.52 46.0428 347.946 46.1006C347.946 46.3306 347.831 46.7341 347.831 47.0797C347.831 47.8275 348.061 48.3453 348.808 48.3453C349.554 48.3453 350.415 47.8275 350.989 46.5619H351.218V47.3097L351.275 47.4254ZM348.061 45.6406C348.463 45.6406 349.094 45.4107 349.323 45.295C349.841 45.065 350.07 44.4315 350.07 43.7994C350.07 43.1673 349.956 43.166 349.668 43.166C349.38 43.166 348.635 43.5116 348.061 45.6985V45.6406ZM349.094 41.8412C349.438 41.3812 350.3 39.9422 350.586 39.5979C350.816 39.2522 351.218 39.0222 351.505 39.0222C351.791 39.0222 352.022 39.2509 352.022 39.6543C352.022 40 351.734 40.3456 351.505 40.5756C351.218 40.8634 350.357 41.4391 349.438 42.1304L349.152 41.899L349.094 41.8412ZM356.614 43.3959C356.786 42.8781 356.9 42.3025 356.959 42.0725C357.303 42.0725 358.393 41.8425 358.795 41.669C358.566 42.4168 358.221 43.6259 357.992 44.4315C358.623 43.6259 359.541 42.6482 360.747 42.6482C361.952 42.6482 362.181 43.3959 362.181 44.375C362.181 46.0428 361.206 48.0575 359.599 48.8066C359.131 49.0234 358.623 49.1407 358.107 49.1509C357.647 49.1509 357.073 49.0366 356.844 48.7474C356.556 49.8422 356.326 50.6478 356.212 51.1656C356.155 51.5113 356.212 51.5691 356.499 51.6269H357.418C357.418 51.6834 357.303 52.1447 357.303 52.1447H355.293C354.548 52.1447 353.686 52.1447 352.882 52.259L353.055 51.7991L353.686 51.6834C353.974 51.6834 354.145 51.5691 354.26 51.2235C354.892 49.4387 355.696 46.6776 356.326 44.4315C355.982 44.6615 355.408 44.8928 355.178 44.9493C355.178 44.835 355.064 44.7207 355.007 44.605C355.638 44.3172 356.27 43.8559 356.614 43.3381V43.3959ZM358.049 45.525C357.704 46.1006 357.303 47.2519 357.303 47.8853C357.303 48.5188 357.589 48.6923 357.992 48.6923C358.393 48.6923 358.681 48.5174 359.082 48.0575C359.771 47.194 360.345 45.4685 360.345 44.3172C360.345 43.166 360.23 43.6259 359.943 43.6259C359.369 43.6259 358.623 44.5472 358.107 45.5828L358.049 45.525ZM370.389 47.3097C369.988 48.1166 369.184 49.1523 367.864 49.1523C366.544 49.1523 366.83 48.4031 367.06 47.7132C367.06 47.6553 367.06 47.5397 367.118 47.4818C366.601 48.2888 365.682 49.2087 364.363 49.2087C363.043 49.2087 363.1 48.5766 363.1 47.5975C363.1 46.0428 364.018 44.1437 365.338 43.2803C365.849 42.8938 366.476 42.6914 367.118 42.706C367.692 42.706 368.208 42.9925 368.381 43.2803L368.496 42.8768H370.332C369.873 44.1437 369.07 46.9062 368.897 47.7697C368.897 48.001 368.84 48.2875 369.012 48.2875C369.299 48.2875 369.815 47.7697 370.216 47.0797L370.504 47.3675L370.389 47.3097ZM365.396 48.231C365.855 48.231 366.429 47.7132 367.118 46.5041C367.404 45.9863 367.978 44.605 367.978 44.0294C367.978 43.4538 367.749 43.2803 367.404 43.2803C367.06 43.2803 366.83 43.4538 366.486 43.7994C365.682 44.7193 365.052 46.4462 365.052 47.5975C365.052 48.7488 365.166 48.2875 365.453 48.2875L365.396 48.231ZM371.481 43.0503C372.284 43.0503 373.547 42.8781 374.293 42.6468C374.293 43.2238 374.006 44.2016 373.833 44.8928H373.89C374.694 43.166 375.326 42.6468 376.071 42.6468C376.818 42.6468 376.933 43.166 376.933 43.5681C376.933 44.4315 376.359 44.8928 375.842 44.8928C375.326 44.8928 375.441 44.7772 375.382 44.605C375.326 44.3751 375.268 44.2594 375.039 44.2594C374.694 44.2594 374.178 45.0072 373.775 45.9863C373.432 46.7341 373.144 47.654 372.8 48.9209C372.129 48.9212 371.458 48.9598 370.792 49.0366C371.308 47.5975 372.169 44.7772 372.284 43.7416C372.284 43.5116 372.284 43.4538 372.055 43.4538H371.308L371.481 42.9925V43.0503ZM504.185 55.1385H501.716V55.885C501.716 56.7484 501.257 57.3819 500.34 57.3819H499.708V59.7987H501.486V64.576C501.486 66.3607 502.634 67.4541 504.471 67.4541C506.308 67.4541 505.792 67.2819 505.907 67.2241V64.9216C505.734 64.9216 505.448 65.0373 505.16 65.0373C504.586 65.0373 504.185 64.8638 504.185 64.116V59.7987H506.481V57.3819H504.185V55.1385ZM461.193 54.4472V67.3398H464.063V62.9069H466.647C469.171 62.9069 470.951 61.18 471.008 58.821V67.3398H473.763V63.426C473.763 61.6413 474.74 60.9514 475.888 60.9514C477.036 60.9514 476.404 60.9514 476.692 61.0078C476.462 61.5256 476.347 62.1591 476.347 62.7926C476.347 65.6129 478.47 67.5698 481.111 67.5698C483.751 67.5698 485.875 65.5551 485.875 62.7926C485.875 60.0301 483.808 58.0154 481.111 58.0154C478.414 58.0154 477.437 59.1088 476.692 60.8357V58.2453C476.519 58.2453 476.232 58.1297 475.945 58.1297C475.199 58.1297 474.108 58.4175 473.592 59.4544V58.2453H470.951V58.4753C470.893 56.1728 469.115 54.4472 466.589 54.4472H461.136H461.193ZM466.359 60.3744H464.063V56.9219H466.359C467.449 56.9219 468.196 57.6119 468.196 58.6488C468.196 59.6844 467.449 60.3744 466.359 60.3744ZM481.168 65.0373C480.134 65.0373 479.159 64.2881 479.159 62.7912C479.159 61.2943 480.134 60.5479 481.168 60.5479C482.201 60.5479 483.177 61.2378 483.177 62.7926C483.177 64.346 482.201 65.0373 481.168 65.0373ZM511.303 61.6991L510.097 61.4678C509.696 61.4113 509.408 61.18 509.408 60.7779C509.408 60.3757 509.867 59.9709 510.384 59.9709C511.245 59.9709 511.589 60.49 511.647 61.0657L513.942 60.6622C513.827 59.6266 512.967 57.9575 510.326 57.9575C507.686 57.9575 506.882 59.2809 506.882 60.95C506.882 62.6191 507.629 63.3104 509.581 63.7125L510.614 63.9438C511.303 64.116 511.474 64.3473 511.474 64.6916C511.474 65.0359 511.13 65.4986 510.441 65.4986C509.752 65.4986 509.063 64.9216 509.007 64.2881L506.653 64.6916C506.711 65.6694 507.629 67.5119 510.441 67.5119C513.253 67.5119 514 66.015 514 64.4616C514 62.9069 513.082 61.987 511.245 61.6413M495.288 58.0154C492.934 58.0154 490.811 59.8579 490.811 62.7926C490.811 65.7272 493.049 67.6263 495.518 67.6263C497.987 67.6263 499.248 66.3028 499.651 64.7481L497.355 64.116C497.125 64.8059 496.551 65.3251 495.518 65.3251C494.485 65.3251 493.508 64.5759 493.452 63.5982H499.708V62.7347C499.708 59.8566 497.986 58.1297 495.174 58.1297M493.566 61.6991C493.566 61.0078 494.197 60.1444 495.345 60.1444C496.493 60.1444 497.125 61.0078 497.182 61.6991H493.566ZM486.966 67.6841C486.966 68.2597 486.678 68.6054 486.047 68.6054C485.417 68.6054 485.359 68.5475 485.244 68.4897V70.7922C485.359 70.7922 485.818 71.0222 486.793 71.0222C488.63 71.0222 489.778 69.7566 489.778 67.9719V59.2231H487.023V67.6276L486.966 67.6841ZM486.966 57.9575H489.72V55.7128H486.966V57.9575ZM413.496 54.3894C412.91 54.2695 412.314 54.2113 411.716 54.2159C408.1 54.2159 405.058 56.9798 405.058 60.95C405.058 64.9216 407.985 67.6276 411.774 67.6276C415.562 67.6276 417.744 64.5195 417.858 61.5835V67.3963H420.614V63.4825C420.614 61.6991 421.589 61.0078 422.737 61.0078C423.885 61.0078 423.311 61.0078 423.54 61.1235L425.951 61.6413C425.951 60.95 426.525 60.3179 427.5 60.3179C428.477 60.3179 428.821 60.7779 428.821 61.2957C428.821 61.8135 428.648 61.8135 428.189 61.9278L426.066 62.2748C424.574 62.5034 423.426 63.4247 423.426 64.9781C423.426 66.5328 424.574 67.7419 426.525 67.7419C428.477 67.7419 428.592 67.2241 429.051 66.4763L429.281 67.5119H431.978C431.806 67.1663 431.519 66.1307 431.519 65.3816V61.6991C431.519 59.8566 430.429 58.1889 427.559 58.1889C424.688 58.1889 424 59.5688 423.655 60.7779V58.474C423.482 58.474 423.196 58.3597 422.908 58.3597C422.163 58.3597 421.015 58.6461 420.556 59.6831V58.474H417.915V60.6044H410.682V63.079H414.93C414.644 64.4603 413.208 65.0937 411.83 65.0937C409.765 65.0937 408.043 63.7112 408.043 61.0643C408.043 58.4162 409.995 57.0349 411.774 57.0349C413.553 57.0349 414.07 57.7262 414.529 58.3597L417.111 56.9771C416.32 55.7591 415.086 54.8931 413.667 54.5602M428.707 63.8268C428.707 65.2081 427.845 65.6115 427.041 65.6115C426.238 65.6115 425.951 65.1502 425.951 64.6903C425.951 64.2303 426.41 63.769 426.985 63.7112L428.707 63.4233V63.8268ZM450.689 54.2146H447.992V59.0496C447.763 58.704 447.13 58.1283 445.581 58.1283C443.056 58.1283 441.219 60.143 441.219 62.7912V61.6978C441.219 59.7409 440.186 58.1283 437.948 58.1283C435.71 58.1283 435.938 58.5318 435.422 59.3953V58.3597H432.781V67.3949H435.537V62.2156C435.537 61.2943 436.111 60.6608 437.029 60.6608C437.948 60.6608 438.522 61.3521 438.522 62.2156V67.3949H441.277V62.9055C441.277 65.6694 443.228 67.6263 445.753 67.6263C448.278 67.6263 447.934 66.9928 448.279 66.4158L448.796 67.4528H450.862C450.862 67.2806 450.804 66.6471 450.804 65.8415V54.3289L450.689 54.2146ZM445.926 65.0937C444.834 65.0937 443.917 64.3446 443.917 62.8477C443.917 61.3508 444.892 60.6044 445.926 60.6044C446.959 60.6044 447.934 61.3521 447.934 62.8477C447.934 64.3446 446.959 65.0937 445.926 65.0937ZM455.799 61.7543L454.593 61.5256C454.192 61.4665 453.904 61.2365 453.904 60.8343C453.904 60.4322 454.363 60.0274 454.88 60.0274C455.684 60.0274 456.085 60.5465 456.142 61.1222L458.438 60.7187C458.323 59.6831 457.463 58.014 454.822 58.014C452.182 58.014 451.378 59.3374 451.378 61.0065C451.378 62.6756 452.125 63.3669 454.077 63.769L455.11 63.999C455.799 64.1725 455.97 64.4025 455.97 64.7481C455.97 65.0937 455.626 65.5537 454.937 65.5537C454.248 65.5537 453.559 64.9781 453.503 64.3446L451.149 64.7481C451.207 65.7259 452.125 67.5684 454.937 67.5684C457.749 67.5684 458.496 66.0715 458.496 64.5181C458.496 62.9634 457.578 62.0434 455.741 61.6978M380.893 67.5119C381.87 67.5119 382.845 66.8206 383.419 66.3028L384.051 67.3384H386.059C386.059 67.1663 386.002 66.5328 386.002 65.7272V62.9069C386.059 65.8429 388.24 67.5698 390.651 67.5698C393.062 67.5698 394.382 66.245 394.784 64.6916L392.488 64.0595C392.259 64.7494 391.685 65.2672 390.651 65.2672C389.618 65.2672 388.642 64.5195 388.585 63.5403H394.841V62.6769C394.841 59.7987 393.119 58.0732 390.307 58.0732C387.495 58.0732 385.888 59.8566 385.83 62.6769V54.2173H383.132V59.051C382.903 58.7053 382.271 58.1297 380.722 58.1297C378.196 58.1297 376.359 60.1444 376.359 62.8504C376.359 65.5537 378.253 67.5698 380.778 67.5698H380.836L380.893 67.5119ZM390.422 60.2022C391.741 60.2022 392.2 61.0657 392.259 61.7556H388.642C388.642 61.0657 389.274 60.2022 390.422 60.2022ZM379.171 62.7926C379.171 61.2957 380.147 60.5465 381.181 60.5465C382.214 60.5465 383.189 61.2957 383.189 62.7926C383.189 64.2895 382.214 65.0373 381.181 65.0373C380.147 65.0373 379.171 64.2895 379.171 62.7926ZM398.801 65.5537C397.884 65.5537 397.425 64.9781 397.367 64.3446L395.014 64.7481C395.071 65.7259 395.989 67.5684 398.801 67.5684C401.614 67.5684 402.36 66.0715 402.36 64.5181C402.36 62.9634 401.441 62.0434 399.605 61.6978L398.4 61.4665C397.999 61.41 397.711 61.1786 397.711 60.7765C397.711 60.3744 398.17 59.9696 398.686 59.9696C399.548 59.9696 399.892 60.4887 399.949 61.0643L402.245 60.6608C402.13 59.6252 401.27 57.9562 398.629 57.9562C395.989 57.9562 395.185 59.2796 395.185 60.9487C395.185 62.6177 395.932 63.309 397.884 63.7112L398.916 63.9425C399.605 64.1146 399.777 64.346 399.777 64.6903C399.777 65.0346 399.433 65.4972 398.744 65.4972M371.136 53.9859L365.74 55.0794V57.0941L371.136 56.0007V53.9859ZM347.315 55.5972H344.56V57.8432H347.315V55.5972ZM359.082 64.4603C359.082 66.245 360.23 67.3384 362.067 67.3384C363.903 67.3384 363.388 67.1663 363.502 67.1098V64.8059C363.329 64.8059 363.043 64.9216 362.755 64.9216C362.181 64.9216 361.78 64.7494 361.78 64.0003V59.6831H364.076V57.2676H361.78V54.7929H359.311V55.8285C359.311 56.6919 358.852 57.3241 357.934 57.3241H357.303V59.7423H359.082V64.5195V64.4603ZM355.696 53.9859L350.3 55.0794V57.0941L355.696 56.0007V53.9859ZM347.315 59.1666H344.56V67.2228H347.315V59.1666ZM368.61 67.5119C370.906 67.5119 372.341 66.1885 372.743 64.6338L370.447 64.0017C370.218 64.6916 369.644 65.2094 368.61 65.2094C367.577 65.2094 366.601 64.4616 366.544 63.4825H372.8V62.6191C372.8 59.7409 371.078 58.0154 368.266 58.0154C365.454 58.0154 363.789 59.8579 363.789 62.7926C363.789 65.7272 366.028 67.6263 368.496 67.6263M368.438 60.0866C369.758 60.0866 370.218 60.8935 370.274 61.5835H366.659C366.659 60.8922 367.29 60.0866 368.438 60.0866ZM352.022 67.3963C352.366 67.4541 352.711 67.5119 353.112 67.5119C355.408 67.5119 356.844 66.1885 357.245 64.6338L354.949 64.0017C354.719 64.6916 354.145 65.2094 353.112 65.2094C352.08 65.2094 351.104 64.4616 351.046 63.4825H357.303V62.6191C357.303 59.7409 355.581 58.0154 352.768 58.0154C349.956 58.0154 348.292 59.8579 348.292 62.7926C348.292 65.7272 349.841 66.9941 351.736 67.4541M352.94 60.0866C354.261 60.0866 354.721 60.8935 354.777 61.5835H351.162C351.162 60.8922 351.792 60.0866 352.94 60.0866ZM322.347 67.1663C324.126 66.4763 325.045 64.9794 325.045 63.4825C325.389 65.9007 327.341 67.5119 329.752 67.5119C332.162 67.5119 334.458 65.5551 334.515 62.8491C334.573 65.6129 336.696 67.5119 339.337 67.5119C341.977 67.5119 343.24 65.9572 343.641 64.346L341.231 63.5982C341.059 64.2881 340.428 64.9216 339.394 64.9216C338.362 64.9216 337.27 64.116 337.27 62.6769C337.27 61.2378 338.189 60.4322 339.337 60.4322C340.485 60.4322 340.944 61.0643 341.174 61.7556L343.641 61.0078C343.24 59.3966 341.805 57.8419 339.337 57.8419C336.869 57.8419 334.688 59.7423 334.63 62.5048C334.63 59.7987 332.507 57.8419 329.866 57.8419C327.226 57.8419 325.103 59.7987 325.103 62.6191C324.815 61.1235 323.552 59.8566 321.486 59.4544L319.764 59.1088C318.903 58.9353 318.502 58.4767 318.502 57.8997C318.502 57.3241 319.191 56.5184 320.281 56.5184C321.83 56.5184 322.347 57.5541 322.404 58.1297L324.988 57.3819C324.7 55.885 323.495 53.9281 320.281 53.9281C317.066 53.9281 315.689 55.655 315.689 58.0732C315.689 60.4914 317.01 61.4113 319.191 61.8713L320.97 62.2169C321.83 62.3891 322.347 62.8491 322.347 63.4825C322.347 64.116 321.659 64.8059 320.511 64.8059C318.73 64.8059 317.985 63.7703 317.87 62.6191L315.23 63.2525C315.402 65.0951 316.952 67.3963 320.452 67.3963C323.953 67.3963 321.601 67.2819 322.06 67.1676M329.808 60.49C330.842 60.49 331.818 61.18 331.818 62.7347C331.818 64.2881 330.842 64.9794 329.808 64.9794C328.776 64.9794 327.8 64.2316 327.8 62.7334C327.8 61.2378 328.776 60.49 329.808 60.49Z" fill="#FFF9FA"/>
</g>
<defs>
<clipPath id="clip0_120_7514">
<rect width="539" height="337" fill="white"/>
</clipPath>
</defs>
</svg>
