<svg width="533" height="333" viewBox="0 0 533 333" fill="none" xmlns="http://www.w3.org/2000/svg">
<path d="M513 0C524.046 0 533 8.95431 533 20V312.955C533 324.001 524.046 332.955 513 332.955H20C8.9543 332.955 0 324.001 0 312.955V20C0 8.95434 8.95431 0 20 0L513 0Z" fill="url(#paint0_linear_75_617)"/>
<path d="M182.175 89.9997C189.365 89.9997 192.959 88.0201 192.959 84.0609C192.959 82.4645 192.079 81.2192 190.318 80.3252C188.631 79.3674 185.917 78.8884 182.175 78.8884H164.789V89.9997H182.175ZM182.395 71.8002C188.925 71.8002 194.023 72.7581 197.691 74.6738C201.359 76.5257 203.193 79.7186 203.193 84.2525C203.193 85.9766 202.827 87.5092 202.093 88.8503C201.359 90.1913 200.369 91.3726 199.122 92.3944C197.948 93.3522 196.628 94.1504 195.16 94.789C193.693 95.3637 192.189 95.8107 190.649 96.13L201.433 109.828C202.02 110.53 202.643 111.073 203.303 111.456C204.037 111.775 204.807 112.031 205.614 112.222V113.946H188.778V112.222C189.732 112.222 190.208 111.935 190.208 111.36C190.208 110.722 189.658 109.732 188.558 108.391L179.864 97.0879H164.568V110.785C164.568 111.296 164.789 111.679 165.229 111.935C165.742 112.126 166.219 112.222 166.659 112.222V113.946H152.024V112.222C153.344 112.222 154.004 111.743 154.004 110.785V74.9612C154.004 74.0033 153.344 73.5244 152.024 73.5244V71.8002H182.395Z" fill="white"/>
<path d="M244.117 96.3216L235.204 80.2294L227.391 96.3216H244.117ZM207.363 112.222C208.243 112.094 208.94 111.743 209.454 111.169C210.041 110.53 210.481 109.955 210.774 109.444L227.171 78.3137C227.611 77.4197 227.941 76.7173 228.161 76.2064C228.455 75.6317 228.601 75.0889 228.601 74.578C228.601 74.1949 228.491 73.9714 228.271 73.9075C228.124 73.7798 227.941 73.6521 227.721 73.5244V71.8002H244.337V73.5244C244.117 73.6521 243.861 73.7479 243.567 73.8117C243.347 73.8756 243.237 74.131 243.237 74.578C243.237 74.9612 243.384 75.4401 243.677 76.0148C244.044 76.5257 244.411 77.1323 244.778 77.8348L262.604 110.402C262.971 110.977 263.375 111.392 263.815 111.647C264.255 111.903 264.732 112.094 265.245 112.222V113.946H249.619V112.51C249.986 112.51 250.353 112.414 250.72 112.222C251.16 112.031 251.38 111.679 251.38 111.169C251.38 110.785 251.307 110.434 251.16 110.115C251.013 109.796 250.83 109.381 250.61 108.87L247.639 103.41H224.09L221.008 108.582C220.715 109.093 220.458 109.572 220.238 110.019C220.091 110.402 220.018 110.753 220.018 111.073C220.018 111.584 220.201 111.903 220.568 112.031C220.935 112.158 221.449 112.222 222.109 112.222V113.946H207.363V112.222Z" fill="white"/>
<path d="M266.773 112.222C268.093 112.222 268.753 111.743 268.753 110.785V74.9612C268.753 74.0033 268.093 73.5244 266.773 73.5244V71.8002H282.949V73.5244C282.435 73.5882 282.179 73.7479 282.179 74.0033C282.179 74.3226 282.986 75.1847 284.6 76.5895L311.01 100.919V74.9612C311.01 74.0033 310.276 73.5244 308.809 73.5244V71.8002H322.234V73.5244C320.914 73.5244 320.253 74.0033 320.253 74.9612V110.785C320.253 111.743 320.914 112.222 322.234 112.222V113.946H307.929V112.222C308.442 112.222 308.699 112.063 308.699 111.743C308.699 111.488 308.332 111.041 307.598 110.402C306.938 109.764 306.168 109.029 305.288 108.199L277.997 82.9115V110.785C277.997 111.743 278.767 112.222 280.308 112.222V113.946H266.773V112.222Z" fill="white"/>
<path d="M372.087 85.6893L370.766 85.0188C370.913 84.3802 370.986 84.029 370.986 83.9651C370.986 83.3904 370.51 82.7838 369.556 82.1452C368.602 81.4427 367.355 80.8042 365.814 80.2294C364.274 79.6547 362.513 79.2077 360.532 78.8884C358.625 78.5053 356.681 78.3137 354.7 78.3137C351.986 78.3137 349.418 78.6011 346.997 79.1758C344.576 79.6867 342.449 80.5487 340.615 81.762C338.781 82.9115 337.313 84.4121 336.213 86.264C335.112 88.1159 334.562 90.3828 334.562 93.0649C334.562 95.7469 335.149 98.0138 336.323 99.8657C337.497 101.654 339.001 103.122 340.835 104.272C342.742 105.357 344.833 106.156 347.107 106.667C349.381 107.177 351.582 107.433 353.71 107.433C356.864 107.433 359.835 107.241 362.623 106.858C365.484 106.475 368.089 105.741 370.436 104.655V98.6205H359.102C358.295 98.6205 357.598 98.7801 357.011 99.0994C356.424 99.3549 356.057 99.8657 355.911 100.632H353.93V90.766H355.911C356.057 91.4046 356.424 91.8196 357.011 92.0112C357.598 92.2028 358.295 92.2986 359.102 92.2986H380.67V94.0227C380.01 94.2782 379.57 94.5655 379.35 94.8848C379.13 95.2041 379.02 95.683 379.02 96.3216V105.421C379.02 105.996 379.093 106.411 379.24 106.667C379.46 106.858 379.937 107.082 380.67 107.337V108.487C380.01 108.87 378.946 109.412 377.479 110.115C376.085 110.753 374.288 111.392 372.087 112.031C369.959 112.669 367.465 113.212 364.604 113.659C361.743 114.042 358.552 114.234 355.03 114.234C350.262 114.234 345.933 113.787 342.045 112.893C338.23 111.935 334.966 110.53 332.251 108.678C329.61 106.826 327.556 104.591 326.089 101.973C324.695 99.291 323.998 96.2578 323.998 92.8733C323.998 89.4888 324.695 86.4875 326.089 83.8693C327.556 81.1873 329.61 78.9204 332.251 77.0685C334.966 75.1527 338.23 73.7159 342.045 72.7581C345.933 71.7364 350.262 71.2255 355.03 71.2255C357.891 71.2255 360.422 71.449 362.623 71.896C364.824 72.343 366.731 72.8219 368.345 73.3328C370.033 73.8437 371.39 74.3226 372.417 74.7696C373.444 75.2166 374.214 75.4401 374.728 75.4401C375.315 75.4401 375.755 75.4082 376.048 75.3443C376.342 75.2166 376.709 74.9931 377.149 74.6738L378.469 75.2485L372.087 85.6893Z" fill="white"/>
<path d="M426.029 80.7084C426.029 79.4951 424.892 78.8884 422.618 78.8884H395.767V88.4671H412.714C413.961 88.4671 414.878 88.4032 415.465 88.2755C416.052 88.084 416.345 87.637 416.345 86.9345H418.326V97.0879H416.125C416.345 96.3855 416.052 95.9704 415.245 95.8427C414.438 95.6511 413.301 95.5553 411.833 95.5553H395.767V106.858H423.938C424.818 106.858 425.552 106.699 426.139 106.379C426.726 105.996 427.019 105.517 427.019 104.942H429V115H427.019C427.019 114.425 426.726 114.106 426.139 114.042C425.552 113.978 424.818 113.946 423.938 113.946H383.552V112.222C383.919 112.222 384.286 112.126 384.653 111.935C385.02 111.679 385.203 111.296 385.203 110.785V74.9612C385.203 74.4503 385.02 74.0991 384.653 73.9075C384.286 73.6521 383.919 73.5244 383.552 73.5244V71.8002H422.618C424.892 71.8002 426.029 71.2255 426.029 70.076H428.01V80.7084H426.029Z" fill="white"/>
<path d="M104 35C126.091 35 144 52.9086 144 75C144 97.0914 126.091 115 104 115C81.9086 115 64 97.0914 64 75C64 52.9086 81.9086 35 104 35ZM104 47C88.536 47 76 59.536 76 75C76 90.464 88.536 103 104 103C119.464 103 132 90.464 132 75C132 59.536 119.464 47 104 47Z" fill="white"/>
<path d="M343.082 52.5546L417.796 50.9347M242.932 64.4334C242.932 64.4334 241.111 68.9811 242.932 70.3728C245.052 71.9926 277.375 62.8135 282.144 58.494C284.801 56.0875 329.36 56.9881 329.834 57.954C330.364 59.0339 304.929 66.0532 304.929 68.753C304.929 71.4527 328.701 69.6777 335.133 66.5932C353.15 57.954 381.234 46.0752 381.234 46.0752M242.932 64.4334C239.223 66.0532 181.465 72.5326 176.166 67.1331C171.977 62.8645 243.992 55.7942 243.992 55.7942M242.932 64.4334C247.368 62.4961 254.59 57.954 254.59 57.954M171.397 59.5736C171.397 59.5736 171.156 56.9848 169.807 56.3339C159.739 51.4744 113.14 64.6002 112.049 68.2126C109.929 75.2323 177.226 67.1327 177.226 67.1327M335.133 67.1331C335.133 67.1331 335.43 69.4441 337.253 70.3728C340.432 71.9926 366.318 69.7437 383.353 64.9733M383.353 64.9733C388.612 63.5009 395.541 61.5537 395.541 61.5537M383.353 64.9733C383.353 64.9733 382.911 68.6058 385.473 69.2929C395.541 71.9926 448 66.0532 448 66.0532M395.541 61.5537C395.541 61.5537 407.405 56.3662 414.087 55.2543C420.769 54.1423 434.223 52.6622 442.171 55.2544C456.31 59.8655 395.541 61.5537 395.541 61.5537Z" stroke="#1428AB" stroke-width="2" stroke-linecap="round"/>
<path d="M235.234 229L228.252 236.862H229.448L231.056 235.048H235.813L236.788 236.861H239.467L235.234 229ZM233.99 231.737L235.436 234.368H231.661L233.99 231.737Z" fill="#1428AB"/>
<path d="M222.763 233.099H220.516L223.832 236.861H226.872L223.794 233.574C228.044 233.574 227.821 231.116 227.821 231.116C227.821 229.13 224.517 229.211 224.517 229.211H218.753L217.381 236.861H219.834L221.092 229.856H223.485C223.485 229.856 225.088 229.825 225.088 231.2C225.088 231.2 225.12 233.103 222.763 233.099Z" fill="#1428AB"/>
<path d="M246.218 229.97H250.342L250.449 229.211H239.646L239.541 229.972H243.662L242.422 236.861H244.978L246.218 229.97Z" fill="#1428AB"/>
<path d="M258.185 229.211C258.16 229.211 258.148 229.211 258.148 229.211H252.381L251.01 236.861H253.465L254.033 233.734H257.395C261.647 233.734 261.45 231.116 261.45 231.116C261.45 229.254 258.547 229.209 258.185 229.211ZM254.721 229.856H257.115C257.115 229.856 258.717 229.825 258.717 231.2C258.717 231.2 258.749 233.043 256.393 233.04H254.159L254.721 229.856Z" fill="#1428AB"/>
<path d="M224.716 254.042C228.107 250.432 232.952 247.947 238.289 247.947C248.557 247.947 256.883 256.192 256.883 266.488C256.883 273.35 253.112 280.227 247.6 283.46C246.825 286.084 246.292 288.068 246.037 291.397C256.84 288.117 264.589 278.387 264.589 266.488C264.589 251.926 252.914 240.617 238.387 240.617C230.096 240.617 222.851 244.364 218.029 250.372C218.029 250.372 221.853 251.452 224.72 254.024" fill="#1428AB"/>
<path d="M220.459 261.417C219.899 263.196 219.744 264.524 219.744 266.488C219.744 277.15 228.198 285.276 238.467 285.276C237.892 287.632 237.578 289.493 237.341 292.196C235.36 292.173 233.429 292.033 231.574 291.587C220.247 288.869 211.765 278.723 211.985 266.488C212.042 263.402 212.372 260.758 213.485 257.99C213.485 257.99 217.443 258.275 220.459 261.417Z" fill="#1428AB"/>
<path d="M238.024 260.627C238.024 260.627 238.225 262.537 238.385 263.771C238.385 263.771 238.401 264.149 238.929 264.3L240.369 264.764C240.369 264.764 241.426 265.096 241.295 266.188L241.145 267.91C241.145 267.91 241.703 267.043 242.611 267.092C242.611 267.092 243.83 267.239 243.805 268.473C243.805 268.473 243.707 269.764 244.119 270.13C244.119 270.13 244.433 270.774 246.332 270.958C247.191 271.023 247.87 271.47 247.87 271.47C249.29 272.579 248.299 274.385 248.299 274.385C248.299 274.385 245.529 280.38 244.315 286.086C244.315 286.086 241.766 295.119 244.129 301.709H240.798C237.197 290.649 244.473 275.41 244.473 275.41C244.473 275.41 245.292 273.904 244.201 273.707C243.807 273.633 243.738 273.622 243.259 273.532C243.259 273.532 241.448 273.426 241.856 271.182C242.153 269.539 240.798 270.344 240.798 270.344C239.346 271.123 239.246 269.964 239.246 269.964C239.181 269.367 239.08 268.408 239.08 268.408C239.015 267.779 238.652 267.729 238.652 267.729L237.039 267.387C235.839 267.092 235.811 265.989 235.811 265.989L235.579 263.143C235.546 261.871 234.306 262.249 234.306 262.249C233.58 262.446 231.219 262.795 231.219 262.795C231.219 262.795 229.845 263.159 227.753 262.671C226.182 262.238 224.188 261.189 221.869 259.2C219.624 257.198 216.684 256.104 216.684 256.104C210.672 254.085 204.516 256.72 204.516 256.72V253.241C204.516 253.241 209.679 250.459 216.948 252.677C216.948 252.677 220.582 253.522 224.545 256.967C224.545 256.967 225.844 258.107 227.407 258.901C227.407 258.901 228.943 259.842 231.316 259.51C234.206 259.066 235.913 258.997 235.913 258.997C235.913 258.997 237.905 258.775 238.024 260.627Z" fill="#1428AB"/>
<path fill-rule="evenodd" clip-rule="evenodd" d="M292.257 241L294.831 230.121C294.956 229.498 295.516 229 296.201 229H298.838C299.17 229 299.482 229.145 299.585 229.436L301.703 235.166L303.156 229H304.402L302.181 238.342H301.62L298.776 230.661C298.693 230.391 298.485 230.204 298.215 230.204H296.513C296.243 230.204 296.056 230.246 295.973 230.516L293.503 241H292.257Z" fill="#1428AB"/>
<path fill-rule="evenodd" clip-rule="evenodd" d="M297.156 231.658L294.956 241H296.202L297.655 234.876L299.648 240.315C299.752 240.626 300.063 241 300.582 241H303.177C303.759 241 304.361 240.606 304.506 239.983L307.08 229H305.835L303.468 239.089C303.385 239.422 303.26 239.796 302.804 239.796H301.205C300.935 239.796 300.645 239.692 300.499 239.277L297.696 231.658H297.156ZM315.924 237.139H311.045L312.021 232.861H316.941L317.211 231.658H311.066L309.488 238.342H315.654L315.924 237.139Z" fill="#1428AB"/>
<path fill-rule="evenodd" clip-rule="evenodd" d="M315.301 239.796L315.011 241H307.619C306.997 241 306.229 240.667 306.499 239.588L308.699 230.204C308.865 229.499 309.446 229 310.298 229H317.834L317.564 230.204H310.693C310.256 230.204 309.904 230.391 309.8 230.848L307.911 238.903C307.745 239.505 307.993 239.796 308.492 239.796H315.301ZM316.63 241L319.163 230.204C319.328 229.498 319.91 229 320.761 229H328.297L328.027 230.204H321.156C320.72 230.204 320.367 230.391 320.263 230.848L317.876 241H316.63Z" fill="#1428AB"/>
<path fill-rule="evenodd" clip-rule="evenodd" d="M327.031 234.315H322.152L322.484 232.861H327.404L327.674 231.658H321.529L320.595 235.519H326.761L327.031 234.315ZM320.575 241L321.259 238.093H326.18L326.449 236.889H320.305L319.329 241H320.575ZM283.745 232.924L284.222 230.848C284.326 230.391 284.679 230.204 285.115 230.204H293.274L293.544 229H284.721C283.869 229 283.288 229.498 283.122 230.204L282.582 232.551C282.396 233.339 282.416 233.9 283.018 234.336L286.859 237.139H281.503L281.233 238.343H288.665L288.914 237.242L283.994 233.63C283.662 233.422 283.703 233.173 283.745 232.924Z" fill="#1428AB"/>
<path fill-rule="evenodd" clip-rule="evenodd" d="M280.88 239.796L280.589 241H289.683C290.264 241 290.845 240.585 290.97 239.983L291.634 237.138C291.758 236.599 291.717 236.1 291.302 235.81L287.233 232.861H292.631L292.942 231.657H285.509L285.219 232.778L290.056 236.287C290.264 236.432 290.492 236.66 290.388 237.097L289.911 239.193C289.828 239.484 289.724 239.795 289.267 239.795L280.88 239.796Z" fill="#1428AB"/>
<path d="M353.183 230.136L344.353 240.106C344.23 240.245 344.325 240.469 344.507 240.469H348.236C348.293 240.469 348.346 240.447 348.385 240.405C348.963 239.796 353.462 235.058 353.56 235.159C353.624 235.226 351.758 239.026 351.201 240.156C351.13 240.3 351.233 240.469 351.389 240.469H354.163C354.243 240.469 354.315 240.423 354.351 240.35L359.167 230.38C359.237 230.236 359.136 230.066 358.98 230.066H353.338C353.279 230.066 353.223 230.091 353.183 230.136Z" fill="#1428AB"/>
<path d="M359.005 232.884C358.9 232.884 360.156 230.066 360.261 230.066C360.366 230.066 366.972 229.199 366.439 233.751C365.906 238.302 360.61 237.281 360.575 237.327C360.537 237.377 359.341 239.79 359.062 240.353C359.027 240.425 358.955 240.469 358.877 240.469H355.673C355.519 240.469 355.416 240.306 355.483 240.162C356.031 238.985 357.972 234.834 358.062 234.834C362.46 234.834 363.612 235.051 363.612 233.859C363.612 232.667 362.565 232.884 359.005 232.884Z" fill="#1428AB"/>
<path d="M380.365 233.859C380.365 232.667 379.318 232.884 375.758 232.884H367.573C367.386 232.884 367.209 232.587 367.21 232.394C367.211 231.91 366.964 231.184 366.251 230.506C366.099 230.361 366.187 230.066 366.394 230.066L377.005 230.066C377.016 230.066 377.018 230.067 377.029 230.068C377.731 230.16 383.722 229.232 383.193 233.751C382.66 238.302 377.364 237.281 377.329 237.327C377.291 237.377 376.095 239.79 375.816 240.353C375.78 240.425 375.709 240.469 375.63 240.469H372.426C372.272 240.469 372.17 240.306 372.237 240.162C372.785 238.985 374.726 234.834 374.816 234.834C379.214 234.834 380.365 235.051 380.365 233.859Z" fill="#1428AB"/>
<path d="M369.552 240.488H366.344C366.192 240.488 366.09 240.327 366.153 240.184C366.602 239.154 368.106 235.706 369.4 232.775L373.178 232.773C373.138 232.825 370.179 239.392 369.739 240.368C369.705 240.444 369.633 240.488 369.552 240.488Z" fill="#1428AB"/>
<path d="M381.897 240.999C377.937 240.655 377.082 239.36 377.224 237.218C377.296 236.132 379.435 236.233 379.737 237.11C380.261 238.627 383.297 238.302 383.297 238.302C382.814 239.374 382.493 240.052 382.103 240.879C382.066 240.959 381.982 241.007 381.897 240.999Z" fill="#1428AB"/>
<path d="M428.328 239.464V233.09C428.328 232.814 428.104 232.59 427.828 232.59H426.905C426.353 232.59 425.905 232.143 425.905 231.59V231.047C425.905 230.494 426.353 230.047 426.905 230.047H432.173C432.725 230.047 433.173 230.494 433.173 231.047V231.59C433.173 232.143 432.725 232.59 432.173 232.59H431.25C430.974 232.59 430.75 232.814 430.75 233.09V239.464C430.75 240.016 430.303 240.464 429.75 240.464H429.328C428.775 240.464 428.328 240.016 428.328 239.464Z" fill="#1428AB"/>
<path fill-rule="evenodd" clip-rule="evenodd" d="M434.126 230.035C435.097 229.99 438.923 229.867 440.199 230.652C441.773 231.621 441.355 235.376 439.472 235.376H436.564C436.43 235.376 436.322 235.485 436.322 235.619V240.222C436.322 240.356 436.214 240.464 436.08 240.464H434.142C434.008 240.464 433.9 240.356 433.9 240.222V230.274C433.9 230.146 433.998 230.041 434.126 230.035ZM437.049 232.711C436.915 232.711 436.807 232.82 436.807 232.954V233.802C436.807 233.935 436.915 234.044 437.049 234.044H438.139C438.273 234.044 438.382 233.935 438.382 233.802V232.954C438.382 232.82 438.273 232.711 438.139 232.711H437.049Z" fill="#1428AB"/>
<path d="M436.915 235.376H439.472L441.956 240.111C442.039 240.273 441.922 240.464 441.741 240.464C441.741 240.464 439.7 240.464 439.608 240.464C439.517 240.464 439.433 240.412 439.392 240.33L436.915 235.376Z" fill="#1428AB"/>
<path d="M443.621 230.047H444.044C444.596 230.047 445.044 230.494 445.044 231.047V239.464C445.044 240.016 444.596 240.464 444.044 240.464H443.621C443.069 240.464 442.621 240.016 442.621 239.464V231.047C442.621 230.494 443.069 230.047 443.621 230.047Z" fill="#1428AB"/>
<path d="M424.179 230.047C424.731 230.047 425.179 230.494 425.179 231.047V239.464C425.179 240.016 424.731 240.463 424.179 240.464H423.809C423.237 240.464 422.781 239.984 422.785 239.411C422.789 238.77 422.764 238.051 422.635 237.921C422.392 237.678 420.212 237.711 419.848 237.921C419.601 238.063 419.019 239.186 418.671 239.891C418.499 240.239 418.147 240.464 417.759 240.464H417.496C416.776 240.464 416.292 239.725 416.585 239.067C417.664 236.64 418.03 236.032 418.637 234.892C419.465 233.34 420.695 231.377 421.252 230.503C421.434 230.217 421.748 230.047 422.087 230.047H424.179ZM422.513 234.539C422.513 234.029 421.818 233.878 421.607 234.343C421.464 234.657 421.694 235.013 422.039 235.013C422.301 235.013 422.513 234.801 422.513 234.539Z" fill="#1428AB"/>
<path d="M411.854 230.047C414.73 230.047 417.063 232.379 417.063 235.256C417.063 238.132 414.73 240.464 411.854 240.464H410.068C409.515 240.464 409.068 240.016 409.068 239.464V231.047C409.068 230.494 409.515 230.047 410.068 230.047H411.854ZM412.217 232.712C411.682 232.712 411.248 233.145 411.248 233.68V236.83C411.248 237.365 411.682 237.8 412.217 237.8C413.622 237.8 414.761 236.66 414.761 235.256C414.761 233.851 413.622 232.712 412.217 232.712Z" fill="#1428AB"/>
<path d="M447.436 240.464H446.509C446.235 240.464 446.013 240.242 446.013 239.968V232.469C446.013 231.131 447.098 230.047 448.436 230.047C451.585 230.047 451.585 229.804 451.585 231.137C451.585 232.31 451.585 232.45 449.437 232.467C448.884 232.471 448.436 232.917 448.436 233.469V233.892C448.436 234.444 448.884 234.89 449.437 234.894C451.585 234.909 451.585 235.037 451.585 236.103C451.585 237.489 451.585 237.561 449.437 237.559C448.884 237.558 448.436 238.004 448.436 238.557V239.464C448.436 240.016 447.988 240.464 447.436 240.464Z" fill="#1428AB"/>
<path d="M205.5 157.5H451.5M205.5 194.5H451.5" stroke="#1428AB" stroke-width="2" stroke-linecap="round"/>
<rect x="39" y="132" width="130" height="145" fill="url(#paint1_linear_75_617)"/>
<defs>
<linearGradient id="paint0_linear_75_617" x1="267" y1="333" x2="266.5" y2="2.43528e-05" gradientUnits="userSpaceOnUse">
<stop stop-color="#FDF5A2"/>
<stop offset="0.759869" stop-color="#FA721C"/>
</linearGradient>
<linearGradient id="paint1_linear_75_617" x1="48" y1="138" x2="139" y2="282.5" gradientUnits="userSpaceOnUse">
<stop stop-color="white"/>
<stop offset="0.427885" stop-color="#EAEAEA"/>
<stop offset="1" stop-color="white"/>
</linearGradient>
</defs>
</svg>
