<svg width="540" height="337" viewBox="0 0 540 337" fill="none" xmlns="http://www.w3.org/2000/svg">
<path d="M20.0591 337C14.7464 336.99 9.65248 334.896 5.89457 331.177C2.13461 327.459 0.0166598 322.416 0 317.152L0 136.018L539.199 136.018V317.152C539.185 322.412 537.069 327.453 533.316 331.171C529.563 334.891 524.479 336.985 519.169 337H20.0591Z" fill="white"/>
<path d="M0.0270309 19.8446L0.0270309 136.019L539.2 136.019V19.8446C539.184 14.5862 537.07 9.54683 533.317 5.82845C529.564 2.11016 524.477 0.0157815 519.17 0L20.0598 0C14.7523 0.0158053 9.66595 2.11007 5.91282 5.82845C2.1597 9.54685 0.0429553 14.5865 0.0270309 19.8446Z" fill="#64B5F6"/>
<path d="M268.701 165.355L268.776 297.459L269.6 297.459L269.526 165.355L268.701 165.355Z" fill="#1D1D1B"/>
<path d="M203.997 310.195H206.399C208.284 310.195 209.555 310.829 209.555 312.671C209.555 314.513 208.289 315.268 206.449 315.268H205.067V318.605H203.997V310.195ZM206.314 314.401C207.784 314.401 208.485 313.867 208.485 312.671C208.485 311.475 207.739 311.062 206.261 311.062H205.065V314.401H206.314Z" fill="black"/>
<path d="M213.224 310.195H214.433L217.278 318.605H216.144L214.678 313.908C214.375 312.966 214.106 312.044 213.837 311.074H213.784C213.525 312.049 213.255 312.969 212.953 313.908L211.47 318.605H210.381L213.227 310.195H213.224ZM211.876 315.187H215.748V316.04H211.876V315.187Z" fill="black"/>
<path d="M219.299 310.195H221.932C223.646 310.195 224.875 310.81 224.875 312.561C224.875 314.313 223.646 315.049 221.932 315.049H220.369V318.605H219.299V310.195ZM221.78 314.182C223.088 314.182 223.808 313.653 223.808 312.561C223.808 311.47 223.088 311.062 221.78 311.062H220.369V314.182H221.78ZM221.722 314.756L222.561 314.203L225.128 318.605H223.915L221.722 314.756Z" fill="black"/>
<path d="M229.048 311.1H226.503V310.195H232.661V311.1H230.116V318.605H229.046V311.1H229.048Z" fill="black"/>
<path d="M235.051 310.195H239.898V311.1H236.121V313.736H239.307V314.642H236.121V317.699H240.027V318.605H235.051V310.195Z" fill="black"/>
<path d="M242.688 310.195H243.794L246.837 315.483L247.745 317.222H247.798C247.743 316.374 247.662 315.426 247.662 314.546V310.195H248.677V318.605H247.571L244.528 313.312L243.62 311.575H243.568C243.623 312.425 243.704 313.321 243.704 314.201V318.602H242.688V310.192V310.195Z" fill="black"/>
<path d="M253.596 310.195H254.804L257.649 318.605H256.515L255.049 313.908C254.747 312.966 254.477 312.044 254.208 311.074H254.156C253.896 312.049 253.627 312.969 253.324 313.908L251.842 318.605H250.753L253.598 310.195H253.596ZM252.244 315.187H256.117V316.04H252.244V315.187Z" fill="black"/>
<path d="M259.67 310.195H260.74V318.605H259.67V310.195Z" fill="black"/>
<path d="M263.924 310.195H266.557C268.27 310.195 269.5 310.81 269.5 312.561C269.5 314.313 268.27 315.049 266.557 315.049H264.994V318.605H263.924V310.195ZM266.404 314.182C267.713 314.182 268.432 313.653 268.432 312.561C268.432 311.47 267.713 311.062 266.404 311.062H264.994V314.182H266.404ZM266.347 314.756L267.186 314.203L269.753 318.605H268.54L266.347 314.756Z" fill="black"/>
<path d="M272.102 310.195H276.949V311.1H273.172V313.736H276.358V314.642H273.172V317.699H277.078V318.605H272.102V310.195Z" fill="black"/>
<path d="M282.7 314.368C282.7 311.675 284.182 310.04 286.293 310.04C288.405 310.04 289.887 311.679 289.887 314.368C289.887 317.056 288.405 318.757 286.293 318.757C284.182 318.757 282.7 317.063 282.7 314.368ZM288.781 314.368C288.781 312.273 287.795 310.979 286.291 310.979C284.787 310.979 283.803 312.27 283.803 314.368C283.803 316.465 284.79 317.816 286.291 317.816C287.792 317.816 288.781 316.462 288.781 314.368Z" fill="black"/>
<path d="M292.582 310.195H297.432V311.1H293.652V313.936H296.857V314.842H293.652V318.605H292.582V310.195Z" fill="black"/>
<path d="M299.796 310.195H304.645V311.1H300.866V313.936H304.071V314.842H300.866V318.605H299.796V310.195Z" fill="black"/>
<path d="M307.012 310.195H308.082V318.605H307.012V310.195Z" fill="black"/>
<path d="M310.779 314.406C310.779 311.694 312.378 310.04 314.511 310.04C315.531 310.04 316.332 310.536 316.825 311.077L316.239 311.772C315.795 311.301 315.24 310.979 314.53 310.979C312.941 310.979 311.885 312.28 311.885 314.375C311.885 316.469 312.893 317.813 314.49 317.813C315.293 317.813 315.903 317.463 316.439 316.87L317.025 317.542C316.36 318.314 315.538 318.755 314.444 318.755C312.35 318.755 310.779 317.134 310.779 314.403V314.406Z" fill="black"/>
<path d="M319.47 310.195H320.54V318.605H319.47V310.195Z" fill="black"/>
<path d="M323.724 310.195H328.571V311.1H324.794V313.736H327.98V314.642H324.794V317.699H328.7V318.605H323.724V310.195Z" fill="black"/>
<path d="M331.361 310.195H332.431V317.699H336.101V318.605H331.361V310.195Z" fill="black"/>
<path d="M128.975 242.747C128.105 242.327 127.166 242.28 126.221 242.28H123.117V253.962H124.932C124.932 253.301 124.888 252.614 125.172 251.995C125.63 251 126.696 250.521 127.627 250.072C128.625 249.59 129.732 249.118 130.393 248.184C130.98 247.353 131.141 246.255 130.968 245.266C130.771 244.132 129.996 243.24 128.975 242.747ZM128.886 247.212C128.455 247.858 127.727 248.219 127.051 248.557C126.315 248.927 125.554 249.291 124.932 249.843V243.968H126.652C127.615 243.968 128.675 244.264 129.057 245.254C129.289 245.859 129.251 246.666 128.886 247.212Z" fill="#1D1D1B"/>
<path d="M142.321 242.603C140.751 241.713 138.496 241.977 137.28 243.346C136.69 244.012 136.391 244.866 136.338 245.747C136.323 245.97 136.329 253.962 136.329 253.962H138.126V250.092C139.183 249.957 140.369 250.06 141.256 250.706C142.051 251.284 142.401 252.194 142.403 253.154C142.403 253.425 142.403 253.962 142.403 253.962H144.2V246.129C144.2 244.693 143.61 243.334 142.321 242.606V242.603ZM142.301 249.576C141.232 248.492 139.594 248.113 138.123 248.348V246.44C138.123 246.088 138.114 245.738 138.205 245.392C138.378 244.734 138.877 244.191 139.526 243.974C140.202 243.748 140.983 243.851 141.555 244.276C142.128 244.702 142.395 245.365 142.403 246.07C142.409 246.619 142.403 247.168 142.403 247.714V249.687C142.371 249.649 142.339 249.611 142.304 249.573L142.301 249.576Z" fill="#1D1D1B"/>
<path d="M156.555 249.622C156.346 249.511 156.126 249.42 155.894 249.346C156.472 249.029 157.042 248.639 157.447 248.11C157.82 247.62 158.034 247.056 158.102 246.443C158.243 245.163 157.823 243.941 156.769 243.16C155.363 242.118 153.586 242.28 151.939 242.28H150.225V253.962H152.039C152.039 253.615 152.027 253.266 152.042 252.92C152.077 252.147 152.418 251.402 153.093 250.991C153.751 250.588 154.652 250.541 155.357 250.856C156.064 251.173 156.525 251.854 156.64 252.611C156.707 253.052 156.675 253.515 156.675 253.962H158.507C158.507 253.322 158.542 252.667 158.401 252.036C158.167 250.996 157.497 250.122 156.558 249.619L156.555 249.622ZM153.813 243.968C154.969 243.968 156.135 244.532 156.261 245.797C156.323 246.405 156.188 247.007 155.783 247.473C155.339 247.984 154.682 248.292 154.083 248.58C153.357 248.93 152.629 249.294 152.03 249.837V243.968H153.81H153.813Z" fill="#1D1D1B"/>
<path d="M164.147 243.915C164.74 243.757 165.351 243.683 165.961 243.645V242.28H164.147V243.915Z" fill="#1D1D1B"/>
<path d="M164.147 244.94V253.962H165.961V244.67C165.351 244.696 164.737 244.784 164.147 244.94Z" fill="#1D1D1B"/>
<path d="M178.078 248.354C177.426 247.843 176.648 247.55 175.876 247.268C175.163 247.007 174.332 246.733 173.818 246.143C173.342 245.6 173.448 244.74 173.938 244.244C174.429 243.748 175.262 243.621 175.932 243.833C176.686 244.071 177.141 244.752 177.141 245.533H178.938C178.938 244.675 178.662 243.853 178.075 243.222C177.506 242.611 176.719 242.247 175.894 242.139C175.039 242.027 174.153 242.139 173.395 242.567C172.685 242.973 172.086 243.613 171.833 244.399C171.59 245.151 171.642 246.091 172.03 246.786C172.462 247.561 173.24 248.028 174.035 248.369C174.898 248.739 175.897 248.962 176.669 249.514C176.98 249.737 177.238 250.022 177.332 250.4C177.423 250.77 177.388 251.19 177.218 251.534C176.798 252.368 175.753 252.623 174.898 252.459C173.938 252.274 173.245 251.475 173.245 250.491H171.466C171.466 251.443 171.775 252.338 172.456 253.016C173.131 253.689 174.065 254.05 175.004 254.126C175.991 254.205 177.006 254.006 177.823 253.427C178.574 252.896 179.079 252.071 179.176 251.155C179.291 250.083 178.944 249.032 178.081 248.354H178.078Z" fill="#1D1D1B"/>
<path d="M194.989 248.607C195.391 248.108 195.782 247.582 196.046 246.998C196.307 246.419 196.401 245.779 196.331 245.148C196.196 243.947 195.365 242.952 194.281 242.456C193.175 241.951 191.78 241.974 190.697 242.529C189.604 243.087 188.821 244.156 188.753 245.398C188.686 246.669 189.276 247.791 190.277 248.557L191.301 247.244C190.934 246.892 190.644 246.466 190.559 245.959C190.476 245.468 190.559 244.972 190.861 244.567C191.448 243.774 192.626 243.536 193.495 243.974C193.929 244.191 194.296 244.57 194.452 245.037C194.613 245.521 194.537 246.076 194.331 246.537C194.123 247.001 193.788 247.397 193.474 247.791C192.261 249.308 191.049 250.826 189.836 252.341C189.402 252.884 188.97 253.425 188.536 253.968H196.751V252.297H192.038L194.989 248.613V248.607Z" fill="#1D1D1B"/>
<path d="M212.064 243.842C210.256 242.071 207.42 241.596 205.121 242.659C202.804 243.727 201.407 246.188 201.651 248.724C201.886 251.211 203.744 253.339 206.16 253.953C208.609 254.573 211.298 253.659 212.763 251.581C214.237 249.49 214.193 246.557 212.655 244.514C212.475 244.276 212.279 244.053 212.064 243.845V243.842ZM211.659 249.802C210.952 251.466 209.278 252.535 207.464 252.426C205.708 252.321 204.181 251.061 203.674 249.388C203.151 247.67 203.77 245.75 205.197 244.661C206.63 243.569 208.659 243.531 210.135 244.555C211.788 245.7 212.446 247.946 211.659 249.802Z" fill="#1D1D1B"/>
<path d="M225.399 248.607C225.802 248.108 226.192 247.582 226.456 246.998C226.718 246.419 226.812 245.779 226.741 245.148C226.606 243.947 225.775 242.952 224.692 242.456C223.585 241.951 222.19 241.974 221.107 242.529C220.024 243.084 219.231 244.156 219.163 245.398C219.096 246.669 219.686 247.791 220.687 248.557L221.712 247.244C221.345 246.892 221.054 246.466 220.969 245.959C220.887 245.468 220.969 244.972 221.272 244.567C221.859 243.774 223.036 243.536 223.905 243.974C224.34 244.191 224.707 244.57 224.862 245.037C225.024 245.521 224.947 246.076 224.742 246.537C224.536 246.998 224.199 247.397 223.884 247.791C222.672 249.308 221.459 250.826 220.247 252.341C219.812 252.884 219.381 253.425 218.946 253.968H227.161V252.297H222.449L225.399 248.613V248.607Z" fill="#1D1D1B"/>
<path d="M238.197 245.407V249.367C237.334 248.751 236.254 248.566 235.349 248.022C234.568 247.556 234.322 246.737 234.316 245.873C234.313 245.028 234.316 242.28 234.316 242.28H232.501C232.501 242.28 232.501 244.711 232.501 245.926C232.501 247.171 232.81 248.389 233.828 249.191C234.457 249.684 235.211 249.99 235.96 250.251C236.629 250.486 237.34 250.776 237.798 251.343C238.159 251.786 238.2 252.321 238.2 252.867V253.962H239.944V245.407H238.2H238.197Z" fill="#1D1D1B"/>
<path fill-rule="evenodd" clip-rule="evenodd" d="M180.729 282.86C180.729 288.157 176.434 292.452 171.135 292.452C165.835 292.452 161.543 288.157 161.543 282.86C161.543 277.564 165.835 273.269 171.135 273.269C176.434 273.269 180.729 277.564 180.729 282.86ZM171.137 274.869C166.725 274.869 163.146 278.448 163.146 282.86C163.146 287.273 166.725 290.852 171.137 290.852C175.55 290.852 179.132 287.273 179.132 282.86C179.132 278.448 175.553 274.869 171.137 274.869Z" fill="#EEB13E"/>
<path fill-rule="evenodd" clip-rule="evenodd" d="M201.513 282.86C201.513 288.157 197.217 292.452 191.921 292.452C186.625 292.452 182.329 288.157 182.329 282.86C182.329 277.564 186.625 273.269 191.921 273.269C197.217 273.269 201.513 277.564 201.513 282.86ZM191.921 274.869C187.505 274.869 183.929 278.448 183.929 282.86C183.929 287.273 187.505 290.852 191.921 290.852C196.337 290.852 199.915 287.273 199.915 282.86C199.915 278.448 196.337 274.869 191.921 274.869Z" fill="#42924A"/>
<path fill-rule="evenodd" clip-rule="evenodd" d="M160.747 264.479C155.448 264.479 151.153 268.771 151.153 274.067C151.153 279.364 155.448 283.659 160.747 283.659C161.026 283.659 161.302 283.644 161.578 283.621C161.56 283.371 161.546 283.116 161.546 282.86C161.546 282.576 161.56 282.297 161.584 282.018C161.308 282.044 161.029 282.059 160.747 282.059C156.332 282.059 152.753 278.483 152.753 274.067C152.753 269.652 156.332 266.073 160.747 266.073C165.163 266.073 168.739 269.652 168.739 274.067C168.739 277.611 166.431 280.617 163.234 281.663C163.175 282.053 163.143 282.455 163.143 282.86C163.143 283.028 163.149 283.189 163.158 283.354C167.286 282.279 170.336 278.53 170.336 274.07C170.336 268.774 166.044 264.481 160.747 264.481" fill="#3074B8"/>
<path fill-rule="evenodd" clip-rule="evenodd" d="M202.311 264.475C197.27 264.475 193.142 268.363 192.752 273.304C193.292 273.351 193.82 273.442 194.334 273.577C194.59 269.39 198.063 266.072 202.311 266.072C206.559 266.072 210.306 269.651 210.306 274.064C210.306 278.477 206.73 282.056 202.311 282.056C198.307 282.056 194.983 279.105 194.408 275.262C193.879 275.089 193.327 274.971 192.758 274.91C193.186 279.81 197.3 283.656 202.311 283.656C207.608 283.656 211.903 279.361 211.903 274.061C211.903 268.762 207.608 264.472 202.311 264.472" fill="#D23A30"/>
<path fill-rule="evenodd" clip-rule="evenodd" d="M181.528 264.475C176.487 264.475 172.356 268.368 171.968 273.304C172.511 273.351 173.037 273.445 173.551 273.577C173.806 269.39 177.277 266.072 181.528 266.072C185.779 266.072 189.519 269.651 189.519 274.064C189.519 277.611 187.212 280.614 184.014 281.662C183.959 282.056 183.923 282.455 183.923 282.86C183.923 283.028 183.929 283.189 183.938 283.353C188.066 282.279 191.116 278.53 191.116 274.067C191.116 268.771 186.824 264.478 181.525 264.478" fill="#1D1D1B"/>
<path fill-rule="evenodd" clip-rule="evenodd" d="M182.329 282.86C182.329 282.575 182.344 282.297 182.367 282.018C182.091 282.044 181.813 282.059 181.531 282.059C177.523 282.059 174.203 279.108 173.624 275.265C173.096 275.092 172.547 274.974 171.977 274.916C172.406 279.813 176.519 283.662 181.531 283.662C181.81 283.662 182.086 283.647 182.362 283.624C182.341 283.374 182.332 283.119 182.332 282.863" fill="#1D1D1B"/>
<path d="M185.644 222.271C184.64 221.898 182.955 221.863 181.528 223.026C180.101 221.866 178.416 221.898 177.412 222.271C176.572 222.583 175.914 222.791 174.681 222.782C175.905 225.334 178.512 227.092 181.531 227.092C184.549 227.092 187.156 225.331 188.38 222.782C187.144 222.791 186.486 222.583 185.65 222.271H185.644Z" fill="#D3C383"/>
<path d="M181.528 158.165C160.882 158.165 144.144 174.903 144.144 195.549C144.144 213.246 156.443 228.073 172.964 231.948C159.837 224.925 154.485 208.825 160.815 195.337C161.836 200.663 165.31 205.41 170.5 207.874C163.733 192.046 168.715 173.438 182.682 163.148C179.934 172.554 184.152 181.162 193.204 187.663C203.556 195.096 203.993 210.26 194.857 218.461C198.486 217.615 201.862 215.619 204.384 212.559C202.828 220.577 197.802 227.829 190.095 231.954C206.612 228.082 218.914 213.255 218.914 195.554C218.914 174.909 202.176 158.171 181.531 158.171L181.528 158.165Z" fill="#D3C383"/>
<path d="M304.215 242.749C303.346 242.329 302.406 242.282 301.461 242.282H298.357V253.964H300.172C300.172 253.304 300.128 252.617 300.413 251.997C300.871 251.002 301.936 250.523 302.867 250.074C303.865 249.593 304.972 249.12 305.633 248.186C306.22 247.356 306.381 246.257 306.208 245.268C306.012 244.135 305.236 243.242 304.215 242.749ZM304.124 247.215C303.692 247.861 302.964 248.222 302.289 248.559C301.552 248.929 300.791 249.293 300.169 249.845V243.97H301.889C302.852 243.97 303.912 244.267 304.294 245.256C304.526 245.861 304.488 246.669 304.124 247.215Z" fill="#1D1D1B"/>
<path d="M317.559 242.605C315.988 241.715 313.733 241.98 312.518 243.348C311.928 244.014 311.628 244.869 311.575 245.749C311.561 245.973 311.566 253.964 311.566 253.964H313.363V250.095C314.42 249.96 315.606 250.062 316.493 250.708C317.289 251.287 317.638 252.197 317.641 253.157C317.641 253.427 317.641 253.964 317.641 253.964H319.438V246.131C319.438 244.695 318.848 243.336 317.559 242.608V242.605ZM317.541 249.578C316.472 248.495 314.834 248.116 313.363 248.351V246.442C313.363 246.09 313.354 245.741 313.445 245.394C313.619 244.736 314.118 244.193 314.767 243.976C315.442 243.75 316.223 243.853 316.795 244.278C317.371 244.707 317.635 245.368 317.644 246.072C317.65 246.621 317.644 247.17 317.644 247.717V249.69C317.612 249.651 317.579 249.613 317.544 249.575L317.541 249.578Z" fill="#1D1D1B"/>
<path d="M331.793 249.625C331.584 249.513 331.364 249.422 331.132 249.349C331.71 249.032 332.28 248.641 332.685 248.113C333.058 247.623 333.272 247.059 333.34 246.445C333.481 245.165 333.061 243.944 332.007 243.163C330.601 242.121 328.824 242.282 327.177 242.282H325.463V253.964H327.277C327.277 253.618 327.265 253.269 327.28 252.922C327.315 252.15 327.656 251.404 328.331 250.993C328.989 250.591 329.89 250.544 330.595 250.858C331.302 251.175 331.763 251.856 331.878 252.614C331.945 253.054 331.913 253.518 331.913 253.964H333.745C333.745 253.324 333.78 252.67 333.639 252.038C333.404 250.999 332.735 250.124 331.796 249.622L331.793 249.625ZM329.053 243.97C330.21 243.97 331.376 244.534 331.502 245.799C331.564 246.407 331.429 247.009 331.023 247.476C330.58 247.987 329.922 248.295 329.323 248.583C328.598 248.932 327.87 249.296 327.271 249.839V243.97H329.05H329.053Z" fill="#1D1D1B"/>
<path d="M339.388 243.917C339.981 243.759 340.592 243.686 341.202 243.647V242.282H339.388V243.917Z" fill="#1D1D1B"/>
<path d="M339.388 244.942V253.964H341.202V244.672C340.592 244.698 339.978 244.786 339.388 244.942Z" fill="#1D1D1B"/>
<path d="M353.316 248.356C352.665 247.846 351.887 247.552 351.114 247.27C350.401 247.009 349.57 246.736 349.056 246.146C348.581 245.602 348.686 244.742 349.177 244.246C349.685 243.735 350.501 243.624 351.17 243.835C351.925 244.073 352.38 244.754 352.38 245.535H354.177C354.177 244.678 353.901 243.856 353.314 243.224C352.744 242.614 351.957 242.25 351.132 242.141C350.278 242.029 349.391 242.141 348.634 242.57C347.923 242.975 347.324 243.615 347.072 244.402C346.828 245.153 346.881 246.093 347.268 246.789C347.7 247.564 348.478 248.031 349.274 248.371C350.137 248.741 351.135 248.964 351.907 249.516C352.218 249.739 352.477 250.024 352.571 250.403C352.662 250.773 352.627 251.193 352.456 251.536C352.036 252.37 350.991 252.625 350.137 252.461C349.177 252.276 348.484 251.477 348.484 250.494H346.705C346.705 251.445 347.013 252.341 347.694 253.019C348.369 253.691 349.303 254.052 350.242 254.129C351.229 254.208 352.245 254.008 353.061 253.43C353.813 252.898 354.318 252.073 354.415 251.157C354.529 250.086 354.183 249.035 353.319 248.356H353.316Z" fill="#1D1D1B"/>
<path d="M370.231 248.609C370.633 248.11 371.024 247.584 371.288 247C371.549 246.422 371.643 245.782 371.573 245.15C371.437 243.95 370.607 242.954 369.523 242.458C368.416 241.953 367.022 241.977 365.938 242.532C364.846 243.089 364.062 244.158 363.995 245.4C363.927 246.671 364.517 247.793 365.519 248.559L366.543 247.247C366.176 246.894 365.886 246.469 365.8 245.961C365.718 245.47 365.8 244.974 366.103 244.569C366.69 243.776 367.867 243.539 368.736 243.976C369.171 244.193 369.538 244.572 369.694 245.039C369.855 245.523 369.779 246.078 369.573 246.539C369.365 247.003 369.03 247.399 368.716 247.793C367.503 249.311 366.291 250.829 365.078 252.344C364.644 252.887 364.212 253.427 363.777 253.97H371.992V252.3H367.28L370.231 248.615V248.609Z" fill="#1D1D1B"/>
<path d="M387.304 243.844C385.495 242.073 382.659 241.598 380.36 242.661C378.043 243.729 376.646 246.19 376.89 248.726C377.125 251.213 378.983 253.342 381.399 253.955C383.848 254.575 386.537 253.662 388.002 251.583C389.476 249.493 389.432 246.56 387.894 244.516C387.715 244.278 387.518 244.055 387.304 243.847V243.844ZM386.901 249.804C386.194 251.469 384.52 252.537 382.706 252.429C380.95 252.323 379.423 251.064 378.915 249.39C378.393 247.672 379.012 245.752 380.439 244.663C381.872 243.571 383.901 243.533 385.378 244.557C387.031 245.702 387.688 247.948 386.901 249.804Z" fill="#1D1D1B"/>
<path d="M400.642 248.609C401.044 248.11 401.435 247.584 401.699 247C401.96 246.422 402.054 245.782 401.984 245.15C401.849 243.95 401.018 242.954 399.934 242.458C398.827 241.953 397.433 241.977 396.349 242.532C395.257 243.089 394.473 244.158 394.406 245.4C394.338 246.671 394.928 247.793 395.93 248.559L396.954 247.247C396.587 246.894 396.297 246.469 396.211 245.961C396.129 245.47 396.211 244.974 396.514 244.569C397.101 243.776 398.278 243.539 399.147 243.976C399.582 244.193 399.949 244.572 400.105 245.039C400.266 245.523 400.19 246.078 399.984 246.539C399.776 247.003 399.441 247.399 399.127 247.793C397.914 249.311 396.702 250.829 395.489 252.344C395.055 252.887 394.623 253.427 394.189 253.97H402.403V252.3H397.691L400.642 248.615V248.609Z" fill="#1D1D1B"/>
<path d="M413.437 245.409V249.37C412.574 248.753 411.494 248.568 410.589 248.025C409.808 247.558 409.562 246.739 409.556 245.876C409.553 245.03 409.556 242.282 409.556 242.282H407.741C407.741 242.282 407.741 244.713 407.741 245.929C407.741 247.174 408.05 248.392 409.068 249.193C409.697 249.687 410.451 249.992 411.2 250.253C411.869 250.488 412.58 250.779 413.038 251.346C413.399 251.789 413.44 252.323 413.44 252.869V253.964H415.184V245.409H413.44H413.437Z" fill="#1D1D1B"/>
<path d="M354.864 264.725C352.139 264.096 348.419 264.789 344.905 266.818C339.406 269.992 336.493 275.241 338.399 278.541C339.617 280.65 342.506 281.451 345.868 280.928C344.329 280.573 343.108 279.801 342.421 278.609C340.515 275.309 343.431 270.062 348.927 266.886C350.912 265.741 352.964 265.021 354.864 264.725Z" fill="#D23A30"/>
<path d="M354.911 277.74C355.73 280.415 358.187 283.289 361.702 285.318C367.201 288.492 373.202 288.392 375.108 285.092C376.326 282.984 375.574 280.08 373.44 277.429C373.901 278.938 373.842 280.383 373.155 281.572C371.25 284.872 365.248 284.972 359.749 281.798C357.765 280.653 356.114 279.235 354.911 277.737" fill="#42924A"/>
<path d="M351.182 271.266C349.276 273.313 348.014 276.88 348.014 280.937C348.014 287.288 351.103 292.435 354.914 292.435C357.347 292.435 359.488 290.333 360.715 287.159C359.641 288.313 358.357 288.985 356.983 288.985C353.172 288.985 350.084 283.838 350.084 277.488C350.084 275.195 350.486 273.06 351.179 271.266" fill="#3074B8"/>
<path d="M360.885 222.273C359.881 221.9 358.196 221.865 356.769 223.028C355.342 221.868 353.657 221.9 352.653 222.273C351.813 222.584 351.155 222.793 349.922 222.784C351.147 225.335 353.754 227.094 356.772 227.094C359.79 227.094 362.397 225.332 363.622 222.784C362.386 222.793 361.728 222.584 360.891 222.273H360.885Z" fill="#D3C383"/>
<path d="M356.769 158.165C336.123 158.165 319.385 174.903 319.385 195.549C319.385 213.248 331.684 228.075 348.205 231.95C335.078 224.927 329.726 208.826 336.056 195.338C337.077 200.664 340.551 205.411 345.741 207.875C338.974 192.047 343.956 173.438 357.923 163.148C355.175 172.555 359.394 181.163 368.446 187.663C378.798 195.097 379.235 210.262 370.099 218.462C373.727 217.616 377.104 215.62 379.626 212.561C378.07 220.579 373.043 227.831 365.336 231.956C381.854 228.083 394.156 213.257 394.156 195.555C394.156 174.909 377.418 158.171 356.772 158.171L356.769 158.165Z" fill="#D3C383"/>
<path d="M345.791 106.07C345.689 106.07 345.587 106.069 345.485 106.065C344.335 106.093 343.193 105.874 342.131 105.425C341.214 105.025 340.397 104.418 339.744 103.65C339.08 102.852 338.587 101.921 338.297 100.918C337.957 99.7928 337.77 98.6271 337.739 97.4508C337.726 96.288 337.914 95.1326 338.297 94.0377C338.647 93.0422 339.182 92.1244 339.873 91.3333C340.543 90.5766 341.362 89.9695 342.276 89.5552C343.233 89.1219 344.27 88.9049 345.318 88.918C346.568 88.8692 347.807 89.1849 348.89 89.8244C349.814 90.4037 350.593 91.192 351.17 92.1286C351.742 93.0638 352.144 94.0998 352.354 95.1811C352.568 96.2139 352.657 97.2678 352.618 98.3226H340.545C340.523 99.0152 340.609 99.7067 340.795 100.372C340.976 101 341.285 101.582 341.702 102.079C342.137 102.592 342.68 102.998 343.29 103.269C344.011 103.579 344.787 103.731 345.57 103.714C346.55 103.756 347.516 103.476 348.33 102.916C349.087 102.325 349.594 101.462 349.749 100.503H352.373C352.138 102.139 351.304 103.624 350.04 104.662C348.8 105.573 347.314 106.064 345.791 106.07ZM280.429 106.063C279.284 106.063 278.139 105.846 277.053 105.413C276.11 105.001 275.269 104.382 274.589 103.598C273.91 102.809 273.399 101.884 273.091 100.884C272.749 99.7949 272.582 98.6561 272.593 97.5125C272.584 96.3664 272.75 95.225 273.091 94.1315C273.4 93.1261 273.911 92.1953 274.589 91.4C275.27 90.6145 276.111 89.9907 277.053 89.5725C279.22 88.6851 281.64 88.6861 283.805 89.5725C284.742 89.9945 285.577 90.6172 286.253 91.4C286.933 92.1957 287.442 93.1246 287.751 94.1315C288.091 95.2247 288.259 96.3665 288.249 97.5125C288.261 98.6559 288.093 99.7928 287.751 100.881C287.442 101.882 286.931 102.808 286.253 103.598C285.576 104.379 284.743 104.999 283.805 105.413C282.72 105.846 281.575 106.063 280.429 106.063ZM299.07 106.063C298.627 106.056 298.186 106.014 297.748 105.937C297.251 105.851 296.762 105.711 296.293 105.522C295.807 105.327 295.351 105.065 294.935 104.741C294.504 104.407 294.14 103.994 293.863 103.519H293.8V105.714L291.144 105.717V83.0327H293.8V91.5136H293.863C294.284 90.6165 295.018 89.9091 295.92 89.528C296.898 89.1057 297.948 88.8942 299.01 88.9081C300.134 88.8817 301.25 89.1204 302.269 89.607C303.17 90.0518 303.959 90.6971 304.578 91.4963C305.207 92.3143 305.677 93.2476 305.963 94.2451C306.282 95.3161 306.441 96.4287 306.433 97.5471C306.44 98.6652 306.286 99.7799 305.98 100.854C305.702 101.841 305.238 102.765 304.612 103.571C303.989 104.351 303.199 104.974 302.303 105.396C301.288 105.859 300.183 106.088 299.07 106.063ZM249.818 105.717L247.169 105.714V89.2884H249.662V91.7013H249.728C250.575 90.4343 251.842 89.521 253.295 89.1254C254.75 88.7294 256.293 88.8784 257.649 89.5453C258.062 89.7694 258.429 90.0739 258.723 90.4443C259.017 90.8157 259.238 91.2445 259.366 91.7038C259.887 90.8349 260.623 90.1224 261.5 89.6367C262.397 89.1494 263.401 88.8986 264.418 88.9081C265.159 88.9002 265.902 88.9891 266.622 89.1748C267.231 89.3355 267.802 89.623 268.298 90.017C268.776 90.4105 269.151 90.9193 269.387 91.4963C269.666 92.1858 269.801 92.9279 269.78 93.6721L269.778 105.665H267.129V94.8897C267.13 94.411 267.089 93.933 267.006 93.4622C266.932 93.0527 266.772 92.6632 266.537 92.3237C266.294 91.9819 265.966 91.712 265.587 91.5433C265.087 91.3343 264.549 91.2348 264.01 91.2568C263.445 91.224 262.881 91.3085 262.349 91.5038C261.819 91.6985 261.332 92.0044 260.918 92.3978C260.538 92.8005 260.244 93.277 260.052 93.8006C259.86 94.3242 259.775 94.8824 259.802 95.4404V105.687H257.152V94.9119C257.157 94.4217 257.11 93.9338 257.013 93.4548C256.927 93.0462 256.761 92.6586 256.526 92.3163C256.291 91.9842 255.975 91.7224 255.609 91.5556C255.137 91.3613 254.631 91.2699 254.122 91.2864C253.433 91.2653 252.752 91.429 252.143 91.7606C251.628 92.0458 251.172 92.4321 250.802 92.8967C250.477 93.3113 250.223 93.7779 250.053 94.2797C249.914 94.6609 249.836 95.0633 249.818 95.4701V105.717ZM309.402 105.714V89.2884H312.05V105.714H309.402ZM316.013 105.714V83.0327H318.664V105.714H316.013ZM322.627 105.714L322.624 89.2884H325.275V105.714H322.627ZM333.951 105.714C333.358 105.722 332.766 105.673 332.182 105.566C331.75 105.499 331.343 105.32 330.999 105.045C330.678 104.76 330.443 104.386 330.327 103.968C330.165 103.367 330.092 102.746 330.109 102.123V91.6742L327.366 91.6717V89.2884H330.109V84.3639L332.765 84.3664V89.2884H335.978V91.6742H332.765V101.849C332.756 102.107 332.781 102.363 332.842 102.612C332.885 102.792 332.99 102.951 333.138 103.057C333.32 103.177 333.529 103.248 333.744 103.267C334.082 103.301 334.421 103.316 334.761 103.314H335.978V105.714H333.951ZM280.429 103.731C281.103 103.732 281.77 103.588 282.387 103.311C283.001 103.037 283.548 102.633 283.995 102.123C284.478 101.561 284.846 100.9 285.069 100.187C285.591 98.459 285.592 96.6104 285.069 94.8823C284.843 94.1637 284.477 93.5002 283.995 92.9263C283.551 92.4097 283.001 91.9965 282.384 91.7186C281.767 91.4447 281.102 91.3035 280.429 91.3037C279.756 91.3033 279.09 91.4454 278.472 91.7186C277.856 91.997 277.307 92.4072 276.862 92.9238C276.38 93.4977 276.017 94.1631 275.79 94.8823C275.269 96.6111 275.269 98.4586 275.79 100.187C276.014 100.9 276.379 101.561 276.864 102.123C277.309 102.633 277.858 103.04 278.472 103.314C279.089 103.59 279.755 103.732 280.429 103.731ZM298.493 103.692C298.594 103.694 298.697 103.693 298.799 103.689C299.596 103.716 300.386 103.53 301.09 103.148C301.691 102.802 302.198 102.311 302.57 101.718C302.956 101.096 303.233 100.407 303.382 99.6858C303.551 98.9149 303.634 98.1281 303.632 97.3372C303.632 96.5792 303.531 95.8255 303.336 95.0947C303.151 94.3945 302.846 93.7307 302.432 93.1412C302.024 92.5673 301.491 92.101 300.872 91.7754C300.179 91.422 299.411 91.2474 298.636 91.2691C297.844 91.2428 297.058 91.4293 296.356 91.8051C295.75 92.1566 295.229 92.6384 294.831 93.2202C294.424 93.8219 294.133 94.4968 293.975 95.2083C293.794 95.9536 293.703 96.7176 293.705 97.4853C293.704 98.2716 293.798 99.0555 293.984 99.8192C294.157 100.532 294.459 101.206 294.874 101.805C295.289 102.383 295.829 102.856 296.451 103.188C297.09 103.503 297.785 103.674 298.493 103.692ZM340.545 95.9492H349.812C349.769 95.324 349.628 94.7096 349.392 94.1315C349.165 93.5817 348.836 93.0841 348.425 92.6596C348.01 92.2422 347.523 91.9079 346.989 91.6742C346.41 91.4247 345.788 91.3019 345.16 91.3111C344.524 91.3005 343.891 91.4234 343.305 91.6742C342.77 91.9071 342.288 92.2488 341.886 92.6769C341.489 93.1064 341.174 93.6057 340.952 94.1513C340.722 94.7241 340.584 95.3313 340.545 95.9492ZM345.09 86.3989L343.094 86.3964L346.091 81.2521H349.489L345.09 86.3989ZM309.402 86.3347V83.0327H312.05V86.3347H309.402ZM322.624 86.3347V83.0327H325.275V86.3347H322.624ZM367.101 103.392C367.53 102.643 367.742 101.784 367.711 100.916C367.734 100.23 367.577 99.5511 367.257 98.9469C366.961 98.4224 366.557 97.9706 366.073 97.6214C365.557 97.2585 364.992 96.9741 364.396 96.7785C363.754 96.5648 363.104 96.384 362.445 96.2378C361.824 96.0888 361.198 95.9468 360.572 95.8112C360.002 95.6874 359.441 95.5182 358.896 95.3042C358.442 95.1298 358.026 94.8703 357.666 94.5419C357.511 94.397 357.387 94.2217 357.304 94.0252C357.22 93.8285 357.178 93.6169 357.179 93.4029C357.163 93.0331 357.274 92.6688 357.492 92.3723C357.709 92.0983 357.987 91.8791 358.304 91.7353C358.658 91.5683 359.034 91.4553 359.421 91.399C359.819 91.3384 360.221 91.3075 360.623 91.3088C361.058 91.3076 361.494 91.3553 361.919 91.4504C362.331 91.539 362.725 91.6951 363.088 91.911C363.438 92.1199 363.738 92.4084 363.96 92.754C364.204 93.1496 364.344 93.6028 364.367 94.0694L367.017 94.0693C366.989 93.2014 366.778 92.3518 366.396 91.5756C366.062 90.9337 365.573 90.3877 364.977 89.9876C364.353 89.5829 363.659 89.3031 362.931 89.1629C362.099 88.9964 361.253 88.9164 360.405 88.9235C359.685 88.9265 358.968 89.0158 358.27 89.1907C357.585 89.359 356.931 89.6391 356.336 90.0219C355.765 90.387 355.282 90.8787 354.927 91.4626C354.546 92.1033 354.353 92.842 354.368 93.5913C354.313 94.4876 354.59 95.3736 355.145 96.072C355.685 96.6772 356.352 97.1508 357.096 97.4557C357.92 97.7837 358.774 98.0302 359.645 98.1905C360.562 98.3661 361.405 98.5711 362.188 98.7935C362.879 98.9751 363.538 99.2703 364.139 99.6645C364.392 99.8369 364.597 100.075 364.734 100.353C364.87 100.631 364.932 100.941 364.916 101.253C364.935 101.702 364.804 102.146 364.541 102.51C364.292 102.837 363.965 103.094 363.591 103.256C363.188 103.43 362.763 103.548 362.327 103.603C361.894 103.665 361.457 103.697 361.019 103.7C360.491 103.702 359.962 103.648 359.444 103.54C358.96 103.444 358.496 103.268 358.069 103.017C357.667 102.773 357.33 102.436 357.084 102.032C356.824 101.573 356.685 101.054 356.682 100.524L354.027 100.523C354.043 101.423 354.256 102.308 354.653 103.114C355.009 103.798 355.523 104.384 356.151 104.821C356.806 105.267 357.535 105.585 358.303 105.76C359.143 105.952 360.002 106.047 360.863 106.045C361.685 106.044 362.505 105.963 363.311 105.805C364.101 105.665 364.858 105.38 365.547 104.963C366.177 104.569 366.71 104.032 367.101 103.392Z" fill="white"/>
<path d="M135.555 75.2295C126.323 75.2289 120.059 69.6794 120.06 60.2255C120.06 51.5834 126.982 45.3825 135.317 45.3821C145.456 45.3825 150.521 52.9968 150.095 62.5664H129.324C129.491 66.4265 131.719 68.9757 135.649 68.9758C137.873 68.9766 140.061 67.9449 140.936 65.8682H149.602C147.914 72.3894 141.853 75.2187 135.555 75.2295ZM256.504 75.2079C251.114 75.2077 246.864 72.4945 246.863 66.6636C246.863 57.4856 256.891 58.1918 263.321 56.883C264.905 56.5585 265.773 56.0181 265.773 54.2785C265.773 52.1582 263.216 51.3464 261.307 51.3458C258.738 51.3464 257.112 52.4873 256.675 54.8728L247.987 54.8752C248.175 51.176 249.906 48.705 252.412 47.3085C254.92 45.9115 258.185 45.3587 261.405 45.3581C268.107 45.3588 274.594 46.835 274.595 54.8248L274.593 67.1716C274.593 69.563 274.595 72.1989 275.702 74.4076L266.371 74.4052C266.081 73.5398 265.898 72.6436 265.828 71.7337C263.431 74.2354 259.891 75.2068 256.504 75.2079ZM161.757 74.918C154.916 74.9177 151.531 69.5242 151.531 63.2613C151.531 56.999 154.877 51.727 161.673 51.7268C163.943 51.727 167.208 52.6156 168.841 55.1938H168.93V43.7791H172.582V74.4052H168.93V71.4126H168.841C167.647 73.8478 164.807 74.9182 161.757 74.918ZM185.506 74.9132C178.411 74.9142 175.059 70.0333 174.837 63.2565C174.837 56.6029 179.202 51.7199 185.29 51.7196C193.126 51.7195 195.558 59.0592 195.342 64.421H178.737C178.609 68.287 180.802 71.7005 185.65 71.7001C188.638 71.7005 190.758 70.2386 191.406 67.3777L195.015 67.3753C194.019 72.2638 190.498 74.9192 185.506 74.9132ZM108.346 74.4124V43.1394H102.477L99.2118 38.781L95.9413 43.1394H88.968L95.0672 35.0504L103.347 35.048L108.346 41.673V35.5847H117.61V74.4124H108.346ZM94.5725 74.4052V46.1871H103.837V74.4052H94.5725ZM197.714 74.4052V35.5847H226.38L226.383 43.6857H207.847V51.6285L223.873 51.6261V59.4516H207.847V74.4052H197.714ZM228.22 74.3789V46.1584H237.224V51.1302H237.33C238.697 47.5461 241.85 45.6399 245.84 45.6408C246.572 45.6374 247.301 45.7122 248.016 45.8661V54.2929C246.865 53.9432 245.672 53.7578 244.469 53.7418C239.898 53.7418 237.489 56.8956 237.489 60.4411L237.491 74.3789H228.22ZM162.267 71.6714C167.159 71.6709 169.053 67.479 169.053 63.3212C169.043 58.948 167.003 54.9224 162.034 54.9231C157.053 54.9221 155.394 59.1578 155.394 63.4937C155.394 67.6455 157.547 71.6706 162.267 71.6714ZM260 69.5077C264.405 69.5083 265.883 67.0113 265.667 61.1911C264.366 61.997 262.004 62.2248 259.94 62.7102C257.876 63.1966 256.128 64.09 256.127 66.2994C256.127 68.5859 257.913 69.5081 260 69.5077ZM178.727 61.2031H191.452C191.279 57.7126 188.666 54.9528 185.052 54.9518C181.256 54.952 178.965 57.813 178.727 61.2031ZM129.324 57.3982H140.852C140.659 54.2285 138.422 51.6258 135.317 51.6261C132.052 51.6262 129.876 53.9582 129.324 57.3982ZM296.895 60.761L296.894 74.4062L306.159 74.406L306.159 56.2995C306.159 52.2241 305.395 45.3713 295.964 45.371C292.588 45.371 288.77 47.166 287.109 50.0537L286.989 50.0536L286.988 46.1876L277.994 46.1881L277.995 74.4059L287.248 74.4061L287.248 59.0098C287.248 55.9177 288.776 52.9857 292.228 52.9858C297.332 52.9864 296.894 56.895 296.895 60.761ZM337.245 63.3178L328.258 63.3176C327.837 66.2993 326.176 68.1499 322.972 68.1498C319.054 68.1493 317.47 64.4056 317.471 60.7611C317.471 56.8456 318.29 52.4444 323.464 52.4449C325.799 52.4446 327.93 54.1012 327.992 56.5194L337.006 56.5196C336.359 49.0651 330.083 45.3704 323.054 45.3703C313.951 45.371 308.224 51.7932 308.223 60.7612C308.223 69.4034 314.56 75.2186 323.055 75.2185C330.576 75.2176 336.459 70.8724 337.245 63.3178ZM367.367 65.8681L358.689 65.8685C357.82 67.9446 355.64 68.9769 353.415 68.9773C349.486 68.9771 347.25 66.4255 347.084 62.566L367.849 62.5662C368.286 52.996 363.221 45.3807 353.078 45.3812C344.749 45.3812 337.82 51.5827 337.82 60.2249C337.819 69.6843 344.09 75.2279 353.316 75.2292C359.613 75.2167 365.663 72.3901 367.367 65.8681ZM347.084 57.397C347.637 53.9569 349.802 51.6269 353.077 51.6264C356.188 51.6265 358.423 54.2274 358.584 57.3972L347.084 57.397Z" fill="white"/>
<path d="M393.573 106.088L432.277 106.088C436.558 106.076 440.661 104.372 443.689 101.35C446.716 98.3265 448.423 94.2311 448.434 89.9552L448.435 51.3232C448.425 47.0468 446.721 42.9474 443.693 39.9222C440.665 36.8969 436.561 35.1918 432.277 35.1798L393.573 35.1806C389.29 35.1935 385.187 36.8985 382.159 39.9235C379.132 42.9485 377.426 47.0474 377.416 51.3239L377.416 89.9665C377.431 94.2401 379.138 98.3338 382.165 101.354C385.193 104.374 389.293 106.077 393.573 106.088ZM406.886 48.5109C408.576 44.8778 412.261 43.0094 415.128 44.3319C417.996 45.6532 418.948 49.6809 417.263 53.3314C415.579 56.982 411.889 58.8329 409.021 57.5116C406.153 56.1892 405.207 52.1561 406.886 48.5109ZM393.005 70.9038C399.015 64.4977 404.43 62.8487 411.658 61.7689C418.886 60.689 421.545 61.1051 430.125 56.786C432.48 55.6041 431.815 57.0159 430.311 58.6133C424.3 65.0205 418.88 66.6681 411.658 67.7483C404.435 68.8284 401.771 68.412 393.19 72.7323C390.836 73.913 391.506 72.5015 393.005 70.9038ZM391.878 95.8283C396.013 90.1359 399.359 85.484 403.354 80.129C408.384 73.3341 415.844 69.0083 421.944 77.4802C427.624 85.354 433.91 93.989 435.713 96.464C435.956 96.8016 435.803 97.1782 435.285 97.2171C432.412 97.4195 425.815 97.876 423.641 94.8998C420.491 90.5911 416.947 85.6191 414.063 81.6535C411.579 78.2331 407.979 77.8953 405.567 81.209C402.88 84.9106 398.593 90.7708 396.875 93.0888C395.833 94.5761 394.504 95.84 392.965 96.8071C391.641 97.611 390.909 97.1441 391.861 95.8285L391.878 95.8283Z" fill="white"/>
<path d="M435.843 96.8364C435.812 97.0325 435.632 97.1903 435.308 97.2147C432.435 97.417 425.837 97.8723 423.663 94.8961C420.502 90.5879 416.959 85.6159 414.085 81.6509C411.601 78.2305 408 77.8929 405.589 81.2067C402.901 84.9082 398.614 90.7396 396.896 93.0852C395.854 94.5725 394.526 95.8376 392.988 96.8046C391.641 97.6086 390.909 97.1416 391.883 95.826C396.052 90.1503 399.433 85.4807 403.376 80.1255C408.396 73.3301 415.854 69.0062 421.966 77.4774C427.645 85.3467 433.932 93.9855 435.736 96.4605C435.827 96.5871 435.862 96.7187 435.843 96.8364ZM431.668 56.5833C431.669 56.9663 431.107 57.7633 430.311 58.6115C424.3 65.0186 418.858 66.6641 411.658 67.7443C404.458 68.8243 401.771 68.4103 393.19 72.7304C390.836 73.9112 391.506 72.4977 393.005 70.9C399.015 64.4939 404.458 62.8473 411.658 61.7672C418.858 60.687 421.546 61.1026 430.126 56.7835C431.23 56.2295 431.667 56.2454 431.668 56.5833ZM418.097 49.5788C418.112 50.7945 417.844 52.0866 417.263 53.33C415.573 56.9469 411.888 58.8307 409.021 57.5083C406.158 56.1701 405.196 52.1268 406.887 48.5098C408.577 44.8928 412.265 42.9807 415.127 44.3314C417.005 45.2172 418.067 47.2578 418.097 49.5788Z" fill="#64B5F6"/>
</svg>
